<svg width="439" height="24" viewBox="0 0 439 24" fill="none" xmlns="http://www.w3.org/2000/svg">
<path d="M14.5656 23.0098C14.0236 22.4055 13.5494 21.5325 13.5494 20.9953C13.5494 20.4582 12.9397 20.0553 12.1944 20.0553C11.517 20.0553 10.5685 19.4509 10.162 18.7123C9.75556 17.9737 9.68781 17.3693 10.0943 17.3693C10.433 17.3693 10.8395 17.8394 11.1105 18.3766C11.3137 18.9137 11.9912 19.3838 12.6009 19.3838C13.6849 19.3838 13.6849 19.2495 12.5332 18.0408C11.8557 17.3022 10.5685 16.6978 9.68781 16.6978C8.8071 16.6978 7.38441 15.9592 6.5037 15.0191C4.94553 13.3404 4.94553 13.3404 3.72608 14.6834C2.57438 15.9592 2.57438 16.0935 4.3358 18.3094C6.23272 20.861 6.43596 21.3982 5.41975 21.3982C4.4713 21.3982 0 17.3693 0 16.4964C0 16.0935 0.812963 14.8848 1.82917 13.8776L3.65833 11.9975L1.82917 10.1173C0.812963 9.11008 0 7.90141 0 7.56566C0 6.62559 4.26806 2.59668 5.28426 2.59668C6.57145 2.59668 6.23272 3.53676 4.40355 5.28262C2.37114 7.16277 2.3034 8.0357 3.92932 9.51297C5.4875 10.9231 6.09722 10.9231 6.09722 9.64726C6.09722 9.04293 6.84244 8.3043 7.72315 7.90141C8.60386 7.49852 9.68781 6.42414 10.0943 5.55121C10.5008 4.61114 11.3815 3.93965 12.1944 3.93965C13.0752 3.93965 13.5494 3.46961 13.5494 2.66383C13.5494 0.71653 15.2431 -0.223548 18.4272 0.0450458C20.6628 0.179343 21.4758 0.582233 22.0177 1.72376C22.3565 2.52954 23.3049 3.46961 24.1179 3.8725C24.9309 4.20825 25.8116 5.14832 26.0826 5.88695C26.2858 6.69273 26.9633 7.29707 27.4375 7.29707C27.9795 7.29707 28.9279 8.0357 29.5377 8.97578C30.6216 10.5873 30.7571 10.6545 31.9088 9.58012C33.6025 8.0357 33.5347 7.36422 31.4346 5.21547C30.4184 4.1411 29.8764 3.06672 30.1474 2.59668C30.6894 1.7909 35.9059 6.28984 35.9059 7.56566C35.9059 7.90141 35.0929 9.11008 34.0767 10.1173L32.2475 11.9975L36.5833 16.4293L34.009 18.9137C30.0796 22.7412 28.115 22.204 31.9088 18.3094L33.9412 16.2278L31.8411 14.4148C29.2667 12.3332 28.9957 12.2661 27.4375 14.0119C25.7438 15.8249 26.6245 16.4964 28.386 14.7505C29.1989 13.9448 29.8086 13.609 29.8086 14.0119C29.8086 14.3477 29.0634 15.1534 28.115 15.7578C27.2343 16.3621 26.2858 17.3693 26.0826 18.108C25.8116 18.7794 24.9309 19.5852 23.9824 19.7867C22.9662 20.0553 22.3565 20.6596 22.3565 21.4654C22.3565 23.8156 16.598 24.9571 14.5656 23.0098ZM15.7173 21.2639C14.9043 20.391 14.2269 20.1224 14.2269 20.5253C14.2269 21.5325 16.327 23.6141 16.8012 23.0769C17.0045 22.8755 16.5302 22.0697 15.7173 21.2639ZM21.679 21.3982C21.679 20.4582 20.7306 20.5925 19.7821 21.5325C18.4949 22.8083 18.8336 23.547 20.3241 22.7412C21.0693 22.3383 21.679 21.734 21.679 21.3982ZM20.3241 18.3766C19.7144 17.6379 19.7144 17.1007 20.1886 16.4964C20.6628 16.0264 20.6628 15.2877 20.3241 14.6834C19.8498 13.9448 19.5789 13.9448 18.6982 14.6162C17.8852 15.2877 17.411 15.3549 16.6657 14.7505C15.9883 14.2134 15.5818 14.1462 15.2431 14.6834C14.5656 15.7578 15.5818 16.765 16.9367 16.3621C18.2917 15.9592 19.3079 16.9664 18.6304 18.0408C18.2917 18.578 17.8852 18.5108 17.2077 17.9737C16.4625 17.3693 15.9883 17.3693 15.4463 17.9065C14.3623 18.9809 15.4463 20.1224 17.2755 19.6524C18.1562 19.4509 19.0369 19.5852 19.3079 20.0553C19.6466 20.5925 19.9853 20.6596 20.5273 20.1224C21.0015 19.6524 20.9338 19.1152 20.3241 18.3766ZM24.7276 18.3094C25.5406 17.4365 25.6083 17.0336 24.9986 16.6978C24.4566 16.295 24.7276 15.6235 26.0148 14.2805C26.9633 13.2061 27.7762 12.1989 27.7762 11.9975C27.7762 11.7289 26.76 10.6545 25.5406 9.44582L23.3049 7.29707L18.6304 12.0646L21.408 14.6834C23.9824 17.0336 24.1179 17.3693 23.1694 18.3094C22.492 18.9137 22.3565 19.3838 22.8307 19.3838C23.2372 19.3838 24.1179 18.9137 24.7276 18.3094ZM14.7688 9.51297C12.3299 7.09563 12.1944 7.02848 10.8395 8.3043C10.0265 9.04293 9.48457 9.17723 9.48457 8.70719C9.48457 8.10285 9.14583 8.10285 8.12963 8.64004C6.16497 9.71441 6.43596 10.5873 9.62006 13.8105L12.4654 16.6978L14.9043 14.3477L17.2755 11.9975L14.7688 9.51297ZM8.19738 14.0791C7.18117 13.0718 6.77469 12.9375 6.77469 13.6762C6.77469 14.1462 7.31667 14.8848 7.92639 15.2877C9.68781 16.2278 9.8233 15.6906 8.19738 14.0791ZM28.9957 9.84871C28.4537 9.04293 27.573 8.23715 27.031 8.10285C26.489 7.90141 26.8278 8.57289 27.7085 9.58012C29.7409 11.7289 30.3506 11.8632 28.9957 9.84871ZM17.2755 8.64004C17.5465 8.23715 17.411 7.49852 16.9367 6.96133C16.4625 6.35699 16.3948 5.9541 16.9367 5.61836C18.0207 4.94688 19.0369 5.9541 18.6304 7.29707C18.2239 8.64004 19.2401 9.64726 20.3241 8.97578C20.8661 8.64004 20.7983 8.23715 20.2563 7.56566C19.6466 6.82703 19.7144 6.35699 20.3241 5.61836C21.6113 4.1411 20.1208 2.66383 18.6304 3.93965C17.8174 4.61114 17.411 4.61114 16.598 3.93965C16.056 3.46961 15.514 3.26817 15.514 3.53676C15.2431 4.74543 15.1753 8.37144 15.3786 8.84148C15.785 9.51297 16.8012 9.44582 17.2755 8.64004ZM12.1944 5.9541C13.0752 5.08117 13.2106 4.61114 12.6687 4.61114C11.7202 4.61114 10.162 5.9541 10.162 6.75988C10.162 7.63281 10.7718 7.36422 12.1944 5.9541ZM24.9309 5.81981C24.3889 5.01403 23.5082 4.20825 22.9662 4.07395C22.4242 3.8725 22.763 4.54399 23.6437 5.55121C25.6761 7.69996 26.2858 7.83426 24.9309 5.81981ZM16.2593 1.9252C17.3432 0.985123 17.4787 0.582233 16.869 0.582233C15.785 0.582233 14.2269 1.85805 14.2269 2.73098C14.2269 3.53676 14.5656 3.40246 16.2593 1.9252ZM21.0015 1.58946C20.5273 1.05227 19.8498 0.582233 19.4434 0.582233C19.1046 0.582233 19.3079 1.18657 19.9853 1.9252C21.408 3.46961 22.3565 3.20102 21.0015 1.58946Z" fill="black"/>
<path d="M87.7323 23.0098C87.1903 22.4055 86.7161 21.5325 86.7161 20.9953C86.7161 20.4582 86.1063 20.0553 85.3611 20.0553C84.6836 20.0553 83.7352 19.4509 83.3287 18.7123C82.9222 17.9737 82.8545 17.3693 83.261 17.3693C83.5997 17.3693 84.0062 17.8394 84.2772 18.3766C84.4804 18.9137 85.1579 19.3838 85.7676 19.3838C86.8515 19.3838 86.8515 19.2495 85.6999 18.0408C85.0224 17.3022 83.7352 16.6978 82.8545 16.6978C81.9738 16.6978 80.5511 15.9592 79.6704 15.0191C78.1122 13.3404 78.1122 13.3404 76.8927 14.6834C75.7411 15.9592 75.7411 16.0935 77.5025 18.3094C79.3994 20.861 79.6026 21.3982 78.5864 21.3982C77.638 21.3982 73.1667 17.3693 73.1667 16.4964C73.1667 16.0935 73.9796 14.8848 74.9958 13.8776L76.825 11.9975L74.9958 10.1173C73.9796 9.11008 73.1667 7.90141 73.1667 7.56566C73.1667 6.62559 77.4347 2.59668 78.4509 2.59668C79.7381 2.59668 79.3994 3.53676 77.5702 5.28262C75.5378 7.16277 75.4701 8.0357 77.096 9.51297C78.6542 10.9231 79.2639 10.9231 79.2639 9.64726C79.2639 9.04293 80.0091 8.3043 80.8898 7.90141C81.7705 7.49852 82.8545 6.42414 83.261 5.55121C83.6674 4.61114 84.5481 3.93965 85.3611 3.93965C86.2418 3.93965 86.7161 3.46961 86.7161 2.66383C86.7161 0.71653 88.4097 -0.223548 91.5938 0.0450458C93.8295 0.179343 94.6424 0.582233 95.1844 1.72376C95.5232 2.52954 96.4716 3.46961 97.2846 3.8725C98.0975 4.20825 98.9782 5.14832 99.2492 5.88695C99.4525 6.69273 100.13 7.29707 100.604 7.29707C101.146 7.29707 102.095 8.0357 102.704 8.97578C103.788 10.5873 103.924 10.6545 105.075 9.58012C106.769 8.0357 106.701 7.36422 104.601 5.21547C103.585 4.1411 103.043 3.06672 103.314 2.59668C103.856 1.7909 109.073 6.28984 109.073 7.56566C109.073 7.90141 108.26 9.11008 107.243 10.1173L105.414 11.9975L109.75 16.4293L107.176 18.9137C103.246 22.7412 101.282 22.204 105.075 18.3094L107.108 16.2278L105.008 14.4148C102.433 12.3332 102.162 12.2661 100.604 14.0119C98.9105 15.8249 99.7912 16.4964 101.553 14.7505C102.366 13.9448 102.975 13.609 102.975 14.0119C102.975 14.3477 102.23 15.1534 101.282 15.7578C100.401 16.3621 99.4525 17.3693 99.2492 18.108C98.9782 18.7794 98.0975 19.5852 97.1491 19.7867C96.1329 20.0553 95.5232 20.6596 95.5232 21.4654C95.5232 23.8156 89.7647 24.9571 87.7323 23.0098ZM88.884 21.2639C88.071 20.391 87.3935 20.1224 87.3935 20.5253C87.3935 21.5325 89.4937 23.6141 89.9679 23.0769C90.1712 22.8755 89.6969 22.0697 88.884 21.2639ZM94.8457 21.3982C94.8457 20.4582 93.8972 20.5925 92.9488 21.5325C91.6616 22.8083 92.0003 23.547 93.4907 22.7412C94.236 22.3383 94.8457 21.734 94.8457 21.3982ZM93.4907 18.3766C92.881 17.6379 92.881 17.1007 93.3553 16.4964C93.8295 16.0264 93.8295 15.2877 93.4907 14.6834C93.0165 13.9448 92.7455 13.9448 91.8648 14.6162C91.0519 15.2877 90.5776 15.3549 89.8324 14.7505C89.1549 14.2134 88.7485 14.1462 88.4097 14.6834C87.7323 15.7578 88.7485 16.765 90.1034 16.3621C91.4583 15.9592 92.4745 16.9664 91.7971 18.0408C91.4583 18.578 91.0519 18.5108 90.3744 17.9737C89.6292 17.3693 89.1549 17.3693 88.613 17.9065C87.529 18.9809 88.613 20.1224 90.4421 19.6524C91.3228 19.4509 92.2036 19.5852 92.4745 20.0553C92.8133 20.5925 93.152 20.6596 93.694 20.1224C94.1682 19.6524 94.1005 19.1152 93.4907 18.3766ZM97.8943 18.3094C98.7073 17.4365 98.775 17.0336 98.1653 16.6978C97.6233 16.295 97.8943 15.6235 99.1815 14.2805C100.13 13.2061 100.943 12.1989 100.943 11.9975C100.943 11.7289 99.9267 10.6545 98.7073 9.44582L96.4716 7.29707L91.7971 12.0646L94.5747 14.6834C97.1491 17.0336 97.2846 17.3693 96.3361 18.3094C95.6587 18.9137 95.5232 19.3838 95.9974 19.3838C96.4039 19.3838 97.2846 18.9137 97.8943 18.3094ZM87.9355 9.51297C85.4966 7.09563 85.3611 7.02848 84.0062 8.3043C83.1932 9.04293 82.6512 9.17723 82.6512 8.70719C82.6512 8.10285 82.3125 8.10285 81.2963 8.64004C79.3316 9.71441 79.6026 10.5873 82.7867 13.8105L85.6321 16.6978L88.071 14.3477L90.4421 11.9975L87.9355 9.51297ZM81.364 14.0791C80.3478 13.0718 79.9414 12.9375 79.9414 13.6762C79.9414 14.1462 80.4833 14.8848 81.0931 15.2877C82.8545 16.2278 82.99 15.6906 81.364 14.0791ZM102.162 9.84871C101.62 9.04293 100.74 8.23715 100.198 8.10285C99.6557 7.90141 99.9945 8.57289 100.875 9.58012C102.908 11.7289 103.517 11.8632 102.162 9.84871ZM90.4421 8.64004C90.7131 8.23715 90.5776 7.49852 90.1034 6.96133C89.6292 6.35699 89.5614 5.9541 90.1034 5.61836C91.1874 4.94688 92.2036 5.9541 91.7971 7.29707C91.3906 8.64004 92.4068 9.64726 93.4907 8.97578C94.0327 8.64004 93.965 8.23715 93.423 7.56566C92.8133 6.82703 92.881 6.35699 93.4907 5.61836C94.7779 4.1411 93.2875 2.66383 91.7971 3.93965C90.9841 4.61114 90.5776 4.61114 89.7647 3.93965C89.2227 3.46961 88.6807 3.26817 88.6807 3.53676C88.4097 4.74543 88.342 8.37144 88.5452 8.84148C88.9517 9.51297 89.9679 9.44582 90.4421 8.64004ZM85.3611 5.9541C86.2418 5.08117 86.3773 4.61114 85.8353 4.61114C84.8869 4.61114 83.3287 5.9541 83.3287 6.75988C83.3287 7.63281 83.9384 7.36422 85.3611 5.9541ZM98.0975 5.81981C97.5556 5.01403 96.6749 4.20825 96.1329 4.07395C95.5909 3.8725 95.9296 4.54399 96.8103 5.55121C98.8428 7.69996 99.4525 7.83426 98.0975 5.81981ZM89.4259 1.9252C90.5099 0.985123 90.6454 0.582233 90.0357 0.582233C88.9517 0.582233 87.3935 1.85805 87.3935 2.73098C87.3935 3.53676 87.7323 3.40246 89.4259 1.9252ZM94.1682 1.58946C93.694 1.05227 93.0165 0.582233 92.61 0.582233C92.2713 0.582233 92.4745 1.18657 93.152 1.9252C94.5747 3.46961 95.5232 3.20102 94.1682 1.58946Z" fill="black"/>
<path d="M51.1489 23.0098C50.6069 22.4055 50.1327 21.5325 50.1327 20.9953C50.1327 20.4582 49.523 20.0553 48.7778 20.0553C48.1003 20.0553 47.1519 19.4509 46.7454 18.7123C46.3389 17.9737 46.2711 17.3693 46.6776 17.3693C47.0164 17.3693 47.4228 17.8394 47.6938 18.3766C47.8971 18.9137 48.5745 19.3838 49.1843 19.3838C50.2682 19.3838 50.2682 19.2495 49.1165 18.0408C48.439 17.3022 47.1519 16.6978 46.2711 16.6978C45.3904 16.6978 43.9678 15.9592 43.087 15.0191C41.5289 13.3404 41.5289 13.3404 40.3094 14.6834C39.1577 15.9592 39.1577 16.0935 40.9191 18.3094C42.8161 20.861 43.0193 21.3982 42.0031 21.3982C41.0546 21.3982 36.5833 17.3693 36.5833 16.4964C36.5833 16.0935 37.3963 14.8848 38.4125 13.8776L40.2417 11.9975L38.4125 10.1173C37.3963 9.11008 36.5833 7.90141 36.5833 7.56566C36.5833 6.62559 40.8514 2.59668 41.8676 2.59668C43.1548 2.59668 42.8161 3.53676 40.9869 5.28262C38.9545 7.16277 38.8867 8.0357 40.5127 9.51297C42.0708 10.9231 42.6806 10.9231 42.6806 9.64726C42.6806 9.04293 43.4258 8.3043 44.3065 7.90141C45.1872 7.49852 46.2711 6.42414 46.6776 5.55121C47.0841 4.61114 47.9648 3.93965 48.7778 3.93965C49.6585 3.93965 50.1327 3.46961 50.1327 2.66383C50.1327 0.71653 51.8264 -0.223548 55.0105 0.0450458C57.2461 0.179343 58.0591 0.582233 58.6011 1.72376C58.9398 2.52954 59.8883 3.46961 60.7012 3.8725C61.5142 4.20825 62.3949 5.14832 62.6659 5.88695C62.8691 6.69273 63.5466 7.29707 64.0208 7.29707C64.5628 7.29707 65.5113 8.0357 66.121 8.97578C67.2049 10.5873 67.3404 10.6545 68.4921 9.58012C70.1858 8.0357 70.1181 7.36422 68.0179 5.21547C67.0017 4.1411 66.4597 3.06672 66.7307 2.59668C67.2727 1.7909 72.4892 6.28984 72.4892 7.56566C72.4892 7.90141 71.6762 9.11008 70.66 10.1173L68.8309 11.9975L73.1667 16.4293L70.5923 18.9137C66.663 22.7412 64.6983 22.204 68.4921 18.3094L70.5245 16.2278L68.4244 14.4148C65.85 12.3332 65.579 12.2661 64.0208 14.0119C62.3272 15.8249 63.2079 16.4964 64.9693 14.7505C65.7823 13.9448 66.392 13.609 66.392 14.0119C66.392 14.3477 65.6468 15.1534 64.6983 15.7578C63.8176 16.3621 62.8691 17.3693 62.6659 18.108C62.3949 18.7794 61.5142 19.5852 60.5657 19.7867C59.5495 20.0553 58.9398 20.6596 58.9398 21.4654C58.9398 23.8156 53.1813 24.9571 51.1489 23.0098ZM52.3006 21.2639C51.4877 20.391 50.8102 20.1224 50.8102 20.5253C50.8102 21.5325 52.9103 23.6141 53.3846 23.0769C53.5878 22.8755 53.1136 22.0697 52.3006 21.2639ZM58.2624 21.3982C58.2624 20.4582 57.3139 20.5925 56.3654 21.5325C55.0782 22.8083 55.417 23.547 56.9074 22.7412C57.6526 22.3383 58.2624 21.734 58.2624 21.3982ZM56.9074 18.3766C56.2977 17.6379 56.2977 17.1007 56.7719 16.4964C57.2461 16.0264 57.2461 15.2877 56.9074 14.6834C56.4332 13.9448 56.1622 13.9448 55.2815 14.6162C54.4685 15.2877 53.9943 15.3549 53.2491 14.7505C52.5716 14.2134 52.1651 14.1462 51.8264 14.6834C51.1489 15.7578 52.1651 16.765 53.5201 16.3621C54.875 15.9592 55.8912 16.9664 55.2137 18.0408C54.875 18.578 54.4685 18.5108 53.7911 17.9737C53.0458 17.3693 52.5716 17.3693 52.0296 17.9065C50.9457 18.9809 52.0296 20.1224 53.8588 19.6524C54.7395 19.4509 55.6202 19.5852 55.8912 20.0553C56.2299 20.5925 56.5687 20.6596 57.1107 20.1224C57.5849 19.6524 57.5171 19.1152 56.9074 18.3766ZM61.311 18.3094C62.1239 17.4365 62.1917 17.0336 61.5819 16.6978C61.04 16.295 61.311 15.6235 62.5982 14.2805C63.5466 13.2061 64.3596 12.1989 64.3596 11.9975C64.3596 11.7289 63.3434 10.6545 62.1239 9.44582L59.8883 7.29707L55.2137 12.0646L57.9914 14.6834C60.5657 17.0336 60.7012 17.3693 59.7528 18.3094C59.0753 18.9137 58.9398 19.3838 59.414 19.3838C59.8205 19.3838 60.7012 18.9137 61.311 18.3094ZM51.3522 9.51297C48.9133 7.09563 48.7778 7.02848 47.4228 8.3043C46.6099 9.04293 46.0679 9.17723 46.0679 8.70719C46.0679 8.10285 45.7292 8.10285 44.713 8.64004C42.7483 9.71441 43.0193 10.5873 46.2034 13.8105L49.0488 16.6978L51.4877 14.3477L53.8588 11.9975L51.3522 9.51297ZM44.7807 14.0791C43.7645 13.0718 43.358 12.9375 43.358 13.6762C43.358 14.1462 43.9 14.8848 44.5097 15.2877C46.2711 16.2278 46.4066 15.6906 44.7807 14.0791ZM65.579 9.84871C65.037 9.04293 64.1563 8.23715 63.6144 8.10285C63.0724 7.90141 63.4111 8.57289 64.2918 9.58012C66.3242 11.7289 66.934 11.8632 65.579 9.84871ZM53.8588 8.64004C54.1298 8.23715 53.9943 7.49852 53.5201 6.96133C53.0458 6.35699 52.9781 5.9541 53.5201 5.61836C54.604 4.94688 55.6202 5.9541 55.2137 7.29707C54.8073 8.64004 55.8235 9.64726 56.9074 8.97578C57.4494 8.64004 57.3816 8.23715 56.8397 7.56566C56.2299 6.82703 56.2977 6.35699 56.9074 5.61836C58.1946 4.1411 56.7042 2.66383 55.2137 3.93965C54.4008 4.61114 53.9943 4.61114 53.1813 3.93965C52.6394 3.46961 52.0974 3.26817 52.0974 3.53676C51.8264 4.74543 51.7586 8.37144 51.9619 8.84148C52.3684 9.51297 53.3846 9.44582 53.8588 8.64004ZM48.7778 5.9541C49.6585 5.08117 49.794 4.61114 49.252 4.61114C48.3036 4.61114 46.7454 5.9541 46.7454 6.75988C46.7454 7.63281 47.3551 7.36422 48.7778 5.9541ZM61.5142 5.81981C60.9722 5.01403 60.0915 4.20825 59.5495 4.07395C59.0076 3.8725 59.3463 4.54399 60.227 5.55121C62.2594 7.69996 62.8691 7.83426 61.5142 5.81981ZM52.8426 1.9252C53.9265 0.985123 54.062 0.582233 53.4523 0.582233C52.3684 0.582233 50.8102 1.85805 50.8102 2.73098C50.8102 3.53676 51.1489 3.40246 52.8426 1.9252ZM57.5849 1.58946C57.1107 1.05227 56.4332 0.582233 56.0267 0.582233C55.688 0.582233 55.8912 1.18657 56.5687 1.9252C57.9914 3.46961 58.9398 3.20102 57.5849 1.58946Z" fill="black"/>
<path d="M124.316 23.0098C123.774 22.4055 123.299 21.5325 123.299 20.9953C123.299 20.4582 122.69 20.0553 121.944 20.0553C121.267 20.0553 120.319 19.4509 119.912 18.7123C119.506 17.9737 119.438 17.3693 119.844 17.3693C120.183 17.3693 120.59 17.8394 120.861 18.3766C121.064 18.9137 121.741 19.3838 122.351 19.3838C123.435 19.3838 123.435 19.2495 122.283 18.0408C121.606 17.3022 120.319 16.6978 119.438 16.6978C118.557 16.6978 117.134 15.9592 116.254 15.0191C114.696 13.3404 114.696 13.3404 113.476 14.6834C112.324 15.9592 112.324 16.0935 114.086 18.3094C115.983 20.861 116.186 21.3982 115.17 21.3982C114.221 21.3982 109.75 17.3693 109.75 16.4964C109.75 16.0935 110.563 14.8848 111.579 13.8776L113.408 11.9975L111.579 10.1173C110.563 9.11008 109.75 7.90141 109.75 7.56566C109.75 6.62559 114.018 2.59668 115.034 2.59668C116.321 2.59668 115.983 3.53676 114.154 5.28262C112.121 7.16277 112.053 8.0357 113.679 9.51297C115.238 10.9231 115.847 10.9231 115.847 9.64726C115.847 9.04293 116.592 8.3043 117.473 7.90141C118.354 7.49852 119.438 6.42414 119.844 5.55121C120.251 4.61114 121.131 3.93965 121.944 3.93965C122.825 3.93965 123.299 3.46961 123.299 2.66383C123.299 0.71653 124.993 -0.223548 128.177 0.0450458C130.413 0.179343 131.226 0.582233 131.768 1.72376C132.106 2.52954 133.055 3.46961 133.868 3.8725C134.681 4.20825 135.562 5.14832 135.833 5.88695C136.036 6.69273 136.713 7.29707 137.188 7.29707C137.729 7.29707 138.678 8.0357 139.288 8.97578C140.372 10.5873 140.507 10.6545 141.659 9.58012C143.352 8.0357 143.285 7.36422 141.185 5.21547C140.168 4.1411 139.626 3.06672 139.897 2.59668C140.439 1.7909 145.656 6.28984 145.656 7.56566C145.656 7.90141 144.843 9.11008 143.827 10.1173L141.998 11.9975L146.333 16.4293L143.759 18.9137C139.83 22.7412 137.865 22.204 141.659 18.3094L143.691 16.2278L141.591 14.4148C139.017 12.3332 138.746 12.2661 137.188 14.0119C135.494 15.8249 136.375 16.4964 138.136 14.7505C138.949 13.9448 139.559 13.609 139.559 14.0119C139.559 14.3477 138.813 15.1534 137.865 15.7578C136.984 16.3621 136.036 17.3693 135.833 18.108C135.562 18.7794 134.681 19.5852 133.732 19.7867C132.716 20.0553 132.106 20.6596 132.106 21.4654C132.106 23.8156 126.348 24.9571 124.316 23.0098ZM125.467 21.2639C124.654 20.391 123.977 20.1224 123.977 20.5253C123.977 21.5325 126.077 23.6141 126.551 23.0769C126.754 22.8755 126.28 22.0697 125.467 21.2639ZM131.429 21.3982C131.429 20.4582 130.481 20.5925 129.532 21.5325C128.245 22.8083 128.584 23.547 130.074 22.7412C130.819 22.3383 131.429 21.734 131.429 21.3982ZM130.074 18.3766C129.464 17.6379 129.464 17.1007 129.939 16.4964C130.413 16.0264 130.413 15.2877 130.074 14.6834C129.6 13.9448 129.329 13.9448 128.448 14.6162C127.635 15.2877 127.161 15.3549 126.416 14.7505C125.738 14.2134 125.332 14.1462 124.993 14.6834C124.316 15.7578 125.332 16.765 126.687 16.3621C128.042 15.9592 129.058 16.9664 128.38 18.0408C128.042 18.578 127.635 18.5108 126.958 17.9737C126.213 17.3693 125.738 17.3693 125.196 17.9065C124.112 18.9809 125.196 20.1224 127.025 19.6524C127.906 19.4509 128.787 19.5852 129.058 20.0553C129.397 20.5925 129.735 20.6596 130.277 20.1224C130.752 19.6524 130.684 19.1152 130.074 18.3766ZM134.478 18.3094C135.291 17.4365 135.358 17.0336 134.749 16.6978C134.207 16.295 134.478 15.6235 135.765 14.2805C136.713 13.2061 137.526 12.1989 137.526 11.9975C137.526 11.7289 136.51 10.6545 135.291 9.44582L133.055 7.29707L128.38 12.0646L131.158 14.6834C133.732 17.0336 133.868 17.3693 132.919 18.3094C132.242 18.9137 132.106 19.3838 132.581 19.3838C132.987 19.3838 133.868 18.9137 134.478 18.3094ZM124.519 9.51297C122.08 7.09563 121.944 7.02848 120.59 8.3043C119.777 9.04293 119.235 9.17723 119.235 8.70719C119.235 8.10285 118.896 8.10285 117.88 8.64004C115.915 9.71441 116.186 10.5873 119.37 13.8105L122.215 16.6978L124.654 14.3477L127.025 11.9975L124.519 9.51297ZM117.947 14.0791C116.931 13.0718 116.525 12.9375 116.525 13.6762C116.525 14.1462 117.067 14.8848 117.676 15.2877C119.438 16.2278 119.573 15.6906 117.947 14.0791ZM138.746 9.84871C138.204 9.04293 137.323 8.23715 136.781 8.10285C136.239 7.90141 136.578 8.57289 137.458 9.58012C139.491 11.7289 140.101 11.8632 138.746 9.84871ZM127.025 8.64004C127.296 8.23715 127.161 7.49852 126.687 6.96133C126.213 6.35699 126.145 5.9541 126.687 5.61836C127.771 4.94688 128.787 5.9541 128.38 7.29707C127.974 8.64004 128.99 9.64726 130.074 8.97578C130.616 8.64004 130.548 8.23715 130.006 7.56566C129.397 6.82703 129.464 6.35699 130.074 5.61836C131.361 4.1411 129.871 2.66383 128.38 3.93965C127.567 4.61114 127.161 4.61114 126.348 3.93965C125.806 3.46961 125.264 3.26817 125.264 3.53676C124.993 4.74543 124.925 8.37144 125.129 8.84148C125.535 9.51297 126.551 9.44582 127.025 8.64004ZM121.944 5.9541C122.825 5.08117 122.961 4.61114 122.419 4.61114C121.47 4.61114 119.912 5.9541 119.912 6.75988C119.912 7.63281 120.522 7.36422 121.944 5.9541ZM134.681 5.81981C134.139 5.01403 133.258 4.20825 132.716 4.07395C132.174 3.8725 132.513 4.54399 133.394 5.55121C135.426 7.69996 136.036 7.83426 134.681 5.81981ZM126.009 1.9252C127.093 0.985123 127.229 0.582233 126.619 0.582233C125.535 0.582233 123.977 1.85805 123.977 2.73098C123.977 3.53676 124.316 3.40246 126.009 1.9252ZM130.752 1.58946C130.277 1.05227 129.6 0.582233 129.193 0.582233C128.855 0.582233 129.058 1.18657 129.735 1.9252C131.158 3.46961 132.106 3.20102 130.752 1.58946Z" fill="black"/>
<path d="M160.899 23.0098C160.357 22.4055 159.883 21.5325 159.883 20.9953C159.883 20.4582 159.273 20.0553 158.528 20.0553C157.85 20.0553 156.902 19.4509 156.495 18.7123C156.089 17.9737 156.021 17.3693 156.428 17.3693C156.766 17.3693 157.173 17.8394 157.444 18.3766C157.647 18.9137 158.325 19.3838 158.934 19.3838C160.018 19.3838 160.018 19.2495 158.867 18.0408C158.189 17.3022 156.902 16.6978 156.021 16.6978C155.14 16.6978 153.718 15.9592 152.837 15.0191C151.279 13.3404 151.279 13.3404 150.059 14.6834C148.908 15.9592 148.908 16.0935 150.669 18.3094C152.566 20.861 152.769 21.3982 151.753 21.3982C150.805 21.3982 146.333 17.3693 146.333 16.4964C146.333 16.0935 147.146 14.8848 148.163 13.8776L149.992 11.9975L148.163 10.1173C147.146 9.11008 146.333 7.90141 146.333 7.56566C146.333 6.62559 150.601 2.59668 151.618 2.59668C152.905 2.59668 152.566 3.53676 150.737 5.28262C148.704 7.16277 148.637 8.0357 150.263 9.51297C151.821 10.9231 152.431 10.9231 152.431 9.64726C152.431 9.04293 153.176 8.3043 154.057 7.90141C154.937 7.49852 156.021 6.42414 156.428 5.55121C156.834 4.61114 157.715 3.93965 158.528 3.93965C159.408 3.93965 159.883 3.46961 159.883 2.66383C159.883 0.71653 161.576 -0.223548 164.76 0.0450458C166.996 0.179343 167.809 0.582233 168.351 1.72376C168.69 2.52954 169.638 3.46961 170.451 3.8725C171.264 4.20825 172.145 5.14832 172.416 5.88695C172.619 6.69273 173.297 7.29707 173.771 7.29707C174.313 7.29707 175.261 8.0357 175.871 8.97578C176.955 10.5873 177.09 10.6545 178.242 9.58012C179.936 8.0357 179.868 7.36422 177.768 5.21547C176.752 4.1411 176.21 3.06672 176.481 2.59668C177.023 1.7909 182.239 6.28984 182.239 7.56566C182.239 7.90141 181.426 9.11008 180.41 10.1173L178.581 11.9975L182.917 16.4293L180.342 18.9137C176.413 22.7412 174.448 22.204 178.242 18.3094L180.275 16.2278L178.174 14.4148C175.6 12.3332 175.329 12.2661 173.771 14.0119C172.077 15.8249 172.958 16.4964 174.719 14.7505C175.532 13.9448 176.142 13.609 176.142 14.0119C176.142 14.3477 175.397 15.1534 174.448 15.7578C173.568 16.3621 172.619 17.3693 172.416 18.108C172.145 18.7794 171.264 19.5852 170.316 19.7867C169.3 20.0553 168.69 20.6596 168.69 21.4654C168.69 23.8156 162.931 24.9571 160.899 23.0098ZM162.051 21.2639C161.238 20.391 160.56 20.1224 160.56 20.5253C160.56 21.5325 162.66 23.6141 163.135 23.0769C163.338 22.8755 162.864 22.0697 162.051 21.2639ZM168.012 21.3982C168.012 20.4582 167.064 20.5925 166.115 21.5325C164.828 22.8083 165.167 23.547 166.657 22.7412C167.403 22.3383 168.012 21.734 168.012 21.3982ZM166.657 18.3766C166.048 17.6379 166.048 17.1007 166.522 16.4964C166.996 16.0264 166.996 15.2877 166.657 14.6834C166.183 13.9448 165.912 13.9448 165.031 14.6162C164.219 15.2877 163.744 15.3549 162.999 14.7505C162.322 14.2134 161.915 14.1462 161.576 14.6834C160.899 15.7578 161.915 16.765 163.27 16.3621C164.625 15.9592 165.641 16.9664 164.964 18.0408C164.625 18.578 164.219 18.5108 163.541 17.9737C162.796 17.3693 162.322 17.3693 161.78 17.9065C160.696 18.9809 161.78 20.1224 163.609 19.6524C164.49 19.4509 165.37 19.5852 165.641 20.0553C165.98 20.5925 166.319 20.6596 166.861 20.1224C167.335 19.6524 167.267 19.1152 166.657 18.3766ZM171.061 18.3094C171.874 17.4365 171.942 17.0336 171.332 16.6978C170.79 16.295 171.061 15.6235 172.348 14.2805C173.297 13.2061 174.11 12.1989 174.11 11.9975C174.11 11.7289 173.093 10.6545 171.874 9.44582L169.638 7.29707L164.964 12.0646L167.741 14.6834C170.316 17.0336 170.451 17.3693 169.503 18.3094C168.825 18.9137 168.69 19.3838 169.164 19.3838C169.571 19.3838 170.451 18.9137 171.061 18.3094ZM161.102 9.51297C158.663 7.09563 158.528 7.02848 157.173 8.3043C156.36 9.04293 155.818 9.17723 155.818 8.70719C155.818 8.10285 155.479 8.10285 154.463 8.64004C152.498 9.71441 152.769 10.5873 155.953 13.8105L158.799 16.6978L161.238 14.3477L163.609 11.9975L161.102 9.51297ZM154.531 14.0791C153.515 13.0718 153.108 12.9375 153.108 13.6762C153.108 14.1462 153.65 14.8848 154.26 15.2877C156.021 16.2278 156.157 15.6906 154.531 14.0791ZM175.329 9.84871C174.787 9.04293 173.906 8.23715 173.364 8.10285C172.822 7.90141 173.161 8.57289 174.042 9.58012C176.074 11.7289 176.684 11.8632 175.329 9.84871ZM163.609 8.64004C163.88 8.23715 163.744 7.49852 163.27 6.96133C162.796 6.35699 162.728 5.9541 163.27 5.61836C164.354 4.94688 165.37 5.9541 164.964 7.29707C164.557 8.64004 165.573 9.64726 166.657 8.97578C167.199 8.64004 167.132 8.23715 166.59 7.56566C165.98 6.82703 166.048 6.35699 166.657 5.61836C167.945 4.1411 166.454 2.66383 164.964 3.93965C164.151 4.61114 163.744 4.61114 162.931 3.93965C162.389 3.46961 161.847 3.26817 161.847 3.53676C161.576 4.74543 161.509 8.37144 161.712 8.84148C162.118 9.51297 163.135 9.44582 163.609 8.64004ZM158.528 5.9541C159.408 5.08117 159.544 4.61114 159.002 4.61114C158.054 4.61114 156.495 5.9541 156.495 6.75988C156.495 7.63281 157.105 7.36422 158.528 5.9541ZM171.264 5.81981C170.722 5.01403 169.842 4.20825 169.3 4.07395C168.758 3.8725 169.096 4.54399 169.977 5.55121C172.009 7.69996 172.619 7.83426 171.264 5.81981ZM162.593 1.9252C163.677 0.985123 163.812 0.582233 163.202 0.582233C162.118 0.582233 160.56 1.85805 160.56 2.73098C160.56 3.53676 160.899 3.40246 162.593 1.9252ZM167.335 1.58946C166.861 1.05227 166.183 0.582233 165.777 0.582233C165.438 0.582233 165.641 1.18657 166.319 1.9252C167.741 3.46961 168.69 3.20102 167.335 1.58946Z" fill="black"/>
<path d="M234.066 23.0098C233.524 22.4055 233.049 21.5325 233.049 20.9953C233.049 20.4582 232.44 20.0553 231.694 20.0553C231.017 20.0553 230.069 19.4509 229.662 18.7123C229.256 17.9737 229.188 17.3693 229.594 17.3693C229.933 17.3693 230.34 17.8394 230.611 18.3766C230.814 18.9137 231.491 19.3838 232.101 19.3838C233.185 19.3838 233.185 19.2495 232.033 18.0408C231.356 17.3022 230.069 16.6978 229.188 16.6978C228.307 16.6978 226.884 15.9592 226.004 15.0191C224.446 13.3404 224.446 13.3404 223.226 14.6834C222.074 15.9592 222.074 16.0935 223.836 18.3094C225.733 20.861 225.936 21.3982 224.92 21.3982C223.971 21.3982 219.5 17.3693 219.5 16.4964C219.5 16.0935 220.313 14.8848 221.329 13.8776L223.158 11.9975L221.329 10.1173C220.313 9.11008 219.5 7.90141 219.5 7.56566C219.5 6.62559 223.768 2.59668 224.784 2.59668C226.071 2.59668 225.733 3.53676 223.904 5.28262C221.871 7.16277 221.803 8.0357 223.429 9.51297C224.988 10.9231 225.597 10.9231 225.597 9.64726C225.597 9.04293 226.342 8.3043 227.223 7.90141C228.104 7.49852 229.188 6.42414 229.594 5.55121C230.001 4.61114 230.882 3.93965 231.694 3.93965C232.575 3.93965 233.049 3.46961 233.049 2.66383C233.049 0.71653 234.743 -0.223548 237.927 0.0450458C240.163 0.179343 240.976 0.582233 241.518 1.72376C241.857 2.52954 242.805 3.46961 243.618 3.8725C244.431 4.20825 245.312 5.14832 245.583 5.88695C245.786 6.69273 246.463 7.29707 246.938 7.29707C247.479 7.29707 248.428 8.0357 249.038 8.97578C250.122 10.5873 250.257 10.6545 251.409 9.58012C253.102 8.0357 253.035 7.36422 250.935 5.21547C249.918 4.1411 249.376 3.06672 249.647 2.59668C250.189 1.7909 255.406 6.28984 255.406 7.56566C255.406 7.90141 254.593 9.11008 253.577 10.1173L251.748 11.9975L256.083 16.4293L253.509 18.9137C249.58 22.7412 247.615 22.204 251.409 18.3094L253.441 16.2278L251.341 14.4148C248.767 12.3332 248.496 12.2661 246.938 14.0119C245.244 15.8249 246.125 16.4964 247.886 14.7505C248.699 13.9448 249.309 13.609 249.309 14.0119C249.309 14.3477 248.563 15.1534 247.615 15.7578C246.734 16.3621 245.786 17.3693 245.583 18.108C245.312 18.7794 244.431 19.5852 243.482 19.7867C242.466 20.0553 241.856 20.6596 241.856 21.4654C241.856 23.8156 236.098 24.9571 234.066 23.0098ZM235.217 21.2639C234.404 20.391 233.727 20.1224 233.727 20.5253C233.727 21.5325 235.827 23.6141 236.301 23.0769C236.505 22.8755 236.03 22.0697 235.217 21.2639ZM241.179 21.3982C241.179 20.4582 240.231 20.5925 239.282 21.5325C237.995 22.8083 238.334 23.547 239.824 22.7412C240.569 22.3383 241.179 21.734 241.179 21.3982ZM239.824 18.3766C239.214 17.6379 239.214 17.1007 239.689 16.4964C240.163 16.0264 240.163 15.2877 239.824 14.6834C239.35 13.9448 239.079 13.9448 238.198 14.6162C237.385 15.2877 236.911 15.3549 236.166 14.7505C235.488 14.2134 235.082 14.1462 234.743 14.6834C234.066 15.7578 235.082 16.765 236.437 16.3621C237.792 15.9592 238.808 16.9664 238.13 18.0408C237.792 18.578 237.385 18.5108 236.708 17.9737C235.963 17.3693 235.488 17.3693 234.946 17.9065C233.862 18.9809 234.946 20.1224 236.775 19.6524C237.656 19.4509 238.537 19.5852 238.808 20.0553C239.147 20.5925 239.485 20.6596 240.027 20.1224C240.502 19.6524 240.434 19.1152 239.824 18.3766ZM244.228 18.3094C245.041 17.4365 245.108 17.0336 244.499 16.6978C243.957 16.295 244.228 15.6235 245.515 14.2805C246.463 13.2061 247.276 12.1989 247.276 11.9975C247.276 11.7289 246.26 10.6545 245.041 9.44582L242.805 7.29707L238.13 12.0646L240.908 14.6834C243.482 17.0336 243.618 17.3693 242.669 18.3094C241.992 18.9137 241.857 19.3838 242.331 19.3838C242.737 19.3838 243.618 18.9137 244.228 18.3094ZM234.269 9.51297C231.83 7.09563 231.694 7.02848 230.34 8.3043C229.527 9.04293 228.985 9.17723 228.985 8.70719C228.985 8.10285 228.646 8.10285 227.63 8.64004C225.665 9.71441 225.936 10.5873 229.12 13.8105L231.965 16.6978L234.404 14.3477L236.775 11.9975L234.269 9.51297ZM227.697 14.0791C226.681 13.0718 226.275 12.9375 226.275 13.6762C226.275 14.1462 226.817 14.8848 227.426 15.2877C229.188 16.2278 229.323 15.6906 227.697 14.0791ZM248.496 9.84871C247.954 9.04293 247.073 8.23715 246.531 8.10285C245.989 7.90141 246.328 8.57289 247.208 9.58012C249.241 11.7289 249.851 11.8632 248.496 9.84871ZM236.775 8.64004C237.046 8.23715 236.911 7.49852 236.437 6.96133C235.963 6.35699 235.895 5.9541 236.437 5.61836C237.521 4.94688 238.537 5.9541 238.13 7.29707C237.724 8.64004 238.74 9.64726 239.824 8.97578C240.366 8.64004 240.298 8.23715 239.756 7.56566C239.147 6.82703 239.214 6.35699 239.824 5.61836C241.111 4.1411 239.621 2.66383 238.13 3.93965C237.317 4.61114 236.911 4.61114 236.098 3.93965C235.556 3.46961 235.014 3.26817 235.014 3.53676C234.743 4.74543 234.675 8.37144 234.879 8.84148C235.285 9.51297 236.301 9.44582 236.775 8.64004ZM231.694 5.9541C232.575 5.08117 232.711 4.61114 232.169 4.61114C231.22 4.61114 229.662 5.9541 229.662 6.75988C229.662 7.63281 230.272 7.36422 231.694 5.9541ZM244.431 5.81981C243.889 5.01403 243.008 4.20825 242.466 4.07395C241.924 3.8725 242.263 4.54399 243.144 5.55121C245.176 7.69996 245.786 7.83426 244.431 5.81981ZM235.759 1.9252C236.843 0.985123 236.979 0.582233 236.369 0.582233C235.285 0.582233 233.727 1.85805 233.727 2.73098C233.727 3.53676 234.066 3.40246 235.759 1.9252ZM240.502 1.58946C240.027 1.05227 239.35 0.582233 238.943 0.582233C238.605 0.582233 238.808 1.18657 239.485 1.9252C240.908 3.46961 241.857 3.20102 240.502 1.58946Z" fill="black"/>
<path d="M197.482 23.0098C196.94 22.4055 196.466 21.5325 196.466 20.9953C196.466 20.4582 195.856 20.0553 195.111 20.0553C194.434 20.0553 193.485 19.4509 193.079 18.7123C192.672 17.9737 192.604 17.3693 193.011 17.3693C193.35 17.3693 193.756 17.8394 194.027 18.3766C194.23 18.9137 194.908 19.3838 195.518 19.3838C196.602 19.3838 196.602 19.2495 195.45 18.0408C194.772 17.3022 193.485 16.6978 192.604 16.6978C191.724 16.6978 190.301 15.9592 189.42 15.0191C187.862 13.3404 187.862 13.3404 186.643 14.6834C185.491 15.9592 185.491 16.0935 187.252 18.3094C189.149 20.861 189.353 21.3982 188.336 21.3982C187.388 21.3982 182.917 17.3693 182.917 16.4964C182.917 16.0935 183.73 14.8848 184.746 13.8776L186.575 11.9975L184.746 10.1173C183.73 9.11008 182.917 7.90141 182.917 7.56566C182.917 6.62559 187.185 2.59668 188.201 2.59668C189.488 2.59668 189.149 3.53676 187.32 5.28262C185.288 7.16277 185.22 8.0357 186.846 9.51297C188.404 10.9231 189.014 10.9231 189.014 9.64726C189.014 9.04293 189.759 8.3043 190.64 7.90141C191.521 7.49852 192.604 6.42414 193.011 5.55121C193.417 4.61114 194.298 3.93965 195.111 3.93965C195.992 3.93965 196.466 3.46961 196.466 2.66383C196.466 0.71653 198.16 -0.223548 201.344 0.0450458C203.579 0.179343 204.392 0.582233 204.934 1.72376C205.273 2.52954 206.222 3.46961 207.035 3.8725C207.848 4.20825 208.728 5.14832 208.999 5.88695C209.202 6.69273 209.88 7.29707 210.354 7.29707C210.896 7.29707 211.845 8.0357 212.454 8.97578C213.538 10.5873 213.674 10.6545 214.825 9.58012C216.519 8.0357 216.451 7.36422 214.351 5.21547C213.335 4.1411 212.793 3.06672 213.064 2.59668C213.606 1.7909 218.823 6.28984 218.823 7.56566C218.823 7.90141 218.01 9.11008 216.993 10.1173L215.164 11.9975L219.5 16.4293L216.926 18.9137C212.996 22.7412 211.032 22.204 214.825 18.3094L216.858 16.2278L214.758 14.4148C212.183 12.3332 211.912 12.2661 210.354 14.0119C208.661 15.8249 209.541 16.4964 211.303 14.7505C212.116 13.9448 212.725 13.609 212.725 14.0119C212.725 14.3477 211.98 15.1534 211.032 15.7578C210.151 16.3621 209.202 17.3693 208.999 18.108C208.728 18.7794 207.848 19.5852 206.899 19.7867C205.883 20.0553 205.273 20.6596 205.273 21.4654C205.273 23.8156 199.515 24.9571 197.482 23.0098ZM198.634 21.2639C197.821 20.391 197.144 20.1224 197.144 20.5253C197.144 21.5325 199.244 23.6141 199.718 23.0769C199.921 22.8755 199.447 22.0697 198.634 21.2639ZM204.596 21.3982C204.596 20.4582 203.647 20.5925 202.699 21.5325C201.412 22.8083 201.75 23.547 203.241 22.7412C203.986 22.3383 204.596 21.734 204.596 21.3982ZM203.241 18.3766C202.631 17.6379 202.631 17.1007 203.105 16.4964C203.579 16.0264 203.579 15.2877 203.241 14.6834C202.767 13.9448 202.496 13.9448 201.615 14.6162C200.802 15.2877 200.328 15.3549 199.582 14.7505C198.905 14.2134 198.498 14.1462 198.16 14.6834C197.482 15.7578 198.498 16.765 199.853 16.3621C201.208 15.9592 202.225 16.9664 201.547 18.0408C201.208 18.578 200.802 18.5108 200.124 17.9737C199.379 17.3693 198.905 17.3693 198.363 17.9065C197.279 18.9809 198.363 20.1224 200.192 19.6524C201.073 19.4509 201.954 19.5852 202.225 20.0553C202.563 20.5925 202.902 20.6596 203.444 20.1224C203.918 19.6524 203.85 19.1152 203.241 18.3766ZM207.644 18.3094C208.457 17.4365 208.525 17.0336 207.915 16.6978C207.373 16.295 207.644 15.6235 208.932 14.2805C209.88 13.2061 210.693 12.1989 210.693 11.9975C210.693 11.7289 209.677 10.6545 208.457 9.44582L206.222 7.29707L201.547 12.0646L204.325 14.6834C206.899 17.0336 207.035 17.3693 206.086 18.3094C205.409 18.9137 205.273 19.3838 205.747 19.3838C206.154 19.3838 207.035 18.9137 207.644 18.3094ZM197.686 9.51297C195.247 7.09563 195.111 7.02848 193.756 8.3043C192.943 9.04293 192.401 9.17723 192.401 8.70719C192.401 8.10285 192.063 8.10285 191.046 8.64004C189.082 9.71441 189.353 10.5873 192.537 13.8105L195.382 16.6978L197.821 14.3477L200.192 11.9975L197.686 9.51297ZM191.114 14.0791C190.098 13.0718 189.691 12.9375 189.691 13.6762C189.691 14.1462 190.233 14.8848 190.843 15.2877C192.604 16.2278 192.74 15.6906 191.114 14.0791ZM211.912 9.84871C211.37 9.04293 210.49 8.23715 209.948 8.10285C209.406 7.90141 209.744 8.57289 210.625 9.58012C212.658 11.7289 213.267 11.8632 211.912 9.84871ZM200.192 8.64004C200.463 8.23715 200.328 7.49852 199.853 6.96133C199.379 6.35699 199.311 5.9541 199.853 5.61836C200.937 4.94688 201.954 5.9541 201.547 7.29707C201.141 8.64004 202.157 9.64726 203.241 8.97578C203.783 8.64004 203.715 8.23715 203.173 7.56566C202.563 6.82703 202.631 6.35699 203.241 5.61836C204.528 4.1411 203.038 2.66383 201.547 3.93965C200.734 4.61114 200.328 4.61114 199.515 3.93965C198.973 3.46961 198.431 3.26817 198.431 3.53676C198.16 4.74543 198.092 8.37144 198.295 8.84148C198.702 9.51297 199.718 9.44582 200.192 8.64004ZM195.111 5.9541C195.992 5.08117 196.127 4.61114 195.585 4.61114C194.637 4.61114 193.079 5.9541 193.079 6.75988C193.079 7.63281 193.688 7.36422 195.111 5.9541ZM207.848 5.81981C207.306 5.01403 206.425 4.20825 205.883 4.07395C205.341 3.8725 205.68 4.54399 206.56 5.55121C208.593 7.69996 209.202 7.83426 207.848 5.81981ZM199.176 1.9252C200.26 0.985123 200.395 0.582233 199.786 0.582233C198.702 0.582233 197.144 1.85805 197.144 2.73098C197.144 3.53676 197.482 3.40246 199.176 1.9252ZM203.918 1.58946C203.444 1.05227 202.767 0.582233 202.36 0.582233C202.021 0.582233 202.225 1.18657 202.902 1.9252C204.325 3.46961 205.273 3.20102 203.918 1.58946Z" fill="black"/>
<path d="M270.649 23.0098C270.107 22.4055 269.633 21.5325 269.633 20.9953C269.633 20.4582 269.023 20.0553 268.278 20.0553C267.6 20.0553 266.652 19.4509 266.245 18.7123C265.839 17.9737 265.771 17.3693 266.178 17.3693C266.516 17.3693 266.923 17.8394 267.194 18.3766C267.397 18.9137 268.075 19.3838 268.684 19.3838C269.768 19.3838 269.768 19.2495 268.617 18.0408C267.939 17.3022 266.652 16.6978 265.771 16.6978C264.89 16.6978 263.468 15.9592 262.587 15.0191C261.029 13.3404 261.029 13.3404 259.809 14.6834C258.658 15.9592 258.658 16.0935 260.419 18.3094C262.316 20.861 262.519 21.3982 261.503 21.3982C260.555 21.3982 256.083 17.3693 256.083 16.4964C256.083 16.0935 256.896 14.8848 257.913 13.8776L259.742 11.9975L257.913 10.1173C256.896 9.11008 256.083 7.90141 256.083 7.56566C256.083 6.62559 260.351 2.59668 261.368 2.59668C262.655 2.59668 262.316 3.53676 260.487 5.28262C258.454 7.16277 258.387 8.0357 260.013 9.51297C261.571 10.9231 262.181 10.9231 262.181 9.64726C262.181 9.04293 262.926 8.3043 263.806 7.90141C264.687 7.49852 265.771 6.42414 266.178 5.55121C266.584 4.61114 267.465 3.93965 268.278 3.93965C269.159 3.93965 269.633 3.46961 269.633 2.66383C269.633 0.71653 271.326 -0.223548 274.51 0.0450458C276.746 0.179343 277.559 0.582233 278.101 1.72376C278.44 2.52954 279.388 3.46961 280.201 3.8725C281.014 4.20825 281.895 5.14832 282.166 5.88695C282.369 6.69273 283.047 7.29707 283.521 7.29707C284.063 7.29707 285.011 8.0357 285.621 8.97578C286.705 10.5873 286.84 10.6545 287.992 9.58012C289.686 8.0357 289.618 7.36422 287.518 5.21547C286.502 4.1411 285.96 3.06672 286.231 2.59668C286.773 1.7909 291.989 6.28984 291.989 7.56566C291.989 7.90141 291.176 9.11008 290.16 10.1173L288.331 11.9975L292.667 16.4293L290.092 18.9137C286.163 22.7412 284.198 22.204 287.992 18.3094L290.025 16.2278L287.924 14.4148C285.35 12.3332 285.079 12.2661 283.521 14.0119C281.827 15.8249 282.708 16.4964 284.469 14.7505C285.282 13.9448 285.892 13.609 285.892 14.0119C285.892 14.3477 285.147 15.1534 284.198 15.7578C283.318 16.3621 282.369 17.3693 282.166 18.108C281.895 18.7794 281.014 19.5852 280.066 19.7867C279.05 20.0553 278.44 20.6596 278.44 21.4654C278.44 23.8156 272.681 24.9571 270.649 23.0098ZM271.801 21.2639C270.988 20.391 270.31 20.1224 270.31 20.5253C270.31 21.5325 272.41 23.6141 272.885 23.0769C273.088 22.8755 272.614 22.0697 271.801 21.2639ZM277.762 21.3982C277.762 20.4582 276.814 20.5925 275.865 21.5325C274.578 22.8083 274.917 23.547 276.407 22.7412C277.153 22.3383 277.762 21.734 277.762 21.3982ZM276.407 18.3766C275.798 17.6379 275.798 17.1007 276.272 16.4964C276.746 16.0264 276.746 15.2877 276.407 14.6834C275.933 13.9448 275.662 13.9448 274.781 14.6162C273.969 15.2877 273.494 15.3549 272.749 14.7505C272.072 14.2134 271.665 14.1462 271.326 14.6834C270.649 15.7578 271.665 16.765 273.02 16.3621C274.375 15.9592 275.391 16.9664 274.714 18.0408C274.375 18.578 273.969 18.5108 273.291 17.9737C272.546 17.3693 272.072 17.3693 271.53 17.9065C270.446 18.9809 271.53 20.1224 273.359 19.6524C274.24 19.4509 275.12 19.5852 275.391 20.0553C275.73 20.5925 276.069 20.6596 276.611 20.1224C277.085 19.6524 277.017 19.1152 276.407 18.3766ZM280.811 18.3094C281.624 17.4365 281.692 17.0336 281.082 16.6978C280.54 16.295 280.811 15.6235 282.098 14.2805C283.047 13.2061 283.86 12.1989 283.86 11.9975C283.86 11.7289 282.843 10.6545 281.624 9.44582L279.388 7.29707L274.714 12.0646L277.491 14.6834C280.066 17.0336 280.201 17.3693 279.253 18.3094C278.575 18.9137 278.44 19.3838 278.914 19.3838C279.321 19.3838 280.201 18.9137 280.811 18.3094ZM270.852 9.51297C268.413 7.09563 268.278 7.02848 266.923 8.3043C266.11 9.04293 265.568 9.17723 265.568 8.70719C265.568 8.10285 265.229 8.10285 264.213 8.64004C262.248 9.71441 262.519 10.5873 265.703 13.8105L268.549 16.6978L270.988 14.3477L273.359 11.9975L270.852 9.51297ZM264.281 14.0791C263.265 13.0718 262.858 12.9375 262.858 13.6762C262.858 14.1462 263.4 14.8848 264.01 15.2877C265.771 16.2278 265.907 15.6906 264.281 14.0791ZM285.079 9.84871C284.537 9.04293 283.656 8.23715 283.114 8.10285C282.572 7.90141 282.911 8.57289 283.792 9.58012C285.824 11.7289 286.434 11.8632 285.079 9.84871ZM273.359 8.64004C273.63 8.23715 273.494 7.49852 273.02 6.96133C272.546 6.35699 272.478 5.9541 273.02 5.61836C274.104 4.94688 275.12 5.9541 274.714 7.29707C274.307 8.64004 275.323 9.64726 276.407 8.97578C276.949 8.64004 276.882 8.23715 276.34 7.56566C275.73 6.82703 275.798 6.35699 276.407 5.61836C277.695 4.1411 276.204 2.66383 274.714 3.93965C273.901 4.61114 273.494 4.61114 272.681 3.93965C272.139 3.46961 271.597 3.26817 271.597 3.53676C271.326 4.74543 271.259 8.37144 271.462 8.84148C271.868 9.51297 272.885 9.44582 273.359 8.64004ZM268.278 5.9541C269.159 5.08117 269.294 4.61114 268.752 4.61114C267.804 4.61114 266.245 5.9541 266.245 6.75988C266.245 7.63281 266.855 7.36422 268.278 5.9541ZM281.014 5.81981C280.472 5.01403 279.592 4.20825 279.05 4.07395C278.508 3.8725 278.846 4.54399 279.727 5.55121C281.759 7.69996 282.369 7.83426 281.014 5.81981ZM272.343 1.9252C273.427 0.985123 273.562 0.582233 272.952 0.582233C271.868 0.582233 270.31 1.85805 270.31 2.73098C270.31 3.53676 270.649 3.40246 272.343 1.9252ZM277.085 1.58946C276.611 1.05227 275.933 0.582233 275.527 0.582233C275.188 0.582233 275.391 1.18657 276.069 1.9252C277.491 3.46961 278.44 3.20102 277.085 1.58946Z" fill="black"/>
<path d="M307.232 23.0098C306.69 22.4055 306.216 21.5325 306.216 20.9953C306.216 20.4582 305.606 20.0553 304.861 20.0553C304.184 20.0553 303.235 19.4509 302.829 18.7123C302.422 17.9737 302.354 17.3693 302.761 17.3693C303.1 17.3693 303.506 17.8394 303.777 18.3766C303.98 18.9137 304.658 19.3838 305.268 19.3838C306.352 19.3838 306.352 19.2495 305.2 18.0408C304.522 17.3022 303.235 16.6978 302.354 16.6978C301.474 16.6978 300.051 15.9592 299.17 15.0191C297.612 13.3404 297.612 13.3404 296.393 14.6834C295.241 15.9592 295.241 16.0935 297.002 18.3094C298.899 20.861 299.103 21.3982 298.086 21.3982C297.138 21.3982 292.667 17.3693 292.667 16.4964C292.667 16.0935 293.48 14.8848 294.496 13.8776L296.325 11.9975L294.496 10.1173C293.48 9.11008 292.667 7.90141 292.667 7.56566C292.667 6.62559 296.935 2.59668 297.951 2.59668C299.238 2.59668 298.899 3.53676 297.07 5.28262C295.038 7.16277 294.97 8.0357 296.596 9.51297C298.154 10.9231 298.764 10.9231 298.764 9.64726C298.764 9.04293 299.509 8.3043 300.39 7.90141C301.271 7.49852 302.354 6.42414 302.761 5.55121C303.167 4.61114 304.048 3.93965 304.861 3.93965C305.742 3.93965 306.216 3.46961 306.216 2.66383C306.216 0.71653 307.91 -0.223548 311.094 0.0450458C313.329 0.179343 314.142 0.582233 314.684 1.72376C315.023 2.52954 315.972 3.46961 316.785 3.8725C317.598 4.20825 318.478 5.14832 318.749 5.88695C318.952 6.69273 319.63 7.29707 320.104 7.29707C320.646 7.29707 321.595 8.0357 322.204 8.97578C323.288 10.5873 323.424 10.6545 324.575 9.58012C326.269 8.0357 326.201 7.36422 324.101 5.21547C323.085 4.1411 322.543 3.06672 322.814 2.59668C323.356 1.7909 328.573 6.28984 328.573 7.56566C328.573 7.90141 327.76 9.11008 326.743 10.1173L324.914 11.9975L329.25 16.4293L326.676 18.9137C322.746 22.7412 320.782 22.204 324.575 18.3094L326.608 16.2278L324.508 14.4148C321.933 12.3332 321.662 12.2661 320.104 14.0119C318.411 15.8249 319.291 16.4964 321.053 14.7505C321.866 13.9448 322.475 13.609 322.475 14.0119C322.475 14.3477 321.73 15.1534 320.782 15.7578C319.901 16.3621 318.952 17.3693 318.749 18.108C318.478 18.7794 317.598 19.5852 316.649 19.7867C315.633 20.0553 315.023 20.6596 315.023 21.4654C315.023 23.8156 309.265 24.9571 307.232 23.0098ZM308.384 21.2639C307.571 20.391 306.894 20.1224 306.894 20.5253C306.894 21.5325 308.994 23.6141 309.468 23.0769C309.671 22.8755 309.197 22.0697 308.384 21.2639ZM314.346 21.3982C314.346 20.4582 313.397 20.5925 312.449 21.5325C311.162 22.8083 311.5 23.547 312.991 22.7412C313.736 22.3383 314.346 21.734 314.346 21.3982ZM312.991 18.3766C312.381 17.6379 312.381 17.1007 312.855 16.4964C313.329 16.0264 313.329 15.2877 312.991 14.6834C312.517 13.9448 312.246 13.9448 311.365 14.6162C310.552 15.2877 310.078 15.3549 309.332 14.7505C308.655 14.2134 308.248 14.1462 307.91 14.6834C307.232 15.7578 308.248 16.765 309.603 16.3621C310.958 15.9592 311.975 16.9664 311.297 18.0408C310.958 18.578 310.552 18.5108 309.874 17.9737C309.129 17.3693 308.655 17.3693 308.113 17.9065C307.029 18.9809 308.113 20.1224 309.942 19.6524C310.823 19.4509 311.704 19.5852 311.975 20.0553C312.313 20.5925 312.652 20.6596 313.194 20.1224C313.668 19.6524 313.6 19.1152 312.991 18.3766ZM317.394 18.3094C318.207 17.4365 318.275 17.0336 317.665 16.6978C317.123 16.295 317.394 15.6235 318.682 14.2805C319.63 13.2061 320.443 12.1989 320.443 11.9975C320.443 11.7289 319.427 10.6545 318.207 9.44582L315.972 7.29707L311.297 12.0646L314.075 14.6834C316.649 17.0336 316.785 17.3693 315.836 18.3094C315.159 18.9137 315.023 19.3838 315.497 19.3838C315.904 19.3838 316.785 18.9137 317.394 18.3094ZM307.436 9.51297C304.997 7.09563 304.861 7.02848 303.506 8.3043C302.693 9.04293 302.151 9.17723 302.151 8.70719C302.151 8.10285 301.813 8.10285 300.796 8.64004C298.832 9.71441 299.103 10.5873 302.287 13.8105L305.132 16.6978L307.571 14.3477L309.942 11.9975L307.436 9.51297ZM300.864 14.0791C299.848 13.0718 299.441 12.9375 299.441 13.6762C299.441 14.1462 299.983 14.8848 300.593 15.2877C302.354 16.2278 302.49 15.6906 300.864 14.0791ZM321.662 9.84871C321.12 9.04293 320.24 8.23715 319.698 8.10285C319.156 7.90141 319.494 8.57289 320.375 9.58012C322.408 11.7289 323.017 11.8632 321.662 9.84871ZM309.942 8.64004C310.213 8.23715 310.078 7.49852 309.603 6.96133C309.129 6.35699 309.061 5.9541 309.603 5.61836C310.687 4.94688 311.704 5.9541 311.297 7.29707C310.891 8.64004 311.907 9.64726 312.991 8.97578C313.533 8.64004 313.465 8.23715 312.923 7.56566C312.313 6.82703 312.381 6.35699 312.991 5.61836C314.278 4.1411 312.788 2.66383 311.297 3.93965C310.484 4.61114 310.078 4.61114 309.265 3.93965C308.723 3.46961 308.181 3.26817 308.181 3.53676C307.91 4.74543 307.842 8.37144 308.045 8.84148C308.452 9.51297 309.468 9.44582 309.942 8.64004ZM304.861 5.9541C305.742 5.08117 305.877 4.61114 305.335 4.61114C304.387 4.61114 302.829 5.9541 302.829 6.75988C302.829 7.63281 303.438 7.36422 304.861 5.9541ZM317.598 5.81981C317.056 5.01403 316.175 4.20825 315.633 4.07395C315.091 3.8725 315.43 4.54399 316.31 5.55121C318.343 7.69996 318.952 7.83426 317.598 5.81981ZM308.926 1.9252C310.01 0.985123 310.145 0.582233 309.536 0.582233C308.452 0.582233 306.894 1.85805 306.894 2.73098C306.894 3.53676 307.232 3.40246 308.926 1.9252ZM313.668 1.58946C313.194 1.05227 312.517 0.582233 312.11 0.582233C311.771 0.582233 311.975 1.18657 312.652 1.9252C314.075 3.46961 315.023 3.20102 313.668 1.58946Z" fill="black"/>
<path d="M380.399 23.0098C379.857 22.4055 379.383 21.5325 379.383 20.9953C379.383 20.4582 378.773 20.0553 378.028 20.0553C377.35 20.0553 376.402 19.4509 375.995 18.7123C375.589 17.9737 375.521 17.3693 375.928 17.3693C376.266 17.3693 376.673 17.8394 376.944 18.3766C377.147 18.9137 377.825 19.3838 378.434 19.3838C379.518 19.3838 379.518 19.2495 378.367 18.0408C377.689 17.3022 376.402 16.6978 375.521 16.6978C374.64 16.6978 373.218 15.9592 372.337 15.0191C370.779 13.3404 370.779 13.3404 369.559 14.6834C368.408 15.9592 368.408 16.0935 370.169 18.3094C372.066 20.861 372.269 21.3982 371.253 21.3982C370.305 21.3982 365.833 17.3693 365.833 16.4964C365.833 16.0935 366.646 14.8848 367.663 13.8776L369.492 11.9975L367.663 10.1173C366.646 9.11008 365.833 7.90141 365.833 7.56566C365.833 6.62559 370.101 2.59668 371.118 2.59668C372.405 2.59668 372.066 3.53676 370.237 5.28262C368.204 7.16277 368.137 8.0357 369.763 9.51297C371.321 10.9231 371.931 10.9231 371.931 9.64726C371.931 9.04293 372.676 8.3043 373.557 7.90141C374.437 7.49852 375.521 6.42414 375.928 5.55121C376.334 4.61114 377.215 3.93965 378.028 3.93965C378.909 3.93965 379.383 3.46961 379.383 2.66383C379.383 0.71653 381.076 -0.223548 384.261 0.0450458C386.496 0.179343 387.309 0.582233 387.851 1.72376C388.19 2.52954 389.138 3.46961 389.951 3.8725C390.764 4.20825 391.645 5.14832 391.916 5.88695C392.119 6.69273 392.797 7.29707 393.271 7.29707C393.813 7.29707 394.761 8.0357 395.371 8.97578C396.455 10.5873 396.59 10.6545 397.742 9.58012C399.436 8.0357 399.368 7.36422 397.268 5.21547C396.252 4.1411 395.71 3.06672 395.981 2.59668C396.523 1.7909 401.739 6.28984 401.739 7.56566C401.739 7.90141 400.926 9.11008 399.91 10.1173L398.081 11.9975L402.417 16.4293L399.842 18.9137C395.913 22.7412 393.948 22.204 397.742 18.3094L399.775 16.2278L397.674 14.4148C395.1 12.3332 394.829 12.2661 393.271 14.0119C391.577 15.8249 392.458 16.4964 394.219 14.7505C395.032 13.9448 395.642 13.609 395.642 14.0119C395.642 14.3477 394.897 15.1534 393.948 15.7578C393.068 16.3621 392.119 17.3693 391.916 18.108C391.645 18.7794 390.764 19.5852 389.816 19.7867C388.8 20.0553 388.19 20.6596 388.19 21.4654C388.19 23.8156 382.431 24.9571 380.399 23.0098ZM381.551 21.2639C380.738 20.391 380.06 20.1224 380.06 20.5253C380.06 21.5325 382.16 23.6141 382.635 23.0769C382.838 22.8755 382.364 22.0697 381.551 21.2639ZM387.512 21.3982C387.512 20.4582 386.564 20.5925 385.615 21.5325C384.328 22.8083 384.667 23.547 386.157 22.7412C386.903 22.3383 387.512 21.734 387.512 21.3982ZM386.157 18.3766C385.548 17.6379 385.548 17.1007 386.022 16.4964C386.496 16.0264 386.496 15.2877 386.157 14.6834C385.683 13.9448 385.412 13.9448 384.531 14.6162C383.719 15.2877 383.244 15.3549 382.499 14.7505C381.822 14.2134 381.415 14.1462 381.076 14.6834C380.399 15.7578 381.415 16.765 382.77 16.3621C384.125 15.9592 385.141 16.9664 384.464 18.0408C384.125 18.578 383.719 18.5108 383.041 17.9737C382.296 17.3693 381.822 17.3693 381.28 17.9065C380.196 18.9809 381.28 20.1224 383.109 19.6524C383.99 19.4509 384.87 19.5852 385.141 20.0553C385.48 20.5925 385.819 20.6596 386.361 20.1224C386.835 19.6524 386.767 19.1152 386.157 18.3766ZM390.561 18.3094C391.374 17.4365 391.442 17.0336 390.832 16.6978C390.29 16.295 390.561 15.6235 391.848 14.2805C392.797 13.2061 393.61 12.1989 393.61 11.9975C393.61 11.7289 392.593 10.6545 391.374 9.44582L389.138 7.29707L384.464 12.0646L387.241 14.6834C389.816 17.0336 389.951 17.3693 389.003 18.3094C388.325 18.9137 388.19 19.3838 388.664 19.3838C389.071 19.3838 389.951 18.9137 390.561 18.3094ZM380.602 9.51297C378.163 7.09563 378.028 7.02848 376.673 8.3043C375.86 9.04293 375.318 9.17723 375.318 8.70719C375.318 8.10285 374.979 8.10285 373.963 8.64004C371.998 9.71441 372.269 10.5873 375.453 13.8105L378.299 16.6978L380.738 14.3477L383.109 11.9975L380.602 9.51297ZM374.031 14.0791C373.015 13.0718 372.608 12.9375 372.608 13.6762C372.608 14.1462 373.15 14.8848 373.76 15.2877C375.521 16.2278 375.657 15.6906 374.031 14.0791ZM394.829 9.84871C394.287 9.04293 393.406 8.23715 392.864 8.10285C392.322 7.90141 392.661 8.57289 393.542 9.58012C395.574 11.7289 396.184 11.8632 394.829 9.84871ZM383.109 8.64004C383.38 8.23715 383.244 7.49852 382.77 6.96133C382.296 6.35699 382.228 5.9541 382.77 5.61836C383.854 4.94688 384.87 5.9541 384.464 7.29707C384.057 8.64004 385.073 9.64726 386.157 8.97578C386.699 8.64004 386.632 8.23715 386.09 7.56566C385.48 6.82703 385.548 6.35699 386.157 5.61836C387.445 4.1411 385.954 2.66383 384.464 3.93965C383.651 4.61114 383.244 4.61114 382.431 3.93965C381.889 3.46961 381.347 3.26817 381.347 3.53676C381.076 4.74543 381.009 8.37144 381.212 8.84148C381.618 9.51297 382.635 9.44582 383.109 8.64004ZM378.028 5.9541C378.909 5.08117 379.044 4.61114 378.502 4.61114C377.554 4.61114 375.995 5.9541 375.995 6.75988C375.995 7.63281 376.605 7.36422 378.028 5.9541ZM390.764 5.81981C390.222 5.01403 389.342 4.20825 388.8 4.07395C388.258 3.8725 388.596 4.54399 389.477 5.55121C391.509 7.69996 392.119 7.83426 390.764 5.81981ZM382.093 1.9252C383.177 0.985123 383.312 0.582233 382.702 0.582233C381.618 0.582233 380.06 1.85805 380.06 2.73098C380.06 3.53676 380.399 3.40246 382.093 1.9252ZM386.835 1.58946C386.361 1.05227 385.683 0.582233 385.277 0.582233C384.938 0.582233 385.141 1.18657 385.819 1.9252C387.241 3.46961 388.19 3.20102 386.835 1.58946Z" fill="black"/>
<path d="M343.816 23.0098C343.274 22.4055 342.799 21.5325 342.799 20.9953C342.799 20.4582 342.19 20.0553 341.444 20.0553C340.767 20.0553 339.819 19.4509 339.412 18.7123C339.006 17.9737 338.938 17.3693 339.344 17.3693C339.683 17.3693 340.09 17.8394 340.361 18.3766C340.564 18.9137 341.241 19.3838 341.851 19.3838C342.935 19.3838 342.935 19.2495 341.783 18.0408C341.106 17.3022 339.819 16.6978 338.938 16.6978C338.057 16.6978 336.634 15.9592 335.754 15.0191C334.196 13.3404 334.196 13.3404 332.976 14.6834C331.824 15.9592 331.824 16.0935 333.586 18.3094C335.483 20.861 335.686 21.3982 334.67 21.3982C333.721 21.3982 329.25 17.3693 329.25 16.4964C329.25 16.0935 330.063 14.8848 331.079 13.8776L332.908 11.9975L331.079 10.1173C330.063 9.11008 329.25 7.90141 329.25 7.56566C329.25 6.62559 333.518 2.59668 334.534 2.59668C335.821 2.59668 335.483 3.53676 333.654 5.28262C331.621 7.16277 331.553 8.0357 333.179 9.51297C334.738 10.9231 335.347 10.9231 335.347 9.64726C335.347 9.04293 336.092 8.3043 336.973 7.90141C337.854 7.49852 338.938 6.42414 339.344 5.55121C339.751 4.61114 340.632 3.93965 341.444 3.93965C342.325 3.93965 342.799 3.46961 342.799 2.66383C342.799 0.71653 344.493 -0.223548 347.677 0.0450458C349.913 0.179343 350.726 0.582233 351.268 1.72376C351.607 2.52954 352.555 3.46961 353.368 3.8725C354.181 4.20825 355.062 5.14832 355.333 5.88695C355.536 6.69273 356.213 7.29707 356.688 7.29707C357.229 7.29707 358.178 8.0357 358.788 8.97578C359.872 10.5873 360.007 10.6545 361.159 9.58012C362.852 8.0357 362.785 7.36422 360.685 5.21547C359.668 4.1411 359.126 3.06672 359.397 2.59668C359.939 1.7909 365.156 6.28984 365.156 7.56566C365.156 7.90141 364.343 9.11008 363.327 10.1173L361.498 11.9975L365.833 16.4293L363.259 18.9137C359.33 22.7412 357.365 22.204 361.159 18.3094L363.191 16.2278L361.091 14.4148C358.517 12.3332 358.246 12.2661 356.688 14.0119C354.994 15.8249 355.875 16.4964 357.636 14.7505C358.449 13.9448 359.059 13.609 359.059 14.0119C359.059 14.3477 358.313 15.1534 357.365 15.7578C356.484 16.3621 355.536 17.3693 355.333 18.108C355.062 18.7794 354.181 19.5852 353.232 19.7867C352.216 20.0553 351.607 20.6596 351.607 21.4654C351.607 23.8156 345.848 24.9571 343.816 23.0098ZM344.967 21.2639C344.154 20.391 343.477 20.1224 343.477 20.5253C343.477 21.5325 345.577 23.6141 346.051 23.0769C346.254 22.8755 345.78 22.0697 344.967 21.2639ZM350.929 21.3982C350.929 20.4582 349.981 20.5925 349.032 21.5325C347.745 22.8083 348.084 23.547 349.574 22.7412C350.319 22.3383 350.929 21.734 350.929 21.3982ZM349.574 18.3766C348.964 17.6379 348.964 17.1007 349.439 16.4964C349.913 16.0264 349.913 15.2877 349.574 14.6834C349.1 13.9448 348.829 13.9448 347.948 14.6162C347.135 15.2877 346.661 15.3549 345.916 14.7505C345.238 14.2134 344.832 14.1462 344.493 14.6834C343.816 15.7578 344.832 16.765 346.187 16.3621C347.542 15.9592 348.558 16.9664 347.88 18.0408C347.542 18.578 347.135 18.5108 346.458 17.9737C345.713 17.3693 345.238 17.3693 344.696 17.9065C343.612 18.9809 344.696 20.1224 346.525 19.6524C347.406 19.4509 348.287 19.5852 348.558 20.0553C348.897 20.5925 349.235 20.6596 349.777 20.1224C350.252 19.6524 350.184 19.1152 349.574 18.3766ZM353.978 18.3094C354.791 17.4365 354.858 17.0336 354.249 16.6978C353.707 16.295 353.978 15.6235 355.265 14.2805C356.213 13.2061 357.026 12.1989 357.026 11.9975C357.026 11.7289 356.01 10.6545 354.791 9.44582L352.555 7.29707L347.88 12.0646L350.658 14.6834C353.232 17.0336 353.368 17.3693 352.419 18.3094C351.742 18.9137 351.607 19.3838 352.081 19.3838C352.487 19.3838 353.368 18.9137 353.978 18.3094ZM344.019 9.51297C341.58 7.09563 341.444 7.02848 340.09 8.3043C339.277 9.04293 338.735 9.17723 338.735 8.70719C338.735 8.10285 338.396 8.10285 337.38 8.64004C335.415 9.71441 335.686 10.5873 338.87 13.8105L341.715 16.6978L344.154 14.3477L346.525 11.9975L344.019 9.51297ZM337.447 14.0791C336.431 13.0718 336.025 12.9375 336.025 13.6762C336.025 14.1462 336.567 14.8848 337.176 15.2877C338.938 16.2278 339.073 15.6906 337.447 14.0791ZM358.246 9.84871C357.704 9.04293 356.823 8.23715 356.281 8.10285C355.739 7.90141 356.078 8.57289 356.958 9.58012C358.991 11.7289 359.601 11.8632 358.246 9.84871ZM346.525 8.64004C346.796 8.23715 346.661 7.49852 346.187 6.96133C345.712 6.35699 345.645 5.9541 346.187 5.61836C347.271 4.94688 348.287 5.9541 347.88 7.29707C347.474 8.64004 348.49 9.64726 349.574 8.97578C350.116 8.64004 350.048 8.23715 349.506 7.56566C348.897 6.82703 348.964 6.35699 349.574 5.61836C350.861 4.1411 349.371 2.66383 347.88 3.93965C347.067 4.61114 346.661 4.61114 345.848 3.93965C345.306 3.46961 344.764 3.26817 344.764 3.53676C344.493 4.74543 344.425 8.37144 344.629 8.84148C345.035 9.51297 346.051 9.44582 346.525 8.64004ZM341.444 5.9541C342.325 5.08117 342.461 4.61114 341.919 4.61114C340.97 4.61114 339.412 5.9541 339.412 6.75988C339.412 7.63281 340.022 7.36422 341.444 5.9541ZM354.181 5.81981C353.639 5.01403 352.758 4.20825 352.216 4.07395C351.674 3.8725 352.013 4.54399 352.894 5.55121C354.926 7.69996 355.536 7.83426 354.181 5.81981ZM345.509 1.9252C346.593 0.985123 346.729 0.582233 346.119 0.582233C345.035 0.582233 343.477 1.85805 343.477 2.73098C343.477 3.53676 343.816 3.40246 345.509 1.9252ZM350.252 1.58946C349.777 1.05227 349.1 0.582233 348.693 0.582233C348.355 0.582233 348.558 1.18657 349.235 1.9252C350.658 3.46961 351.607 3.20102 350.252 1.58946Z" fill="black"/>
<path d="M416.982 23.0098C416.44 22.4055 415.966 21.5325 415.966 20.9953C415.966 20.4582 415.356 20.0553 414.611 20.0553C413.934 20.0553 412.985 19.4509 412.579 18.7123C412.172 17.9737 412.104 17.3693 412.511 17.3693C412.85 17.3693 413.256 17.8394 413.527 18.3766C413.73 18.9137 414.408 19.3838 415.018 19.3838C416.102 19.3838 416.102 19.2495 414.95 18.0408C414.272 17.3022 412.985 16.6978 412.104 16.6978C411.224 16.6978 409.801 15.9592 408.92 15.0191C407.362 13.3404 407.362 13.3404 406.143 14.6834C404.991 15.9592 404.991 16.0935 406.753 18.3094C408.649 20.861 408.853 21.3982 407.836 21.3982C406.888 21.3982 402.417 17.3693 402.417 16.4964C402.417 16.0935 403.23 14.8848 404.246 13.8776L406.075 11.9975L404.246 10.1173C403.23 9.11008 402.417 7.90141 402.417 7.56566C402.417 6.62559 406.685 2.59668 407.701 2.59668C408.988 2.59668 408.649 3.53676 406.82 5.28262C404.788 7.16277 404.72 8.0357 406.346 9.51297C407.904 10.9231 408.514 10.9231 408.514 9.64726C408.514 9.04293 409.259 8.3043 410.14 7.90141C411.021 7.49852 412.104 6.42414 412.511 5.55121C412.917 4.61114 413.798 3.93965 414.611 3.93965C415.492 3.93965 415.966 3.46961 415.966 2.66383C415.966 0.71653 417.66 -0.223548 420.844 0.0450458C423.079 0.179343 423.892 0.582233 424.434 1.72376C424.773 2.52954 425.722 3.46961 426.535 3.8725C427.348 4.20825 428.228 5.14832 428.499 5.88695C428.702 6.69273 429.38 7.29707 429.854 7.29707C430.396 7.29707 431.345 8.0357 431.954 8.97578C433.038 10.5873 433.174 10.6545 434.325 9.58012C436.019 8.0357 435.951 7.36422 433.851 5.21547C432.835 4.1411 432.293 3.06672 432.564 2.59668C433.106 1.7909 438.323 6.28984 438.323 7.56566C438.323 7.90141 437.51 9.11008 436.493 10.1173L434.664 11.9975L439 16.4293L436.426 18.9137C432.496 22.7412 430.532 22.204 434.325 18.3094L436.358 16.2278L434.258 14.4148C431.683 12.3332 431.412 12.2661 429.854 14.0119C428.161 15.8249 429.041 16.4964 430.803 14.7505C431.616 13.9448 432.225 13.609 432.225 14.0119C432.225 14.3477 431.48 15.1534 430.532 15.7578C429.651 16.3621 428.702 17.3693 428.499 18.108C428.228 18.7794 427.348 19.5852 426.399 19.7867C425.383 20.0553 424.773 20.6596 424.773 21.4654C424.773 23.8156 419.015 24.9571 416.982 23.0098ZM418.134 21.2639C417.321 20.391 416.644 20.1224 416.644 20.5253C416.644 21.5325 418.744 23.6141 419.218 23.0769C419.421 22.8755 418.947 22.0697 418.134 21.2639ZM424.096 21.3982C424.096 20.4582 423.147 20.5925 422.199 21.5325C420.912 22.8083 421.25 23.547 422.741 22.7412C423.486 22.3383 424.096 21.734 424.096 21.3982ZM422.741 18.3766C422.131 17.6379 422.131 17.1007 422.605 16.4964C423.079 16.0264 423.079 15.2877 422.741 14.6834C422.267 13.9448 421.996 13.9448 421.115 14.6162C420.302 15.2877 419.828 15.3549 419.082 14.7505C418.405 14.2134 417.998 14.1462 417.66 14.6834C416.982 15.7578 417.998 16.765 419.353 16.3621C420.708 15.9592 421.725 16.9664 421.047 18.0408C420.708 18.578 420.302 18.5108 419.624 17.9737C418.879 17.3693 418.405 17.3693 417.863 17.9065C416.779 18.9809 417.863 20.1224 419.692 19.6524C420.573 19.4509 421.454 19.5852 421.725 20.0553C422.063 20.5925 422.402 20.6596 422.944 20.1224C423.418 19.6524 423.35 19.1152 422.741 18.3766ZM427.144 18.3094C427.957 17.4365 428.025 17.0336 427.415 16.6978C426.873 16.295 427.144 15.6235 428.432 14.2805C429.38 13.2061 430.193 12.1989 430.193 11.9975C430.193 11.7289 429.177 10.6545 427.957 9.44582L425.722 7.29707L421.047 12.0646L423.825 14.6834C426.399 17.0336 426.535 17.3693 425.586 18.3094C424.909 18.9137 424.773 19.3838 425.247 19.3838C425.654 19.3838 426.535 18.9137 427.144 18.3094ZM417.186 9.51297C414.747 7.09563 414.611 7.02848 413.256 8.3043C412.443 9.04293 411.901 9.17723 411.901 8.70719C411.901 8.10285 411.563 8.10285 410.546 8.64004C408.582 9.71441 408.853 10.5873 412.037 13.8105L414.882 16.6978L417.321 14.3477L419.692 11.9975L417.186 9.51297ZM410.614 14.0791C409.598 13.0718 409.191 12.9375 409.191 13.6762C409.191 14.1462 409.733 14.8848 410.343 15.2877C412.104 16.2278 412.24 15.6906 410.614 14.0791ZM431.412 9.84871C430.87 9.04293 429.99 8.23715 429.448 8.10285C428.906 7.90141 429.244 8.57289 430.125 9.58012C432.158 11.7289 432.767 11.8632 431.412 9.84871ZM419.692 8.64004C419.963 8.23715 419.828 7.49852 419.353 6.96133C418.879 6.35699 418.811 5.9541 419.353 5.61836C420.437 4.94688 421.454 5.9541 421.047 7.29707C420.641 8.64004 421.657 9.64726 422.741 8.97578C423.283 8.64004 423.215 8.23715 422.673 7.56566C422.063 6.82703 422.131 6.35699 422.741 5.61836C424.028 4.1411 422.538 2.66383 421.047 3.93965C420.234 4.61114 419.828 4.61114 419.015 3.93965C418.473 3.46961 417.931 3.26817 417.931 3.53676C417.66 4.74543 417.592 8.37144 417.795 8.84148C418.202 9.51297 419.218 9.44582 419.692 8.64004ZM414.611 5.9541C415.492 5.08117 415.627 4.61114 415.085 4.61114C414.137 4.61114 412.579 5.9541 412.579 6.75988C412.579 7.63281 413.188 7.36422 414.611 5.9541ZM427.348 5.81981C426.806 5.01403 425.925 4.20825 425.383 4.07395C424.841 3.8725 425.18 4.54399 426.06 5.55121C428.093 7.69996 428.702 7.83426 427.348 5.81981ZM418.676 1.9252C419.76 0.985123 419.895 0.582233 419.286 0.582233C418.202 0.582233 416.644 1.85805 416.644 2.73098C416.644 3.53676 416.982 3.40246 418.676 1.9252ZM423.418 1.58946C422.944 1.05227 422.267 0.582233 421.86 0.582233C421.521 0.582233 421.725 1.18657 422.402 1.9252C423.825 3.46961 424.773 3.20102 423.418 1.58946Z" fill="black"/>
</svg>
