<svg width="1026" height="49" viewBox="0 0 1026 49" fill="none" xmlns="http://www.w3.org/2000/svg">
<path d="M4.49017 0C4.49017 0 -2.63005 1.83864 1.06192 14.0954C4.75389 26.3521 0.798208 45.3509 4.49017 48.6191C8.18214 51.8878 12.1378 33.2981 9.23699 24.3101C6.33616 15.321 10.2918 0.816522 4.49017 0Z" fill="#16181A"/>
<path d="M19.5218 0C19.5218 0 12.4015 1.83864 16.0935 14.0954C19.7855 26.3521 15.8298 45.3509 19.5218 48.6191C23.2137 51.8878 27.1694 33.2981 24.2686 24.3101C21.3677 15.321 25.3234 0.816522 19.5218 0Z" fill="#16181A"/>
<path d="M34.817 0C34.817 0 27.6968 1.83864 31.3888 14.0954C35.0808 26.3521 31.1251 45.3509 34.817 48.6191C38.509 51.8878 42.4647 33.2981 39.5639 24.3101C36.663 15.321 40.6187 0.816522 34.817 0Z" fill="#16181A"/>
<path d="M82.1713 5.38791C69.8438 9.05885 50.7368 5.1257 47.4494 8.79664C44.1625 12.4676 62.8586 16.4007 71.8981 13.5164C80.9382 10.6321 95.5251 14.5653 96.3468 8.79664C96.3468 8.79664 94.4982 1.71697 82.1713 5.38791Z" fill="#16181A"/>
<path d="M82.1713 20.3339C69.8438 24.0048 50.7368 20.0717 47.4494 23.7426C44.1625 27.4136 62.8586 31.3467 71.8981 28.4624C80.9382 25.5781 95.5251 29.5112 96.3468 23.7426C96.3468 23.7426 94.4982 16.6629 82.1713 20.3339Z" fill="#16181A"/>
<path d="M82.1713 35.5421C69.8438 39.213 50.7368 35.2799 47.4494 38.9508C44.1625 42.6218 62.8586 46.5549 71.8981 43.6706C80.9382 40.7863 95.5251 44.7194 96.3468 38.9508C96.3468 38.9508 94.4982 31.8711 82.1713 35.5421Z" fill="#16181A"/>
<path d="M107.602 0C107.602 0 100.481 1.83864 104.173 14.0954C107.865 26.3521 103.91 45.3509 107.602 48.6191C111.294 51.8878 115.249 33.2981 112.348 24.3101C109.448 15.321 113.403 0.816522 107.602 0Z" fill="#16181A"/>
<path d="M122.633 0C122.633 0 115.513 1.83864 119.205 14.0954C122.897 26.3521 118.941 45.3509 122.633 48.6191C126.325 51.8878 130.281 33.2981 127.38 24.3101C124.479 15.321 128.435 0.816522 122.633 0Z" fill="#16181A"/>
<path d="M137.928 0C137.928 0 130.808 1.83864 134.5 14.0954C138.192 26.3521 134.236 45.3509 137.928 48.6191C141.62 51.8878 145.576 33.2981 142.675 24.3101C139.774 15.321 143.73 0.816522 137.928 0Z" fill="#16181A"/>
<path d="M185.283 5.38791C172.956 9.05885 153.848 5.1257 150.561 8.79664C147.274 12.4676 165.97 16.4007 175.01 13.5164C184.05 10.6321 198.637 14.5653 199.459 8.79664C199.459 8.79664 197.61 1.71697 185.283 5.38791Z" fill="#16181A"/>
<path d="M185.283 20.3339C172.956 24.0048 153.848 20.0717 150.561 23.7426C147.274 27.4136 165.97 31.3467 175.01 28.4624C184.05 25.5781 198.637 29.5112 199.459 23.7426C199.459 23.7426 197.61 16.6629 185.283 20.3339Z" fill="#16181A"/>
<path d="M185.283 35.5421C172.956 39.213 153.848 35.2799 150.561 38.9508C147.274 42.6218 165.97 46.5549 175.01 43.6706C184.05 40.7863 198.637 44.7194 199.459 38.9508C199.459 38.9508 197.61 31.8711 185.283 35.5421Z" fill="#16181A"/>
<path d="M211.24 0C211.24 0 204.12 1.83864 207.812 14.0954C211.504 26.3521 207.548 45.3509 211.24 48.6191C214.932 51.8878 218.888 33.2981 215.987 24.3101C213.086 15.321 217.042 0.816522 211.24 0Z" fill="#16181A"/>
<path d="M226.272 0C226.272 0 219.152 1.83864 222.844 14.0954C226.536 26.3521 222.58 45.3509 226.272 48.6191C229.964 51.8878 233.92 33.2981 231.019 24.3101C228.118 15.321 232.074 0.816522 226.272 0Z" fill="#16181A"/>
<path d="M241.567 0C241.567 0 234.447 1.83864 238.139 14.0954C241.831 26.3521 237.875 45.3509 241.567 48.6191C245.259 51.8878 249.215 33.2981 246.314 24.3101C243.413 15.321 247.369 0.816522 241.567 0Z" fill="#16181A"/>
<path d="M288.921 5.38791C276.594 9.05885 257.487 5.1257 254.2 8.79664C250.913 12.4676 269.609 16.4007 278.649 13.5164C287.689 10.6321 302.276 14.5653 303.098 8.79664C303.098 8.79664 301.248 1.71697 288.921 5.38791Z" fill="#16181A"/>
<path d="M288.921 20.3339C276.594 24.0048 257.487 20.0717 254.2 23.7426C250.913 27.4136 269.609 31.3467 278.649 28.4624C287.689 25.5781 302.276 29.5112 303.098 23.7426C303.098 23.7426 301.248 16.6629 288.921 20.3339Z" fill="#16181A"/>
<path d="M288.921 35.5421C276.594 39.213 257.487 35.2799 254.2 38.9508C250.913 42.6218 269.609 46.5549 278.649 43.6706C287.689 40.7863 302.276 44.7194 303.098 38.9508C303.098 38.9508 301.248 31.8711 288.921 35.5421Z" fill="#16181A"/>
<path d="M314.352 0C314.352 0 307.231 1.83864 310.923 14.0954C314.615 26.3521 310.66 45.3509 314.352 48.6191C318.044 51.8878 321.999 33.2981 319.099 24.3101C316.198 15.321 320.153 0.816522 314.352 0Z" fill="#16181A"/>
<path d="M329.383 0C329.383 0 322.263 1.83864 325.955 14.0954C329.647 26.3521 325.691 45.3509 329.383 48.6191C333.075 51.8878 337.031 33.2981 334.13 24.3101C331.229 15.321 335.185 0.816522 329.383 0Z" fill="#16181A"/>
<path d="M344.679 0C344.679 0 337.558 1.83864 341.25 14.0954C344.942 26.3521 340.987 45.3509 344.679 48.6191C348.371 51.8878 352.326 33.2981 349.425 24.3101C346.525 15.321 350.48 0.816522 344.679 0Z" fill="#16181A"/>
<path d="M392.033 5.38791C379.705 9.05885 360.598 5.1257 357.311 8.79664C354.024 12.4676 372.72 16.4007 381.76 13.5164C390.8 10.6321 405.387 14.5653 406.209 8.79664C406.209 8.79664 404.36 1.71697 392.033 5.38791Z" fill="#16181A"/>
<path d="M392.033 20.3339C379.705 24.0048 360.598 20.0717 357.311 23.7426C354.024 27.4136 372.72 31.3467 381.76 28.4624C390.8 25.5781 405.387 29.5112 406.209 23.7426C406.209 23.7426 404.36 16.6629 392.033 20.3339Z" fill="#16181A"/>
<path d="M392.033 35.5421C379.705 39.213 360.598 35.2799 357.311 38.9508C354.024 42.6218 372.72 46.5549 381.76 43.6706C390.8 40.7863 405.387 44.7194 406.209 38.9508C406.209 38.9508 404.36 31.8711 392.033 35.5421Z" fill="#16181A"/>
<path d="M418.164 0C418.164 0 411.044 1.83864 414.736 14.0954C418.428 26.3521 414.472 45.3509 418.164 48.6191C421.856 51.8878 425.812 33.2981 422.911 24.3101C420.01 15.321 423.966 0.816522 418.164 0Z" fill="#16181A"/>
<path d="M433.196 0C433.196 0 426.075 1.83864 429.767 14.0954C433.459 26.3521 429.504 45.3509 433.196 48.6191C436.888 51.8878 440.843 33.2981 437.942 24.3101C435.042 15.321 438.997 0.816522 433.196 0Z" fill="#16181A"/>
<path d="M448.491 0C448.491 0 441.371 1.83864 445.063 14.0954C448.755 26.3521 444.799 45.3509 448.491 48.6191C452.183 51.8878 456.139 33.2981 453.238 24.3101C450.337 15.321 454.293 0.816522 448.491 0Z" fill="#16181A"/>
<path d="M495.845 5.38791C483.518 9.05885 464.411 5.1257 461.123 8.79664C457.836 12.4676 476.532 16.4007 485.572 13.5164C494.613 10.6321 509.199 14.5653 510.021 8.79664C510.021 8.79664 508.172 1.71697 495.845 5.38791Z" fill="#16181A"/>
<path d="M495.845 20.3339C483.518 24.0048 464.411 20.0717 461.123 23.7426C457.836 27.4136 476.532 31.3467 485.572 28.4624C494.613 25.5781 509.199 29.5112 510.021 23.7426C510.021 23.7426 508.172 16.6629 495.845 20.3339Z" fill="#16181A"/>
<path d="M495.845 35.5421C483.518 39.213 464.411 35.2799 461.123 38.9508C457.836 42.6218 476.532 46.5549 485.572 43.6706C494.613 40.7863 509.199 44.7194 510.021 38.9508C510.021 38.9508 508.172 31.8711 495.845 35.5421Z" fill="#16181A"/>
<path d="M521.275 0C521.275 0 514.155 1.83864 517.847 14.0954C521.539 26.3521 517.583 45.3509 521.275 48.6191C524.967 51.8878 528.923 33.2981 526.022 24.3101C523.121 15.321 527.076 0.816522 521.275 0Z" fill="#16181A"/>
<path d="M536.306 0C536.306 0 529.186 1.83864 532.878 14.0954C536.57 26.3521 532.614 45.3509 536.306 48.6191C539.998 51.8878 543.954 33.2981 541.053 24.3101C538.152 15.321 542.108 0.816522 536.306 0Z" fill="#16181A"/>
<path d="M551.602 0C551.602 0 544.482 1.83864 548.173 14.0954C551.865 26.3521 547.91 45.3509 551.602 48.6191C555.294 51.8878 559.249 33.2981 556.349 24.3101C553.448 15.321 557.403 0.816522 551.602 0Z" fill="#16181A"/>
<path d="M598.956 5.38791C586.63 9.05885 567.522 5.1257 564.235 8.79664C560.948 12.4676 579.644 16.4007 588.683 13.5164C597.724 10.6321 612.311 14.5653 613.132 8.79664C613.132 8.79664 611.283 1.71697 598.956 5.38791Z" fill="#16181A"/>
<path d="M598.956 20.3339C586.63 24.0048 567.522 20.0717 564.235 23.7426C560.948 27.4136 579.644 31.3467 588.683 28.4624C597.724 25.5781 612.311 29.5112 613.132 23.7426C613.132 23.7426 611.283 16.6629 598.956 20.3339Z" fill="#16181A"/>
<path d="M598.956 35.5421C586.63 39.213 567.522 35.2799 564.235 38.9508C560.948 42.6218 579.644 46.5549 588.683 43.6706C597.724 40.7863 612.311 44.7194 613.132 38.9508C613.132 38.9508 611.283 31.8711 598.956 35.5421Z" fill="#16181A"/>
<path d="M624.914 0C624.914 0 617.793 1.83864 621.485 14.0954C625.177 26.3521 621.222 45.3509 624.914 48.6191C628.606 51.8878 632.561 33.2981 629.66 24.3101C626.76 15.321 630.715 0.816522 624.914 0Z" fill="#16181A"/>
<path d="M639.945 0C639.945 0 632.825 1.83864 636.517 14.0954C640.209 26.3521 636.253 45.3509 639.945 48.6191C643.637 51.8878 647.593 33.2981 644.692 24.3101C641.791 15.321 645.747 0.816522 639.945 0Z" fill="#16181A"/>
<path d="M655.241 0C655.241 0 648.12 1.83864 651.812 14.0954C655.504 26.3521 651.549 45.3509 655.241 48.6191C658.932 51.8878 662.888 33.2981 659.987 24.3101C657.086 15.321 661.042 0.816522 655.241 0Z" fill="#16181A"/>
<path d="M702.595 5.38791C690.268 9.05885 671.161 5.1257 667.873 8.79664C664.586 12.4676 683.283 16.4007 692.322 13.5164C701.362 10.6321 715.95 14.5653 716.771 8.79664C716.771 8.79664 714.922 1.71697 702.595 5.38791Z" fill="#16181A"/>
<path d="M702.595 20.3339C690.268 24.0048 671.161 20.0717 667.873 23.7426C664.586 27.4136 683.283 31.3467 692.322 28.4624C701.362 25.5781 715.95 29.5112 716.771 23.7426C716.771 23.7426 714.922 16.6629 702.595 20.3339Z" fill="#16181A"/>
<path d="M702.595 35.5421C690.268 39.213 671.161 35.2799 667.873 38.9508C664.586 42.6218 683.283 46.5549 692.322 43.6706C701.362 40.7863 715.95 44.7194 716.771 38.9508C716.771 38.9508 714.922 31.8711 702.595 35.5421Z" fill="#16181A"/>
<path d="M728.025 0C728.025 0 720.905 1.83864 724.597 14.0954C728.289 26.3521 724.333 45.3509 728.025 48.6191C731.717 51.8878 735.673 33.2981 732.772 24.3101C729.871 15.321 733.827 0.816522 728.025 0Z" fill="#16181A"/>
<path d="M743.057 0C743.057 0 735.936 1.83864 739.628 14.0954C743.32 26.3521 739.365 45.3509 743.057 48.6191C746.749 51.8878 750.704 33.2981 747.803 24.3101C744.903 15.321 748.858 0.816522 743.057 0Z" fill="#16181A"/>
<path d="M758.352 0C758.352 0 751.232 1.83864 754.924 14.0954C758.616 26.3521 754.66 45.3509 758.352 48.6191C762.044 51.8878 766 33.2981 763.099 24.3101C760.198 15.321 764.154 0.816522 758.352 0Z" fill="#16181A"/>
<path d="M805.707 5.38791C793.38 9.05885 774.272 5.1257 770.985 8.79664C767.698 12.4676 786.394 16.4007 795.433 13.5164C804.473 10.6321 819.061 14.5653 819.882 8.79664C819.882 8.79664 818.034 1.71697 805.707 5.38791Z" fill="#16181A"/>
<path d="M805.707 20.3339C793.38 24.0048 774.272 20.0717 770.985 23.7426C767.698 27.4136 786.394 31.3467 795.433 28.4624C804.473 25.5781 819.061 29.5112 819.882 23.7426C819.882 23.7426 818.034 16.6629 805.707 20.3339Z" fill="#16181A"/>
<path d="M805.707 35.5421C793.38 39.213 774.272 35.2799 770.985 38.9508C767.698 42.6218 786.394 46.5549 795.433 43.6706C804.473 40.7863 819.061 44.7194 819.882 38.9508C819.882 38.9508 818.034 31.8711 805.707 35.5421Z" fill="#16181A"/>
<path d="M831.031 0C831.031 0 823.911 1.83864 827.603 14.0954C831.295 26.3521 827.339 45.3509 831.031 48.6191C834.723 51.8878 838.679 33.2981 835.778 24.3101C832.877 15.321 836.833 0.816522 831.031 0Z" fill="#16181A"/>
<path d="M846.063 0C846.063 0 838.943 1.83864 842.635 14.0954C846.327 26.3521 842.371 45.3509 846.063 48.6191C849.755 51.8878 853.711 33.2981 850.81 24.3101C847.909 15.321 851.865 0.816522 846.063 0Z" fill="#16181A"/>
<path d="M861.358 0C861.358 0 854.238 1.83864 857.93 14.0954C861.622 26.3521 857.666 45.3509 861.358 48.6191C865.05 51.8878 869.006 33.2981 866.105 24.3101C863.204 15.321 867.16 0.816522 861.358 0Z" fill="#16181A"/>
<path d="M908.712 5.38791C896.385 9.05885 877.278 5.1257 873.991 8.79664C870.704 12.4676 889.4 16.4007 898.439 13.5164C907.479 10.6321 922.066 14.5653 922.888 8.79664C922.888 8.79664 921.039 1.71697 908.712 5.38791Z" fill="#16181A"/>
<path d="M908.712 20.3339C896.385 24.0048 877.278 20.0717 873.991 23.7426C870.704 27.4136 889.4 31.3467 898.439 28.4624C907.479 25.5781 922.066 29.5112 922.888 23.7426C922.888 23.7426 921.039 16.6629 908.712 20.3339Z" fill="#16181A"/>
<path d="M908.712 35.5421C896.385 39.213 877.278 35.2799 873.991 38.9508C870.704 42.6218 889.4 46.5549 898.439 43.6706C907.479 40.7863 922.066 44.7194 922.888 38.9508C922.888 38.9508 921.039 31.8711 908.712 35.5421Z" fill="#16181A"/>
<path d="M934.143 0C934.143 0 927.023 1.83864 930.715 14.0954C934.406 26.3521 930.451 45.3509 934.143 48.6191C937.835 51.8878 941.79 33.2981 938.89 24.3101C935.989 15.321 939.944 0.816522 934.143 0Z" fill="#16181A"/>
<path d="M949.174 0C949.174 0 942.054 1.83864 945.746 14.0954C949.438 26.3521 945.482 45.3509 949.174 48.6191C952.866 51.8878 956.822 33.2981 953.921 24.3101C951.02 15.321 954.976 0.816522 949.174 0Z" fill="#16181A"/>
<path d="M964.47 0C964.47 0 957.349 1.83864 961.041 14.0954C964.733 26.3521 960.778 45.3509 964.47 48.6191C968.162 51.8878 972.117 33.2981 969.216 24.3101C966.316 15.321 970.271 0.816522 964.47 0Z" fill="#16181A"/>
<path d="M1001.55 13.5164C1010.59 10.6321 1025.18 14.5653 1026 8.79664C1026 8.79664 1024.15 1.71697 1011.82 5.38791C999.496 9.05885 980.389 5.1257 977.102 8.79664C973.815 12.4676 992.511 16.4007 1001.55 13.5164Z" fill="#16181A"/>
<path d="M1011.82 20.3339C999.496 24.0048 980.389 20.0717 977.102 23.7426C973.815 27.4136 992.511 31.3467 1001.55 28.4624C1010.59 25.5781 1025.18 29.5112 1026 23.7426C1026 23.7426 1024.15 16.6629 1011.82 20.3339Z" fill="#16181A"/>
<path d="M1011.82 35.5421C999.496 39.213 980.389 35.2799 977.102 38.9508C973.815 42.6218 992.511 46.5549 1001.55 43.6706C1010.59 40.7863 1025.18 44.7194 1026 38.9508C1026 38.9508 1024.15 31.8711 1011.82 35.5421Z" fill="#16181A"/>
</svg>
