<svg width="1091" height="72" viewBox="0 0 1091 72" fill="none" xmlns="http://www.w3.org/2000/svg">
<path d="M2.79935 43.7623C2.34782 43.7623 1.89012 43.653 1.46548 43.4227C0.105829 42.6846 -0.398366 40.9839 0.340001 39.6232L21.044 1.46598C21.7818 0.105902 23.482 -0.397317 24.8422 0.340162C26.2019 1.0782 26.7061 2.77898 25.9677 4.13962L5.26375 42.2969C4.75619 43.2322 3.79318 43.7623 2.79935 43.7623Z" fill="#16181A"/>
<path d="M6.80715 63.5728C3.7282 63.5728 1.80385 60.2384 3.34332 57.5715L20.3667 28.0769C21.9061 25.4094 25.7548 25.4094 27.2943 28.0769L44.3171 57.5715C45.8565 60.2384 43.9322 63.5728 40.8532 63.5728H6.80715Z" fill="#16181A"/>
<path d="M75.1469 8.61213C78.2259 8.61213 80.1503 11.9465 78.6108 14.6134L61.588 44.108C60.0485 46.775 56.1998 46.775 54.6604 44.108L37.6376 14.6134C36.0981 11.9465 38.0225 8.61213 41.1014 8.61213H75.1469Z" fill="#16181A"/>
<path d="M58.1236 70.2476C57.0967 70.2476 56.1517 69.685 55.662 68.7822L20.5874 4.13906C20.1162 3.27101 20.137 2.21858 20.6423 1.36959C21.147 0.520589 22.0619 0.000547253 23.0495 0.000547253H93.1983C94.1859 0.000547253 95.1008 0.520589 95.6055 1.36959C96.1103 2.21858 96.131 3.27101 95.6604 4.13906L60.5858 68.7828C60.0961 69.6856 59.1511 70.2476 58.1236 70.2476ZM27.7565 5.60449L58.1236 61.5722L88.4908 5.60449H27.7565Z" fill="#16181A"/>
<path d="M76.4999 63.5728C73.4209 63.5728 71.4966 60.2384 73.036 57.5715L90.0588 28.0769C91.5983 25.4094 95.447 25.4094 96.9865 28.0769L114.01 57.5715C115.549 60.2384 113.625 63.5728 110.546 63.5728H76.4999Z" fill="#16181A"/>
<path d="M1088.2 72H2.8016C1.25484 72 0.000508632 70.7458 0.000508632 69.198C0.000508632 67.6502 1.25484 66.3961 2.8016 66.3961H1088.2C1089.75 66.3961 1091 67.6502 1091 69.198C1091 70.7453 1089.75 72 1088.2 72Z" fill="#16181A"/>
<path d="M143.734 8.61213C146.813 8.61213 148.737 11.9465 147.198 14.6134L130.174 44.108C128.635 46.775 124.786 46.775 123.247 44.108L106.224 14.6134C104.684 11.9465 106.609 8.61213 109.688 8.61213H143.734Z" fill="#16181A"/>
<path d="M126.71 70.2476C125.684 70.2476 124.739 69.685 124.248 68.7822L89.1737 4.13906C88.7025 3.27101 88.7233 2.21858 89.2286 1.36959C89.7333 0.520589 90.6482 0.000547253 91.6358 0.000547253H161.785C162.773 0.000547253 163.687 0.520589 164.192 1.36959C164.697 2.21858 164.718 3.27101 164.247 4.13906L129.173 68.7828C128.682 69.6856 127.738 70.2476 126.71 70.2476ZM96.3433 5.60449L126.71 61.5722L157.078 5.60449H96.3433Z" fill="#16181A"/>
<path d="M145.087 63.5728C142.008 63.5728 140.083 60.2384 141.623 57.5715L158.646 28.0769C160.186 25.4094 164.034 25.4094 165.574 28.0769L182.597 57.5715C184.136 60.2384 182.212 63.5728 179.133 63.5728H145.087Z" fill="#16181A"/>
<path d="M213.427 8.61213C216.505 8.61213 218.43 11.9465 216.89 14.6134L199.868 44.108C198.328 46.775 194.479 46.775 192.94 44.108L175.917 14.6134C174.378 11.9465 176.301 8.61213 179.38 8.61213H213.427Z" fill="#16181A"/>
<path d="M196.403 70.2476C195.376 70.2476 194.431 69.685 193.941 68.7822L158.866 4.13906C158.395 3.27101 158.416 2.21858 158.921 1.36959C159.426 0.520589 160.341 0.000547253 161.329 0.000547253H231.478C232.466 0.000547253 233.38 0.520589 233.885 1.36959C234.39 2.21858 234.411 3.27101 233.94 4.13906L198.865 68.7828C198.375 69.6856 197.431 70.2476 196.403 70.2476ZM166.036 5.60449L196.403 61.5722L226.77 5.60449H166.036Z" fill="#16181A"/>
<path d="M214.78 63.5728C211.701 63.5728 209.777 60.2384 211.316 57.5715L228.339 28.0769C229.878 25.4094 233.727 25.4094 235.267 28.0769L252.289 57.5715C253.829 60.2384 251.904 63.5728 248.826 63.5728H214.78Z" fill="#16181A"/>
<path d="M283.12 8.61213C286.199 8.61213 288.123 11.9465 286.584 14.6134L269.56 44.108C268.021 46.775 264.172 46.775 262.633 44.108L245.61 14.6134C244.07 11.9465 245.995 8.61213 249.074 8.61213H283.12Z" fill="#16181A"/>
<path d="M266.096 70.2476C265.07 70.2476 264.125 69.685 263.634 68.7822L228.56 4.13906C228.089 3.27101 228.109 2.21858 228.615 1.36959C229.119 0.520589 230.034 0.000547253 231.022 0.000547253H301.171C302.159 0.000547253 303.074 0.520589 303.578 1.36959C304.083 2.21858 304.104 3.27101 303.633 4.13906L268.559 68.7828C268.068 69.6856 267.124 70.2476 266.096 70.2476ZM235.729 5.60449L266.096 61.5722L296.464 5.60449H235.729Z" fill="#16181A"/>
<path d="M284.473 63.5728C281.394 63.5728 279.469 60.2384 281.009 57.5715L298.032 28.0769C299.572 25.4094 303.42 25.4094 304.959 28.0769L321.983 57.5715C323.522 60.2384 321.598 63.5728 318.519 63.5728H284.473Z" fill="#16181A"/>
<path d="M352.813 8.61213C355.892 8.61213 357.816 11.9465 356.277 14.6134L339.254 44.108C337.715 46.775 333.865 46.775 332.327 44.108L315.303 14.6134C313.764 11.9465 315.688 8.61213 318.767 8.61213H352.813Z" fill="#16181A"/>
<path d="M335.79 70.2476C334.763 70.2476 333.818 69.685 333.328 68.7822L298.253 4.13906C297.782 3.27101 297.803 2.21858 298.308 1.36959C298.813 0.520589 299.727 0.000547253 300.715 0.000547253H370.864C371.852 0.000547253 372.767 0.520589 373.272 1.36959C373.776 2.21858 373.797 3.27101 373.327 4.13906L338.251 68.7828C337.762 69.6856 336.817 70.2476 335.79 70.2476ZM305.422 5.60449L335.789 61.5722L366.156 5.60449H305.422Z" fill="#16181A"/>
<path d="M354.166 63.5728C351.087 63.5728 349.163 60.2384 350.702 57.5715L367.725 28.0769C369.265 25.4094 373.114 25.4094 374.653 28.0769L391.676 57.5715C393.215 60.2384 391.291 63.5728 388.212 63.5728H354.166Z" fill="#16181A"/>
<path d="M421.399 8.61213C424.478 8.61213 426.403 11.9465 424.863 14.6134L407.84 44.108C406.301 46.775 402.452 46.775 400.913 44.108L383.889 14.6134C382.35 11.9465 384.274 8.61213 387.353 8.61213H421.399Z" fill="#16181A"/>
<path d="M404.376 70.2476C403.349 70.2476 402.404 69.685 401.914 68.7822L366.839 4.13906C366.368 3.27101 366.389 2.21858 366.894 1.36959C367.399 0.520589 368.314 0.000547253 369.301 0.000547253H439.451C440.438 0.000547253 441.353 0.520589 441.858 1.36959C442.363 2.21858 442.383 3.27101 441.913 4.13906L406.838 68.7828C406.348 69.6856 405.403 70.2476 404.376 70.2476ZM374.009 5.60449L404.376 61.5722L434.743 5.60449H374.009Z" fill="#16181A"/>
<path d="M422.753 63.5728C419.674 63.5728 417.75 60.2384 419.289 57.5715L436.312 28.0769C437.851 25.4094 441.7 25.4094 443.239 28.0769L460.263 57.5715C461.802 60.2384 459.878 63.5728 456.799 63.5728H422.753Z" fill="#16181A"/>
<path d="M491.093 8.61213C494.172 8.61213 496.096 11.9465 494.556 14.6134L477.533 44.108C475.994 46.775 472.145 46.775 470.605 44.108L453.583 14.6134C452.043 11.9465 453.968 8.61213 457.047 8.61213H491.093Z" fill="#16181A"/>
<path d="M474.069 70.2476C473.042 70.2476 472.097 69.685 471.608 68.7822L436.533 4.13906C436.062 3.27101 436.083 2.21858 436.588 1.36959C437.093 0.520589 438.008 0.000547253 438.995 0.000547253H509.145C510.132 0.000547253 511.046 0.520589 511.552 1.36959C512.057 2.21858 512.077 3.27101 511.607 4.13906L476.531 68.7828C476.041 69.6856 475.097 70.2476 474.069 70.2476ZM443.702 5.60449L474.069 61.5722L504.436 5.60449H443.702Z" fill="#16181A"/>
<path d="M492.446 63.5728C489.367 63.5728 487.442 60.2384 488.982 57.5715L506.005 28.0769C507.545 25.4094 511.393 25.4094 512.932 28.0769L529.956 57.5715C531.495 60.2384 529.571 63.5728 526.492 63.5728H492.446Z" fill="#16181A"/>
<path d="M560.232 8.61213C563.311 8.61213 565.236 11.9465 563.697 14.6134L546.673 44.108C545.134 46.775 541.285 46.775 539.746 44.108L522.723 14.6134C521.184 11.9465 523.108 8.61213 526.187 8.61213H560.232Z" fill="#16181A"/>
<path d="M543.209 70.2476C542.182 70.2476 541.237 69.685 540.748 68.7822L505.673 4.13906C505.202 3.27101 505.222 2.21858 505.728 1.36959C506.233 0.520589 507.147 0.000547253 508.135 0.000547253H578.284C579.272 0.000547253 580.187 0.520589 580.692 1.36959C581.196 2.21858 581.217 3.27101 580.746 4.13906L545.671 68.7828C545.181 69.6856 544.237 70.2476 543.209 70.2476ZM512.842 5.60449L543.209 61.5722L573.577 5.60449H512.842Z" fill="#16181A"/>
<path d="M561.585 63.5728C558.507 63.5728 556.582 60.2384 558.122 57.5715L575.144 28.0769C576.684 25.4094 580.532 25.4094 582.072 28.0769L599.095 57.5715C600.634 60.2384 598.71 63.5728 595.631 63.5728H561.585Z" fill="#16181A"/>
<path d="M629.925 8.61213C633.004 8.61213 634.929 11.9465 633.39 14.6134L616.366 44.108C614.827 46.775 610.979 46.775 609.439 44.108L592.416 14.6134C590.877 11.9465 592.801 8.61213 595.88 8.61213H629.925Z" fill="#16181A"/>
<path d="M612.902 70.2476C611.875 70.2476 610.93 69.685 610.44 68.7822L575.366 4.13906C574.894 3.27101 574.915 2.21858 575.421 1.36959C575.925 0.520589 576.84 0.000547253 577.828 0.000547253H647.977C648.965 0.000547253 649.88 0.520589 650.384 1.36959C650.889 2.21858 650.91 3.27101 650.439 4.13906L615.364 68.7828C614.874 69.6856 613.929 70.2476 612.902 70.2476ZM582.535 5.60449L612.902 61.5722L643.27 5.60449H582.535Z" fill="#16181A"/>
<path d="M631.279 63.5728C628.2 63.5728 626.275 60.2384 627.814 57.5715L644.838 28.0769C646.376 25.4094 650.225 25.4094 651.765 28.0769L668.787 57.5715C670.327 60.2384 668.403 63.5728 665.324 63.5728H631.279Z" fill="#16181A"/>
<path d="M698.81 8.61213C701.757 8.61213 703.598 11.803 702.125 14.3556L684.804 44.3658C683.331 46.9184 679.647 46.9184 678.174 44.3658L660.853 14.3556C659.38 11.803 661.221 8.61213 664.168 8.61213H698.81Z" fill="#16181A"/>
<path d="M681.489 70.2476C680.462 70.2476 679.517 69.685 679.027 68.7822L643.952 4.13906C643.481 3.27101 643.502 2.21858 644.007 1.36959C644.512 0.520589 645.427 0.000547253 646.415 0.000547253H716.564C717.552 0.000547253 718.466 0.520589 718.971 1.36959C719.476 2.21858 719.497 3.27101 719.026 4.13906L683.951 68.7828C683.461 69.6856 682.516 70.2476 681.489 70.2476ZM651.122 5.60449L681.489 61.5722L711.856 5.60449H651.122Z" fill="#16181A"/>
<path d="M699.568 63.5728C696.621 63.5728 694.779 60.3819 696.253 57.8293L713.574 27.8191C715.047 25.2665 718.73 25.2665 720.204 27.8191L737.525 57.8293C738.998 60.3819 737.156 63.5728 734.21 63.5728H699.568Z" fill="#16181A"/>
<path d="M768.503 8.61213C771.449 8.61213 773.291 11.803 771.818 14.3556L754.497 44.3658C753.023 46.9184 749.34 46.9184 747.867 44.3658L730.546 14.3556C729.072 11.803 730.914 8.61213 733.861 8.61213H768.503Z" fill="#16181A"/>
<path d="M751.182 70.2476C750.155 70.2476 749.21 69.685 748.72 68.7822L713.645 4.13906C713.174 3.27101 713.195 2.21858 713.7 1.36959C714.205 0.520589 715.12 0.000547253 716.107 0.000547253H786.257C787.244 0.000547253 788.159 0.520589 788.664 1.36959C789.169 2.21858 789.189 3.27101 788.719 4.13906L753.644 68.7828C753.154 69.6856 752.209 70.2476 751.182 70.2476ZM720.815 5.60449L751.182 61.5722L781.549 5.60449H720.815Z" fill="#16181A"/>
<path d="M769.261 63.5728C766.314 63.5728 764.473 60.3819 765.946 57.8293L783.267 27.8191C784.74 25.2665 788.423 25.2665 789.896 27.8191L807.218 57.8293C808.691 60.3819 806.849 63.5728 803.903 63.5728H769.261Z" fill="#16181A"/>
<path d="M838.196 8.61213C841.143 8.61213 842.984 11.803 841.511 14.3556L824.19 44.3658C822.717 46.9184 819.034 46.9184 817.56 44.3658L800.239 14.3556C798.766 11.803 800.607 8.61213 803.554 8.61213H838.196Z" fill="#16181A"/>
<path d="M820.875 70.2476C819.848 70.2476 818.903 69.685 818.413 68.7822L783.338 4.13906C782.867 3.27101 782.888 2.21858 783.393 1.36959C783.898 0.520589 784.813 0.000547253 785.801 0.000547253H855.95C856.938 0.000547253 857.852 0.520589 858.357 1.36959C858.862 2.21858 858.883 3.27101 858.412 4.13906L823.337 68.7828C822.847 69.6856 821.902 70.2476 820.875 70.2476ZM790.508 5.60449L820.875 61.5722L851.242 5.60449H790.508Z" fill="#16181A"/>
<path d="M838.953 63.5728C836.007 63.5728 834.165 60.3819 835.639 57.8293L852.959 27.8191C854.433 25.2665 858.116 25.2665 859.589 27.8191L876.91 57.8293C878.384 60.3819 876.542 63.5728 873.596 63.5728H838.953Z" fill="#16181A"/>
<path d="M907.889 8.61213C910.836 8.61213 912.677 11.803 911.204 14.3556L893.883 44.3658C892.409 46.9184 888.727 46.9184 887.253 44.3658L869.932 14.3556C868.458 11.803 870.3 8.61213 873.247 8.61213H907.889Z" fill="#16181A"/>
<path d="M890.568 70.2476C889.541 70.2476 888.596 69.685 888.106 68.7822L853.032 4.13906C852.561 3.27101 852.581 2.21858 853.087 1.36959C853.591 0.520589 854.506 0.000547253 855.494 0.000547253H925.643C926.63 0.000547253 927.545 0.520589 928.05 1.36959C928.555 2.21858 928.575 3.27101 928.105 4.13906L893.03 68.7828C892.54 69.6856 891.595 70.2476 890.568 70.2476ZM860.201 5.60449L890.568 61.5722L920.935 5.60449H860.201Z" fill="#16181A"/>
<path d="M908.647 63.5728C905.7 63.5728 903.859 60.3819 905.332 57.8293L922.653 27.8191C924.126 25.2665 927.81 25.2665 929.283 27.8191L946.604 57.8293C948.077 60.3819 946.236 63.5728 943.289 63.5728H908.647Z" fill="#16181A"/>
<path d="M976.476 8.61213C979.422 8.61213 981.264 11.803 979.791 14.3556L962.47 44.3658C960.996 46.9184 957.313 46.9184 955.84 44.3658L938.519 14.3556C937.046 11.803 938.887 8.61213 941.834 8.61213H976.476Z" fill="#16181A"/>
<path d="M959.155 70.2476C958.128 70.2476 957.183 69.685 956.693 68.7822L921.619 4.13906C921.147 3.27101 921.168 2.21858 921.674 1.36959C922.178 0.520589 923.093 0.000547253 924.081 0.000547253H994.23C995.218 0.000547253 996.133 0.520589 996.637 1.36959C997.142 2.21858 997.163 3.27101 996.692 4.13906L961.616 68.7828C961.126 69.6856 960.182 70.2476 959.155 70.2476ZM928.788 5.60449L959.155 61.5722L989.523 5.60449H928.788Z" fill="#16181A"/>
<path d="M977.233 63.5728C974.287 63.5728 972.445 60.3819 973.918 57.8293L991.239 27.8191C992.713 25.2665 996.396 25.2665 997.869 27.8191L1015.19 57.8293C1016.66 60.3819 1014.82 63.5728 1011.88 63.5728H977.233Z" fill="#16181A"/>
<path d="M1046.17 8.61213C1049.12 8.61213 1050.96 11.803 1049.48 14.3556L1032.16 44.3658C1030.69 46.9184 1027.01 46.9184 1025.53 44.3658L1008.21 14.3556C1006.74 11.803 1008.58 8.61213 1011.53 8.61213H1046.17Z" fill="#16181A"/>
<path d="M1028.85 70.2476C1027.82 70.2476 1026.88 69.685 1026.39 68.7822L991.311 4.13906C990.84 3.27101 990.861 2.21858 991.366 1.36959C991.871 0.520589 992.786 0.000547253 993.773 0.000547253H1063.92C1064.91 0.000547253 1065.83 0.520589 1066.33 1.36959C1066.83 2.21858 1066.86 3.27101 1066.38 4.13906L1031.31 68.7828C1030.82 69.6856 1029.87 70.2476 1028.85 70.2476ZM998.48 5.60449L1028.85 61.5722L1059.21 5.60449H998.48Z" fill="#16181A"/>
<path d="M1088.2 50.8278C1087.21 50.8278 1086.24 50.297 1085.74 49.3617L1061.2 4.13907C1060.46 2.77899 1060.96 1.07821 1062.32 0.339615C1063.69 -0.397864 1065.38 0.105354 1066.12 1.46543L1090.66 46.6881C1091.4 48.0482 1090.89 49.749 1089.53 50.4876C1089.11 50.7185 1088.65 50.8278 1088.2 50.8278Z" fill="#16181A"/>
<path d="M1046.93 63.5728C1043.98 63.5728 1042.14 60.3819 1043.61 57.8293L1060.93 27.8191C1062.41 25.2665 1066.09 25.2665 1067.56 27.8191L1084.88 57.8293C1086.36 60.3819 1084.52 63.5728 1081.57 63.5728H1046.93Z" fill="#16181A"/>
<path d="M1088.2 5.60449H1039.24C1037.69 5.60449 1036.44 4.34977 1036.44 2.80252C1036.44 1.25527 1037.69 0.000547253 1039.24 0.000547253H1088.2C1089.75 0.000547253 1091 1.25527 1091 2.80252C1091 4.35033 1089.75 5.60449 1088.2 5.60449Z" fill="#16181A"/>
<path d="M44.8594 5.60449H2.8016C1.25484 5.60449 0.000508632 4.34977 0.000508632 2.80252C0.000508632 1.25527 1.25484 0.000547253 2.8016 0.000547253H44.8594C46.4061 0.000547253 47.6604 1.25527 47.6604 2.80252C47.6604 4.35033 46.4061 5.60449 44.8594 5.60449Z" fill="#16181A"/>
</svg>
