<svg width="1091" height="45" viewBox="0 0 1091 45" fill="none" xmlns="http://www.w3.org/2000/svg">
<path d="M66.0075 1.42852C60.8996 -1.78565 26.3058 1.42852 26.3058 1.42852C14.0002 2.34182 40.2361 44.3645 44.1831 42.9868C48.1301 41.6091 71.1153 4.64323 66.0075 1.42852Z" fill="#16181A"/>
<path d="M78.5447 1.42852C75.9908 -0.407983 66.4715 23.0111 62.6873 27.1441C58.9031 31.277 53.2374 41.8383 54.8627 43.0203C55.3501 43.3748 56.1308 43.2236 56.9838 42.8395C59.3148 41.7894 60.9435 39.6666 61.6404 37.2289C64.251 28.0997 80.8236 3.06775 78.5447 1.42852Z" fill="#16181A"/>
<path d="M82.7818 12.3349C83.0141 7.97226 85.858 6.82429 85.858 6.82429C85.858 6.82429 86.7016 6.20829 87.3223 5.35268C88.4542 3.79313 86.1848 2.00497 84.8512 3.39966C83.9604 4.33111 82.894 5.69062 82.0266 7.51284C80.169 11.4167 66.9355 33.5729 67.2833 37.2464C67.6317 40.92 63.1329 43.7264 67.9796 43.2198C69.895 43.0197 69.9356 31.6864 74.3466 26.9792C78.7576 22.273 78.7576 22.273 78.7576 22.273C78.7576 22.273 82.5495 16.697 82.7818 12.3349Z" fill="#16181A"/>
<path d="M120.776 1.42852C118.498 3.06775 135.07 28.0997 137.68 37.2289C138.377 39.6666 140.006 41.7894 142.337 42.8395C143.19 43.2236 143.97 43.3748 144.458 43.0203C146.083 41.8389 140.418 31.2776 136.633 27.1441C132.85 23.0111 123.33 -0.407983 120.776 1.42852Z" fill="#16181A"/>
<path d="M132.037 37.247C132.385 33.5729 119.151 11.4167 117.293 7.51339C116.426 5.69117 115.36 4.33166 114.469 3.40021C113.136 2.00552 110.866 3.79313 111.998 5.35323C112.619 6.20884 113.463 6.82484 113.463 6.82484C113.463 6.82484 116.307 7.9728 116.539 12.3355C116.771 16.6976 120.562 22.2742 120.562 22.2742C120.562 22.2742 120.562 22.2741 124.973 26.9803C129.384 31.6869 129.425 43.0203 131.34 43.2209C136.187 43.727 131.689 40.92 132.037 37.247Z" fill="#16181A"/>
<path d="M9.08467 1.42852C6.80582 3.06775 23.3784 28.0997 25.989 37.2289C26.6858 39.6666 28.3151 41.7894 30.6456 42.8395C31.4992 43.2236 32.2788 43.3748 32.7667 43.0203C34.392 41.8389 28.7263 31.2776 24.9421 27.1441C21.1579 23.0111 11.6386 -0.407983 9.08467 1.42852Z" fill="#16181A"/>
<path d="M20.345 37.247C20.6934 33.5729 7.4593 11.4167 5.60166 7.51339C4.73425 5.69117 3.66845 4.33166 2.7777 3.40021C1.44406 2.00552 -0.825336 3.79313 0.306585 5.35323C0.92728 6.20884 1.7708 6.82484 1.7708 6.82484C1.7708 6.82484 4.61533 7.9728 4.84705 12.3355C5.07932 16.6976 8.87018 22.2742 8.87018 22.2742C8.87018 22.2742 8.87018 22.2741 13.2812 26.9803C17.6922 31.6869 17.7327 43.0203 19.6482 43.2209C24.4954 43.727 19.9971 40.92 20.345 37.247Z" fill="#16181A"/>
<path d="M99.2344 2.01323C95.2874 3.39089 72.3022 40.3568 77.41 43.5715C82.5178 46.7856 117.112 43.5715 117.112 43.5715C129.417 42.6576 103.181 0.636129 99.2344 2.01323ZM105.941 14.4017C105.941 14.4017 105.941 15.2622 105.68 19.998C105.49 23.4523 110.348 30.1131 112.992 33.4652C114.062 34.822 114.621 36.4991 114.574 38.2197L114.561 38.6824C114.474 41.868 103.939 43.1594 89.9217 41.4377C75.9041 39.7155 86.9616 28.9531 89.3121 24.1316C90.9192 20.8355 95.7397 15.0859 98.6298 11.7772C99.8328 10.3995 101.97 10.3391 103.25 11.648L105.941 14.4017Z" fill="#16181A"/>
<path d="M100.412 21.5098C100.412 21.5098 98.7148 20.8585 95.2324 24.8624C91.7494 28.8662 85.4374 36.271 92.0978 37.003C98.7582 37.735 104.504 36.9173 108.118 37.2184C111.731 37.5201 104.331 30.6318 103.852 27.7908C103.373 24.9486 102.937 21.257 100.412 21.5098Z" fill="#16181A"/>
<path d="M177.451 1.42852C172.344 -1.78565 137.749 1.42852 137.749 1.42852C125.444 2.34182 151.679 44.3645 155.626 42.9868C159.574 41.6091 182.559 4.64323 177.451 1.42852Z" fill="#16181A"/>
<path d="M189.989 1.42852C187.435 -0.407983 177.915 23.0111 174.131 27.1441C170.347 31.277 164.681 41.8383 166.307 43.0203C166.794 43.3748 167.574 43.2236 168.428 42.8395C170.758 41.7894 172.387 39.6666 173.084 37.2289C175.695 28.0997 192.268 3.06775 189.989 1.42852Z" fill="#16181A"/>
<path d="M194.226 12.3349C194.458 7.97226 197.303 6.82429 197.303 6.82429C197.303 6.82429 198.146 6.20829 198.767 5.35268C199.899 3.79313 197.63 2.00497 196.296 3.39966C195.405 4.33111 194.339 5.69062 193.471 7.51284C191.614 11.4167 178.38 33.5729 178.728 37.2464C179.076 40.92 174.578 43.7264 179.425 43.2198C181.34 43.0197 181.381 31.6864 185.792 26.9792C190.203 22.273 190.203 22.273 190.203 22.273C190.203 22.273 193.994 16.697 194.226 12.3349Z" fill="#16181A"/>
<path d="M232.22 1.42852C229.942 3.06775 246.514 28.0997 249.125 37.2289C249.822 39.6666 251.451 41.7894 253.781 42.8395C254.634 43.2236 255.414 43.3748 255.902 43.0203C257.528 41.8389 251.861 31.2776 248.078 27.1441C244.294 23.0111 234.774 -0.407983 232.22 1.42852Z" fill="#16181A"/>
<path d="M243.481 37.247C243.829 33.5729 230.595 11.4167 228.737 7.51339C227.87 5.69117 226.804 4.33166 225.913 3.40021C224.579 2.00552 222.31 3.79313 223.442 5.35323C224.063 6.20884 224.906 6.82484 224.906 6.82484C224.906 6.82484 227.75 7.9728 227.982 12.3355C228.214 16.6976 232.005 22.2742 232.005 22.2742C232.005 22.2742 232.005 22.2741 236.416 26.9803C240.828 31.6869 240.868 43.0203 242.783 43.2209C247.631 43.727 243.132 40.92 243.481 37.247Z" fill="#16181A"/>
<path d="M210.678 2.01323C206.731 3.39089 183.746 40.3568 188.854 43.5715C193.962 46.7856 228.556 43.5715 228.556 43.5715C240.861 42.6576 214.625 0.636129 210.678 2.01323ZM217.385 14.4017C217.385 14.4017 217.385 15.2622 217.124 19.998C216.934 23.4523 221.792 30.1131 224.435 33.4652C225.506 34.822 226.065 36.4991 226.017 38.2197L226.005 38.6824C225.917 41.868 215.383 43.1594 201.365 41.4377C187.348 39.7155 198.405 28.9531 200.756 24.1316C202.363 20.8355 207.183 15.0859 210.073 11.7772C211.276 10.3995 213.413 10.3391 214.693 11.648L217.385 14.4017Z" fill="#16181A"/>
<path d="M211.857 21.5098C211.857 21.5098 210.159 20.8585 206.676 24.8624C203.194 28.8662 196.881 36.271 203.542 37.003C210.202 37.735 215.949 36.9173 219.562 37.2184C223.175 37.5201 215.774 30.6318 215.296 27.7908C214.817 24.9486 214.382 21.257 211.857 21.5098Z" fill="#16181A"/>
<path d="M288.895 1.42852C283.788 -1.78565 249.194 1.42852 249.194 1.42852C236.888 2.34182 263.124 44.3645 267.071 42.9868C271.017 41.6091 294.003 4.64323 288.895 1.42852Z" fill="#16181A"/>
<path d="M301.433 1.42852C298.879 -0.407983 289.359 23.0111 285.575 27.1441C281.791 31.277 276.126 41.8383 277.751 43.0203C278.238 43.3748 279.018 43.2236 279.871 42.8395C282.202 41.7894 283.831 39.6666 284.528 37.2289C287.139 28.0997 303.711 3.06775 301.433 1.42852Z" fill="#16181A"/>
<path d="M305.67 12.3349C305.902 7.97226 308.746 6.82429 308.746 6.82429C308.746 6.82429 309.589 6.20829 310.21 5.35268C311.342 3.79313 309.073 2.00497 307.74 3.39966C306.849 4.33111 305.782 5.69062 304.915 7.51284C303.058 11.4167 289.824 33.5729 290.172 37.2464C290.52 40.92 286.021 43.7264 290.868 43.2198C292.783 43.0197 292.824 31.6864 297.235 26.9792C301.646 22.273 301.646 22.273 301.646 22.273C301.646 22.273 305.437 16.697 305.67 12.3349Z" fill="#16181A"/>
<path d="M343.664 1.42852C341.385 3.06775 357.958 28.0997 360.568 37.2289C361.265 39.6666 362.894 41.7894 365.225 42.8395C366.078 43.2236 366.858 43.3748 367.346 43.0203C368.971 41.8389 363.305 31.2776 359.521 27.1441C355.737 23.0111 346.218 -0.407983 343.664 1.42852Z" fill="#16181A"/>
<path d="M354.925 37.247C355.273 33.5729 342.039 11.4167 340.181 7.51339C339.314 5.69117 338.248 4.33166 337.357 3.40021C336.024 2.00552 333.754 3.79313 334.886 5.35323C335.507 6.20884 336.35 6.82484 336.35 6.82484C336.35 6.82484 339.195 7.9728 339.427 12.3355C339.659 16.6976 343.449 22.2742 343.449 22.2742C343.449 22.2742 343.449 22.2741 347.861 26.9803C352.272 31.6869 352.312 43.0203 354.228 43.2209C359.075 43.727 354.577 40.92 354.925 37.247Z" fill="#16181A"/>
<path d="M322.122 2.01323C318.175 3.39089 295.19 40.3568 300.298 43.5715C305.406 46.7856 340 43.5715 340 43.5715C352.305 42.6576 326.069 0.636129 322.122 2.01323ZM328.829 14.4017C328.829 14.4017 328.829 15.2622 328.568 19.998C328.378 23.4523 333.236 30.1131 335.88 33.4652C336.95 34.822 337.509 36.4991 337.462 38.2197L337.45 38.6824C337.362 41.868 326.827 43.1594 312.81 41.4377C298.793 39.7155 309.85 28.9531 312.201 24.1316C313.808 20.8355 318.628 15.0859 321.518 11.7772C322.721 10.3995 324.858 10.3391 326.138 11.648L328.829 14.4017Z" fill="#16181A"/>
<path d="M323.301 21.5098C323.301 21.5098 321.603 20.8585 318.12 24.8624C314.637 28.8662 308.325 36.271 314.986 37.003C321.646 37.735 327.392 36.9173 331.006 37.2184C334.619 37.5201 327.219 30.6318 326.739 27.7908C326.261 24.9486 325.825 21.257 323.301 21.5098Z" fill="#16181A"/>
<path d="M400.339 1.42852C395.231 -1.78565 360.637 1.42852 360.637 1.42852C348.331 2.34182 374.567 44.3645 378.514 42.9868C382.462 41.6091 405.447 4.64323 400.339 1.42852Z" fill="#16181A"/>
<path d="M412.877 1.42852C410.323 -0.407983 400.803 23.0111 397.019 27.1441C393.235 31.277 387.569 41.8383 389.195 43.0203C389.682 43.3748 390.462 43.2236 391.316 42.8395C393.646 41.7894 395.275 39.6666 395.972 37.2289C398.583 28.0997 415.155 3.06775 412.877 1.42852Z" fill="#16181A"/>
<path d="M417.114 12.3349C417.346 7.97226 420.19 6.82429 420.19 6.82429C420.19 6.82429 421.033 6.20829 421.654 5.35268C422.786 3.79313 420.517 2.00497 419.183 3.39966C418.292 4.33111 417.226 5.69062 416.359 7.51284C414.501 11.4167 401.267 33.5729 401.616 37.2464C401.964 40.92 397.465 43.7264 402.312 43.2198C404.227 43.0197 404.268 31.6864 408.679 26.9792C413.09 22.273 413.09 22.273 413.09 22.273C413.09 22.273 416.882 16.697 417.114 12.3349Z" fill="#16181A"/>
<path d="M455.108 1.42852C452.83 3.06775 469.402 28.0997 472.013 37.2289C472.709 39.6666 474.339 41.7894 476.669 42.8395C477.522 43.2236 478.303 43.3748 478.79 43.0203C480.415 41.8389 474.749 31.2776 470.965 27.1441C467.182 23.0111 457.662 -0.407983 455.108 1.42852Z" fill="#16181A"/>
<path d="M466.369 37.247C466.717 33.5729 453.483 11.4167 451.625 7.51339C450.758 5.69117 449.692 4.33166 448.801 3.40021C447.468 2.00552 445.199 3.79313 446.331 5.35323C446.951 6.20884 447.795 6.82484 447.795 6.82484C447.795 6.82484 450.639 7.9728 450.871 12.3355C451.103 16.6976 454.894 22.2742 454.894 22.2742C454.894 22.2742 454.894 22.2741 459.305 26.9803C463.717 31.6869 463.757 43.0203 465.672 43.2209C470.519 43.727 466.02 40.92 466.369 37.247Z" fill="#16181A"/>
<path d="M433.566 2.01323C429.619 3.39089 406.634 40.3568 411.742 43.5715C416.85 46.7856 451.444 43.5715 451.444 43.5715C463.749 42.6576 437.513 0.636129 433.566 2.01323ZM440.273 14.4017C440.273 14.4017 440.273 15.2622 440.012 19.998C439.822 23.4523 444.68 30.1131 447.323 33.4652C448.393 34.822 448.952 36.4991 448.905 38.2197L448.892 38.6824C448.806 41.868 438.271 43.1594 424.253 41.4377C410.235 39.7155 421.293 28.9531 423.643 24.1316C425.25 20.8355 430.07 15.0859 432.961 11.7772C434.164 10.3995 436.301 10.3391 437.581 11.648L440.273 14.4017Z" fill="#16181A"/>
<path d="M434.745 21.5098C434.745 21.5098 433.047 20.8585 429.565 24.8624C426.082 28.8662 419.77 36.271 426.43 37.003C433.091 37.735 438.837 36.9173 442.45 37.2184C446.063 37.5201 438.663 30.6318 438.184 27.7908C437.705 24.9486 437.269 21.257 434.745 21.5098Z" fill="#16181A"/>
<path d="M511.108 1.42852C506 -1.78565 471.406 1.42852 471.406 1.42852C459.1 2.34182 485.336 44.3645 489.283 42.9868C493.23 41.6091 516.215 4.64323 511.108 1.42852Z" fill="#16181A"/>
<path d="M523.645 1.42852C521.091 -0.407983 511.572 23.0111 507.787 27.1441C504.003 31.277 498.337 41.8383 499.963 43.0203C500.45 43.3748 501.231 43.2236 502.084 42.8395C504.415 41.7894 506.044 39.6666 506.74 37.2289C509.351 28.0997 525.923 3.06775 523.645 1.42852Z" fill="#16181A"/>
<path d="M527.882 12.3349C528.114 7.97226 530.958 6.82429 530.958 6.82429C530.958 6.82429 531.802 6.20829 532.422 5.35268C533.554 3.79313 531.285 2.00497 529.951 3.39966C529.06 4.33111 527.994 5.69062 527.127 7.51284C525.269 11.4167 512.036 33.5729 512.383 37.2464C512.732 40.92 508.233 43.7264 513.08 43.2198C514.995 43.0197 515.035 31.6864 519.447 26.9792C523.858 22.273 523.858 22.273 523.858 22.273C523.858 22.273 527.65 16.697 527.882 12.3349Z" fill="#16181A"/>
<path d="M565.876 1.42852C563.598 3.06775 580.17 28.0997 582.781 37.2289C583.478 39.6666 585.107 41.7894 587.438 42.8395C588.29 43.2236 589.071 43.3748 589.559 43.0203C591.183 41.8389 585.518 31.2776 581.733 27.1441C577.95 23.0111 568.43 -0.407983 565.876 1.42852Z" fill="#16181A"/>
<path d="M577.137 37.247C577.485 33.5729 564.252 11.4167 562.394 7.51339C561.527 5.69117 560.461 4.33166 559.57 3.40021C558.236 2.00552 555.968 3.79313 557.099 5.35323C557.72 6.20884 558.564 6.82484 558.564 6.82484C558.564 6.82484 561.408 7.9728 561.64 12.3355C561.872 16.6976 565.663 22.2742 565.663 22.2742C565.663 22.2742 565.663 22.2741 570.074 26.9803C574.485 31.6869 574.525 43.0203 576.441 43.2209C581.287 43.727 576.789 40.92 577.137 37.247Z" fill="#16181A"/>
<path d="M544.334 2.01323C540.387 3.39089 517.402 40.3568 522.51 43.5715C527.618 46.7856 562.212 43.5715 562.212 43.5715C574.518 42.6576 548.281 0.636129 544.334 2.01323ZM551.042 14.4017C551.042 14.4017 551.042 15.2622 550.78 19.998C550.59 23.4523 555.448 30.1131 558.091 33.4652C559.162 34.822 559.721 36.4991 559.673 38.2197L559.661 38.6824C559.575 41.868 549.039 43.1594 535.022 41.4377C521.004 39.7155 532.062 28.9531 534.412 24.1316C536.019 20.8355 540.84 15.0859 543.73 11.7772C544.933 10.3995 547.07 10.3391 548.35 11.648L551.042 14.4017Z" fill="#16181A"/>
<path d="M545.513 21.5098C545.513 21.5098 543.815 20.8585 540.333 24.8624C536.85 28.8662 530.538 36.271 537.198 37.003C543.859 37.735 549.605 36.9173 553.218 37.2184C556.832 37.5201 549.431 30.6318 548.952 27.7908C548.473 24.9486 548.037 21.257 545.513 21.5098Z" fill="#16181A"/>
<path d="M622.551 1.42852C617.444 -1.78565 582.85 1.42852 582.85 1.42852C570.544 2.34182 596.78 44.3645 600.727 42.9868C604.674 41.6091 627.659 4.64323 622.551 1.42852Z" fill="#16181A"/>
<path d="M635.089 1.42852C632.535 -0.407983 623.015 23.0111 619.232 27.1441C615.448 31.277 609.782 41.8383 611.407 43.0203C611.895 43.3748 612.675 43.2236 613.528 42.8395C615.859 41.7894 617.487 39.6666 618.185 37.2289C620.795 28.0997 637.368 3.06775 635.089 1.42852Z" fill="#16181A"/>
<path d="M639.326 12.3349C639.558 7.97226 642.403 6.82429 642.403 6.82429C642.403 6.82429 643.246 6.20829 643.867 5.35268C644.999 3.79313 642.729 2.00497 641.396 3.39966C640.505 4.33111 639.439 5.69062 638.572 7.51284C636.715 11.4167 623.48 33.5729 623.829 37.2464C624.177 40.92 619.679 43.7264 624.526 43.2198C626.441 43.0197 626.481 31.6864 630.892 26.9792C635.304 22.273 635.304 22.273 635.304 22.273C635.304 22.273 639.094 16.697 639.326 12.3349Z" fill="#16181A"/>
<path d="M677.32 1.42852C675.042 3.06775 691.614 28.0997 694.225 37.2289C694.922 39.6666 696.551 41.7894 698.881 42.8395C699.735 43.2236 700.514 43.3748 701.002 43.0203C702.628 41.8389 696.962 31.2776 693.178 27.1441C689.393 23.0111 679.874 -0.407983 677.32 1.42852Z" fill="#16181A"/>
<path d="M688.581 37.247C688.929 33.5729 675.695 11.4167 673.837 7.51339C672.97 5.69117 671.904 4.33166 671.013 3.40021C669.68 2.00552 667.411 3.79313 668.543 5.35323C669.164 6.20884 670.007 6.82484 670.007 6.82484C670.007 6.82484 672.851 7.9728 673.083 12.3355C673.316 16.6976 677.106 22.2742 677.106 22.2742C677.106 22.2742 677.106 22.2741 681.517 26.9803C685.928 31.6869 685.969 43.0203 687.884 43.2209C692.731 43.727 688.232 40.92 688.581 37.247Z" fill="#16181A"/>
<path d="M655.778 2.01323C651.831 3.39089 628.846 40.3568 633.954 43.5715C639.062 46.7856 673.656 43.5715 673.656 43.5715C685.961 42.6576 659.725 0.636129 655.778 2.01323ZM662.485 14.4017C662.485 14.4017 662.485 15.2622 662.224 19.998C662.033 23.4523 666.891 30.1131 669.535 33.4652C670.606 34.822 671.164 36.4991 671.117 38.2197L671.105 38.6824C671.018 41.868 660.483 43.1594 646.465 41.4377C632.448 39.7161 643.505 28.9531 645.856 24.1316C647.463 20.8355 652.283 15.0859 655.173 11.7772C656.376 10.3995 658.513 10.3391 659.793 11.648L662.485 14.4017Z" fill="#16181A"/>
<path d="M656.956 21.5098C656.956 21.5098 655.259 20.8585 651.776 24.8624C648.293 28.8662 641.981 36.271 648.642 37.003C655.302 37.735 661.048 36.9173 664.662 37.2184C668.275 37.5201 660.875 30.6318 660.396 27.7908C659.917 24.9486 659.481 21.257 656.956 21.5098Z" fill="#16181A"/>
<path d="M733.995 1.42852C728.888 -1.78565 694.294 1.42852 694.294 1.42852C681.988 2.34182 708.224 44.3645 712.171 42.9868C716.118 41.6091 739.103 4.64323 733.995 1.42852Z" fill="#16181A"/>
<path d="M746.533 1.42852C743.979 -0.407983 734.459 23.0111 730.675 27.1441C726.891 31.277 721.225 41.8383 722.851 43.0203C723.339 43.3748 724.118 43.2236 724.972 42.8395C727.302 41.7894 728.931 39.6666 729.628 37.2289C732.239 28.0997 748.811 3.06775 746.533 1.42852Z" fill="#16181A"/>
<path d="M750.77 12.3349C751.002 7.97226 753.846 6.82429 753.846 6.82429C753.846 6.82429 754.689 6.20829 755.31 5.35268C756.442 3.79313 754.173 2.00497 752.84 3.39966C751.949 4.33111 750.883 5.69062 750.015 7.51284C748.158 11.4167 734.924 33.5729 735.272 37.2464C735.621 40.92 731.122 43.7264 735.969 43.2198C737.884 43.0197 737.925 31.6864 742.336 26.9792C746.747 22.273 746.747 22.273 746.747 22.273C746.747 22.273 750.537 16.697 750.77 12.3349Z" fill="#16181A"/>
<path d="M788.764 1.42852C786.485 3.06775 803.058 28.0997 805.668 37.2289C806.365 39.6666 807.994 41.7894 810.325 42.8395C811.178 43.2236 811.958 43.3748 812.446 43.0203C814.071 41.8389 808.405 31.2776 804.621 27.1441C800.838 23.0111 791.318 -0.407983 788.764 1.42852Z" fill="#16181A"/>
<path d="M800.025 37.247C800.373 33.5729 787.139 11.4167 785.282 7.51339C784.414 5.69117 783.348 4.33166 782.457 3.40021C781.124 2.00552 778.855 3.79313 779.987 5.35323C780.607 6.20884 781.451 6.82484 781.451 6.82484C781.451 6.82484 784.296 7.9728 784.527 12.3355C784.76 16.6976 788.55 22.2742 788.55 22.2742C788.55 22.2742 788.55 22.2741 792.961 26.9803C797.372 31.6869 797.413 43.0203 799.328 43.2209C804.175 43.727 799.676 40.92 800.025 37.247Z" fill="#16181A"/>
<path d="M767.222 2.01323C763.275 3.39089 740.29 40.3568 745.398 43.5715C750.506 46.7856 785.1 43.5715 785.1 43.5715C797.405 42.6576 771.169 0.636129 767.222 2.01323ZM773.929 14.4017C773.929 14.4017 773.929 15.2622 773.668 19.998C773.478 23.4523 778.336 30.1131 780.979 33.4652C782.049 34.822 782.609 36.4991 782.561 38.2197L782.549 38.6824C782.462 41.868 771.927 43.1594 757.909 41.4377C743.891 39.7155 754.949 28.9531 757.299 24.1316C758.906 20.8355 763.727 15.0859 766.617 11.7772C767.821 10.3995 769.958 10.3391 771.237 11.648L773.929 14.4017Z" fill="#16181A"/>
<path d="M768.401 21.5098C768.401 21.5098 766.703 20.8585 763.221 24.8624C759.738 28.8662 753.426 36.271 760.086 37.003C766.746 37.735 772.493 36.9173 776.106 37.2184C779.719 37.5201 772.319 30.6318 771.839 27.7908C771.361 24.9486 770.925 21.257 768.401 21.5098Z" fill="#16181A"/>
<path d="M845.439 1.42852C840.331 -1.78565 805.738 1.42852 805.738 1.42852C793.432 2.34182 819.668 44.3645 823.615 42.9868C827.562 41.6091 850.547 4.64323 845.439 1.42852Z" fill="#16181A"/>
<path d="M857.977 1.42852C855.423 -0.407983 845.903 23.0111 842.119 27.1441C838.335 31.277 832.67 41.8383 834.295 43.0203C834.782 43.3748 835.563 43.2236 836.416 42.8395C838.746 41.7894 840.375 39.6666 841.072 37.2289C843.683 28.0997 860.255 3.06775 857.977 1.42852Z" fill="#16181A"/>
<path d="M862.214 12.3349C862.446 7.97226 865.29 6.82429 865.29 6.82429C865.29 6.82429 866.133 6.20829 866.754 5.35268C867.886 3.79313 865.617 2.00497 864.284 3.39966C863.393 4.33111 862.327 5.69062 861.46 7.51284C859.602 11.4167 846.368 33.5729 846.716 37.2464C847.065 40.92 842.566 43.7264 847.413 43.2198C849.329 43.0197 849.369 31.6864 853.78 26.9792C858.191 22.273 858.191 22.273 858.191 22.273C858.191 22.273 861.982 16.697 862.214 12.3349Z" fill="#16181A"/>
<path d="M900.208 1.42852C897.929 3.06775 914.502 28.0997 917.113 37.2289C917.809 39.6666 919.439 41.7894 921.769 42.8395C922.622 43.2236 923.402 43.3748 923.89 43.0203C925.515 41.8389 919.849 31.2776 916.065 27.1441C912.281 23.0111 902.762 -0.407983 900.208 1.42852Z" fill="#16181A"/>
<path d="M911.469 37.247C911.817 33.5729 898.583 11.4167 896.726 7.51339C895.858 5.69117 894.793 4.33166 893.902 3.40021C892.568 2.00552 890.299 3.79313 891.431 5.35323C892.052 6.20884 892.895 6.82484 892.895 6.82484C892.895 6.82484 895.74 7.9728 895.971 12.3355C896.203 16.6976 899.994 22.2742 899.994 22.2742C899.994 22.2742 899.994 22.2741 904.405 26.9803C908.816 31.6869 908.857 43.0203 910.772 43.2209C915.618 43.727 911.121 40.92 911.469 37.247Z" fill="#16181A"/>
<path d="M878.666 2.01323C874.719 3.39089 851.733 40.3568 856.842 43.5715C861.95 46.7856 896.544 43.5715 896.544 43.5715C908.849 42.6576 882.613 0.636129 878.666 2.01323ZM885.373 14.4017C885.373 14.4017 885.373 15.2622 885.112 19.998C884.921 23.4523 889.78 30.1131 892.423 33.4652C893.493 34.822 894.052 36.4991 894.005 38.2197L893.993 38.6824C893.906 41.868 883.371 43.1594 869.354 41.4377C855.335 39.7155 866.393 28.9531 868.743 24.1316C870.351 20.8355 875.171 15.0859 878.061 11.7772C879.265 10.3995 881.402 10.3391 882.681 11.648L885.373 14.4017Z" fill="#16181A"/>
<path d="M879.845 21.5098C879.845 21.5098 878.147 20.8585 874.665 24.8624C871.182 28.8662 864.87 36.271 871.53 37.003C878.191 37.735 883.937 36.9173 887.55 37.2184C891.163 37.5201 883.763 30.6318 883.283 27.7908C882.805 24.9486 882.37 21.257 879.845 21.5098Z" fill="#16181A"/>
<path d="M957.935 1.42852C952.827 -1.78565 918.233 1.42852 918.233 1.42852C905.927 2.34182 932.163 44.3645 936.11 42.9868C940.057 41.6091 963.042 4.64323 957.935 1.42852Z" fill="#16181A"/>
<path d="M970.472 1.42852C967.918 -0.407983 958.399 23.0111 954.614 27.1441C950.83 31.277 945.165 41.8383 946.79 43.0203C947.278 43.3748 948.057 43.2236 948.911 42.8395C951.241 41.7894 952.871 39.6666 953.567 37.2289C956.179 28.0997 972.751 3.06775 970.472 1.42852Z" fill="#16181A"/>
<path d="M974.709 12.3349C974.941 7.97226 977.785 6.82429 977.785 6.82429C977.785 6.82429 978.629 6.20829 979.249 5.35268C980.381 3.79313 978.112 2.00497 976.779 3.39966C975.888 4.33111 974.822 5.69062 973.954 7.51284C972.097 11.4167 958.863 33.5729 959.211 37.2464C959.56 40.92 955.061 43.7264 959.908 43.2198C961.823 43.0197 961.864 31.6864 966.275 26.9792C970.686 22.273 970.686 22.273 970.686 22.273C970.686 22.273 974.477 16.697 974.709 12.3349Z" fill="#16181A"/>
<path d="M1012.7 1.42852C1010.42 3.06775 1027 28.0997 1029.61 37.2289C1030.3 39.6666 1031.93 41.7894 1034.26 42.8395C1035.12 43.2236 1035.9 43.3748 1036.39 43.0203C1038.01 41.8389 1032.34 31.2776 1028.56 27.1441C1024.78 23.0111 1015.26 -0.407983 1012.7 1.42852Z" fill="#16181A"/>
<path d="M1023.96 37.247C1024.31 33.5729 1011.08 11.4167 1009.22 7.51339C1008.35 5.69117 1007.29 4.33166 1006.4 3.40021C1005.06 2.00552 1002.79 3.79313 1003.93 5.35323C1004.55 6.20884 1005.39 6.82484 1005.39 6.82484C1005.39 6.82484 1008.23 7.9728 1008.47 12.3355C1008.7 16.6976 1012.49 22.2742 1012.49 22.2742C1012.49 22.2742 1012.49 22.2741 1016.9 26.9803C1021.31 31.6869 1021.35 43.0203 1023.27 43.2209C1028.11 43.727 1023.62 40.92 1023.96 37.247Z" fill="#16181A"/>
<path d="M991.161 2.01323C987.214 3.39089 964.229 40.3568 969.338 43.5715C974.445 46.7856 1009.04 43.5715 1009.04 43.5715C1021.34 42.6576 995.109 0.636129 991.161 2.01323ZM997.869 14.4017C997.869 14.4017 997.869 15.2622 997.607 19.998C997.417 23.4523 1002.28 30.1131 1004.92 33.4652C1005.99 34.822 1006.55 36.4991 1006.5 38.2197L1006.49 38.6824C1006.4 41.868 995.866 43.1594 981.848 41.4377C967.831 39.7155 978.888 28.9531 981.239 24.1316C982.846 20.8355 987.666 15.0859 990.556 11.7772C991.76 10.3995 993.897 10.3391 995.176 11.648L997.869 14.4017Z" fill="#16181A"/>
<path d="M992.34 21.5098C992.34 21.5098 990.642 20.8585 987.159 24.8624C983.677 28.8662 977.365 36.271 984.025 37.003C990.685 37.735 996.432 36.9173 1000.05 37.2184C1003.66 37.5201 996.258 30.6318 995.779 27.7908C995.3 24.9486 994.865 21.257 992.34 21.5098Z" fill="#16181A"/>
<path d="M1069.38 1.42852C1064.27 -1.78565 1029.68 1.42852 1029.68 1.42852C1017.37 2.34182 1043.61 44.3645 1047.55 42.9868C1051.5 41.6091 1074.49 4.64323 1069.38 1.42852Z" fill="#16181A"/>
<path d="M1081.92 1.42852C1079.36 -0.407983 1069.84 23.0111 1066.06 27.1441C1062.27 31.277 1056.61 41.8383 1058.23 43.0203C1058.72 43.3748 1059.5 43.2236 1060.35 42.8395C1062.69 41.7894 1064.31 39.6666 1065.01 37.2289C1067.62 28.0997 1084.19 3.06775 1081.92 1.42852Z" fill="#16181A"/>
<path d="M1088.22 3.39968C1087.33 4.33112 1086.27 5.69063 1085.4 7.51285C1083.54 11.4167 1070.31 33.5729 1070.66 37.2465C1071 40.92 1066.51 43.7264 1071.35 43.2198C1073.27 43.0197 1073.31 31.6864 1077.72 26.9792C1082.13 22.2731 1082.13 22.273 1082.13 22.273C1082.13 22.273 1085.92 16.6965 1086.15 12.3344C1086.39 7.9717 1089.23 6.82373 1089.23 6.82373C1089.23 6.82373 1090.07 6.20773 1090.69 5.35212C1091.83 3.79312 1089.56 2.00499 1088.22 3.39968Z" fill="#16181A"/>
</svg>
