<svg width="800" height="40" viewBox="0 0 800 40" fill="none" xmlns="http://www.w3.org/2000/svg">
<path d="M0.625033 32.6668C1.29166 32.6668 2.35837 34.0001 2.8917 35.6001L3.95835 38.6668L4.49167 35.6001C5.29166 31.7334 10.225 31.4668 10.225 35.3334C10.225 36.8001 10.7583 38.0001 11.5583 38.0001C12.225 38.0001 12.8917 36.8001 12.8917 35.3334C12.8917 33.6001 13.825 32.6668 15.5583 32.6668C17.2917 32.6668 18.225 33.6001 18.225 35.3334C18.225 36.8001 18.7583 38.0001 19.5583 38.0001C20.225 38.0001 20.8917 36.8001 20.8917 35.3334C20.8917 33.6001 21.825 32.6668 23.5583 32.6668C25.2917 32.6668 26.225 33.6001 26.225 35.3334C26.225 36.8001 26.7583 38.0001 27.5583 38.0001C28.225 38.0001 28.8917 36.8001 28.8917 35.3334C28.8917 33.6001 29.825 32.6668 31.5583 32.6668C33.2917 32.6668 34.225 33.6001 34.225 35.3334C34.225 36.8001 34.7583 38.0001 35.5583 38.0001C36.225 38.0001 36.8917 36.8001 36.8917 35.3334C36.8917 33.6001 37.825 32.6668 39.5583 32.6668C41.2917 32.6668 42.225 33.6001 42.225 35.3334C42.225 36.8001 42.7583 38.0001 43.5583 38.0001C44.225 38.0001 44.8917 36.8001 44.8917 35.3334C44.8917 31.4668 49.825 31.7334 50.625 35.6001L51.1584 38.6668L51.425 35.6001C51.5583 33.4668 52.3584 32.6668 54.7583 32.6668C57.1584 32.6668 58.225 33.6001 58.625 35.6001L59.1584 38.6668L59.425 35.6001C59.5583 33.6001 60.3584 32.6668 62.225 32.6668C63.825 32.6668 65.425 34.0001 66.225 35.6001L67.425 38.6668V35.6001C67.5583 31.7334 72.8917 31.3334 72.8917 35.3334C72.8917 36.8001 73.425 38.0001 74.225 38.0001C74.8917 38.0001 75.5583 36.8001 75.5583 35.3334C75.5583 33.6001 76.4917 32.6668 78.225 32.6668C79.9583 32.6668 80.8917 33.6001 80.8917 35.3334C80.8917 36.8001 81.425 38.0001 82.225 38.0001C82.8917 38.0001 83.5583 36.8001 83.5583 35.3334C83.5583 33.6001 84.4917 32.6668 86.225 32.6668C87.9583 32.6668 88.8917 33.6001 88.8917 35.3334C88.8917 36.8001 89.425 38.0001 90.225 38.0001C90.8917 38.0001 91.5583 36.8001 91.5583 35.3334C91.5583 33.6001 92.4917 32.6668 94.225 32.6668C95.9583 32.6668 96.8917 33.6001 96.8917 35.3334C96.8917 36.8001 97.425 38.0001 98.225 38.0001C98.8917 38.0001 99.5583 36.8001 99.5583 35.3334C99.5583 33.6001 100.492 32.6668 102.225 32.6668C103.958 32.6668 104.892 33.6001 104.892 35.3334C104.892 36.8001 105.425 38.0001 106.225 38.0001C106.892 38.0001 107.558 36.8001 107.558 35.3334C107.558 33.6001 108.492 32.6668 110.225 32.6668C111.958 32.6668 112.892 33.6001 112.892 35.3334C112.892 36.8001 113.425 38.0001 114.225 38.0001C114.892 38.0001 115.558 36.8001 115.558 35.3334C115.558 31.4668 120.492 31.7334 121.292 35.6001L121.825 38.6668L122.092 35.6001C122.225 33.6001 123.025 32.6668 124.892 32.6668C126.492 32.6668 128.092 34.0001 128.892 35.6001L130.092 38.6668V35.6001C130.225 31.7334 135.558 31.3334 135.558 35.3334C135.558 36.8001 136.092 38.0001 136.892 38.0001C137.558 38.0001 138.225 36.8001 138.225 35.3334C138.225 33.6001 139.158 32.6668 140.892 32.6668C142.625 32.6668 143.558 33.6001 143.558 35.3334C143.558 36.8001 144.092 38.0001 144.892 38.0001C145.558 38.0001 146.225 36.8001 146.225 35.3334C146.225 33.6001 147.158 32.6668 148.892 32.6668C150.625 32.6668 151.558 33.6001 151.558 35.3334C151.558 36.8001 152.092 38.0001 152.892 38.0001C153.558 38.0001 154.225 36.8001 154.225 35.3334C154.225 33.6001 155.158 32.6668 156.892 32.6668C158.625 32.6668 159.558 33.6001 159.558 35.3334C159.558 36.8001 160.092 38.0001 160.892 38.0001C161.558 38.0001 162.225 36.8001 162.225 35.3334C162.225 33.6001 163.158 32.6668 164.892 32.6668C166.625 32.6668 167.558 33.6001 167.558 35.3334C167.558 36.8001 168.092 38.0001 168.892 38.0001C169.558 38.0001 170.225 36.8001 170.225 35.3334C170.225 33.6001 171.158 32.6668 172.892 32.6668C174.625 32.6668 175.558 33.6001 175.558 35.3334C175.558 36.8001 176.092 38.0001 176.892 38.0001C177.558 38.0001 178.225 36.8001 178.225 35.3334C178.225 31.4668 183.158 31.7334 183.958 35.6001L184.492 38.6668L184.758 35.6001C184.892 33.4668 185.692 32.6668 188.092 32.6668C190.492 32.6668 191.558 33.6001 191.958 35.6001L192.492 38.6668L192.758 35.6001C192.892 33.7334 193.692 32.6668 195.425 32.6668C196.758 32.6668 198.358 34.0001 198.892 35.6001L199.958 38.6668L200.492 35.6001C201.292 31.7334 206.225 31.4668 206.225 35.3334C206.225 36.8001 206.758 38.0001 207.558 38.0001C208.225 38.0001 208.892 36.8001 208.892 35.3334C208.892 33.6001 209.825 32.6668 211.558 32.6668C213.292 32.6668 214.225 33.6001 214.225 35.3334C214.225 36.8001 214.758 38.0001 215.558 38.0001C216.225 38.0001 216.892 36.8001 216.892 35.3334C216.892 33.6001 217.825 32.6668 219.558 32.6668C221.292 32.6668 222.225 33.6001 222.225 35.3334C222.225 36.8001 222.758 38.0001 223.558 38.0001C224.225 38.0001 224.892 36.8001 224.892 35.3334C224.892 33.6001 225.825 32.6668 227.558 32.6668C229.292 32.6668 230.225 33.6001 230.225 35.3334C230.225 36.8001 230.758 38.0001 231.558 38.0001C232.225 38.0001 232.892 36.8001 232.892 35.3334C232.892 33.6001 233.825 32.6668 235.558 32.6668C237.292 32.6668 238.225 33.6001 238.225 35.3334C238.225 36.8001 238.758 38.0001 239.558 38.0001C240.225 38.0001 240.892 36.8001 240.892 35.3334C240.892 31.4668 245.825 31.7334 246.625 35.6001L247.158 38.6668L247.425 35.6001C247.558 33.4668 248.358 32.6668 250.758 32.6668C253.158 32.6668 254.225 33.6001 254.625 35.6001L255.158 38.6668L255.425 35.6001C255.558 33.2001 256.225 32.5334 258.492 32.9334C260.625 33.2001 261.425 34.1334 261.158 35.6001C260.892 36.9334 261.425 38.0001 262.225 38.0001C262.892 38.0001 263.558 36.8001 263.558 35.3334C263.558 33.6001 264.492 32.6668 266.225 32.6668C267.958 32.6668 268.892 33.6001 268.892 35.3334C268.892 36.8001 269.425 38.0001 270.225 38.0001C270.892 38.0001 271.558 36.8001 271.558 35.3334C271.558 33.6001 272.492 32.6668 274.225 32.6668C275.958 32.6668 276.892 33.6001 276.892 35.3334C276.892 36.8001 277.425 38.0001 278.225 38.0001C278.892 38.0001 279.558 36.8001 279.558 35.3334C279.558 33.6001 280.492 32.6668 282.225 32.6668C283.958 32.6668 284.892 33.6001 284.892 35.3334C284.892 36.8001 285.425 38.0001 286.225 38.0001C286.892 38.0001 287.558 36.8001 287.558 35.3334C287.558 33.6001 288.492 32.6668 290.225 32.6668C291.958 32.6668 292.892 33.6001 292.892 35.3334C292.892 36.8001 293.425 38.0001 294.225 38.0001C294.892 38.0001 295.558 36.8001 295.558 35.3334C295.558 33.6001 296.492 32.6668 298.225 32.6668C299.958 32.6668 300.892 33.6001 300.892 35.3334C300.892 36.8001 301.425 38.0001 302.225 38.0001C302.892 38.0001 303.558 36.8001 303.558 35.3334C303.558 33.6001 304.492 32.6668 306.225 32.6668C307.958 32.6668 308.892 33.6001 308.892 35.3334C308.892 36.8001 309.558 38.0001 310.225 38.0001C311.025 38.0001 311.425 37.6001 311.425 36.9334C310.625 32.0001 316.358 30.6668 317.292 35.6001L317.825 38.6668L318.092 35.6001C318.225 33.4668 319.025 32.6668 321.425 32.6668C323.958 32.6668 324.892 33.4668 325.292 36.2668L325.825 40.0001L326.092 36.2668C326.225 33.6001 326.892 32.6668 328.892 32.6668C330.625 32.6668 331.558 33.6001 331.558 35.3334C331.558 36.8001 332.092 38.0001 332.892 38.0001C333.558 38.0001 334.225 36.8001 334.225 35.3334C334.225 33.6001 335.158 32.6668 336.892 32.6668C338.625 32.6668 339.558 33.6001 339.558 35.3334C339.558 36.8001 340.092 38.0001 340.892 38.0001C341.558 38.0001 342.225 36.8001 342.225 35.3334C342.225 33.6001 343.158 32.6668 344.892 32.6668C346.625 32.6668 347.558 33.6001 347.558 35.3334C347.558 36.8001 348.092 38.0001 348.892 38.0001C349.558 38.0001 350.225 36.8001 350.225 35.3334C350.225 33.6001 351.158 32.6668 352.892 32.6668C354.625 32.6668 355.558 33.6001 355.558 35.3334C355.558 36.8001 356.092 38.0001 356.892 38.0001C357.558 38.0001 358.225 36.8001 358.225 35.3334C358.225 33.6001 359.158 32.6668 360.892 32.6668C362.625 32.6668 363.558 33.6001 363.558 35.3334C363.558 36.8001 364.092 38.0001 364.892 38.0001C365.558 38.0001 366.225 36.8001 366.225 35.3334C366.225 33.6001 367.158 32.6668 368.892 32.6668C370.625 32.6668 371.558 33.6001 371.558 35.3334C371.558 36.8001 372.225 38.0001 372.892 38.0001C373.692 38.0001 374.092 37.6001 374.092 36.9334C373.292 32.0001 379.025 30.6668 379.958 35.6001L380.492 38.6668L380.758 35.6001C380.892 33.4668 381.692 32.6668 384.092 32.6668C386.492 32.6668 387.558 33.6001 387.958 35.6001L388.492 38.6668L388.758 35.6001C388.892 31.7334 394.225 31.3334 394.225 35.3334C394.225 36.8001 394.758 38.0001 395.558 38.0001C396.225 38.0001 396.892 36.8001 396.892 35.3334C396.892 33.6001 397.825 32.6668 399.558 32.6668C401.292 32.6668 402.225 33.6001 402.225 35.3334C402.225 36.8001 402.758 38.0001 403.558 38.0001C404.225 38.0001 404.892 36.8001 404.892 35.3334C404.892 33.6001 405.825 32.6668 407.558 32.6668C409.292 32.6668 410.225 33.6001 410.225 35.3334C410.225 36.8001 410.758 38.0001 411.558 38.0001C412.225 38.0001 412.892 36.8001 412.892 35.3334C412.892 33.6001 413.825 32.6668 415.558 32.6668C417.292 32.6668 418.225 33.6001 418.225 35.3334C418.225 36.8001 418.758 38.0001 419.558 38.0001C420.225 38.0001 420.892 36.8001 420.892 35.3334C420.892 33.6001 421.825 32.6668 423.558 32.6668C425.292 32.6668 426.225 33.6001 426.225 35.3334C426.225 36.8001 426.758 38.0001 427.558 38.0001C428.225 38.0001 428.892 36.8001 428.892 35.3334C428.892 33.6001 429.825 32.6668 431.558 32.6668C433.292 32.6668 434.225 33.6001 434.225 35.3334C434.225 36.8001 434.758 38.0001 435.558 38.0001C436.225 38.0001 436.892 36.8001 436.892 35.3334C436.892 33.6001 437.825 32.6668 439.558 32.6668C441.425 32.6668 442.225 33.6001 442.225 35.4668C442.225 36.9334 442.758 37.8668 443.558 37.3334C444.225 36.9334 444.492 35.7334 443.958 34.6668C443.425 33.2001 444.225 32.6668 446.625 32.6668C449.158 32.6668 450.225 33.4668 450.625 35.6001L451.158 38.6668L451.425 35.6001C451.558 33.6001 452.358 32.6668 454.225 32.6668C456.625 32.6668 457.558 34.0001 457.025 36.9334C457.025 37.6001 457.558 38.0001 458.225 38.0001C459.025 38.0001 459.558 36.8001 459.558 35.3334C459.558 33.6001 460.492 32.6668 462.225 32.6668C463.958 32.6668 464.892 33.6001 464.892 35.3334C464.892 36.8001 465.425 38.0001 466.225 38.0001C466.892 38.0001 467.558 36.8001 467.558 35.3334C467.558 33.6001 468.492 32.6668 470.225 32.6668C471.958 32.6668 472.892 33.6001 472.892 35.3334C472.892 36.8001 473.425 38.0001 474.225 38.0001C474.892 38.0001 475.558 36.8001 475.558 35.3334C475.558 33.6001 476.492 32.6668 478.225 32.6668C479.958 32.6668 480.892 33.6001 480.892 35.3334C480.892 36.8001 481.425 38.0001 482.225 38.0001C482.892 38.0001 483.558 36.8001 483.558 35.3334C483.558 33.6001 484.492 32.6668 486.225 32.6668C487.958 32.6668 488.892 33.6001 488.892 35.3334C488.892 36.8001 489.425 38.0001 490.225 38.0001C490.892 38.0001 491.558 36.8001 491.558 35.3334C491.558 33.6001 492.492 32.6668 494.225 32.6668C495.958 32.6668 496.892 33.6001 496.892 35.3334C496.892 36.8001 497.425 38.0001 498.225 38.0001C498.892 38.0001 499.558 36.8001 499.558 35.3334C499.558 33.6001 500.492 32.6668 502.225 32.6668C504.092 32.6668 504.892 33.6001 504.892 35.6001C504.892 37.2001 505.292 38.0001 505.825 37.4668C506.492 36.9334 506.892 35.7334 506.892 34.9334C506.892 34.0001 508.225 33.2001 509.825 32.9334C511.958 32.6668 512.892 33.3334 513.292 35.6001L513.825 38.6668L514.092 35.6001C514.225 33.6001 515.025 32.6668 516.892 32.6668C518.492 32.6668 520.092 34.0001 520.892 35.6001L522.092 38.6668V35.6001C522.225 31.7334 527.558 31.3334 527.558 35.3334C527.558 36.8001 528.092 38.0001 528.892 38.0001C529.558 38.0001 530.225 36.8001 530.225 35.3334C530.225 33.6001 531.158 32.6668 532.892 32.6668C534.625 32.6668 535.558 33.6001 535.558 35.3334C535.558 36.8001 536.092 38.0001 536.892 38.0001C537.558 38.0001 538.225 36.8001 538.225 35.3334C538.225 33.6001 539.158 32.6668 540.892 32.6668C542.625 32.6668 543.558 33.6001 543.558 35.3334C543.558 36.8001 544.092 38.0001 544.892 38.0001C545.558 38.0001 546.225 36.8001 546.225 35.3334C546.225 33.6001 547.158 32.6668 548.892 32.6668C550.625 32.6668 551.558 33.6001 551.558 35.3334C551.558 36.8001 552.092 38.0001 552.892 38.0001C553.558 38.0001 554.225 36.8001 554.225 35.3334C554.225 33.6001 555.158 32.6668 556.892 32.6668C558.625 32.6668 559.558 33.6001 559.558 35.3334C559.558 36.8001 560.092 38.0001 560.892 38.0001C561.558 38.0001 562.225 36.8001 562.225 35.3334C562.225 33.6001 563.158 32.6668 564.892 32.6668C566.625 32.6668 567.558 33.6001 567.558 35.3334C567.558 36.8001 568.225 38.0001 568.892 38.0001C569.692 38.0001 570.225 36.9334 569.958 35.6001C569.292 31.8668 575.158 31.7334 575.958 35.6001L576.492 38.6668L576.758 35.6001C576.892 33.4668 577.692 32.6668 580.092 32.6668C582.492 32.6668 583.558 33.6001 583.958 35.6001L584.492 38.6668L584.758 35.6001C584.892 31.7334 590.225 31.3334 590.225 35.3334C590.225 36.8001 590.758 38.0001 591.558 38.0001C592.225 38.0001 592.892 36.8001 592.892 35.3334C592.892 33.6001 593.825 32.6668 595.558 32.6668C597.292 32.6668 598.225 33.6001 598.225 35.3334C598.225 36.8001 598.758 38.0001 599.558 38.0001C600.225 38.0001 600.892 36.8001 600.892 35.3334C600.892 33.6001 601.825 32.6668 603.558 32.6668C605.292 32.6668 606.225 33.6001 606.225 35.3334C606.225 36.8001 606.758 38.0001 607.558 38.0001C608.225 38.0001 608.892 36.8001 608.892 35.3334C608.892 33.6001 609.825 32.6668 611.558 32.6668C613.292 32.6668 614.225 33.6001 614.225 35.3334C614.225 36.8001 614.758 38.0001 615.558 38.0001C616.225 38.0001 616.892 36.8001 616.892 35.3334C616.892 33.6001 617.825 32.6668 619.558 32.6668C621.292 32.6668 622.225 33.6001 622.225 35.3334C622.225 36.8001 622.758 38.0001 623.558 38.0001C624.225 38.0001 624.892 36.8001 624.892 35.3334C624.892 33.6001 625.825 32.6668 627.558 32.6668C629.292 32.6668 630.225 33.6001 630.225 35.3334C630.225 36.8001 630.758 38.0001 631.558 38.0001C632.225 38.0001 632.892 36.8001 632.892 35.3334C632.892 31.3334 638.225 31.7334 638.358 35.6001V38.6668L639.558 35.6001C640.225 34.0001 641.958 32.6668 643.425 32.6668C645.025 32.6668 646.225 33.7334 646.625 35.6001L647.158 38.6668L647.425 35.6001C647.558 33.7334 648.358 32.6668 650.092 32.6668C651.425 32.6668 653.025 34.0001 653.558 35.6001L654.625 38.6668L655.158 35.6001C655.958 31.7334 660.892 31.4668 660.892 35.3334C660.892 36.8001 661.425 38.0001 662.225 38.0001C662.892 38.0001 663.558 36.8001 663.558 35.3334C663.558 33.6001 664.492 32.6668 666.225 32.6668C667.958 32.6668 668.892 33.6001 668.892 35.3334C668.892 36.8001 669.425 38.0001 670.225 38.0001C670.892 38.0001 671.558 36.8001 671.558 35.3334C671.558 33.6001 672.492 32.6668 674.225 32.6668C675.958 32.6668 676.892 33.6001 676.892 35.3334C676.892 36.8001 677.425 38.0001 678.225 38.0001C678.892 38.0001 679.558 36.8001 679.558 35.3334C679.558 33.6001 680.492 32.6668 682.225 32.6668C683.958 32.6668 684.892 33.6001 684.892 35.3334C684.892 36.8001 685.425 38.0001 686.225 38.0001C686.892 38.0001 687.558 36.8001 687.558 35.3334C687.558 33.6001 688.492 32.6668 690.225 32.6668C691.958 32.6668 692.892 33.6001 692.892 35.3334C692.892 36.8001 693.425 38.0001 694.225 38.0001C694.892 38.0001 695.558 36.8001 695.558 35.3334C695.558 31.3334 700.892 31.7334 701.025 35.6001V38.6668L702.225 35.6001C702.892 34.0001 704.625 32.6668 706.092 32.6668C707.692 32.6668 708.892 33.7334 709.292 35.6001L709.825 38.6668L710.092 35.6001C710.225 33.2001 710.892 32.5334 713.158 32.9334C715.158 33.2001 716.092 34.1334 716.092 35.7334C715.958 36.9334 716.358 38.0001 717.025 38.0001C717.692 38.0001 718.225 36.8001 718.225 35.3334C718.225 33.6001 719.158 32.6668 720.892 32.6668C722.625 32.6668 723.558 33.6001 723.558 35.3334C723.558 36.8001 724.092 38.0001 724.892 38.0001C725.558 38.0001 726.225 36.8001 726.225 35.3334C726.225 33.6001 727.158 32.6668 728.892 32.6668C730.625 32.6668 731.558 33.6001 731.558 35.3334C731.558 36.8001 732.092 38.0001 732.892 38.0001C733.558 38.0001 734.225 36.8001 734.225 35.3334C734.225 33.6001 735.158 32.6668 736.892 32.6668C738.625 32.6668 739.558 33.6001 739.558 35.3334C739.558 36.8001 740.092 38.0001 740.892 38.0001C741.558 38.0001 742.225 36.8001 742.225 35.3334C742.225 33.6001 743.158 32.6668 744.892 32.6668C746.625 32.6668 747.558 33.6001 747.558 35.3334C747.558 36.8001 748.092 38.0001 748.892 38.0001C749.558 38.0001 750.225 36.8001 750.225 35.3334C750.225 33.6001 751.158 32.6668 752.892 32.6668C754.625 32.6668 755.558 33.6001 755.558 35.3334C755.558 36.8001 756.092 38.0001 756.892 38.0001C757.558 38.0001 758.225 36.8001 758.225 35.3334C758.225 33.6001 759.158 32.6668 760.892 32.6668C762.625 32.6668 763.558 33.6001 763.558 35.3334C763.558 36.8001 764.092 38.0001 764.892 38.0001C765.558 38.0001 766.225 36.8001 766.225 35.3334C766.225 31.4668 771.158 31.7334 771.958 35.6001L772.492 38.6668L772.758 35.6001C772.892 33.4668 773.692 32.6668 776.092 32.6668C778.492 32.6668 779.558 33.6001 779.958 35.6001L780.492 38.6668L780.758 35.6001C780.892 33.6001 781.692 32.6668 783.558 32.6668C785.958 32.6668 786.892 34.0001 786.358 36.9334C786.358 37.6001 786.892 38.0001 787.558 38.0001C788.358 38.0001 788.892 36.8001 788.892 35.3334C788.892 33.6001 789.825 32.6668 791.558 32.6668C793.292 32.6668 794.225 33.6001 794.225 35.3334C794.225 36.8001 794.758 38.0001 795.558 38.0001C796.225 38.0001 796.892 36.8001 796.892 35.3334C796.892 33.8668 797.425 32.6668 798.225 32.6668C798.892 32.6668 799.558 32.0001 799.558 31.3334C799.558 30.4001 665.558 30.0001 400.358 30.0001C135.558 30.0001 0.758334 30.4001 0.225008 31.3334C-0.175016 32.0001 -0.0416542 32.6668 0.625033 32.6668Z" fill="black"/>
<path d="M4.35836 8.66672C5.15836 8.66672 6.89169 7.46672 8.22502 6.00005L10.625 3.33339L13.825 6.26672L16.8917 9.20005L14.225 12.0001C10.3584 16.1334 10.8917 17.7334 14.8917 14.0001L18.225 10.9334L21.5584 14.0001C25.825 18.0001 27.6917 16.4001 23.5584 12.0001C20.4917 8.80005 20.4917 8.66672 22.8917 6.00005L25.2917 3.33339L28.4917 6.26672C32.7584 10.2667 33.825 8.26672 29.6917 3.86672L26.3584 0.133387L22.4917 3.73339L18.7584 7.33339L15.1584 3.73339L11.5584 5.34058e-05L7.29169 4.40005C4.89169 6.66672 3.55836 8.66672 4.35836 8.66672Z" fill="black"/>
<path d="M40.4916 8.66672C41.025 8.66672 42.625 7.46672 44.225 6.00005L47.1583 3.33339L49.5583 6.00005C51.9583 8.66672 51.9583 8.80005 48.8916 12.0001C44.7583 16.4001 46.625 18.0001 50.8916 14.0001L54.225 10.9334L57.5583 14.0001C59.425 15.7334 60.8916 16.5334 60.8916 15.7334C60.8916 15.0667 59.6916 13.3334 58.225 12.0001L55.5583 9.60005L58.4916 6.40005L61.425 3.33339L64.4916 6.26672C66.0916 7.86672 67.825 8.80005 68.225 8.40005C68.625 8.13339 67.025 6.13339 64.8916 4.00005L60.8916 0.133387L53.425 7.33339L49.825 3.73339L46.3583 0.133387L42.8916 3.33339C39.6916 6.40005 38.625 8.66672 40.4916 8.66672Z" fill="black"/>
<path d="M76.3584 8.66672C77.1584 8.66672 78.8917 7.46672 80.225 6.00005L82.625 3.33339L85.825 6.26672L88.8917 9.20005L86.225 12.0001C82.3583 16.1334 82.8917 17.7334 86.8917 14.0001L90.225 10.9334L93.5583 14.0001C97.825 18.0001 99.6917 16.4001 95.5583 12.0001C92.4917 8.80005 92.4917 8.66672 94.8917 6.00005L97.2917 3.33339L100.492 6.26672C104.758 10.2667 105.825 8.40005 101.558 3.86672L98.225 0.26672L94.4917 3.73339L90.7583 7.33339L87.1583 3.73339L83.5583 5.34058e-05L79.2917 4.40005C76.8917 6.66672 75.5583 8.66672 76.3584 8.66672Z" fill="black"/>
<path d="M113.958 8.66679C114.625 8.66679 116.225 7.46679 117.558 6.00012C119.825 3.46679 120.092 3.46679 122.492 5.46679C125.558 8.40012 125.558 9.46679 122.358 12.2668C120.892 13.4668 120.092 15.0668 120.492 15.7335C120.892 16.2668 122.625 15.4668 124.358 13.8668L127.558 10.9335L130.892 14.0001C132.758 15.7335 134.225 16.5335 134.225 15.7335C134.225 15.0668 133.025 13.3335 131.558 12.0001L128.892 9.60012L131.825 6.40012L134.758 3.33346L137.825 6.26679C139.425 7.86679 141.158 8.80012 141.558 8.40012C141.958 8.13346 140.358 6.13346 138.225 4.00012L134.225 0.133454L126.758 7.33346L123.425 3.86679L120.092 0.533455L116.492 3.86679C112.758 7.33346 112.092 8.66679 113.958 8.66679Z" fill="black"/>
<path d="M149.558 8.66679C150.225 8.66679 151.958 7.46679 153.558 6.00012L156.492 3.33346L158.892 6.00012C161.158 8.53345 161.158 8.80012 159.158 11.0668C155.425 15.0668 156.492 17.6001 160.225 14.0001L163.558 10.9335L166.892 14.0001C168.758 15.7335 170.225 16.5335 170.225 15.7335C170.225 15.0668 169.025 13.3335 167.558 12.0001L164.892 9.60012L167.825 6.40012L170.758 3.33346L173.825 6.26679C175.425 7.86679 177.158 8.80012 177.558 8.40012C177.958 8.13346 176.358 6.13346 174.225 4.00012L170.092 0.133454L166.892 4.00012L163.558 7.73345L159.825 4.26679L156.092 0.666788L152.225 4.66679C150.092 6.80012 148.892 8.66679 149.558 8.66679Z" fill="black"/>
<path d="M186.092 8.66682C187.025 8.66682 188.758 7.46682 190.092 5.86682L192.358 3.06682L195.558 5.73349L198.892 8.40016L195.825 11.6002C191.825 16.0002 192.092 17.8668 196.225 14.0002L199.558 10.8002L203.558 13.7335C208.225 17.2002 208.758 16.1335 204.625 11.7335L201.692 8.66682L207.558 2.80016L209.692 5.73349C210.758 7.33349 212.758 8.66682 213.958 8.66682C215.558 8.66682 215.025 7.60016 211.958 4.40016L207.558 0.13349L200.092 7.33349L196.492 3.73349L192.892 0.000156403L188.625 4.40016C186.225 6.66682 185.025 8.66682 186.092 8.66682Z" fill="black"/>
<path d="M223.158 8.66678C223.825 8.66678 225.558 7.46678 226.892 6.00011L229.292 3.33345L232.492 6.26678L235.558 9.20011L232.892 12.0001C229.025 16.1334 229.558 17.7334 233.558 14.0001L236.892 10.9334L240.225 14.0001C243.025 16.5334 243.558 16.8001 243.558 14.9334C243.558 13.7334 243.025 12.6668 242.358 12.6668C239.958 12.6668 239.558 8.26678 241.692 5.73345C243.958 3.33345 244.092 3.33345 246.892 6.00011C251.425 10.2668 252.492 9.06678 248.225 4.66678L244.358 0.66678L236.892 7.86678L229.425 0.66678L225.558 4.66678C223.425 6.80011 222.358 8.66678 223.158 8.66678Z" fill="black"/>
<path d="M258.225 8.66677C259.158 8.66677 261.292 7.46677 262.892 6.0001L265.825 3.33344L268.225 6.0001C270.625 8.66677 270.625 8.80011 267.558 12.0001C265.825 13.8668 264.892 15.7334 265.558 16.2668C266.092 16.9334 266.892 16.5334 267.158 15.6001C267.558 14.6668 269.025 13.3334 270.492 12.5334C272.625 11.3334 273.692 11.7334 276.358 14.1334C280.358 17.8668 280.625 16.0001 276.625 11.7334L273.692 8.66677L276.758 5.86677L279.692 3.06677L283.025 6.13344C284.758 7.73344 286.492 8.80011 286.892 8.40011C287.292 8.13344 285.692 6.13344 283.558 4.0001L279.558 0.133438L272.092 7.33344L268.492 3.73344L264.892 0.000104904L260.625 4.40011C257.958 6.93344 257.025 8.66677 258.225 8.66677Z" fill="black"/>
<path d="M295.292 8.6668C295.958 8.6668 297.558 7.4668 298.892 6.00014L301.292 3.33347L304.492 6.2668L307.558 9.20014L304.892 12.0001C301.025 16.1335 301.558 17.7335 305.558 14.0001L308.892 10.9335L312.092 13.8668C314.092 15.7335 315.558 16.4001 316.225 15.4668C316.625 14.6668 316.492 14.0001 315.692 14.0001C314.892 14.0001 313.692 12.8001 312.892 11.2001C311.692 9.0668 311.825 7.8668 313.692 5.8668C315.958 3.33347 316.092 3.33347 319.158 6.2668C320.758 7.8668 322.625 8.80014 323.025 8.2668C323.558 7.8668 322.092 6.00014 320.092 4.13347L316.225 0.800138L312.892 4.00014L309.425 7.20014L305.558 4.00014L301.692 0.666804L297.958 4.2668C293.958 8.13347 293.558 8.6668 295.292 8.6668Z" fill="black"/>
<path d="M332.492 8.66672C333.025 8.66672 334.625 7.46672 336.225 6.00005L339.158 3.33339L341.558 6.00005C343.958 8.66672 343.958 8.80005 340.892 12.0001C336.758 16.4001 338.625 18.0001 342.892 14.0001L346.225 10.9334L349.558 14.0001C351.425 15.7334 352.892 16.5334 352.892 15.7334C352.892 15.0667 351.692 13.3334 350.225 12.0001L347.558 9.60005L350.492 6.40005L353.425 3.33339L356.492 6.26672C358.092 7.86672 359.825 8.80005 360.225 8.40005C360.625 8.13339 359.025 6.13339 356.892 4.00005L352.892 0.133387L345.425 7.33339L341.958 3.73339L338.358 0.26672L335.025 3.46672C331.692 6.66672 330.625 8.66672 332.492 8.66672Z" fill="black"/>
<path d="M367.025 8.66678C367.825 8.66678 369.558 7.46678 370.892 6.00011L373.292 3.33345L376.492 6.26678L379.558 9.20011L376.892 12.0001C373.025 16.1334 373.558 17.7334 377.558 14.0001L380.892 10.9334L384.225 14.0001C388.492 18.0001 389.825 16.8001 386.092 12.1334C383.425 8.66678 383.292 8.40011 385.692 5.86678C387.958 3.33345 388.092 3.33345 391.158 6.26678C395.558 10.4001 396.892 8.00011 392.492 3.73345L388.892 0.133446L381.292 7.46678L377.692 3.73345L374.092 0.133446L369.825 4.40011C367.558 6.80011 366.225 8.66678 367.025 8.66678Z" fill="black"/>
<path d="M404.492 8.66672C405.025 8.66672 406.625 7.46672 408.225 6.00005L411.158 3.33339L413.558 6.00005C415.958 8.66672 415.958 8.80005 412.892 12.0001C408.758 16.4001 410.625 18.0001 414.892 14.0001L418.225 10.9334L421.558 14.0001C423.425 15.7334 424.892 16.5334 424.892 15.7334C424.892 15.0667 423.692 13.3334 422.225 12.0001L419.558 9.60005L422.492 6.40005L425.425 3.33339L428.492 6.26672C430.092 7.86672 431.825 8.80005 432.225 8.40005C432.625 8.13339 431.025 6.13339 428.892 4.00005L424.892 0.133387L417.425 7.33339L413.825 3.73339L410.358 0.133387L406.892 3.33339C403.692 6.40005 402.625 8.66672 404.492 8.66672Z" fill="black"/>
<path d="M440.225 8.66672C440.892 8.66672 442.758 7.46672 444.358 5.86672L447.292 3.20005L450.092 6.13339L452.892 9.20005L450.225 12.0001C446.358 16.1334 446.892 17.7334 450.892 14.0001L454.225 10.9334L457.558 14.0001C461.825 18.0001 463.692 16.4001 459.558 12.0001C456.492 8.80005 456.492 8.66672 458.892 6.00005L461.292 3.33339L464.492 6.26672C468.892 10.4001 470.225 8.00005 465.825 3.73339L462.225 0.133387L454.758 7.33339L451.158 3.73339L447.558 5.34058e-05L443.292 4.40005C440.892 6.66672 439.558 8.66672 440.225 8.66672Z" fill="black"/>
<path d="M476.492 8.66679C477.025 8.66679 478.625 7.46679 480.225 6.00012L483.158 3.33346L485.558 6.00012C487.958 8.66679 487.958 8.80012 485.158 11.7335C481.292 15.8668 483.158 17.6001 487.158 13.7335L490.225 10.9335L493.558 14.0001C495.425 15.7335 496.892 16.5335 496.892 15.7335C496.892 15.0668 495.692 13.3335 494.225 12.0001L491.558 9.60012L494.492 6.40012L497.425 3.33346L500.492 6.26679C502.092 7.86679 503.825 8.80012 504.225 8.40012C504.625 8.13346 503.025 6.13346 500.892 4.00012L496.892 0.133454L489.425 7.33346L485.825 3.73345L482.358 0.133454L478.892 3.33346C475.692 6.40012 474.625 8.66679 476.492 8.66679Z" fill="black"/>
<path d="M512.225 8.66678C512.892 8.66678 514.758 7.33345 516.492 5.86678L519.425 2.93345L522.092 6.13345C524.625 9.33345 524.625 9.33345 522.092 12.1334C518.358 16.1334 519.025 17.7334 522.892 14.0001C525.692 11.3334 526.492 11.2001 528.492 12.8001C529.825 13.8668 531.292 15.2001 531.825 16.0001C532.358 16.6668 533.158 16.8001 533.692 16.2668C534.225 15.7334 533.292 13.8668 531.558 12.0001C528.492 8.80011 528.492 8.66678 530.892 6.00011L533.292 3.33345L536.225 6.00011C541.025 10.5334 543.292 9.06678 538.625 4.40011L534.225 0.133446L526.758 7.33345L523.158 3.73345L519.558 0.000112534L515.292 4.40011C512.892 6.66678 511.558 8.66678 512.225 8.66678Z" fill="black"/>
<path d="M549.825 8.6668C550.492 8.6668 552.225 7.4668 553.558 6.00014L555.958 3.33347L559.158 6.2668L562.225 9.20014L559.558 12.0001C555.692 16.1335 556.225 17.7335 560.225 14.0001L563.558 10.9335L566.892 14.0001C568.758 15.7335 570.225 16.5335 570.225 15.7335C570.225 14.9335 569.292 13.6001 568.225 12.6668C565.558 10.4001 565.692 8.2668 568.625 5.4668C571.025 3.4668 571.292 3.4668 573.558 6.00014C574.892 7.4668 576.625 8.6668 577.292 8.6668C578.092 8.6668 577.025 6.80014 574.892 4.6668L571.025 0.666804L563.558 7.8668L556.092 0.666804L552.225 4.6668C550.092 6.80014 549.025 8.6668 549.825 8.6668Z" fill="black"/>
<path d="M584.225 8.66682C584.892 8.66682 586.758 7.46682 588.358 5.86682L591.292 3.06682L597.158 8.93349L594.092 12.1335C592.492 13.8668 591.425 15.6002 591.825 16.0002C592.092 16.4002 593.558 15.4668 594.892 14.0002C597.958 10.6668 598.758 10.6668 602.225 14.2668C603.692 15.8668 605.292 16.6668 605.825 16.2668C606.225 15.7335 605.292 13.8668 603.558 12.0002L600.358 8.66682L606.225 2.80016L608.358 5.73349C609.425 7.33349 611.425 8.66682 612.625 8.66682C614.225 8.66682 613.692 7.60016 610.625 4.40016L606.225 0.13349L598.758 7.33349L595.158 3.73349L591.558 0.000156403L587.292 4.40016C584.892 6.66682 583.558 8.66682 584.225 8.66682Z" fill="black"/>
<path d="M621.825 8.66679C622.492 8.66679 624.225 7.46679 625.558 6.00012C627.825 3.46679 628.092 3.46679 630.492 5.46679C633.425 8.26679 633.558 10.4001 630.892 12.6668C629.825 13.6001 628.892 14.9335 628.892 15.7335C628.892 16.5335 630.358 15.7335 632.225 14.0001L635.558 10.9335L638.892 14.0001C640.758 15.7335 642.225 16.5335 642.225 15.7335C642.225 14.9335 641.292 13.6001 640.225 12.6668C637.558 10.4001 637.692 8.26679 640.625 5.46679C643.025 3.46679 643.292 3.46679 645.558 6.00012C646.892 7.46679 648.625 8.66679 649.292 8.66679C650.092 8.66679 649.025 6.80012 646.892 4.66679L643.025 0.66679L635.558 7.86679L628.092 0.66679L624.225 4.66679C622.092 6.80012 621.025 8.66679 621.825 8.66679Z" fill="black"/>
<path d="M659.158 8.66672C659.692 8.66672 661.292 7.46672 662.892 6.00005L665.825 3.33339L668.225 6.00005C670.625 8.66672 670.625 8.80005 667.558 12.0001C663.425 16.4001 665.292 18.0001 669.558 14.0001L672.892 10.9334L676.225 14.0001C678.092 15.7334 679.558 16.5334 679.558 15.7334C679.558 15.0667 678.358 13.3334 676.892 12.0001L674.225 9.60005L677.158 6.40005L680.092 3.33339L683.158 6.26672C684.758 7.86672 686.492 8.80005 686.892 8.40005C687.292 8.13339 685.692 6.13339 683.558 4.00005L679.558 0.133387L672.092 7.33339L668.492 3.73339L665.025 0.133387L661.558 3.33339C658.358 6.40005 657.292 8.66672 659.158 8.66672Z" fill="black"/>
<path d="M693.958 8.6668C694.625 8.6668 696.225 7.4668 697.558 6.00014L699.958 3.33347L703.158 6.2668L706.225 9.20014L703.558 12.0001C699.692 16.1335 700.225 17.7335 704.225 14.0001L707.558 10.9335L710.892 14.0001C712.758 15.7335 714.225 16.5335 714.225 15.7335C714.225 14.9335 713.292 13.6001 712.225 12.6668C709.558 10.4001 709.692 8.2668 712.625 5.4668C715.025 3.4668 715.292 3.4668 717.558 6.00014C718.892 7.4668 720.625 8.6668 721.292 8.6668C722.092 8.6668 721.025 6.80014 718.892 4.6668L715.025 0.666804L711.292 4.2668L707.558 7.73347L704.225 4.00014L700.758 0.400137L696.758 4.13347C692.625 8.13347 692.225 8.6668 693.958 8.6668Z" fill="black"/>
<path d="M731.158 8.66672C731.692 8.66672 733.292 7.46672 734.892 6.00005L737.825 3.33339L740.225 6.00005C742.625 8.66672 742.625 8.80005 739.558 12.0001C735.425 16.4001 737.292 18.0001 741.558 14.0001L744.892 10.9334L748.225 14.0001C750.092 15.7334 751.558 16.5334 751.558 15.7334C751.558 15.0667 750.358 13.3334 748.892 12.0001L746.225 9.60005L749.158 6.40005L752.092 3.33339L755.158 6.26672C756.758 7.86672 758.492 8.80005 758.892 8.40005C759.292 8.13339 757.692 6.13339 755.558 4.00005L751.558 0.133387L744.092 7.33339L740.492 3.73339L737.025 0.133387L733.558 3.33339C730.358 6.40005 729.292 8.66672 731.158 8.66672Z" fill="black"/>
<path d="M767.025 8.66672C767.825 8.66672 769.558 7.46672 770.892 6.00005L773.292 3.33339L776.492 6.26672L779.558 9.20005L776.892 12.0001C773.025 16.1334 773.558 17.7334 777.558 14.0001L780.892 10.9334L784.225 14.0001C788.492 18.0001 790.358 16.4001 786.225 12.0001C783.158 8.80005 783.158 8.66672 785.558 6.00005L787.958 3.33339L791.158 6.26672C795.558 10.4001 796.892 8.00005 792.492 3.73339L788.892 0.133387L781.425 7.33339L777.825 3.73339L774.225 5.34058e-05L769.958 4.40005C767.558 6.66672 766.225 8.66672 767.025 8.66672Z" fill="black"/>
</svg>
