<svg width="864" height="92" viewBox="0 0 864 92" fill="none" xmlns="http://www.w3.org/2000/svg">
<path d="M0.543713 44.3829C1.39314 43.3547 1.71167 43.2465 2.66727 43.7876C3.94141 44.4911 4.20686 45.9522 3.19816 46.9804C1.34005 48.8744 -1.10205 46.4392 0.543713 44.3829Z" fill="black"/>
<path d="M5.90693 38.8735C6.21588 38.7196 7.70917 39.746 9.20245 41.2343L11.9316 43.9544L13.4763 42.7227C16.5659 40.2079 16.5659 39.9 13.3219 36.6153C11.3651 34.6138 10.5927 33.536 11.0047 33.2794C11.3651 33.0228 12.7554 33.9979 14.5577 35.7942L17.5442 38.7196L19.7069 36.564L21.9211 34.4598L18.986 31.4831C17.2868 29.7381 16.2054 28.2498 16.4114 27.9419C16.7719 27.2747 19.6039 29.5842 22.4875 32.8688L24.0323 34.6138L18.6771 40.0026L13.3219 45.3401L18.6256 50.6263C21.5092 53.5004 23.8778 56.1178 23.8778 56.3744C23.8778 57.1443 17.5442 63.303 16.7719 63.303C15.536 63.303 16.2054 61.9686 18.986 59.1972L21.8181 56.3231L17.6987 52.32L14.6092 55.348C12.086 57.8628 11.4166 58.2734 11.0047 57.6575C10.6442 57.093 11.2107 56.1692 13.4763 53.911L16.4114 50.9856L14.1972 48.8301L12.0345 46.6232L9.30543 49.3433C6.7823 51.8068 5.34051 52.6279 5.34051 51.5501C5.34051 51.2935 6.47334 49.9078 7.91514 48.4195C9.30543 46.9311 10.4898 45.5967 10.4898 45.3915C10.4898 45.1862 9.30543 43.9031 7.91514 42.5174C5.18603 39.8486 4.98006 39.4381 5.90693 38.8735Z" fill="black"/>
<path d="M25.4641 41.9727L28.8032 38.6885L32.0396 41.8701L35.2759 45.103L42.9302 44.7951L43.2384 37.3029L40.0534 33.9674L36.817 30.6318L40.1048 27.3476C41.9541 25.5002 43.5466 24.0121 43.7007 24.0121C44.1117 24.0121 50.379 30.2726 50.379 30.7345C50.379 30.8884 49.0947 32.3766 47.5536 33.9674L44.7282 36.8411V45.0517H52.5365L55.0023 42.5885C59.1634 38.4319 58.6497 38.4832 61.9888 41.9727C63.684 43.7175 65.1224 45.3596 65.2251 45.6675C65.4306 46.2833 59.6771 52.2359 58.8552 52.2359C58.5469 52.2359 57.0572 50.953 55.516 49.4135L52.742 46.5912H44.7282V54.5965L47.5536 57.3675C49.0947 58.907 50.379 60.3952 50.379 60.6518C50.379 61.3702 44.6768 67.1176 43.9576 67.1176C43.6494 67.1176 41.9541 65.6808 40.2075 63.9873L36.9712 60.8057L38.6664 59.0097C39.5911 58.0347 41.0295 56.5978 41.8 55.7767C43.1357 54.3912 43.2384 54.0833 43.0843 50.5938L42.9302 46.8477L34.9677 46.5398L32.1423 49.2596C30.6012 50.7478 29.1114 51.9794 28.8032 51.9794C28.2895 51.9794 22.125 46.1293 22.125 45.6161C22.125 45.4109 23.6147 43.7688 25.4641 41.9727ZM33.4266 45.8727L28.8032 41.2543L24.1798 45.7701L28.8032 50.3885L33.4266 45.8727ZM41.8 33.1463L44.009 35.3016L48.5296 30.6832L44.009 26.0647L41.8 28.22C40.5671 29.4003 39.5911 30.5292 39.5911 30.6832C39.5911 30.8371 40.5671 31.9661 41.8 33.1463ZM41.6459 63.2689L43.7007 65.2702L48.3241 60.7544L43.7007 56.136L41.6459 58.1373C40.5157 59.2149 39.5911 60.3952 39.5911 60.7031C39.5911 61.011 40.5157 62.1913 41.6459 63.2689ZM56.6976 48.028L58.9065 50.1833L63.4272 45.5648L61.4237 43.5122C60.3449 42.3832 59.1634 41.4595 58.9065 41.4595C58.3414 41.4595 54.4886 45.0517 54.4886 45.5648C54.4886 45.7188 55.4647 46.8477 56.6976 48.028Z" fill="black"/>
<path d="M28.9085 44.9165C29.7732 44.4079 30.7395 45.5778 30.0275 46.2898C29.4171 46.9002 28.349 46.4933 28.349 45.7303C28.349 45.476 28.6033 45.12 28.9085 44.9165Z" fill="black"/>
<path d="M43.6076 30.4717C43.9636 29.8614 44.2179 29.8614 44.7265 30.37C45.1843 30.8278 45.1843 31.133 44.7265 31.5907C43.9128 32.4045 42.9972 31.489 43.6076 30.4717Z" fill="black"/>
<path d="M43.455 60.2769C44.0654 59.6665 45.1335 59.9717 45.1335 60.7346C45.1335 61.1415 44.8283 61.4975 44.4214 61.4975C43.5568 61.4975 42.9973 60.7855 43.455 60.2769Z" fill="black"/>
<path d="M58.6628 45.0691C59.1714 44.6114 59.8834 45.1709 59.8834 46.0355C59.8834 46.4424 59.5274 46.7476 59.1205 46.7476C58.3576 46.7476 58.0524 45.6795 58.6628 45.0691Z" fill="black"/>
<path d="M42.0954 16.5823C43.1088 14.7369 45.7758 15.7435 45.7758 17.9244C45.7758 18.4277 45.2957 19.1546 44.6557 19.4902C43.8022 19.9934 43.3222 19.9375 42.5221 19.1546C41.3486 18.0362 41.3486 17.9244 42.0954 16.5823Z" fill="black"/>
<path d="M42.0954 72.5702C43.1088 70.8926 45.7758 71.8076 45.7758 73.7902C45.7758 74.2478 45.2957 74.9086 44.6557 75.2137C43.8022 75.6712 43.3222 75.6204 42.5221 74.9086C41.3486 73.8919 41.3486 73.7902 42.0954 72.5702Z" fill="black"/>
<path d="M68.4602 31.2785C70.2031 29.5389 71.9461 28.1063 72.305 28.1063C73.5353 28.1063 72.8689 29.3854 70.2544 32.0459L67.5887 34.7576L71.5873 38.8507L74.5606 35.9344C76.8675 33.632 77.6364 33.1204 78.1491 33.632C78.6617 34.1436 78.1491 34.9111 75.8422 37.2135L72.9201 40.181L77.2776 44.4276L92.2467 29.4366L107.267 14.4967L102.858 10.199L100.09 13.013C97.3731 15.7247 95.989 16.4921 95.989 15.213C95.989 14.8549 97.2706 13.3199 98.8085 11.7339L101.628 8.86869L97.5269 4.87791L94.7586 7.5896C92.7081 9.63615 91.734 10.2501 91.0676 9.9943C90.2986 9.68731 90.76 9.02219 93.8359 5.95235L97.5269 2.26856L102.807 7.53843C105.678 10.4036 108.292 12.7571 108.549 12.7571C108.856 12.7571 111.368 10.4036 114.136 7.5896L119.212 2.47321L122.749 5.95235C124.646 7.84542 126.235 9.58499 126.235 9.78964C126.235 10.8129 124.697 9.94313 122.39 7.64076C121.006 6.25934 119.622 5.08257 119.314 5.08257C118.596 5.08257 115.469 8.25473 115.469 8.97102C115.469 9.22684 116.597 10.6083 118.033 11.9897C120.339 14.2409 121.211 15.827 120.237 15.827C120.032 15.827 118.545 14.4967 116.905 12.9106L113.931 9.94314L111.778 12.1432L109.574 14.2921L139.82 44.4787L141.717 42.5857C142.793 41.5624 143.665 40.4368 143.665 40.1298C143.665 39.8228 142.485 38.4414 141.101 37.06C138.743 34.7576 137.923 33.2227 138.948 33.2227C139.205 33.2227 140.691 34.5529 142.28 36.139L145.202 39.1065L147.356 36.9065L149.56 34.7576L146.587 31.7901C144.997 30.1529 143.665 28.6691 143.665 28.4644C143.665 27.39 145.305 28.4644 148.278 31.432L151.559 34.7064L150.534 35.832C150.021 36.446 147.868 38.5437 145.818 40.5903C143.818 42.5857 142.127 44.3764 142.127 44.5811C142.127 44.8369 144.28 44.9904 146.843 44.9904H151.559L158.018 38.6461L161.248 41.8182L164.478 45.0415L172.116 44.7346L172.424 37.1111L165.964 30.6645L169.399 27.2365L172.834 23.8597L174.628 25.4458C175.653 26.3156 177.191 27.8505 178.063 28.8738L179.652 30.6645L178.575 32.0971C178.011 32.9157 176.73 34.1948 175.705 34.9623L173.91 36.3437V44.9904H181.702L184.83 41.9205L187.957 38.7995L191.443 42.2787L194.929 45.7067L191.75 48.93C190.007 50.7207 188.316 52.1533 188.008 52.1533C187.7 52.1533 186.214 50.8742 184.676 49.3393L181.908 46.5253H173.91V54.5069L176.73 57.2697C178.268 58.8046 179.549 60.2884 179.549 60.5442C179.549 61.2605 173.808 66.9908 173.141 66.9908C172.834 66.9908 171.193 65.5582 169.45 63.8187L166.272 60.5953L169.297 57.3209L172.372 54.0464V46.5253H164.17L161.351 49.3393C159.761 50.8742 158.326 52.1533 158.121 52.1533C157.916 52.1533 156.429 50.8742 154.789 49.3393L151.867 46.5253H141.87L146.638 51.2835C149.201 53.8929 151.354 56.2464 151.354 56.5022C151.354 56.8092 149.867 58.5488 148.022 60.3395C145.408 62.9489 144.587 63.5117 144.075 63C143.562 62.4884 144.075 61.721 146.382 59.4186L149.304 56.4511L145.202 52.4603L142.485 55.1208C139.82 57.7302 138.538 58.3953 138.538 57.1674C138.538 56.8092 139.768 55.3255 141.204 53.8417L143.921 51.13L139.563 46.7811L124.594 61.7721L109.574 76.712L113.931 81.0609L116.648 78.3492C118.135 76.9166 119.622 75.6887 119.981 75.6887C121.211 75.6887 120.544 76.9678 117.93 79.6283L115.264 82.34L119.263 86.4331L122.236 83.5168C124.543 81.2144 125.312 80.7027 125.825 81.2144C126.337 81.726 125.773 82.5446 123.159 85.154C121.365 86.9959 119.622 88.4796 119.314 88.4796C119.058 88.4796 116.443 86.1261 113.573 83.2609L108.292 77.9911L103.012 83.2609C100.141 86.1261 97.5781 88.4796 97.3731 88.4796C97.1168 88.4796 95.425 86.9447 93.6308 85.0517C91.3239 82.6981 90.4524 81.5214 90.8625 81.1121C91.2214 80.7539 92.2979 81.5214 94.451 83.6191L97.5269 86.6889L99.68 84.54L101.782 82.3911L98.911 79.526C97.3218 77.8887 95.989 76.405 95.989 76.1492C95.989 75.0747 97.4756 75.8933 99.8338 78.2469C101.218 79.6795 102.602 80.8051 102.91 80.8051C103.217 80.8051 104.345 79.9353 105.37 78.8608L107.267 76.9678L77.0212 46.7811L74.8682 48.9812L72.6638 51.13L75.7396 54.1999C77.8415 56.2976 78.6104 57.4232 78.2516 57.7813C77.8927 58.1395 76.97 57.6278 75.3808 56.1441C71.1771 52.1533 71.536 52.3068 69.588 54.1999C68.6139 55.172 67.7937 56.1953 67.7937 56.5022C67.7937 56.8092 68.9215 58.1906 70.3569 59.5721C72.7151 61.8744 73.5353 63.4094 72.4587 63.4094C72.2537 63.4094 70.5107 61.9256 68.6139 60.0837C65.7431 57.372 65.2818 56.6557 65.6919 55.8883C65.9995 55.3766 68.3064 52.9208 70.8696 50.4137C73.3815 47.9067 75.4833 45.7067 75.4833 45.5532C75.4833 45.3485 73.1764 42.9438 70.3569 40.1298C67.5374 37.3158 65.2305 34.9111 65.2305 34.7576C65.2305 34.6041 66.6659 33.018 68.4602 31.2785ZM93.5283 60.6977L108.549 75.6887L123.261 61.0047C131.412 52.8696 138.025 46.0648 138.025 45.7578C138.025 45.4509 131.31 38.5437 123.159 30.4087L108.292 15.5712L93.4258 30.4087C85.2235 38.5437 78.5592 45.3485 78.5592 45.502C78.5592 45.6555 85.326 52.5115 93.5283 60.6977ZM162.632 45.809L158.018 41.2043L153.405 45.7067L158.018 50.3114L162.632 45.809ZM170.988 33.1204L173.193 35.2692L177.704 30.6645L173.193 26.0597L170.988 28.2086C169.758 29.3854 168.784 30.511 168.784 30.6645C168.784 30.818 169.758 31.9436 170.988 33.1204ZM170.835 63.1535L172.885 65.1489L177.499 60.6465L172.885 56.0418L170.835 58.0372C169.707 59.1116 168.784 60.2884 168.784 60.5953C168.784 60.9023 169.707 62.0791 170.835 63.1535ZM185.855 47.9579L188.059 50.1068L192.57 45.502L190.571 43.4555C189.495 42.3299 188.316 41.4089 188.059 41.4089C187.495 41.4089 183.651 44.9904 183.651 45.502C183.651 45.6555 184.625 46.7811 185.855 47.9579Z" fill="black"/>
<path d="M97.3689 34.438L108.145 23.6306L118.922 34.438C124.823 40.3564 129.698 45.4513 129.698 45.7601C129.698 46.532 109.018 67.1176 108.248 67.1176C107.581 67.1176 86.5926 46.3262 86.5926 45.6572C86.5926 45.3998 91.4163 40.3564 97.3689 34.438ZM97.8821 45.8115L93.2637 41.1798L88.6452 45.7086L93.2637 50.3404L97.8821 45.8115ZM97.2663 42.5693L99.7808 45.0396L107.376 44.7308L107.683 37.0112L102.501 31.9163L98.6518 35.7246C96.5479 37.8346 94.8031 39.6873 94.8031 39.8417C94.8031 39.9961 95.9321 41.2313 97.2663 42.5693ZM98.6518 55.7955L102.552 59.6553L107.683 54.2002L107.376 46.7894L99.319 46.4806L97.0611 48.6935C95.8295 49.8772 94.8031 51.1123 94.8031 51.4211C94.8031 51.7299 96.5479 53.6855 98.6518 55.7955ZM106.247 33.0485L108.453 35.21L112.969 30.5782L108.453 25.9465L106.247 28.108C105.015 29.2916 104.04 30.4238 104.04 30.5782C104.04 30.7326 105.015 31.8648 106.247 33.0485ZM106.093 63.2578L108.145 65.2649L112.764 60.7361L108.145 56.1043L106.093 58.1114C104.964 59.1922 104.04 60.3758 104.04 60.6846C104.04 60.9934 104.964 62.1771 106.093 63.2578ZM116.92 44.9881L122.206 39.7903L118.409 35.9819C116.305 33.8719 114.406 32.1221 114.201 32.1221C113.944 32.1221 112.764 33.1 111.481 34.2836L109.172 36.4966V44.9881H116.92ZM113.995 59.398L122.001 51.4726L117.177 46.532H109.172V54.4575L113.995 59.398ZM121.128 47.973L123.335 50.1345L127.799 45.5542L125.798 43.4957C124.72 42.312 123.591 41.3856 123.335 41.3856C122.77 41.3856 118.922 44.9881 118.922 45.5028C118.922 45.6572 119.897 46.7894 121.128 47.973Z" fill="black"/>
<path d="M92.842 45.0183C93.0455 44.9165 93.5541 44.9674 93.961 45.2217C94.5205 45.5777 94.5713 45.8321 94.1136 46.2898C93.8084 46.595 93.2998 46.6967 92.9946 46.5441C92.3334 46.1372 92.2825 45.3743 92.842 45.0183Z" fill="black"/>
<path d="M107.745 30.1666C108.457 29.7597 109.423 30.7261 109.016 31.4381C108.813 31.7433 108.457 31.9976 108.202 31.9976C107.541 31.9976 107.185 30.5226 107.745 30.1666Z" fill="black"/>
<path d="M107.541 60.2769C108.151 59.6665 109.22 59.9717 109.22 60.7346C109.22 61.1415 108.914 61.4975 108.508 61.4975C107.643 61.4975 107.083 60.7855 107.541 60.2769Z" fill="black"/>
<path d="M122.749 45.0691C123.257 44.6114 123.97 45.1709 123.97 46.0355C123.97 46.4424 123.614 46.7476 123.207 46.7476C122.444 46.7476 122.139 45.6795 122.749 45.0691Z" fill="black"/>
<path d="M157.081 44.9165C157.793 44.5096 158.657 45.8321 158.047 46.4424C157.589 46.9002 156.521 46.4424 156.521 45.7303C156.521 45.476 156.776 45.12 157.081 44.9165Z" fill="black"/>
<path d="M172.39 30.1157C172.746 30.2174 173.051 30.6243 173.051 30.9804C173.051 31.3364 172.746 31.7433 172.39 31.8959C172.034 31.9976 171.78 31.6416 171.78 30.9804C171.78 30.3191 172.034 29.9631 172.39 30.1157Z" fill="black"/>
<path d="M171.627 60.2769C172.238 59.6665 173.306 59.9717 173.306 60.7346C173.306 61.1415 173.001 61.4975 172.594 61.4975C171.729 61.4975 171.17 60.7855 171.627 60.2769Z" fill="black"/>
<path d="M186.835 45.0691C187.344 44.6114 188.056 45.1709 188.056 46.0355C188.056 46.4424 187.7 46.7476 187.293 46.7476C186.53 46.7476 186.225 45.6795 186.835 45.0691Z" fill="black"/>
<path d="M106.982 0.768326C107.897 -0.198052 107.999 -0.198052 109.27 0.463154C110.339 1.0735 110.542 2.49763 109.626 3.41315C108.711 4.32867 107.287 4.12522 106.676 3.05712C106.015 1.78557 106.015 1.68384 106.982 0.768326Z" fill="black"/>
<path d="M106.982 88.7087C107.999 87.7424 109.169 87.8949 109.932 89.1156C111.101 90.9975 108.151 93.032 106.829 91.201C105.964 90.0312 106.015 89.726 106.982 88.7087Z" fill="black"/>
<path d="M170.813 17.095C171.729 15.4675 174.323 16.383 174.323 18.3666C174.323 19.333 172.543 20.5028 171.78 20.045C170.813 19.4347 170.356 18.0106 170.813 17.095Z" fill="black"/>
<path d="M170.813 72.5855C171.78 70.907 174.323 71.8225 174.323 73.8062C174.323 74.5691 172.95 75.7389 172.085 75.7389C171.729 75.7389 170.254 74.1622 170.254 73.8062C170.254 73.6027 170.508 73.0432 170.813 72.5855Z" fill="black"/>
<path d="M195.736 31.1838C198.584 28.3355 199.347 27.8269 199.754 28.4373C200.11 28.9968 199.551 29.9123 197.363 32.0993L194.464 35.0493L198.432 39.1183L201.28 36.3209C202.857 34.795 204.382 33.5235 204.738 33.5235C206.01 33.5235 205.247 34.8967 202.551 37.5924L199.754 40.339L204.026 44.7131L206.976 41.814C209.113 39.7286 210.079 39.0674 210.486 39.4743C210.893 39.8812 210.232 40.8476 208.197 42.9838L205.4 45.9847L208.248 48.8838C210.689 51.3252 210.994 51.8338 210.232 52.139C209.57 52.3933 208.604 51.7829 206.722 49.901L204.077 47.3071L199.703 51.4778L202.602 54.4277C204.738 56.6148 205.4 57.5812 204.993 57.9881C204.586 58.395 203.67 57.7338 201.636 55.6484C198.838 52.7493 198.788 52.7493 197.618 53.6648C196.957 54.1734 195.99 55.1398 195.482 55.801L194.566 57.0217L197.414 59.9208C199.957 62.4639 200.466 63.5321 199.194 63.5321C198.991 63.5321 197.313 62.0062 195.482 60.1243L192.125 56.6657L202.806 45.9847L197.923 41.1528C195.278 38.5079 192.888 35.9648 192.633 35.5071C192.277 34.8967 193.04 33.8795 195.736 31.1838Z" fill="black"/>
<path d="M212.775 44.5097C213.69 43.5433 213.792 43.5433 215.063 44.2045C216.132 44.8148 216.335 46.239 215.419 47.1545C214.504 48.07 213.08 47.8666 212.469 46.7984C211.808 45.5269 211.808 45.4252 212.775 44.5097Z" fill="black"/>
<path d="M216.544 44.3829C217.393 43.3547 217.712 43.2465 218.667 43.7876C219.941 44.4911 220.207 45.9522 219.198 46.9804C217.34 48.8744 214.898 46.4392 216.544 44.3829Z" fill="black"/>
<path d="M221.907 38.8735C222.216 38.7196 223.709 39.746 225.202 41.2343L227.932 43.9544L229.476 42.7227C232.566 40.2079 232.566 39.9 229.322 36.6153C227.365 34.6138 226.593 33.536 227.005 33.2794C227.365 33.0228 228.755 33.9979 230.558 35.7942L233.544 38.7196L235.707 36.564L237.921 34.4598L234.986 31.4831C233.287 29.7381 232.205 28.2498 232.411 27.9419C232.772 27.2747 235.604 29.5842 238.488 32.8688L240.032 34.6138L234.677 40.0026L229.322 45.3401L234.626 50.6263C237.509 53.5004 239.878 56.1178 239.878 56.3744C239.878 57.1443 233.544 63.303 232.772 63.303C231.536 63.303 232.205 61.9686 234.986 59.1972L237.818 56.3231L233.699 52.32L230.609 55.348C228.086 57.8628 227.417 58.2734 227.005 57.6575C226.644 57.093 227.211 56.1692 229.476 53.911L232.411 50.9856L230.197 48.8301L228.035 46.6232L225.305 49.3433C222.782 51.8068 221.341 52.6279 221.341 51.5501C221.341 51.2935 222.473 49.9078 223.915 48.4195C225.305 46.9311 226.49 45.5967 226.49 45.3915C226.49 45.1862 225.305 43.9031 223.915 42.5174C221.186 39.8486 220.98 39.4381 221.907 38.8735Z" fill="black"/>
<path d="M241.464 41.9727L244.803 38.6885L248.04 41.8701L251.276 45.103L258.93 44.7951L259.238 37.3029L256.053 33.9674L252.817 30.6318L256.105 27.3476C257.954 25.5002 259.547 24.0121 259.701 24.0121C260.112 24.0121 266.379 30.2726 266.379 30.7345C266.379 30.8884 265.095 32.3766 263.554 33.9674L260.728 36.8411V45.0517H268.537L271.002 42.5885C275.163 38.4319 274.65 38.4832 277.989 41.9727C279.684 43.7175 281.122 45.3596 281.225 45.6675C281.431 46.2833 275.677 52.2359 274.855 52.2359C274.547 52.2359 273.057 50.953 271.516 49.4135L268.742 46.5912H260.728V54.5965L263.554 57.3675C265.095 58.907 266.379 60.3952 266.379 60.6518C266.379 61.3702 260.677 67.1176 259.958 67.1176C259.649 67.1176 257.954 65.6808 256.208 63.9873L252.971 60.8057L254.666 59.0097C255.591 58.0347 257.029 56.5978 257.8 55.7767C259.136 54.3912 259.238 54.0833 259.084 50.5938L258.93 46.8477L250.968 46.5398L248.142 49.2596C246.601 50.7478 245.111 51.9794 244.803 51.9794C244.289 51.9794 238.125 46.1293 238.125 45.6161C238.125 45.4109 239.615 43.7688 241.464 41.9727ZM249.427 45.8727L244.803 41.2543L240.18 45.7701L244.803 50.3885L249.427 45.8727ZM257.8 33.1463L260.009 35.3016L264.53 30.6832L260.009 26.0647L257.8 28.22C256.567 29.4003 255.591 30.5292 255.591 30.6832C255.591 30.8371 256.567 31.9661 257.8 33.1463ZM257.646 63.2689L259.701 65.2702L264.324 60.7544L259.701 56.136L257.646 58.1373C256.516 59.2149 255.591 60.3952 255.591 60.7031C255.591 61.011 256.516 62.1913 257.646 63.2689ZM272.698 48.028L274.907 50.1833L279.427 45.5648L277.424 43.5122C276.345 42.3832 275.163 41.4595 274.907 41.4595C274.341 41.4595 270.489 45.0517 270.489 45.5648C270.489 45.7188 271.465 46.8477 272.698 48.028Z" fill="black"/>
<path d="M244.909 44.9165C245.773 44.4079 246.74 45.5778 246.027 46.2898C245.417 46.9002 244.349 46.4933 244.349 45.7303C244.349 45.476 244.603 45.12 244.909 44.9165Z" fill="black"/>
<path d="M259.608 30.4717C259.964 29.8614 260.218 29.8614 260.727 30.37C261.184 30.8278 261.184 31.133 260.727 31.5907C259.913 32.4045 258.997 31.489 259.608 30.4717Z" fill="black"/>
<path d="M259.455 60.2769C260.065 59.6665 261.133 59.9717 261.133 60.7346C261.133 61.1415 260.828 61.4975 260.421 61.4975C259.557 61.4975 258.997 60.7855 259.455 60.2769Z" fill="black"/>
<path d="M274.663 45.0691C275.171 44.6114 275.883 45.1709 275.883 46.0355C275.883 46.4424 275.527 46.7476 275.121 46.7476C274.358 46.7476 274.052 45.6795 274.663 45.0691Z" fill="black"/>
<path d="M258.095 16.5823C259.109 14.7369 261.776 15.7435 261.776 17.9244C261.776 18.4277 261.296 19.1546 260.656 19.4902C259.802 19.9934 259.322 19.9375 258.522 19.1546C257.349 18.0362 257.349 17.9244 258.095 16.5823Z" fill="black"/>
<path d="M258.095 72.5702C259.109 70.8926 261.776 71.8076 261.776 73.7902C261.776 74.2478 261.296 74.9086 260.656 75.2137C259.802 75.6712 259.322 75.6204 258.522 74.9086C257.349 73.8919 257.349 73.7902 258.095 72.5702Z" fill="black"/>
<path d="M284.46 31.2785C286.203 29.5389 287.946 28.1063 288.305 28.1063C289.535 28.1063 288.869 29.3854 286.254 32.0459L283.589 34.7576L287.587 38.8507L290.561 35.9344C292.867 33.632 293.636 33.1204 294.149 33.632C294.662 34.1436 294.149 34.9111 291.842 37.2135L288.92 40.181L293.278 44.4276L308.247 29.4366L323.267 14.4967L318.858 10.199L316.09 13.013C313.373 15.7247 311.989 16.4921 311.989 15.213C311.989 14.8549 313.271 13.3199 314.808 11.7339L317.628 8.86869L313.527 4.87791L310.759 7.5896C308.708 9.63615 307.734 10.2501 307.068 9.9943C306.299 9.68731 306.76 9.02219 309.836 5.95235L313.527 2.26856L318.807 7.53843C321.678 10.4036 324.292 12.7571 324.549 12.7571C324.856 12.7571 327.368 10.4036 330.136 7.5896L335.212 2.47321L338.749 5.95235C340.646 7.84542 342.235 9.58499 342.235 9.78964C342.235 10.8129 340.697 9.94313 338.39 7.64076C337.006 6.25934 335.622 5.08257 335.314 5.08257C334.596 5.08257 331.469 8.25473 331.469 8.97102C331.469 9.22684 332.597 10.6083 334.033 11.9897C336.339 14.2409 337.211 15.827 336.237 15.827C336.032 15.827 334.545 14.4967 332.905 12.9106L329.931 9.94314L327.778 12.1432L325.574 14.2921L355.82 44.4787L357.717 42.5857C358.793 41.5624 359.665 40.4368 359.665 40.1298C359.665 39.8228 358.485 38.4414 357.101 37.06C354.743 34.7576 353.923 33.2227 354.948 33.2227C355.205 33.2227 356.691 34.5529 358.28 36.139L361.202 39.1065L363.356 36.9065L365.56 34.7576L362.587 31.7901C360.997 30.1529 359.665 28.6691 359.665 28.4644C359.665 27.39 361.305 28.4644 364.278 31.432L367.559 34.7064L366.534 35.832C366.021 36.446 363.868 38.5437 361.818 40.5903C359.818 42.5857 358.127 44.3764 358.127 44.5811C358.127 44.8369 360.28 44.9904 362.843 44.9904H367.559L374.018 38.6461L377.248 41.8182L380.478 45.0415L388.116 44.7346L388.424 37.1111L381.964 30.6645L385.399 27.2365L388.834 23.8597L390.628 25.4458C391.653 26.3156 393.191 27.8505 394.063 28.8738L395.652 30.6645L394.575 32.0971C394.011 32.9157 392.73 34.1948 391.705 34.9623L389.91 36.3437V44.9904H397.702L400.83 41.9205L403.957 38.7995L407.443 42.2787L410.929 45.7067L407.75 48.93C406.007 50.7207 404.316 52.1533 404.008 52.1533C403.7 52.1533 402.214 50.8742 400.676 49.3393L397.908 46.5253H389.91V54.5069L392.73 57.2697C394.268 58.8046 395.549 60.2884 395.549 60.5442C395.549 61.2605 389.808 66.9908 389.141 66.9908C388.834 66.9908 387.193 65.5582 385.45 63.8187L382.272 60.5953L385.297 57.3209L388.372 54.0464V46.5253H380.17L377.351 49.3393C375.761 50.8742 374.326 52.1533 374.121 52.1533C373.916 52.1533 372.429 50.8742 370.789 49.3393L367.867 46.5253H357.87L362.638 51.2835C365.201 53.8929 367.354 56.2464 367.354 56.5022C367.354 56.8092 365.868 58.5488 364.022 60.3395C361.408 62.9489 360.587 63.5117 360.075 63C359.562 62.4884 360.075 61.721 362.382 59.4186L365.304 56.4511L361.202 52.4603L358.485 55.1208C355.82 57.7302 354.538 58.3953 354.538 57.1674C354.538 56.8092 355.768 55.3255 357.204 53.8417L359.921 51.13L355.563 46.7811L340.594 61.7721L325.574 76.712L329.931 81.0609L332.648 78.3492C334.135 76.9166 335.622 75.6887 335.981 75.6887C337.211 75.6887 336.544 76.9678 333.93 79.6283L331.264 82.34L335.263 86.4331L338.236 83.5168C340.543 81.2144 341.312 80.7027 341.825 81.2144C342.337 81.726 341.773 82.5446 339.159 85.154C337.365 86.9959 335.622 88.4796 335.314 88.4796C335.058 88.4796 332.443 86.1261 329.573 83.2609L324.292 77.9911L319.012 83.2609C316.141 86.1261 313.578 88.4796 313.373 88.4796C313.117 88.4796 311.425 86.9447 309.631 85.0517C307.324 82.6981 306.452 81.5214 306.863 81.1121C307.221 80.7539 308.298 81.5214 310.451 83.6191L313.527 86.6889L315.68 84.54L317.782 82.3911L314.911 79.526C313.322 77.8887 311.989 76.405 311.989 76.1492C311.989 75.0747 313.476 75.8933 315.834 78.2469C317.218 79.6795 318.602 80.8051 318.91 80.8051C319.217 80.8051 320.345 79.9353 321.37 78.8608L323.267 76.9678L293.021 46.7811L290.868 48.9812L288.664 51.13L291.74 54.1999C293.841 56.2976 294.61 57.4232 294.252 57.7813C293.893 58.1395 292.97 57.6278 291.381 56.1441C287.177 52.1533 287.536 52.3068 285.588 54.1999C284.614 55.172 283.794 56.1953 283.794 56.5022C283.794 56.8092 284.922 58.1906 286.357 59.5721C288.715 61.8744 289.535 63.4094 288.459 63.4094C288.254 63.4094 286.511 61.9256 284.614 60.0837C281.743 57.372 281.282 56.6557 281.692 55.8883C281.999 55.3766 284.306 52.9208 286.87 50.4137C289.382 47.9067 291.483 45.7067 291.483 45.5532C291.483 45.3485 289.176 42.9438 286.357 40.1298C283.537 37.3158 281.231 34.9111 281.231 34.7576C281.231 34.6041 282.666 33.018 284.46 31.2785ZM309.528 60.6977L324.549 75.6887L339.261 61.0047C347.412 52.8696 354.026 46.0648 354.026 45.7578C354.026 45.4509 347.31 38.5437 339.159 30.4087L324.292 15.5712L309.426 30.4087C301.224 38.5437 294.559 45.3485 294.559 45.502C294.559 45.6555 301.326 52.5115 309.528 60.6977ZM378.632 45.809L374.018 41.2043L369.405 45.7067L374.018 50.3114L378.632 45.809ZM386.988 33.1204L389.193 35.2692L393.704 30.6645L389.193 26.0597L386.988 28.2086C385.758 29.3854 384.784 30.511 384.784 30.6645C384.784 30.818 385.758 31.9436 386.988 33.1204ZM386.835 63.1535L388.885 65.1489L393.499 60.6465L388.885 56.0418L386.835 58.0372C385.707 59.1116 384.784 60.2884 384.784 60.5953C384.784 60.9023 385.707 62.0791 386.835 63.1535ZM401.855 47.9579L404.059 50.1068L408.57 45.502L406.571 43.4555C405.495 42.3299 404.316 41.4089 404.059 41.4089C403.495 41.4089 399.651 44.9904 399.651 45.502C399.651 45.6555 400.625 46.7811 401.855 47.9579Z" fill="black"/>
<path d="M313.369 34.438L324.145 23.6306L334.922 34.438C340.823 40.3564 345.698 45.4513 345.698 45.7601C345.698 46.532 325.018 67.1176 324.248 67.1176C323.581 67.1176 302.593 46.3262 302.593 45.6572C302.593 45.3998 307.416 40.3564 313.369 34.438ZM313.882 45.8115L309.264 41.1798L304.645 45.7086L309.264 50.3404L313.882 45.8115ZM313.266 42.5693L315.781 45.0396L323.376 44.7308L323.684 37.0112L318.501 31.9163L314.652 35.7246C312.548 37.8346 310.803 39.6873 310.803 39.8417C310.803 39.9961 311.932 41.2313 313.266 42.5693ZM314.652 55.7955L318.552 59.6553L323.684 54.2002L323.376 46.7894L315.319 46.4806L313.061 48.6935C311.829 49.8772 310.803 51.1123 310.803 51.4211C310.803 51.7299 312.548 53.6855 314.652 55.7955ZM322.247 33.0485L324.453 35.21L328.969 30.5782L324.453 25.9465L322.247 28.108C321.015 29.2916 320.04 30.4238 320.04 30.5782C320.04 30.7326 321.015 31.8648 322.247 33.0485ZM322.093 63.2578L324.145 65.2649L328.764 60.7361L324.145 56.1043L322.093 58.1114C320.964 59.1922 320.04 60.3758 320.04 60.6846C320.04 60.9934 320.964 62.1771 322.093 63.2578ZM332.92 44.9881L338.206 39.7903L334.409 35.9819C332.305 33.8719 330.406 32.1221 330.201 32.1221C329.944 32.1221 328.764 33.1 327.481 34.2836L325.172 36.4966V44.9881H332.92ZM329.995 59.398L338.001 51.4726L333.177 46.532H325.172V54.4575L329.995 59.398ZM337.128 47.973L339.335 50.1345L343.799 45.5542L341.798 43.4957C340.72 42.312 339.591 41.3856 339.335 41.3856C338.77 41.3856 334.922 44.9881 334.922 45.5028C334.922 45.6572 335.897 46.7894 337.128 47.973Z" fill="black"/>
<path d="M308.842 45.0183C309.045 44.9165 309.554 44.9674 309.961 45.2217C310.52 45.5777 310.571 45.8321 310.114 46.2898C309.808 46.595 309.3 46.6967 308.995 46.5441C308.333 46.1372 308.283 45.3743 308.842 45.0183Z" fill="black"/>
<path d="M323.745 30.1666C324.457 29.7597 325.423 30.7261 325.016 31.4381C324.813 31.7433 324.457 31.9976 324.202 31.9976C323.541 31.9976 323.185 30.5226 323.745 30.1666Z" fill="black"/>
<path d="M323.541 60.2769C324.151 59.6665 325.22 59.9717 325.22 60.7346C325.22 61.1415 324.914 61.4975 324.508 61.4975C323.643 61.4975 323.083 60.7855 323.541 60.2769Z" fill="black"/>
<path d="M338.749 45.0691C339.257 44.6114 339.97 45.1709 339.97 46.0355C339.97 46.4424 339.614 46.7476 339.207 46.7476C338.444 46.7476 338.139 45.6795 338.749 45.0691Z" fill="black"/>
<path d="M373.081 44.9165C373.793 44.5096 374.657 45.8321 374.047 46.4424C373.589 46.9002 372.521 46.4424 372.521 45.7303C372.521 45.476 372.776 45.12 373.081 44.9165Z" fill="black"/>
<path d="M388.39 30.1157C388.746 30.2174 389.051 30.6243 389.051 30.9804C389.051 31.3364 388.746 31.7433 388.39 31.8959C388.034 31.9976 387.78 31.6416 387.78 30.9804C387.78 30.3191 388.034 29.9631 388.39 30.1157Z" fill="black"/>
<path d="M387.627 60.2769C388.238 59.6665 389.306 59.9717 389.306 60.7346C389.306 61.1415 389.001 61.4975 388.594 61.4975C387.729 61.4975 387.17 60.7855 387.627 60.2769Z" fill="black"/>
<path d="M402.835 45.0691C403.344 44.6114 404.056 45.1709 404.056 46.0355C404.056 46.4424 403.7 46.7476 403.293 46.7476C402.53 46.7476 402.225 45.6795 402.835 45.0691Z" fill="black"/>
<path d="M322.982 0.768326C323.897 -0.198052 323.999 -0.198052 325.27 0.463154C326.339 1.0735 326.542 2.49763 325.626 3.41315C324.711 4.32867 323.287 4.12522 322.676 3.05712C322.015 1.78557 322.015 1.68384 322.982 0.768326Z" fill="black"/>
<path d="M322.982 88.7087C323.999 87.7424 325.169 87.8949 325.932 89.1156C327.101 90.9975 324.151 93.032 322.829 91.201C321.964 90.0312 322.015 89.726 322.982 88.7087Z" fill="black"/>
<path d="M386.813 17.095C387.729 15.4675 390.323 16.383 390.323 18.3666C390.323 19.333 388.543 20.5028 387.78 20.045C386.813 19.4347 386.356 18.0106 386.813 17.095Z" fill="black"/>
<path d="M386.813 72.5855C387.78 70.907 390.323 71.8225 390.323 73.8062C390.323 74.5691 388.95 75.7389 388.085 75.7389C387.729 75.7389 386.254 74.1622 386.254 73.8062C386.254 73.6027 386.508 73.0432 386.813 72.5855Z" fill="black"/>
<path d="M411.736 31.1838C414.584 28.3355 415.347 27.8269 415.754 28.4373C416.11 28.9968 415.551 29.9123 413.363 32.0993L410.464 35.0493L414.432 39.1183L417.28 36.3209C418.857 34.795 420.382 33.5235 420.738 33.5235C422.01 33.5235 421.247 34.8967 418.551 37.5924L415.754 40.339L420.026 44.7131L422.976 41.814C425.113 39.7286 426.079 39.0674 426.486 39.4743C426.893 39.8812 426.232 40.8476 424.197 42.9838L421.4 45.9847L424.248 48.8838C426.689 51.3252 426.994 51.8338 426.232 52.139C425.57 52.3933 424.604 51.7829 422.722 49.901L420.077 47.3071L415.703 51.4778L418.602 54.4277C420.738 56.6148 421.4 57.5812 420.993 57.9881C420.586 58.395 419.67 57.7338 417.636 55.6484C414.838 52.7493 414.788 52.7493 413.618 53.6648C412.957 54.1734 411.99 55.1398 411.482 55.801L410.566 57.0217L413.414 59.9208C415.957 62.4639 416.466 63.5321 415.194 63.5321C414.991 63.5321 413.313 62.0062 411.482 60.1243L408.125 56.6657L418.806 45.9847L413.923 41.1528C411.278 38.5079 408.888 35.9648 408.633 35.5071C408.277 34.8967 409.04 33.8795 411.736 31.1838Z" fill="black"/>
<path d="M428.775 44.5097C429.69 43.5433 429.792 43.5433 431.063 44.2045C432.132 44.8148 432.335 46.239 431.419 47.1545C430.504 48.07 429.08 47.8666 428.469 46.7984C427.808 45.5269 427.808 45.4252 428.775 44.5097Z" fill="black"/>
<path d="M432.544 44.3829C433.393 43.3547 433.712 43.2465 434.667 43.7876C435.941 44.4911 436.207 45.9522 435.198 46.9804C433.34 48.8744 430.898 46.4392 432.544 44.3829Z" fill="black"/>
<path d="M437.907 38.8735C438.216 38.7196 439.709 39.746 441.202 41.2343L443.932 43.9544L445.476 42.7227C448.566 40.2079 448.566 39.9 445.322 36.6153C443.365 34.6138 442.593 33.536 443.005 33.2794C443.365 33.0228 444.755 33.9979 446.558 35.7942L449.544 38.7196L451.707 36.564L453.921 34.4598L450.986 31.4831C449.287 29.7381 448.205 28.2498 448.411 27.9419C448.772 27.2747 451.604 29.5842 454.488 32.8688L456.032 34.6138L450.677 40.0026L445.322 45.3401L450.626 50.6263C453.509 53.5004 455.878 56.1178 455.878 56.3744C455.878 57.1443 449.544 63.303 448.772 63.303C447.536 63.303 448.205 61.9686 450.986 59.1972L453.818 56.3231L449.699 52.32L446.609 55.348C444.086 57.8628 443.417 58.2734 443.005 57.6575C442.644 57.093 443.211 56.1692 445.476 53.911L448.411 50.9856L446.197 48.8301L444.035 46.6232L441.305 49.3433C438.782 51.8068 437.341 52.6279 437.341 51.5501C437.341 51.2935 438.473 49.9078 439.915 48.4195C441.305 46.9311 442.49 45.5967 442.49 45.3915C442.49 45.1862 441.305 43.9031 439.915 42.5174C437.186 39.8486 436.98 39.4381 437.907 38.8735Z" fill="black"/>
<path d="M457.464 41.9727L460.803 38.6885L464.04 41.8701L467.276 45.103L474.93 44.7951L475.238 37.3029L472.053 33.9674L468.817 30.6318L472.105 27.3476C473.954 25.5002 475.547 24.0121 475.701 24.0121C476.112 24.0121 482.379 30.2726 482.379 30.7345C482.379 30.8884 481.095 32.3766 479.554 33.9674L476.728 36.8411V45.0517H484.537L487.002 42.5885C491.163 38.4319 490.65 38.4832 493.989 41.9727C495.684 43.7175 497.122 45.3596 497.225 45.6675C497.431 46.2833 491.677 52.2359 490.855 52.2359C490.547 52.2359 489.057 50.953 487.516 49.4135L484.742 46.5912H476.728V54.5965L479.554 57.3675C481.095 58.907 482.379 60.3952 482.379 60.6518C482.379 61.3702 476.677 67.1176 475.958 67.1176C475.649 67.1176 473.954 65.6808 472.208 63.9873L468.971 60.8057L470.666 59.0097C471.591 58.0347 473.029 56.5978 473.8 55.7767C475.136 54.3912 475.238 54.0833 475.084 50.5938L474.93 46.8477L466.968 46.5398L464.142 49.2596C462.601 50.7478 461.111 51.9794 460.803 51.9794C460.289 51.9794 454.125 46.1293 454.125 45.6161C454.125 45.4109 455.615 43.7688 457.464 41.9727ZM465.427 45.8727L460.803 41.2543L456.18 45.7701L460.803 50.3885L465.427 45.8727ZM473.8 33.1463L476.009 35.3016L480.53 30.6832L476.009 26.0647L473.8 28.22C472.567 29.4003 471.591 30.5292 471.591 30.6832C471.591 30.8371 472.567 31.9661 473.8 33.1463ZM473.646 63.2689L475.701 65.2702L480.324 60.7544L475.701 56.136L473.646 58.1373C472.516 59.2149 471.591 60.3952 471.591 60.7031C471.591 61.011 472.516 62.1913 473.646 63.2689ZM488.698 48.028L490.907 50.1833L495.427 45.5648L493.424 43.5122C492.345 42.3832 491.163 41.4595 490.907 41.4595C490.341 41.4595 486.489 45.0517 486.489 45.5648C486.489 45.7188 487.465 46.8477 488.698 48.028Z" fill="black"/>
<path d="M460.909 44.9165C461.773 44.4079 462.74 45.5778 462.027 46.2898C461.417 46.9002 460.349 46.4933 460.349 45.7303C460.349 45.476 460.603 45.12 460.909 44.9165Z" fill="black"/>
<path d="M475.608 30.4717C475.964 29.8614 476.218 29.8614 476.727 30.37C477.184 30.8278 477.184 31.133 476.727 31.5907C475.913 32.4045 474.997 31.489 475.608 30.4717Z" fill="black"/>
<path d="M475.455 60.2769C476.065 59.6665 477.133 59.9717 477.133 60.7346C477.133 61.1415 476.828 61.4975 476.421 61.4975C475.557 61.4975 474.997 60.7855 475.455 60.2769Z" fill="black"/>
<path d="M490.663 45.0691C491.171 44.6114 491.883 45.1709 491.883 46.0355C491.883 46.4424 491.527 46.7476 491.121 46.7476C490.358 46.7476 490.052 45.6795 490.663 45.0691Z" fill="black"/>
<path d="M474.095 16.5823C475.109 14.7369 477.776 15.7435 477.776 17.9244C477.776 18.4277 477.296 19.1546 476.656 19.4902C475.802 19.9934 475.322 19.9375 474.522 19.1546C473.349 18.0362 473.349 17.9244 474.095 16.5823Z" fill="black"/>
<path d="M474.095 72.5702C475.109 70.8926 477.776 71.8076 477.776 73.7902C477.776 74.2478 477.296 74.9086 476.656 75.2137C475.802 75.6712 475.322 75.6204 474.522 74.9086C473.349 73.8919 473.349 73.7902 474.095 72.5702Z" fill="black"/>
<path d="M500.46 31.2785C502.203 29.5389 503.946 28.1063 504.305 28.1063C505.535 28.1063 504.869 29.3854 502.254 32.0459L499.589 34.7576L503.587 38.8507L506.561 35.9344C508.867 33.632 509.636 33.1204 510.149 33.632C510.662 34.1436 510.149 34.9111 507.842 37.2135L504.92 40.181L509.278 44.4276L524.247 29.4366L539.267 14.4967L534.858 10.199L532.09 13.013C529.373 15.7247 527.989 16.4921 527.989 15.213C527.989 14.8549 529.271 13.3199 530.808 11.7339L533.628 8.86869L529.527 4.87791L526.759 7.5896C524.708 9.63615 523.734 10.2501 523.068 9.9943C522.299 9.68731 522.76 9.02219 525.836 5.95235L529.527 2.26856L534.807 7.53843C537.678 10.4036 540.292 12.7571 540.549 12.7571C540.856 12.7571 543.368 10.4036 546.136 7.5896L551.212 2.47321L554.749 5.95235C556.646 7.84542 558.235 9.58499 558.235 9.78964C558.235 10.8129 556.697 9.94313 554.39 7.64076C553.006 6.25934 551.622 5.08257 551.314 5.08257C550.596 5.08257 547.469 8.25473 547.469 8.97102C547.469 9.22684 548.597 10.6083 550.033 11.9897C552.339 14.2409 553.211 15.827 552.237 15.827C552.032 15.827 550.545 14.4967 548.905 12.9106L545.931 9.94314L543.778 12.1432L541.574 14.2921L571.82 44.4787L573.716 42.5857C574.793 41.5624 575.665 40.4368 575.665 40.1298C575.665 39.8228 574.485 38.4414 573.101 37.06C570.743 34.7576 569.923 33.2227 570.948 33.2227C571.205 33.2227 572.691 34.5529 574.28 36.139L577.202 39.1065L579.356 36.9065L581.56 34.7576L578.587 31.7901C576.997 30.1529 575.665 28.6691 575.665 28.4644C575.665 27.39 577.305 28.4644 580.278 31.432L583.559 34.7064L582.534 35.832C582.021 36.446 579.868 38.5437 577.818 40.5903C575.818 42.5857 574.127 44.3764 574.127 44.5811C574.127 44.8369 576.28 44.9904 578.843 44.9904H583.559L590.018 38.6461L593.248 41.8182L596.478 45.0415L604.116 44.7346L604.424 37.1111L597.964 30.6645L601.399 27.2365L604.834 23.8597L606.628 25.4458C607.653 26.3156 609.191 27.8505 610.063 28.8738L611.652 30.6645L610.575 32.0971C610.011 32.9157 608.73 34.1948 607.705 34.9623L605.91 36.3437V44.9904H613.703L616.83 41.9205L619.957 38.7995L623.443 42.2787L626.929 45.7067L623.75 48.93C622.007 50.7207 620.316 52.1533 620.008 52.1533C619.7 52.1533 618.214 50.8742 616.676 49.3393L613.908 46.5253H605.91V54.5069L608.73 57.2697C610.268 58.8046 611.549 60.2884 611.549 60.5442C611.549 61.2605 605.808 66.9908 605.141 66.9908C604.834 66.9908 603.193 65.5582 601.45 63.8187L598.272 60.5953L601.297 57.3209L604.372 54.0464V46.5253H596.17L593.351 49.3393C591.761 50.8742 590.326 52.1533 590.121 52.1533C589.916 52.1533 588.429 50.8742 586.789 49.3393L583.867 46.5253H573.87L578.638 51.2835C581.201 53.8929 583.354 56.2464 583.354 56.5022C583.354 56.8092 581.867 58.5488 580.022 60.3395C577.408 62.9489 576.587 63.5117 576.075 63C575.562 62.4884 576.075 61.721 578.382 59.4186L581.304 56.4511L577.202 52.4603L574.485 55.1208C571.82 57.7302 570.538 58.3953 570.538 57.1674C570.538 56.8092 571.768 55.3255 573.204 53.8417L575.921 51.13L571.563 46.7811L556.594 61.7721L541.574 76.712L545.931 81.0609L548.648 78.3492C550.135 76.9166 551.622 75.6887 551.981 75.6887C553.211 75.6887 552.544 76.9678 549.93 79.6283L547.264 82.34L551.263 86.4331L554.236 83.5168C556.543 81.2144 557.312 80.7027 557.825 81.2144C558.337 81.726 557.773 82.5446 555.159 85.154C553.365 86.9959 551.622 88.4796 551.314 88.4796C551.058 88.4796 548.443 86.1261 545.573 83.2609L540.292 77.9911L535.012 83.2609C532.141 86.1261 529.578 88.4796 529.373 88.4796C529.117 88.4796 527.425 86.9447 525.631 85.0517C523.324 82.6981 522.452 81.5214 522.863 81.1121C523.221 80.7539 524.298 81.5214 526.451 83.6191L529.527 86.6889L531.68 84.54L533.782 82.3911L530.911 79.526C529.322 77.8887 527.989 76.405 527.989 76.1492C527.989 75.0747 529.476 75.8933 531.834 78.2469C533.218 79.6795 534.602 80.8051 534.91 80.8051C535.217 80.8051 536.345 79.9353 537.37 78.8608L539.267 76.9678L509.021 46.7811L506.868 48.9812L504.664 51.13L507.74 54.1999C509.841 56.2976 510.61 57.4232 510.252 57.7813C509.893 58.1395 508.97 57.6278 507.381 56.1441C503.177 52.1533 503.536 52.3068 501.588 54.1999C500.614 55.172 499.794 56.1953 499.794 56.5022C499.794 56.8092 500.922 58.1906 502.357 59.5721C504.715 61.8744 505.535 63.4094 504.459 63.4094C504.254 63.4094 502.511 61.9256 500.614 60.0837C497.743 57.372 497.282 56.6557 497.692 55.8883C497.999 55.3766 500.306 52.9208 502.87 50.4137C505.382 47.9067 507.483 45.7067 507.483 45.5532C507.483 45.3485 505.176 42.9438 502.357 40.1298C499.537 37.3158 497.231 34.9111 497.231 34.7576C497.231 34.6041 498.666 33.018 500.46 31.2785ZM525.528 60.6977L540.549 75.6887L555.261 61.0047C563.412 52.8696 570.026 46.0648 570.026 45.7578C570.026 45.4509 563.31 38.5437 555.159 30.4087L540.292 15.5712L525.426 30.4087C517.224 38.5437 510.559 45.3485 510.559 45.502C510.559 45.6555 517.326 52.5115 525.528 60.6977ZM594.632 45.809L590.018 41.2043L585.405 45.7067L590.018 50.3114L594.632 45.809ZM602.988 33.1204L605.193 35.2692L609.704 30.6645L605.193 26.0597L602.988 28.2086C601.758 29.3854 600.784 30.511 600.784 30.6645C600.784 30.818 601.758 31.9436 602.988 33.1204ZM602.835 63.1535L604.885 65.1489L609.499 60.6465L604.885 56.0418L602.835 58.0372C601.707 59.1116 600.784 60.2884 600.784 60.5953C600.784 60.9023 601.707 62.0791 602.835 63.1535ZM617.855 47.9579L620.059 50.1068L624.57 45.502L622.571 43.4555C621.495 42.3299 620.316 41.4089 620.059 41.4089C619.495 41.4089 615.651 44.9904 615.651 45.502C615.651 45.6555 616.625 46.7811 617.855 47.9579Z" fill="black"/>
<path d="M529.369 34.438L540.145 23.6306L550.922 34.438C556.823 40.3564 561.698 45.4513 561.698 45.7601C561.698 46.532 541.018 67.1176 540.248 67.1176C539.581 67.1176 518.593 46.3262 518.593 45.6572C518.593 45.3998 523.416 40.3564 529.369 34.438ZM529.882 45.8115L525.264 41.1798L520.645 45.7086L525.264 50.3404L529.882 45.8115ZM529.266 42.5693L531.781 45.0396L539.376 44.7308L539.683 37.0112L534.501 31.9163L530.652 35.7246C528.548 37.8346 526.803 39.6873 526.803 39.8417C526.803 39.9961 527.932 41.2313 529.266 42.5693ZM530.652 55.7955L534.552 59.6553L539.683 54.2002L539.376 46.7894L531.319 46.4806L529.061 48.6935C527.829 49.8772 526.803 51.1123 526.803 51.4211C526.803 51.7299 528.548 53.6855 530.652 55.7955ZM538.247 33.0485L540.453 35.21L544.969 30.5782L540.453 25.9465L538.247 28.108C537.015 29.2916 536.04 30.4238 536.04 30.5782C536.04 30.7326 537.015 31.8648 538.247 33.0485ZM538.093 63.2578L540.145 65.2649L544.764 60.7361L540.145 56.1043L538.093 58.1114C536.964 59.1922 536.04 60.3758 536.04 60.6846C536.04 60.9934 536.964 62.1771 538.093 63.2578ZM548.92 44.9881L554.206 39.7903L550.409 35.9819C548.305 33.8719 546.406 32.1221 546.201 32.1221C545.944 32.1221 544.764 33.1 543.481 34.2836L541.172 36.4966V44.9881H548.92ZM545.995 59.398L554.001 51.4726L549.177 46.532H541.172V54.4575L545.995 59.398ZM553.128 47.973L555.335 50.1345L559.799 45.5542L557.798 43.4957C556.72 42.312 555.591 41.3856 555.335 41.3856C554.77 41.3856 550.922 44.9881 550.922 45.5028C550.922 45.6572 551.897 46.7894 553.128 47.973Z" fill="black"/>
<path d="M524.842 45.0183C525.045 44.9165 525.554 44.9674 525.961 45.2217C526.521 45.5777 526.571 45.8321 526.114 46.2898C525.808 46.595 525.3 46.6967 524.995 46.5441C524.333 46.1372 524.283 45.3743 524.842 45.0183Z" fill="black"/>
<path d="M539.745 30.1666C540.457 29.7597 541.423 30.7261 541.016 31.4381C540.813 31.7433 540.457 31.9976 540.202 31.9976C539.541 31.9976 539.185 30.5226 539.745 30.1666Z" fill="black"/>
<path d="M539.541 60.2769C540.151 59.6665 541.22 59.9717 541.22 60.7346C541.22 61.1415 540.914 61.4975 540.508 61.4975C539.643 61.4975 539.083 60.7855 539.541 60.2769Z" fill="black"/>
<path d="M554.749 45.0691C555.258 44.6114 555.97 45.1709 555.97 46.0355C555.97 46.4424 555.614 46.7476 555.207 46.7476C554.444 46.7476 554.139 45.6795 554.749 45.0691Z" fill="black"/>
<path d="M589.081 44.9165C589.793 44.5096 590.657 45.8321 590.047 46.4424C589.589 46.9002 588.521 46.4424 588.521 45.7303C588.521 45.476 588.776 45.12 589.081 44.9165Z" fill="black"/>
<path d="M604.39 30.1157C604.746 30.2174 605.051 30.6243 605.051 30.9804C605.051 31.3364 604.746 31.7433 604.39 31.8959C604.034 31.9976 603.78 31.6416 603.78 30.9804C603.78 30.3191 604.034 29.9631 604.39 30.1157Z" fill="black"/>
<path d="M603.627 60.2769C604.238 59.6665 605.306 59.9717 605.306 60.7346C605.306 61.1415 605.001 61.4975 604.594 61.4975C603.729 61.4975 603.169 60.7855 603.627 60.2769Z" fill="black"/>
<path d="M618.835 45.0691C619.344 44.6114 620.056 45.1709 620.056 46.0355C620.056 46.4424 619.7 46.7476 619.293 46.7476C618.53 46.7476 618.225 45.6795 618.835 45.0691Z" fill="black"/>
<path d="M538.982 0.768326C539.897 -0.198052 539.999 -0.198052 541.27 0.463154C542.339 1.0735 542.542 2.49763 541.626 3.41315C540.711 4.32867 539.287 4.12522 538.676 3.05712C538.015 1.78557 538.015 1.68384 538.982 0.768326Z" fill="black"/>
<path d="M538.982 88.7087C539.999 87.7424 541.169 87.8949 541.932 89.1156C543.101 90.9975 540.151 93.032 538.829 91.201C537.964 90.0312 538.015 89.726 538.982 88.7087Z" fill="black"/>
<path d="M602.813 17.095C603.729 15.4675 606.323 16.383 606.323 18.3666C606.323 19.333 604.543 20.5028 603.78 20.045C602.813 19.4347 602.356 18.0106 602.813 17.095Z" fill="black"/>
<path d="M602.813 72.5855C603.78 70.907 606.323 71.8225 606.323 73.8062C606.323 74.5691 604.95 75.7389 604.085 75.7389C603.729 75.7389 602.254 74.1622 602.254 73.8062C602.254 73.6027 602.508 73.0432 602.813 72.5855Z" fill="black"/>
<path d="M627.736 31.1838C630.584 28.3355 631.347 27.8269 631.754 28.4373C632.11 28.9968 631.55 29.9123 629.363 32.0993L626.464 35.0493L630.432 39.1183L633.28 36.3209C634.857 34.795 636.382 33.5235 636.738 33.5235C638.01 33.5235 637.247 34.8967 634.551 37.5924L631.754 40.339L636.026 44.7131L638.976 41.814C641.113 39.7286 642.079 39.0674 642.486 39.4743C642.893 39.8812 642.232 40.8476 640.197 42.9838L637.4 45.9847L640.248 48.8838C642.689 51.3252 642.994 51.8338 642.232 52.139C641.57 52.3933 640.604 51.7829 638.722 49.901L636.077 47.3071L631.703 51.4778L634.602 54.4277C636.738 56.6148 637.4 57.5812 636.993 57.9881C636.586 58.395 635.67 57.7338 633.636 55.6484C630.838 52.7493 630.788 52.7493 629.618 53.6648C628.957 54.1734 627.99 55.1398 627.482 55.801L626.566 57.0217L629.414 59.9208C631.957 62.4639 632.466 63.5321 631.194 63.5321C630.991 63.5321 629.313 62.0062 627.482 60.1243L624.125 56.6657L634.806 45.9847L629.923 41.1528C627.278 38.5079 624.888 35.9648 624.633 35.5071C624.277 34.8967 625.04 33.8795 627.736 31.1838Z" fill="black"/>
<path d="M644.775 44.5097C645.69 43.5433 645.792 43.5433 647.063 44.2045C648.132 44.8148 648.335 46.239 647.419 47.1545C646.504 48.07 645.08 47.8666 644.469 46.7984C643.808 45.5269 643.808 45.4252 644.775 44.5097Z" fill="black"/>
<path d="M648.544 44.3829C649.393 43.3547 649.712 43.2465 650.667 43.7876C651.941 44.4911 652.207 45.9522 651.198 46.9804C649.34 48.8744 646.898 46.4392 648.544 44.3829Z" fill="black"/>
<path d="M653.907 38.8735C654.216 38.7196 655.709 39.746 657.202 41.2343L659.932 43.9544L661.476 42.7227C664.566 40.2079 664.566 39.9 661.322 36.6153C659.365 34.6138 658.593 33.536 659.005 33.2794C659.365 33.0228 660.755 33.9979 662.558 35.7942L665.544 38.7196L667.707 36.564L669.921 34.4598L666.986 31.4831C665.287 29.7381 664.205 28.2498 664.411 27.9419C664.772 27.2747 667.604 29.5842 670.488 32.8688L672.032 34.6138L666.677 40.0026L661.322 45.3401L666.626 50.6263C669.509 53.5004 671.878 56.1178 671.878 56.3744C671.878 57.1443 665.544 63.303 664.772 63.303C663.536 63.303 664.205 61.9686 666.986 59.1972L669.818 56.3231L665.699 52.32L662.609 55.348C660.086 57.8628 659.417 58.2734 659.005 57.6575C658.644 57.093 659.211 56.1692 661.476 53.911L664.411 50.9856L662.197 48.8301L660.035 46.6232L657.305 49.3433C654.782 51.8068 653.341 52.6279 653.341 51.5501C653.341 51.2935 654.473 49.9078 655.915 48.4195C657.305 46.9311 658.49 45.5967 658.49 45.3915C658.49 45.1862 657.305 43.9031 655.915 42.5174C653.186 39.8486 652.98 39.4381 653.907 38.8735Z" fill="black"/>
<path d="M673.464 41.9727L676.803 38.6885L680.04 41.8701L683.276 45.103L690.93 44.7951L691.238 37.3029L688.053 33.9674L684.817 30.6318L688.105 27.3476C689.954 25.5002 691.547 24.0121 691.701 24.0121C692.112 24.0121 698.379 30.2726 698.379 30.7345C698.379 30.8884 697.095 32.3766 695.554 33.9674L692.728 36.8411V45.0517H700.537L703.002 42.5885C707.163 38.4319 706.65 38.4832 709.989 41.9727C711.684 43.7175 713.122 45.3596 713.225 45.6675C713.431 46.2833 707.677 52.2359 706.855 52.2359C706.547 52.2359 705.057 50.953 703.516 49.4135L700.742 46.5912H692.728V54.5965L695.554 57.3675C697.095 58.907 698.379 60.3952 698.379 60.6518C698.379 61.3702 692.677 67.1176 691.958 67.1176C691.649 67.1176 689.954 65.6808 688.208 63.9873L684.971 60.8057L686.666 59.0097C687.591 58.0347 689.029 56.5978 689.8 55.7767C691.136 54.3912 691.238 54.0833 691.084 50.5938L690.93 46.8477L682.968 46.5398L680.142 49.2596C678.601 50.7478 677.111 51.9794 676.803 51.9794C676.289 51.9794 670.125 46.1293 670.125 45.6161C670.125 45.4109 671.615 43.7688 673.464 41.9727ZM681.427 45.8727L676.803 41.2543L672.18 45.7701L676.803 50.3885L681.427 45.8727ZM689.8 33.1463L692.009 35.3016L696.53 30.6832L692.009 26.0647L689.8 28.22C688.567 29.4003 687.591 30.5292 687.591 30.6832C687.591 30.8371 688.567 31.9661 689.8 33.1463ZM689.646 63.2689L691.701 65.2702L696.324 60.7544L691.701 56.136L689.646 58.1373C688.516 59.2149 687.591 60.3952 687.591 60.7031C687.591 61.011 688.516 62.1913 689.646 63.2689ZM704.698 48.028L706.906 50.1833L711.427 45.5648L709.424 43.5122C708.345 42.3832 707.163 41.4595 706.906 41.4595C706.341 41.4595 702.489 45.0517 702.489 45.5648C702.489 45.7188 703.465 46.8477 704.698 48.028Z" fill="black"/>
<path d="M676.909 44.9165C677.773 44.4079 678.74 45.5778 678.027 46.2898C677.417 46.9002 676.349 46.4933 676.349 45.7303C676.349 45.476 676.603 45.12 676.909 44.9165Z" fill="black"/>
<path d="M691.608 30.4717C691.964 29.8614 692.218 29.8614 692.727 30.37C693.184 30.8278 693.184 31.133 692.727 31.5907C691.913 32.4045 690.997 31.489 691.608 30.4717Z" fill="black"/>
<path d="M691.455 60.2769C692.065 59.6665 693.133 59.9717 693.133 60.7346C693.133 61.1415 692.828 61.4975 692.421 61.4975C691.557 61.4975 690.997 60.7855 691.455 60.2769Z" fill="black"/>
<path d="M706.663 45.0691C707.171 44.6114 707.883 45.1709 707.883 46.0355C707.883 46.4424 707.527 46.7476 707.12 46.7476C706.358 46.7476 706.052 45.6795 706.663 45.0691Z" fill="black"/>
<path d="M690.095 16.5823C691.109 14.7369 693.776 15.7435 693.776 17.9244C693.776 18.4277 693.296 19.1546 692.656 19.4902C691.802 19.9934 691.322 19.9375 690.522 19.1546C689.349 18.0362 689.349 17.9244 690.095 16.5823Z" fill="black"/>
<path d="M690.095 72.5702C691.109 70.8926 693.776 71.8076 693.776 73.7902C693.776 74.2478 693.296 74.9086 692.656 75.2137C691.802 75.6712 691.322 75.6204 690.522 74.9086C689.349 73.8919 689.349 73.7902 690.095 72.5702Z" fill="black"/>
<path d="M716.46 31.2785C718.203 29.5389 719.946 28.1063 720.305 28.1063C721.535 28.1063 720.869 29.3854 718.254 32.0459L715.589 34.7576L719.587 38.8507L722.561 35.9344C724.867 33.632 725.636 33.1204 726.149 33.632C726.662 34.1436 726.149 34.9111 723.842 37.2135L720.92 40.181L725.278 44.4276L740.247 29.4366L755.267 14.4967L750.858 10.199L748.09 13.013C745.373 15.7247 743.989 16.4921 743.989 15.213C743.989 14.8549 745.271 13.3199 746.808 11.7339L749.628 8.86869L745.527 4.87791L742.759 7.5896C740.708 9.63615 739.734 10.2501 739.068 9.9943C738.299 9.68731 738.76 9.02219 741.836 5.95235L745.527 2.26856L750.807 7.53843C753.678 10.4036 756.292 12.7571 756.549 12.7571C756.856 12.7571 759.368 10.4036 762.136 7.5896L767.212 2.47321L770.749 5.95235C772.646 7.84542 774.235 9.58499 774.235 9.78964C774.235 10.8129 772.697 9.94313 770.39 7.64076C769.006 6.25934 767.622 5.08257 767.314 5.08257C766.596 5.08257 763.469 8.25473 763.469 8.97102C763.469 9.22684 764.597 10.6083 766.033 11.9897C768.339 14.2409 769.211 15.827 768.237 15.827C768.032 15.827 766.545 14.4967 764.905 12.9106L761.931 9.94314L759.778 12.1432L757.574 14.2921L787.82 44.4787L789.716 42.5857C790.793 41.5624 791.665 40.4368 791.665 40.1298C791.665 39.8228 790.485 38.4414 789.101 37.06C786.743 34.7576 785.923 33.2227 786.948 33.2227C787.205 33.2227 788.691 34.5529 790.28 36.139L793.202 39.1065L795.356 36.9065L797.56 34.7576L794.587 31.7901C792.997 30.1529 791.665 28.6691 791.665 28.4644C791.665 27.39 793.305 28.4644 796.278 31.432L799.559 34.7064L798.534 35.832C798.021 36.446 795.868 38.5437 793.818 40.5903C791.818 42.5857 790.127 44.3764 790.127 44.5811C790.127 44.8369 792.28 44.9904 794.843 44.9904H799.559L806.018 38.6461L809.248 41.8182L812.478 45.0415L820.116 44.7346L820.424 37.1111L813.964 30.6645L817.399 27.2365L820.834 23.8597L822.628 25.4458C823.653 26.3156 825.191 27.8505 826.063 28.8738L827.652 30.6645L826.575 32.0971C826.011 32.9157 824.73 34.1948 823.705 34.9623L821.91 36.3437V44.9904H829.703L832.83 41.9205L835.957 38.7995L839.443 42.2787L842.929 45.7067L839.75 48.93C838.007 50.7207 836.316 52.1533 836.008 52.1533C835.7 52.1533 834.214 50.8742 832.676 49.3393L829.908 46.5253H821.91V54.5069L824.73 57.2697C826.268 58.8046 827.549 60.2884 827.549 60.5442C827.549 61.2605 821.808 66.9908 821.141 66.9908C820.834 66.9908 819.193 65.5582 817.45 63.8187L814.272 60.5953L817.297 57.3209L820.372 54.0464V46.5253H812.17L809.351 49.3393C807.761 50.8742 806.326 52.1533 806.121 52.1533C805.916 52.1533 804.429 50.8742 802.789 49.3393L799.867 46.5253H789.87L794.638 51.2835C797.201 53.8929 799.354 56.2464 799.354 56.5022C799.354 56.8092 797.867 58.5488 796.022 60.3395C793.408 62.9489 792.587 63.5117 792.075 63C791.562 62.4884 792.075 61.721 794.382 59.4186L797.304 56.4511L793.202 52.4603L790.485 55.1208C787.82 57.7302 786.538 58.3953 786.538 57.1674C786.538 56.8092 787.768 55.3255 789.204 53.8417L791.921 51.13L787.563 46.7811L772.594 61.7721L757.574 76.712L761.931 81.0609L764.648 78.3492C766.135 76.9166 767.622 75.6887 767.981 75.6887C769.211 75.6887 768.544 76.9678 765.93 79.6283L763.264 82.34L767.263 86.4331L770.236 83.5168C772.543 81.2144 773.312 80.7027 773.825 81.2144C774.337 81.726 773.773 82.5446 771.159 85.154C769.365 86.9959 767.622 88.4796 767.314 88.4796C767.058 88.4796 764.443 86.1261 761.573 83.2609L756.292 77.9911L751.012 83.2609C748.141 86.1261 745.578 88.4796 745.373 88.4796C745.117 88.4796 743.425 86.9447 741.631 85.0517C739.324 82.6981 738.452 81.5214 738.863 81.1121C739.221 80.7539 740.298 81.5214 742.451 83.6191L745.527 86.6889L747.68 84.54L749.782 82.3911L746.911 79.526C745.322 77.8887 743.989 76.405 743.989 76.1492C743.989 75.0747 745.476 75.8933 747.834 78.2469C749.218 79.6795 750.602 80.8051 750.91 80.8051C751.217 80.8051 752.345 79.9353 753.37 78.8608L755.267 76.9678L725.021 46.7811L722.868 48.9812L720.664 51.13L723.74 54.1999C725.841 56.2976 726.61 57.4232 726.252 57.7813C725.893 58.1395 724.97 57.6278 723.381 56.1441C719.177 52.1533 719.536 52.3068 717.588 54.1999C716.614 55.172 715.794 56.1953 715.794 56.5022C715.794 56.8092 716.922 58.1906 718.357 59.5721C720.715 61.8744 721.535 63.4094 720.459 63.4094C720.254 63.4094 718.511 61.9256 716.614 60.0837C713.743 57.372 713.282 56.6557 713.692 55.8883C714 55.3766 716.306 52.9208 718.87 50.4137C721.382 47.9067 723.483 45.7067 723.483 45.5532C723.483 45.3485 721.176 42.9438 718.357 40.1298C715.537 37.3158 713.231 34.9111 713.231 34.7576C713.231 34.6041 714.666 33.018 716.46 31.2785ZM741.528 60.6977L756.549 75.6887L771.261 61.0047C779.412 52.8696 786.026 46.0648 786.026 45.7578C786.026 45.4509 779.31 38.5437 771.159 30.4087L756.292 15.5712L741.426 30.4087C733.224 38.5437 726.559 45.3485 726.559 45.502C726.559 45.6555 733.326 52.5115 741.528 60.6977ZM810.632 45.809L806.018 41.2043L801.405 45.7067L806.018 50.3114L810.632 45.809ZM818.988 33.1204L821.193 35.2692L825.704 30.6645L821.193 26.0597L818.988 28.2086C817.758 29.3854 816.784 30.511 816.784 30.6645C816.784 30.818 817.758 31.9436 818.988 33.1204ZM818.835 63.1535L820.885 65.1489L825.499 60.6465L820.885 56.0418L818.835 58.0372C817.707 59.1116 816.784 60.2884 816.784 60.5953C816.784 60.9023 817.707 62.0791 818.835 63.1535ZM833.855 47.9579L836.059 50.1068L840.57 45.502L838.571 43.4555C837.495 42.3299 836.316 41.4089 836.059 41.4089C835.495 41.4089 831.651 44.9904 831.651 45.502C831.651 45.6555 832.625 46.7811 833.855 47.9579Z" fill="black"/>
<path d="M745.369 34.438L756.145 23.6306L766.922 34.438C772.823 40.3564 777.698 45.4513 777.698 45.7601C777.698 46.532 757.018 67.1176 756.248 67.1176C755.581 67.1176 734.593 46.3262 734.593 45.6572C734.593 45.3998 739.416 40.3564 745.369 34.438ZM745.882 45.8115L741.264 41.1798L736.645 45.7086L741.264 50.3404L745.882 45.8115ZM745.266 42.5693L747.781 45.0396L755.376 44.7308L755.683 37.0112L750.501 31.9163L746.652 35.7246C744.548 37.8346 742.803 39.6873 742.803 39.8417C742.803 39.9961 743.932 41.2313 745.266 42.5693ZM746.652 55.7955L750.552 59.6553L755.683 54.2002L755.376 46.7894L747.319 46.4806L745.061 48.6935C743.829 49.8772 742.803 51.1123 742.803 51.4211C742.803 51.7299 744.548 53.6855 746.652 55.7955ZM754.247 33.0485L756.453 35.21L760.969 30.5782L756.453 25.9465L754.247 28.108C753.015 29.2916 752.04 30.4238 752.04 30.5782C752.04 30.7326 753.015 31.8648 754.247 33.0485ZM754.093 63.2578L756.145 65.2649L760.764 60.7361L756.145 56.1043L754.093 58.1114C752.964 59.1922 752.04 60.3758 752.04 60.6846C752.04 60.9934 752.964 62.1771 754.093 63.2578ZM764.92 44.9881L770.206 39.7903L766.409 35.9819C764.305 33.8719 762.406 32.1221 762.201 32.1221C761.944 32.1221 760.764 33.1 759.481 34.2836L757.172 36.4966V44.9881H764.92ZM761.995 59.398L770.001 51.4726L765.177 46.532H757.172V54.4575L761.995 59.398ZM769.128 47.973L771.335 50.1345L775.799 45.5542L773.798 43.4957C772.72 42.312 771.591 41.3856 771.335 41.3856C770.77 41.3856 766.922 44.9881 766.922 45.5028C766.922 45.6572 767.897 46.7894 769.128 47.973Z" fill="black"/>
<path d="M740.842 45.0183C741.045 44.9165 741.554 44.9674 741.961 45.2217C742.521 45.5777 742.571 45.8321 742.114 46.2898C741.808 46.595 741.3 46.6967 740.995 46.5441C740.333 46.1372 740.283 45.3743 740.842 45.0183Z" fill="black"/>
<path d="M755.745 30.1666C756.457 29.7597 757.423 30.7261 757.016 31.4381C756.813 31.7433 756.457 31.9976 756.202 31.9976C755.541 31.9976 755.185 30.5226 755.745 30.1666Z" fill="black"/>
<path d="M755.541 60.2769C756.151 59.6665 757.22 59.9717 757.22 60.7346C757.22 61.1415 756.914 61.4975 756.508 61.4975C755.643 61.4975 755.083 60.7855 755.541 60.2769Z" fill="black"/>
<path d="M770.749 45.0691C771.258 44.6114 771.97 45.1709 771.97 46.0355C771.97 46.4424 771.614 46.7476 771.207 46.7476C770.444 46.7476 770.139 45.6795 770.749 45.0691Z" fill="black"/>
<path d="M805.081 44.9165C805.793 44.5096 806.657 45.8321 806.047 46.4424C805.589 46.9002 804.521 46.4424 804.521 45.7303C804.521 45.476 804.776 45.12 805.081 44.9165Z" fill="black"/>
<path d="M820.39 30.1157C820.746 30.2174 821.051 30.6243 821.051 30.9804C821.051 31.3364 820.746 31.7433 820.39 31.8959C820.034 31.9976 819.78 31.6416 819.78 30.9804C819.78 30.3191 820.034 29.9631 820.39 30.1157Z" fill="black"/>
<path d="M819.627 60.2769C820.238 59.6665 821.306 59.9717 821.306 60.7346C821.306 61.1415 821.001 61.4975 820.594 61.4975C819.729 61.4975 819.169 60.7855 819.627 60.2769Z" fill="black"/>
<path d="M834.835 45.0691C835.344 44.6114 836.056 45.1709 836.056 46.0355C836.056 46.4424 835.7 46.7476 835.293 46.7476C834.53 46.7476 834.225 45.6795 834.835 45.0691Z" fill="black"/>
<path d="M754.982 0.768326C755.897 -0.198052 755.999 -0.198052 757.27 0.463154C758.339 1.0735 758.542 2.49763 757.626 3.41315C756.711 4.32867 755.287 4.12522 754.676 3.05712C754.015 1.78557 754.015 1.68384 754.982 0.768326Z" fill="black"/>
<path d="M754.982 88.7087C755.999 87.7424 757.169 87.8949 757.932 89.1156C759.101 90.9975 756.151 93.032 754.829 91.201C753.964 90.0312 754.015 89.726 754.982 88.7087Z" fill="black"/>
<path d="M818.813 17.095C819.729 15.4675 822.323 16.383 822.323 18.3666C822.323 19.333 820.543 20.5028 819.78 20.045C818.813 19.4347 818.356 18.0106 818.813 17.095Z" fill="black"/>
<path d="M818.813 72.5855C819.78 70.907 822.323 71.8225 822.323 73.8062C822.323 74.5691 820.95 75.7389 820.085 75.7389C819.729 75.7389 818.254 74.1622 818.254 73.8062C818.254 73.6027 818.508 73.0432 818.813 72.5855Z" fill="black"/>
<path d="M843.736 31.1838C846.584 28.3355 847.347 27.8269 847.754 28.4373C848.11 28.9968 847.55 29.9123 845.363 32.0993L842.464 35.0493L846.432 39.1183L849.28 36.3209C850.857 34.795 852.382 33.5235 852.738 33.5235C854.01 33.5235 853.247 34.8967 850.551 37.5924L847.754 40.339L852.026 44.7131L854.976 41.814C857.113 39.7286 858.079 39.0674 858.486 39.4743C858.893 39.8812 858.232 40.8476 856.197 42.9838L853.4 45.9847L856.248 48.8838C858.689 51.3252 858.994 51.8338 858.232 52.139C857.57 52.3933 856.604 51.7829 854.722 49.901L852.077 47.3071L847.703 51.4778L850.602 54.4277C852.738 56.6148 853.4 57.5812 852.993 57.9881C852.586 58.395 851.67 57.7338 849.636 55.6484C846.838 52.7493 846.788 52.7493 845.618 53.6648C844.957 54.1734 843.99 55.1398 843.482 55.801L842.566 57.0217L845.414 59.9208C847.957 62.4639 848.466 63.5321 847.194 63.5321C846.991 63.5321 845.313 62.0062 843.482 60.1243L840.125 56.6657L850.806 45.9847L845.923 41.1528C843.278 38.5079 840.888 35.9648 840.633 35.5071C840.277 34.8967 841.04 33.8795 843.736 31.1838Z" fill="black"/>
<path d="M860.775 44.5097C861.69 43.5433 861.792 43.5433 863.063 44.2045C864.132 44.8148 864.335 46.239 863.419 47.1545C862.504 48.07 861.08 47.8666 860.469 46.7984C859.808 45.5269 859.808 45.4252 860.775 44.5097Z" fill="black"/>
</svg>
