<svg width="1026" height="81" viewBox="0 0 1026 81" fill="none" xmlns="http://www.w3.org/2000/svg">
<path d="M81.5853 16.2047H65.2685V32.4099H81.5853V16.2047Z" fill="#16181A"/>
<path d="M65.2685 32.4099L48.9513 32.4104V48.6152H65.2685L65.2685 32.4099Z" fill="#16181A"/>
<path d="M97.9025 32.4104L81.5853 32.4099V48.6152H97.9025V32.4104Z" fill="#16181A"/>
<path d="M81.5853 48.6152H65.2685L65.2685 64.8204H81.5853V48.6152Z" fill="#16181A"/>
<path d="M114.219 0H97.9025V16.2047H114.219V0Z" fill="#16181A"/>
<path d="M130.537 32.4104V16.2304H146.854V0.0251569H130.537V16.2047H114.22V32.4104H130.537Z" fill="#16181A"/>
<path d="M130.537 48.6152H114.22V64.7696H97.9025V80.9748H114.22V64.8204H130.537V81H146.854V64.7947H130.537V48.6152Z" fill="#16181A"/>
<path d="M16.3173 0.0251569H0V16.2304H16.3173V0.0251569Z" fill="#16181A"/>
<path d="M32.634 16.2304H16.3173L16.3167 32.4357H32.634V16.2304Z" fill="#16181A"/>
<path d="M32.634 48.6409H16.3167V64.7947H0V81H16.3167V64.8456H32.634V80.9748H48.9513V64.7696H32.634V48.6409Z" fill="#16181A"/>
<path d="M179.268 16.2047H162.951V32.4099H179.268V16.2047Z" fill="#16181A"/>
<path d="M162.951 32.4099L146.634 32.4104V48.6152H162.951V32.4099Z" fill="#16181A"/>
<path d="M195.585 32.4104L179.268 32.4099V48.6152H195.585V32.4104Z" fill="#16181A"/>
<path d="M179.268 48.6152H162.951V64.8204H179.268V48.6152Z" fill="#16181A"/>
<path d="M211.902 0H195.585V16.2047H211.902V0Z" fill="#16181A"/>
<path d="M228.22 32.4104V16.2304H244.537V0.0251569H228.22V16.2047H211.902L211.903 32.4104H228.22Z" fill="#16181A"/>
<path d="M228.22 48.6152H211.903V64.7696H195.585V80.9748H211.903V64.8204H228.22V81H244.537V64.7947H228.22V48.6152Z" fill="#16181A"/>
<path d="M276.951 16.2047H260.634V32.4099H276.951V16.2047Z" fill="#16181A"/>
<path d="M260.634 32.4099L244.317 32.4104V48.6152H260.634V32.4099Z" fill="#16181A"/>
<path d="M293.268 32.4104L276.951 32.4099V48.6152H293.268V32.4104Z" fill="#16181A"/>
<path d="M276.951 48.6152H260.634V64.8204H276.951V48.6152Z" fill="#16181A"/>
<path d="M309.585 0H293.268V16.2047H309.585V0Z" fill="#16181A"/>
<path d="M325.903 32.4104V16.2304H342.22V0.0251569H325.903V16.2047H309.586V32.4104H325.903Z" fill="#16181A"/>
<path d="M325.903 48.6152H309.586V64.7696H293.268V80.9748H309.586V64.8204H325.903V81H342.22V64.7947H325.903V48.6152Z" fill="#16181A"/>
<path d="M374.634 16.2047H358.317V32.4099H374.634V16.2047Z" fill="#16181A"/>
<path d="M358.317 32.4099L342 32.4104V48.6152H358.317V32.4099Z" fill="#16181A"/>
<path d="M390.951 32.4104L374.634 32.4099V48.6152H390.951V32.4104Z" fill="#16181A"/>
<path d="M374.634 48.6152H358.317V64.8204H374.634V48.6152Z" fill="#16181A"/>
<path d="M407.268 0H390.951V16.2047H407.268V0Z" fill="#16181A"/>
<path d="M423.586 32.4104V16.2304H439.903V0.0251569H423.586V16.2047H407.268V32.4104H423.586Z" fill="#16181A"/>
<path d="M423.586 48.6152H407.268V64.7696H390.951V80.9748H407.268V64.8204H423.586V81H439.903V64.7947H423.586V48.6152Z" fill="#16181A"/>
<path d="M472.317 16.2047H456V32.4099H472.317V16.2047Z" fill="#16181A"/>
<path d="M456 32.4099L439.683 32.4104V48.6152H456V32.4099Z" fill="#16181A"/>
<path d="M488.634 32.4104L472.317 32.4099V48.6152H488.634V32.4104Z" fill="#16181A"/>
<path d="M472.317 48.6152H456V64.8204H472.317V48.6152Z" fill="#16181A"/>
<path d="M504.951 0H488.634V16.2047H504.951V0Z" fill="#16181A"/>
<path d="M521.268 32.4104V16.2304H537.586V0.0251569H521.268V16.2047H504.951V32.4104H521.268Z" fill="#16181A"/>
<path d="M521.268 48.6152H504.951V64.7696H488.634V80.9748H504.951V64.8204H521.268V81H537.586V64.7947H521.268V48.6152Z" fill="#16181A"/>
<path d="M570 16.2047H553.683V32.4099H570V16.2047Z" fill="#16181A"/>
<path d="M553.683 32.4099L537.366 32.4104V48.6152H553.683V32.4099Z" fill="#16181A"/>
<path d="M586.317 32.4104L570 32.4099V48.6152H586.317V32.4104Z" fill="#16181A"/>
<path d="M570 48.6152H553.683V64.8204H570V48.6152Z" fill="#16181A"/>
<path d="M602.634 0H586.317V16.2047H602.634V0Z" fill="#16181A"/>
<path d="M618.951 32.4104V16.2304H635.269V0.0251569H618.951V16.2047H602.634L602.634 32.4104H618.951Z" fill="#16181A"/>
<path d="M618.951 48.6152H602.634V64.7696H586.317V80.9748H602.634V64.8204H618.951V81H635.269V64.7947H618.951V48.6152Z" fill="#16181A"/>
<path d="M667.682 16.2047H651.366V32.4099H667.682V16.2047Z" fill="#16181A"/>
<path d="M651.366 32.4099L635.048 32.4104V48.6152H651.366V32.4099Z" fill="#16181A"/>
<path d="M684 32.4104L667.682 32.4099V48.6152H684V32.4104Z" fill="#16181A"/>
<path d="M667.682 48.6152H651.366V64.8204H667.682V48.6152Z" fill="#16181A"/>
<path d="M700.316 0H684V16.2047H700.316V0Z" fill="#16181A"/>
<path d="M716.634 32.4104V16.2304H732.951V0.0251569H716.634V16.2047H700.316L700.317 32.4104H716.634Z" fill="#16181A"/>
<path d="M716.634 48.6152H700.317V64.7696H684V80.9748H700.317V64.8204H716.634V81H732.951V64.7947H716.634V48.6152Z" fill="#16181A"/>
<path d="M765.365 16.2047H749.048V32.4099H765.365V16.2047Z" fill="#16181A"/>
<path d="M749.048 32.4099L732.731 32.4104V48.6152H749.048V32.4099Z" fill="#16181A"/>
<path d="M781.682 32.4104L765.365 32.4099V48.6152H781.682V32.4104Z" fill="#16181A"/>
<path d="M765.365 48.6152H749.048V64.8204H765.365V48.6152Z" fill="#16181A"/>
<path d="M797.999 0H781.682V16.2047H797.999V0Z" fill="#16181A"/>
<path d="M814.317 32.4104V16.2304H830.634V0.0251569H814.317V16.2047H797.999L798 32.4104H814.317Z" fill="#16181A"/>
<path d="M814.317 48.6152H798V64.7696H781.682V80.9748H798V64.8204H814.317V81H830.634V64.7947H814.317V48.6152Z" fill="#16181A"/>
<path d="M863.048 16.2047H846.731V32.4099H863.048V16.2047Z" fill="#16181A"/>
<path d="M846.731 32.4099L830.414 32.4104V48.6152H846.731V32.4099Z" fill="#16181A"/>
<path d="M879.365 32.4104L863.048 32.4099V48.6152H879.365V32.4104Z" fill="#16181A"/>
<path d="M863.048 48.6152H846.731V64.8204H863.048V48.6152Z" fill="#16181A"/>
<path d="M895.682 0H879.365V16.2047H895.682V0Z" fill="#16181A"/>
<path d="M912 32.4104V16.2304H928.317V0.0251569H912V16.2047H895.682L895.683 32.4104H912Z" fill="#16181A"/>
<path d="M912 48.6152H895.683V64.7696H879.365V80.9748H895.683V64.8204H912V81H928.317V64.7947H912V48.6152Z" fill="#16181A"/>
<path d="M960.731 16.2047H944.414V32.4099H960.731V16.2047Z" fill="#16181A"/>
<path d="M944.414 32.4099L928.097 32.4104V48.6152H944.414V32.4099Z" fill="#16181A"/>
<path d="M977.048 32.4104L960.731 32.4099V48.6152H977.048V32.4104Z" fill="#16181A"/>
<path d="M960.731 48.6152H944.414V64.8204H960.731V48.6152Z" fill="#16181A"/>
<path d="M993.365 0H977.048V16.2047H993.365V0Z" fill="#16181A"/>
<path d="M1009.68 48.6152H993.365V64.7696H977.048V80.9748H993.365V64.8204H1009.68V81H1026V64.7947H1009.68V48.6152Z" fill="#16181A"/>
<path d="M1009.68 0.0251569V16.2047H993.365L993.365 32.4104H1009.68V16.2304H1026V0.0251569H1009.68Z" fill="#16181A"/>
<path d="M48.9513 0H32.634V16.2047H48.9513V0Z" fill="#16181A"/>
</svg>
