<svg width="1091" height="51" viewBox="0 0 1091 51" fill="none" xmlns="http://www.w3.org/2000/svg">
<path d="M35.9407 20.6502C40.7506 24.046 46.3623 4.07081 48.5668 0.675024C50.7714 -2.72076 41.5523 7.26683 38.1452 17.8537C35.9407 20.6502 26.3207 2.07328 23.1141 2.87229C23.1141 2.87229 31.1307 17.2544 35.9407 20.6502Z" fill="#16181A"/>
<path d="M36.0765 30.3498C31.2665 26.954 25.6549 46.9292 23.4503 50.325C21.2457 53.7208 30.4649 43.7332 33.8719 33.1463C36.0765 30.3498 45.6965 48.9267 48.9031 48.1277C48.9031 48.1277 40.887 33.7456 36.0765 30.3498Z" fill="#16181A"/>
<path d="M43.6806 27.6293C40.8748 25.432 59.5134 15.8439 58.7118 12.6479C58.7118 12.6479 44.2818 20.638 40.8748 25.432C37.4677 30.2261 57.5093 35.8191 60.9164 38.0164C64.3234 40.2137 54.3026 31.0251 43.6806 27.6293Z" fill="#16181A"/>
<path d="M31.1429 25.568C34.55 20.7739 14.5084 15.1809 11.1014 12.9836C7.69429 10.7863 17.7151 19.9749 28.3371 23.3707C31.1429 25.568 12.5043 35.1561 13.3065 38.3521C13.3065 38.3521 27.7359 30.362 31.1429 25.568Z" fill="#16181A"/>
<path d="M36.0086 46.3682C37.1927 49.6641 42.6045 45.0199 39.2976 42.0236C39.2976 42.0236 34.8239 43.0723 36.0086 46.3682Z" fill="#16181A"/>
<path d="M35.0889 9.66384C37.7945 8.1657 35.0889 3.37167 32.8342 3.97092C32.1083 4.16402 32.3833 11.162 35.0889 9.66384Z" fill="#16181A"/>
<path d="M1.9741 29.7384L2.62211 28.9893C2.62211 28.9893 4.72647 4.61622 0.668052 6.01615C0.668052 6.01615 -0.835065 36.3917 0.668052 42.5779C2.17117 48.7641 5.02709 42.0231 3.52398 36.3301C2.0203 30.6372 1.9741 29.7384 1.9741 29.7384Z" fill="#16181A"/>
<path d="M103.882 20.6502C108.692 24.046 114.303 4.07081 116.508 0.675024C118.712 -2.72076 109.493 7.26683 106.086 17.8537C103.882 20.6502 94.2616 2.07328 91.055 2.87229C91.055 2.87229 99.0716 17.2544 103.882 20.6502Z" fill="#16181A"/>
<path d="M104.017 30.3498C99.2075 26.954 93.5958 46.9292 91.3912 50.325C89.1867 53.7208 98.4058 43.7332 101.813 33.1463C104.017 30.3498 113.637 48.9267 116.844 48.1277C116.844 48.1277 108.827 33.7456 104.017 30.3498Z" fill="#16181A"/>
<path d="M111.621 27.6293C108.815 25.432 127.454 15.8439 126.652 12.6479C126.652 12.6479 112.222 20.638 108.815 25.432C105.408 30.2261 125.45 35.8191 128.857 38.0164C132.264 40.2137 122.243 31.0251 111.621 27.6293Z" fill="#16181A"/>
<path d="M99.0839 25.568C102.491 20.7739 82.4494 15.1809 79.0423 12.9836C75.6352 10.7863 85.656 19.9749 96.278 23.3707C99.0839 25.568 80.4452 35.1561 81.2469 38.3521C81.2469 38.3521 95.6768 30.362 99.0839 25.568Z" fill="#16181A"/>
<path d="M103.95 46.3682C105.134 49.6641 110.545 45.0199 107.239 42.0236C107.239 42.0236 102.765 43.0723 103.95 46.3682Z" fill="#16181A"/>
<path d="M103.03 9.66384C105.735 8.1657 103.03 3.37167 100.775 3.97092C100.049 4.16402 100.324 11.162 103.03 9.66384Z" fill="#16181A"/>
<path d="M69.9145 29.7384L70.5619 28.9893C70.5619 28.9893 72.6663 4.61622 68.6079 6.01615C68.6079 6.01615 67.1047 36.3917 68.6079 42.5779C70.111 48.7641 72.9669 42.0231 71.4638 36.3301C69.9612 30.6372 69.9145 29.7384 69.9145 29.7384Z" fill="#16181A"/>
<path d="M171.822 20.6502C176.632 24.046 182.244 4.07081 184.448 0.675024C186.653 -2.72076 177.434 7.26683 174.027 17.8537C171.822 20.6502 162.202 2.07328 158.995 2.87229C158.995 2.87229 167.012 17.2544 171.822 20.6502Z" fill="#16181A"/>
<path d="M171.958 30.3498C167.148 26.954 161.537 46.9292 159.332 50.325C157.128 53.7208 166.347 43.7332 169.754 33.1463C171.958 30.3498 181.578 48.9267 184.785 48.1277C184.785 48.1277 176.768 33.7456 171.958 30.3498Z" fill="#16181A"/>
<path d="M179.562 27.6293C176.756 25.432 195.395 15.8439 194.593 12.6479C194.593 12.6479 180.163 20.638 176.756 25.432C173.349 30.2261 193.391 35.8191 196.798 38.0164C200.205 40.2137 190.184 31.0251 179.562 27.6293Z" fill="#16181A"/>
<path d="M167.024 25.568C170.431 20.7739 150.39 15.1809 146.983 12.9836C143.576 10.7863 153.596 19.9749 164.218 23.3707C167.024 25.568 148.386 35.1561 149.187 38.3521C149.187 38.3521 163.617 30.362 167.024 25.568Z" fill="#16181A"/>
<path d="M171.89 46.3682C173.075 49.6641 178.486 45.0199 175.179 42.0236C175.179 42.0236 170.706 43.0723 171.89 46.3682Z" fill="#16181A"/>
<path d="M170.971 9.66384C173.676 8.1657 170.971 3.37167 168.716 3.97092C167.99 4.16402 168.265 11.162 170.971 9.66384Z" fill="#16181A"/>
<path d="M137.855 29.7384L138.503 28.9893C138.503 28.9893 140.608 4.61622 136.549 6.01615C136.549 6.01615 135.046 36.3917 136.549 42.5779C138.052 48.7641 140.908 42.0231 139.405 36.3301C137.902 30.6372 137.855 29.7384 137.855 29.7384Z" fill="#16181A"/>
<path d="M239.763 20.6502C244.573 24.046 250.184 4.07081 252.389 0.675024C254.594 -2.72076 245.375 7.26683 241.967 17.8537C239.763 20.6502 230.143 2.07328 226.936 2.87229C226.936 2.87229 234.953 17.2544 239.763 20.6502Z" fill="#16181A"/>
<path d="M239.899 30.3498C235.089 26.954 229.478 46.9292 227.273 50.325C225.069 53.7208 234.288 43.7332 237.695 33.1463C239.899 30.3498 249.519 48.9267 252.726 48.1277C252.726 48.1277 244.709 33.7456 239.899 30.3498Z" fill="#16181A"/>
<path d="M247.503 27.6293C244.697 25.432 263.336 15.8439 262.534 12.6479C262.534 12.6479 248.104 20.638 244.697 25.432C241.29 30.2261 261.332 35.8191 264.739 38.0164C268.146 40.2137 258.125 31.0251 247.503 27.6293Z" fill="#16181A"/>
<path d="M234.965 25.568C238.372 20.7739 218.331 15.1809 214.924 12.9836C211.517 10.7863 221.538 19.9749 232.159 23.3707C234.965 25.568 216.326 35.1561 217.129 38.3521C217.129 38.3521 231.558 30.362 234.965 25.568Z" fill="#16181A"/>
<path d="M239.831 46.3682C241.015 49.6641 246.427 45.0199 243.12 42.0236C243.12 42.0236 238.647 43.0723 239.831 46.3682Z" fill="#16181A"/>
<path d="M238.911 9.66384C241.617 8.1657 238.911 3.37167 236.656 3.97092C235.93 4.16402 236.206 11.162 238.911 9.66384Z" fill="#16181A"/>
<path d="M205.796 29.7384L206.444 28.9893C206.444 28.9893 208.548 4.61622 204.49 6.01615C204.49 6.01615 202.987 36.3917 204.49 42.5779C205.993 48.7641 208.849 42.0231 207.346 36.3301C205.843 30.6372 205.796 29.7384 205.796 29.7384Z" fill="#16181A"/>
<path d="M307.704 20.6502C312.514 24.046 318.125 4.07081 320.33 0.675024C322.535 -2.72076 313.315 7.26683 309.908 17.8537C307.704 20.6502 298.084 2.07328 294.877 2.87229C294.877 2.87229 302.894 17.2544 307.704 20.6502Z" fill="#16181A"/>
<path d="M307.84 30.3498C303.03 26.954 297.418 46.9292 295.213 50.325C293.009 53.7208 302.228 43.7332 305.635 33.1463C307.84 30.3498 317.46 48.9267 320.666 48.1277C320.666 48.1277 312.65 33.7456 307.84 30.3498Z" fill="#16181A"/>
<path d="M315.443 27.6293C312.637 25.432 331.276 15.8439 330.474 12.6479C330.474 12.6479 316.044 20.638 312.637 25.432C309.23 30.2261 329.272 35.8191 332.679 38.0164C336.086 40.2137 326.065 31.0251 315.443 27.6293Z" fill="#16181A"/>
<path d="M302.906 25.568C306.313 20.7739 286.271 15.1809 282.865 12.9836C279.457 10.7863 289.478 19.9749 300.1 23.3707C302.906 25.568 284.267 35.1561 285.069 38.3521C285.069 38.3521 299.499 30.362 302.906 25.568Z" fill="#16181A"/>
<path d="M307.772 46.3682C308.956 49.6641 314.368 45.0199 311.061 42.0236C311.061 42.0236 306.587 43.0723 307.772 46.3682Z" fill="#16181A"/>
<path d="M306.852 9.66384C309.558 8.1657 306.852 3.37167 304.597 3.97092C303.871 4.16402 304.146 11.162 306.852 9.66384Z" fill="#16181A"/>
<path d="M273.737 29.7384L274.385 28.9893C274.385 28.9893 276.489 4.61622 272.431 6.01615C272.431 6.01615 270.928 36.3917 272.431 42.5779C273.934 48.7641 276.79 42.0231 275.287 36.3301C273.783 30.6372 273.737 29.7384 273.737 29.7384Z" fill="#16181A"/>
<path d="M375.644 20.6502C380.454 24.046 386.066 4.07081 388.27 0.675024C390.475 -2.72076 381.256 7.26683 377.849 17.8537C375.644 20.6502 366.024 2.07328 362.818 2.87229C362.818 2.87229 370.834 17.2544 375.644 20.6502Z" fill="#16181A"/>
<path d="M375.781 30.3498C370.971 26.954 365.359 46.9292 363.154 50.325C360.95 53.7208 370.169 43.7332 373.576 33.1463C375.781 30.3498 385.401 48.9267 388.607 48.1277C388.607 48.1277 380.591 33.7456 375.781 30.3498Z" fill="#16181A"/>
<path d="M383.384 27.6293C380.578 25.432 399.217 15.8439 398.415 12.6479C398.415 12.6479 383.985 20.638 380.578 25.432C377.171 30.2261 397.213 35.8191 400.62 38.0164C404.027 40.2137 394.006 31.0251 383.384 27.6293Z" fill="#16181A"/>
<path d="M370.846 25.568C374.254 20.7739 354.212 15.1809 350.805 12.9836C347.398 10.7863 357.419 19.9749 368.041 23.3707C370.846 25.568 352.208 35.1561 353.009 38.3521C353.009 38.3521 367.439 30.362 370.846 25.568Z" fill="#16181A"/>
<path d="M375.713 46.3682C376.897 49.6641 382.309 45.0199 379.002 42.0236C379.002 42.0236 374.528 43.0723 375.713 46.3682Z" fill="#16181A"/>
<path d="M374.792 9.66384C377.498 8.1657 374.792 3.37167 372.538 3.97092C371.812 4.16402 372.087 11.162 374.792 9.66384Z" fill="#16181A"/>
<path d="M341.678 29.7384L342.326 28.9893C342.326 28.9893 344.43 4.61622 340.372 6.01615C340.372 6.01615 338.868 36.3917 340.372 42.5779C341.875 48.7641 344.731 42.0231 343.227 36.3301C341.724 30.6372 341.678 29.7384 341.678 29.7384Z" fill="#16181A"/>
<path d="M443.585 20.6502C448.395 24.046 454.007 4.07081 456.211 0.675024C458.416 -2.72076 449.197 7.26683 445.79 17.8537C443.585 20.6502 433.965 2.07328 430.758 2.87229C430.758 2.87229 438.775 17.2544 443.585 20.6502Z" fill="#16181A"/>
<path d="M443.721 30.3498C438.911 26.954 433.3 46.9292 431.095 50.325C428.891 53.7208 438.11 43.7332 441.517 33.1463C443.721 30.3498 453.341 48.9267 456.548 48.1277C456.548 48.1277 448.531 33.7456 443.721 30.3498Z" fill="#16181A"/>
<path d="M451.325 27.6293C448.519 25.432 467.158 15.8439 466.356 12.6479C466.356 12.6479 451.926 20.638 448.519 25.432C445.112 30.2261 465.154 35.8191 468.561 38.0164C471.968 40.2137 461.947 31.0251 451.325 27.6293Z" fill="#16181A"/>
<path d="M438.787 25.568C442.194 20.7739 422.153 15.1809 418.746 12.9836C415.339 10.7863 425.359 19.9749 435.982 23.3707C438.787 25.568 420.149 35.1561 420.95 38.3521C420.95 38.3521 435.38 30.362 438.787 25.568Z" fill="#16181A"/>
<path d="M443.654 46.3682C444.838 49.6641 450.249 45.0199 446.943 42.0236C446.943 42.0236 442.469 43.0723 443.654 46.3682Z" fill="#16181A"/>
<path d="M442.733 9.66384C445.439 8.1657 442.733 3.37167 440.479 3.97092C439.753 4.16402 440.028 11.162 442.733 9.66384Z" fill="#16181A"/>
<path d="M409.618 29.7384L410.266 28.9893C410.266 28.9893 412.37 4.61622 408.312 6.01615C408.312 6.01615 406.809 36.3917 408.312 42.5779C409.815 48.7641 412.671 42.0231 411.168 36.3301C409.665 30.6372 409.618 29.7384 409.618 29.7384Z" fill="#16181A"/>
<path d="M511.526 20.6502C516.336 24.046 521.948 4.07081 524.152 0.675024C526.357 -2.72076 517.138 7.26683 513.731 17.8537C511.526 20.6502 501.906 2.07328 498.699 2.87229C498.699 2.87229 506.716 17.2544 511.526 20.6502Z" fill="#16181A"/>
<path d="M511.662 30.3498C506.852 26.954 501.24 46.9292 499.036 50.325C496.831 53.7208 506.05 43.7332 509.457 33.1463C511.662 30.3498 521.282 48.9267 524.488 48.1277C524.488 48.1277 516.472 33.7456 511.662 30.3498Z" fill="#16181A"/>
<path d="M519.265 27.6293C516.46 25.432 535.098 15.8439 534.297 12.6479C534.297 12.6479 519.867 20.638 516.46 25.432C513.052 30.2261 533.094 35.8191 536.501 38.0164C539.908 40.2137 529.887 31.0251 519.265 27.6293Z" fill="#16181A"/>
<path d="M506.728 25.568C510.135 20.7739 490.093 15.1809 486.687 12.9836C483.28 10.7863 493.3 19.9749 503.922 23.3707C506.728 25.568 488.09 35.1561 488.891 38.3521C488.891 38.3521 503.321 30.362 506.728 25.568Z" fill="#16181A"/>
<path d="M511.594 46.3682C512.778 49.6641 518.19 45.0199 514.883 42.0236C514.883 42.0236 510.41 43.0723 511.594 46.3682Z" fill="#16181A"/>
<path d="M510.674 9.66384C513.38 8.1657 510.674 3.37167 508.42 3.97092C507.693 4.16402 507.969 11.162 510.674 9.66384Z" fill="#16181A"/>
<path d="M477.559 29.7384L478.207 28.9893C478.207 28.9893 480.311 4.61622 476.253 6.01615C476.253 6.01615 474.75 36.3917 476.253 42.5779C477.756 48.7641 480.612 42.0231 479.109 36.3301C477.606 30.6372 477.559 29.7384 477.559 29.7384Z" fill="#16181A"/>
<path d="M578.866 20.6502C583.676 24.046 589.287 4.07081 591.492 0.675024C593.696 -2.72076 584.477 7.26683 581.07 17.8537C578.866 20.6502 569.246 2.07328 566.039 2.87229C566.039 2.87229 574.056 17.2544 578.866 20.6502Z" fill="#16181A"/>
<path d="M579.002 30.3498C574.192 26.954 568.58 46.9292 566.375 50.325C564.171 53.7208 573.39 43.7332 576.797 33.1463C579.002 30.3498 588.622 48.9267 591.828 48.1277C591.828 48.1277 583.812 33.7456 579.002 30.3498Z" fill="#16181A"/>
<path d="M586.605 27.6293C583.799 25.432 602.438 15.8439 601.636 12.6479C601.636 12.6479 587.206 20.638 583.799 25.432C580.393 30.2261 600.434 35.8191 603.841 38.0164C607.248 40.2137 597.227 31.0251 586.605 27.6293Z" fill="#16181A"/>
<path d="M574.067 25.568C577.474 20.7739 557.433 15.1809 554.026 12.9836C550.619 10.7863 560.64 19.9749 571.262 23.3707C574.067 25.568 555.429 35.1561 556.23 38.3521C556.23 38.3521 570.66 30.362 574.067 25.568Z" fill="#16181A"/>
<path d="M578.934 46.3682C580.118 49.6641 585.53 45.0199 582.223 42.0236C582.223 42.0236 577.749 43.0723 578.934 46.3682Z" fill="#16181A"/>
<path d="M578.013 9.66384C580.719 8.1657 578.013 3.37167 575.759 3.97092C575.033 4.16402 575.308 11.162 578.013 9.66384Z" fill="#16181A"/>
<path d="M544.899 29.7384L545.547 28.9893C545.547 28.9893 547.651 4.61622 543.593 6.01615C543.593 6.01615 542.089 36.3917 543.593 42.5779C545.096 48.7641 547.952 42.0231 546.448 36.3301C544.945 30.6372 544.899 29.7384 544.899 29.7384Z" fill="#16181A"/>
<path d="M646.807 20.6502C651.617 24.046 657.228 4.07081 659.433 0.675024C661.637 -2.72076 652.418 7.26683 649.011 17.8537C646.807 20.6502 637.187 2.07328 633.98 2.87229C633.98 2.87229 641.996 17.2544 646.807 20.6502Z" fill="#16181A"/>
<path d="M646.943 30.3498C642.133 26.954 636.521 46.9292 634.316 50.325C632.112 53.7208 641.331 43.7332 644.738 33.1463C646.943 30.3498 656.562 48.9267 659.769 48.1277C659.769 48.1277 651.752 33.7456 646.943 30.3498Z" fill="#16181A"/>
<path d="M654.546 27.6293C651.74 25.432 670.379 15.8439 669.577 12.6479C669.577 12.6479 655.147 20.638 651.74 25.432C648.333 30.2261 668.375 35.8191 671.782 38.0164C675.189 40.2137 665.168 31.0251 654.546 27.6293Z" fill="#16181A"/>
<path d="M642.008 25.568C645.415 20.7739 625.374 15.1809 621.967 12.9836C618.56 10.7863 628.581 19.9749 639.203 23.3707C642.008 25.568 623.37 35.1561 624.171 38.3521C624.171 38.3521 638.601 30.362 642.008 25.568Z" fill="#16181A"/>
<path d="M646.875 46.3682C648.059 49.6641 653.471 45.0199 650.163 42.0236C650.163 42.0236 645.69 43.0723 646.875 46.3682Z" fill="#16181A"/>
<path d="M645.954 9.66384C648.659 8.1657 645.954 3.37167 643.7 3.97092C642.974 4.16402 643.249 11.162 645.954 9.66384Z" fill="#16181A"/>
<path d="M612.839 29.7384L613.487 28.9893C613.487 28.9893 615.591 4.61622 611.533 6.01615C611.533 6.01615 610.03 36.3917 611.533 42.5779C613.036 48.7641 615.892 42.0231 614.389 36.3301C612.886 30.6372 612.839 29.7384 612.839 29.7384Z" fill="#16181A"/>
<path d="M714.747 20.6502C719.557 24.046 725.169 4.07081 727.374 0.675024C729.578 -2.72076 720.359 7.26683 716.952 17.8537C714.747 20.6502 705.128 2.07328 701.92 2.87229C701.92 2.87229 709.937 17.2544 714.747 20.6502Z" fill="#16181A"/>
<path d="M714.883 30.3498C710.073 26.954 704.461 46.9292 702.257 50.325C700.052 53.7208 709.272 43.7332 712.679 33.1463C714.883 30.3498 724.503 48.9267 727.71 48.1277C727.71 48.1277 719.693 33.7456 714.883 30.3498Z" fill="#16181A"/>
<path d="M722.487 27.6293C719.681 25.432 738.319 15.8439 737.518 12.6479C737.518 12.6479 723.088 20.638 719.681 25.432C716.274 30.2261 736.316 35.8191 739.723 38.0164C743.13 40.2137 733.109 31.0251 722.487 27.6293Z" fill="#16181A"/>
<path d="M709.949 25.568C713.356 20.7739 693.315 15.1809 689.908 12.9836C686.501 10.7863 696.522 19.9749 707.143 23.3707C709.949 25.568 691.311 35.1561 692.113 38.3521C692.113 38.3521 706.542 30.362 709.949 25.568Z" fill="#16181A"/>
<path d="M714.815 46.3682C716 49.6641 721.411 45.0199 718.104 42.0236C718.104 42.0236 713.631 43.0723 714.815 46.3682Z" fill="#16181A"/>
<path d="M713.895 9.66384C716.6 8.1657 713.895 3.37167 711.641 3.97092C710.915 4.16402 711.19 11.162 713.895 9.66384Z" fill="#16181A"/>
<path d="M680.78 29.7384L681.428 28.9893C681.428 28.9893 683.532 4.61622 679.474 6.01615C679.474 6.01615 677.971 36.3917 679.474 42.5779C680.977 48.7641 683.833 42.0231 682.33 36.3301C680.827 30.6372 680.78 29.7384 680.78 29.7384Z" fill="#16181A"/>
<path d="M782.688 20.6502C787.498 24.046 793.11 4.07081 795.314 0.675024C797.519 -2.72076 788.3 7.26683 784.892 17.8537C782.688 20.6502 773.068 2.07328 769.861 2.87229C769.861 2.87229 777.878 17.2544 782.688 20.6502Z" fill="#16181A"/>
<path d="M782.824 30.3498C778.014 26.954 772.402 46.9292 770.198 50.325C767.993 53.7208 777.212 43.7332 780.619 33.1463C782.824 30.3498 792.444 48.9267 795.65 48.1277C795.65 48.1277 787.634 33.7456 782.824 30.3498Z" fill="#16181A"/>
<path d="M790.427 27.6293C787.621 25.432 806.26 15.8439 805.458 12.6479C805.458 12.6479 791.029 20.638 787.622 25.432C784.214 30.2261 804.256 35.8191 807.663 38.0164C811.07 40.2137 801.049 31.0251 790.427 27.6293Z" fill="#16181A"/>
<path d="M777.89 25.568C781.297 20.7739 761.256 15.1809 757.849 12.9836C754.442 10.7863 764.462 19.9749 775.084 23.3707C777.89 25.568 759.252 35.1561 760.053 38.3521C760.053 38.3521 774.483 30.362 777.89 25.568Z" fill="#16181A"/>
<path d="M782.756 46.3682C783.941 49.6641 789.352 45.0199 786.045 42.0236C786.045 42.0236 781.571 43.0723 782.756 46.3682Z" fill="#16181A"/>
<path d="M781.836 9.66384C784.541 8.1657 781.836 3.37167 779.581 3.97092C778.855 4.16402 779.131 11.162 781.836 9.66384Z" fill="#16181A"/>
<path d="M748.721 29.7384L749.369 28.9893C749.369 28.9893 751.473 4.61622 747.415 6.01615C747.415 6.01615 745.912 36.3917 747.415 42.5779C748.917 48.7641 751.773 42.0231 750.27 36.3301C748.768 30.6372 748.721 29.7384 748.721 29.7384Z" fill="#16181A"/>
<path d="M850.629 20.6502C855.439 24.046 861.05 4.07081 863.255 0.675024C865.46 -2.72076 856.24 7.26683 852.833 17.8537C850.629 20.6502 841.009 2.07328 837.802 2.87229C837.802 2.87229 845.818 17.2544 850.629 20.6502Z" fill="#16181A"/>
<path d="M850.765 30.3498C845.955 26.954 840.343 46.9292 838.138 50.325C835.934 53.7208 845.153 43.7332 848.56 33.1463C850.765 30.3498 860.385 48.9267 863.591 48.1277C863.591 48.1277 855.575 33.7456 850.765 30.3498Z" fill="#16181A"/>
<path d="M858.368 27.6293C855.562 25.432 874.201 15.8439 873.399 12.6479C873.399 12.6479 858.969 20.638 855.562 25.432C852.155 30.2261 872.197 35.8191 875.604 38.0164C879.011 40.2137 868.99 31.0251 858.368 27.6293Z" fill="#16181A"/>
<path d="M845.831 25.568C849.238 20.7739 829.197 15.1809 825.79 12.9836C822.383 10.7863 832.403 19.9749 843.025 23.3707C845.831 25.568 827.193 35.1561 827.994 38.3521C827.994 38.3521 842.424 30.362 845.831 25.568Z" fill="#16181A"/>
<path d="M850.697 46.3682C851.881 49.6641 857.293 45.0199 853.985 42.0236C853.985 42.0236 849.512 43.0723 850.697 46.3682Z" fill="#16181A"/>
<path d="M849.777 9.66384C852.482 8.1657 849.777 3.37167 847.522 3.97092C846.796 4.16402 847.071 11.162 849.777 9.66384Z" fill="#16181A"/>
<path d="M816.662 29.7384L817.309 28.9893C817.309 28.9893 819.414 4.61622 815.355 6.01615C815.355 6.01615 813.852 36.3917 815.355 42.5779C816.858 48.7641 819.714 42.0231 818.211 36.3301C816.708 30.6372 816.662 29.7384 816.662 29.7384Z" fill="#16181A"/>
<path d="M918.569 20.6502C923.38 24.046 928.991 4.07081 931.196 0.675024C933.401 -2.72076 924.181 7.26683 920.774 17.8537C918.569 20.6502 908.95 2.07328 905.743 2.87229C905.743 2.87229 913.759 17.2544 918.569 20.6502Z" fill="#16181A"/>
<path d="M918.706 30.3498C913.895 26.954 908.284 46.9292 906.079 50.325C903.874 53.7208 913.094 43.7332 916.501 33.1463C918.706 30.3498 928.325 48.9267 931.532 48.1277C931.532 48.1277 923.516 33.7456 918.706 30.3498Z" fill="#16181A"/>
<path d="M926.309 27.6293C923.503 25.432 942.141 15.8439 941.34 12.6479C941.34 12.6479 926.91 20.638 923.503 25.432C920.096 30.2261 940.138 35.8191 943.545 38.0164C946.952 40.2137 936.931 31.0251 926.309 27.6293Z" fill="#16181A"/>
<path d="M913.772 25.568C917.179 20.7739 897.137 15.1809 893.73 12.9836C890.323 10.7863 900.344 19.9749 910.966 23.3707C913.771 25.568 895.133 35.1561 895.935 38.3521C895.935 38.3521 910.365 30.362 913.772 25.568Z" fill="#16181A"/>
<path d="M918.637 46.3682C919.822 49.6641 925.233 45.0199 921.926 42.0236C921.926 42.0236 917.453 43.0723 918.637 46.3682Z" fill="#16181A"/>
<path d="M917.717 9.66384C920.423 8.1657 917.717 3.37167 915.463 3.97092C914.737 4.16402 915.012 11.162 917.717 9.66384Z" fill="#16181A"/>
<path d="M884.602 29.7384L885.25 28.9893C885.25 28.9893 887.354 4.61622 883.296 6.01615C883.296 6.01615 881.793 36.3917 883.296 42.5779C884.799 48.7641 887.655 42.0231 886.152 36.3301C884.649 30.6372 884.602 29.7384 884.602 29.7384Z" fill="#16181A"/>
<path d="M986.51 20.6502C991.321 24.046 996.932 4.07081 999.136 0.675024C1001.34 -2.72076 992.122 7.26683 988.715 17.8537C986.51 20.6502 976.89 2.07328 973.684 2.87229C973.684 2.87229 981.7 17.2544 986.51 20.6502Z" fill="#16181A"/>
<path d="M986.646 30.3498C981.836 26.954 976.224 46.9292 974.02 50.325C971.815 53.7208 981.034 43.7332 984.441 33.1463C986.646 30.3498 996.266 48.9267 999.473 48.1277C999.473 48.1277 991.457 33.7456 986.646 30.3498Z" fill="#16181A"/>
<path d="M994.25 27.6293C991.444 25.432 1010.08 15.8439 1009.28 12.6479C1009.28 12.6479 994.851 20.638 991.444 25.432C988.037 30.2261 1008.08 35.8191 1011.49 38.0164C1014.89 40.2137 1004.87 31.0251 994.25 27.6293Z" fill="#16181A"/>
<path d="M981.712 25.568C985.119 20.7739 965.078 15.1809 961.671 12.9836C958.264 10.7863 968.285 19.9749 978.907 23.3707C981.712 25.568 963.074 35.1561 963.875 38.3521C963.875 38.3521 978.305 30.362 981.712 25.568Z" fill="#16181A"/>
<path d="M986.578 46.3682C987.763 49.6641 993.174 45.0199 989.867 42.0236C989.867 42.0236 985.393 43.0723 986.578 46.3682Z" fill="#16181A"/>
<path d="M985.658 9.66384C988.364 8.1657 985.658 3.37167 983.404 3.97092C982.677 4.16402 982.952 11.162 985.658 9.66384Z" fill="#16181A"/>
<path d="M952.543 29.7384L953.191 28.9893C953.191 28.9893 955.295 4.61622 951.237 6.01615C951.237 6.01615 949.734 36.3917 951.237 42.5779C952.74 48.7641 955.596 42.0231 954.093 36.3301C952.59 30.6372 952.543 29.7384 952.543 29.7384Z" fill="#16181A"/>
<path d="M1055.05 20.6502C1059.86 24.046 1065.47 4.07081 1067.68 0.675024C1069.88 -2.72076 1060.66 7.26683 1057.26 17.8537C1055.05 20.6502 1045.43 2.07328 1042.23 2.87229C1042.23 2.87229 1050.24 17.2544 1055.05 20.6502Z" fill="#16181A"/>
<path d="M1055.19 30.3498C1050.38 26.954 1044.77 46.9292 1042.56 50.325C1040.36 53.7208 1049.58 43.7332 1052.98 33.1463C1055.19 30.3498 1064.81 48.9267 1068.01 48.1277C1068.01 48.1277 1060 33.7456 1055.19 30.3498Z" fill="#16181A"/>
<path d="M1062.79 27.6293C1059.99 25.432 1078.62 15.8439 1077.82 12.6479C1077.82 12.6479 1063.39 20.638 1059.99 25.432C1056.58 30.2261 1076.62 35.8191 1080.03 38.0164C1083.43 40.2137 1073.41 31.0251 1062.79 27.6293Z" fill="#16181A"/>
<path d="M1050.25 25.568C1053.66 20.7739 1033.62 15.1809 1030.21 12.9836C1026.81 10.7863 1036.83 19.9749 1047.45 23.3707C1050.25 25.568 1031.62 35.1561 1032.42 38.3521C1032.42 38.3521 1046.85 30.362 1050.25 25.568Z" fill="#16181A"/>
<path d="M1055.12 46.3682C1056.3 49.6641 1061.72 45.0199 1058.41 42.0236C1058.41 42.0236 1053.94 43.0723 1055.12 46.3682Z" fill="#16181A"/>
<path d="M1054.2 9.66384C1056.91 8.1657 1054.2 3.37167 1051.95 3.97092C1051.22 4.16402 1051.49 11.162 1054.2 9.66384Z" fill="#16181A"/>
<path d="M1021.09 29.7384L1021.73 28.9893C1021.73 28.9893 1023.84 4.61622 1019.78 6.01615C1019.78 6.01615 1018.28 36.3917 1019.78 42.5779C1021.28 48.7641 1024.14 42.0231 1022.63 36.3301C1021.13 30.6372 1021.09 29.7384 1021.09 29.7384Z" fill="#16181A"/>
<path d="M1089.03 29.7384L1089.67 28.9893C1089.67 28.9893 1091.78 4.61622 1087.72 6.01615C1087.72 6.01615 1086.22 36.3917 1087.72 42.5779C1089.22 48.7641 1092.08 42.0231 1090.58 36.3301C1089.07 30.6372 1089.03 29.7384 1089.03 29.7384Z" fill="#16181A"/>
</svg>
