<svg width="964" height="105" viewBox="0 0 964 105" fill="none" xmlns="http://www.w3.org/2000/svg">
<path d="M52.5057 83.3271C35.5059 83.3271 21.6755 69.4983 21.6755 52.5005C21.6755 35.5021 35.5059 21.6734 52.5057 21.6734C69.506 21.6734 83.3364 35.5021 83.3364 52.5005C83.3364 69.4983 69.506 83.3271 52.5057 83.3271ZM52.5057 25.1735C37.4361 25.1735 25.1759 37.4327 25.1759 52.5005C25.1759 67.5682 37.4361 79.827 52.5057 79.827C67.5757 79.827 79.8359 67.5682 79.8359 52.5005C79.8359 37.4327 67.5757 25.1735 52.5057 25.1735Z" fill="#16181A"/>
<path d="M74.7507 50.2189L67.4562 46.0078L69.636 37.8727C70.0916 36.1721 68.5354 34.6157 66.8346 35.0717L58.6985 37.2512L54.487 29.9571C53.6063 28.4325 51.4055 28.4325 50.5254 29.9571L46.3138 37.2512L38.1777 35.0717C36.477 34.6157 34.9208 36.1716 35.3763 37.8727L37.5561 46.0078L30.2616 50.2189C28.7369 51.0994 28.7369 53.3 30.2616 54.1805L37.5561 58.3916L35.3763 66.5273C34.9203 68.2273 36.477 69.7838 38.1777 69.3283L46.3138 67.1488L50.5254 74.4429C51.4055 75.9674 53.6068 75.9674 54.487 74.4429L58.6985 67.1488L66.8346 69.3283C68.5354 69.7838 70.0916 68.2278 69.636 66.5273L67.4562 58.3916L74.7507 54.1805C76.2754 53.3005 76.2754 51.0994 74.7507 50.2189ZM58.5995 52.5005C58.5995 55.865 55.8711 58.5931 52.5057 58.5931C49.1407 58.5931 46.4123 55.8655 46.4123 52.5005C46.4123 49.1354 49.1407 46.4074 52.5057 46.4074C55.8711 46.4074 58.5995 49.1349 58.5995 52.5005Z" fill="#16181A"/>
<path d="M16.7913 50.2634C17.2974 42.0653 20.5628 34.6181 25.6715 28.832L13.7964 16.9583C5.66978 25.8024 0.537073 37.4387 0 50.2634H16.7913Z" fill="#16181A"/>
<path d="M28.8349 25.6689C34.6217 20.5609 42.0703 17.2963 50.2689 16.7898V0.000488291C37.4426 0.537499 25.805 5.66959 16.9598 13.7952L28.8349 25.6689Z" fill="#16181A"/>
<path d="M54.743 0.000488291V16.7898C62.9416 17.2958 70.3901 20.5609 76.1769 25.6689L88.052 13.7952C79.2068 5.66959 67.5692 0.537499 54.743 0.000488291Z" fill="#16181A"/>
<path d="M25.6715 76.1685C20.5628 70.3823 17.2974 62.9347 16.7913 54.737H0C0.537073 67.5618 5.66978 79.198 13.7964 88.0422L25.6715 76.1685Z" fill="#16181A"/>
<path d="M50.2689 88.2107C42.0698 87.7047 34.6217 84.4401 28.8349 79.3315L16.9603 91.2052C25.8055 99.3309 37.4426 104.463 50.2694 105L50.2689 88.2107Z" fill="#16181A"/>
<path d="M88.2206 54.737C87.7145 62.9352 84.4491 70.3823 79.3409 76.1689L91.216 88.0422C99.3426 79.198 104.475 67.5618 105.012 54.737H88.2206Z" fill="#16181A"/>
<path d="M79.3404 28.832C84.4491 34.6181 87.7145 42.0658 88.2201 50.2634H105.011C104.474 37.4387 99.3416 25.8024 91.215 16.9583L79.3404 28.832Z" fill="#16181A"/>
<path d="M76.1769 79.3315C70.3901 84.4401 62.9416 87.7047 54.743 88.2107V105C67.5692 104.463 79.2068 99.3309 88.052 91.2052L76.1769 79.3315Z" fill="#16181A"/>
<path d="M112.903 30.2611C116.985 18.3549 124.253 7.93065 133.689 0H92.1171C101.553 7.93065 108.822 18.3554 112.903 30.2611Z" fill="#16181A"/>
<path d="M112.903 74.7059C116.985 86.6121 124.253 97.0363 133.689 104.967H92.1171C101.553 97.0363 108.822 86.6121 112.903 74.7059Z" fill="#16181A"/>
<path d="M173.301 83.3271C156.301 83.3271 142.47 69.4983 142.47 52.5005C142.47 35.5021 156.301 21.6734 173.301 21.6734C190.301 21.6734 204.131 35.5021 204.131 52.5005C204.131 69.4983 190.301 83.3271 173.301 83.3271ZM173.301 25.1735C158.231 25.1735 145.971 37.4327 145.971 52.5005C145.971 67.5682 158.231 79.827 173.301 79.827C188.371 79.827 200.631 67.5682 200.631 52.5005C200.631 37.4327 188.371 25.1735 173.301 25.1735Z" fill="#16181A"/>
<path d="M195.546 50.2189L188.251 46.0078L190.431 37.8727C190.887 36.1721 189.33 34.6157 187.63 35.0717L179.494 37.2512L175.282 29.9571C174.402 28.4325 172.201 28.4325 171.32 29.9571L167.109 37.2512L158.973 35.0717C157.272 34.6157 155.716 36.1716 156.171 37.8727L158.351 46.0078L151.057 50.2189C149.532 51.0994 149.532 53.3 151.057 54.1805L158.351 58.3916L156.171 66.5273C155.716 68.2273 157.272 69.7838 158.973 69.3283L167.109 67.1488L171.32 74.4429C172.201 75.9674 174.402 75.9674 175.282 74.4429L179.494 67.1488L187.63 69.3283C189.33 69.7838 190.887 68.2278 190.431 66.5273L188.251 58.3916L195.546 54.1805C197.07 53.3005 197.07 51.0994 195.546 50.2189ZM179.395 52.5005C179.395 55.865 176.666 58.5931 173.301 58.5931C169.936 58.5931 167.207 55.8655 167.207 52.5005C167.207 49.1354 169.936 46.4074 173.301 46.4074C176.667 46.4074 179.395 49.1349 179.395 52.5005Z" fill="#16181A"/>
<path d="M137.587 50.2634C138.093 42.0653 141.358 34.6181 146.467 28.832L134.591 16.9583C126.465 25.8024 121.332 37.4387 120.795 50.2634H137.587Z" fill="#16181A"/>
<path d="M149.63 25.6689C155.417 20.5609 162.865 17.2963 171.064 16.7898V0.000488291C158.238 0.537499 146.6 5.66959 137.755 13.7952L149.63 25.6689Z" fill="#16181A"/>
<path d="M175.538 0.000488291V16.7898C183.737 17.2958 191.185 20.5609 196.972 25.6689L208.847 13.7952C200.002 5.66959 188.365 0.537499 175.538 0.000488291Z" fill="#16181A"/>
<path d="M146.467 76.1685C141.358 70.3823 138.092 62.9347 137.587 54.737H120.796C121.333 67.5618 126.465 79.198 134.592 88.0422L146.467 76.1685Z" fill="#16181A"/>
<path d="M171.064 88.2107C162.865 87.7047 155.417 84.4401 149.63 79.3315L137.755 91.2052C146.6 99.3309 158.238 104.463 171.064 105V88.2107Z" fill="#16181A"/>
<path d="M209.016 54.737C208.51 62.9352 205.244 70.3823 200.135 76.1689L212.011 88.0422C220.137 79.198 225.27 67.5618 225.807 54.737H209.016Z" fill="#16181A"/>
<path d="M200.136 28.832C205.245 34.6181 208.51 42.0658 209.016 50.2634H225.807C225.27 37.4387 220.138 25.8024 212.011 16.9583L200.136 28.832Z" fill="#16181A"/>
<path d="M196.972 79.3315C191.185 84.4401 183.737 87.7047 175.538 88.2107V105C188.364 104.463 200.002 99.3309 208.847 91.2052L196.972 79.3315Z" fill="#16181A"/>
<path d="M233.698 30.2611C237.781 18.3549 245.049 7.93065 254.485 0H212.913C222.349 7.93065 229.617 18.3554 233.698 30.2611Z" fill="#16181A"/>
<path d="M233.698 74.7059C237.781 86.6121 245.049 97.0363 254.485 104.967H212.913C222.349 97.0363 229.617 86.6121 233.698 74.7059Z" fill="#16181A"/>
<path d="M298.57 83.3271C281.57 83.3271 267.74 69.4983 267.74 52.5005C267.74 35.5021 281.57 21.6734 298.57 21.6734C315.57 21.6734 329.401 35.5021 329.401 52.5005C329.401 69.4983 315.57 83.3271 298.57 83.3271ZM298.57 25.1735C283.5 25.1735 271.24 37.4327 271.24 52.5005C271.24 67.5682 283.5 79.827 298.57 79.827C313.64 79.827 325.9 67.5682 325.9 52.5005C325.9 37.4327 313.64 25.1735 298.57 25.1735Z" fill="#16181A"/>
<path d="M320.815 50.2189L313.52 46.0078L315.701 37.8727C316.156 36.1721 314.6 34.6157 312.899 35.0717L304.763 37.2512L300.552 29.9571C299.672 28.4325 297.47 28.4325 296.59 29.9571L292.379 37.2512L284.242 35.0717C282.542 34.6157 280.985 36.1716 281.441 37.8727L283.621 46.0078L276.326 50.2189C274.802 51.0994 274.802 53.3 276.326 54.1805L283.621 58.3916L281.441 66.5273C280.985 68.2273 282.542 69.7838 284.242 69.3283L292.379 67.1488L296.59 74.4429C297.471 75.9674 299.672 75.9674 300.552 74.4429L304.763 67.1488L312.899 69.3283C314.6 69.7838 316.157 68.2278 315.701 66.5273L313.52 58.3916L320.815 54.1805C322.34 53.3005 322.34 51.0994 320.815 50.2189ZM304.664 52.5005C304.664 55.865 301.935 58.5931 298.57 58.5931C295.205 58.5931 292.477 55.8655 292.477 52.5005C292.477 49.1354 295.205 46.4074 298.57 46.4074C301.935 46.4074 304.664 49.1349 304.664 52.5005Z" fill="#16181A"/>
<path d="M262.855 50.2634C263.362 42.0653 266.627 34.6181 271.736 28.832L259.861 16.9583C251.734 25.8024 246.601 37.4387 246.064 50.2634H262.855Z" fill="#16181A"/>
<path d="M274.899 25.6689C280.686 20.5609 288.134 17.2963 296.333 16.7898V0.000488291C283.507 0.537499 271.869 5.66959 263.024 13.7952L274.899 25.6689Z" fill="#16181A"/>
<path d="M300.807 0.000488291V16.7898C309.006 17.2958 316.454 20.5609 322.241 25.6689L334.116 13.7952C325.271 5.66959 313.633 0.537499 300.807 0.000488291Z" fill="#16181A"/>
<path d="M271.736 76.1685C266.627 70.3823 263.362 62.9347 262.855 54.737H246.064C246.601 67.5618 251.734 79.198 259.861 88.0422L271.736 76.1685Z" fill="#16181A"/>
<path d="M296.333 88.2107C288.134 87.7047 280.686 84.4401 274.899 79.3315L263.024 91.2052C271.869 99.3309 283.507 104.463 296.333 105V88.2107Z" fill="#16181A"/>
<path d="M334.285 54.737C333.779 62.9352 330.513 70.3823 325.405 76.1689L337.28 88.0422C345.406 79.198 350.539 67.5618 351.076 54.737H334.285Z" fill="#16181A"/>
<path d="M325.405 28.832C330.513 34.6181 333.779 42.0658 334.285 50.2634H351.076C350.539 37.4387 345.406 25.8024 337.28 16.9583L325.405 28.832Z" fill="#16181A"/>
<path d="M322.241 79.3315C316.454 84.4401 309.006 87.7047 300.807 88.2107V105C313.633 104.463 325.271 99.3309 334.116 91.2052L322.241 79.3315Z" fill="#16181A"/>
<path d="M358.968 30.2611C363.049 18.3549 370.318 7.93065 379.754 0H338.182C347.618 7.93065 354.886 18.3554 358.968 30.2611Z" fill="#16181A"/>
<path d="M358.968 74.7059C363.049 86.6121 370.318 97.0363 379.754 104.967H338.182C347.618 97.0363 354.886 86.6121 358.968 74.7059Z" fill="#16181A"/>
<path d="M419.365 83.3271C402.365 83.3271 388.535 69.4983 388.535 52.5005C388.535 35.5021 402.365 21.6734 419.365 21.6734C436.366 21.6734 450.196 35.5021 450.196 52.5005C450.196 69.4983 436.366 83.3271 419.365 83.3271ZM419.365 25.1735C404.295 25.1735 392.035 37.4327 392.035 52.5005C392.035 67.5682 404.295 79.827 419.365 79.827C434.435 79.827 446.696 67.5682 446.696 52.5005C446.696 37.4327 434.435 25.1735 419.365 25.1735Z" fill="#16181A"/>
<path d="M441.61 50.2189L434.315 46.0078L436.496 37.8727C436.951 36.1721 435.395 34.6157 433.694 35.0717L425.558 37.2512L421.347 29.9571C420.467 28.4325 418.265 28.4325 417.385 29.9571L413.174 37.2512L405.037 35.0717C403.337 34.6157 401.78 36.1716 402.236 37.8727L404.416 46.0078L397.122 50.2189C395.597 51.0994 395.597 53.3 397.122 54.1805L404.416 58.3916L402.236 66.5273C401.78 68.2273 403.337 69.7838 405.037 69.3283L413.174 67.1488L417.385 74.4429C418.266 75.9674 420.467 75.9674 421.347 74.4429L425.558 67.1488L433.694 69.3283C435.395 69.7838 436.951 68.2278 436.496 66.5273L434.315 58.3916L441.61 54.1805C443.135 53.3005 443.135 51.0994 441.61 50.2189ZM425.459 52.5005C425.459 55.865 422.73 58.5931 419.365 58.5931C416 58.5931 413.272 55.8655 413.272 52.5005C413.272 49.1354 416 46.4074 419.365 46.4074C422.73 46.4074 425.459 49.1349 425.459 52.5005Z" fill="#16181A"/>
<path d="M383.651 50.2634C384.157 42.0653 387.422 34.6181 392.531 28.832L380.656 16.9583C372.529 25.8024 367.397 37.4387 366.86 50.2634H383.651Z" fill="#16181A"/>
<path d="M395.694 25.6689C401.481 20.5609 408.929 17.2963 417.129 16.7898V0.000488291C404.302 0.537499 392.665 5.66959 383.82 13.7952L395.694 25.6689Z" fill="#16181A"/>
<path d="M421.602 0.000488291V16.7898C429.801 17.2958 437.249 20.5609 443.037 25.6689L454.912 13.7952C446.066 5.66959 434.429 0.537499 421.602 0.000488291Z" fill="#16181A"/>
<path d="M392.531 76.1685C387.422 70.3823 384.157 62.9347 383.65 54.737H366.859C367.397 67.5618 372.529 79.198 380.656 88.0422L392.531 76.1685Z" fill="#16181A"/>
<path d="M417.129 88.2107C408.929 87.7047 401.481 84.4401 395.694 79.3315L383.819 91.2052C392.664 99.3309 404.302 104.463 417.128 105V88.2107H417.129Z" fill="#16181A"/>
<path d="M455.08 54.737C454.574 62.9352 451.308 70.3823 446.2 76.1689L458.075 88.0422C466.201 79.198 471.334 67.5618 471.871 54.737H455.08Z" fill="#16181A"/>
<path d="M446.2 28.832C451.309 34.6181 454.574 42.0658 455.08 50.2634H471.872C471.334 37.4387 466.202 25.8024 458.075 16.9583L446.2 28.832Z" fill="#16181A"/>
<path d="M443.037 79.3315C437.249 84.4401 429.801 87.7047 421.602 88.2107V105C434.428 104.463 446.066 99.3309 454.911 91.2052L443.037 79.3315Z" fill="#16181A"/>
<path d="M479.763 30.2611C483.845 18.3549 491.113 7.93065 500.549 0H458.977C468.413 7.93065 475.681 18.3554 479.763 30.2611Z" fill="#16181A"/>
<path d="M479.763 74.7059C483.845 86.6121 491.113 97.0363 500.549 104.967H458.977C468.413 97.0363 475.681 86.6121 479.763 74.7059Z" fill="#16181A"/>
<path d="M544.634 83.3271C527.635 83.3271 513.804 69.4983 513.804 52.5005C513.804 35.5021 527.635 21.6734 544.634 21.6734C561.634 21.6734 575.465 35.5021 575.465 52.5005C575.465 69.4983 561.634 83.3271 544.634 83.3271ZM544.634 25.1735C529.564 25.1735 517.305 37.4327 517.305 52.5005C517.305 67.5682 529.565 79.827 544.634 79.827C559.704 79.827 571.964 67.5682 571.964 52.5005C571.964 37.4327 559.705 25.1735 544.634 25.1735Z" fill="#16181A"/>
<path d="M566.879 50.2189L559.584 46.0078L561.764 37.8727C562.219 36.1721 560.664 34.6157 558.963 35.0717L550.826 37.2512L546.614 29.9571C545.734 28.4325 543.533 28.4325 542.653 29.9571L538.441 37.2512L530.305 35.0717C528.604 34.6157 527.047 36.1716 527.503 37.8727L529.683 46.0078L522.388 50.2189C520.863 51.0994 520.863 53.3 522.388 54.1805L529.683 58.3916L527.503 66.5273C527.047 68.2273 528.603 69.7838 530.305 69.3283L538.441 67.1488L542.653 74.4429C543.533 75.9674 545.734 75.9674 546.614 74.4429L550.826 67.1488L558.963 69.3283C560.663 69.7838 562.219 68.2278 561.764 66.5273L559.584 58.3916L566.879 54.1805C568.404 53.3005 568.404 51.0994 566.879 50.2189ZM550.728 52.5005C550.728 55.865 548 58.5931 544.635 58.5931C541.269 58.5931 538.541 55.8655 538.541 52.5005C538.541 49.1354 541.269 46.4074 544.635 46.4074C548 46.4074 550.728 49.1349 550.728 52.5005Z" fill="#16181A"/>
<path d="M508.92 50.2634C509.426 42.0653 512.691 34.6181 517.8 28.832L505.925 16.9583C497.799 25.8024 492.666 37.4387 492.129 50.2634H508.92Z" fill="#16181A"/>
<path d="M520.963 25.6689C526.75 20.5609 534.199 17.2963 542.397 16.7898V0.000488291C529.571 0.537499 517.933 5.66959 509.089 13.7952L520.963 25.6689Z" fill="#16181A"/>
<path d="M546.872 0.000488291V16.7898C555.071 17.2958 562.519 20.5609 568.306 25.6689L580.18 13.7952C571.335 5.66959 559.698 0.537499 546.872 0.000488291Z" fill="#16181A"/>
<path d="M517.8 76.1685C512.691 70.3823 509.426 62.9347 508.92 54.737H492.129C492.666 67.5618 497.799 79.198 505.925 88.0422L517.8 76.1685Z" fill="#16181A"/>
<path d="M542.397 88.2107C534.198 87.7047 526.75 84.4401 520.963 79.3315L509.089 91.2052C517.934 99.3309 529.571 104.463 542.397 105V88.2107Z" fill="#16181A"/>
<path d="M580.349 54.737C579.843 62.9352 576.578 70.3823 571.469 76.1689L583.344 88.0422C591.47 79.198 596.603 67.5618 597.14 54.737H580.349Z" fill="#16181A"/>
<path d="M571.469 28.832C576.578 34.6181 579.843 42.0658 580.349 50.2634H597.14C596.603 37.4387 591.47 25.8024 583.344 16.9583L571.469 28.832Z" fill="#16181A"/>
<path d="M568.306 79.3315C562.519 84.4401 555.07 87.7047 546.872 88.2107V105C559.698 104.463 571.336 99.3309 580.18 91.2052L568.306 79.3315Z" fill="#16181A"/>
<path d="M605.032 30.2611C609.113 18.3549 616.381 7.93065 625.818 0H584.245C593.682 7.93065 600.95 18.3554 605.032 30.2611Z" fill="#16181A"/>
<path d="M605.032 74.7059C609.113 86.6121 616.381 97.0363 625.818 104.967H584.245C593.682 97.0363 600.95 86.6121 605.032 74.7059Z" fill="#16181A"/>
<path d="M665.43 83.3271C648.43 83.3271 634.599 69.4983 634.599 52.5005C634.599 35.5021 648.43 21.6734 665.43 21.6734C682.43 21.6734 696.26 35.5021 696.26 52.5005C696.26 69.4983 682.43 83.3271 665.43 83.3271ZM665.43 25.1735C650.36 25.1735 638.1 37.4327 638.1 52.5005C638.1 67.5682 650.361 79.827 665.43 79.827C680.5 79.827 692.76 67.5682 692.76 52.5005C692.76 37.4327 680.5 25.1735 665.43 25.1735Z" fill="#16181A"/>
<path d="M687.674 50.2189L680.38 46.0078L682.559 37.8727C683.015 36.1721 681.459 34.6157 679.758 35.0717L671.621 37.2512L667.41 29.9571C666.529 28.4325 664.328 28.4325 663.448 29.9571L659.236 37.2512L651.1 35.0717C649.399 34.6157 647.843 36.1716 648.298 37.8727L650.478 46.0078L643.184 50.2189C641.659 51.0994 641.659 53.3 643.184 54.1805L650.478 58.3916L648.298 66.5273C647.843 68.2273 649.399 69.7838 651.1 69.3283L659.236 67.1488L663.448 74.4429C664.328 75.9674 666.529 75.9674 667.41 74.4429L671.621 67.1488L679.758 69.3283C681.458 69.7838 683.015 68.2278 682.559 66.5273L680.38 58.3916L687.674 54.1805C689.199 53.3005 689.199 51.0994 687.674 50.2189ZM671.523 52.5005C671.523 55.865 668.795 58.5931 665.43 58.5931C662.064 58.5931 659.336 55.8655 659.336 52.5005C659.336 49.1354 662.064 46.4074 665.43 46.4074C668.795 46.4074 671.523 49.1349 671.523 52.5005Z" fill="#16181A"/>
<path d="M629.715 50.2634C630.222 42.0653 633.487 34.6181 638.595 28.832L626.72 16.9583C618.594 25.8024 613.461 37.4387 612.924 50.2634H629.715Z" fill="#16181A"/>
<path d="M641.759 25.6689C647.546 20.5609 654.994 17.2963 663.193 16.7898V0.000488291C650.367 0.537499 638.729 5.66959 629.884 13.7952L641.759 25.6689Z" fill="#16181A"/>
<path d="M667.666 0.000488291V16.7898C675.865 17.2958 683.314 20.5609 689.1 25.6689L700.975 13.7952C692.13 5.66959 680.493 0.537499 667.666 0.000488291Z" fill="#16181A"/>
<path d="M638.595 76.1685C633.486 70.3823 630.221 62.9347 629.715 54.737H612.923C613.461 67.5618 618.593 79.198 626.72 88.0422L638.595 76.1685Z" fill="#16181A"/>
<path d="M663.193 88.2107C654.994 87.7047 647.546 84.4401 641.759 79.3315L629.884 91.2052C638.729 99.3309 650.367 104.463 663.193 105V88.2107Z" fill="#16181A"/>
<path d="M701.144 54.737C700.638 62.9352 697.373 70.3823 692.264 76.1689L704.139 88.0422C712.266 79.198 717.399 67.5618 717.936 54.737H701.144Z" fill="#16181A"/>
<path d="M692.264 28.832C697.373 34.6181 700.638 42.0658 701.144 50.2634H717.936C717.399 37.4387 712.266 25.8024 704.139 16.9583L692.264 28.832Z" fill="#16181A"/>
<path d="M689.101 79.3315C683.314 84.4401 675.865 87.7047 667.667 88.2107V105C680.493 104.463 692.131 99.3309 700.976 91.2052L689.101 79.3315Z" fill="#16181A"/>
<path d="M725.827 30.2611C729.909 18.3549 737.177 7.93065 746.613 0H705.041C714.478 7.93065 721.746 18.3554 725.827 30.2611Z" fill="#16181A"/>
<path d="M725.827 74.7059C729.909 86.6121 737.177 97.0363 746.613 104.967H705.041C714.478 97.0363 721.746 86.6121 725.827 74.7059Z" fill="#16181A"/>
<path d="M790.699 83.3271C773.698 83.3271 759.868 69.4983 759.868 52.5005C759.868 35.5021 773.698 21.6734 790.699 21.6734C807.699 21.6734 821.529 35.5021 821.529 52.5005C821.529 69.4983 807.699 83.3271 790.699 83.3271ZM790.699 25.1735C775.629 25.1735 763.368 37.4327 763.368 52.5005C763.368 67.5682 775.629 79.827 790.699 79.827C805.768 79.827 818.028 67.5682 818.028 52.5005C818.028 37.4327 805.769 25.1735 790.699 25.1735Z" fill="#16181A"/>
<path d="M812.943 50.2189L805.649 46.0078L807.829 37.8727C808.284 36.1721 806.728 34.6157 805.027 35.0717L796.891 37.2512L792.679 29.9571C791.798 28.4325 789.598 28.4325 788.717 29.9571L784.505 37.2512L776.369 35.0717C774.669 34.6157 773.112 36.1716 773.567 37.8727L775.747 46.0078L768.453 50.2189C766.927 51.0994 766.927 53.3 768.453 54.1805L775.747 58.3916L773.567 66.5273C773.112 68.2273 774.668 69.7838 776.369 69.3283L784.505 67.1488L788.717 74.4429C789.598 75.9674 791.798 75.9674 792.679 74.4429L796.891 67.1488L805.027 69.3283C806.727 69.7838 808.284 68.2278 807.829 66.5273L805.649 58.3916L812.943 54.1805C814.469 53.3005 814.469 51.0994 812.943 50.2189ZM796.792 52.5005C796.792 55.865 794.064 58.5931 790.699 58.5931C787.333 58.5931 784.605 55.8655 784.605 52.5005C784.605 49.1354 787.333 46.4074 790.699 46.4074C794.064 46.4074 796.792 49.1349 796.792 52.5005Z" fill="#16181A"/>
<path d="M754.984 50.2634C755.491 42.0653 758.756 34.6181 763.865 28.832L751.989 16.9583C743.863 25.8024 738.731 37.4387 738.193 50.2634H754.984Z" fill="#16181A"/>
<path d="M767.028 25.6689C772.815 20.5609 780.263 17.2963 788.462 16.7898V0.000488291C775.636 0.537499 763.998 5.66959 755.153 13.7952L767.028 25.6689Z" fill="#16181A"/>
<path d="M792.936 0.000488291V16.7898C801.135 17.2958 808.583 20.5609 814.37 25.6689L826.245 13.7952C817.399 5.66959 805.762 0.537499 792.936 0.000488291Z" fill="#16181A"/>
<path d="M763.864 76.1685C758.755 70.3823 755.49 62.9347 754.984 54.737H738.193C738.73 67.5618 743.862 79.198 751.989 88.0422L763.864 76.1685Z" fill="#16181A"/>
<path d="M788.462 88.2107C780.263 87.7047 772.815 84.4401 767.028 79.3315L755.153 91.2052C763.998 99.3309 775.636 104.463 788.462 105V88.2107Z" fill="#16181A"/>
<path d="M826.413 54.737C825.907 62.9352 822.642 70.3823 817.533 76.1689L829.408 88.0422C837.535 79.198 842.667 67.5618 843.204 54.737H826.413Z" fill="#16181A"/>
<path d="M817.533 28.832C822.643 34.6181 825.908 42.0658 826.414 50.2634H843.205C842.668 37.4387 837.535 25.8024 829.409 16.9583L817.533 28.832Z" fill="#16181A"/>
<path d="M814.37 79.3315C808.583 84.4401 801.134 87.7047 792.936 88.2107V105C805.762 104.463 817.399 99.3309 826.245 91.2052L814.37 79.3315Z" fill="#16181A"/>
<path d="M851.096 30.2611C855.178 18.3549 862.446 7.93065 871.882 0H830.31C839.747 7.93065 847.015 18.3554 851.096 30.2611Z" fill="#16181A"/>
<path d="M851.096 74.7059C855.178 86.6121 862.446 97.0363 871.882 104.967H830.31C839.747 97.0363 847.015 86.6121 851.096 74.7059Z" fill="#16181A"/>
<path d="M911.494 83.3271C894.494 83.3271 880.664 69.4983 880.664 52.5005C880.664 35.5021 894.494 21.6734 911.494 21.6734C928.494 21.6734 942.324 35.5021 942.324 52.5005C942.324 69.4983 928.494 83.3271 911.494 83.3271ZM911.494 25.1735C896.424 25.1735 884.164 37.4327 884.164 52.5005C884.164 67.5682 896.424 79.827 911.494 79.827C926.563 79.827 938.824 67.5682 938.824 52.5005C938.824 37.4327 926.564 25.1735 911.494 25.1735Z" fill="#16181A"/>
<path d="M933.739 50.2189L926.444 46.0078L928.624 37.8727C929.08 36.1721 927.523 34.6157 925.822 35.0717L917.686 37.2512L913.475 29.9571C912.594 28.4325 910.393 28.4325 909.512 29.9571L905.301 37.2512L897.164 35.0717C895.464 34.6157 893.907 36.1716 894.363 37.8727L896.543 46.0078L889.248 50.2189C887.723 51.0994 887.723 53.3 889.248 54.1805L896.543 58.3916L894.363 66.5273C893.907 68.2273 895.464 69.7838 897.164 69.3283L905.301 67.1488L909.512 74.4429C910.393 75.9674 912.594 75.9674 913.475 74.4429L917.686 67.1488L925.822 69.3283C927.523 69.7838 929.08 68.2278 928.624 66.5273L926.444 58.3916L933.739 54.1805C935.263 53.3005 935.263 51.0994 933.739 50.2189ZM917.588 52.5005C917.588 55.865 914.859 58.5931 911.494 58.5931C908.128 58.5931 905.4 55.8655 905.4 52.5005C905.4 49.1354 908.128 46.4074 911.494 46.4074C914.859 46.4074 917.588 49.1349 917.588 52.5005Z" fill="#16181A"/>
<path d="M875.779 50.2634C876.285 42.0653 879.55 34.6181 884.66 28.832L872.784 16.9583C864.658 25.8024 859.525 37.4387 858.988 50.2634H875.779Z" fill="#16181A"/>
<path d="M887.823 25.6689C893.61 20.5609 901.058 17.2963 909.257 16.7898V0.000488291C896.431 0.537499 884.793 5.66959 875.948 13.7952L887.823 25.6689Z" fill="#16181A"/>
<path d="M913.731 0.000488291V16.7898C921.93 17.2958 929.378 20.5609 935.165 25.6689L947.04 13.7952C938.195 5.66959 926.557 0.537499 913.731 0.000488291Z" fill="#16181A"/>
<path d="M884.66 76.1685C879.55 70.3823 876.285 62.9347 875.779 54.737H858.988C859.525 67.5618 864.658 79.198 872.784 88.0422L884.66 76.1685Z" fill="#16181A"/>
<path d="M909.257 88.2107C901.058 87.7047 893.61 84.4401 887.823 79.3315L875.948 91.2052C884.793 99.3309 896.431 104.463 909.257 105V88.2107Z" fill="#16181A"/>
<path d="M947.209 54.737C946.702 62.9352 943.437 70.3823 938.328 76.1689L950.204 88.0422C958.33 79.198 963.462 67.5618 964 54.737H947.209Z" fill="#16181A"/>
<path d="M938.328 28.832C943.437 34.6181 946.702 42.0658 947.209 50.2634H964C963.462 37.4387 958.33 25.8024 950.204 16.9583L938.328 28.832Z" fill="#16181A"/>
<path d="M935.165 79.3315C929.378 84.4401 921.93 87.7047 913.731 88.2107V105C926.557 104.463 938.195 99.3309 947.04 91.2052L935.165 79.3315Z" fill="#16181A"/>
</svg>
