<svg width="1091" height="62" viewBox="0 0 1091 62" fill="none" xmlns="http://www.w3.org/2000/svg">
<path d="M66.9175 22.4931C66.9175 22.4931 51.8863 24.2419 56.9493 33.1445C62.0123 42.0471 68.3411 40.457 69.9231 35.3703C71.5058 30.2831 63.7528 29.8061 66.9175 22.4931Z" fill="#16181A"/>
<path d="M56.193 0V11.4462L37.4665 30.2617L55.622 48.5046V62L23.733 29.9585L56.193 0Z" fill="#16181A"/>
<path d="M32.46 0V11.4462L13.7335 30.2617L31.889 48.5046V62L0 29.9585L32.46 0Z" fill="#16181A"/>
<path d="M71.1984 62V50.5538L89.9249 31.7377L71.7694 13.4954V0L103.658 32.0415L71.1984 62Z" fill="#16181A"/>
<path d="M94.9314 62V50.5538L113.658 31.7377L95.5024 13.4954V0L127.391 32.0415L94.9314 62Z" fill="#16181A"/>
<path d="M143.884 0L131.511 12.4317L119.138 0H107.229L131.209 26.2309L157.315 0H143.884Z" fill="#16181A"/>
<path d="M143.884 62L131.511 49.5683L119.138 62H107.229L131.209 35.7691L157.315 62H143.884Z" fill="#16181A"/>
<path d="M204.568 22.4931C204.568 22.4931 189.537 24.2419 194.601 33.1445C199.664 42.0471 205.992 40.457 207.574 35.3703C209.156 30.2831 201.404 29.8061 204.568 22.4931Z" fill="#16181A"/>
<path d="M193.844 0V11.4462L175.117 30.2617L193.273 48.5046V62L161.384 29.9585L193.844 0Z" fill="#16181A"/>
<path d="M170.111 0V11.4462L151.384 30.2617L169.54 48.5046V62L137.651 29.9585L170.111 0Z" fill="#16181A"/>
<path d="M208.85 62V50.5538L227.576 31.7377L209.42 13.4954V0L241.309 32.0415L208.85 62Z" fill="#16181A"/>
<path d="M232.582 62V50.5538L251.309 31.7377L233.153 13.4954V0L265.042 32.0415L232.582 62Z" fill="#16181A"/>
<path d="M281.534 0L269.161 12.4317L256.789 0H244.88L268.86 26.2309L294.966 0H281.534Z" fill="#16181A"/>
<path d="M281.534 62L269.161 49.5683L256.789 62H244.88L268.86 35.7691L294.966 62H281.534Z" fill="#16181A"/>
<path d="M342.219 22.4931C342.219 22.4931 327.188 24.2419 332.251 33.1445C337.314 42.0471 343.643 40.457 345.225 35.3703C346.807 30.2831 339.054 29.8061 342.219 22.4931Z" fill="#16181A"/>
<path d="M331.494 0V11.4462L312.767 30.2617L330.923 48.5046V62L299.034 29.9585L331.494 0Z" fill="#16181A"/>
<path d="M307.761 0V11.4462L289.035 30.2617L307.19 48.5046V62L275.301 29.9585L307.761 0Z" fill="#16181A"/>
<path d="M346.5 62V50.5538L365.226 31.7377L347.071 13.4954V0L378.96 32.0415L346.5 62Z" fill="#16181A"/>
<path d="M370.233 62V50.5538L388.959 31.7377L370.804 13.4954V0L402.693 32.0415L370.233 62Z" fill="#16181A"/>
<path d="M419.185 0L406.813 12.4317L394.439 0H382.53L406.51 26.2309L432.616 0H419.185Z" fill="#16181A"/>
<path d="M419.185 62L406.813 49.5683L394.439 62H382.53L406.51 35.7691L432.616 62H419.185Z" fill="#16181A"/>
<path d="M479.87 22.4931C479.87 22.4931 464.838 24.2419 469.901 33.1445C474.964 42.0471 481.293 40.457 482.875 35.3703C484.458 30.2831 476.705 29.8061 479.87 22.4931Z" fill="#16181A"/>
<path d="M469.145 0V11.4462L450.419 30.2617L468.574 48.5046V62L436.685 29.9585L469.145 0Z" fill="#16181A"/>
<path d="M445.412 0V11.4462L426.686 30.2617L444.841 48.5046V62L412.952 29.9585L445.412 0Z" fill="#16181A"/>
<path d="M484.151 62V50.5538L502.877 31.7377L484.722 13.4954V0L516.611 32.0415L484.151 62Z" fill="#16181A"/>
<path d="M507.884 62V50.5538L526.61 31.7377L508.454 13.4954V0L540.344 32.0415L507.884 62Z" fill="#16181A"/>
<path d="M556.836 0L544.463 12.4317L532.09 0H520.181L544.161 26.2309L570.267 0H556.836Z" fill="#16181A"/>
<path d="M556.836 62L544.463 49.5683L532.09 62H520.181L544.161 35.7691L570.267 62H556.836Z" fill="#16181A"/>
<path d="M617.52 22.4931C617.52 22.4931 602.489 24.2419 607.552 33.1445C612.615 42.0471 618.944 40.457 620.526 35.3703C622.109 30.2831 614.356 29.8061 617.52 22.4931Z" fill="#16181A"/>
<path d="M606.795 0V11.4462L588.069 30.2617L606.225 48.5046V62L574.336 29.9585L606.795 0Z" fill="#16181A"/>
<path d="M583.063 0V11.4462L564.336 30.2617L582.492 48.5046V62L550.603 29.9585L583.063 0Z" fill="#16181A"/>
<path d="M621.802 62V50.5538L640.528 31.7377L622.372 13.4954V0L654.261 32.0415L621.802 62Z" fill="#16181A"/>
<path d="M645.534 62V50.5538L664.261 31.7377L646.105 13.4954V0L677.994 32.0415L645.534 62Z" fill="#16181A"/>
<path d="M694.487 0L682.113 12.4317L669.741 0H657.831L681.812 26.2309L707.918 0H694.487Z" fill="#16181A"/>
<path d="M694.487 62L682.113 49.5683L669.741 62H657.831L681.812 35.7691L707.918 62H694.487Z" fill="#16181A"/>
<path d="M755.171 22.4931C755.171 22.4931 740.14 24.2419 745.203 33.1445C750.266 42.0471 756.595 40.457 758.177 35.3703C759.759 30.2831 752.007 29.8061 755.171 22.4931Z" fill="#16181A"/>
<path d="M744.446 0V11.4462L725.72 30.2617L743.875 48.5046V62L711.986 29.9585L744.446 0Z" fill="#16181A"/>
<path d="M720.713 0V11.4462L701.987 30.2617L720.143 48.5046V62L688.253 29.9585L720.713 0Z" fill="#16181A"/>
<path d="M759.452 62V50.5538L778.178 31.7377L760.023 13.4954V0L791.912 32.0415L759.452 62Z" fill="#16181A"/>
<path d="M783.185 62V50.5538L801.911 31.7377L783.756 13.4954V0L815.645 32.0415L783.185 62Z" fill="#16181A"/>
<path d="M832.137 0L819.764 12.4317L807.391 0H795.482L819.462 26.2309L845.569 0H832.137Z" fill="#16181A"/>
<path d="M832.137 62L819.764 49.5683L807.391 62H795.482L819.462 35.7691L845.569 62H832.137Z" fill="#16181A"/>
<path d="M892.822 22.4931C892.822 22.4931 877.79 24.2419 882.853 33.1445C887.917 42.0471 894.246 40.457 895.828 35.3703C897.41 30.2831 889.658 29.8061 892.822 22.4931Z" fill="#16181A"/>
<path d="M882.097 0V11.4462L863.371 30.2617L881.526 48.5046V62L849.637 29.9585L882.097 0Z" fill="#16181A"/>
<path d="M858.364 0V11.4462L839.638 30.2617L857.793 48.5046V62L825.904 29.9585L858.364 0Z" fill="#16181A"/>
<path d="M897.103 62V50.5538L915.83 31.7377L897.674 13.4954V0L929.563 32.0415L897.103 62Z" fill="#16181A"/>
<path d="M920.836 62V50.5538L939.562 31.7377L921.407 13.4954V0L953.295 32.0415L920.836 62Z" fill="#16181A"/>
<path d="M1030.53 22.4931C1030.53 22.4931 1015.49 24.2419 1020.56 33.1445C1025.62 42.0471 1031.95 40.457 1033.53 35.3703C1035.11 30.2831 1027.36 29.8061 1030.53 22.4931Z" fill="#16181A"/>
<path d="M1019.8 0V11.4462L1001.08 30.2617L1019.23 48.5046V62L987.342 29.9585L1019.8 0Z" fill="#16181A"/>
<path d="M996.069 0V11.4462L977.342 30.2617L995.498 48.5046V62L963.609 29.9585L996.069 0Z" fill="#16181A"/>
<path d="M1034.81 62V50.5538L1053.53 31.7377L1035.38 13.4954V0L1067.27 32.0415L1034.81 62Z" fill="#16181A"/>
<path d="M1058.54 62V50.5538L1077.27 31.7377L1059.11 13.4954V0L1091 32.0415L1058.54 62Z" fill="#16181A"/>
<path d="M969.787 0L957.415 12.4317L945.042 0H933.133L957.113 26.2309L983.22 0H969.787Z" fill="#16181A"/>
<path d="M969.787 62L957.415 49.5683L945.042 62H933.133L957.113 35.7691L983.22 62H969.787Z" fill="#16181A"/>
</svg>
