<svg width="1051" height="73" viewBox="0 0 1051 73" fill="none" xmlns="http://www.w3.org/2000/svg">
<path d="M5.76441 11.507C7.90931 14.1806 14.6121 26.3456 17.6954 31.5591C20.7787 36.7727 24.1301 40.1147 26.5431 44.5262C28.9561 48.9377 33.1118 58.9638 33.1118 58.9638C33.1118 58.9638 33.1118 58.9638 34.0502 56.6912C34.9886 54.4186 40.2168 48.2693 40.2168 48.2693C40.2168 48.2693 40.2168 48.2693 41.9595 42.3873C43.7023 36.5053 48.1261 34.5001 50.4051 28.4845C52.684 22.4688 60.9955 8.83333 62.527 8.83333C64.0584 8.83333 62.6042 13.5122 58.8506 19.2605C55.097 25.0088 47.3218 38.9116 44.3726 44.6599C41.4233 50.4082 33.6481 64.7121 33.6481 64.7121C33.6481 64.7121 33.6481 64.7121 32.3075 63.509C30.9669 62.3058 21.8511 48.5367 18.9019 41.3179C15.9527 34.0991 12.8597 28.9834 8.44553 23.0035C4.03133 17.0237 0 8.83333 0 8.83333C0 8.83333 3.61951 8.83333 5.76441 11.507Z" fill="#16181A"/>
<path d="M56.8237 8.83333C56.8237 8.83333 53.9404 14.6923 50.7826 18.9696C47.6248 23.2468 45.4128 26.9065 43.3033 32.0698C41.1933 37.2336 34.6728 47.0827 33.714 47.9437C32.7547 48.804 32.7547 48.804 32.7547 48.804C32.7547 48.804 27.193 38.5721 25.0835 34.4606C22.974 30.3491 17.4123 20.4037 14.7274 16.2922C12.0425 12.1802 11.0017 8.83333 12.0978 8.83333C13.1933 8.83333 19.1384 18.5867 20.7685 22.8902C22.3992 27.1931 25.5629 28.6272 26.8096 32.835C28.0563 37.0427 28.0563 37.0427 28.0563 37.0427C28.0563 37.0427 31.7965 41.4414 32.4673 43.067C33.1387 44.6925 33.1387 44.6925 33.1387 44.6925C33.1387 44.6925 36.1115 37.5208 37.8376 34.3648C39.5637 31.2094 41.9612 28.8187 44.1666 25.0895C46.3721 21.3598 51.1665 12.6582 52.7012 10.746C54.2348 8.83333 56.8237 8.83333 56.8237 8.83333Z" fill="#16181A"/>
<path d="M45.7474 8.83333C46.3963 8.83333 45.7801 10.8145 44.1908 13.2486C42.6014 15.6826 39.309 21.5699 38.0601 24.0035C36.8113 26.4375 33.5188 32.4944 33.5188 32.4944C33.5188 32.4944 33.5188 32.4944 32.951 31.9848C32.3831 31.4752 28.5234 25.6446 27.2745 22.5881C26.0256 19.5316 24.7162 17.3649 22.8469 14.8329C20.9776 12.301 19.2708 8.83279 19.2708 8.83279C19.2708 8.83279 20.8034 8.83279 21.7117 9.96481C22.6201 11.0968 25.4583 16.2484 26.764 18.4557C28.0697 20.6631 29.4886 22.0785 30.5106 23.9463C31.5321 25.8146 33.292 30.0598 33.292 30.0598C33.292 30.0598 33.292 30.0598 33.6894 29.0978C34.0867 28.1353 36.3008 25.5312 36.3008 25.5312C36.3008 25.5312 36.3008 25.5312 37.0386 23.0404C37.7765 20.5497 39.65 19.7005 40.6147 17.1531C41.5794 14.6073 45.0991 8.83333 45.7474 8.83333Z" fill="#16181A"/>
<path d="M36.5769 16.1901C35.9088 17.8253 33.8443 20.9432 33.5408 21.216C33.2373 21.4881 33.2373 21.4881 33.2373 21.4881C33.2373 21.4881 31.4764 18.2488 30.8082 16.9467C30.1401 15.6447 28.3797 12.4962 27.5292 11.1941C26.6793 9.89262 26.3495 8.83279 26.6965 8.83279H40.3418C40.5788 8.83279 40.7327 9.08091 40.6222 9.29052C40.2876 9.92631 39.6372 11.1043 38.9444 12.0422C37.9454 13.3967 37.2445 14.5554 36.5769 16.1901Z" fill="#16181A"/>
<path d="M42.8979 64.7121C42.8979 64.7121 46.9293 56.5217 51.3435 50.5419C55.7577 44.562 58.8506 39.4463 61.7998 32.2275C64.7491 25.0088 73.8649 11.2396 75.2055 10.0365C76.546 8.83333 76.546 8.83333 76.546 8.83333C76.546 8.83333 84.3213 23.1372 87.2705 28.8855C90.2197 34.6338 97.995 48.5367 101.749 54.285C105.502 60.0332 106.957 64.7121 105.425 64.7121C103.893 64.7121 95.582 51.0766 93.303 45.0609C91.0241 39.0453 86.6002 37.0401 84.8575 31.1581C83.1148 25.2761 83.1148 25.2761 83.1148 25.2761C83.1148 25.2761 77.8866 19.1268 76.9482 16.8542C76.0098 14.5816 76.0098 14.5816 76.0098 14.5816C76.0098 14.5816 71.854 24.6077 69.441 29.0192C67.028 33.4307 63.6766 36.7727 60.5933 41.9863C57.5101 47.1998 50.8072 59.3648 48.6623 62.0385C46.5175 64.7121 42.8979 64.7121 42.8979 64.7121Z" fill="#16181A"/>
<path d="M54.9952 64.7121C53.8991 64.7121 54.9399 61.3653 57.6248 57.2532C60.3097 53.1417 65.8714 43.1964 67.9809 39.0849C70.0904 34.9728 75.6521 24.7414 75.6521 24.7414C75.6521 24.7414 75.6521 24.7414 76.6114 25.6018C77.5702 26.4621 84.0907 36.3118 86.2007 41.4756C88.3102 46.6395 90.5222 50.2986 93.68 54.5758C96.8378 58.8536 99.7211 64.7121 99.7211 64.7121C99.7211 64.7121 97.1322 64.7121 95.5981 62.7994C94.0639 60.8867 89.269 52.1851 87.0635 48.4559C84.858 44.7267 82.4606 42.336 80.7345 39.1806C79.0084 36.0252 76.0355 28.8534 76.0355 28.8534C76.0355 28.8534 76.0355 28.8534 75.3642 30.479C74.6934 32.1046 70.9532 36.5032 70.9532 36.5032C70.9532 36.5032 70.9532 36.5032 69.7065 40.711C68.4597 44.9182 65.2955 46.3528 63.6654 50.6558C62.0358 54.9582 56.0912 64.7121 54.9952 64.7121Z" fill="#16181A"/>
<path d="M62.1688 64.7121C62.1688 64.7121 63.8756 61.2439 65.7448 58.7119C67.6141 56.18 68.9236 54.0133 70.1724 50.9568C71.4213 47.8998 75.2811 42.0692 75.8489 41.5601C76.4168 41.0505 76.4168 41.0505 76.4168 41.0505C76.4168 41.0505 79.7092 47.1073 80.9581 49.5414C82.2069 51.9755 85.4993 57.8628 87.0887 60.2969C88.6781 62.7309 89.2942 64.7121 88.6454 64.7121C87.9965 64.7121 84.4773 58.9381 83.5126 56.3907C82.5474 53.8433 80.6744 52.9941 79.9366 50.5034C79.1987 48.0126 79.1987 48.0126 79.1987 48.0126C79.1987 48.0126 76.9846 45.4085 76.5873 44.4465C76.19 43.484 76.19 43.484 76.19 43.484C76.19 43.484 74.4301 47.7298 73.4086 49.5976C72.3865 51.4659 70.9677 52.8808 69.662 55.0886C68.3563 57.296 65.518 62.4475 64.6097 63.5795C63.7013 64.7121 62.1688 64.7121 62.1688 64.7121Z" fill="#16181A"/>
<path d="M73.7062 56.5982C74.3743 55.2961 76.1353 52.0568 76.1353 52.0568C76.1353 52.0568 76.1353 52.0568 76.4388 52.3289C76.7423 52.6016 78.8073 55.7196 79.4749 57.3548C80.143 58.9895 80.8433 60.1482 81.8428 61.5027C82.5356 62.4406 83.1861 63.6186 83.5207 64.2544C83.6311 64.4634 83.4772 64.7121 83.2402 64.7121H69.5949C69.248 64.7121 69.5778 63.6523 70.4277 62.3502C71.2776 61.0487 73.038 57.9002 73.7062 56.5982Z" fill="#16181A"/>
<path d="M148.323 8.83333C149.855 8.83333 148.4 13.5122 144.646 19.2605C140.893 25.0088 133.118 38.9116 130.168 44.6599C127.219 50.4082 119.444 64.7121 119.444 64.7121C119.444 64.7121 119.444 64.7121 118.103 63.509C116.763 62.3058 107.647 48.5367 104.698 41.3179C101.749 34.0991 98.6556 28.9834 94.2414 23.0035C89.8272 17.0237 85.7959 8.83333 85.7959 8.83333C85.7959 8.83333 89.4154 8.83333 91.5603 11.507C93.7052 14.1806 100.408 26.3456 103.491 31.5591C106.575 36.7727 109.926 40.1147 112.339 44.5262C114.752 48.9377 118.908 58.9638 118.908 58.9638C118.908 58.9638 118.908 58.9638 119.846 56.6912C120.785 54.4186 126.013 48.2693 126.013 48.2693C126.013 48.2693 126.013 48.2693 127.755 42.3873C129.498 36.5053 133.922 34.5001 136.201 28.4845C138.48 22.4688 146.791 8.83333 148.323 8.83333Z" fill="#16181A"/>
<path d="M142.62 8.83333C142.62 8.83333 139.736 14.6923 136.578 18.9696C133.421 23.2468 131.209 26.9065 129.099 32.0698C126.989 37.2336 120.469 47.0827 119.51 47.9437C118.551 48.804 118.551 48.804 118.551 48.804C118.551 48.804 112.989 38.5721 110.879 34.4606C108.77 30.3491 103.208 20.4037 100.523 16.2922C97.8384 12.1802 96.7976 8.83333 97.8936 8.83333C98.9891 8.83333 104.934 18.5867 106.564 22.8902C108.195 27.1931 111.359 28.6272 112.605 32.835C113.852 37.0427 113.852 37.0427 113.852 37.0427C113.852 37.0427 117.592 41.4414 118.263 43.067C118.935 44.6925 118.935 44.6925 118.935 44.6925C118.935 44.6925 121.907 37.5208 123.633 34.3648C125.36 31.2094 127.757 28.8187 129.963 25.0895C132.168 21.3598 136.962 12.6582 138.497 10.746C140.031 8.83333 142.62 8.83333 142.62 8.83333Z" fill="#16181A"/>
<path d="M131.543 8.83333C132.192 8.83333 131.576 10.8145 129.987 13.2486C128.397 15.6826 125.105 21.5699 123.856 24.0035C122.607 26.4375 119.315 32.4944 119.315 32.4944C119.315 32.4944 119.315 32.4944 118.747 31.9848C118.179 31.4752 114.319 25.6446 113.07 22.5881C111.822 19.5316 110.512 17.3649 108.643 14.8329C106.774 12.301 105.067 8.83279 105.067 8.83279C105.067 8.83279 106.599 8.83279 107.508 9.96481C108.416 11.0968 111.254 16.2484 112.56 18.4557C113.866 20.6631 115.284 22.0785 116.307 23.9463C117.328 25.8146 119.088 30.0598 119.088 30.0598C119.088 30.0598 119.088 30.0598 119.485 29.0978C119.883 28.1353 122.097 25.5312 122.097 25.5312C122.097 25.5312 122.097 25.5312 122.834 23.0404C123.572 20.5497 125.446 19.7005 126.411 17.1531C127.376 14.6073 130.895 8.83333 131.543 8.83333Z" fill="#16181A"/>
<path d="M122.373 16.1901C121.705 17.8253 119.64 20.9432 119.337 21.216C119.033 21.4881 119.033 21.4881 119.033 21.4881C119.033 21.4881 117.272 18.2488 116.604 16.9467C115.936 15.6447 114.176 12.4962 113.325 11.1941C112.475 9.89262 112.145 8.83279 112.492 8.83279H126.138C126.375 8.83279 126.529 9.08091 126.418 9.29052C126.083 9.92631 125.433 11.1043 124.74 12.0422C123.741 13.3967 123.04 14.5554 122.373 16.1901Z" fill="#16181A"/>
<path d="M162.342 8.83333C162.342 8.83333 170.117 23.1372 173.066 28.8855C176.016 34.6338 183.791 48.5367 187.544 54.285C191.298 60.0332 192.753 64.7121 191.221 64.7121C189.689 64.7121 181.378 51.0766 179.099 45.0609C176.82 39.0453 172.396 37.0401 170.653 31.1581C168.911 25.2761 168.911 25.2761 168.911 25.2761C168.911 25.2761 163.682 19.1268 162.744 16.8542C161.806 14.5816 161.806 14.5816 161.806 14.5816C161.806 14.5816 157.65 24.6077 155.237 29.0192C152.824 33.4307 149.473 36.7727 146.389 41.9863C143.306 47.1998 136.603 59.3648 134.458 62.0385C132.313 64.7121 128.694 64.7121 128.694 64.7121C128.694 64.7121 132.725 56.5217 137.139 50.5419C141.554 44.562 144.646 39.4463 147.596 32.2275C150.545 25.0088 159.661 11.2396 161.001 10.0365C162.342 8.83333 162.342 8.83333 162.342 8.83333Z" fill="#16181A"/>
<path d="M140.791 64.7121C139.696 64.7121 140.736 61.3653 143.421 57.2532C146.106 53.1417 151.667 43.1964 153.777 39.0849C155.886 34.9728 161.448 24.7414 161.448 24.7414C161.448 24.7414 161.448 24.7414 162.407 25.6018C163.366 26.4621 169.887 36.3118 171.997 41.4756C174.106 46.6395 176.318 50.2986 179.476 54.5758C182.634 58.8536 185.517 64.7121 185.517 64.7121C185.517 64.7121 182.928 64.7121 181.394 62.7994C179.86 60.8867 175.065 52.1851 172.859 48.4559C170.654 44.7267 168.256 42.336 166.53 39.1806C164.804 36.0252 161.831 28.8534 161.831 28.8534C161.831 28.8534 161.831 28.8534 161.16 30.479C160.489 32.1046 156.749 36.5032 156.749 36.5032C156.749 36.5032 156.749 36.5032 155.502 40.711C154.256 44.9182 151.091 46.3528 149.461 50.6558C147.832 54.9582 141.887 64.7121 140.791 64.7121Z" fill="#16181A"/>
<path d="M147.965 64.7121C147.965 64.7121 149.672 61.2439 151.541 58.7119C153.411 56.18 154.72 54.0133 155.969 50.9568C157.218 47.8998 161.077 42.0692 161.645 41.5601C162.213 41.0505 162.213 41.0505 162.213 41.0505C162.213 41.0505 165.506 47.1073 166.754 49.5414C168.003 51.9755 171.296 57.8628 172.885 60.2969C174.474 62.7309 175.091 64.7121 174.442 64.7121C173.794 64.7121 170.274 58.9381 169.309 56.3907C168.344 53.8433 166.471 52.9941 165.733 50.5034C164.995 48.0126 164.995 48.0126 164.995 48.0126C164.995 48.0126 162.781 45.4085 162.384 44.4465C161.986 43.484 161.986 43.484 161.986 43.484C161.986 43.484 160.226 47.7298 159.205 49.5976C158.183 51.4659 156.764 52.8808 155.458 55.0886C154.153 57.296 151.314 62.4475 150.406 63.5795C149.497 64.7121 147.965 64.7121 147.965 64.7121Z" fill="#16181A"/>
<path d="M159.502 56.5982C160.17 55.2961 161.931 52.0568 161.931 52.0568C161.931 52.0568 161.931 52.0568 162.235 52.3289C162.538 52.6016 164.603 55.7196 165.271 57.3548C165.939 58.9895 166.639 60.1482 167.639 61.5027C168.332 62.4406 168.982 63.6186 169.317 64.2544C169.427 64.4634 169.273 64.7121 169.036 64.7121H155.391C155.044 64.7121 155.374 63.6523 156.224 62.3502C157.073 61.0487 158.834 57.9002 159.502 56.5982Z" fill="#16181A"/>
<path d="M234.119 8.83333C235.651 8.83333 234.196 13.5122 230.442 19.2605C226.689 25.0088 218.914 38.9116 215.964 44.6599C213.015 50.4082 205.24 64.7121 205.24 64.7121C205.24 64.7121 205.24 64.7121 203.899 63.509C202.559 62.3058 193.443 48.5367 190.494 41.3179C187.544 34.0991 184.451 28.9834 180.037 23.0035C175.623 17.0237 171.592 8.83333 171.592 8.83333C171.592 8.83333 175.211 8.83333 177.356 11.507C179.501 14.1806 186.204 26.3456 189.287 31.5591C192.37 36.7727 195.722 40.1147 198.135 44.5262C200.548 48.9377 204.704 58.9638 204.704 58.9638C204.704 58.9638 204.704 58.9638 205.642 56.6912C206.58 54.4186 211.809 48.2693 211.809 48.2693C211.809 48.2693 211.809 48.2693 213.551 42.3873C215.294 36.5053 219.718 34.5001 221.997 28.4845C224.276 22.4688 232.587 8.83333 234.119 8.83333Z" fill="#16181A"/>
<path d="M228.415 8.83333C228.415 8.83333 225.532 14.6923 222.374 18.9696C219.217 23.2468 217.005 26.9065 214.895 32.0698C212.785 37.2336 206.265 47.0827 205.306 47.9437C204.346 48.804 204.346 48.804 204.346 48.804C204.346 48.804 198.785 38.5721 196.675 34.4606C194.566 30.3491 189.004 20.4037 186.319 16.2922C183.634 12.1802 182.593 8.83333 183.69 8.83333C184.785 8.83333 190.73 18.5867 192.36 22.8902C193.99 27.1931 197.155 28.6272 198.401 32.835C199.648 37.0427 199.648 37.0427 199.648 37.0427C199.648 37.0427 203.388 41.4414 204.059 43.067C204.73 44.6925 204.73 44.6925 204.73 44.6925C204.73 44.6925 207.703 37.5208 209.429 34.3648C211.155 31.2094 213.552 28.8187 215.758 25.0895C217.964 21.3598 222.758 12.6582 224.293 10.746C225.827 8.83333 228.415 8.83333 228.415 8.83333Z" fill="#16181A"/>
<path d="M217.339 8.83333C217.988 8.83333 217.372 10.8145 215.783 13.2486C214.193 15.6826 210.901 21.5699 209.652 24.0035C208.403 26.4375 205.111 32.4944 205.111 32.4944C205.111 32.4944 205.111 32.4944 204.543 31.9848C203.975 31.4752 200.115 25.6446 198.866 22.5881C197.617 19.5316 196.308 17.3649 194.439 14.8329C192.569 12.301 190.863 8.83279 190.863 8.83279C190.863 8.83279 192.395 8.83279 193.303 9.96481C194.212 11.0968 197.05 16.2484 198.356 18.4557C199.661 20.6631 201.08 22.0785 202.102 23.9463C203.124 25.8146 204.884 30.0598 204.884 30.0598C204.884 30.0598 204.884 30.0598 205.281 29.0978C205.678 28.1353 207.893 25.5312 207.893 25.5312C207.893 25.5312 207.893 25.5312 208.63 23.0404C209.368 20.5497 211.242 19.7005 212.206 17.1531C213.172 14.6073 216.691 8.83333 217.339 8.83333Z" fill="#16181A"/>
<path d="M208.169 16.1901C207.501 17.8253 205.436 20.9432 205.133 21.216C204.829 21.4881 204.829 21.4881 204.829 21.4881C204.829 21.4881 203.068 18.2488 202.4 16.9467C201.732 15.6447 199.971 12.4962 199.121 11.1941C198.271 9.89262 197.941 8.83279 198.288 8.83279H211.934C212.171 8.83279 212.324 9.08091 212.214 9.29052C211.879 9.92631 211.229 11.1043 210.536 12.0422C209.537 13.3967 208.836 14.5554 208.169 16.1901Z" fill="#16181A"/>
<path d="M248.138 8.83333C248.138 8.83333 255.913 23.1372 258.862 28.8855C261.811 34.6338 269.587 48.5367 273.34 54.285C277.094 60.0332 278.549 64.7121 277.017 64.7121C275.485 64.7121 267.174 51.0766 264.895 45.0609C262.616 39.0453 258.192 37.0401 256.449 31.1581C254.707 25.2761 254.707 25.2761 254.707 25.2761C254.707 25.2761 249.478 19.1268 248.54 16.8542C247.602 14.5816 247.602 14.5816 247.602 14.5816C247.602 14.5816 243.446 24.6077 241.033 29.0192C238.62 33.4307 235.268 36.7727 232.185 41.9863C229.102 47.1998 222.399 59.3648 220.254 62.0385C218.109 64.7121 214.49 64.7121 214.49 64.7121C214.49 64.7121 218.521 56.5217 222.935 50.5419C227.349 44.562 230.442 39.4463 233.392 32.2275C236.341 25.0088 245.457 11.2396 246.797 10.0365C248.138 8.83333 248.138 8.83333 248.138 8.83333Z" fill="#16181A"/>
<path d="M226.587 64.7121C225.491 64.7121 226.532 61.3653 229.217 57.2532C231.901 53.1417 237.463 43.1964 239.573 39.0849C241.682 34.9728 247.244 24.7414 247.244 24.7414C247.244 24.7414 247.244 24.7414 248.203 25.6018C249.162 26.4621 255.682 36.3118 257.792 41.4756C259.902 46.6395 262.114 50.2986 265.272 54.5758C268.43 58.8536 271.313 64.7121 271.313 64.7121C271.313 64.7121 268.724 64.7121 267.19 62.7994C265.656 60.8867 260.861 52.1851 258.655 48.4559C256.45 44.7267 254.052 42.336 252.326 39.1806C250.6 36.0252 247.627 28.8534 247.627 28.8534C247.627 28.8534 247.627 28.8534 246.956 30.479C246.285 32.1046 242.545 36.5032 242.545 36.5032C242.545 36.5032 242.545 36.5032 241.298 40.711C240.051 44.9182 236.887 46.3528 235.257 50.6558C233.628 54.9582 227.682 64.7121 226.587 64.7121Z" fill="#16181A"/>
<path d="M233.761 64.7121C233.761 64.7121 235.467 61.2439 237.337 58.7119C239.206 56.18 240.515 54.0133 241.764 50.9568C243.013 47.8998 246.873 42.0692 247.441 41.5601C248.009 41.0505 248.009 41.0505 248.009 41.0505C248.009 41.0505 251.301 47.1073 252.55 49.5414C253.799 51.9755 257.091 57.8628 258.68 60.2969C260.27 62.7309 260.886 64.7121 260.237 64.7121C259.589 64.7121 256.069 58.9381 255.104 56.3907C254.139 53.8433 252.266 52.9941 251.528 50.5034C250.79 48.0126 250.79 48.0126 250.79 48.0126C250.79 48.0126 248.576 45.4085 248.179 44.4465C247.782 43.484 247.782 43.484 247.782 43.484C247.782 43.484 246.022 47.7298 245 49.5976C243.978 51.4659 242.559 52.8808 241.254 55.0886C239.948 57.296 237.11 62.4475 236.201 63.5795C235.293 64.7121 233.761 64.7121 233.761 64.7121Z" fill="#16181A"/>
<path d="M245.298 56.5982C245.966 55.2961 247.727 52.0568 247.727 52.0568C247.727 52.0568 247.727 52.0568 248.031 52.3289C248.334 52.6016 250.399 55.7196 251.067 57.3548C251.735 58.9895 252.435 60.1482 253.435 61.5027C254.127 62.4406 254.778 63.6186 255.112 64.2544C255.223 64.4634 255.069 64.7121 254.832 64.7121H241.187C240.84 64.7121 241.17 63.6523 242.019 62.3502C242.869 61.0487 244.63 57.9002 245.298 56.5982Z" fill="#16181A"/>
<path d="M319.915 8.83333C321.447 8.83333 319.992 13.5122 316.238 19.2605C312.485 25.0088 304.709 38.9116 301.76 44.6599C298.811 50.4082 291.036 64.7121 291.036 64.7121C291.036 64.7121 291.036 64.7121 289.695 63.509C288.355 62.3058 279.239 48.5367 276.29 41.3179C273.34 34.0991 270.247 28.9834 265.833 23.0035C261.419 17.0237 257.388 8.83333 257.388 8.83333C257.388 8.83333 261.007 8.83333 263.152 11.507C265.297 14.1806 272 26.3456 275.083 31.5591C278.166 36.7727 281.518 40.1147 283.931 44.5262C286.344 48.9377 290.499 58.9638 290.499 58.9638C290.499 58.9638 290.499 58.9638 291.438 56.6912C292.376 54.4186 297.604 48.2693 297.604 48.2693C297.604 48.2693 297.604 48.2693 299.347 42.3873C301.09 36.5053 305.514 34.5001 307.793 28.4845C310.072 22.4688 318.383 8.83333 319.915 8.83333Z" fill="#16181A"/>
<path d="M314.211 8.83333C314.211 8.83333 311.328 14.6923 308.17 18.9696C305.012 23.2468 302.8 26.9065 300.691 32.0698C298.581 37.2336 292.06 47.0827 291.102 47.9437C290.142 48.804 290.142 48.804 290.142 48.804C290.142 48.804 284.581 38.5721 282.471 34.4606C280.362 30.3491 274.8 20.4037 272.115 16.2922C269.43 12.1802 268.389 8.83333 269.485 8.83333C270.581 8.83333 276.526 18.5867 278.156 22.8902C279.787 27.1931 282.951 28.6272 284.197 32.835C285.444 37.0427 285.444 37.0427 285.444 37.0427C285.444 37.0427 289.184 41.4414 289.855 43.067C290.526 44.6925 290.526 44.6925 290.526 44.6925C290.526 44.6925 293.499 37.5208 295.225 34.3648C296.951 31.2094 299.348 28.8187 301.554 25.0895C303.76 21.3598 308.554 12.6582 310.089 10.746C311.622 8.83333 314.211 8.83333 314.211 8.83333Z" fill="#16181A"/>
<path d="M303.136 8.83333C303.784 8.83333 303.168 10.8145 301.579 13.2486C299.99 15.6826 296.697 21.5699 295.448 24.0035C294.199 26.4375 290.907 32.4944 290.907 32.4944C290.907 32.4944 290.907 32.4944 290.339 31.9848C289.771 31.4752 285.912 25.6446 284.663 22.5881C283.414 19.5316 282.104 17.3649 280.235 14.8329C278.366 12.301 276.659 8.83279 276.659 8.83279C276.659 8.83279 278.192 8.83279 279.1 9.96481C280.008 11.0968 282.846 16.2484 284.152 18.4557C285.458 20.6631 286.877 22.0785 287.899 23.9463C288.92 25.8146 290.68 30.0598 290.68 30.0598C290.68 30.0598 290.68 30.0598 291.078 29.0978C291.475 28.1353 293.689 25.5312 293.689 25.5312C293.689 25.5312 293.689 25.5312 294.427 23.0404C295.165 20.5497 297.038 19.7005 298.003 17.1531C298.968 14.6073 302.487 8.83333 303.136 8.83333Z" fill="#16181A"/>
<path d="M293.965 16.1901C293.296 17.8253 291.232 20.9432 290.928 21.216C290.625 21.4881 290.625 21.4881 290.625 21.4881C290.625 21.4881 288.864 18.2488 288.196 16.9467C287.528 15.6447 285.767 12.4962 284.917 11.1941C284.067 9.89262 283.737 8.83279 284.084 8.83279H297.729C297.966 8.83279 298.12 9.08091 298.01 9.29052C297.675 9.92631 297.025 11.1043 296.332 12.0422C295.333 13.3967 294.632 14.5554 293.965 16.1901Z" fill="#16181A"/>
<path d="M333.934 8.83333C333.934 8.83333 341.709 23.1372 344.658 28.8855C347.607 34.6338 355.383 48.5367 359.136 54.285C362.89 60.0332 364.345 64.7121 362.813 64.7121C361.281 64.7121 352.97 51.0766 350.691 45.0609C348.412 39.0453 343.988 37.0401 342.245 31.1581C340.502 25.2761 340.502 25.2761 340.502 25.2761C340.502 25.2761 335.274 19.1268 334.336 16.8542C333.397 14.5816 333.397 14.5816 333.397 14.5816C333.397 14.5816 329.242 24.6077 326.829 29.0192C324.416 33.4307 321.064 36.7727 317.981 41.9863C314.898 47.1998 308.195 59.3648 306.05 62.0385C303.905 64.7121 300.286 64.7121 300.286 64.7121C300.286 64.7121 304.317 56.5217 308.731 50.5419C313.145 44.562 316.238 39.4463 319.187 32.2275C322.137 25.0088 331.253 11.2396 332.593 10.0365C333.934 8.83333 333.934 8.83333 333.934 8.83333Z" fill="#16181A"/>
<path d="M312.383 64.7121C311.287 64.7121 312.328 61.3653 315.012 57.2532C317.697 53.1417 323.259 43.1964 325.369 39.0849C327.478 34.9728 333.04 24.7414 333.04 24.7414C333.04 24.7414 333.04 24.7414 333.999 25.6018C334.958 26.4621 341.479 36.3118 343.588 41.4756C345.698 46.6395 347.91 50.2986 351.068 54.5758C354.225 58.8536 357.109 64.7121 357.109 64.7121C357.109 64.7121 354.52 64.7121 352.986 62.7994C351.452 60.8867 346.657 52.1851 344.451 48.4559C342.246 44.7267 339.848 42.336 338.122 39.1806C336.396 36.0252 333.423 28.8534 333.423 28.8534C333.423 28.8534 333.423 28.8534 332.752 30.479C332.081 32.1046 328.341 36.5032 328.341 36.5032C328.341 36.5032 328.341 36.5032 327.094 40.711C325.847 44.9182 322.683 46.3528 321.053 50.6558C319.423 54.9582 313.478 64.7121 312.383 64.7121Z" fill="#16181A"/>
<path d="M319.556 64.7121C319.556 64.7121 321.263 61.2439 323.132 58.7119C325.002 56.18 326.311 54.0133 327.56 50.9568C328.809 47.8998 332.669 42.0692 333.237 41.5601C333.804 41.0505 333.804 41.0505 333.804 41.0505C333.804 41.0505 337.097 47.1073 338.346 49.5414C339.595 51.9755 342.887 57.8628 344.476 60.2969C346.066 62.7309 346.682 64.7121 346.033 64.7121C345.385 64.7121 341.865 58.9381 340.9 56.3907C339.935 53.8433 338.062 52.9941 337.324 50.5034C336.586 48.0126 336.586 48.0126 336.586 48.0126C336.586 48.0126 334.372 45.4085 333.975 44.4465C333.578 43.484 333.578 43.484 333.578 43.484C333.578 43.484 331.818 47.7298 330.796 49.5976C329.774 51.4659 328.355 52.8808 327.05 55.0886C325.744 57.296 322.906 62.4475 321.997 63.5795C321.089 64.7121 319.556 64.7121 319.556 64.7121Z" fill="#16181A"/>
<path d="M331.094 56.5982C331.762 55.2961 333.523 52.0568 333.523 52.0568C333.523 52.0568 333.523 52.0568 333.826 52.3289C334.13 52.6016 336.195 55.7196 336.862 57.3548C337.531 58.9895 338.231 60.1482 339.23 61.5027C339.923 62.4406 340.574 63.6186 340.908 64.2544C341.019 64.4634 340.865 64.7121 340.628 64.7121H326.983C326.636 64.7121 326.965 63.6523 327.815 62.3502C328.665 61.0487 330.426 57.9002 331.094 56.5982Z" fill="#16181A"/>
<path d="M406.783 8.83333C408.315 8.83333 406.86 13.5122 403.107 19.2605C399.353 25.0088 391.578 38.9116 388.629 44.6599C385.679 50.4082 377.904 64.7121 377.904 64.7121C377.904 64.7121 377.904 64.7121 376.563 63.509C375.223 62.3058 366.107 48.5367 363.158 41.3179C360.209 34.0991 357.116 28.9834 352.702 23.0035C348.287 17.0237 344.256 8.83333 344.256 8.83333C344.256 8.83333 347.875 8.83333 350.02 11.507C352.165 14.1806 358.868 26.3456 361.951 31.5591C365.035 36.7727 368.386 40.1147 370.799 44.5262C373.212 48.9377 377.368 58.9638 377.368 58.9638C377.368 58.9638 377.368 58.9638 378.306 56.6912C379.245 54.4186 384.473 48.2693 384.473 48.2693C384.473 48.2693 384.473 48.2693 386.216 42.3873C387.958 36.5053 392.382 34.5001 394.661 28.4845C396.94 22.4688 405.251 8.83333 406.783 8.83333Z" fill="#16181A"/>
<path d="M401.08 8.83333C401.08 8.83333 398.196 14.6923 395.039 18.9696C391.881 23.2468 389.669 26.9065 387.559 32.0698C385.45 37.2336 378.929 47.0827 377.97 47.9437C377.011 48.804 377.011 48.804 377.011 48.804C377.011 48.804 371.449 38.5721 369.339 34.4606C367.23 30.3491 361.668 20.4037 358.983 16.2922C356.298 12.1802 355.258 8.83333 356.354 8.83333C357.449 8.83333 363.394 18.5867 365.024 22.8902C366.655 27.1931 369.819 28.6272 371.066 32.835C372.312 37.0427 372.312 37.0427 372.312 37.0427C372.312 37.0427 376.052 41.4414 376.724 43.067C377.395 44.6925 377.395 44.6925 377.395 44.6925C377.395 44.6925 380.367 37.5208 382.094 34.3648C383.82 31.2094 386.217 28.8187 388.423 25.0895C390.628 21.3598 395.422 12.6582 396.957 10.746C398.491 8.83333 401.08 8.83333 401.08 8.83333Z" fill="#16181A"/>
<path d="M390.003 8.83333C390.652 8.83333 390.036 10.8145 388.447 13.2486C386.857 15.6826 383.565 21.5699 382.316 24.0035C381.067 26.4375 377.775 32.4944 377.775 32.4944C377.775 32.4944 377.775 32.4944 377.207 31.9848C376.639 31.4752 372.779 25.6446 371.53 22.5881C370.282 19.5316 368.972 17.3649 367.103 14.8329C365.234 12.301 363.527 8.83279 363.527 8.83279C363.527 8.83279 365.059 8.83279 365.968 9.96481C366.876 11.0968 369.714 16.2484 371.02 18.4557C372.326 20.6631 373.745 22.0785 374.767 23.9463C375.788 25.8146 377.548 30.0598 377.548 30.0598C377.548 30.0598 377.548 30.0598 377.945 29.0978C378.343 28.1353 380.557 25.5312 380.557 25.5312C380.557 25.5312 380.557 25.5312 381.295 23.0404C382.032 20.5497 383.906 19.7005 384.871 17.1531C385.836 14.6073 389.355 8.83333 390.003 8.83333Z" fill="#16181A"/>
<path d="M380.833 16.1901C380.165 17.8253 378.1 20.9432 377.797 21.216C377.493 21.4881 377.493 21.4881 377.493 21.4881C377.493 21.4881 375.732 18.2488 375.064 16.9467C374.396 15.6447 372.636 12.4962 371.785 11.1941C370.935 9.89262 370.605 8.83279 370.952 8.83279H384.598C384.835 8.83279 384.989 9.08091 384.878 9.29052C384.544 9.92631 383.893 11.1043 383.2 12.0422C382.201 13.3967 381.5 14.5554 380.833 16.1901Z" fill="#16181A"/>
<path d="M420.802 8.83333C420.802 8.83333 428.577 23.1372 431.526 28.8855C434.476 34.6338 442.251 48.5367 446.005 54.285C449.758 60.0332 451.213 64.7121 449.681 64.7121C448.149 64.7121 439.838 51.0766 437.559 45.0609C435.28 39.0453 430.856 37.0401 429.113 31.1581C427.371 25.2761 427.371 25.2761 427.371 25.2761C427.371 25.2761 422.143 19.1268 421.204 16.8542C420.266 14.5816 420.266 14.5816 420.266 14.5816C420.266 14.5816 416.11 24.6077 413.697 29.0192C411.284 33.4307 407.933 36.7727 404.849 41.9863C401.766 47.1998 395.063 59.3648 392.918 62.0385C390.773 64.7121 387.154 64.7121 387.154 64.7121C387.154 64.7121 391.185 56.5217 395.599 50.5419C400.014 44.562 403.107 39.4463 406.056 32.2275C409.005 25.0088 418.121 11.2396 419.461 10.0365C420.802 8.83333 420.802 8.83333 420.802 8.83333Z" fill="#16181A"/>
<path d="M399.251 64.7121C398.156 64.7121 399.196 61.3653 401.881 57.2532C404.566 53.1417 410.127 43.1964 412.237 39.0849C414.346 34.9728 419.908 24.7414 419.908 24.7414C419.908 24.7414 419.908 24.7414 420.867 25.6018C421.826 26.4621 428.347 36.3118 430.457 41.4756C432.566 46.6395 434.779 50.2986 437.936 54.5758C441.094 58.8536 443.977 64.7121 443.977 64.7121C443.977 64.7121 441.388 64.7121 439.854 62.7994C438.32 60.8867 433.525 52.1851 431.319 48.4559C429.114 44.7267 426.717 42.336 424.99 39.1806C423.264 36.0252 420.291 28.8534 420.291 28.8534C420.291 28.8534 420.292 28.8534 419.621 30.479C418.949 32.1046 415.209 36.5032 415.209 36.5032C415.209 36.5032 415.209 36.5032 413.962 40.711C412.716 44.9182 409.551 46.3528 407.921 50.6558C406.292 54.9582 400.347 64.7121 399.251 64.7121Z" fill="#16181A"/>
<path d="M406.425 64.7121C406.425 64.7121 408.132 61.2439 410.001 58.7119C411.87 56.18 413.18 54.0133 414.428 50.9568C415.677 47.8998 419.537 42.0692 420.105 41.5601C420.673 41.0505 420.673 41.0505 420.673 41.0505C420.673 41.0505 423.965 47.1073 425.214 49.5414C426.463 51.9755 429.755 57.8628 431.345 60.2969C432.934 62.7309 433.55 64.7121 432.901 64.7121C432.253 64.7121 428.733 58.9381 427.769 56.3907C426.803 53.8433 424.93 52.9941 424.193 50.5034C423.455 48.0126 423.455 48.0126 423.455 48.0126C423.455 48.0126 421.241 45.4085 420.843 44.4465C420.446 43.484 420.446 43.484 420.446 43.484C420.446 43.484 418.686 47.7298 417.665 49.5976C416.642 51.4659 415.224 52.8808 413.918 55.0886C412.612 57.296 409.774 62.4475 408.866 63.5795C407.957 64.7121 406.425 64.7121 406.425 64.7121Z" fill="#16181A"/>
<path d="M417.962 56.5982C418.63 55.2961 420.391 52.0568 420.391 52.0568C420.391 52.0568 420.391 52.0568 420.695 52.3289C420.998 52.6016 423.063 55.7196 423.731 57.3548C424.399 58.9895 425.099 60.1482 426.099 61.5027C426.792 62.4406 427.442 63.6186 427.777 64.2544C427.887 64.4634 427.733 64.7121 427.496 64.7121H413.851C413.504 64.7121 413.833 63.6523 414.684 62.3502C415.534 61.0487 417.294 57.9002 417.962 56.5982Z" fill="#16181A"/>
<path d="M492.579 8.83333C494.111 8.83333 492.656 13.5122 488.902 19.2605C485.149 25.0088 477.374 38.9116 474.424 44.6599C471.475 50.4082 463.7 64.7121 463.7 64.7121C463.7 64.7121 463.7 64.7121 462.359 63.509C461.019 62.3058 451.903 48.5367 448.954 41.3179C446.005 34.0991 442.912 28.9834 438.497 23.0035C434.083 17.0237 430.052 8.83333 430.052 8.83333C430.052 8.83333 433.671 8.83333 435.816 11.507C437.961 14.1806 444.664 26.3456 447.747 31.5591C450.831 36.7727 454.182 40.1147 456.595 44.5262C459.008 48.9377 463.164 58.9638 463.164 58.9638C463.164 58.9638 463.164 58.9638 464.102 56.6912C465.04 54.4186 470.269 48.2693 470.269 48.2693C470.269 48.2693 470.269 48.2693 472.011 42.3873C473.754 36.5053 478.178 34.5001 480.457 28.4845C482.736 22.4688 491.047 8.83333 492.579 8.83333Z" fill="#16181A"/>
<path d="M486.876 8.83333C486.876 8.83333 483.992 14.6923 480.834 18.9696C477.677 23.2468 475.465 26.9065 473.355 32.0698C471.246 37.2336 464.725 47.0827 463.766 47.9437C462.807 48.804 462.807 48.804 462.807 48.804C462.807 48.804 457.245 38.5721 455.135 34.4606C453.026 30.3491 447.464 20.4037 444.779 16.2922C442.094 12.1802 441.054 8.83333 442.15 8.83333C443.245 8.83333 449.19 18.5867 450.82 22.8902C452.45 27.1931 455.615 28.6272 456.861 32.835C458.108 37.0427 458.108 37.0427 458.108 37.0427C458.108 37.0427 461.848 41.4414 462.52 43.067C463.191 44.6925 463.19 44.6925 463.19 44.6925C463.19 44.6925 466.163 37.5208 467.889 34.3648C469.616 31.2094 472.012 28.8187 474.219 25.0895C476.424 21.3598 481.218 12.6582 482.753 10.746C484.287 8.83333 486.876 8.83333 486.876 8.83333Z" fill="#16181A"/>
<path d="M475.799 8.83333C476.448 8.83333 475.832 10.8145 474.243 13.2486C472.653 15.6826 469.361 21.5699 468.112 24.0035C466.863 26.4375 463.571 32.4944 463.571 32.4944C463.571 32.4944 463.571 32.4944 463.003 31.9848C462.435 31.4752 458.575 25.6446 457.326 22.5881C456.077 19.5316 454.768 17.3649 452.899 14.8329C451.029 12.301 449.323 8.83279 449.323 8.83279C449.323 8.83279 450.855 8.83279 451.764 9.96481C452.672 11.0968 455.51 16.2484 456.816 18.4557C458.122 20.6631 459.54 22.0785 460.562 23.9463C461.584 25.8146 463.344 30.0598 463.344 30.0598C463.344 30.0598 463.344 30.0598 463.741 29.0978C464.139 28.1353 466.353 25.5312 466.353 25.5312C466.353 25.5312 466.353 25.5312 467.09 23.0404C467.828 20.5497 469.702 19.7005 470.667 17.1531C471.632 14.6073 475.151 8.83333 475.799 8.83333Z" fill="#16181A"/>
<path d="M466.629 16.1901C465.961 17.8253 463.896 20.9432 463.593 21.216C463.289 21.4881 463.289 21.4881 463.289 21.4881C463.289 21.4881 461.528 18.2488 460.86 16.9467C460.192 15.6447 458.432 12.4962 457.581 11.1941C456.731 9.89262 456.401 8.83279 456.748 8.83279H470.394C470.631 8.83279 470.785 9.08091 470.674 9.29052C470.339 9.92631 469.689 11.1043 468.996 12.0422C467.997 13.3967 467.296 14.5554 466.629 16.1901Z" fill="#16181A"/>
<path d="M506.598 8.83333C506.598 8.83333 514.373 23.1372 517.322 28.8855C520.272 34.6338 528.047 48.5367 531.8 54.285C535.554 60.0332 537.009 64.7121 535.477 64.7121C533.945 64.7121 525.634 51.0766 523.355 45.0609C521.076 39.0453 516.652 37.0401 514.909 31.1581C513.167 25.2761 513.167 25.2761 513.167 25.2761C513.167 25.2761 507.938 19.1268 507 16.8542C506.062 14.5816 506.062 14.5816 506.062 14.5816C506.062 14.5816 501.906 24.6077 499.493 29.0192C497.08 33.4307 493.728 36.7727 490.645 41.9863C487.562 47.1998 480.859 59.3648 478.714 62.0385C476.569 64.7121 472.95 64.7121 472.95 64.7121C472.95 64.7121 476.981 56.5217 481.395 50.5419C485.81 44.562 488.902 39.4463 491.852 32.2275C494.801 25.0088 503.917 11.2396 505.257 10.0365C506.598 8.83333 506.598 8.83333 506.598 8.83333Z" fill="#16181A"/>
<path d="M485.047 64.7121C483.952 64.7121 484.992 61.3653 487.677 57.2532C490.362 53.1417 495.923 43.1964 498.033 39.0849C500.142 34.9728 505.704 24.7414 505.704 24.7414C505.704 24.7414 505.704 24.7414 506.663 25.6018C507.622 26.4621 514.143 36.3118 516.253 41.4756C518.362 46.6395 520.575 50.2986 523.732 54.5758C526.89 58.8536 529.773 64.7121 529.773 64.7121C529.773 64.7121 527.184 64.7121 525.65 62.7994C524.116 60.8867 519.321 52.1851 517.115 48.4559C514.91 44.7267 512.512 42.336 510.786 39.1806C509.06 36.0252 506.087 28.8534 506.087 28.8534C506.087 28.8534 506.087 28.8534 505.416 30.479C504.745 32.1046 501.005 36.5032 501.005 36.5032C501.005 36.5032 501.005 36.5032 499.758 40.711C498.512 44.9182 495.347 46.3528 493.717 50.6558C492.088 54.9582 486.143 64.7121 485.047 64.7121Z" fill="#16181A"/>
<path d="M492.221 64.7121C492.221 64.7121 493.927 61.2439 495.797 58.7119C497.666 56.18 498.975 54.0133 500.224 50.9568C501.473 47.8998 505.333 42.0692 505.901 41.5601C506.469 41.0505 506.469 41.0505 506.469 41.0505C506.469 41.0505 509.761 47.1073 511.01 49.5414C512.259 51.9755 515.551 57.8628 517.141 60.2969C518.73 62.7309 519.346 64.7121 518.697 64.7121C518.049 64.7121 514.529 58.9381 513.565 56.3907C512.599 53.8433 510.726 52.9941 509.988 50.5034C509.251 48.0126 509.251 48.0126 509.251 48.0126C509.251 48.0126 507.036 45.4085 506.639 44.4465C506.242 43.484 506.242 43.484 506.242 43.484C506.242 43.484 504.482 47.7298 503.46 49.5976C502.438 51.4659 501.02 52.8808 499.714 55.0886C498.408 57.296 495.57 62.4475 494.661 63.5795C493.753 64.7121 492.221 64.7121 492.221 64.7121Z" fill="#16181A"/>
<path d="M503.758 56.5982C504.426 55.2961 506.187 52.0568 506.187 52.0568C506.187 52.0568 506.187 52.0568 506.491 52.3289C506.794 52.6016 508.859 55.7196 509.527 57.3548C510.195 58.9895 510.895 60.1482 511.895 61.5027C512.587 62.4406 513.238 63.6186 513.573 64.2544C513.683 64.4634 513.529 64.7121 513.292 64.7121H499.647C499.3 64.7121 499.629 63.6523 500.48 62.3502C501.329 61.0487 503.09 57.9002 503.758 56.5982Z" fill="#16181A"/>
<path d="M578.375 8.83333C579.906 8.83333 578.452 13.5122 574.698 19.2605C570.945 25.0088 563.169 38.9116 560.22 44.6599C557.271 50.4082 549.496 64.7121 549.496 64.7121C549.496 64.7121 549.496 64.7121 548.155 63.509C546.815 62.3058 537.699 48.5367 534.75 41.3179C531.8 34.0991 528.707 28.9834 524.293 23.0035C519.879 17.0237 515.848 8.83333 515.848 8.83333C515.848 8.83333 519.467 8.83333 521.612 11.507C523.757 14.1806 530.46 26.3456 533.543 31.5591C536.626 36.7727 539.978 40.1147 542.391 44.5262C544.804 48.9377 548.96 58.9638 548.96 58.9638C548.96 58.9638 548.96 58.9638 549.898 56.6912C550.836 54.4186 556.065 48.2693 556.065 48.2693C556.065 48.2693 556.065 48.2693 557.807 42.3873C559.55 36.5053 563.974 34.5001 566.253 28.4845C568.532 22.4688 576.843 8.83333 578.375 8.83333Z" fill="#16181A"/>
<path d="M572.671 8.83333C572.671 8.83333 569.788 14.6923 566.63 18.9696C563.472 23.2468 561.26 26.9065 559.151 32.0698C557.041 37.2336 550.52 47.0827 549.561 47.9437C548.602 48.804 548.602 48.804 548.602 48.804C548.602 48.804 543.041 38.5721 540.931 34.4606C538.821 30.3491 533.259 20.4037 530.575 16.2922C527.889 12.1802 526.849 8.83333 527.945 8.83333C529.04 8.83333 534.986 18.5867 536.616 22.8902C538.246 27.1931 541.41 28.6272 542.657 32.835C543.904 37.0427 543.904 37.0427 543.904 37.0427C543.904 37.0427 547.644 41.4414 548.315 43.067C548.986 44.6925 548.986 44.6925 548.986 44.6925C548.986 44.6925 551.959 37.5208 553.685 34.3648C555.411 31.2094 557.808 28.8187 560.014 25.0895C562.219 21.3598 567.014 12.6582 568.548 10.746C570.083 8.83333 572.671 8.83333 572.671 8.83333Z" fill="#16181A"/>
<path d="M561.595 8.83333C562.244 8.83333 561.628 10.8145 560.039 13.2486C558.449 15.6826 555.157 21.5699 553.908 24.0035C552.659 26.4375 549.367 32.4944 549.367 32.4944C549.367 32.4944 549.367 32.4944 548.799 31.9848C548.231 31.4752 544.371 25.6446 543.122 22.5881C541.873 19.5316 540.563 17.3649 538.694 14.8329C536.825 12.301 535.118 8.83279 535.118 8.83279C535.118 8.83279 536.651 8.83279 537.559 9.96481C538.467 11.0968 541.306 16.2484 542.611 18.4557C543.917 20.6631 545.336 22.0785 546.357 23.9463C547.379 25.8146 549.139 30.0598 549.139 30.0598C549.139 30.0598 549.139 30.0598 549.537 29.0978C549.934 28.1353 552.147 25.5312 552.147 25.5312C552.147 25.5312 552.147 25.5312 552.885 23.0404C553.624 20.5497 555.497 19.7005 556.462 17.1531C557.428 14.6073 560.947 8.83333 561.595 8.83333Z" fill="#16181A"/>
<path d="M552.425 16.1901C551.757 17.8253 549.692 20.9432 549.389 21.216C549.085 21.4881 549.085 21.4881 549.085 21.4881C549.085 21.4881 547.325 18.2488 546.656 16.9467C545.989 15.6447 544.228 12.4962 543.378 11.1941C542.528 9.89262 542.198 8.83279 542.545 8.83279H556.191C556.427 8.83279 556.581 9.08091 556.47 9.29052C556.136 9.92631 555.485 11.1043 554.793 12.0422C553.793 13.3967 553.092 14.5554 552.425 16.1901Z" fill="#16181A"/>
<path d="M592.394 8.83333C592.394 8.83333 600.169 23.1372 603.118 28.8855C606.067 34.6338 613.843 48.5367 617.596 54.285C621.35 60.0332 622.805 64.7121 621.273 64.7121C619.741 64.7121 611.43 51.0766 609.151 45.0609C606.872 39.0453 602.448 37.0401 600.705 31.1581C598.962 25.2761 598.962 25.2761 598.962 25.2761C598.962 25.2761 593.734 19.1268 592.796 16.8542C591.857 14.5816 591.857 14.5816 591.857 14.5816C591.857 14.5816 587.702 24.6077 585.289 29.0192C582.876 33.4307 579.524 36.7727 576.441 41.9863C573.358 47.1998 566.655 59.3648 564.51 62.0385C562.365 64.7121 558.746 64.7121 558.746 64.7121C558.746 64.7121 562.777 56.5217 567.191 50.5419C571.605 44.562 574.698 39.4463 577.648 32.2275C580.597 25.0088 589.713 11.2396 591.053 10.0365C592.394 8.83333 592.394 8.83333 592.394 8.83333Z" fill="#16181A"/>
<path d="M570.843 64.7121C569.747 64.7121 570.788 61.3653 573.473 57.2532C576.158 53.1417 581.72 43.1964 583.829 39.0849C585.939 34.9728 591.501 24.7414 591.501 24.7414C591.501 24.7414 591.501 24.7414 592.46 25.6018C593.418 26.4621 599.939 36.3118 602.049 41.4756C604.159 46.6395 606.371 50.2986 609.528 54.5758C612.687 58.8536 615.57 64.7121 615.57 64.7121C615.57 64.7121 612.981 64.7121 611.447 62.7994C609.913 60.8867 605.118 52.1851 602.912 48.4559C600.707 44.7267 598.31 42.336 596.584 39.1806C594.857 36.0252 591.884 28.8534 591.884 28.8534C591.884 28.8534 591.884 28.8534 591.214 30.479C590.542 32.1046 586.802 36.5032 586.802 36.5032C586.802 36.5032 586.802 36.5032 585.556 40.711C584.309 44.9182 581.144 46.3528 579.514 50.6558C577.883 54.9582 571.939 64.7121 570.843 64.7121Z" fill="#16181A"/>
<path d="M578.016 64.7121C578.016 64.7121 579.723 61.2439 581.593 58.7119C583.462 56.18 584.772 54.0133 586.02 50.9568C587.269 47.8998 591.129 42.0692 591.697 41.5601C592.265 41.0505 592.265 41.0505 592.265 41.0505C592.265 41.0505 595.557 47.1073 596.806 49.5414C598.055 51.9755 601.348 57.8628 602.937 60.2969C604.526 62.7309 605.142 64.7121 604.494 64.7121C603.845 64.7121 600.326 58.9381 599.361 56.3907C598.396 53.8433 596.523 52.9941 595.784 50.5034C595.046 48.0126 595.046 48.0126 595.046 48.0126C595.046 48.0126 592.833 45.4085 592.436 44.4465C592.038 43.484 592.038 43.484 592.038 43.484C592.038 43.484 590.279 47.7298 589.256 49.5976C588.235 51.4659 586.815 52.8808 585.51 55.0886C584.205 57.296 581.366 62.4475 580.458 63.5795C579.55 64.7121 578.016 64.7121 578.016 64.7121Z" fill="#16181A"/>
<path d="M589.554 56.5982C590.222 55.2961 591.982 52.0568 591.982 52.0568C591.982 52.0568 591.982 52.0568 592.286 52.3289C592.589 52.6016 594.654 55.7196 595.322 57.3548C595.99 58.9895 596.69 60.1482 597.69 61.5027C598.382 62.4406 599.033 63.6186 599.368 64.2544C599.478 64.4634 599.324 64.7121 599.088 64.7121H585.443C585.096 64.7121 585.425 63.6523 586.275 62.3502C587.125 61.0487 588.886 57.9002 589.554 56.5982Z" fill="#16181A"/>
<path d="M664.171 8.83333C665.702 8.83333 664.248 13.5122 660.494 19.2605C656.741 25.0088 648.965 38.9116 646.016 44.6599C643.067 50.4082 635.292 64.7121 635.292 64.7121C635.292 64.7121 635.292 64.7121 633.951 63.509C632.611 62.3058 623.495 48.5367 620.546 41.3179C617.596 34.0991 614.503 28.9834 610.089 23.0035C605.675 17.0237 601.644 8.83333 601.644 8.83333C601.644 8.83333 605.263 8.83333 607.408 11.507C609.553 14.1806 616.256 26.3456 619.339 31.5591C622.422 36.7727 625.774 40.1147 628.187 44.5262C630.6 48.9377 634.755 58.9638 634.755 58.9638C634.755 58.9638 634.755 58.9638 635.694 56.6912C636.632 54.4186 641.86 48.2693 641.86 48.2693C641.86 48.2693 641.86 48.2693 643.603 42.3873C645.346 36.5053 649.77 34.5001 652.049 28.4845C654.328 22.4688 662.639 8.83333 664.171 8.83333Z" fill="#16181A"/>
<path d="M658.467 8.83333C658.467 8.83333 655.584 14.6923 652.426 18.9696C649.268 23.2468 647.056 26.9065 644.946 32.0698C642.837 37.2336 636.316 47.0827 635.357 47.9437C634.398 48.804 634.398 48.804 634.398 48.804C634.398 48.804 628.837 38.5721 626.727 34.4606C624.617 30.3491 619.055 20.4037 616.37 16.2922C613.685 12.1802 612.645 8.83333 613.741 8.83333C614.836 8.83333 620.781 18.5867 622.412 22.8902C624.042 27.1931 627.206 28.6272 628.453 32.835C629.699 37.0427 629.699 37.0427 629.699 37.0427C629.699 37.0427 633.44 41.4414 634.111 43.067C634.782 44.6925 634.782 44.6925 634.782 44.6925C634.782 44.6925 637.755 37.5208 639.481 34.3648C641.207 31.2094 643.604 28.8187 645.81 25.0895C648.015 21.3598 652.81 12.6582 654.344 10.746C655.878 8.83333 658.467 8.83333 658.467 8.83333Z" fill="#16181A"/>
<path d="M647.391 8.83333C648.04 8.83333 647.424 10.8145 645.834 13.2486C644.245 15.6826 640.953 21.5699 639.704 24.0035C638.455 26.4375 635.162 32.4944 635.162 32.4944C635.162 32.4944 635.162 32.4944 634.595 31.9848C634.027 31.4752 630.166 25.6446 628.918 22.5881C627.669 19.5316 626.359 17.3649 624.49 14.8329C622.621 12.301 620.914 8.83279 620.914 8.83279C620.914 8.83279 622.446 8.83279 623.355 9.96481C624.263 11.0968 627.101 16.2484 628.407 18.4557C629.713 20.6631 631.132 22.0785 632.153 23.9463C633.175 25.8146 634.935 30.0598 634.935 30.0598C634.935 30.0598 634.935 30.0598 635.332 29.0978C635.73 28.1353 637.943 25.5312 637.943 25.5312C637.943 25.5312 637.943 25.5312 638.681 23.0404C639.42 20.5497 641.293 19.7005 642.258 17.1531C643.224 14.6073 646.743 8.83333 647.391 8.83333Z" fill="#16181A"/>
<path d="M638.221 16.1901C637.553 17.8253 635.488 20.9432 635.184 21.216C634.881 21.4881 634.881 21.4881 634.881 21.4881C634.881 21.4881 633.12 18.2488 632.452 16.9467C631.785 15.6447 630.024 12.4962 629.174 11.1941C628.323 9.89262 627.994 8.83279 628.341 8.83279H641.986C642.223 8.83279 642.377 9.08091 642.266 9.29052C641.932 9.92631 641.281 11.1043 640.589 12.0422C639.589 13.3967 638.888 14.5554 638.221 16.1901Z" fill="#16181A"/>
<path d="M678.19 8.83333C678.19 8.83333 685.965 23.1372 688.914 28.8855C691.863 34.6338 699.639 48.5367 703.392 54.285C707.146 60.0332 708.6 64.7121 707.068 64.7121C705.536 64.7121 697.226 51.0766 694.947 45.0609C692.668 39.0453 688.244 37.0401 686.501 31.1581C684.758 25.2761 684.758 25.2761 684.758 25.2761C684.758 25.2761 679.53 19.1268 678.592 16.8542C677.653 14.5816 677.653 14.5816 677.653 14.5816C677.653 14.5816 673.498 24.6077 671.085 29.0192C668.672 33.4307 665.32 36.7727 662.237 41.9863C659.154 47.1998 652.451 59.3648 650.306 62.0385C648.161 64.7121 644.542 64.7121 644.542 64.7121C644.542 64.7121 648.573 56.5217 652.987 50.5419C657.401 44.562 660.494 39.4463 663.443 32.2275C666.393 25.0088 675.508 11.2396 676.849 10.0365C678.19 8.83333 678.19 8.83333 678.19 8.83333Z" fill="#16181A"/>
<path d="M656.639 64.7121C655.543 64.7121 656.583 61.3653 659.269 57.2532C661.954 53.1417 667.516 43.1964 669.625 39.0849C671.735 34.9728 677.297 24.7414 677.297 24.7414C677.297 24.7414 677.297 24.7414 678.256 25.6018C679.214 26.4621 685.735 36.3118 687.845 41.4756C689.955 46.6395 692.167 50.2986 695.324 54.5758C698.482 58.8536 701.366 64.7121 701.366 64.7121C701.366 64.7121 698.777 64.7121 697.243 62.7994C695.709 60.8867 690.914 52.1851 688.708 48.4559C686.503 44.7267 684.106 42.336 682.38 39.1806C680.653 36.0252 677.68 28.8534 677.68 28.8534C677.68 28.8534 677.68 28.8534 677.009 30.479C676.338 32.1046 672.598 36.5032 672.598 36.5032C672.598 36.5032 672.598 36.5032 671.352 40.711C670.105 44.9182 666.94 46.3528 665.31 50.6558C663.679 54.9582 657.735 64.7121 656.639 64.7121Z" fill="#16181A"/>
<path d="M663.812 64.7121C663.812 64.7121 665.519 61.2439 667.388 58.7119C669.258 56.18 670.568 54.0133 671.816 50.9568C673.065 47.8998 676.925 42.0692 677.493 41.5601C678.061 41.0505 678.061 41.0505 678.061 41.0505C678.061 41.0505 681.353 47.1073 682.602 49.5414C683.851 51.9755 687.143 57.8628 688.733 60.2969C690.322 62.7309 690.938 64.7121 690.289 64.7121C689.641 64.7121 686.122 58.9381 685.157 56.3907C684.192 53.8433 682.319 52.9941 681.58 50.5034C680.842 48.0126 680.842 48.0126 680.842 48.0126C680.842 48.0126 678.629 45.4085 678.231 44.4465C677.834 43.484 677.834 43.484 677.834 43.484C677.834 43.484 676.075 47.7298 675.052 49.5976C674.031 51.4659 672.611 52.8808 671.306 55.0886C670 57.296 667.162 62.4475 666.254 63.5795C665.345 64.7121 663.812 64.7121 663.812 64.7121Z" fill="#16181A"/>
<path d="M675.35 56.5982C676.018 55.2961 677.778 52.0568 677.778 52.0568C677.778 52.0568 677.778 52.0568 678.082 52.3289C678.385 52.6016 680.45 55.7196 681.118 57.3548C681.786 58.9895 682.486 60.1482 683.486 61.5027C684.178 62.4406 684.829 63.6186 685.164 64.2544C685.274 64.4634 685.12 64.7121 684.884 64.7121H671.239C670.892 64.7121 671.221 63.6523 672.071 62.3502C672.921 61.0487 674.682 57.9002 675.35 56.5982Z" fill="#16181A"/>
<path d="M749.966 8.83333C751.498 8.83333 750.044 13.5122 746.29 19.2605C742.536 25.0088 734.761 38.9116 731.812 44.6599C728.863 50.4082 721.088 64.7121 721.088 64.7121C721.088 64.7121 721.088 64.7121 719.747 63.509C718.406 62.3058 709.291 48.5367 706.341 41.3179C703.392 34.0991 700.299 28.9834 695.885 23.0035C691.471 17.0237 687.439 8.83333 687.439 8.83333C687.439 8.83333 691.059 8.83333 693.204 11.507C695.349 14.1806 702.052 26.3456 705.135 31.5591C708.218 36.7727 711.57 40.1147 713.983 44.5262C716.396 48.9377 720.551 58.9638 720.551 58.9638C720.551 58.9638 720.551 58.9638 721.49 56.6912C722.428 54.4186 727.656 48.2693 727.656 48.2693C727.656 48.2693 727.656 48.2693 729.399 42.3873C731.142 36.5053 735.566 34.5001 737.845 28.4845C740.124 22.4688 748.435 8.83333 749.966 8.83333Z" fill="#16181A"/>
<path d="M744.263 8.83333C744.263 8.83333 741.38 14.6923 738.222 18.9696C735.064 23.2468 732.852 26.9065 730.742 32.0698C728.633 37.2336 722.112 47.0827 721.153 47.9437C720.194 48.804 720.194 48.804 720.194 48.804C720.194 48.804 714.632 38.5721 712.522 34.4606C710.413 30.3491 704.851 20.4037 702.166 16.2922C699.481 12.1802 698.441 8.83333 699.537 8.83333C700.632 8.83333 706.577 18.5867 708.207 22.8902C709.838 27.1931 713.002 28.6272 714.249 32.835C715.495 37.0427 715.495 37.0427 715.495 37.0427C715.495 37.0427 719.235 41.4414 719.907 43.067C720.578 44.6925 720.578 44.6925 720.578 44.6925C720.578 44.6925 723.55 37.5208 725.277 34.3648C727.003 31.2094 729.4 28.8187 731.606 25.0895C733.811 21.3598 738.606 12.6582 740.14 10.746C741.674 8.83333 744.263 8.83333 744.263 8.83333Z" fill="#16181A"/>
<path d="M733.187 8.83333C733.836 8.83333 733.22 10.8145 731.63 13.2486C730.041 15.6826 726.748 21.5699 725.5 24.0035C724.251 26.4375 720.958 32.4944 720.958 32.4944C720.958 32.4944 720.958 32.4944 720.39 31.9848C719.823 31.4752 715.962 25.6446 714.714 22.5881C713.465 19.5316 712.155 17.3649 710.286 14.8329C708.417 12.301 706.71 8.83279 706.71 8.83279C706.71 8.83279 708.242 8.83279 709.151 9.96481C710.059 11.0968 712.897 16.2484 714.203 18.4557C715.509 20.6631 716.927 22.0785 717.949 23.9463C718.971 25.8146 720.731 30.0598 720.731 30.0598C720.731 30.0598 720.731 30.0598 721.128 29.0978C721.526 28.1353 723.739 25.5312 723.739 25.5312C723.739 25.5312 723.739 25.5312 724.477 23.0404C725.215 20.5497 727.088 19.7005 728.054 17.1531C729.019 14.6073 732.539 8.83333 733.187 8.83333Z" fill="#16181A"/>
<path d="M724.016 16.1901C723.349 17.8253 721.284 20.9432 720.98 21.216C720.677 21.4881 720.677 21.4881 720.677 21.4881C720.677 21.4881 718.916 18.2488 718.248 16.9467C717.581 15.6447 715.82 12.4962 714.97 11.1941C714.119 9.89262 713.79 8.83279 714.137 8.83279H727.782C728.019 8.83279 728.173 9.08091 728.062 9.29052C727.728 9.92631 727.077 11.1043 726.384 12.0422C725.385 13.3967 724.684 14.5554 724.016 16.1901Z" fill="#16181A"/>
<path d="M763.985 8.83333C763.985 8.83333 771.761 23.1372 774.71 28.8855C777.659 34.6338 785.434 48.5367 789.188 54.285C792.942 60.0332 794.396 64.7121 792.864 64.7121C791.332 64.7121 783.021 51.0766 780.742 45.0609C778.464 39.0453 774.04 37.0401 772.297 31.1581C770.554 25.2761 770.554 25.2761 770.554 25.2761C770.554 25.2761 765.326 19.1268 764.388 16.8542C763.449 14.5816 763.449 14.5816 763.449 14.5816C763.449 14.5816 759.294 24.6077 756.88 29.0192C754.468 33.4307 751.116 36.7727 748.033 41.9863C744.95 47.1998 738.247 59.3648 736.102 62.0385C733.957 64.7121 730.337 64.7121 730.337 64.7121C730.337 64.7121 734.369 56.5217 738.783 50.5419C743.197 44.562 746.29 39.4463 749.239 32.2275C752.189 25.0088 761.304 11.2396 762.645 10.0365C763.985 8.83333 763.985 8.83333 763.985 8.83333Z" fill="#16181A"/>
<path d="M742.435 64.7121C741.339 64.7121 742.379 61.3653 745.065 57.2532C747.75 53.1417 753.311 43.1964 755.421 39.0849C757.531 34.9728 763.093 24.7414 763.093 24.7414C763.093 24.7414 763.093 24.7414 764.051 25.6018C765.01 26.4621 771.531 36.3118 773.641 41.4756C775.751 46.6395 777.963 50.2986 781.12 54.5758C784.278 58.8536 787.162 64.7121 787.162 64.7121C787.162 64.7121 784.573 64.7121 783.039 62.7994C781.504 60.8867 776.71 52.1851 774.504 48.4559C772.299 44.7267 769.902 42.336 768.176 39.1806C766.449 36.0252 763.476 28.8534 763.476 28.8534C763.476 28.8534 763.476 28.8534 762.805 30.479C762.134 32.1046 758.394 36.5032 758.394 36.5032C758.394 36.5032 758.394 36.5032 757.148 40.711C755.901 44.9182 752.736 46.3528 751.106 50.6558C749.475 54.9582 743.531 64.7121 742.435 64.7121Z" fill="#16181A"/>
<path d="M749.608 64.7121C749.608 64.7121 751.315 61.2439 753.184 58.7119C755.054 56.18 756.364 54.0133 757.612 50.9568C758.861 47.8998 762.721 42.0692 763.289 41.5601C763.857 41.0505 763.857 41.0505 763.857 41.0505C763.857 41.0505 767.149 47.1073 768.398 49.5414C769.647 51.9755 772.939 57.8628 774.529 60.2969C776.118 62.7309 776.734 64.7121 776.085 64.7121C775.437 64.7121 771.918 58.9381 770.953 56.3907C769.987 53.8433 768.114 52.9941 767.376 50.5034C766.638 48.0126 766.638 48.0126 766.638 48.0126C766.638 48.0126 764.425 45.4085 764.027 44.4465C763.63 43.484 763.63 43.484 763.63 43.484C763.63 43.484 761.871 47.7298 760.848 49.5976C759.827 51.4659 758.407 52.8808 757.102 55.0886C755.796 57.296 752.957 62.4475 752.05 63.5795C751.141 64.7121 749.608 64.7121 749.608 64.7121Z" fill="#16181A"/>
<path d="M761.146 56.5982C761.814 55.2961 763.574 52.0568 763.574 52.0568C763.574 52.0568 763.574 52.0568 763.878 52.3289C764.181 52.6016 766.246 55.7196 766.914 57.3548C767.581 58.9895 768.282 60.1482 769.282 61.5027C769.974 62.4406 770.625 63.6186 770.96 64.2544C771.07 64.4634 770.916 64.7121 770.68 64.7121H757.034C756.688 64.7121 757.017 63.6523 757.867 62.3502C758.717 61.0487 760.478 57.9002 761.146 56.5982Z" fill="#16181A"/>
<path d="M835.762 8.83333C837.294 8.83333 835.84 13.5122 832.086 19.2605C828.332 25.0088 820.557 38.9116 817.608 44.6599C814.659 50.4082 806.883 64.7121 806.883 64.7121C806.883 64.7121 806.883 64.7121 805.543 63.509C804.202 62.3058 795.086 48.5367 792.137 41.3179C789.188 34.0991 786.095 28.9834 781.681 23.0035C777.267 17.0237 773.235 8.83333 773.235 8.83333C773.235 8.83333 776.855 8.83333 779 11.507C781.145 14.1806 787.847 26.3456 790.931 31.5591C794.014 36.7727 797.365 40.1147 799.778 44.5262C802.191 48.9377 806.347 58.9638 806.347 58.9638C806.347 58.9638 806.347 58.9638 807.286 56.6912C808.224 54.4186 813.452 48.2693 813.452 48.2693C813.452 48.2693 813.452 48.2693 815.195 42.3873C816.938 36.5053 821.362 34.5001 823.64 28.4845C825.919 22.4688 834.231 8.83333 835.762 8.83333Z" fill="#16181A"/>
<path d="M830.059 8.83333C830.059 8.83333 827.176 14.6923 824.017 18.9696C820.86 23.2468 818.648 26.9065 816.538 32.0698C814.429 37.2336 807.908 47.0827 806.949 47.9437C805.99 48.804 805.99 48.804 805.99 48.804C805.99 48.804 800.428 38.5721 798.318 34.4606C796.209 30.3491 790.647 20.4037 787.962 16.2922C785.277 12.1802 784.237 8.83333 785.333 8.83333C786.428 8.83333 792.373 18.5867 794.003 22.8902C795.633 27.1931 798.798 28.6272 800.045 32.835C801.291 37.0427 801.291 37.0427 801.291 37.0427C801.291 37.0427 805.031 41.4414 805.703 43.067C806.373 44.6925 806.373 44.6925 806.373 44.6925C806.373 44.6925 809.346 37.5208 811.073 34.3648C812.799 31.2094 815.196 28.8187 817.401 25.0895C819.607 21.3598 824.402 12.6582 825.936 10.746C827.47 8.83333 830.059 8.83333 830.059 8.83333Z" fill="#16181A"/>
<path d="M818.983 8.83333C819.632 8.83333 819.016 10.8145 817.426 13.2486C815.837 15.6826 812.544 21.5699 811.296 24.0035C810.047 26.4375 806.754 32.4944 806.754 32.4944C806.754 32.4944 806.754 32.4944 806.186 31.9848C805.618 31.4752 801.758 25.6446 800.509 22.5881C799.261 19.5316 797.951 17.3649 796.082 14.8329C794.212 12.301 792.506 8.83279 792.506 8.83279C792.506 8.83279 794.038 8.83279 794.947 9.96481C795.855 11.0968 798.693 16.2484 799.999 18.4557C801.305 20.6631 802.723 22.0785 803.745 23.9463C804.767 25.8146 806.527 30.0598 806.527 30.0598C806.527 30.0598 806.527 30.0598 806.924 29.0978C807.322 28.1353 809.535 25.5312 809.535 25.5312C809.535 25.5312 809.535 25.5312 810.273 23.0404C811.011 20.5497 812.884 19.7005 813.849 17.1531C814.815 14.6073 818.334 8.83333 818.983 8.83333Z" fill="#16181A"/>
<path d="M809.812 16.1901C809.145 17.8253 807.08 20.9432 806.776 21.216C806.473 21.4881 806.473 21.4881 806.473 21.4881C806.473 21.4881 804.712 18.2488 804.044 16.9467C803.377 15.6447 801.616 12.4962 800.766 11.1941C799.915 9.89262 799.586 8.83279 799.933 8.83279H813.578C813.815 8.83279 813.969 9.08091 813.858 9.29052C813.523 9.92631 812.873 11.1043 812.18 12.0422C811.181 13.3967 810.48 14.5554 809.812 16.1901Z" fill="#16181A"/>
<path d="M849.781 8.83333C849.781 8.83333 857.557 23.1372 860.506 28.8855C863.455 34.6338 871.23 48.5367 874.984 54.285C878.737 60.0332 880.192 64.7121 878.66 64.7121C877.128 64.7121 868.817 51.0766 866.538 45.0609C864.259 39.0453 859.836 37.0401 858.093 31.1581C856.35 25.2761 856.35 25.2761 856.35 25.2761C856.35 25.2761 851.122 19.1268 850.184 16.8542C849.245 14.5816 849.245 14.5816 849.245 14.5816C849.245 14.5816 845.089 24.6077 842.676 29.0192C840.263 33.4307 836.912 36.7727 833.829 41.9863C830.745 47.1998 824.043 59.3648 821.898 62.0385C819.753 64.7121 816.133 64.7121 816.133 64.7121C816.133 64.7121 820.165 56.5217 824.579 50.5419C828.993 44.562 832.086 39.4463 835.035 32.2275C837.984 25.0088 847.1 11.2396 848.441 10.0365C849.781 8.83333 849.781 8.83333 849.781 8.83333Z" fill="#16181A"/>
<path d="M828.231 64.7121C827.135 64.7121 828.175 61.3653 830.861 57.2532C833.546 53.1417 839.107 43.1964 841.217 39.0849C843.327 34.9728 848.889 24.7414 848.889 24.7414C848.889 24.7414 848.889 24.7414 849.847 25.6018C850.806 26.4621 857.327 36.3118 859.437 41.4756C861.547 46.6395 863.759 50.2986 866.916 54.5758C870.074 58.8536 872.958 64.7121 872.958 64.7121C872.958 64.7121 870.369 64.7121 868.834 62.7994C867.3 60.8867 862.505 52.1851 860.3 48.4559C858.095 44.7267 855.698 42.336 853.971 39.1806C852.245 36.0252 849.272 28.8534 849.272 28.8534C849.272 28.8534 849.272 28.8534 848.601 30.479C847.93 32.1046 844.19 36.5032 844.19 36.5032C844.19 36.5032 844.19 36.5032 842.943 40.711C841.697 44.9182 838.532 46.3528 836.902 50.6558C835.271 54.9582 829.327 64.7121 828.231 64.7121Z" fill="#16181A"/>
<path d="M835.404 64.7121C835.404 64.7121 837.111 61.2439 838.98 58.7119C840.849 56.18 842.159 54.0133 843.408 50.9568C844.657 47.8998 848.517 42.0692 849.085 41.5601C849.653 41.0505 849.653 41.0505 849.653 41.0505C849.653 41.0505 852.945 47.1073 854.194 49.5414C855.443 51.9755 858.735 57.8628 860.325 60.2969C861.914 62.7309 862.53 64.7121 861.881 64.7121C861.233 64.7121 857.714 58.9381 856.749 56.3907C855.783 53.8433 853.91 52.9941 853.172 50.5034C852.434 48.0126 852.434 48.0126 852.434 48.0126C852.434 48.0126 850.221 45.4085 849.823 44.4465C849.426 43.484 849.426 43.484 849.426 43.484C849.426 43.484 847.667 47.7298 846.644 49.5976C845.622 51.4659 844.203 52.8808 842.898 55.0886C841.592 57.296 838.753 62.4475 837.846 63.5795C836.937 64.7121 835.404 64.7121 835.404 64.7121Z" fill="#16181A"/>
<path d="M846.942 56.5982C847.61 55.2961 849.37 52.0568 849.37 52.0568C849.37 52.0568 849.37 52.0568 849.674 52.3289C849.977 52.6016 852.042 55.7196 852.71 57.3548C853.377 58.9895 854.078 60.1482 855.078 61.5027C855.77 62.4406 856.421 63.6186 856.755 64.2544C856.866 64.4634 856.712 64.7121 856.476 64.7121H842.83C842.483 64.7121 842.813 63.6523 843.663 62.3502C844.513 61.0487 846.274 57.9002 846.942 56.5982Z" fill="#16181A"/>
<path d="M921.558 8.83333C923.09 8.83333 921.635 13.5122 917.882 19.2605C914.128 25.0088 906.353 38.9116 903.404 44.6599C900.455 50.4082 892.679 64.7121 892.679 64.7121C892.679 64.7121 892.679 64.7121 891.339 63.509C889.998 62.3058 880.882 48.5367 877.933 41.3179C874.984 34.0991 871.891 28.9834 867.477 23.0035C863.063 17.0237 859.031 8.83333 859.031 8.83333C859.031 8.83333 862.651 8.83333 864.796 11.507C866.941 14.1806 873.643 26.3456 876.727 31.5591C879.81 36.7727 883.161 40.1147 885.574 44.5262C887.987 48.9377 892.143 58.9638 892.143 58.9638C892.143 58.9638 892.143 58.9638 893.081 56.6912C894.02 54.4186 899.248 48.2693 899.248 48.2693C899.248 48.2693 899.248 48.2693 900.991 42.3873C902.734 36.5053 907.157 34.5001 909.436 28.4845C911.715 22.4688 920.027 8.83333 921.558 8.83333Z" fill="#16181A"/>
<path d="M915.855 8.83333C915.855 8.83333 912.972 14.6923 909.813 18.9696C906.655 23.2468 904.444 26.9065 902.334 32.0698C900.225 37.2336 893.703 47.0827 892.745 47.9437C891.786 48.804 891.786 48.804 891.786 48.804C891.786 48.804 886.224 38.5721 884.114 34.4606C882.005 30.3491 876.443 20.4037 873.758 16.2922C871.073 12.1802 870.032 8.83333 871.128 8.83333C872.224 8.83333 878.169 18.5867 879.799 22.8902C881.429 27.1931 884.594 28.6272 885.841 32.835C887.087 37.0427 887.087 37.0427 887.087 37.0427C887.087 37.0427 890.827 41.4414 891.499 43.067C892.169 44.6925 892.169 44.6925 892.169 44.6925C892.169 44.6925 895.142 37.5208 896.869 34.3648C898.595 31.2094 900.992 28.8187 903.197 25.0895C905.403 21.3598 910.198 12.6582 911.732 10.746C913.266 8.83333 915.855 8.83333 915.855 8.83333Z" fill="#16181A"/>
<path d="M904.779 8.83333C905.427 8.83333 904.812 10.8145 903.222 13.2486C901.633 15.6826 898.34 21.5699 897.091 24.0035C895.843 26.4375 892.55 32.4944 892.55 32.4944C892.55 32.4944 892.55 32.4944 891.982 31.9848C891.414 31.4752 887.554 25.6446 886.305 22.5881C885.057 19.5316 883.747 17.3649 881.878 14.8329C880.008 12.301 878.302 8.83279 878.302 8.83279C878.302 8.83279 879.834 8.83279 880.742 9.96481C881.651 11.0968 884.489 16.2484 885.795 18.4557C887.1 20.6631 888.519 22.0785 889.541 23.9463C890.563 25.8146 892.323 30.0598 892.323 30.0598C892.323 30.0598 892.323 30.0598 892.72 29.0978C893.117 28.1353 895.331 25.5312 895.331 25.5312C895.331 25.5312 895.331 25.5312 896.069 23.0404C896.807 20.5497 898.68 19.7005 899.645 17.1531C900.611 14.6073 904.13 8.83333 904.779 8.83333Z" fill="#16181A"/>
<path d="M895.608 16.1901C894.941 17.8253 892.876 20.9432 892.572 21.216C892.269 21.4881 892.269 21.4881 892.269 21.4881C892.269 21.4881 890.508 18.2488 889.84 16.9467C889.172 15.6447 887.411 12.4962 886.562 11.1941C885.711 9.89262 885.382 8.83279 885.728 8.83279H899.374C899.611 8.83279 899.765 9.08091 899.654 9.29052C899.319 9.92631 898.668 11.1043 897.976 12.0422C896.977 13.3967 896.276 14.5554 895.608 16.1901Z" fill="#16181A"/>
<path d="M935.577 8.83333C935.577 8.83333 943.352 23.1372 946.302 28.8855C949.251 34.6338 957.026 48.5367 960.78 54.285C964.533 60.0332 965.988 64.7121 964.456 64.7121C962.924 64.7121 954.613 51.0766 952.334 45.0609C950.055 39.0453 945.631 37.0401 943.889 31.1581C942.146 25.2761 942.146 25.2761 942.146 25.2761C942.146 25.2761 936.918 19.1268 935.979 16.8542C935.041 14.5816 935.041 14.5816 935.041 14.5816C935.041 14.5816 930.885 24.6077 928.472 29.0192C926.059 33.4307 922.708 36.7727 919.625 41.9863C916.541 47.1998 909.839 59.3648 907.694 62.0385C905.549 64.7121 901.929 64.7121 901.929 64.7121C901.929 64.7121 905.961 56.5217 910.375 50.5419C914.789 44.562 917.882 39.4463 920.831 32.2275C923.78 25.0088 932.896 11.2396 934.237 10.0365C935.577 8.83333 935.577 8.83333 935.577 8.83333Z" fill="#16181A"/>
<path d="M914.026 64.7121C912.931 64.7121 913.971 61.3653 916.657 57.2532C919.341 53.1417 924.903 43.1964 927.013 39.0849C929.123 34.9728 934.684 24.7414 934.684 24.7414C934.684 24.7414 934.684 24.7414 935.643 25.6018C936.602 26.4621 943.123 36.3118 945.232 41.4756C947.343 46.6395 949.554 50.2986 952.712 54.5758C955.87 58.8536 958.753 64.7121 958.753 64.7121C958.753 64.7121 956.164 64.7121 954.63 62.7994C953.096 60.8867 948.301 52.1851 946.096 48.4559C943.891 44.7267 941.493 42.336 939.767 39.1806C938.041 36.0252 935.068 28.8534 935.068 28.8534C935.068 28.8534 935.068 28.8534 934.397 30.479C933.726 32.1046 929.986 36.5032 929.986 36.5032C929.986 36.5032 929.986 36.5032 928.739 40.711C927.493 44.9182 924.328 46.3528 922.698 50.6558C921.067 54.9582 915.122 64.7121 914.026 64.7121Z" fill="#16181A"/>
<path d="M921.2 64.7121C921.2 64.7121 922.907 61.2439 924.776 58.7119C926.645 56.18 927.955 54.0133 929.204 50.9568C930.453 47.8998 934.313 42.0692 934.881 41.5601C935.449 41.0505 935.449 41.0505 935.449 41.0505C935.449 41.0505 938.741 47.1073 939.99 49.5414C941.239 51.9755 944.531 57.8628 946.12 60.2969C947.71 62.7309 948.326 64.7121 947.677 64.7121C947.029 64.7121 943.509 58.9381 942.544 56.3907C941.579 53.8433 939.706 52.9941 938.968 50.5034C938.23 48.0126 938.23 48.0126 938.23 48.0126C938.23 48.0126 936.016 45.4085 935.619 44.4465C935.222 43.484 935.222 43.484 935.222 43.484C935.222 43.484 933.462 47.7298 932.44 49.5976C931.418 51.4659 929.999 52.8808 928.694 55.0886C927.388 57.296 924.549 62.4475 923.641 63.5795C922.733 64.7121 921.2 64.7121 921.2 64.7121Z" fill="#16181A"/>
<path d="M932.737 56.5982C933.406 55.2961 935.166 52.0568 935.166 52.0568C935.166 52.0568 935.166 52.0568 935.469 52.3289C935.773 52.6016 937.838 55.7196 938.506 57.3548C939.173 58.9895 939.874 60.1482 940.874 61.5027C941.566 62.4406 942.217 63.6186 942.551 64.2544C942.662 64.4634 942.508 64.7121 942.271 64.7121H928.626C928.279 64.7121 928.608 63.6523 929.459 62.3502C930.309 61.0487 932.07 57.9002 932.737 56.5982Z" fill="#16181A"/>
<path d="M1007.35 8.83333C1008.89 8.83333 1007.43 13.5122 1003.68 19.2605C999.924 25.0088 992.149 38.9116 989.2 44.6599C986.25 50.4082 978.475 64.7121 978.475 64.7121C978.475 64.7121 978.475 64.7121 977.135 63.509C975.794 62.3058 966.678 48.5367 963.729 41.3179C960.78 34.0991 957.687 28.9834 953.273 23.0035C948.858 17.0237 944.827 8.83333 944.827 8.83333C944.827 8.83333 948.447 8.83333 950.592 11.507C952.736 14.1806 959.439 26.3456 962.523 31.5591C965.606 36.7727 968.957 40.1147 971.37 44.5262C973.783 48.9377 977.939 58.9638 977.939 58.9638C977.939 58.9638 977.939 58.9638 978.877 56.6912C979.816 54.4186 985.044 48.2693 985.044 48.2693C985.044 48.2693 985.044 48.2693 986.787 42.3873C988.529 36.5053 992.953 34.5001 995.232 28.4845C997.511 22.4688 1005.82 8.83333 1007.35 8.83333Z" fill="#16181A"/>
<path d="M1001.65 8.83333C1001.65 8.83333 998.768 14.6923 995.609 18.9696C992.451 23.2468 990.239 26.9065 988.13 32.0698C986.02 37.2336 979.499 47.0827 978.541 47.9437C977.582 48.804 977.582 48.804 977.582 48.804C977.582 48.804 972.02 38.5721 969.91 34.4606C967.801 30.3491 962.239 20.4037 959.554 16.2922C956.869 12.1802 955.828 8.83333 956.924 8.83333C958.02 8.83333 963.965 18.5867 965.595 22.8902C967.225 27.1931 970.389 28.6272 971.637 32.835C972.883 37.0427 972.883 37.0427 972.883 37.0427C972.883 37.0427 976.623 41.4414 977.294 43.067C977.965 44.6925 977.965 44.6925 977.965 44.6925C977.965 44.6925 980.938 37.5208 982.665 34.3648C984.391 31.2094 986.788 28.8187 988.993 25.0895C991.199 21.3598 995.994 12.6582 997.528 10.746C999.062 8.83333 1001.65 8.83333 1001.65 8.83333Z" fill="#16181A"/>
<path d="M990.575 8.83333C991.223 8.83333 990.608 10.8145 989.018 13.2486C987.429 15.6826 984.136 21.5699 982.887 24.0035C981.638 26.4375 978.346 32.4944 978.346 32.4944C978.346 32.4944 978.346 32.4944 977.778 31.9848C977.21 31.4752 973.35 25.6446 972.102 22.5881C970.853 19.5316 969.543 17.3649 967.673 14.8329C965.804 12.301 964.097 8.83279 964.097 8.83279C964.097 8.83279 965.63 8.83279 966.538 9.96481C967.447 11.0968 970.285 16.2484 971.591 18.4557C972.896 20.6631 974.315 22.0785 975.337 23.9463C976.359 25.8146 978.119 30.0598 978.119 30.0598C978.119 30.0598 978.119 30.0598 978.516 29.0978C978.913 28.1353 981.127 25.5312 981.127 25.5312C981.127 25.5312 981.127 25.5312 981.865 23.0404C982.603 20.5497 984.476 19.7005 985.441 17.1531C986.406 14.6073 989.926 8.83333 990.575 8.83333Z" fill="#16181A"/>
<path d="M981.404 16.1901C980.736 17.8253 978.671 20.9432 978.368 21.216C978.064 21.4881 978.064 21.4881 978.064 21.4881C978.064 21.4881 976.304 18.2488 975.636 16.9467C974.968 15.6447 973.207 12.4962 972.357 11.1941C971.507 9.89262 971.178 8.83279 971.524 8.83279H985.17C985.406 8.83279 985.561 9.08091 985.45 9.29052C985.115 9.92631 984.464 11.1043 983.772 12.0422C982.773 13.3967 982.072 14.5554 981.404 16.1901Z" fill="#16181A"/>
<path d="M1021.37 8.83333C1021.37 8.83333 1029.15 23.1372 1032.1 28.8855C1035.05 34.6338 1042.82 48.5367 1046.58 54.285C1050.33 60.0332 1051.78 64.7121 1050.25 64.7121C1048.72 64.7121 1040.41 51.0766 1038.13 45.0609C1035.85 39.0453 1031.43 37.0401 1029.68 31.1581C1027.94 25.2761 1027.94 25.2761 1027.94 25.2761C1027.94 25.2761 1022.71 19.1268 1021.78 16.8542C1020.84 14.5816 1020.84 14.5816 1020.84 14.5816C1020.84 14.5816 1016.68 24.6077 1014.27 29.0192C1011.86 33.4307 1008.5 36.7727 1005.42 41.9863C1002.34 47.1998 995.634 59.3648 993.49 62.0385C991.345 64.7121 987.725 64.7121 987.725 64.7121C987.725 64.7121 991.756 56.5217 996.171 50.5419C1000.58 44.562 1003.68 39.4463 1006.63 32.2275C1009.58 25.0088 1018.69 11.2396 1020.03 10.0365C1021.37 8.83333 1021.37 8.83333 1021.37 8.83333Z" fill="#16181A"/>
<path d="M999.822 64.7121C998.727 64.7121 999.767 61.3653 1002.45 57.2532C1005.14 53.1417 1010.7 43.1964 1012.81 39.0849C1014.92 34.9728 1020.48 24.7414 1020.48 24.7414C1020.48 24.7414 1020.48 24.7414 1021.44 25.6018C1022.4 26.4621 1028.92 36.3118 1031.03 41.4756C1033.14 46.6395 1035.35 50.2986 1038.51 54.5758C1041.67 58.8536 1044.55 64.7121 1044.55 64.7121C1044.55 64.7121 1041.96 64.7121 1040.43 62.7994C1038.89 60.8867 1034.1 52.1851 1031.89 48.4559C1029.69 44.7267 1027.29 42.336 1025.56 39.1806C1023.84 36.0252 1020.86 28.8534 1020.86 28.8534C1020.86 28.8534 1020.86 28.8534 1020.19 30.479C1019.52 32.1046 1015.78 36.5032 1015.78 36.5032C1015.78 36.5032 1015.78 36.5032 1014.54 40.711C1013.29 44.9182 1010.12 46.3528 1008.49 50.6558C1006.86 54.9582 1000.92 64.7121 999.822 64.7121Z" fill="#16181A"/>
<path d="M1007 64.7121C1007 64.7121 1008.7 61.2439 1010.57 58.7119C1012.44 56.18 1013.75 54.0133 1015 50.9568C1016.25 47.8998 1020.11 42.0692 1020.68 41.5601C1021.24 41.0505 1021.24 41.0505 1021.24 41.0505C1021.24 41.0505 1024.54 47.1073 1025.79 49.5414C1027.03 51.9755 1030.33 57.8628 1031.92 60.2969C1033.51 62.7309 1034.12 64.7121 1033.47 64.7121C1032.82 64.7121 1029.3 58.9381 1028.34 56.3907C1027.38 53.8433 1025.5 52.9941 1024.76 50.5034C1024.03 48.0126 1024.03 48.0126 1024.03 48.0126C1024.03 48.0126 1021.81 45.4085 1021.41 44.4465C1021.02 43.484 1021.02 43.484 1021.02 43.484C1021.02 43.484 1019.26 47.7298 1018.24 49.5976C1017.21 51.4659 1015.79 52.8808 1014.49 55.0886C1013.18 57.296 1010.35 62.4475 1009.44 63.5795C1008.53 64.7121 1007 64.7121 1007 64.7121Z" fill="#16181A"/>
<path d="M1018.53 56.5982C1019.2 55.2961 1020.96 52.0568 1020.96 52.0568C1020.96 52.0568 1020.96 52.0568 1021.27 52.3289C1021.57 52.6016 1023.63 55.7196 1024.3 57.3548C1024.97 58.9895 1025.67 60.1482 1026.67 61.5027C1027.36 62.4406 1028.01 63.6186 1028.35 64.2544C1028.46 64.4634 1028.3 64.7121 1028.07 64.7121H1014.42C1014.08 64.7121 1014.4 63.6523 1015.25 62.3502C1016.1 61.0487 1017.87 57.9002 1018.53 56.5982Z" fill="#16181A"/>
<path d="M1020.36 2.71661C1014.93 2.31717 720.149 2.561 699.107 2.71661C678.064 2.87222 568.934 2.93103 565.717 2.71661C562.499 2.50218 448.82 3.48608 448.82 3.48608C448.82 3.48608 448.82 3.48608 418.718 2.70484C388.617 1.92361 259.533 3.48608 228.415 2.70484C197.298 1.92361 141.563 1.63593 97.463 2.37599C53.3629 3.11605 0 2.37599 0 2.37599C2.68112 -0.0297394 100.81 -0.0297394 115.288 0.340294C129.766 0.71032 481.529 -0.584785 520.138 0.340294C558.746 1.26537 998.986 0.340294 1007 0.340294C1015.01 0.340294 1051 1.26537 1051 1.26537C1051 1.26537 1051 1.26537 1050.85 2.71661C1050.71 4.16732 1025.8 3.11605 1020.36 2.71661Z" fill="#16181A"/>
<path d="M30.6377 70.2839C36.0729 70.6834 330.85 70.4395 351.893 70.2839C372.935 70.1283 482.066 70.0695 485.283 70.2839C488.5 70.4984 602.18 69.5139 602.18 69.5139C602.18 69.5139 602.18 69.5139 632.281 70.2952C662.383 71.0764 791.467 69.5139 822.585 70.2952C853.702 71.0764 909.437 71.3646 953.537 70.624C997.637 69.884 1051 70.624 1051 70.624C1048.32 73.0303 950.19 73.0303 935.712 72.6597C921.234 72.2897 569.471 73.5848 530.863 72.6597C492.254 71.7346 52.0143 72.6597 44.0042 72.6597C35.9941 72.6597 0.00053593 71.7346 0.00053593 71.7346C0.00053593 71.7346 0.000536601 71.7346 0.14639 70.2839C0.291706 68.8327 25.2025 69.884 30.6377 70.2839Z" fill="#16181A"/>
</svg>
