<svg width="161" height="13" viewBox="0 0 161 13" fill="none" xmlns="http://www.w3.org/2000/svg">
<path d="M6.21167 12.2522C5.85672 11.3319 5.85672 11.2743 6.21167 11.2743C6.38915 11.2743 6.50746 11.5044 6.53704 11.792C6.53704 12.1659 6.5962 12.1372 6.80326 11.6482C7.06947 11.0155 7.69064 10.7279 7.69064 11.2168C7.69064 11.6482 6.95115 13 6.71452 13C6.5962 13 6.35957 12.6549 6.21167 12.2522Z" fill="black"/>
<path d="M1.53814 12.3672C1.12403 11.9646 1.06487 9.26104 1.47898 9.26104C1.65646 9.26104 1.77478 9.72121 1.77478 10.2677C1.77478 10.9579 1.92267 11.2743 2.21847 11.2743C2.66216 11.2743 5.02851 8.57077 5.79757 7.16148C6.24127 6.38493 6.21169 6.26989 5.20599 4.8606C4.6144 4.02653 3.66786 2.84733 3.13543 2.21459C2.07057 1.00662 2.07057 1.00662 1.5973 2.78981C1.36067 3.59511 1.33109 3.56635 1.24235 2.27211C1.15361 0.862817 1.50856 0.057508 2.24805 0.057508C2.4551 0.057508 3.57912 1.15043 4.7623 2.5022C5.91589 3.85396 6.98075 4.8606 7.12865 4.77432C7.27655 4.68803 8.01603 3.71016 8.75551 2.61724C10.7078 -0.258863 11.8022 -0.632757 12.3642 1.43804L12.66 2.5022L12.6896 1.43804C12.7192 0.172552 13.2812 -0.345146 13.3403 0.834056C13.3995 1.92697 13.2812 3.04866 13.1037 3.22122C13.0445 3.27874 12.8671 3.1637 12.7192 2.93361C12.4825 2.55972 12.4234 2.58848 12.4234 3.01989C12.4234 3.3075 12.305 3.45131 12.1276 3.36503C11.9797 3.27874 11.8318 2.90485 11.8318 2.55972C11.8318 2.21459 11.6839 1.72565 11.536 1.49556C11.2698 1.12167 11.0923 1.20795 10.412 1.9845C9.96827 2.47343 9.14005 3.73892 8.57804 4.74556L7.54276 6.61502L9.16963 8.94467C10.9148 11.4756 11.4768 11.7345 11.9501 10.1814C12.4825 8.39821 13.6657 9.57741 13.3699 11.6482C13.2812 12.0796 13.1333 12.4248 12.9854 12.4248C12.8375 12.4248 12.7192 12.0796 12.7192 11.6482V10.8429L12.1276 11.792C11.8022 12.2809 11.4177 12.7124 11.2698 12.7124C10.8852 12.7124 9.495 11.1017 8.31182 9.31856C7.77939 8.51325 7.21739 7.82299 7.09907 7.82299C6.95117 7.82299 6.00463 8.80086 4.99893 10.0088C3.40164 11.8495 2.4551 12.7124 2.01141 12.7124C1.95225 12.7124 1.7452 12.5686 1.53814 12.3672Z" fill="black"/>
<path d="M0 11.0155C0 10.2102 0.118318 9.49115 0.295794 9.40486C0.650747 9.20354 0.946541 10.3252 0.769064 11.2743C0.709905 11.677 0.621167 12.0796 0.621167 12.2234C0.591588 12.3385 0.47327 12.4248 0.295794 12.4248C0.147897 12.4248 0 11.792 0 11.0155Z" fill="black"/>
<path d="M6.30042 10.0951C5.82715 9.63494 6.15252 8.97344 6.80327 8.97344C7.48359 8.97344 7.74981 9.34733 7.51317 9.95131C7.30612 10.4978 6.77369 10.5553 6.30042 10.0951Z" fill="black"/>
<path d="M4.14112 6.81634C3.69743 6.29864 3.99322 5.80971 4.73271 5.80971C5.0285 5.80971 5.38345 5.95351 5.47219 6.09732C5.67925 6.41369 5.11724 7.24776 4.73271 7.24776C4.61439 7.24776 4.34817 7.04643 4.14112 6.81634Z" fill="black"/>
<path d="M8.4597 6.78758C8.22307 6.1836 8.48928 5.80971 9.16961 5.80971C9.4654 5.80971 9.79077 5.92475 9.87951 6.06855C10.1753 6.52873 9.73162 7.24776 9.16961 7.24776C8.87381 7.24776 8.54844 7.04643 8.4597 6.78758Z" fill="black"/>
<path d="M6.21167 3.65264C5.94546 3.33627 5.91588 3.10618 6.12293 2.90485C6.62578 2.41592 7.54274 2.73229 7.54274 3.36503C7.54274 4.08406 6.71452 4.25662 6.21167 3.65264Z" fill="black"/>
<path d="M0.147916 3.19245C-0.118299 2.50219 0.0887569 0.201304 0.44371 0.201304C0.857821 0.201304 0.976139 2.07077 0.621186 2.9336C0.41413 3.53758 0.325392 3.56634 0.147916 3.19245Z" fill="black"/>
<path d="M5.82715 1.61062C5.73841 1.49557 5.85673 1.12168 6.12294 0.719026L6.62579 0L7.15822 0.690265C7.77939 1.49557 7.83855 1.78318 7.27654 1.78318C7.0399 1.78318 6.77369 1.5531 6.71453 1.29425C6.59621 0.805309 6.56663 0.805309 6.53705 1.29425C6.50747 1.78318 6.1821 1.92699 5.82715 1.61062Z" fill="black"/>
<path d="M19.6283 12.2522C19.2734 11.3319 19.2734 11.2743 19.6283 11.2743C19.8058 11.2743 19.9241 11.5044 19.9537 11.792C19.9537 12.1659 20.0129 12.1372 20.2199 11.6482C20.4861 11.0155 21.1073 10.7279 21.1073 11.2168C21.1073 11.6482 20.3678 13 20.1312 13C20.0129 13 19.7762 12.6549 19.6283 12.2522Z" fill="black"/>
<path d="M14.9548 12.3672C14.5407 11.9646 14.4815 9.26104 14.8957 9.26104C15.0731 9.26104 15.1914 9.72121 15.1914 10.2677C15.1914 10.9579 15.3393 11.2743 15.6351 11.2743C16.0788 11.2743 18.4452 8.57077 19.2142 7.16148C19.6579 6.38493 19.6284 6.26989 18.6227 4.8606C18.0311 4.02653 17.0845 2.84733 16.5521 2.21459C15.4872 1.00662 15.4872 1.00662 15.014 2.78981C14.7773 3.59511 14.7478 3.56635 14.659 2.27211C14.5703 0.862817 14.9252 0.057508 15.6647 0.057508C15.8718 0.057508 16.9958 1.15043 18.179 2.5022C19.3326 3.85396 20.3974 4.8606 20.5453 4.77432C20.6932 4.68803 21.4327 3.71016 22.1722 2.61724C24.1244 -0.258863 25.2189 -0.632757 25.7809 1.43804L26.0767 2.5022L26.1062 1.43804C26.1358 0.172552 26.6978 -0.345146 26.757 0.834056C26.8161 1.92697 26.6978 3.04866 26.5204 3.22122C26.4612 3.27874 26.2837 3.1637 26.1358 2.93361C25.8992 2.55972 25.84 2.58848 25.84 3.01989C25.84 3.3075 25.7217 3.45131 25.5442 3.36503C25.3963 3.27874 25.2484 2.90485 25.2484 2.55972C25.2484 2.21459 25.1005 1.72565 24.9526 1.49556C24.6864 1.12167 24.509 1.20795 23.8286 1.9845C23.3849 2.47343 22.5567 3.73892 21.9947 4.74556L20.9594 6.61502L22.5863 8.94467C24.3315 11.4756 24.8935 11.7345 25.3668 10.1814C25.8992 8.39821 27.0824 9.57741 26.7866 11.6482C26.6978 12.0796 26.5499 12.4248 26.402 12.4248C26.2541 12.4248 26.1358 12.0796 26.1358 11.6482V10.8429L25.5442 11.792C25.2189 12.2809 24.8343 12.7124 24.6864 12.7124C24.3019 12.7124 22.9117 11.1017 21.7285 9.31856C21.1961 8.51325 20.6341 7.82299 20.5157 7.82299C20.3678 7.82299 19.4213 8.80086 18.4156 10.0088C16.8183 11.8495 15.8718 12.7124 15.4281 12.7124C15.3689 12.7124 15.1619 12.5686 14.9548 12.3672Z" fill="black"/>
<path d="M13.4167 11.0155C13.4167 10.2102 13.535 9.49115 13.7125 9.40486C14.0674 9.20354 14.3632 10.3252 14.1857 11.2743C14.1266 11.677 14.0378 12.0796 14.0378 12.2234C14.0083 12.3385 13.8899 12.4248 13.7125 12.4248C13.5646 12.4248 13.4167 11.792 13.4167 11.0155Z" fill="black"/>
<path d="M19.7171 10.0951C19.2438 9.63494 19.5692 8.97344 20.2199 8.97344C20.9003 8.97344 21.1665 9.34733 20.9298 9.95131C20.7228 10.4978 20.1904 10.5553 19.7171 10.0951Z" fill="black"/>
<path d="M17.5578 6.81634C17.1141 6.29864 17.4099 5.80971 18.1494 5.80971C18.4452 5.80971 18.8001 5.95351 18.8889 6.09732C19.0959 6.41369 18.5339 7.24776 18.1494 7.24776C18.0311 7.24776 17.7648 7.04643 17.5578 6.81634Z" fill="black"/>
<path d="M21.8764 6.78758C21.6397 6.1836 21.906 5.80971 22.5863 5.80971C22.8821 5.80971 23.2074 5.92475 23.2962 6.06855C23.592 6.52873 23.1483 7.24776 22.5863 7.24776C22.2905 7.24776 21.9651 7.04643 21.8764 6.78758Z" fill="black"/>
<path d="M19.6283 3.65264C19.3621 3.33627 19.3325 3.10618 19.5396 2.90485C20.0424 2.41592 20.9594 2.73229 20.9594 3.36503C20.9594 4.08406 20.1312 4.25662 19.6283 3.65264Z" fill="black"/>
<path d="M13.5646 3.19245C13.2984 2.50219 13.5054 0.201304 13.8604 0.201304C14.2745 0.201304 14.3928 2.07077 14.0379 2.9336C13.8308 3.53758 13.7421 3.56634 13.5646 3.19245Z" fill="black"/>
<path d="M19.2438 1.61062C19.1551 1.49557 19.2734 1.12168 19.5396 0.719026L20.0425 0L20.5749 0.690265C21.1961 1.49557 21.2552 1.78318 20.6932 1.78318C20.4566 1.78318 20.1904 1.5531 20.1312 1.29425C20.0129 0.805309 19.9833 0.805309 19.9537 1.29425C19.9241 1.78318 19.5988 1.92699 19.2438 1.61062Z" fill="black"/>
<path d="M33.045 12.2522C32.6901 11.3319 32.6901 11.2743 33.045 11.2743C33.2225 11.2743 33.3408 11.5044 33.3704 11.792C33.3704 12.1659 33.4295 12.1372 33.6366 11.6482C33.9028 11.0155 34.524 10.7279 34.524 11.2168C34.524 11.6482 33.7845 13 33.5479 13C33.4295 13 33.1929 12.6549 33.045 12.2522Z" fill="black"/>
<path d="M28.3715 12.3672C27.9574 11.9646 27.8982 9.26104 28.3123 9.26104C28.4898 9.26104 28.6081 9.72121 28.6081 10.2677C28.6081 10.9579 28.756 11.2743 29.0518 11.2743C29.4955 11.2743 31.8618 8.57077 32.6309 7.16148C33.0746 6.38493 33.045 6.26989 32.0393 4.8606C31.4477 4.02653 30.5012 2.84733 29.9688 2.21459C28.9039 1.00662 28.9039 1.00662 28.4306 2.78981C28.194 3.59511 28.1644 3.56635 28.0757 2.27211C27.9869 0.862817 28.3419 0.057508 29.0814 0.057508C29.2884 0.057508 30.4125 1.15043 31.5956 2.5022C32.7492 3.85396 33.8141 4.8606 33.962 4.77432C34.1099 4.68803 34.8494 3.71016 35.5889 2.61724C37.5411 -0.258863 38.6355 -0.632757 39.1975 1.43804L39.4933 2.5022L39.5229 1.43804C39.5525 0.172552 40.1145 -0.345146 40.1737 0.834056C40.2328 1.92697 40.1145 3.04866 39.937 3.22122C39.8779 3.27874 39.7004 3.1637 39.5525 2.93361C39.3159 2.55972 39.2567 2.58848 39.2567 3.01989C39.2567 3.3075 39.1384 3.45131 38.9609 3.36503C38.813 3.27874 38.6651 2.90485 38.6651 2.55972C38.6651 2.21459 38.5172 1.72565 38.3693 1.49556C38.1031 1.12167 37.9256 1.20795 37.2453 1.9845C36.8016 2.47343 35.9734 3.73892 35.4114 4.74556L34.3761 6.61502L36.003 8.94467C37.7481 11.4756 38.3102 11.7345 38.7834 10.1814C39.3159 8.39821 40.499 9.57741 40.2032 11.6482C40.1145 12.0796 39.9666 12.4248 39.8187 12.4248C39.6708 12.4248 39.5525 12.0796 39.5525 11.6482V10.8429L38.9609 11.792C38.6355 12.2809 38.251 12.7124 38.1031 12.7124C37.7186 12.7124 36.3283 11.1017 35.1452 9.31856C34.6127 8.51325 34.0507 7.82299 33.9324 7.82299C33.7845 7.82299 32.838 8.80086 31.8323 10.0088C30.235 11.8495 29.2884 12.7124 28.8447 12.7124C28.7856 12.7124 28.5785 12.5686 28.3715 12.3672Z" fill="black"/>
<path d="M26.8333 11.0155C26.8333 10.2102 26.9517 9.49115 27.1291 9.40486C27.4841 9.20354 27.7799 10.3252 27.6024 11.2743C27.5432 11.677 27.4545 12.0796 27.4545 12.2234C27.4249 12.3385 27.3066 12.4248 27.1291 12.4248C26.9812 12.4248 26.8333 11.792 26.8333 11.0155Z" fill="black"/>
<path d="M33.1338 10.0951C32.6605 9.63494 32.9859 8.97344 33.6366 8.97344C34.3169 8.97344 34.5831 9.34733 34.3465 9.95131C34.1395 10.4978 33.607 10.5553 33.1338 10.0951Z" fill="black"/>
<path d="M30.9745 6.81634C30.5308 6.29864 30.8266 5.80971 31.566 5.80971C31.8618 5.80971 32.2168 5.95351 32.3055 6.09732C32.5126 6.41369 31.9506 7.24776 31.566 7.24776C31.4477 7.24776 31.1815 7.04643 30.9745 6.81634Z" fill="black"/>
<path d="M35.293 6.78758C35.0564 6.1836 35.3226 5.80971 36.0029 5.80971C36.2987 5.80971 36.6241 5.92475 36.7128 6.06855C37.0086 6.52873 36.565 7.24776 36.0029 7.24776C35.7071 7.24776 35.3818 7.04643 35.293 6.78758Z" fill="black"/>
<path d="M33.045 3.65264C32.7788 3.33627 32.7492 3.10618 32.9563 2.90485C33.4591 2.41592 34.3761 2.73229 34.3761 3.36503C34.3761 4.08406 33.5479 4.25662 33.045 3.65264Z" fill="black"/>
<path d="M26.9813 3.19245C26.715 2.50219 26.9221 0.201304 27.277 0.201304C27.6912 0.201304 27.8095 2.07077 27.4545 2.9336C27.2475 3.53758 27.1587 3.56634 26.9813 3.19245Z" fill="black"/>
<path d="M32.6605 1.61062C32.5717 1.49557 32.6901 1.12168 32.9563 0.719026L33.4591 0L33.9916 0.690265C34.6127 1.49557 34.6719 1.78318 34.1099 1.78318C33.8732 1.78318 33.607 1.5531 33.5479 1.29425C33.4296 0.805309 33.4 0.805309 33.3704 1.29425C33.3408 1.78318 33.0154 1.92699 32.6605 1.61062Z" fill="black"/>
<path d="M46.4617 12.2522C46.1067 11.3319 46.1067 11.2743 46.4617 11.2743C46.6391 11.2743 46.7575 11.5044 46.787 11.792C46.787 12.1659 46.8462 12.1372 47.0533 11.6482C47.3195 11.0155 47.9406 10.7279 47.9406 11.2168C47.9406 11.6482 47.2012 13 46.9645 13C46.8462 13 46.6096 12.6549 46.4617 12.2522Z" fill="black"/>
<path d="M41.7881 12.3672C41.374 11.9646 41.3149 9.26104 41.729 9.26104C41.9065 9.26104 42.0248 9.72121 42.0248 10.2677C42.0248 10.9579 42.1727 11.2743 42.4685 11.2743C42.9122 11.2743 45.2785 8.57077 46.0476 7.16148C46.4913 6.38493 46.4617 6.26989 45.456 4.8606C44.8644 4.02653 43.9179 2.84733 43.3854 2.21459C42.3206 1.00662 42.3206 1.00662 41.8473 2.78981C41.6107 3.59511 41.5811 3.56635 41.4924 2.27211C41.4036 0.862817 41.7586 0.057508 42.4981 0.057508C42.7051 0.057508 43.8291 1.15043 45.0123 2.5022C46.1659 3.85396 47.2308 4.8606 47.3787 4.77432C47.5265 4.68803 48.266 3.71016 49.0055 2.61724C50.9578 -0.258863 52.0522 -0.632757 52.6142 1.43804L52.91 2.5022L52.9396 1.43804C52.9692 0.172552 53.5312 -0.345146 53.5903 0.834056C53.6495 1.92697 53.5312 3.04866 53.3537 3.22122C53.2945 3.27874 53.1171 3.1637 52.9692 2.93361C52.7325 2.55972 52.6734 2.58848 52.6734 3.01989C52.6734 3.3075 52.555 3.45131 52.3776 3.36503C52.2297 3.27874 52.0818 2.90485 52.0818 2.55972C52.0818 2.21459 51.9339 1.72565 51.786 1.49556C51.5198 1.12167 51.3423 1.20795 50.662 1.9845C50.2183 2.47343 49.39 3.73892 48.828 4.74556L47.7928 6.61502L49.4196 8.94467C51.1648 11.4756 51.7268 11.7345 52.2001 10.1814C52.7325 8.39821 53.9157 9.57741 53.6199 11.6482C53.5312 12.0796 53.3833 12.4248 53.2354 12.4248C53.0875 12.4248 52.9692 12.0796 52.9692 11.6482V10.8429L52.3776 11.792C52.0522 12.2809 51.6677 12.7124 51.5198 12.7124C51.1352 12.7124 49.745 11.1017 48.5618 9.31856C48.0294 8.51325 47.4674 7.82299 47.3491 7.82299C47.2012 7.82299 46.2546 8.80086 45.2489 10.0088C43.6516 11.8495 42.7051 12.7124 42.2614 12.7124C42.2023 12.7124 41.9952 12.5686 41.7881 12.3672Z" fill="black"/>
<path d="M40.25 11.0155C40.25 10.2102 40.3683 9.49115 40.5458 9.40486C40.9007 9.20354 41.1965 10.3252 41.0191 11.2743C40.9599 11.677 40.8712 12.0796 40.8712 12.2234C40.8416 12.3385 40.7233 12.4248 40.5458 12.4248C40.3979 12.4248 40.25 11.792 40.25 11.0155Z" fill="black"/>
<path d="M46.5504 10.0951C46.0771 9.63494 46.4025 8.97344 47.0533 8.97344C47.7336 8.97344 47.9998 9.34733 47.7632 9.95131C47.5561 10.4978 47.0237 10.5553 46.5504 10.0951Z" fill="black"/>
<path d="M44.3911 6.81634C43.9474 6.29864 44.2432 5.80971 44.9827 5.80971C45.2785 5.80971 45.6335 5.95351 45.7222 6.09732C45.9293 6.41369 45.3672 7.24776 44.9827 7.24776C44.8644 7.24776 44.5982 7.04643 44.3911 6.81634Z" fill="black"/>
<path d="M48.7097 6.78758C48.4731 6.1836 48.7393 5.80971 49.4196 5.80971C49.7154 5.80971 50.0408 5.92475 50.1295 6.06855C50.4253 6.52873 49.9816 7.24776 49.4196 7.24776C49.1238 7.24776 48.7984 7.04643 48.7097 6.78758Z" fill="black"/>
<path d="M46.4617 3.65264C46.1955 3.33627 46.1659 3.10618 46.3729 2.90485C46.8758 2.41592 47.7927 2.73229 47.7927 3.36503C47.7927 4.08406 46.9645 4.25662 46.4617 3.65264Z" fill="black"/>
<path d="M40.3979 3.19245C40.1317 2.50219 40.3388 0.201304 40.6937 0.201304C41.1078 0.201304 41.2261 2.07077 40.8712 2.9336C40.6641 3.53758 40.5754 3.56634 40.3979 3.19245Z" fill="black"/>
<path d="M46.0771 1.61062C45.9884 1.49557 46.1067 1.12168 46.3729 0.719026L46.8758 0L47.4082 0.690265C48.0294 1.49557 48.0886 1.78318 47.5265 1.78318C47.2899 1.78318 47.0237 1.5531 46.9645 1.29425C46.8462 0.805309 46.8166 0.805309 46.7871 1.29425C46.7575 1.78318 46.4321 1.92699 46.0771 1.61062Z" fill="black"/>
<path d="M59.8783 12.2522C59.5234 11.3319 59.5234 11.2743 59.8783 11.2743C60.0558 11.2743 60.1741 11.5044 60.2037 11.792C60.2037 12.1659 60.2629 12.1372 60.4699 11.6482C60.7361 11.0155 61.3573 10.7279 61.3573 11.2168C61.3573 11.6482 60.6178 13 60.3812 13C60.2629 13 60.0262 12.6549 59.8783 12.2522Z" fill="black"/>
<path d="M55.2048 12.3672C54.7907 11.9646 54.7315 9.26104 55.1457 9.26104C55.3231 9.26104 55.4415 9.72121 55.4415 10.2677C55.4415 10.9579 55.5893 11.2743 55.8851 11.2743C56.3288 11.2743 58.6952 8.57077 59.4643 7.16148C59.9079 6.38493 59.8784 6.26989 58.8727 4.8606C58.2811 4.02653 57.3345 2.84733 56.8021 2.21459C55.7372 1.00662 55.7372 1.00662 55.264 2.78981C55.0273 3.59511 54.9978 3.56635 54.909 2.27211C54.8203 0.862817 55.1752 0.057508 55.9147 0.057508C56.1218 0.057508 57.2458 1.15043 58.429 2.5022C59.5826 3.85396 60.6474 4.8606 60.7953 4.77432C60.9432 4.68803 61.6827 3.71016 62.4222 2.61724C64.3744 -0.258863 65.4689 -0.632757 66.0309 1.43804L66.3267 2.5022L66.3562 1.43804C66.3858 0.172552 66.9478 -0.345146 67.007 0.834056C67.0662 1.92697 66.9478 3.04866 66.7704 3.22122C66.7112 3.27874 66.5337 3.1637 66.3858 2.93361C66.1492 2.55972 66.09 2.58848 66.09 3.01989C66.09 3.3075 65.9717 3.45131 65.7942 3.36503C65.6463 3.27874 65.4984 2.90485 65.4984 2.55972C65.4984 2.21459 65.3505 1.72565 65.2027 1.49556C64.9364 1.12167 64.759 1.20795 64.0786 1.9845C63.6349 2.47343 62.8067 3.73892 62.2447 4.74556L61.2094 6.61502L62.8363 8.94467C64.5815 11.4756 65.1435 11.7345 65.6168 10.1814C66.1492 8.39821 67.3324 9.57741 67.0366 11.6482C66.9478 12.0796 66.7999 12.4248 66.652 12.4248C66.5041 12.4248 66.3858 12.0796 66.3858 11.6482V10.8429L65.7942 11.792C65.4689 12.2809 65.0843 12.7124 64.9364 12.7124C64.5519 12.7124 63.1617 11.1017 61.9785 9.31856C61.4461 8.51325 60.8841 7.82299 60.7657 7.82299C60.6178 7.82299 59.6713 8.80086 58.6656 10.0088C57.0683 11.8495 56.1218 12.7124 55.6781 12.7124C55.6189 12.7124 55.4119 12.5686 55.2048 12.3672Z" fill="black"/>
<path d="M53.6667 11.0155C53.6667 10.2102 53.785 9.49115 53.9625 9.40486C54.3174 9.20354 54.6132 10.3252 54.4357 11.2743C54.3766 11.677 54.2878 12.0796 54.2878 12.2234C54.2583 12.3385 54.1399 12.4248 53.9625 12.4248C53.8146 12.4248 53.6667 11.792 53.6667 11.0155Z" fill="black"/>
<path d="M59.9671 10.0951C59.4938 9.63494 59.8192 8.97344 60.4699 8.97344C61.1503 8.97344 61.4165 9.34733 61.1798 9.95131C60.9728 10.4978 60.4404 10.5553 59.9671 10.0951Z" fill="black"/>
<path d="M57.8078 6.81634C57.3641 6.29864 57.6599 5.80971 58.3994 5.80971C58.6952 5.80971 59.0501 5.95351 59.1389 6.09732C59.3459 6.41369 58.7839 7.24776 58.3994 7.24776C58.2811 7.24776 58.0148 7.04643 57.8078 6.81634Z" fill="black"/>
<path d="M62.1264 6.78758C61.8897 6.1836 62.156 5.80971 62.8363 5.80971C63.1321 5.80971 63.4574 5.92475 63.5462 6.06855C63.842 6.52873 63.3983 7.24776 62.8363 7.24776C62.5405 7.24776 62.2151 7.04643 62.1264 6.78758Z" fill="black"/>
<path d="M59.8783 3.65264C59.6121 3.33627 59.5826 3.10618 59.7896 2.90485C60.2925 2.41592 61.2094 2.73229 61.2094 3.36503C61.2094 4.08406 60.3812 4.25662 59.8783 3.65264Z" fill="black"/>
<path d="M53.8146 3.19245C53.5484 2.50219 53.7554 0.201304 54.1104 0.201304C54.5245 0.201304 54.6428 2.07077 54.2879 2.9336C54.0808 3.53758 53.9921 3.56634 53.8146 3.19245Z" fill="black"/>
<path d="M59.4938 1.61062C59.4051 1.49557 59.5234 1.12168 59.7896 0.719026L60.2925 0L60.8249 0.690265C61.4461 1.49557 61.5052 1.78318 60.9432 1.78318C60.7066 1.78318 60.4404 1.5531 60.3812 1.29425C60.2629 0.805309 60.2333 0.805309 60.2037 1.29425C60.1741 1.78318 59.8488 1.92699 59.4938 1.61062Z" fill="black"/>
<path d="M73.295 12.2522C72.9401 11.3319 72.9401 11.2743 73.295 11.2743C73.4725 11.2743 73.5908 11.5044 73.6204 11.792C73.6204 12.1659 73.6795 12.1372 73.8866 11.6482C74.1528 11.0155 74.774 10.7279 74.774 11.2168C74.774 11.6482 74.0345 13 73.7979 13C73.6795 13 73.4429 12.6549 73.295 12.2522Z" fill="black"/>
<path d="M68.6215 12.3672C68.2074 11.9646 68.1482 9.26104 68.5623 9.26104C68.7398 9.26104 68.8581 9.72121 68.8581 10.2677C68.8581 10.9579 69.006 11.2743 69.3018 11.2743C69.7455 11.2743 72.1119 8.57077 72.8809 7.16148C73.3246 6.38493 73.295 6.26989 72.2893 4.8606C71.6977 4.02653 70.7512 2.84733 70.2188 2.21459C69.1539 1.00662 69.1539 1.00662 68.6806 2.78981C68.444 3.59511 68.4144 3.56635 68.3257 2.27211C68.237 0.862817 68.5919 0.057508 69.3314 0.057508C69.5384 0.057508 70.6625 1.15043 71.8456 2.5022C72.9992 3.85396 74.0641 4.8606 74.212 4.77432C74.3599 4.68803 75.0994 3.71016 75.8389 2.61724C77.7911 -0.258863 78.8855 -0.632757 79.4475 1.43804L79.7433 2.5022L79.7729 1.43804C79.8025 0.172552 80.3645 -0.345146 80.4237 0.834056C80.4828 1.92697 80.3645 3.04866 80.187 3.22122C80.1279 3.27874 79.9504 3.1637 79.8025 2.93361C79.5659 2.55972 79.5067 2.58848 79.5067 3.01989C79.5067 3.3075 79.3884 3.45131 79.2109 3.36503C79.063 3.27874 78.9151 2.90485 78.9151 2.55972C78.9151 2.21459 78.7672 1.72565 78.6193 1.49556C78.3531 1.12167 78.1756 1.20795 77.4953 1.9845C77.0516 2.47343 76.2234 3.73892 75.6614 4.74556L74.6261 6.61502L76.253 8.94467C77.9982 11.4756 78.5602 11.7345 79.0334 10.1814C79.5659 8.39821 80.749 9.57741 80.4532 11.6482C80.3645 12.0796 80.2166 12.4248 80.0687 12.4248C79.9208 12.4248 79.8025 12.0796 79.8025 11.6482V10.8429L79.2109 11.792C78.8855 12.2809 78.501 12.7124 78.3531 12.7124C77.9686 12.7124 76.5783 11.1017 75.3952 9.31856C74.8627 8.51325 74.3007 7.82299 74.1824 7.82299C74.0345 7.82299 73.088 8.80086 72.0823 10.0088C70.485 11.8495 69.5385 12.7124 69.0948 12.7124C69.0356 12.7124 68.8285 12.5686 68.6215 12.3672Z" fill="black"/>
<path d="M67.0833 11.0155C67.0833 10.2102 67.2017 9.49115 67.3791 9.40486C67.7341 9.20354 68.0299 10.3252 67.8524 11.2743C67.7933 11.677 67.7045 12.0796 67.7045 12.2234C67.6749 12.3385 67.5566 12.4248 67.3791 12.4248C67.2312 12.4248 67.0833 11.792 67.0833 11.0155Z" fill="black"/>
<path d="M73.3838 10.0951C72.9105 9.63494 73.2359 8.97344 73.8866 8.97344C74.5669 8.97344 74.8332 9.34733 74.5965 9.95131C74.3895 10.4978 73.857 10.5553 73.3838 10.0951Z" fill="black"/>
<path d="M71.2245 6.81634C70.7808 6.29864 71.0766 5.80971 71.816 5.80971C72.1118 5.80971 72.4668 5.95351 72.5555 6.09732C72.7626 6.41369 72.2006 7.24776 71.816 7.24776C71.6977 7.24776 71.4315 7.04643 71.2245 6.81634Z" fill="black"/>
<path d="M75.543 6.78758C75.3064 6.1836 75.5726 5.80971 76.253 5.80971C76.5487 5.80971 76.8741 5.92475 76.9629 6.06855C77.2587 6.52873 76.815 7.24776 76.253 7.24776C75.9572 7.24776 75.6318 7.04643 75.543 6.78758Z" fill="black"/>
<path d="M73.295 3.65264C73.0288 3.33627 72.9992 3.10618 73.2063 2.90485C73.7091 2.41592 74.6261 2.73229 74.6261 3.36503C74.6261 4.08406 73.7979 4.25662 73.295 3.65264Z" fill="black"/>
<path d="M67.2313 3.19245C66.965 2.50219 67.1721 0.201304 67.5271 0.201304C67.9412 0.201304 68.0595 2.07077 67.7045 2.9336C67.4975 3.53758 67.4087 3.56634 67.2313 3.19245Z" fill="black"/>
<path d="M72.9105 1.61062C72.8217 1.49557 72.9401 1.12168 73.2063 0.719026L73.7091 0L74.2416 0.690265C74.8627 1.49557 74.9219 1.78318 74.3599 1.78318C74.1232 1.78318 73.857 1.5531 73.7979 1.29425C73.6796 0.805309 73.65 0.805309 73.6204 1.29425C73.5908 1.78318 73.2654 1.92699 72.9105 1.61062Z" fill="black"/>
<path d="M86.7117 12.2522C86.3567 11.3319 86.3567 11.2743 86.7117 11.2743C86.8892 11.2743 87.0075 11.5044 87.037 11.792C87.037 12.1659 87.0962 12.1372 87.3033 11.6482C87.5695 11.0155 88.1907 10.7279 88.1907 11.2168C88.1907 11.6482 87.4512 13 87.2145 13C87.0962 13 86.8596 12.6549 86.7117 12.2522Z" fill="black"/>
<path d="M82.0382 12.3672C81.624 11.9646 81.5649 9.26104 81.979 9.26104C82.1565 9.26104 82.2748 9.72121 82.2748 10.2677C82.2748 10.9579 82.4227 11.2743 82.7185 11.2743C83.1622 11.2743 85.5285 8.57077 86.2976 7.16148C86.7413 6.38493 86.7117 6.26989 85.706 4.8606C85.1144 4.02653 84.1679 2.84733 83.6354 2.21459C82.5706 1.00662 82.5706 1.00662 82.0973 2.78981C81.8607 3.59511 81.8311 3.56635 81.7424 2.27211C81.6536 0.862817 82.0086 0.057508 82.7481 0.057508C82.9551 0.057508 84.0791 1.15043 85.2623 2.5022C86.4159 3.85396 87.4808 4.8606 87.6287 4.77432C87.7766 4.68803 88.516 3.71016 89.2555 2.61724C91.2078 -0.258863 92.3022 -0.632757 92.8642 1.43804L93.16 2.5022L93.1896 1.43804C93.2192 0.172552 93.7812 -0.345146 93.8403 0.834056C93.8995 1.92697 93.7812 3.04866 93.6037 3.22122C93.5445 3.27874 93.3671 3.1637 93.2192 2.93361C92.9825 2.55972 92.9234 2.58848 92.9234 3.01989C92.9234 3.3075 92.8051 3.45131 92.6276 3.36503C92.4797 3.27874 92.3318 2.90485 92.3318 2.55972C92.3318 2.21459 92.1839 1.72565 92.036 1.49556C91.7698 1.12167 91.5923 1.20795 90.912 1.9845C90.4683 2.47343 89.6401 3.73892 89.078 4.74556L88.0428 6.61502L89.6696 8.94467C91.4148 11.4756 91.9768 11.7345 92.4501 10.1814C92.9825 8.39821 94.1657 9.57741 93.8699 11.6482C93.7812 12.0796 93.6333 12.4248 93.4854 12.4248C93.3375 12.4248 93.2192 12.0796 93.2192 11.6482V10.8429L92.6276 11.792C92.3022 12.2809 91.9177 12.7124 91.7698 12.7124C91.3852 12.7124 89.995 11.1017 88.8118 9.31856C88.2794 8.51325 87.7174 7.82299 87.5991 7.82299C87.4512 7.82299 86.5046 8.80086 85.4989 10.0088C83.9016 11.8495 82.9551 12.7124 82.5114 12.7124C82.4523 12.7124 82.2452 12.5686 82.0382 12.3672Z" fill="black"/>
<path d="M80.5 11.0155C80.5 10.2102 80.6183 9.49115 80.7958 9.40486C81.1508 9.20354 81.4465 10.3252 81.2691 11.2743C81.2099 11.677 81.1212 12.0796 81.1212 12.2234C81.0916 12.3385 80.9733 12.4248 80.7958 12.4248C80.6479 12.4248 80.5 11.792 80.5 11.0155Z" fill="black"/>
<path d="M86.8004 10.0951C86.3272 9.63494 86.6525 8.97344 87.3033 8.97344C87.9836 8.97344 88.2498 9.34733 88.0132 9.95131C87.8061 10.4978 87.2737 10.5553 86.8004 10.0951Z" fill="black"/>
<path d="M84.6411 6.81634C84.1974 6.29864 84.4932 5.80971 85.2327 5.80971C85.5285 5.80971 85.8835 5.95351 85.9722 6.09732C86.1793 6.41369 85.6172 7.24776 85.2327 7.24776C85.1144 7.24776 84.8482 7.04643 84.6411 6.81634Z" fill="black"/>
<path d="M88.9597 6.78758C88.7231 6.1836 88.9893 5.80971 89.6696 5.80971C89.9654 5.80971 90.2908 5.92475 90.3795 6.06855C90.6753 6.52873 90.2316 7.24776 89.6696 7.24776C89.3738 7.24776 89.0484 7.04643 88.9597 6.78758Z" fill="black"/>
<path d="M86.7117 3.65264C86.4455 3.33627 86.4159 3.10618 86.6229 2.90485C87.1258 2.41592 88.0428 2.73229 88.0428 3.36503C88.0428 4.08406 87.2145 4.25662 86.7117 3.65264Z" fill="black"/>
<path d="M80.6479 3.19245C80.3817 2.50219 80.5888 0.201304 80.9437 0.201304C81.3578 0.201304 81.4761 2.07077 81.1212 2.9336C80.9141 3.53758 80.8254 3.56634 80.6479 3.19245Z" fill="black"/>
<path d="M86.3272 1.61062C86.2384 1.49557 86.3567 1.12168 86.6229 0.719026L87.1258 0L87.6582 0.690265C88.2794 1.49557 88.3386 1.78318 87.7766 1.78318C87.5399 1.78318 87.2737 1.5531 87.2145 1.29425C87.0962 0.805309 87.0666 0.805309 87.0371 1.29425C87.0075 1.78318 86.6821 1.92699 86.3272 1.61062Z" fill="black"/>
<path d="M100.128 12.2522C99.7734 11.3319 99.7734 11.2743 100.128 11.2743C100.306 11.2743 100.424 11.5044 100.454 11.792C100.454 12.1659 100.513 12.1372 100.72 11.6482C100.986 11.0155 101.607 10.7279 101.607 11.2168C101.607 11.6482 100.868 13 100.631 13C100.513 13 100.276 12.6549 100.128 12.2522Z" fill="black"/>
<path d="M95.4548 12.3672C95.0407 11.9646 94.9815 9.26104 95.3957 9.26104C95.5731 9.26104 95.6915 9.72121 95.6915 10.2677C95.6915 10.9579 95.8393 11.2743 96.1351 11.2743C96.5788 11.2743 98.9452 8.57077 99.7142 7.16148C100.158 6.38493 100.128 6.26989 99.1227 4.8606C98.5311 4.02653 97.5845 2.84733 97.0521 2.21459C95.9872 1.00662 95.9873 1.00662 95.514 2.78981C95.2773 3.59511 95.2478 3.56635 95.159 2.27211C95.0703 0.862817 95.4252 0.057508 96.1647 0.057508C96.3718 0.057508 97.4958 1.15043 98.679 2.5022C99.8326 3.85396 100.897 4.8606 101.045 4.77432C101.193 4.68803 101.933 3.71016 102.672 2.61724C104.624 -0.258863 105.719 -0.632757 106.281 1.43804L106.577 2.5022L106.606 1.43804C106.636 0.172552 107.198 -0.345146 107.257 0.834056C107.316 1.92697 107.198 3.04866 107.02 3.22122C106.961 3.27874 106.784 3.1637 106.636 2.93361C106.399 2.55972 106.34 2.58848 106.34 3.01989C106.34 3.3075 106.222 3.45131 106.044 3.36503C105.896 3.27874 105.748 2.90485 105.748 2.55972C105.748 2.21459 105.601 1.72565 105.453 1.49556C105.186 1.12167 105.009 1.20795 104.329 1.9845C103.885 2.47343 103.057 3.73892 102.495 4.74556L101.459 6.61502L103.086 8.94467C104.831 11.4756 105.393 11.7345 105.867 10.1814C106.399 8.39821 107.582 9.57741 107.287 11.6482C107.198 12.0796 107.05 12.4248 106.902 12.4248C106.754 12.4248 106.636 12.0796 106.636 11.6482V10.8429L106.044 11.792C105.719 12.2809 105.334 12.7124 105.186 12.7124C104.802 12.7124 103.412 11.1017 102.229 9.31856C101.696 8.51325 101.134 7.82299 101.016 7.82299C100.868 7.82299 99.9213 8.80086 98.9156 10.0088C97.3183 11.8495 96.3718 12.7124 95.9281 12.7124C95.8689 12.7124 95.6619 12.5686 95.4548 12.3672Z" fill="black"/>
<path d="M93.9167 11.0155C93.9167 10.2102 94.035 9.49115 94.2125 9.40486C94.5674 9.20354 94.8632 10.3252 94.6857 11.2743C94.6266 11.677 94.5378 12.0796 94.5378 12.2234C94.5083 12.3385 94.3899 12.4248 94.2125 12.4248C94.0646 12.4248 93.9167 11.792 93.9167 11.0155Z" fill="black"/>
<path d="M100.217 10.0951C99.7438 9.63494 100.069 8.97344 100.72 8.97344C101.4 8.97344 101.666 9.34733 101.43 9.95131C101.223 10.4978 100.69 10.5553 100.217 10.0951Z" fill="black"/>
<path d="M98.0578 6.81634C97.6141 6.29864 97.9099 5.80971 98.6494 5.80971C98.9452 5.80971 99.3001 5.95351 99.3889 6.09732C99.5959 6.41369 99.0339 7.24776 98.6494 7.24776C98.5311 7.24776 98.2648 7.04643 98.0578 6.81634Z" fill="black"/>
<path d="M102.376 6.78758C102.14 6.1836 102.406 5.80971 103.086 5.80971C103.382 5.80971 103.707 5.92475 103.796 6.06855C104.092 6.52873 103.648 7.24776 103.086 7.24776C102.79 7.24776 102.465 7.04643 102.376 6.78758Z" fill="black"/>
<path d="M100.128 3.65264C99.8621 3.33627 99.8326 3.10618 100.04 2.90485C100.542 2.41592 101.459 2.73229 101.459 3.36503C101.459 4.08406 100.631 4.25662 100.128 3.65264Z" fill="black"/>
<path d="M94.0646 3.19245C93.7984 2.50219 94.0054 0.201304 94.3604 0.201304C94.7745 0.201304 94.8928 2.07077 94.5379 2.9336C94.3308 3.53758 94.2421 3.56634 94.0646 3.19245Z" fill="black"/>
<path d="M99.7438 1.61062C99.6551 1.49557 99.7734 1.12168 100.04 0.719026L100.542 0L101.075 0.690265C101.696 1.49557 101.755 1.78318 101.193 1.78318C100.957 1.78318 100.69 1.5531 100.631 1.29425C100.513 0.805309 100.483 0.805309 100.454 1.29425C100.424 1.78318 100.099 1.92699 99.7438 1.61062Z" fill="black"/>
<path d="M113.545 12.2522C113.19 11.3319 113.19 11.2743 113.545 11.2743C113.722 11.2743 113.841 11.5044 113.87 11.792C113.87 12.1659 113.93 12.1372 114.137 11.6482C114.403 11.0155 115.024 10.7279 115.024 11.2168C115.024 11.6482 114.285 13 114.048 13C113.93 13 113.693 12.6549 113.545 12.2522Z" fill="black"/>
<path d="M108.871 12.3672C108.457 11.9646 108.398 9.26104 108.812 9.26104C108.99 9.26104 109.108 9.72121 109.108 10.2677C109.108 10.9579 109.256 11.2743 109.552 11.2743C109.995 11.2743 112.362 8.57077 113.131 7.16148C113.575 6.38493 113.545 6.26989 112.539 4.8606C111.948 4.02653 111.001 2.84733 110.469 2.21459C109.404 1.00662 109.404 1.00662 108.931 2.78981C108.694 3.59511 108.664 3.56635 108.576 2.27211C108.487 0.862817 108.842 0.057508 109.581 0.057508C109.788 0.057508 110.912 1.15043 112.096 2.5022C113.249 3.85396 114.314 4.8606 114.462 4.77432C114.61 4.68803 115.349 3.71016 116.089 2.61724C118.041 -0.258863 119.136 -0.632757 119.698 1.43804L119.993 2.5022L120.023 1.43804C120.052 0.172552 120.615 -0.345146 120.674 0.834056C120.733 1.92697 120.614 3.04866 120.437 3.22122C120.378 3.27874 120.2 3.1637 120.052 2.93361C119.816 2.55972 119.757 2.58848 119.757 3.01989C119.757 3.3075 119.638 3.45131 119.461 3.36503C119.313 3.27874 119.165 2.90485 119.165 2.55972C119.165 2.21459 119.017 1.72565 118.869 1.49556C118.603 1.12167 118.426 1.20795 117.745 1.9845C117.302 2.47343 116.473 3.73892 115.911 4.74556L114.876 6.61502L116.503 8.94467C118.248 11.4756 118.81 11.7345 119.283 10.1814C119.816 8.39821 120.999 9.57741 120.703 11.6482C120.615 12.0796 120.467 12.4248 120.319 12.4248C120.171 12.4248 120.052 12.0796 120.052 11.6482V10.8429L119.461 11.792C119.136 12.2809 118.751 12.7124 118.603 12.7124C118.219 12.7124 116.828 11.1017 115.645 9.31856C115.113 8.51325 114.551 7.82299 114.432 7.82299C114.285 7.82299 113.338 8.80086 112.332 10.0088C110.735 11.8495 109.788 12.7124 109.345 12.7124C109.286 12.7124 109.079 12.5686 108.871 12.3672Z" fill="black"/>
<path d="M107.333 11.0155C107.333 10.2102 107.452 9.49115 107.629 9.40486C107.984 9.20354 108.28 10.3252 108.102 11.2743C108.043 11.677 107.955 12.0796 107.955 12.2234C107.925 12.3385 107.807 12.4248 107.629 12.4248C107.481 12.4248 107.333 11.792 107.333 11.0155Z" fill="black"/>
<path d="M113.634 10.0951C113.16 9.63494 113.486 8.97344 114.137 8.97344C114.817 8.97344 115.083 9.34733 114.847 9.95131C114.639 10.4978 114.107 10.5553 113.634 10.0951Z" fill="black"/>
<path d="M111.474 6.81634C111.031 6.29864 111.327 5.80971 112.066 5.80971C112.362 5.80971 112.717 5.95351 112.806 6.09732C113.013 6.41369 112.451 7.24776 112.066 7.24776C111.948 7.24776 111.682 7.04643 111.474 6.81634Z" fill="black"/>
<path d="M115.793 6.78758C115.556 6.1836 115.823 5.80971 116.503 5.80971C116.799 5.80971 117.124 5.92475 117.213 6.06855C117.509 6.52873 117.065 7.24776 116.503 7.24776C116.207 7.24776 115.882 7.04643 115.793 6.78758Z" fill="black"/>
<path d="M113.545 3.65264C113.279 3.33627 113.249 3.10618 113.456 2.90485C113.959 2.41592 114.876 2.73229 114.876 3.36503C114.876 4.08406 114.048 4.25662 113.545 3.65264Z" fill="black"/>
<path d="M107.481 3.19245C107.215 2.50219 107.422 0.201304 107.777 0.201304C108.191 0.201304 108.309 2.07077 107.955 2.9336C107.747 3.53758 107.659 3.56634 107.481 3.19245Z" fill="black"/>
<path d="M113.16 1.61062C113.072 1.49557 113.19 1.12168 113.456 0.719026L113.959 0L114.492 0.690265C115.113 1.49557 115.172 1.78318 114.61 1.78318C114.373 1.78318 114.107 1.5531 114.048 1.29425C113.93 0.805309 113.9 0.805309 113.87 1.29425C113.841 1.78318 113.515 1.92699 113.16 1.61062Z" fill="black"/>
<path d="M126.962 12.2522C126.607 11.3319 126.607 11.2743 126.962 11.2743C127.139 11.2743 127.257 11.5044 127.287 11.792C127.287 12.1659 127.346 12.1372 127.553 11.6482C127.819 11.0155 128.441 10.7279 128.441 11.2168C128.441 11.6482 127.701 13 127.465 13C127.346 13 127.11 12.6549 126.962 12.2522Z" fill="black"/>
<path d="M122.288 12.3672C121.874 11.9646 121.815 9.26104 122.229 9.26104C122.406 9.26104 122.525 9.72121 122.525 10.2677C122.525 10.9579 122.673 11.2743 122.968 11.2743C123.412 11.2743 125.779 8.57077 126.548 7.16148C126.991 6.38493 126.962 6.26989 125.956 4.8606C125.364 4.02653 124.418 2.84733 123.885 2.21459C122.821 1.00662 122.821 1.00662 122.347 2.78981C122.111 3.59511 122.081 3.56635 121.992 2.27211C121.904 0.862817 122.259 0.057508 122.998 0.057508C123.205 0.057508 124.329 1.15043 125.512 2.5022C126.666 3.85396 127.731 4.8606 127.879 4.77432C128.027 4.68803 128.766 3.71016 129.506 2.61724C131.458 -0.258863 132.552 -0.632757 133.114 1.43804L133.41 2.5022L133.44 1.43804C133.469 0.172552 134.031 -0.345146 134.09 0.834056C134.149 1.92697 134.031 3.04866 133.854 3.22122C133.795 3.27874 133.617 3.1637 133.469 2.93361C133.233 2.55972 133.173 2.58848 133.173 3.01989C133.173 3.3075 133.055 3.45131 132.878 3.36503C132.73 3.27874 132.582 2.90485 132.582 2.55972C132.582 2.21459 132.434 1.72565 132.286 1.49556C132.02 1.12167 131.842 1.20795 131.162 1.9845C130.718 2.47343 129.89 3.73892 129.328 4.74556L128.293 6.61502L129.92 8.94467C131.665 11.4756 132.227 11.7345 132.7 10.1814C133.233 8.39821 134.416 9.57741 134.12 11.6482C134.031 12.0796 133.883 12.4248 133.735 12.4248C133.587 12.4248 133.469 12.0796 133.469 11.6482V10.8429L132.878 11.792C132.552 12.2809 132.168 12.7124 132.02 12.7124C131.635 12.7124 130.245 11.1017 129.062 9.31856C128.529 8.51325 127.967 7.82299 127.849 7.82299C127.701 7.82299 126.755 8.80086 125.749 10.0088C124.152 11.8495 123.205 12.7124 122.761 12.7124C122.702 12.7124 122.495 12.5686 122.288 12.3672Z" fill="black"/>
<path d="M120.75 11.0155C120.75 10.2102 120.868 9.49115 121.046 9.40486C121.401 9.20354 121.697 10.3252 121.519 11.2743C121.46 11.677 121.371 12.0796 121.371 12.2234C121.342 12.3385 121.223 12.4248 121.046 12.4248C120.898 12.4248 120.75 11.792 120.75 11.0155Z" fill="black"/>
<path d="M127.05 10.0951C126.577 9.63494 126.903 8.97344 127.553 8.97344C128.234 8.97344 128.5 9.34733 128.263 9.95131C128.056 10.4978 127.524 10.5553 127.05 10.0951Z" fill="black"/>
<path d="M124.891 6.81634C124.447 6.29864 124.743 5.80971 125.483 5.80971C125.779 5.80971 126.133 5.95351 126.222 6.09732C126.429 6.41369 125.867 7.24776 125.483 7.24776C125.364 7.24776 125.098 7.04643 124.891 6.81634Z" fill="black"/>
<path d="M129.21 6.78758C128.973 6.1836 129.239 5.80971 129.92 5.80971C130.215 5.80971 130.541 5.92475 130.63 6.06855C130.925 6.52873 130.482 7.24776 129.92 7.24776C129.624 7.24776 129.298 7.04643 129.21 6.78758Z" fill="black"/>
<path d="M126.962 3.65264C126.695 3.33627 126.666 3.10618 126.873 2.90485C127.376 2.41592 128.293 2.73229 128.293 3.36503C128.293 4.08406 127.465 4.25662 126.962 3.65264Z" fill="black"/>
<path d="M120.898 3.19245C120.632 2.50219 120.839 0.201304 121.194 0.201304C121.608 0.201304 121.726 2.07077 121.371 2.9336C121.164 3.53758 121.075 3.56634 120.898 3.19245Z" fill="black"/>
<path d="M126.577 1.61062C126.488 1.49557 126.607 1.12168 126.873 0.719026L127.376 0L127.908 0.690265C128.529 1.49557 128.589 1.78318 128.027 1.78318C127.79 1.78318 127.524 1.5531 127.465 1.29425C127.346 0.805309 127.317 0.805309 127.287 1.29425C127.257 1.78318 126.932 1.92699 126.577 1.61062Z" fill="black"/>
<path d="M140.378 12.2522C140.023 11.3319 140.023 11.2743 140.378 11.2743C140.556 11.2743 140.674 11.5044 140.704 11.792C140.704 12.1659 140.763 12.1372 140.97 11.6482C141.236 11.0155 141.857 10.7279 141.857 11.2168C141.857 11.6482 141.118 13 140.881 13C140.763 13 140.526 12.6549 140.378 12.2522Z" fill="black"/>
<path d="M135.705 12.3672C135.291 11.9646 135.232 9.26104 135.646 9.26104C135.823 9.26104 135.941 9.72121 135.941 10.2677C135.941 10.9579 136.089 11.2743 136.385 11.2743C136.829 11.2743 139.195 8.57077 139.964 7.16148C140.408 6.38493 140.378 6.26989 139.373 4.8606C138.781 4.02653 137.835 2.84733 137.302 2.21459C136.237 1.00662 136.237 1.00662 135.764 2.78981C135.527 3.59511 135.498 3.56635 135.409 2.27211C135.32 0.862817 135.675 0.057508 136.415 0.057508C136.622 0.057508 137.746 1.15043 138.929 2.5022C140.083 3.85396 141.147 4.8606 141.295 4.77432C141.443 4.68803 142.183 3.71016 142.922 2.61724C144.874 -0.258863 145.969 -0.632757 146.531 1.43804L146.827 2.5022L146.856 1.43804C146.886 0.172552 147.448 -0.345146 147.507 0.834056C147.566 1.92697 147.448 3.04866 147.27 3.22122C147.211 3.27874 147.034 3.1637 146.886 2.93361C146.649 2.55972 146.59 2.58848 146.59 3.01989C146.59 3.3075 146.472 3.45131 146.294 3.36503C146.146 3.27874 145.998 2.90485 145.998 2.55972C145.998 2.21459 145.851 1.72565 145.703 1.49556C145.436 1.12167 145.259 1.20795 144.579 1.9845C144.135 2.47343 143.307 3.73892 142.745 4.74556L141.709 6.61502L143.336 8.94467C145.081 11.4756 145.643 11.7345 146.117 10.1814C146.649 8.39821 147.832 9.57741 147.537 11.6482C147.448 12.0796 147.3 12.4248 147.152 12.4248C147.004 12.4248 146.886 12.0796 146.886 11.6482V10.8429L146.294 11.792C145.969 12.2809 145.584 12.7124 145.436 12.7124C145.052 12.7124 143.662 11.1017 142.479 9.31856C141.946 8.51325 141.384 7.82299 141.266 7.82299C141.118 7.82299 140.171 8.80086 139.166 10.0088C137.568 11.8495 136.622 12.7124 136.178 12.7124C136.119 12.7124 135.912 12.5686 135.705 12.3672Z" fill="black"/>
<path d="M134.167 11.0155C134.167 10.2102 134.285 9.49115 134.462 9.40486C134.817 9.20354 135.113 10.3252 134.936 11.2743C134.877 11.677 134.788 12.0796 134.788 12.2234C134.758 12.3385 134.64 12.4248 134.462 12.4248C134.315 12.4248 134.167 11.792 134.167 11.0155Z" fill="black"/>
<path d="M140.467 10.0951C139.994 9.63494 140.319 8.97344 140.97 8.97344C141.65 8.97344 141.916 9.34733 141.68 9.95131C141.473 10.4978 140.94 10.5553 140.467 10.0951Z" fill="black"/>
<path d="M138.308 6.81634C137.864 6.29864 138.16 5.80971 138.899 5.80971C139.195 5.80971 139.55 5.95351 139.639 6.09732C139.846 6.41369 139.284 7.24776 138.899 7.24776C138.781 7.24776 138.515 7.04643 138.308 6.81634Z" fill="black"/>
<path d="M142.626 6.78758C142.39 6.1836 142.656 5.80971 143.336 5.80971C143.632 5.80971 143.957 5.92475 144.046 6.06855C144.342 6.52873 143.898 7.24776 143.336 7.24776C143.04 7.24776 142.715 7.04643 142.626 6.78758Z" fill="black"/>
<path d="M140.378 3.65264C140.112 3.33627 140.083 3.10618 140.29 2.90485C140.792 2.41592 141.709 2.73229 141.709 3.36503C141.709 4.08406 140.881 4.25662 140.378 3.65264Z" fill="black"/>
<path d="M134.315 3.19245C134.048 2.50219 134.255 0.201304 134.61 0.201304C135.024 0.201304 135.143 2.07077 134.788 2.9336C134.581 3.53758 134.492 3.56634 134.315 3.19245Z" fill="black"/>
<path d="M139.994 1.61062C139.905 1.49557 140.023 1.12168 140.29 0.719026L140.792 0L141.325 0.690265C141.946 1.49557 142.005 1.78318 141.443 1.78318C141.207 1.78318 140.94 1.5531 140.881 1.29425C140.763 0.805309 140.733 0.805309 140.704 1.29425C140.674 1.78318 140.349 1.92699 139.994 1.61062Z" fill="black"/>
<path d="M153.795 12.2522C153.44 11.3319 153.44 11.2743 153.795 11.2743C153.972 11.2743 154.091 11.5044 154.12 11.792C154.12 12.1659 154.18 12.1372 154.387 11.6482C154.653 11.0155 155.274 10.7279 155.274 11.2168C155.274 11.6482 154.535 13 154.298 13C154.18 13 153.943 12.6549 153.795 12.2522Z" fill="black"/>
<path d="M149.121 12.3672C148.707 11.9646 148.648 9.26104 149.062 9.26104C149.24 9.26104 149.358 9.72121 149.358 10.2677C149.358 10.9579 149.506 11.2743 149.802 11.2743C150.245 11.2743 152.612 8.57077 153.381 7.16148C153.825 6.38493 153.795 6.26989 152.789 4.8606C152.198 4.02653 151.251 2.84733 150.719 2.21459C149.654 1.00662 149.654 1.00662 149.181 2.78981C148.944 3.59511 148.914 3.56635 148.826 2.27211C148.737 0.862817 149.092 0.057508 149.831 0.057508C150.038 0.057508 151.162 1.15043 152.346 2.5022C153.499 3.85396 154.564 4.8606 154.712 4.77432C154.86 4.68803 155.599 3.71016 156.339 2.61724C158.291 -0.258863 159.386 -0.632757 159.948 1.43804L160.243 2.5022L160.273 1.43804C160.302 0.172552 160.865 -0.345146 160.924 0.834056C160.983 1.92697 160.864 3.04866 160.687 3.22122C160.628 3.27874 160.45 3.1637 160.302 2.93361C160.066 2.55972 160.007 2.58848 160.007 3.01989C160.007 3.3075 159.888 3.45131 159.711 3.36503C159.563 3.27874 159.415 2.90485 159.415 2.55972C159.415 2.21459 159.267 1.72565 159.119 1.49556C158.853 1.12167 158.676 1.20795 157.995 1.9845C157.552 2.47343 156.723 3.73892 156.161 4.74556L155.126 6.61502L156.753 8.94467C158.498 11.4756 159.06 11.7345 159.533 10.1814C160.066 8.39821 161.249 9.57741 160.953 11.6482C160.865 12.0796 160.717 12.4248 160.569 12.4248C160.421 12.4248 160.302 12.0796 160.302 11.6482V10.8429L159.711 11.792C159.386 12.2809 159.001 12.7124 158.853 12.7124C158.469 12.7124 157.078 11.1017 155.895 9.31856C155.363 8.51325 154.801 7.82299 154.682 7.82299C154.535 7.82299 153.588 8.80086 152.582 10.0088C150.985 11.8495 150.038 12.7124 149.595 12.7124C149.536 12.7124 149.329 12.5686 149.121 12.3672Z" fill="black"/>
<path d="M147.583 11.0155C147.583 10.2102 147.702 9.49115 147.879 9.40486C148.234 9.20354 148.53 10.3252 148.352 11.2743C148.293 11.677 148.204 12.0796 148.204 12.2234C148.175 12.3385 148.057 12.4248 147.879 12.4248C147.731 12.4248 147.583 11.792 147.583 11.0155Z" fill="black"/>
<path d="M153.884 10.0951C153.41 9.63494 153.736 8.97344 154.387 8.97344C155.067 8.97344 155.333 9.34733 155.097 9.95131C154.889 10.4978 154.357 10.5553 153.884 10.0951Z" fill="black"/>
<path d="M151.724 6.81634C151.281 6.29864 151.577 5.80971 152.316 5.80971C152.612 5.80971 152.967 5.95351 153.056 6.09732C153.263 6.41369 152.701 7.24776 152.316 7.24776C152.198 7.24776 151.932 7.04643 151.724 6.81634Z" fill="black"/>
<path d="M156.043 6.78758C155.806 6.1836 156.073 5.80971 156.753 5.80971C157.049 5.80971 157.374 5.92475 157.463 6.06855C157.759 6.52873 157.315 7.24776 156.753 7.24776C156.457 7.24776 156.132 7.04643 156.043 6.78758Z" fill="black"/>
<path d="M153.795 3.65264C153.529 3.33627 153.499 3.10618 153.706 2.90485C154.209 2.41592 155.126 2.73229 155.126 3.36503C155.126 4.08406 154.298 4.25662 153.795 3.65264Z" fill="black"/>
<path d="M147.731 3.19245C147.465 2.50219 147.672 0.201304 148.027 0.201304C148.441 0.201304 148.559 2.07077 148.205 2.9336C147.997 3.53758 147.909 3.56634 147.731 3.19245Z" fill="black"/>
<path d="M153.41 1.61062C153.322 1.49557 153.44 1.12168 153.706 0.719026L154.209 0L154.742 0.690265C155.363 1.49557 155.422 1.78318 154.86 1.78318C154.623 1.78318 154.357 1.5531 154.298 1.29425C154.18 0.805309 154.15 0.805309 154.12 1.29425C154.091 1.78318 153.765 1.92699 153.41 1.61062Z" fill="black"/>
</svg>
