<svg width="1091" height="75" viewBox="0 0 1091 75" fill="none" xmlns="http://www.w3.org/2000/svg">
<path d="M78.1593 0L66.2292 8.91385V26.7415L78.1593 17.8277V0Z" fill="#16181A"/>
<path d="M50.9349 17.8277L62.8644 26.7415V8.91385L50.9349 0V17.8277Z" fill="#16181A"/>
<path d="M50.9349 75L62.8644 66.0856V48.2579L50.9349 57.1723V75Z" fill="#16181A"/>
<path d="M66.2292 66.0856L78.1593 75V57.1723L66.2292 48.2579V66.0856Z" fill="#16181A"/>
<path d="M75.2533 39.1906L84.124 51.178H101.866L92.9948 39.1906H75.2533Z" fill="#16181A"/>
<path d="M75.2533 35.8094H92.9948L101.866 23.8214H84.124L75.2533 35.8094Z" fill="#16181A"/>
<path d="M53.8409 35.8094L44.9702 23.8214H27.2281L36.0989 35.8094H53.8409Z" fill="#16181A"/>
<path d="M36.0989 39.1906L27.2281 51.178H44.9702L53.8409 39.1906H36.0989Z" fill="#16181A"/>
<path d="M185.221 0L173.291 8.91385V26.7415L185.221 17.8277V0Z" fill="#16181A"/>
<path d="M157.997 17.8277L169.927 26.7415V8.91385L157.997 0V17.8277Z" fill="#16181A"/>
<path d="M157.997 75L169.927 66.0856V48.2579L157.997 57.1723V75Z" fill="#16181A"/>
<path d="M173.291 66.0856L185.221 75V57.1723L173.291 48.2579V66.0856Z" fill="#16181A"/>
<path d="M182.315 39.1906L191.186 51.178H208.928L200.057 39.1906H182.315Z" fill="#16181A"/>
<path d="M182.315 35.8094H200.057L208.928 23.8214H191.186L182.315 35.8094Z" fill="#16181A"/>
<path d="M160.903 35.8094L152.032 23.8214H134.29L143.161 35.8094H160.903Z" fill="#16181A"/>
<path d="M143.161 39.1906L134.29 51.178H152.032L160.903 39.1906H143.161Z" fill="#16181A"/>
<path d="M118.433 30.3146L111.079 37.7045L118.433 45.0944L125.787 37.7045L118.433 30.3146Z" fill="#16181A"/>
<path d="M7.35413 30.3139L0 37.7037L7.35414 45.0936L14.7083 37.7038L7.35413 30.3139Z" fill="#16181A"/>
<path d="M292.283 0L280.354 8.91385V26.7415L292.283 17.8277V0Z" fill="#16181A"/>
<path d="M265.059 17.8277L276.989 26.7415V8.91385L265.059 0V17.8277Z" fill="#16181A"/>
<path d="M265.059 75L276.989 66.0856V48.2579L265.059 57.1723V75Z" fill="#16181A"/>
<path d="M280.354 66.0856L292.283 75V57.1723L280.354 48.2579V66.0856Z" fill="#16181A"/>
<path d="M289.377 39.1906L298.248 51.178H315.99L307.119 39.1906H289.377Z" fill="#16181A"/>
<path d="M289.377 35.8094H307.119L315.99 23.8214H298.248L289.377 35.8094Z" fill="#16181A"/>
<path d="M267.965 35.8094L259.094 23.8214H241.353L250.223 35.8094H267.965Z" fill="#16181A"/>
<path d="M250.223 39.1906L241.353 51.178H259.094L267.965 39.1906H250.223Z" fill="#16181A"/>
<path d="M225.494 30.3156L218.14 37.7055L225.494 45.0954L232.848 37.7055L225.494 30.3156Z" fill="#16181A"/>
<path d="M399.345 0L387.415 8.91385V26.7415L399.345 17.8277V0Z" fill="#16181A"/>
<path d="M372.121 17.8277L384.051 26.7415V8.91385L372.121 0V17.8277Z" fill="#16181A"/>
<path d="M372.121 75L384.051 66.0856V48.2579L372.121 57.1723V75Z" fill="#16181A"/>
<path d="M387.415 66.0856L399.345 75V57.1723L387.415 48.2579V66.0856Z" fill="#16181A"/>
<path d="M396.439 39.1906L405.31 51.178H423.052L414.181 39.1906H396.439Z" fill="#16181A"/>
<path d="M396.439 35.8094H414.181L423.052 23.8214H405.31L396.439 35.8094Z" fill="#16181A"/>
<path d="M375.027 35.8094L366.156 23.8214H348.414L357.285 35.8094H375.027Z" fill="#16181A"/>
<path d="M357.285 39.1906L348.414 51.178H366.156L375.027 39.1906H357.285Z" fill="#16181A"/>
<path d="M332.556 30.3162L325.201 37.7061L332.556 45.0959L339.91 37.7061L332.556 30.3162Z" fill="#16181A"/>
<path d="M506.408 0L494.478 8.91385V26.7415L506.408 17.8277V0Z" fill="#16181A"/>
<path d="M479.183 17.8277L491.113 26.7415V8.91385L479.183 0V17.8277Z" fill="#16181A"/>
<path d="M479.183 75L491.113 66.0856V48.2579L479.183 57.1723V75Z" fill="#16181A"/>
<path d="M494.478 66.0856L506.408 75V57.1723L494.478 48.2579V66.0856Z" fill="#16181A"/>
<path d="M503.502 39.1906L512.372 51.178H530.114L521.243 39.1906H503.502Z" fill="#16181A"/>
<path d="M503.502 35.8094H521.243L530.114 23.8214H512.372L503.502 35.8094Z" fill="#16181A"/>
<path d="M482.089 35.8094L473.218 23.8214H455.476L464.347 35.8094H482.089Z" fill="#16181A"/>
<path d="M464.347 39.1906L455.476 51.178H473.218L482.089 39.1906H464.347Z" fill="#16181A"/>
<path d="M439.618 30.3187L432.264 37.7085L439.618 45.0984L446.972 37.7085L439.618 30.3187Z" fill="#16181A"/>
<path d="M613.47 0L601.54 8.91385V26.7415L613.47 17.8277V0Z" fill="#16181A"/>
<path d="M586.245 17.8277L598.175 26.7415V8.91385L586.245 0V17.8277Z" fill="#16181A"/>
<path d="M586.245 75L598.175 66.0856V48.2579L586.245 57.1723V75Z" fill="#16181A"/>
<path d="M601.54 66.0856L613.47 75V57.1723L601.54 48.2579V66.0856Z" fill="#16181A"/>
<path d="M610.563 39.1906L619.434 51.178H637.176L628.305 39.1906H610.563Z" fill="#16181A"/>
<path d="M610.563 35.8094H628.305L637.176 23.8214H619.434L610.563 35.8094Z" fill="#16181A"/>
<path d="M589.151 35.8094L580.28 23.8214H562.539L571.409 35.8094H589.151Z" fill="#16181A"/>
<path d="M571.409 39.1906L562.539 51.178H580.28L589.151 39.1906H571.409Z" fill="#16181A"/>
<path d="M546.684 30.3287L539.33 37.7186L546.684 45.1085L554.038 37.7186L546.684 30.3287Z" fill="#16181A"/>
<path d="M720.532 0L708.602 8.91385V26.7415L720.532 17.8277V0Z" fill="#16181A"/>
<path d="M693.307 17.8277L705.237 26.7415V8.91385L693.307 0V17.8277Z" fill="#16181A"/>
<path d="M693.307 75L705.237 66.0856V48.2579L693.307 57.1723V75Z" fill="#16181A"/>
<path d="M708.602 66.0856L720.532 75V57.1723L708.602 48.2579V66.0856Z" fill="#16181A"/>
<path d="M717.625 39.1906L726.496 51.178H744.238L735.367 39.1906H717.625Z" fill="#16181A"/>
<path d="M717.625 35.8094H735.367L744.238 23.8214H726.496L717.625 35.8094Z" fill="#16181A"/>
<path d="M696.213 35.8094L687.342 23.8214H669.6L678.471 35.8094H696.213Z" fill="#16181A"/>
<path d="M678.471 39.1906L669.6 51.178H687.342L696.213 39.1906H678.471Z" fill="#16181A"/>
<path d="M653.747 30.3307L646.392 37.7206L653.747 45.1104L661.101 37.7206L653.747 30.3307Z" fill="#16181A"/>
<path d="M827.594 0L815.664 8.91385V26.7415L827.594 17.8277V0Z" fill="#16181A"/>
<path d="M800.369 17.8277L812.299 26.7415V8.91385L800.369 0V17.8277Z" fill="#16181A"/>
<path d="M800.369 75L812.299 66.0856V48.2579L800.369 57.1723V75Z" fill="#16181A"/>
<path d="M815.664 66.0856L827.594 75V57.1723L815.664 48.2579V66.0856Z" fill="#16181A"/>
<path d="M824.688 39.1906L833.559 51.178H851.301L842.429 39.1906H824.688Z" fill="#16181A"/>
<path d="M824.688 35.8094H842.429L851.301 23.8214H833.559L824.688 35.8094Z" fill="#16181A"/>
<path d="M803.276 35.8094L794.404 23.8214H776.663L785.533 35.8094H803.276Z" fill="#16181A"/>
<path d="M785.533 39.1906L776.663 51.178H794.404L803.276 39.1906H785.533Z" fill="#16181A"/>
<path d="M760.794 30.308L753.44 37.6978L760.794 45.0877L768.148 37.6978L760.794 30.308Z" fill="#16181A"/>
<path d="M934.656 0L922.726 8.91385V26.7415L934.656 17.8277V0Z" fill="#16181A"/>
<path d="M907.431 17.8277L919.361 26.7415V8.91385L907.431 0V17.8277Z" fill="#16181A"/>
<path d="M907.431 75L919.361 66.0856V48.2579L907.431 57.1723V75Z" fill="#16181A"/>
<path d="M922.726 66.0856L934.656 75V57.1723L922.726 48.2579V66.0856Z" fill="#16181A"/>
<path d="M931.749 39.1906L940.62 51.178H958.362L949.491 39.1906H931.749Z" fill="#16181A"/>
<path d="M931.749 35.8094H949.491L958.362 23.8214H940.62L931.749 35.8094Z" fill="#16181A"/>
<path d="M910.338 35.8094L901.467 23.8214H883.725L892.596 35.8094H910.338Z" fill="#16181A"/>
<path d="M892.596 39.1906L883.725 51.178H901.467L910.338 39.1906H892.596Z" fill="#16181A"/>
<path d="M867.872 30.3349L860.518 37.7248L867.872 45.1146L875.226 37.7248L867.872 30.3349Z" fill="#16181A"/>
<path d="M1043.39 0L1031.46 8.91385V26.7415L1043.39 17.8277V0Z" fill="#16181A"/>
<path d="M1016.16 17.8277L1028.09 26.7415V8.91385L1016.16 0V17.8277Z" fill="#16181A"/>
<path d="M1016.16 75L1028.09 66.0856V48.2579L1016.16 57.1723V75Z" fill="#16181A"/>
<path d="M1031.46 66.0856L1043.39 75V57.1723L1031.46 48.2579V66.0856Z" fill="#16181A"/>
<path d="M1040.48 39.1906L1049.35 51.178H1067.1L1058.22 39.1906H1040.48Z" fill="#16181A"/>
<path d="M1040.48 35.8094H1058.22L1067.1 23.8214H1049.35L1040.48 35.8094Z" fill="#16181A"/>
<path d="M1019.07 35.8094L1010.2 23.8214H992.458L1001.33 35.8094H1019.07Z" fill="#16181A"/>
<path d="M1001.33 39.1906L992.458 51.178H1010.2L1019.07 39.1906H1001.33Z" fill="#16181A"/>
<path d="M976.586 30.307L969.231 37.6969L976.586 45.0868L983.94 37.6969L976.586 30.307Z" fill="#16181A"/>
<path d="M1083.65 30.3067L1076.29 37.6965L1083.65 45.0863L1091 37.6965L1083.65 30.3067Z" fill="#16181A"/>
</svg>
