<svg width="898" height="26" viewBox="0 0 898 26" fill="none" xmlns="http://www.w3.org/2000/svg">
<path d="M26.667 7.33301C26.667 8.5328 27.333 9.33265 28.1328 9.06641C28.9328 8.79974 29.5996 7.99967 29.5996 7.33301C29.5995 6.66636 28.9328 5.86626 28.1328 5.59961C27.333 5.33343 26.667 6.1333 26.667 7.33301Z" fill="black"/>
<path d="M82.667 7.33301C82.667 8.5328 83.333 9.33265 84.1328 9.06641C84.9328 8.79974 85.5996 7.99967 85.5996 7.33301C85.5995 6.66636 84.9328 5.86626 84.1328 5.59961C83.333 5.33343 82.667 6.1333 82.667 7.33301Z" fill="black"/>
<path d="M138.667 7.33301C138.667 8.5328 139.333 9.33265 140.133 9.06641C140.933 8.79974 141.6 7.99967 141.6 7.33301C141.6 6.66636 140.933 5.86626 140.133 5.59961C139.333 5.33343 138.667 6.1333 138.667 7.33301Z" fill="black"/>
<path d="M194.667 7.33301C194.667 8.5328 195.333 9.33265 196.133 9.06641C196.933 8.79974 197.6 7.99967 197.6 7.33301C197.6 6.66636 196.933 5.86626 196.133 5.59961C195.333 5.33343 194.667 6.1333 194.667 7.33301Z" fill="black"/>
<path d="M36.667 18.666C37.7335 18.6658 38.667 17.7326 38.667 16.666C38.6668 15.5996 37.7334 14.6662 36.667 14.666C35.6004 14.666 34.6672 15.5995 34.667 16.666C34.667 17.7327 35.6003 18.666 36.667 18.666Z" fill="black"/>
<path d="M92.667 18.666C93.7335 18.6658 94.667 17.7326 94.667 16.666C94.6668 15.5996 93.7334 14.6662 92.667 14.666C91.6004 14.666 90.6672 15.5995 90.667 16.666C90.667 17.7327 91.6003 18.666 92.667 18.666Z" fill="black"/>
<path d="M148.667 18.666C149.734 18.6658 150.667 17.7326 150.667 16.666C150.667 15.5996 149.733 14.6662 148.667 14.666C147.6 14.666 146.667 15.5995 146.667 16.666C146.667 17.7327 147.6 18.666 148.667 18.666Z" fill="black"/>
<path d="M204.667 18.666C205.734 18.6658 206.667 17.7326 206.667 16.666C206.667 15.5996 205.733 14.6662 204.667 14.666C203.6 14.666 202.667 15.5995 202.667 16.666C202.667 17.7327 203.6 18.666 204.667 18.666Z" fill="black"/>
<path d="M16.9336 17.8662C18.4002 19.3328 20 18.666 20 16.666C19.9999 15.5995 19.4664 14.666 18.7998 14.666C17.0666 14.6662 15.867 16.7996 16.9336 17.8662Z" fill="black"/>
<path d="M72.9336 17.8662C74.4002 19.3328 76 18.666 76 16.666C75.9999 15.5995 75.4664 14.666 74.7998 14.666C73.0666 14.6662 71.867 16.7996 72.9336 17.8662Z" fill="black"/>
<path d="M128.934 17.8662C130.4 19.3328 132 18.666 132 16.666C132 15.5995 131.466 14.666 130.8 14.666C129.067 14.6662 127.867 16.7996 128.934 17.8662Z" fill="black"/>
<path d="M184.934 17.8662C186.4 19.3328 188 18.666 188 16.666C188 15.5995 187.466 14.666 186.8 14.666C185.067 14.6662 183.867 16.7996 184.934 17.8662Z" fill="black"/>
<path fill-rule="evenodd" clip-rule="evenodd" d="M195.333 25.333C221.733 25.333 222.667 25.1993 222.667 22.666C222.667 20.533 221.733 20 218.533 20H214.4L219.2 14.666C226.4 6.66633 225.733 1.99991 218.4 8.93262L214.667 12.5332L210.267 8.2666L206 4H214.267C220.266 4 222.533 3.46652 223.2 2C223.867 0.266667 220.267 0 196 0C172 1.41307e-08 168 0.266667 168 2C168 3.59973 169.867 4 176.667 4C181.467 4.00002 185.333 4.53308 185.333 5.06641C185.333 5.73315 183.466 7.86674 181.333 10L177.333 13.8662L172.667 9.33301C169.641 6.39637 168.577 5.42092 168.203 6.00781C167.846 4.96931 165.871 5.65178 162.4 8.93262L158.667 12.5332L154.267 8.2666L150 4H158.267C164.266 4 166.533 3.46652 167.2 2C167.867 0.266667 164.267 0 140 0C116 1.41307e-08 112 0.266667 112 2C112 3.59973 113.867 4 120.667 4C125.467 4.00002 129.333 4.53308 129.333 5.06641C129.333 5.73315 127.466 7.86674 125.333 10L121.333 13.8662L116.667 9.33301C113.641 6.39637 112.577 5.42092 112.203 6.00781C111.846 4.96931 109.871 5.65178 106.4 8.93262L102.667 12.5332L98.2666 8.2666L94 4H102.267C108.266 4 110.533 3.46652 111.2 2C111.867 0.266667 108.267 0 84 0C60 1.41307e-08 56 0.266667 56 2C56.0003 3.59973 57.8675 4 64.667 4C69.4668 4.00002 73.333 4.53308 73.333 5.06641C73.3329 5.73315 71.4663 7.86674 69.333 10L65.333 13.8662L60.667 9.33301C57.6414 6.39637 56.5773 5.42092 56.2031 6.00781C55.846 4.96931 53.8706 5.65178 50.4004 8.93262L46.667 12.5332L42.2666 8.2666L38 4H46.2666C52.2663 4 54.5334 3.46652 55.2002 2C55.8669 0.266667 52.2667 0 28 0C4 1.41307e-08 0 0.266667 0 2C0.000253688 3.59973 1.86745 4 8.66699 4C13.4668 4.00002 17.333 4.53308 17.333 5.06641C17.3329 5.73315 15.4663 7.86674 13.333 10L9.33301 13.8662L4.66699 9.33301C0.133658 4.93301 0 4.93333 0 8C0.000234127 9.73343 1.86678 13.1998 4.2666 15.5996L8.5332 20H4.2666C0.933491 20 9.5131e-05 20.533 0 22.666C0 25.1993 0.933325 25.333 27.333 25.333C53.733 25.333 54.667 25.1993 54.667 22.666C54.6669 20.533 53.733 20 50.5332 20H46.4004L51.2002 14.666C53.837 11.7361 55.4165 9.25261 56.002 7.62305C56.0011 7.74291 56 7.86881 56 8C56.0002 9.73343 57.8668 13.1998 60.2666 15.5996L64.5332 20H60.2666C56.9335 20 56.0001 20.533 56 22.666C56 25.1993 56.9333 25.333 83.333 25.333C109.733 25.333 110.667 25.1993 110.667 22.666C110.667 20.533 109.733 20 106.533 20H102.4L107.2 14.666C109.837 11.7361 111.416 9.25261 112.002 7.62305C112.001 7.74291 112 7.86881 112 8C112 9.73343 113.867 13.1998 116.267 15.5996L120.533 20H116.267C112.933 20 112 20.533 112 22.666C112 25.1993 112.933 25.333 139.333 25.333C165.733 25.333 166.667 25.1993 166.667 22.666C166.667 20.533 165.733 20 162.533 20H158.4L163.2 14.666C165.837 11.7361 167.416 9.25261 168.002 7.62305C168.001 7.74291 168 7.86881 168 8C168 9.73343 169.867 13.1998 172.267 15.5996L176.533 20H172.267C168.933 20 168 20.533 168 22.666C168 25.1993 168.933 25.333 195.333 25.333ZM28.1338 13.333C27.0671 13.1997 20 5.99928 20 4.93262C20.0019 4.39948 24.0015 4 28.9336 4H37.8662L33.333 8.66602C30.8006 11.1984 28.535 13.3314 28.1338 13.333ZM84.1338 13.333C83.0671 13.1997 76 5.99928 76 4.93262C76.002 4.39948 80.0015 4 84.9336 4H93.8662L89.333 8.66602C86.8006 11.1984 84.535 13.3314 84.1338 13.333ZM140.134 13.333C139.067 13.1997 132 5.99928 132 4.93262C132.002 4.39948 136.001 4 140.934 4H149.866L145.333 8.66602C142.801 11.1984 140.535 13.3314 140.134 13.333ZM196.134 13.333C195.067 13.1997 188 5.99928 188 4.93262C188.002 4.39948 192.001 4 196.934 4H205.866L201.333 8.66602C198.801 11.1984 196.535 13.3314 196.134 13.333ZM33.0664 15.7334L37.333 11.333L41.5996 15.7334L46 20H28.667L33.0664 15.7334ZM89.0664 15.7334L93.333 11.333L97.5996 15.7334L102 20H84.667L89.0664 15.7334ZM145.066 15.7334L149.333 11.333L153.6 15.7334L158 20H140.667L145.066 15.7334ZM201.066 15.7334L205.333 11.333L209.6 15.7334L214 20H196.667L201.066 15.7334ZM18.9336 20C11.2004 20 10.8006 19.8666 12.1338 17.4668C13.0671 16.1335 14.9337 14.2668 16.4004 13.4668C18.667 12.0002 19.6002 12.2662 23.2002 15.8662L27.333 20H18.9336ZM74.9336 20C67.2004 20 66.8006 19.8666 68.1338 17.4668C69.0671 16.1335 70.9337 14.2668 72.4004 13.4668C74.667 12.0002 75.6002 12.2662 79.2002 15.8662L83.333 20H74.9336ZM130.934 20C123.2 20 122.801 19.8666 124.134 17.4668C125.067 16.1335 126.934 14.2668 128.4 13.4668C130.667 12.0002 131.6 12.2662 135.2 15.8662L139.333 20H130.934ZM186.934 20C179.2 20 178.801 19.8666 180.134 17.4668C181.067 16.1335 182.934 14.2668 184.4 13.4668C186.667 12.0002 187.6 12.2662 191.2 15.8662L195.333 20H186.934Z" fill="black"/>
<path d="M250.931 7.33301C250.931 8.53301 251.597 9.33307 252.397 9.06641C253.197 8.79966 253.864 7.99961 253.864 7.33301C253.864 6.66641 253.197 5.86632 252.397 5.59961C251.597 5.33295 250.931 6.13306 250.931 7.33301Z" fill="black"/>
<path d="M306.931 7.33301C306.931 8.53301 307.597 9.33307 308.397 9.06641C309.197 8.79966 309.864 7.99961 309.864 7.33301C309.864 6.66641 309.197 5.86632 308.397 5.59961C307.597 5.33295 306.931 6.13306 306.931 7.33301Z" fill="black"/>
<path d="M362.931 7.33301C362.931 8.53301 363.597 9.33307 364.397 9.06641C365.197 8.79966 365.864 7.99961 365.864 7.33301C365.864 6.66641 365.197 5.86632 364.397 5.59961C363.597 5.33295 362.931 6.13306 362.931 7.33301Z" fill="black"/>
<path d="M418.931 7.33301C418.931 8.53301 419.597 9.33307 420.397 9.06641C421.197 8.79966 421.864 7.99961 421.864 7.33301C421.864 6.66641 421.197 5.86632 420.397 5.59961C419.597 5.33295 418.931 6.13306 418.931 7.33301Z" fill="black"/>
<path d="M260.931 18.666C261.997 18.6659 262.931 17.7326 262.931 16.666C262.93 15.5995 261.997 14.6661 260.931 14.666C259.864 14.666 258.931 15.5995 258.931 16.666C258.931 17.7327 259.864 18.666 260.931 18.666Z" fill="black"/>
<path d="M316.931 18.666C317.997 18.6659 318.931 17.7326 318.931 16.666C318.93 15.5995 317.997 14.6661 316.931 14.666C315.864 14.666 314.931 15.5995 314.931 16.666C314.931 17.7327 315.864 18.666 316.931 18.666Z" fill="black"/>
<path d="M372.931 18.666C373.997 18.6659 374.931 17.7326 374.931 16.666C374.93 15.5995 373.997 14.6661 372.931 14.666C371.864 14.666 370.931 15.5995 370.931 16.666C370.931 17.7327 371.864 18.666 372.931 18.666Z" fill="black"/>
<path d="M428.931 18.666C429.997 18.6659 430.931 17.7326 430.931 16.666C430.93 15.5995 429.997 14.6661 428.931 14.666C427.864 14.666 426.931 15.5995 426.931 16.666C426.931 17.7327 427.864 18.666 428.931 18.666Z" fill="black"/>
<path d="M241.197 17.8662C242.664 19.3329 244.264 18.666 244.264 16.666C244.264 15.5995 243.73 14.666 243.063 14.666C241.33 14.6664 240.131 16.7996 241.197 17.8662Z" fill="black"/>
<path d="M297.197 17.8662C298.664 19.3329 300.264 18.666 300.264 16.666C300.264 15.5995 299.73 14.666 299.063 14.666C297.33 14.6664 296.131 16.7996 297.197 17.8662Z" fill="black"/>
<path d="M353.197 17.8662C354.664 19.3329 356.264 18.666 356.264 16.666C356.264 15.5995 355.73 14.666 355.063 14.666C353.33 14.6664 352.131 16.7996 353.197 17.8662Z" fill="black"/>
<path d="M409.197 17.8662C410.664 19.3329 412.264 18.666 412.264 16.666C412.264 15.5995 411.73 14.666 411.063 14.666C409.33 14.6664 408.131 16.7996 409.197 17.8662Z" fill="black"/>
<path fill-rule="evenodd" clip-rule="evenodd" d="M419.598 25.333C445.997 25.333 446.931 25.1993 446.931 22.666C446.931 20.533 445.997 20 442.797 20H438.664L443.464 14.666C450.664 6.66621 449.997 1.9997 442.664 8.93262L438.931 12.5332L434.53 8.2666L430.264 4H438.53C444.53 4 446.797 3.46645 447.464 2C448.131 0.266667 444.53 0 420.264 0C396.264 1.82285e-06 392.264 0.266673 392.264 2C392.264 3.59973 394.131 4 400.931 4C405.731 4.00001 409.598 4.53308 409.598 5.06641C409.598 5.73314 407.731 7.86675 405.598 10L401.598 13.8662L396.931 9.33301C393.905 6.39618 392.841 5.42069 392.467 6.00781C392.11 4.9694 390.134 5.65176 386.664 8.93262L382.931 12.5332L378.53 8.2666L374.264 4H382.53C388.53 4 390.797 3.46645 391.464 2C392.131 0.266667 388.53 0 364.264 0C340.264 1.82285e-06 336.264 0.266673 336.264 2C336.264 3.59973 338.131 4 344.931 4C349.731 4.00001 353.598 4.53308 353.598 5.06641C353.598 5.73314 351.731 7.86675 349.598 10L345.598 13.8662L340.931 9.33301C337.905 6.39618 336.841 5.42069 336.467 6.00781C336.11 4.9694 334.134 5.65176 330.664 8.93262L326.931 12.5332L322.53 8.2666L318.264 4H326.53C332.53 4 334.797 3.46645 335.464 2C336.131 0.266667 332.53 0 308.264 0C284.264 1.82285e-06 280.264 0.266673 280.264 2C280.264 3.59973 282.131 4 288.931 4C293.731 4.00001 297.598 4.53308 297.598 5.06641C297.598 5.73314 295.731 7.86675 293.598 10L289.598 13.8662L284.931 9.33301C281.905 6.39618 280.841 5.42069 280.467 6.00781C280.11 4.9694 278.134 5.65176 274.664 8.93262L270.931 12.5332L266.53 8.2666L262.264 4H270.53C276.53 4 278.797 3.46645 279.464 2C280.131 0.266667 276.53 0 252.264 0C228.264 1.82285e-06 224.264 0.266673 224.264 2C224.264 3.59973 226.131 4 232.931 4C237.731 4.00001 241.598 4.53308 241.598 5.06641C241.598 5.73314 239.731 7.86675 237.598 10L233.598 13.8662L228.931 9.33301C224.397 4.93301 224.264 4.93333 224.264 8C224.264 9.7334 226.131 13.1998 228.53 15.5996L232.797 20H228.53C225.197 20 224.264 20.533 224.264 22.666C224.264 25.1993 225.198 25.333 251.598 25.333C277.997 25.333 278.931 25.1993 278.931 22.666C278.931 20.533 277.997 20 274.797 20H270.664L275.464 14.666C278.1 11.7367 279.68 9.25362 280.266 7.62402C280.265 7.74359 280.264 7.86917 280.264 8C280.264 9.7334 282.131 13.1998 284.53 15.5996L288.797 20H284.53C281.197 20 280.264 20.533 280.264 22.666C280.264 25.1993 281.198 25.333 307.598 25.333C333.997 25.333 334.931 25.1993 334.931 22.666C334.931 20.533 333.997 20 330.797 20H326.664L331.464 14.666C334.1 11.7367 335.68 9.25362 336.266 7.62402C336.265 7.74359 336.264 7.86917 336.264 8C336.264 9.7334 338.131 13.1998 340.53 15.5996L344.797 20H340.53C337.197 20 336.264 20.533 336.264 22.666C336.264 25.1993 337.198 25.333 363.598 25.333C389.997 25.333 390.931 25.1993 390.931 22.666C390.931 20.533 389.997 20 386.797 20H382.664L387.464 14.666C390.1 11.7367 391.68 9.25362 392.266 7.62402C392.265 7.74359 392.264 7.86917 392.264 8C392.264 9.7334 394.131 13.1998 396.53 15.5996L400.797 20H396.53C393.197 20 392.264 20.533 392.264 22.666C392.264 25.1993 393.198 25.333 419.598 25.333ZM252.397 13.333C251.331 13.1997 244.264 5.99928 244.264 4.93262C244.266 4.39948 248.265 4 253.197 4H262.131L257.598 8.66602C255.065 11.1989 252.798 13.3323 252.397 13.333ZM308.397 13.333C307.331 13.1997 300.264 5.99928 300.264 4.93262C300.266 4.39948 304.265 4 309.197 4H318.131L313.598 8.66602C311.065 11.1989 308.798 13.3323 308.397 13.333ZM364.397 13.333C363.331 13.1997 356.264 5.99928 356.264 4.93262C356.266 4.39948 360.265 4 365.197 4H374.131L369.598 8.66602C367.065 11.1989 364.798 13.3323 364.397 13.333ZM420.397 13.333C419.331 13.1997 412.264 5.99928 412.264 4.93262C412.266 4.39948 416.265 4 421.197 4H430.131L425.598 8.66602C423.065 11.1989 420.798 13.3323 420.397 13.333ZM257.331 15.7334L261.598 11.333L265.864 15.7334L270.264 20H252.931L257.331 15.7334ZM313.331 15.7334L317.598 11.333L321.864 15.7334L326.264 20H308.931L313.331 15.7334ZM369.331 15.7334L373.598 11.333L377.864 15.7334L382.264 20H364.931L369.331 15.7334ZM425.331 15.7334L429.598 11.333L433.864 15.7334L438.264 20H420.931L425.331 15.7334ZM243.197 20C235.464 20 235.064 19.8665 236.397 17.4668C237.331 16.1335 239.197 14.2668 240.664 13.4668C242.931 12.0001 243.864 12.2663 247.464 15.8662L251.598 20H243.197ZM299.197 20C291.464 20 291.064 19.8665 292.397 17.4668C293.331 16.1335 295.197 14.2668 296.664 13.4668C298.931 12.0001 299.864 12.2663 303.464 15.8662L307.598 20H299.197ZM355.197 20C347.464 20 347.064 19.8665 348.397 17.4668C349.331 16.1335 351.197 14.2668 352.664 13.4668C354.931 12.0001 355.864 12.2663 359.464 15.8662L363.598 20H355.197ZM411.197 20C403.464 20 403.064 19.8665 404.397 17.4668C405.331 16.1335 407.197 14.2668 408.664 13.4668C410.931 12.0001 411.864 12.2663 415.464 15.8662L419.598 20H411.197Z" fill="black"/>
<path d="M475.194 7.33301C475.194 8.53301 475.861 9.33307 476.661 9.06641C477.461 8.7997 478.128 7.99964 478.128 7.33301C478.128 6.66638 477.461 5.86629 476.661 5.59961C475.861 5.33295 475.194 6.13306 475.194 7.33301Z" fill="black"/>
<path d="M531.194 7.33301C531.194 8.53301 531.861 9.33307 532.661 9.06641C533.461 8.7997 534.128 7.99964 534.128 7.33301C534.128 6.66638 533.461 5.86629 532.661 5.59961C531.861 5.33295 531.194 6.13306 531.194 7.33301Z" fill="black"/>
<path d="M587.194 7.33301C587.194 8.53301 587.861 9.33307 588.661 9.06641C589.461 8.7997 590.128 7.99964 590.128 7.33301C590.128 6.66638 589.461 5.86629 588.661 5.59961C587.861 5.33295 587.194 6.13306 587.194 7.33301Z" fill="black"/>
<path d="M643.194 7.33301C643.194 8.53301 643.861 9.33307 644.661 9.06641C645.461 8.7997 646.128 7.99964 646.128 7.33301C646.128 6.66638 645.461 5.86629 644.661 5.59961C643.861 5.33295 643.194 6.13306 643.194 7.33301Z" fill="black"/>
<path d="M485.194 18.666C486.261 18.666 487.194 17.7327 487.194 16.666C487.194 15.5995 486.261 14.666 485.194 14.666C484.128 14.666 483.195 15.5995 483.194 16.666C483.194 17.7327 484.128 18.666 485.194 18.666Z" fill="black"/>
<path d="M541.194 18.666C542.261 18.666 543.194 17.7327 543.194 16.666C543.194 15.5995 542.261 14.666 541.194 14.666C540.128 14.666 539.195 15.5995 539.194 16.666C539.194 17.7327 540.128 18.666 541.194 18.666Z" fill="black"/>
<path d="M597.194 18.666C598.261 18.666 599.194 17.7327 599.194 16.666C599.194 15.5995 598.261 14.666 597.194 14.666C596.128 14.666 595.195 15.5995 595.194 16.666C595.194 17.7327 596.128 18.666 597.194 18.666Z" fill="black"/>
<path d="M653.194 18.666C654.261 18.666 655.194 17.7327 655.194 16.666C655.194 15.5995 654.261 14.666 653.194 14.666C652.128 14.666 651.195 15.5995 651.194 16.666C651.194 17.7327 652.128 18.666 653.194 18.666Z" fill="black"/>
<path d="M465.461 17.8662C466.928 19.3329 468.527 18.666 468.527 16.666C468.527 15.5997 467.995 14.6664 467.328 14.666C465.595 14.666 464.394 16.7995 465.461 17.8662Z" fill="black"/>
<path d="M521.461 17.8662C522.928 19.3329 524.527 18.666 524.527 16.666C524.527 15.5997 523.995 14.6664 523.328 14.666C521.595 14.666 520.394 16.7995 521.461 17.8662Z" fill="black"/>
<path d="M577.461 17.8662C578.928 19.3329 580.527 18.666 580.527 16.666C580.527 15.5997 579.995 14.6664 579.328 14.666C577.595 14.666 576.394 16.7995 577.461 17.8662Z" fill="black"/>
<path d="M633.461 17.8662C634.928 19.3329 636.527 18.666 636.527 16.666C636.527 15.5997 635.995 14.6664 635.328 14.666C633.595 14.666 632.394 16.7995 633.461 17.8662Z" fill="black"/>
<path fill-rule="evenodd" clip-rule="evenodd" d="M643.861 25.333C670.261 25.333 671.194 25.1993 671.194 22.666C671.194 20.5331 670.261 20.0001 667.062 20H662.928L667.728 14.666C674.927 6.66615 674.261 1.99959 666.928 8.93262L663.194 12.5332L658.794 8.2666L654.527 4H662.794C668.793 4 671.061 3.46641 671.728 2C672.394 0.266667 668.794 0 644.527 0C620.528 2.72721e-06 616.527 0.266676 616.527 2C616.528 3.59973 618.395 4 625.194 4C629.994 4 633.861 4.53307 633.861 5.06641C633.861 5.73315 631.995 7.86674 629.861 10L625.861 13.8662L621.194 9.33301C618.168 6.39611 617.105 5.42057 616.73 6.00781C616.373 4.96945 614.398 5.65175 610.928 8.93262L607.194 12.5332L602.794 8.2666L598.527 4H606.794C612.793 4 615.061 3.46641 615.728 2C616.394 0.266667 612.794 0 588.527 0C564.528 2.72721e-06 560.527 0.266676 560.527 2C560.528 3.59973 562.395 4 569.194 4C573.994 4 577.861 4.53307 577.861 5.06641C577.861 5.73315 575.995 7.86674 573.861 10L569.861 13.8662L565.194 9.33301C562.168 6.39611 561.105 5.42057 560.73 6.00781C560.373 4.96945 558.398 5.65175 554.928 8.93262L551.194 12.5332L546.794 8.2666L542.527 4H550.794C556.793 4 559.061 3.46641 559.728 2C560.394 0.266667 556.794 0 532.527 0C508.528 2.72721e-06 504.527 0.266676 504.527 2C504.528 3.59973 506.395 4 513.194 4C517.994 4 521.861 4.53307 521.861 5.06641C521.861 5.73315 519.995 7.86674 517.861 10L513.861 13.8662L509.194 9.33301C506.168 6.39611 505.105 5.42057 504.73 6.00781C504.373 4.96945 502.398 5.65175 498.928 8.93262L495.194 12.5332L490.794 8.2666L486.527 4H494.794C500.793 4 503.061 3.46641 503.728 2C504.394 0.266667 500.794 0 476.527 0C452.528 2.72721e-06 448.527 0.266676 448.527 2C448.528 3.59973 450.395 4 457.194 4C461.994 4 465.861 4.53307 465.861 5.06641C465.861 5.73315 463.995 7.86674 461.861 10L457.861 13.8662L453.194 9.33301C448.661 4.93303 448.527 4.93334 448.527 8C448.528 9.73338 450.394 13.1998 452.794 15.5996L457.062 20H452.794C449.461 20 448.527 20.533 448.527 22.666C448.527 25.1993 449.461 25.333 475.861 25.333C502.261 25.333 503.194 25.1993 503.194 22.666C503.194 20.5331 502.261 20.0001 499.062 20H494.928L499.728 14.666C502.364 11.7367 503.944 9.25363 504.529 7.62402C504.528 7.74359 504.527 7.86917 504.527 8C504.528 9.73338 506.394 13.1998 508.794 15.5996L513.062 20H508.794C505.461 20 504.527 20.533 504.527 22.666C504.527 25.1993 505.461 25.333 531.861 25.333C558.261 25.333 559.194 25.1993 559.194 22.666C559.194 20.5331 558.261 20.0001 555.062 20H550.928L555.728 14.666C558.364 11.7367 559.944 9.25363 560.529 7.62402C560.529 7.74359 560.527 7.86917 560.527 8C560.528 9.73338 562.394 13.1998 564.794 15.5996L569.062 20H564.794C561.461 20 560.527 20.533 560.527 22.666C560.527 25.1993 561.461 25.333 587.861 25.333C614.261 25.333 615.194 25.1993 615.194 22.666C615.194 20.5331 614.261 20.0001 611.062 20H606.928L611.728 14.666C614.364 11.7367 615.944 9.25363 616.529 7.62402C616.529 7.74359 616.527 7.86917 616.527 8C616.528 9.73338 618.394 13.1998 620.794 15.5996L625.062 20H620.794C617.461 20 616.527 20.533 616.527 22.666C616.527 25.1993 617.461 25.333 643.861 25.333ZM476.661 13.333C475.594 13.1997 468.527 5.99928 468.527 4.93262C468.529 4.39948 472.529 4.00001 477.461 4H486.395L481.861 8.66602C479.328 11.1992 477.061 13.3327 476.661 13.333ZM532.661 13.333C531.594 13.1997 524.527 5.99928 524.527 4.93262C524.529 4.39948 528.529 4.00001 533.461 4H542.395L537.861 8.66602C535.328 11.1992 533.061 13.3327 532.661 13.333ZM588.661 13.333C587.594 13.1997 580.527 5.99928 580.527 4.93262C580.529 4.39948 584.529 4.00001 589.461 4H598.395L593.861 8.66602C591.328 11.1992 589.061 13.3327 588.661 13.333ZM644.661 13.333C643.594 13.1997 636.527 5.99928 636.527 4.93262C636.529 4.39948 640.529 4.00001 645.461 4H654.395L649.861 8.66602C647.328 11.1992 645.061 13.3327 644.661 13.333ZM481.595 15.7334L485.861 11.333L490.128 15.7334L494.527 20H477.194L481.595 15.7334ZM537.595 15.7334L541.861 11.333L546.128 15.7334L550.527 20H533.194L537.595 15.7334ZM593.595 15.7334L597.861 11.333L602.128 15.7334L606.527 20H589.194L593.595 15.7334ZM649.595 15.7334L653.861 11.333L658.128 15.7334L662.527 20H645.194L649.595 15.7334ZM467.461 20C459.728 20 459.328 19.8665 460.661 17.4668C461.594 16.1335 463.461 14.2668 464.928 13.4668C467.194 12.0002 468.128 12.2664 471.728 15.8662L475.861 20H467.461ZM523.461 20C515.728 20 515.328 19.8665 516.661 17.4668C517.594 16.1335 519.461 14.2668 520.928 13.4668C523.194 12.0002 524.128 12.2664 527.728 15.8662L531.861 20H523.461ZM579.461 20C571.728 20 571.328 19.8665 572.661 17.4668C573.594 16.1335 575.461 14.2668 576.928 13.4668C579.194 12.0002 580.128 12.2664 583.728 15.8662L587.861 20H579.461ZM635.461 20C627.728 20 627.328 19.8665 628.661 17.4668C629.594 16.1335 631.461 14.2668 632.928 13.4668C635.194 12.0002 636.128 12.2664 639.728 15.8662L643.861 20H635.461Z" fill="black"/>
<path d="M699.458 7.33301C699.458 8.53301 700.125 9.33307 700.925 9.06641C701.725 8.79974 702.392 7.99967 702.392 7.33301C702.392 6.66636 701.725 5.86626 700.925 5.59961C700.125 5.33299 699.458 6.13308 699.458 7.33301Z" fill="black"/>
<path d="M755.458 7.33301C755.458 8.53301 756.125 9.33307 756.925 9.06641C757.725 8.79974 758.392 7.99967 758.392 7.33301C758.392 6.66636 757.725 5.86626 756.925 5.59961C756.125 5.33299 755.458 6.13308 755.458 7.33301Z" fill="black"/>
<path d="M811.458 7.33301C811.458 8.53301 812.125 9.33307 812.925 9.06641C813.725 8.79974 814.392 7.99967 814.392 7.33301C814.392 6.66636 813.725 5.86626 812.925 5.59961C812.125 5.33299 811.458 6.13308 811.458 7.33301Z" fill="black"/>
<path d="M867.458 7.33301C867.458 8.53301 868.125 9.33307 868.925 9.06641C869.725 8.79974 870.392 7.99967 870.392 7.33301C870.392 6.66636 869.725 5.86626 868.925 5.59961C868.125 5.33299 867.458 6.13308 867.458 7.33301Z" fill="black"/>
<path d="M709.458 18.666C710.525 18.666 711.458 17.7327 711.458 16.666C711.458 15.5995 710.525 14.666 709.458 14.666C708.391 14.6661 707.458 15.5995 707.458 16.666C707.458 17.7326 708.391 18.6659 709.458 18.666Z" fill="black"/>
<path d="M765.458 18.666C766.525 18.666 767.458 17.7327 767.458 16.666C767.458 15.5995 766.525 14.666 765.458 14.666C764.391 14.6661 763.458 15.5995 763.458 16.666C763.458 17.7326 764.391 18.6659 765.458 18.666Z" fill="black"/>
<path d="M821.458 18.666C822.525 18.666 823.458 17.7327 823.458 16.666C823.458 15.5995 822.525 14.666 821.458 14.666C820.391 14.6661 819.458 15.5995 819.458 16.666C819.458 17.7326 820.391 18.6659 821.458 18.666Z" fill="black"/>
<path d="M877.458 18.666C878.525 18.666 879.458 17.7327 879.458 16.666C879.458 15.5995 878.525 14.666 877.458 14.666C876.391 14.6661 875.458 15.5995 875.458 16.666C875.458 17.7326 876.391 18.6659 877.458 18.666Z" fill="black"/>
<path d="M689.725 17.8662C691.191 19.3329 692.791 18.666 692.791 16.666C692.791 15.5997 692.258 14.6663 691.592 14.666C689.859 14.666 688.658 16.7995 689.725 17.8662Z" fill="black"/>
<path d="M745.725 17.8662C747.191 19.3329 748.791 18.666 748.791 16.666C748.791 15.5997 748.258 14.6663 747.592 14.666C745.859 14.666 744.658 16.7995 745.725 17.8662Z" fill="black"/>
<path d="M801.725 17.8662C803.191 19.3329 804.791 18.666 804.791 16.666C804.791 15.5997 804.258 14.6663 803.592 14.666C801.859 14.666 800.658 16.7995 801.725 17.8662Z" fill="black"/>
<path d="M857.725 17.8662C859.191 19.3329 860.791 18.666 860.791 16.666C860.791 15.5997 860.258 14.6663 859.592 14.666C857.859 14.666 856.658 16.7995 857.725 17.8662Z" fill="black"/>
<path fill-rule="evenodd" clip-rule="evenodd" d="M868.125 25.333C894.525 25.333 895.458 25.1993 895.458 22.666C895.458 20.533 894.525 20 891.325 20H887.191L891.991 14.666C899.191 6.66609 898.525 1.99949 891.191 8.93262L887.458 12.5332L883.059 8.2666L878.792 4H887.059C893.058 3.99998 895.324 3.46634 895.991 2C896.658 0.266678 893.058 3.56324e-06 868.792 0C844.792 0 840.792 0.266667 840.792 2C840.792 3.59972 842.659 3.99999 849.458 4C854.258 4 858.125 4.53307 858.125 5.06641C858.125 5.73315 856.258 7.86674 854.125 10L850.125 13.8662L845.458 9.33301C842.433 6.39722 841.369 5.42095 840.994 6.00684C840.636 4.96978 838.661 5.65265 835.191 8.93262L831.458 12.5332L827.059 8.2666L822.792 4H831.059C837.058 3.99998 839.324 3.46634 839.991 2C840.658 0.266678 837.058 3.56324e-06 812.792 0C788.792 0 784.792 0.266667 784.792 2C784.792 3.59972 786.659 3.99999 793.458 4C798.258 4 802.125 4.53307 802.125 5.06641C802.125 5.73315 800.258 7.86674 798.125 10L794.125 13.8662L789.458 9.33301C786.433 6.39722 785.369 5.42095 784.994 6.00684C784.636 4.96978 782.661 5.65265 779.191 8.93262L775.458 12.5332L771.059 8.2666L766.792 4H775.059C781.058 3.99998 783.324 3.46634 783.991 2C784.658 0.266678 781.058 3.56324e-06 756.792 0C732.792 0 728.792 0.266667 728.792 2C728.792 3.59972 730.659 3.99999 737.458 4C742.258 4 746.125 4.53307 746.125 5.06641C746.125 5.73315 744.258 7.86674 742.125 10L738.125 13.8662L733.458 9.33301C730.433 6.39722 729.369 5.42095 728.994 6.00684C728.636 4.96978 726.661 5.65265 723.191 8.93262L719.458 12.5332L715.059 8.2666L710.792 4H719.059C725.058 3.99998 727.324 3.46634 727.991 2C728.658 0.266678 725.058 3.56324e-06 700.792 0C676.792 0 672.792 0.266667 672.792 2C672.792 3.59972 674.659 3.99999 681.458 4C686.258 4 690.125 4.53307 690.125 5.06641C690.125 5.73315 688.258 7.86674 686.125 10L682.125 13.8662L677.458 9.33301C672.925 4.93309 672.792 4.93335 672.792 8C672.792 9.73344 674.659 13.1998 677.059 15.5996L681.325 20H677.059C673.725 20 672.792 20.533 672.792 22.666C672.792 25.1993 673.725 25.333 700.125 25.333C726.525 25.333 727.458 25.1993 727.458 22.666C727.458 20.533 726.525 20 723.325 20H719.191L723.991 14.666C726.628 11.7367 728.207 9.25364 728.793 7.62402C728.792 7.74359 728.792 7.86917 728.792 8C728.792 9.73344 730.659 13.1998 733.059 15.5996L737.325 20H733.059C729.725 20 728.792 20.533 728.792 22.666C728.792 25.1993 729.725 25.333 756.125 25.333C782.525 25.333 783.458 25.1993 783.458 22.666C783.458 20.533 782.525 20 779.325 20H775.191L779.991 14.666C782.628 11.7367 784.207 9.25364 784.793 7.62402C784.792 7.74359 784.792 7.86917 784.792 8C784.792 9.73344 786.659 13.1998 789.059 15.5996L793.325 20H789.059C785.725 20 784.792 20.533 784.792 22.666C784.792 25.1993 785.725 25.333 812.125 25.333C838.525 25.333 839.458 25.1993 839.458 22.666C839.458 20.533 838.525 20 835.325 20H831.191L835.991 14.666C838.628 11.7367 840.207 9.25364 840.793 7.62402C840.792 7.74359 840.792 7.86917 840.792 8C840.792 9.73344 842.659 13.1998 845.059 15.5996L849.325 20H845.059C841.725 20 840.792 20.533 840.792 22.666C840.792 25.1993 841.725 25.333 868.125 25.333ZM700.925 13.333C699.858 13.1995 692.792 5.99927 692.792 4.93262C692.794 4.39949 696.793 4.00001 701.725 4H710.658L706.125 8.66602C703.592 11.1993 701.325 13.333 700.925 13.333ZM756.925 13.333C755.858 13.1995 748.792 5.99927 748.792 4.93262C748.794 4.39949 752.793 4.00001 757.725 4H766.658L762.125 8.66602C759.592 11.1993 757.325 13.333 756.925 13.333ZM812.925 13.333C811.858 13.1995 804.792 5.99927 804.792 4.93262C804.794 4.39949 808.793 4.00001 813.725 4H822.658L818.125 8.66602C815.592 11.1993 813.325 13.333 812.925 13.333ZM868.925 13.333C867.858 13.1995 860.792 5.99927 860.792 4.93262C860.794 4.39949 864.793 4.00001 869.725 4H878.658L874.125 8.66602C871.592 11.1993 869.325 13.333 868.925 13.333ZM705.858 15.7334L710.125 11.333L714.392 15.7334L718.792 20H701.458L705.858 15.7334ZM761.858 15.7334L766.125 11.333L770.392 15.7334L774.792 20H757.458L761.858 15.7334ZM817.858 15.7334L822.125 11.333L826.392 15.7334L830.792 20H813.458L817.858 15.7334ZM873.858 15.7334L878.125 11.333L882.392 15.7334L886.792 20H869.458L873.858 15.7334ZM691.725 20C683.992 20 683.592 19.8664 684.925 17.4668C685.858 16.1335 687.725 14.2669 689.191 13.4668C691.458 12.0002 692.391 12.2664 695.991 15.8662L700.125 20H691.725ZM747.725 20C739.992 20 739.592 19.8664 740.925 17.4668C741.858 16.1335 743.725 14.2669 745.191 13.4668C747.458 12.0002 748.391 12.2664 751.991 15.8662L756.125 20H747.725ZM803.725 20C795.992 20 795.592 19.8664 796.925 17.4668C797.858 16.1335 799.725 14.2669 801.191 13.4668C803.458 12.0002 804.391 12.2664 807.991 15.8662L812.125 20H803.725ZM859.725 20C851.992 20 851.592 19.8664 852.925 17.4668C853.858 16.1335 855.725 14.2669 857.191 13.4668C859.458 12.0002 860.391 12.2664 863.991 15.8662L868.125 20H859.725Z" fill="black"/>
<path d="M8.66699 9.33301C9.73351 9.33279 10.667 8.39955 10.667 7.33301C10.667 6.26648 9.73349 5.33322 8.66699 5.33301C7.60034 5.33301 6.66702 6.26636 6.66699 7.33301C6.66699 8.39967 7.60033 9.33301 8.66699 9.33301Z" fill="black"/>
<path d="M64.667 9.33301C65.7335 9.33279 66.667 8.39955 66.667 7.33301C66.667 6.26648 65.7335 5.33322 64.667 5.33301C63.6003 5.33301 62.667 6.26636 62.667 7.33301C62.667 8.39967 63.6003 9.33301 64.667 9.33301Z" fill="black"/>
<path d="M120.667 9.33301C121.734 9.33279 122.667 8.39955 122.667 7.33301C122.667 6.26648 121.733 5.33322 120.667 5.33301C119.6 5.33301 118.667 6.26636 118.667 7.33301C118.667 8.39967 119.6 9.33301 120.667 9.33301Z" fill="black"/>
<path d="M176.667 9.33301C177.734 9.33279 178.667 8.39955 178.667 7.33301C178.667 6.26648 177.733 5.33322 176.667 5.33301C175.6 5.33301 174.667 6.26636 174.667 7.33301C174.667 8.39967 175.6 9.33301 176.667 9.33301Z" fill="black"/>
<path d="M232.931 9.33301C233.997 9.33294 234.931 8.39963 234.931 7.33301C234.931 6.2664 233.997 5.33308 232.931 5.33301C231.864 5.33301 230.931 6.26636 230.931 7.33301C230.931 8.39967 231.864 9.33301 232.931 9.33301Z" fill="black"/>
<path d="M288.931 9.33301C289.997 9.33294 290.931 8.39963 290.931 7.33301C290.931 6.2664 289.997 5.33308 288.931 5.33301C287.864 5.33301 286.931 6.26636 286.931 7.33301C286.931 8.39967 287.864 9.33301 288.931 9.33301Z" fill="black"/>
<path d="M344.931 9.33301C345.997 9.33294 346.931 8.39963 346.931 7.33301C346.931 6.2664 345.997 5.33308 344.931 5.33301C343.864 5.33301 342.931 6.26636 342.931 7.33301C342.931 8.39967 343.864 9.33301 344.931 9.33301Z" fill="black"/>
<path d="M400.931 9.33301C401.997 9.33294 402.931 8.39963 402.931 7.33301C402.931 6.2664 401.997 5.33308 400.931 5.33301C399.864 5.33301 398.931 6.26636 398.931 7.33301C398.931 8.39967 399.864 9.33301 400.931 9.33301Z" fill="black"/>
<path d="M457.194 9.33301C458.261 9.33301 459.194 8.39967 459.194 7.33301C459.194 6.26636 458.261 5.33301 457.194 5.33301C456.128 5.33301 455.194 6.26636 455.194 7.33301C455.194 8.39967 456.128 9.33301 457.194 9.33301Z" fill="black"/>
<path d="M513.194 9.33301C514.261 9.33301 515.194 8.39967 515.194 7.33301C515.194 6.26636 514.261 5.33301 513.194 5.33301C512.128 5.33301 511.194 6.26636 511.194 7.33301C511.194 8.39967 512.128 9.33301 513.194 9.33301Z" fill="black"/>
<path d="M569.194 9.33301C570.261 9.33301 571.194 8.39967 571.194 7.33301C571.194 6.26636 570.261 5.33301 569.194 5.33301C568.128 5.33301 567.194 6.26636 567.194 7.33301C567.194 8.39967 568.128 9.33301 569.194 9.33301Z" fill="black"/>
<path d="M625.194 9.33301C626.261 9.33301 627.194 8.39967 627.194 7.33301C627.194 6.26636 626.261 5.33301 625.194 5.33301C624.128 5.33301 623.194 6.26636 623.194 7.33301C623.194 8.39967 624.128 9.33301 625.194 9.33301Z" fill="black"/>
<path d="M681.458 9.33301C682.525 9.33301 683.458 8.39967 683.458 7.33301C683.458 6.26636 682.525 5.33301 681.458 5.33301C680.391 5.33308 679.458 6.2664 679.458 7.33301C679.458 8.39963 680.391 9.33294 681.458 9.33301Z" fill="black"/>
<path d="M737.458 9.33301C738.525 9.33301 739.458 8.39967 739.458 7.33301C739.458 6.26636 738.525 5.33301 737.458 5.33301C736.391 5.33308 735.458 6.2664 735.458 7.33301C735.458 8.39963 736.391 9.33294 737.458 9.33301Z" fill="black"/>
<path d="M793.458 9.33301C794.525 9.33301 795.458 8.39967 795.458 7.33301C795.458 6.26636 794.525 5.33301 793.458 5.33301C792.391 5.33308 791.458 6.2664 791.458 7.33301C791.458 8.39963 792.391 9.33294 793.458 9.33301Z" fill="black"/>
<path d="M849.458 9.33301C850.525 9.33301 851.458 8.39967 851.458 7.33301C851.458 6.26636 850.525 5.33301 849.458 5.33301C848.391 5.33308 847.458 6.2664 847.458 7.33301C847.458 8.39963 848.391 9.33294 849.458 9.33301Z" fill="black"/>
<path d="M45.333 7.33301C45.333 8.53296 45.9998 9.33298 46.7998 9.06641C47.5998 8.79974 48.2666 7.99967 48.2666 7.33301C48.2665 6.66636 47.5998 5.86626 46.7998 5.59961C45.9999 5.3331 45.333 6.13313 45.333 7.33301Z" fill="black"/>
<path d="M101.333 7.33301C101.333 8.53296 102 9.33298 102.8 9.06641C103.6 8.79974 104.267 7.99967 104.267 7.33301C104.267 6.66636 103.6 5.86626 102.8 5.59961C102 5.3331 101.333 6.13313 101.333 7.33301Z" fill="black"/>
<path d="M157.333 7.33301C157.333 8.53296 158 9.33298 158.8 9.06641C159.6 8.79974 160.267 7.99967 160.267 7.33301C160.267 6.66636 159.6 5.86626 158.8 5.59961C158 5.3331 157.333 6.13313 157.333 7.33301Z" fill="black"/>
<path d="M213.333 7.33301C213.333 8.53296 214 9.33298 214.8 9.06641C215.6 8.79974 216.267 7.99967 216.267 7.33301C216.267 6.66636 215.6 5.86626 214.8 5.59961C214 5.3331 213.333 6.13313 213.333 7.33301Z" fill="black"/>
<path d="M269.598 7.33301C269.598 8.53285 270.264 9.33276 271.063 9.06641C271.863 8.79974 272.53 7.99967 272.53 7.33301C272.53 6.66636 271.863 5.86626 271.063 5.59961C270.264 5.33332 269.598 6.13324 269.598 7.33301Z" fill="black"/>
<path d="M325.598 7.33301C325.598 8.53285 326.264 9.33276 327.063 9.06641C327.863 8.79974 328.53 7.99967 328.53 7.33301C328.53 6.66636 327.863 5.86626 327.063 5.59961C326.264 5.33332 325.598 6.13324 325.598 7.33301Z" fill="black"/>
<path d="M381.598 7.33301C381.598 8.53285 382.264 9.33276 383.063 9.06641C383.863 8.79974 384.53 7.99967 384.53 7.33301C384.53 6.66636 383.863 5.86626 383.063 5.59961C382.264 5.33332 381.598 6.13324 381.598 7.33301Z" fill="black"/>
<path d="M437.598 7.33301C437.598 8.53285 438.264 9.33276 439.063 9.06641C439.863 8.79974 440.53 7.99967 440.53 7.33301C440.53 6.66636 439.863 5.86626 439.063 5.59961C438.264 5.33332 437.598 6.13324 437.598 7.33301Z" fill="black"/>
<path d="M493.861 7.33301C493.861 8.5328 494.527 9.33265 495.327 9.06641C496.127 8.79974 496.794 7.99967 496.794 7.33301C496.794 6.66636 496.127 5.86626 495.327 5.59961C494.527 5.33343 493.861 6.1333 493.861 7.33301Z" fill="black"/>
<path d="M549.861 7.33301C549.861 8.5328 550.527 9.33265 551.327 9.06641C552.127 8.79974 552.794 7.99967 552.794 7.33301C552.794 6.66636 552.127 5.86626 551.327 5.59961C550.527 5.33343 549.861 6.1333 549.861 7.33301Z" fill="black"/>
<path d="M605.861 7.33301C605.861 8.5328 606.527 9.33265 607.327 9.06641C608.127 8.79974 608.794 7.99967 608.794 7.33301C608.794 6.66636 608.127 5.86626 607.327 5.59961C606.527 5.33343 605.861 6.1333 605.861 7.33301Z" fill="black"/>
<path d="M661.861 7.33301C661.861 8.5328 662.527 9.33265 663.327 9.06641C664.127 8.79974 664.794 7.99967 664.794 7.33301C664.794 6.66636 664.127 5.86626 663.327 5.59961C662.527 5.33343 661.861 6.1333 661.861 7.33301Z" fill="black"/>
<path d="M718.125 7.33301C718.125 8.53301 718.792 9.33307 719.592 9.06641C720.392 8.79962 721.058 7.99958 721.058 7.33301C721.058 6.66644 720.392 5.86636 719.592 5.59961C718.792 5.33295 718.125 6.13306 718.125 7.33301Z" fill="black"/>
<path d="M774.125 7.33301C774.125 8.53301 774.792 9.33307 775.592 9.06641C776.392 8.79962 777.058 7.99958 777.058 7.33301C777.058 6.66644 776.392 5.86636 775.592 5.59961C774.792 5.33295 774.125 6.13306 774.125 7.33301Z" fill="black"/>
<path d="M830.125 7.33301C830.125 8.53301 830.792 9.33307 831.592 9.06641C832.392 8.79962 833.058 7.99958 833.058 7.33301C833.058 6.66644 832.392 5.86636 831.592 5.59961C830.792 5.33295 830.125 6.13306 830.125 7.33301Z" fill="black"/>
<path d="M886.125 7.33301C886.125 8.53301 886.792 9.33307 887.592 9.06641C888.392 8.79962 889.058 7.99958 889.058 7.33301C889.058 6.66644 888.392 5.86636 887.592 5.59961C886.792 5.33295 886.125 6.13306 886.125 7.33301Z" fill="black"/>
</svg>
