<svg width="968" height="88" viewBox="0 0 968 88" fill="none" xmlns="http://www.w3.org/2000/svg">
<path d="M912.355 15.1248V60.4996H942.886V39.7219H934.676V37.5829H945.989V63.7079H908.034V15.1248H852.389V60.4996H882.92V39.7219H874.71V37.5829H886.022V63.7079H848.182V15.1248H792.537V60.4996H823.068V39.7219H814.858V37.5829H826.171V63.7079H788.216V15.1248H732.571V60.4996H763.101V39.7219H754.891V37.5829H766.204V63.7079H728.307V15.1248H672.662V60.4996H703.193V39.7219H694.982V37.5829H706.295V63.7079H668.34V15.1248H612.695V60.4996H643.226V39.7219H635.015V37.5829H646.328V63.7079H608.488V15.1248H552.843V60.4996H583.374V39.7219H575.164V37.5829H586.477V63.7079H548.522V15.1248H492.877V60.4996H523.408V39.7219H515.197V37.5829H526.51V63.7079H488.577V15.1248H432.932V60.4996H463.463V39.7219H455.253V37.5829H466.565V63.7079H428.61V15.1248H372.966V60.4996H403.497V39.7219H395.286V37.5829H406.599V63.7079H368.759V15.1248H313.114V60.4996H343.645V39.7219H335.434V37.5829H346.747V63.7079H308.792V15.1248H253.148V60.4996H283.678V39.7219H275.468V37.5829H286.781V63.7079H248.883V15.1248H193.239V60.4996H223.769V39.7219H215.558V37.5829H226.871V63.7079H188.916V15.1248H133.272V60.4996H163.802V39.7219H155.592V37.5829H166.905V63.7079H129.064V15.1248H73.4199V60.4996H103.951V39.7219H95.7402V37.5829H107.053V63.7079H69.0981V15.1248H13.4537V60.4996H43.984V39.7219H35.7739V37.5829H47.0867V63.7079H0V72.8747H56.2595V28.4166H26.6011V48.8887H34.8112V51.3328H22.6265V24.2911H59.9253V71.3473H59.9667V72.8747H116.226V28.4166H86.5673V48.8887H94.7779V51.3328H82.5927V24.2911H119.892V63.7079H119.819V72.8747H176.078V28.4166H146.419V48.8887H154.63V51.3328H142.444V24.2911H179.744V71.3473H179.785V72.8747H236.044V28.4166H206.386V48.8887H214.596V51.3328H202.411V24.2911H239.71V63.7079H239.694V72.8747H295.953V28.4166H266.295V48.8887H274.505V51.3328H262.32V24.2911H299.619V71.3473H299.661V72.8747H355.92V28.4166H326.261V48.8887H334.472V51.3328H322.287V24.2911H359.585V63.7079H359.513V72.8747H415.772V28.4166H386.113V48.8887H394.324V51.3328H382.139V24.2911H419.438V71.3473H419.479V72.8747H475.738V28.4166H446.08V48.8887H454.29V51.3328H442.105V24.2911H479.404V71.3473H479.424V72.8747H535.683V28.4166H506.024V48.8887H514.235V51.3328H502.05V24.2911H539.349V71.3473H539.39V72.8747H595.649V28.4166H565.991V48.8887H574.201V51.3328H562.016V24.2911H599.316V63.7079H599.242V72.8747H655.501V28.4166H625.842V48.8887H634.053V51.3328H621.868V24.2911H659.167V71.3473H659.208V72.8747H715.468V28.4166H685.809V48.8887H694.02V51.3328H681.835V24.2911H719.134V63.7079H719.117V72.8747H775.377V28.4166H745.718V48.8887H753.929V51.3328H741.743V24.2911H779.043V71.3473H779.084V72.8747H835.344V28.4166H805.685V48.8887H813.895V51.3328H801.71V24.2911H839.009V63.7079H838.936V72.8747H895.195V28.4166H865.537V48.8887H873.747V51.3328H861.562V24.2911H898.861V71.3473H898.902V72.8747H955.162V28.4166H925.503V48.8887H933.714V51.3328H921.528V24.2911H958.827V72.8174H968V15.1248H912.355Z" fill="#16181A"/>
<path d="M967.795 78.8332H0V88H967.795V78.8332Z" fill="#16181A"/>
<path d="M967.795 0H0V9.16675H967.795V0Z" fill="#16181A"/>
</svg>
