<?xml version="1.0" encoding="UTF-8"?>
<svg version="1.1" xmlns="http://www.w3.org/2000/svg" width="500" height="500">
<path d="M0 0 C3.26094285 2.06901202 5.81308115 4.69616366 8.515625 7.4375 C9.06992187 7.9840625 9.62421875 8.530625 10.1953125 9.09375 C14.265625 13.1841133 14.265625 13.1841133 14.265625 15.4375 C14.8225 15.64375 15.379375 15.85 15.953125 16.0625 C18.55654365 17.61047866 20.05958689 19.51484507 21.921875 21.87109375 C23.63395843 23.86686543 25.64527718 25.41629965 27.69297791 27.05413818 C29.4153614 28.56921398 30.827978 30.18962317 32.30297852 31.94628906 C36.41698 36.7019473 40.85221135 41.09360335 45.33955193 45.49489594 C46.82654163 46.95483719 48.30877038 48.41946019 49.78968811 49.88555908 C53.99394183 54.04742904 58.20121808 58.2061155 62.42407227 62.34912109 C65.02131433 64.89792136 67.60875393 67.45631892 70.19000435 70.0213089 C71.17160024 70.99301002 72.15684033 71.96104421 73.1457653 72.92528534 C74.52155549 74.26742694 75.88404597 75.62316127 77.24584961 76.97949219 C78.02415634 77.74590027 78.80246307 78.51230835 79.60435486 79.30194092 C81.265625 81.4375 81.265625 81.4375 81.265625 85.4375 C79.76171875 87.1484375 79.76171875 87.1484375 77.703125 88.8125 C76.97996094 89.40933594 76.25679687 90.00617188 75.51171875 90.62109375 C74.77050781 91.22050781 74.02929688 91.81992188 73.265625 92.4375 C71.92888182 93.57935352 70.59523417 94.72484728 69.265625 95.875 C68.275625 96.720625 67.285625 97.56625 66.265625 98.4375 C64.945625 97.7775 63.625625 97.1175 62.265625 96.4375 C62.265625 95.7775 62.265625 95.1175 62.265625 94.4375 C61.605625 94.4375 60.945625 94.4375 60.265625 94.4375 C60.265625 93.7775 60.265625 93.1175 60.265625 92.4375 C59.605625 92.4375 58.945625 92.4375 58.265625 92.4375 C56.90385578 90.79398543 55.57600434 89.12227344 54.265625 87.4375 C52.61390512 85.7560194 50.94382528 84.09255269 49.265625 82.4375 C48.06686265 81.24042962 46.86900743 80.04245039 45.671875 78.84375 C45.03378906 78.20566406 44.39570313 77.56757812 43.73828125 76.91015625 C41.77864583 74.95052083 39.81901042 72.99088542 37.859375 71.03125 C37.24408936 70.41612549 36.62880371 69.80100098 35.99487305 69.16723633 C34.47588116 67.64781553 32.95851281 66.12677201 31.44140625 64.60546875 C29.9646328 63.1339979 28.46761326 61.68262403 26.953125 60.25 C25.265625 58.4375 25.265625 58.4375 25.265625 56.4375 C24.67910156 56.1796875 24.09257812 55.921875 23.48828125 55.65625 C21.09225377 54.34243528 19.57650948 52.9156599 17.703125 50.9375 C15.59038277 48.71653267 13.84948874 47.16007583 11.265625 45.4375 C11.18967687 52.64568345 11.13706822 59.85376405 11.10083008 67.06225586 C11.08572619 69.51542008 11.06524179 71.96855724 11.03930664 74.42163086 C11.00299443 77.94391555 10.98591464 81.46584381 10.97265625 84.98828125 C10.95717239 86.08836014 10.94168854 87.18843903 10.92573547 88.32185364 C10.92550888 89.34268539 10.92528229 90.36351715 10.92504883 91.4152832 C10.91838699 92.31463089 10.91172516 93.21397858 10.90486145 94.14057922 C11.33803707 96.89853545 12.22466857 97.6278726 14.265625 99.4375 C14.265625 100.0975 14.265625 100.7575 14.265625 101.4375 C15.255625 101.7675 16.245625 102.0975 17.265625 102.4375 C17.265625 103.0975 17.265625 103.7575 17.265625 104.4375 C17.925625 104.4375 18.585625 104.4375 19.265625 104.4375 C19.265625 105.0975 19.265625 105.7575 19.265625 106.4375 C19.925625 106.4375 20.585625 106.4375 21.265625 106.4375 C21.265625 107.0975 21.265625 107.7575 21.265625 108.4375 C21.925625 108.4375 22.585625 108.4375 23.265625 108.4375 C24.69898987 109.89086914 24.69898987 109.89086914 26.36938477 111.91015625 C30.2391612 116.45811904 34.36980214 120.66930307 38.60546875 124.875 C39.37242569 125.64054199 40.13938263 126.40608398 40.92958069 127.19482422 C43.35173381 129.61143197 45.77736112 132.02451726 48.203125 134.4375 C49.85765393 136.08700686 51.51195302 137.73674429 53.16601562 139.38671875 C57.19656702 143.40631371 61.22996772 147.42303169 65.265625 151.4375 C63.9171557 154.23680543 62.67756913 156.26176385 60.4375 158.42578125 C59.88779541 158.96396484 59.33809082 159.50214844 58.77172852 160.05664062 C58.19221436 160.61544922 57.6127002 161.17425781 57.015625 161.75 C51.72887748 166.91246433 51.72887748 166.91246433 46.828125 172.4375 C44.15030202 175.57251227 41.46384927 177.85170165 38.265625 180.4375 C34.96183053 183.58397092 32.08958732 186.86048106 29.265625 190.4375 C27.640625 192.25 27.640625 192.25 26.265625 193.4375 C25.605625 193.4375 24.945625 193.4375 24.265625 193.4375 C23.94271484 194.29794922 23.94271484 194.29794922 23.61328125 195.17578125 C22.265625 197.4375 22.265625 197.4375 19.69921875 199.35546875 C15.12070885 202.82367508 11.85553661 205.57949623 10.65527344 211.39453125 C9.91467259 218.74440084 10.10960881 226.06292338 10.265625 233.4375 C24.91375572 235.58141903 41.56472709 237.37826799 54.08719826 228.11764145 C63.32769431 220.5333 71.32278655 211.56276911 79.24102783 202.64257812 C83.43895458 197.95592653 87.76761658 193.39014798 92.08096218 188.80998421 C95.42460032 185.25618139 98.7442118 181.68769586 102.00367737 178.05636597 C102.59989899 177.4006662 103.19612061 176.74496643 103.81040955 176.06939697 C104.92356192 174.84382991 106.02657272 173.60894645 107.11743164 172.36349487 C108.60389709 170.74020386 108.60389709 170.74020386 111.265625 168.4375 C113.56199646 168.45730591 113.56199646 168.45730591 115.265625 169.4375 C115.9493295 170.76217746 116.61526686 172.09613633 117.265625 173.4375 C118.58970169 174.12236725 119.92471741 174.78620203 121.265625 175.4375 C126.93501681 180.4476602 126.93501681 180.4476602 127.265625 184.4375 C126.11328125 186.33203125 126.11328125 186.33203125 124.328125 188.25 C123.68359375 188.94351563 123.0390625 189.63703125 122.375 190.3515625 C119.70536671 192.9915332 116.89894259 195.42973768 114.03515625 197.85546875 C112.11496243 199.48422941 112.11496243 199.48422941 110.265625 201.9375 C108.44100845 204.21827069 106.67039822 205.87188903 104.453125 207.75 C100.79585405 210.85355329 97.73991186 214.22133913 94.7109375 217.93359375 C94.23398437 218.42988281 93.75703125 218.92617187 93.265625 219.4375 C92.605625 219.4375 91.945625 219.4375 91.265625 219.4375 C91.265625 220.0975 91.265625 220.7575 91.265625 221.4375 C89.28302074 223.12482277 87.2823908 224.79116057 85.265625 226.4375 C84.935625 227.0975 84.605625 227.7575 84.265625 228.4375 C83.605625 228.4375 82.945625 228.4375 82.265625 228.4375 C87.00146977 234.05151466 92.032892 239.24175407 97.32421875 244.3359375 C99.265625 246.4375 99.265625 246.4375 99.265625 248.4375 C99.81976074 248.66493896 100.37389648 248.89237793 100.94482422 249.12670898 C103.93962205 250.81817433 105.98928736 252.95532362 108.3984375 255.41015625 C108.87634735 255.89326767 109.3542572 256.37637909 109.84664917 256.87413025 C111.36616114 258.41139041 112.8787889 259.95519326 114.390625 261.5 C115.91047059 263.04747477 117.43175919 264.59345926 118.95602417 266.13658142 C120.33481242 267.53320801 121.70878565 268.93458323 123.08251953 270.33618164 C125.08242952 272.47009545 125.08242952 272.47009545 127.265625 273.4375 C126.91185392 278.72441229 124.09715181 281.27361042 120.515625 284.8125 C119.9896875 285.37066406 119.46375 285.92882812 118.921875 286.50390625 C115.01195977 290.42349949 115.01195977 290.42349949 111.55859375 290.48828125 C109.04165332 289.33486221 108.00601674 288.42986489 106.328125 286.25 C102.20286968 281.19472061 97.57278001 276.7173136 92.88891602 272.18676758 C92.29264404 271.6017749 91.69637207 271.01678223 91.08203125 270.4140625 C90.54006104 269.88893066 89.99809082 269.36379883 89.43969727 268.82275391 C88.265625 267.4375 88.265625 267.4375 88.265625 265.4375 C87.6675 265.169375 87.069375 264.90125 86.453125 264.625 C84.26714646 263.43832594 82.85229906 262.34150887 81.265625 260.4375 C81.265625 259.7775 81.265625 259.1175 81.265625 258.4375 C80.605625 258.4375 79.945625 258.4375 79.265625 258.4375 C79.265625 257.7775 79.265625 257.1175 79.265625 256.4375 C78.40710938 256.07011719 78.40710938 256.07011719 77.53125 255.6953125 C74.88538098 254.22639901 73.11709361 252.48401756 71.015625 250.3125 C70.30921875 249.58804688 69.6028125 248.86359375 68.875 248.1171875 C68.07835937 247.28574219 68.07835937 247.28574219 67.265625 246.4375 C64.32798551 247.7508723 62.37845153 249.13904561 60.203125 251.5 C57.75734498 254.15337939 55.97804105 255.33611735 52.23445129 255.55775452 C51.45945786 255.55553391 50.68446442 255.55331329 49.88598633 255.55102539 C49.00529984 255.55094986 48.12461334 255.55087433 47.21723938 255.55079651 C46.27027695 255.54563522 45.32331451 255.54047394 44.34765625 255.53515625 C43.37527512 255.5337413 42.40289398 255.53232635 41.40104675 255.53086853 C38.29337496 255.52526817 35.18577504 255.51271562 32.078125 255.5 C29.97200625 255.49498505 27.86588637 255.49042213 25.75976562 255.48632812 C20.59500207 255.47614925 15.43039406 255.45657383 10.265625 255.4375 C10.265625 266.6575 10.265625 277.8775 10.265625 289.4375 C26.105625 289.4375 41.945625 289.4375 58.265625 289.4375 C57.20928984 293.66284064 55.84132095 295.73859265 53.328125 299.25 C52.51569083 300.39756327 51.7045461 301.54604025 50.89453125 302.6953125 C50.4680127 303.29891602 50.04149414 303.90251953 49.60205078 304.52441406 C47.2734038 307.85785903 45.01910413 311.2404753 42.765625 314.625 C42.11605835 315.59626831 42.11605835 315.59626831 41.45336914 316.5871582 C39.21595184 319.92721892 39.21595184 319.92721892 37.265625 323.4375 C36.605625 323.4375 35.945625 323.4375 35.265625 323.4375 C35.018125 324.118125 34.770625 324.79875 34.515625 325.5 C33.02364592 329.00615083 31.19726989 332.15370368 29.265625 335.4375 C28.605625 335.4375 27.945625 335.4375 27.265625 335.4375 C27.01425781 336.14132812 26.76289063 336.84515625 26.50390625 337.5703125 C25.12326883 340.76711965 23.40913374 343.43271658 21.453125 346.3125 C20.39351563 347.88644531 20.39351563 347.88644531 19.3125 349.4921875 C17.66521453 351.86251813 15.96390813 354.15243875 14.203125 356.4375 C12.0326411 359.12073698 12.0326411 359.12073698 12.44702148 361.39990234 C13.41789764 363.816524 14.60728951 365.17847954 16.42578125 367.0390625 C17.05419922 367.69390625 17.68261719 368.34875 18.33007812 369.0234375 C18.98943359 369.69632812 19.64878906 370.36921875 20.328125 371.0625 C21.63590049 372.4045903 22.93952153 373.75074561 24.23828125 375.1015625 C24.81843994 375.69404785 25.39859863 376.2865332 25.99633789 376.89697266 C27.265625 378.4375 27.265625 378.4375 27.265625 380.4375 C27.925625 380.4375 28.585625 380.4375 29.265625 380.4375 C29.265625 381.0975 29.265625 381.7575 29.265625 382.4375 C29.925625 382.4375 30.585625 382.4375 31.265625 382.4375 C32.88671875 384.08203125 32.88671875 384.08203125 34.703125 386.25 C37.2325277 389.25723055 37.2325277 389.25723055 39.98828125 392.05078125 C41.265625 393.4375 41.265625 393.4375 41.265625 395.8125 C39.95424616 399.25486946 38.04492718 401.06492497 35.265625 403.4375 C34.605625 403.4375 33.945625 403.4375 33.265625 403.4375 C33.02972656 403.99308594 32.79382813 404.54867188 32.55078125 405.12109375 C30.9528498 408.00125591 28.96062 410.10119076 26.703125 412.5 C23.28953859 416.17000604 20.02607317 419.89748885 16.890625 423.8125 C11.65625993 430.30611986 5.97359587 436.36251916 0.265625 442.4375 C-3.62690312 440.88048875 -5.79580477 438.42315894 -8.546875 435.3125 C-8.98700928 434.8182251 -9.42714355 434.3239502 -9.88061523 433.81469727 C-11.17178504 432.36145396 -12.4532735 430.89962671 -13.734375 429.4375 C-14.67023438 428.37208984 -14.67023438 428.37208984 -15.625 427.28515625 C-16.7378906 426.01365274 -17.84857779 424.74021726 -18.95703125 423.46484375 C-21.02796987 421.10260827 -23.12950348 418.76954147 -25.234375 416.4375 C-29.11073551 412.14065292 -32.93481087 407.80221669 -36.734375 403.4375 C-38.04650995 401.93718066 -39.35900251 400.43717399 -40.671875 398.9375 C-41.69270833 397.77083333 -42.71354167 396.60416667 -43.734375 395.4375 C-43.35925781 395.00179688 -42.98414063 394.56609375 -42.59765625 394.1171875 C-42.08589844 393.52164062 -41.57414062 392.92609375 -41.046875 392.3125 C-40.22896484 391.36310547 -40.22896484 391.36310547 -39.39453125 390.39453125 C-37.8901217 388.62109787 -36.43645146 386.81617921 -34.984375 385 C-34.241875 384.154375 -33.499375 383.30875 -32.734375 382.4375 C-32.074375 382.4375 -31.414375 382.4375 -30.734375 382.4375 C-30.734375 381.7775 -30.734375 381.1175 -30.734375 380.4375 C-30.074375 380.4375 -29.414375 380.4375 -28.734375 380.4375 C-28.4765625 379.85097656 -28.21875 379.26445312 -27.953125 378.66015625 C-26.63931028 376.26412877 -25.2125349 374.74838448 -23.234375 372.875 C-21.01340767 370.76225777 -19.45695083 369.02136374 -17.734375 366.4375 C-17.074375 366.4375 -16.414375 366.4375 -15.734375 366.4375 C-14.32858008 363.81223259 -14.32858008 363.81223259 -13.734375 360.4375 C-14.89245136 357.73532182 -16.05557417 355.81724344 -17.734375 353.4375 C-18.67023438 352.06464844 -18.67023438 352.06464844 -19.625 350.6640625 C-21.54794548 347.86264912 -23.48930133 345.07561237 -25.43847656 342.29248047 C-27.69734469 339.05908182 -29.93577875 335.8116735 -32.171875 332.5625 C-32.63247314 331.893396 -33.09307129 331.22429199 -33.56762695 330.53491211 C-37.17400977 325.2825618 -40.71189961 319.98674152 -44.23486328 314.67822266 C-46.63353494 311.07008809 -49.06349644 307.48824861 -51.546875 303.9375 C-52.36091797 302.77347656 -52.36091797 302.77347656 -53.19140625 301.5859375 C-54.20403528 300.17594771 -55.24264638 298.7841884 -56.30859375 297.4140625 C-57.734375 295.5625 -57.734375 295.5625 -59.734375 292.4375 C-59.404375 291.1175 -59.074375 289.7975 -58.734375 288.4375 C-43.554375 288.7675 -28.374375 289.0975 -12.734375 289.4375 C-12.734375 278.5475 -12.734375 267.6575 -12.734375 256.4375 C-15.85261719 256.42332031 -18.97085938 256.40914063 -22.18359375 256.39453125 C-25.20868715 256.36390417 -28.23356137 256.32481705 -31.25854492 256.28491211 C-33.35840078 256.26173704 -35.4583728 256.24733756 -37.55834961 256.24194336 C-40.58000025 256.23265037 -43.59982517 256.19165154 -46.62109375 256.14453125 C-47.55773361 256.1484639 -48.49437347 256.15239655 -49.45939636 256.15644836 C-54.01870759 256.05473867 -56.09142994 255.93112513 -59.80395508 253.08081055 C-61.734375 250.4375 -61.734375 250.4375 -62.734375 247.4375 C-63.394375 247.4375 -64.054375 247.4375 -64.734375 247.4375 C-64.734375 246.7775 -64.734375 246.1175 -64.734375 245.4375 C-67.66316871 246.06509865 -70.09533129 247.02372659 -72.734375 248.4375 C-72.734375 249.0975 -72.734375 249.7575 -72.734375 250.4375 C-73.394375 250.4375 -74.054375 250.4375 -74.734375 250.4375 C-74.734375 251.0975 -74.734375 251.7575 -74.734375 252.4375 C-75.394375 252.4375 -76.054375 252.4375 -76.734375 252.4375 C-76.734375 253.0975 -76.734375 253.7575 -76.734375 254.4375 C-77.394375 254.4375 -78.054375 254.4375 -78.734375 254.4375 C-79.394375 255.7575 -80.054375 257.0775 -80.734375 258.4375 C-81.394375 258.4375 -82.054375 258.4375 -82.734375 258.4375 C-82.734375 259.0975 -82.734375 259.7575 -82.734375 260.4375 C-83.394375 260.4375 -84.054375 260.4375 -84.734375 260.4375 C-85.0025 261.076875 -85.270625 261.71625 -85.546875 262.375 C-86.734375 264.4375 -86.734375 264.4375 -89.734375 265.4375 C-89.734375 266.0975 -89.734375 266.7575 -89.734375 267.4375 C-90.394375 267.4375 -91.054375 267.4375 -91.734375 267.4375 C-91.9715625 267.99953125 -92.20875 268.5615625 -92.453125 269.140625 C-94.02385197 271.95644042 -95.94908964 273.91705416 -98.234375 276.1875 C-99.0284375 276.98671875 -99.8225 277.7859375 -100.640625 278.609375 C-102.734375 280.4375 -102.734375 280.4375 -104.734375 280.4375 C-104.87166016 281.32695313 -104.87166016 281.32695313 -105.01171875 282.234375 C-105.90669613 284.96284657 -107.07343801 285.90875041 -109.296875 287.6875 C-109.93753906 288.20828125 -110.57820313 288.7290625 -111.23828125 289.265625 C-111.73199219 289.65234375 -112.22570312 290.0390625 -112.734375 290.4375 C-115.171875 289.625 -115.171875 289.625 -117.734375 288.4375 C-118.229375 286.9525 -118.229375 286.9525 -118.734375 285.4375 C-120.0497091 284.73598848 -121.38555092 284.07224075 -122.734375 283.4375 C-124.484375 281.9375 -124.484375 281.9375 -125.734375 280.4375 C-125.734375 279.7775 -125.734375 279.1175 -125.734375 278.4375 C-126.724375 278.1075 -127.714375 277.7775 -128.734375 277.4375 C-128.2335331 273.19055876 -125.84192622 271.1720478 -122.89453125 268.234375 C-122.41237656 267.7517218 -121.93022186 267.2690686 -121.43345642 266.77178955 C-120.41568946 265.75635779 -119.39424063 264.74460473 -118.36938477 263.73632812 C-116.79715361 262.18777441 -115.23875172 260.62624128 -113.68164062 259.0625 C-106.01349808 251.4375 -106.01349808 251.4375 -103.734375 251.4375 C-103.46625 250.798125 -103.198125 250.15875 -102.921875 249.5 C-101.734375 247.4375 -101.734375 247.4375 -98.734375 246.4375 C-98.02991222 245.12374416 -97.36681531 243.78740425 -96.734375 242.4375 C-95.31396484 240.79003906 -95.31396484 240.79003906 -93.6953125 239.203125 C-92.82519531 238.34267578 -92.82519531 238.34267578 -91.9375 237.46484375 C-91.03257812 236.58505859 -91.03257812 236.58505859 -90.109375 235.6875 C-89.49835938 235.08550781 -88.88734375 234.48351562 -88.2578125 233.86328125 C-86.75448876 232.38344695 -85.24502644 230.90985324 -83.734375 229.4375 C-84.559375 228.65375 -85.384375 227.87 -86.234375 227.0625 C-88.734375 224.4375 -88.734375 224.4375 -88.734375 222.4375 C-89.29125 222.210625 -89.848125 221.98375 -90.421875 221.75 C-93.39597088 220.06199964 -95.45446365 217.97073483 -97.734375 215.4375 C-97.734375 214.7775 -97.734375 214.1175 -97.734375 213.4375 C-98.394375 213.4375 -99.054375 213.4375 -99.734375 213.4375 C-99.734375 212.7775 -99.734375 212.1175 -99.734375 211.4375 C-100.57742187 211.08171875 -100.57742187 211.08171875 -101.4375 210.71875 C-104.25331542 209.14802303 -106.21392916 207.22278536 -108.484375 204.9375 C-109.28359375 204.1434375 -110.0828125 203.349375 -110.90625 202.53125 C-112.734375 200.4375 -112.734375 200.4375 -112.734375 198.4375 C-113.394375 198.4375 -114.054375 198.4375 -114.734375 198.4375 C-114.734375 197.7775 -114.734375 197.1175 -114.734375 196.4375 C-115.394375 196.4375 -116.054375 196.4375 -116.734375 196.4375 C-116.734375 195.7775 -116.734375 195.1175 -116.734375 194.4375 C-117.30671875 194.19257813 -117.8790625 193.94765625 -118.46875 193.6953125 C-121.11461902 192.22639901 -122.88290639 190.48401756 -124.984375 188.3125 C-125.69078125 187.58804688 -126.3971875 186.86359375 -127.125 186.1171875 C-127.92164062 185.28574219 -127.92164062 185.28574219 -128.734375 184.4375 C-128.074375 182.7875 -127.414375 181.1375 -126.734375 179.4375 C-126.074375 179.4375 -125.414375 179.4375 -124.734375 179.4375 C-124.734375 178.7775 -124.734375 178.1175 -124.734375 177.4375 C-124.074375 177.4375 -123.414375 177.4375 -122.734375 177.4375 C-122.734375 176.7775 -122.734375 176.1175 -122.734375 175.4375 C-122.074375 175.4375 -121.414375 175.4375 -120.734375 175.4375 C-120.734375 174.7775 -120.734375 174.1175 -120.734375 173.4375 C-120.074375 173.4375 -119.414375 173.4375 -118.734375 173.4375 C-118.5075 172.798125 -118.280625 172.15875 -118.046875 171.5 C-116.734375 169.4375 -116.734375 169.4375 -114.421875 168.52734375 C-111.734375 168.4375 -111.734375 168.4375 -109.55859375 170.28125 C-108.50091797 171.59609375 -108.50091797 171.59609375 -107.421875 172.9375 C-103.93484756 177.10321064 -100.38260233 180.64478544 -96.16796875 184.0625 C-95.69488281 184.51625 -95.22179687 184.97 -94.734375 185.4375 C-94.734375 186.0975 -94.734375 186.7575 -94.734375 187.4375 C-93.744375 187.7675 -92.754375 188.0975 -91.734375 188.4375 C-91.734375 189.0975 -91.734375 189.7575 -91.734375 190.4375 C-91.074375 190.4375 -90.414375 190.4375 -89.734375 190.4375 C-89.734375 191.0975 -89.734375 191.7575 -89.734375 192.4375 C-89.074375 192.4375 -88.414375 192.4375 -87.734375 192.4375 C-86.078125 194.15234375 -86.078125 194.15234375 -84.234375 196.375 C-81.84510501 199.35795179 -81.84510501 199.35795179 -78.734375 201.4375 C-78.734375 202.0975 -78.734375 202.7575 -78.734375 203.4375 C-78.074375 203.4375 -77.414375 203.4375 -76.734375 203.4375 C-76.734375 204.0975 -76.734375 204.7575 -76.734375 205.4375 C-76.074375 205.4375 -75.414375 205.4375 -74.734375 205.4375 C-74.734375 206.0975 -74.734375 206.7575 -74.734375 207.4375 C-74.15558594 207.68886719 -73.57679688 207.94023437 -72.98046875 208.19921875 C-70.45153823 209.59342914 -68.8000704 211.17540358 -66.796875 213.25 C-66.09691406 213.96671875 -65.39695313 214.6834375 -64.67578125 215.421875 C-64.03511719 216.08703125 -63.39445312 216.7521875 -62.734375 217.4375 C-59.17373805 221.08715287 -55.46500649 224.46680132 -51.6015625 227.7890625 C-49.734375 229.4375 -49.734375 229.4375 -48.60083008 231.0222168 C-45.67353923 233.24190352 -42.52626373 232.80536278 -39.00390625 232.73046875 C-38.25348557 232.72622391 -37.50306488 232.72197906 -36.72990417 232.71760559 C-34.33519474 232.7008245 -31.94132966 232.6631749 -29.546875 232.625 C-27.9225382 232.60995235 -26.2981882 232.59626409 -24.67382812 232.58398438 C-20.69368552 232.55092305 -16.71417337 232.49914594 -12.734375 232.4375 C-12.70538684 228.50001542 -12.68758036 224.56255821 -12.671875 220.625 C-12.65930664 218.94567383 -12.65930664 218.94567383 -12.64648438 217.23242188 C-12.64165039 215.62270508 -12.64165039 215.62270508 -12.63671875 213.98046875 C-12.62886353 212.4958313 -12.62886353 212.4958313 -12.62084961 210.98120117 C-12.62367541 208.31357266 -12.62367541 208.31357266 -13.734375 205.4375 C-15.0497091 204.73598848 -16.38555092 204.07224075 -17.734375 203.4375 C-19.484375 201.9375 -19.484375 201.9375 -20.734375 200.4375 C-20.734375 199.7775 -20.734375 199.1175 -20.734375 198.4375 C-21.394375 198.4375 -22.054375 198.4375 -22.734375 198.4375 C-22.734375 197.7775 -22.734375 197.1175 -22.734375 196.4375 C-23.394375 196.4375 -24.054375 196.4375 -24.734375 196.4375 C-26.359375 195.0625 -26.359375 195.0625 -27.734375 193.4375 C-27.734375 192.7775 -27.734375 192.1175 -27.734375 191.4375 C-28.394375 191.4375 -29.054375 191.4375 -29.734375 191.4375 C-29.734375 190.7775 -29.734375 190.1175 -29.734375 189.4375 C-30.394375 189.4375 -31.054375 189.4375 -31.734375 189.4375 C-33.28515625 187.828125 -33.28515625 187.828125 -35.046875 185.6875 C-37.03995914 183.33689355 -38.82085448 181.36831642 -41.234375 179.4375 C-43.45030806 177.66475355 -45.04122297 175.9938812 -46.86328125 173.84375 C-50.7675274 169.33281112 -54.92991912 165.12900261 -59.171875 160.9375 C-59.90341797 160.21046875 -60.63496094 159.4834375 -61.38867188 158.734375 C-63.16827324 156.96640501 -64.95018418 155.20083622 -66.734375 153.4375 C-65.19980668 149.59392645 -62.88238078 147.6146739 -59.73388672 144.98754883 C-58.68158814 144.09557298 -57.63046014 143.20221482 -56.58033752 142.30767822 C-56.02371492 141.83527962 -55.46709232 141.36288101 -54.89360237 140.8761673 C-24.59855604 116.80708271 -24.59855604 116.80708271 -9.32421875 83.265625 C-8.77273092 73.00121622 -9.97657571 62.73109819 -12.02270508 52.67797852 C-12.68623612 49.3177267 -12.79287916 46.76853739 -11.734375 43.4375 C-12.394375 43.4375 -13.054375 43.4375 -13.734375 43.4375 C-14.00636719 44.02273437 -14.27835937 44.60796875 -14.55859375 45.2109375 C-16.94036959 49.72127713 -20.0225176 53.5815713 -24.609375 55.875 C-25.310625 56.060625 -26.011875 56.24625 -26.734375 56.4375 C-26.734375 57.0975 -26.734375 57.7575 -26.734375 58.4375 C-27.394375 58.4375 -28.054375 58.4375 -28.734375 58.4375 C-28.96471436 58.99381104 -29.19505371 59.55012207 -29.43237305 60.12329102 C-31.08944341 63.06860696 -33.16214787 65.08922061 -35.56640625 67.46484375 C-36.04003098 67.93563858 -36.5136557 68.40643341 -37.00163269 68.89149475 C-38.51206255 70.3907789 -40.02928649 71.8829658 -41.546875 73.375 C-42.55580018 74.3738829 -43.56426845 75.37322751 -44.57226562 76.37304688 C-46.43835904 78.22287161 -48.30752388 80.06937321 -50.17895508 81.91381836 C-51.02224365 82.7466333 -51.86553223 83.57944824 -52.734375 84.4375 C-53.62600342 85.30705322 -54.51763184 86.17660645 -55.4362793 87.07250977 C-57.84828769 89.41116939 -57.84828769 89.41116939 -59.734375 92.4375 C-60.394375 92.4375 -61.054375 92.4375 -61.734375 92.4375 C-61.734375 93.0975 -61.734375 93.7575 -61.734375 94.4375 C-62.394375 94.4375 -63.054375 94.4375 -63.734375 94.4375 C-64.229375 95.9225 -64.229375 95.9225 -64.734375 97.4375 C-65.724375 97.7675 -66.714375 98.0975 -67.734375 98.4375 C-69.49609375 97.28515625 -69.49609375 97.28515625 -71.421875 95.5 C-72.11667969 94.860625 -72.81148437 94.22125 -73.52734375 93.5625 C-76.98103236 90.23717858 -80.38459044 86.86746558 -83.734375 83.4375 C-82.45375015 81.7300002 -81.11669943 80.06376404 -79.734375 78.4375 C-79.074375 78.4375 -78.414375 78.4375 -77.734375 78.4375 C-77.734375 77.7775 -77.734375 77.1175 -77.734375 76.4375 C-77.074375 76.4375 -76.414375 76.4375 -75.734375 76.4375 C-75.47120987 75.84869049 -75.20804474 75.25988098 -74.93690491 74.65322876 C-73.67919845 72.33583412 -72.36530575 70.83313666 -70.49389648 68.98583984 C-69.83659042 68.33191254 -69.17928436 67.67798523 -68.50205994 67.00424194 C-67.79368484 66.30932648 -67.08530975 65.61441101 -66.35546875 64.8984375 C-65.26456688 63.81533798 -65.26456688 63.81533798 -64.15162659 62.71035767 C-61.82973918 60.40627306 -59.50127361 58.10898868 -57.171875 55.8125 C-54.83978928 53.50800867 -52.50916555 51.20208608 -50.18141174 48.89321899 C-48.73291962 47.45700844 -47.28176324 46.02347914 -45.82774353 44.59286499 C-45.17358963 43.945242 -44.51943573 43.29761902 -43.84545898 42.63037109 C-43.26747055 42.06063568 -42.68948212 41.49090027 -42.09397888 40.90390015 C-40.63004122 39.46231286 -40.63004122 39.46231286 -39.734375 37.4375 C-39.074375 37.4375 -38.414375 37.4375 -37.734375 37.4375 C-37.734375 36.7775 -37.734375 36.1175 -37.734375 35.4375 C-35.359375 32.8125 -35.359375 32.8125 -32.734375 30.4375 C-32.074375 30.4375 -31.414375 30.4375 -30.734375 30.4375 C-30.734375 29.7775 -30.734375 29.1175 -30.734375 28.4375 C-30.074375 28.4375 -29.414375 28.4375 -28.734375 28.4375 C-28.734375 27.7775 -28.734375 27.1175 -28.734375 26.4375 C-28.074375 26.4375 -27.414375 26.4375 -26.734375 26.4375 C-26.34765625 25.56351563 -26.34765625 25.56351563 -25.953125 24.671875 C-24.63603483 22.2572097 -23.18349116 20.62009823 -21.234375 18.6875 C-20.6259375 18.07390625 -20.0175 17.4603125 -19.390625 16.828125 C-17.734375 15.4375 -17.734375 15.4375 -15.734375 15.4375 C-15.734375 14.7775 -15.734375 14.1175 -15.734375 13.4375 C-15.074375 13.4375 -14.414375 13.4375 -13.734375 13.4375 C-13.363125 12.59251953 -13.363125 12.59251953 -12.984375 11.73046875 C-11.52524785 9.05388239 -9.77149924 7.01555177 -7.734375 4.75 C-6.6825 3.56857422 -6.6825 3.56857422 -5.609375 2.36328125 C-2.51442583 -0.81548946 -2.51442583 -0.81548946 0 0 Z M-1.734375 116.4375 C-3.11000354 117.72715176 -4.44203893 119.06439293 -5.734375 120.4375 C-5.734375 121.0975 -5.734375 121.7575 -5.734375 122.4375 C-6.394375 122.4375 -7.054375 122.4375 -7.734375 122.4375 C-7.734375 123.0975 -7.734375 123.7575 -7.734375 124.4375 C-8.600625 124.7778125 -8.600625 124.7778125 -9.484375 125.125 C-12.33028881 126.78511639 -13.73279421 128.82937957 -15.734375 131.4375 C-17.3798128 133.12512851 -19.04726077 134.7915349 -20.734375 136.4375 C-22.40244046 138.1027667 -24.06892621 139.76961634 -25.734375 141.4375 C-29.06770833 144.77083333 -32.40104167 148.10416667 -35.734375 151.4375 C-34.55050508 154.85184947 -33.59221316 156.96524131 -30.671875 159.125 C-27.734375 161.4375 -27.734375 161.4375 -26.734375 163.4375 C-26.074375 163.4375 -25.414375 163.4375 -24.734375 163.4375 C-24.734375 164.0975 -24.734375 164.7575 -24.734375 165.4375 C-23.11637998 167.07425508 -23.11637998 167.07425508 -21.046875 168.75 C-17.76760941 171.49816043 -14.7372827 174.38881627 -11.734375 177.4375 C-10.85136719 178.32050781 -9.96835938 179.20351562 -9.05859375 180.11328125 C-6.6171875 182.5546875 -4.17578125 184.99609375 -1.734375 187.4375 C5.05410993 184.27249831 9.72039555 179.04205731 14.48828125 173.3984375 C16.7779561 170.87224679 19.30525551 168.76895556 21.98046875 166.6640625 C22.40457031 166.25929687 22.82867187 165.85453125 23.265625 165.4375 C23.265625 164.7775 23.265625 164.1175 23.265625 163.4375 C23.925625 163.4375 24.585625 163.4375 25.265625 163.4375 C27.00450591 161.71864683 27.00450591 161.71864683 28.765625 159.5625 C30.55495758 157.44714496 32.30581624 155.39730876 34.265625 153.4375 C34.265625 152.4475 34.265625 151.4575 34.265625 150.4375 C33.605625 150.4375 32.945625 150.4375 32.265625 150.4375 C32.265625 149.7775 32.265625 149.1175 32.265625 148.4375 C31.605625 148.4375 30.945625 148.4375 30.265625 148.4375 C30.265625 147.7775 30.265625 147.1175 30.265625 146.4375 C29.605625 146.4375 28.945625 146.4375 28.265625 146.4375 C27.770625 144.9525 27.770625 144.9525 27.265625 143.4375 C26.605625 143.4375 25.945625 143.4375 25.265625 143.4375 C25.03875 142.880625 24.811875 142.32375 24.578125 141.75 C22.30962051 137.75311114 19.64662554 134.89783351 15.265625 133.4375 C14.58442097 132.11153496 13.91961943 130.77709453 13.265625 129.4375 C11.50058848 127.64514867 11.50058848 127.64514867 9.453125 126 C7.00017143 123.92990307 4.62691917 121.86554922 2.390625 119.5625 C0.4500912 117.39797153 0.4500912 117.39797153 -1.734375 116.4375 Z M-19.734375 310.4375 C-16.63675653 316.01321325 -13.79972118 320.99554096 -10.171875 326.125 C-7.30358111 330.19628716 -4.48078046 334.28363959 -1.734375 338.4375 C1.94788797 337.21007901 2.43495814 336.08884318 4.515625 332.88671875 C5.1240625 331.96052734 5.7325 331.03433594 6.359375 330.08007812 C6.9884375 329.10490234 7.6175 328.12972656 8.265625 327.125 C9.51473598 325.2116589 10.7647048 323.29887749 12.015625 321.38671875 C12.56734375 320.53424561 13.1190625 319.68177246 13.6875 318.8034668 C15.265625 316.4375 15.265625 316.4375 16.96875 314.25317383 C18.45936761 312.53813102 18.45936761 312.53813102 18.265625 310.4375 C5.725625 310.4375 -6.814375 310.4375 -19.734375 310.4375 Z M-7.859375 387.1875 C-8.70435547 387.99574219 -8.70435547 387.99574219 -9.56640625 388.8203125 C-11.03784637 390.28106419 -12.39416868 391.85548275 -13.734375 393.4375 C-14.17811823 397.45640951 -14.17811823 397.45640951 -11.671875 399.75 C-10.7025 400.636875 -9.733125 401.52375 -8.734375 402.4375 C-7.45827948 403.70304927 -6.18755289 404.97403205 -4.921875 406.25 C-4.31730469 406.85457031 -3.71273437 407.45914062 -3.08984375 408.08203125 C-2.64253906 408.52933594 -2.19523437 408.97664063 -1.734375 409.4375 C2.7937293 407.10876065 5.13235609 404.3329154 8.265625 400.4375 C8.925625 400.1075 9.585625 399.7775 10.265625 399.4375 C10.265625 398.7775 10.265625 398.1175 10.265625 397.4375 C10.925625 397.4375 11.585625 397.4375 12.265625 397.4375 C12.595625 396.4475 12.925625 395.4575 13.265625 394.4375 C11.14657037 392.26472286 9.02089622 390.09923092 6.890625 387.9375 C6.28734375 387.31746094 5.6840625 386.69742187 5.0625 386.05859375 C4.48242188 385.47207031 3.90234375 384.88554687 3.3046875 384.28125 C2.77053223 383.73662109 2.23637695 383.19199219 1.68603516 382.63085938 C-2.17765673 379.38477379 -5.15098444 384.4853934 -7.859375 387.1875 Z " fill="#099536" transform="translate(250.734375,27.5625)"/>
<path d="M0 0 C0.495 1.98 0.495 1.98 1 4 C0.01 4.33 -0.98 4.66 -2 5 C-1.34 6.98 -0.68 8.96 0 11 C-3.50776784 12.60355101 -6.14354879 13.22036864 -10 13 C-9.95875 13.763125 -9.9175 14.52625 -9.875 15.3125 C-10 18 -10 18 -12 21 C-12.99 21 -13.98 21 -15 21 C-14.814375 21.7425 -14.62875 22.485 -14.4375 23.25 C-14 26 -14 26 -14.5625 28 C-15.18465254 30.84412588 -14.30418242 32.46027635 -13 35 C-12.34 35.33 -11.68 35.66 -11 36 C-11 35.34 -11 34.68 -11 34 C-9.25 32.7109375 -9.25 32.7109375 -7 31.375 C-6.2575 30.92898438 -5.515 30.48296875 -4.75 30.0234375 C-4.1725 29.68570312 -3.595 29.34796875 -3 29 C-2.5 31.5 -2.5 31.5 -3 35 C-5.36284905 38.01020496 -7.99876652 40.62553014 -11 43 C-11.66 43 -12.32 43 -13 43 C-13.09152344 43.59296875 -13.18304688 44.1859375 -13.27734375 44.796875 C-14.17232113 47.52534657 -15.33906301 48.47125041 -17.5625 50.25 C-18.52349609 51.03117187 -18.52349609 51.03117187 -19.50390625 51.828125 C-19.99761719 52.21484375 -20.49132812 52.6015625 -21 53 C-23.4375 52.1875 -23.4375 52.1875 -26 51 C-26.495 49.515 -26.495 49.515 -27 48 C-28.3153341 47.29848848 -29.65117592 46.63474075 -31 46 C-32.75 44.5 -32.75 44.5 -34 43 C-34 42.34 -34 41.68 -34 41 C-34.99 40.67 -35.98 40.34 -37 40 C-36.4991581 35.75305876 -34.10755122 33.7345478 -31.16015625 30.796875 C-30.67800156 30.3142218 -30.19584686 29.8315686 -29.69908142 29.33428955 C-28.68131446 28.31885779 -27.65986563 27.30710473 -26.63500977 26.29882812 C-25.06277861 24.75027441 -23.50437672 23.18874128 -21.94726562 21.625 C-14.27912308 14 -14.27912308 14 -12 14 C-11.731875 13.360625 -11.46375 12.72125 -11.1875 12.0625 C-10 10 -10 10 -7 9 C-6.71125 8.4225 -6.4225 7.845 -6.125 7.25 C-4.61984999 4.23969997 -2.42622037 2.29852456 0 0 Z " fill="#069533" transform="translate(159,265)"/>
<path d="M0 0 C0 0.66 0 1.32 0 2 C0.99 2.33 1.98 2.66 3 3 C4.29676812 7.61073111 3.71109139 11.33840089 3 16 C2.01 16 1.02 16 0 16 C-0.33 16.66 -0.66 17.32 -1 18 C-6.52941176 22 -6.52941176 22 -9 22 C-9 22.66 -9 23.32 -9 24 C-9.99 23.67 -10.98 23.34 -12 23 C-11.67 22.34 -11.34 21.68 -11 21 C-11.66 20.67 -12.32 20.34 -13 20 C-14.35015859 15.94952424 -13.62084998 13.2079832 -13 9 C-12.01 9 -11.02 9 -10 9 C-9.81824219 8.15115234 -9.81824219 8.15115234 -9.6328125 7.28515625 C-9.38144531 6.18494141 -9.38144531 6.18494141 -9.125 5.0625 C-8.96257812 4.33160156 -8.80015625 3.60070312 -8.6328125 2.84765625 C-7.27976133 -1.10291907 -3.55964932 -0.07738368 0 0 Z " fill="#049431" transform="translate(157,277)"/>
<path d="M0 0 C0.495 1.98 0.495 1.98 1 4 C0.01 4.33 -0.98 4.66 -2 5 C-1.34 6.98 -0.68 8.96 0 11 C-3.50776784 12.60355101 -6.14354879 13.22036864 -10 13 C-9.95875 13.763125 -9.9175 14.52625 -9.875 15.3125 C-10 18 -10 18 -12 21 C-12.99 21 -13.98 21 -15 21 C-14.79375 21.7425 -14.5875 22.485 -14.375 23.25 C-13.95591249 26.32330841 -14.38050989 27.42786866 -16 30 C-16.66 29.67 -17.32 29.34 -18 29 C-18.99 29 -19.98 29 -21 29 C-21.66 29 -22.32 29 -23 29 C-23.66 30.32 -24.32 31.64 -25 33 C-25 32.34 -25 31.68 -25 31 C-25.66 31 -26.32 31 -27 31 C-27.4021875 31.9590625 -27.4021875 31.9590625 -27.8125 32.9375 C-29 35 -29 35 -32 36 C-32.66 35.34 -33.32 34.68 -34 34 C-31.19469153 31.1453424 -28.38292304 28.29722769 -25.56494141 25.45507812 C-24.60675044 24.48681462 -23.65036018 23.51676574 -22.69580078 22.54492188 C-21.3253618 21.1502903 -19.94793633 19.76253479 -18.5703125 18.375 C-17.74289551 17.53710938 -16.91547852 16.69921875 -16.06298828 15.8359375 C-14 14 -14 14 -12 14 C-11.731875 13.360625 -11.46375 12.72125 -11.1875 12.0625 C-10 10 -10 10 -7 9 C-6.71125 8.4225 -6.4225 7.845 -6.125 7.25 C-4.61984999 4.23969997 -2.42622037 2.29852456 0 0 Z " fill="#14963C" transform="translate(159,265)"/>
<path d="M0 0 C0 0.66 0 1.32 0 2 C0.66 2 1.32 2 2 2 C2.75241109 5.65456815 3.40049704 9.31733897 4 13 C3.34 13 2.68 13 2 13 C1.84850702 16.62885324 1.84850702 16.62885324 3 20 C1.576875 20.3403125 1.576875 20.3403125 0.125 20.6875 C-3.19043706 21.64740391 -3.19043706 21.64740391 -4 24.4375 C-4.33 25.283125 -4.66 26.12875 -5 27 C-6.98320018 28.03291676 -8.98347806 29.0337499 -11 30 C-12.40466953 32.05093145 -12.40466953 32.05093145 -13 34 C-14.32 33.67 -15.64 33.34 -17 33 C-17.2475 33.969375 -17.495 34.93875 -17.75 35.9375 C-18.1625 36.948125 -18.575 37.95875 -19 39 C-21.125 39.875 -21.125 39.875 -23 40 C-23.2532832 43.03939845 -23.36762594 44.50983207 -21.5 47 C-19.63237406 49.49016793 -19.7467168 50.96060155 -20 54 C-24.00170812 50.88756035 -26.49426329 48.47721724 -29 44 C-28.28972656 43.30132812 -27.57945312 42.60265625 -26.84765625 41.8828125 C-25.46900391 40.51769531 -25.46900391 40.51769531 -24.0625 39.125 C-22.68771484 37.76761719 -22.68771484 37.76761719 -21.28515625 36.3828125 C-18.98812373 34.22317745 -18.98812373 34.22317745 -18 32 C-17.34 32 -16.68 32 -16 32 C-16 31.34 -16 30.68 -16 30 C-15.34 30 -14.68 30 -14 30 C-13.7421875 29.41347656 -13.484375 28.82695312 -13.21875 28.22265625 C-11.90493528 25.82662877 -10.4781599 24.31088448 -8.5 22.4375 C-6.27903267 20.32475777 -4.72257583 18.58386374 -3 16 C-2.34 16 -1.68 16 -1 16 C0.40579492 13.37473259 0.40579492 13.37473259 1 10 C-0.01397415 7.35270532 -1.39740664 5.38099585 -3 3 C-3.33 2.34 -3.66 1.68 -4 1 C-2 0 -2 0 0 0 Z " fill="#229B47" transform="translate(236,378)"/>
<path d="M0 0 C1.10102197 3.30306592 0.95067299 4.71585695 0 8 C-0.99 8.495 -0.99 8.495 -2 9 C-2.144375 9.61875 -2.28875 10.2375 -2.4375 10.875 C-3.10497845 13.39658526 -3.9818865 14.3855092 -6 16 C-6.66 16 -7.32 16 -8 16 C-8.33 16.99 -8.66 17.98 -9 19 C-11.475 18.01 -11.475 18.01 -14 17 C-15.485 22.445 -15.485 22.445 -17 28 C-18.65 26.68 -20.3 25.36 -22 24 C-20.4608199 20.33247995 -18.24514548 18.01419427 -15.4296875 15.234375 C-14.08583984 13.90019531 -14.08583984 13.90019531 -12.71484375 12.5390625 C-11.77769531 11.61867187 -10.84054688 10.69828125 -9.875 9.75 C-8.92011363 8.80515144 -7.96568141 7.85984367 -7.01171875 6.9140625 C-4.67890913 4.60481662 -2.34155914 2.30036797 0 0 Z " fill="#13973E" transform="translate(206,157)"/>
<path d="M0 0 C13.2 0 26.4 0 40 0 C42.20689655 6.62068966 42.20689655 6.62068966 41 10 C41 10.66 41 11.32 41 12 C39.02 12 37.04 12 35 12 C35 12.66 35 13.32 35 14 C33.5 15.625 33.5 15.625 32 17 C31.34 16.67 30.68 16.34 30 16 C31.12459671 14.22891052 32.24969203 12.45813764 33.375 10.6875 C34.00148438 9.70136719 34.62796875 8.71523438 35.2734375 7.69921875 C36.49651613 5.78712071 37.7409356 3.8885966 39 2 C26.13 2 13.26 2 0 2 C0 1.34 0 0.68 0 0 Z " fill="#24884A" transform="translate(230,336)"/>
<path d="M0 0 C2.91517292 1.07401108 4.77810176 1.77810176 7 4 C7.51252629 8.29256079 7.41678771 12.61783717 7.4375 16.9375 C7.47037109 18.14341797 7.50324219 19.34933594 7.53710938 20.59179688 C7.54419922 21.74615234 7.55128906 22.90050781 7.55859375 24.08984375 C7.57204834 25.15066162 7.58550293 26.21147949 7.59936523 27.30444336 C7 30 7 30 4.88330078 31.86254883 C1.44254393 33.21991429 -1.00028114 33.27195936 -4.69140625 33.109375 C-5.96564453 33.05910156 -7.23988281 33.00882812 -8.55273438 32.95703125 C-9.21104248 32.92303223 -9.86935059 32.8890332 -10.54760742 32.85400391 C-12.55936272 32.75016194 -14.57108019 32.66793373 -16.58398438 32.58984375 C-27.21696013 32.12683822 -27.21696013 32.12683822 -31 31 C-30.67 30.34 -30.34 29.68 -30 29 C-18.78 29 -7.56 29 4 29 C4.0309375 23.1528125 4.0309375 23.1528125 4.0625 17.1875 C4.071604 15.96184326 4.08070801 14.73618652 4.09008789 13.47338867 C4.09258545 12.5063501 4.09508301 11.53931152 4.09765625 10.54296875 C4.10289307 9.55321045 4.10812988 8.56345215 4.11352539 7.54370117 C4.11069959 4.87607266 4.11069959 4.87607266 3 2 C2.01 1.67 1.02 1.34 0 1 C0 0.67 0 0.34 0 0 Z " fill="#2A934C" transform="translate(234,231)"/>
<path d="M0 0 C0.99 0.33 1.98 0.66 3 1 C3 19.66666667 3 38.33333333 3 57 C1 56 1 56 0 53 C-0.0878506 51.26654193 -0.11764814 49.52986731 -0.11352539 47.79418945 C-0.11344986 46.73331619 -0.11337433 45.67244293 -0.11329651 44.579422 C-0.10813522 43.43559555 -0.10297394 42.2917691 -0.09765625 41.11328125 C-0.0962413 39.94113571 -0.09482635 38.76899017 -0.09336853 37.56132507 C-0.08776388 33.81169093 -0.07521056 30.06211615 -0.0625 26.3125 C-0.0574856 23.77278732 -0.05292259 21.2330737 -0.04882812 18.69335938 C-0.03779294 12.46221927 -0.02105025 6.23111388 0 0 Z " fill="#268C4D" transform="translate(259,70)"/>
<path d="M0 0 C0.33 0 0.66 0 1 0 C1 11.22 1 22.44 1 34 C16.84 34 32.68 34 49 34 C48.67 35.32 48.34 36.64 48 38 C47.67 37.01 47.34 36.02 47 35 C31.16 35.33 15.32 35.66 -1 36 C-0.9375 21.25 -0.9375 21.25 -0.90991211 16.61425781 C-0.90741455 15.40608398 -0.90491699 14.19791016 -0.90234375 12.953125 C-0.89710693 11.71723633 -0.89187012 10.48134766 -0.88647461 9.20800781 C-0.97928263 6.5854329 -1.21643327 4.48355406 -2 2 C-1.34 2 -0.68 2 0 2 C0 1.34 0 0.68 0 0 Z " fill="#32894B" transform="translate(260,283)"/>
<path d="M0 0 C0.75 1.75 0.75 1.75 1 4 C-1.21867135 6.77333918 -2.60620325 7.86873442 -6 9 C-8.66218094 9.01627854 -11.29090798 8.97471715 -13.94921875 8.87890625 C-14.72183548 8.85529526 -15.49445221 8.83168427 -16.29048157 8.80735779 C-18.7563464 8.73083079 -21.22188846 8.64675953 -23.6875 8.5625 C-25.36001029 8.50926832 -27.03253629 8.45652799 -28.70507812 8.40429688 C-32.80358952 8.27523053 -36.90182752 8.13939792 -41 8 C-41.33 7.34 -41.66 6.68 -42 6 C-40.35801636 5.99383667 -40.35801636 5.99383667 -38.68286133 5.98754883 C-34.61028355 5.96572948 -30.53866809 5.91141169 -26.46655273 5.84741211 C-24.70623009 5.82425636 -22.94576939 5.80984206 -21.18530273 5.80444336 C-18.65000621 5.79513558 -16.11687372 5.75410952 -13.58203125 5.70703125 C-12.79850784 5.7109639 -12.01498444 5.71489655 -11.2077179 5.71894836 C-6.87399356 5.60397146 -5.42890709 5.35938255 -1.96362305 2.45581055 C-1.31562744 1.64539307 -0.66763184 0.83497559 0 0 Z " fill="#2C964E" transform="translate(303,255)"/>
<path d="M0 0 C10.89 0 21.78 0 33 0 C33 11.22 33 22.44 33 34 C32.67 34 32.34 34 32 34 C31.505 18.655 31.505 18.655 31 3 C22.29470613 2.75071367 22.29470613 2.75071367 13.58886719 2.52197266 C12.50250977 2.4863623 11.41615234 2.45075195 10.296875 2.4140625 C9.18666992 2.3826416 8.07646484 2.3512207 6.93261719 2.31884766 C4 2 4 2 0 0 Z " fill="#1D7F4D" transform="translate(207,281)"/>
<path d="M0 0 C0.226875 0.556875 0.45375 1.11375 0.6875 1.6875 C2.36167263 4.63723273 4.57832311 6.6373884 7 9 C10 12.72413793 10 12.72413793 10 14 C11.65 14.33 13.3 14.66 15 15 C15.66 13.35 16.32 11.7 17 10 C17.99 10 18.98 10 20 10 C19.67 8.35 19.34 6.7 19 5 C21.475 5.495 21.475 5.495 24 6 C24 6.66 24 7.32 24 8 C23.34 8 22.68 8 22 8 C21.90847656 8.59296875 21.81695312 9.1859375 21.72265625 9.796875 C20.82767887 12.52534657 19.66093699 13.47125041 17.4375 15.25 C16.79683594 15.77078125 16.15617187 16.2915625 15.49609375 16.828125 C15.00238281 17.21484375 14.50867188 17.6015625 14 18 C11.5625 17.1875 11.5625 17.1875 9 16 C8.67 15.01 8.34 14.02 8 13 C6.6846659 12.29848848 5.34882408 11.63474075 4 11 C2.25 9.5 2.25 9.5 1 8 C1 7.34 1 6.68 1 6 C0.01 5.67 -0.98 5.34 -2 5 C-1.125 1.125 -1.125 1.125 0 0 Z " fill="#37995A" transform="translate(124,300)"/>
<path d="M0 0 C0.99 0.66 1.98 1.32 3 2 C2.34 2 1.68 2 1 2 C1 2.66 1 3.32 1 4 C0.34 4 -0.32 4 -1 4 C-1.66 5.32 -2.32 6.64 -3 8 C-3.66 8 -4.32 8 -5 8 C-5 8.66 -5 9.32 -5 10 C-5.66 10 -6.32 10 -7 10 C-7.268125 10.639375 -7.53625 11.27875 -7.8125 11.9375 C-9 14 -9 14 -12 15 C-12 15.66 -12 16.32 -12 17 C-12.66 17 -13.32 17 -14 17 C-14.66 18.32 -15.32 19.64 -16 21 C-17.125 17.25 -17.125 17.25 -16 15 C-15.01 15 -14.02 15 -13 15 C-13.309375 13.824375 -13.309375 13.824375 -13.625 12.625 C-13.74875 11.75875 -13.8725 10.8925 -14 10 C-12 8 -12 8 -9.9375 7.5625 C-8.9784375 7.2840625 -8.9784375 7.2840625 -8 7 C-7.67 6.01 -7.34 5.02 -7 4 C-5.35 4.33 -3.7 4.66 -2 5 C-2.33 4.01 -2.66 3.02 -3 2 C-2.01 1.34 -1.02 0.68 0 0 Z " fill="#239E4A" transform="translate(173,278)"/>
<path d="M0 0 C0.33 1.32 0.66 2.64 1 4 C0.01 4.33 -0.98 4.66 -2 5 C-1.34 6.98 -0.68 8.96 0 11 C-3.50776784 12.60355101 -6.14354879 13.22036864 -10 13 C-10.33 14.32 -10.66 15.64 -11 17 C-12.98 17.33 -14.96 17.66 -17 18 C-15.625 16 -15.625 16 -14 14 C-13.34 14 -12.68 14 -12 14 C-11.731875 13.360625 -11.46375 12.72125 -11.1875 12.0625 C-10 10 -10 10 -7 9 C-6.71125 8.4225 -6.4225 7.845 -6.125 7.25 C-4.61984999 4.23969997 -2.42622037 2.29852456 0 0 Z " fill="#29A04E" transform="translate(159,265)"/>
<path d="M0 0 C1.9375 0.8125 1.9375 0.8125 4 2 C5.02899781 5.08699343 5.08942864 7.07056807 5.02172852 10.29760742 C4.99158409 11.91894844 4.99158409 11.91894844 4.96083069 13.57304382 C4.93379562 14.73874405 4.90676056 15.90444427 4.87890625 17.10546875 C4.85529526 18.29981033 4.83168427 19.49415192 4.80735779 20.72468567 C4.73068089 24.54574348 4.64667346 28.36660068 4.5625 32.1875 C4.50928338 34.77538075 4.45654295 37.36327135 4.40429688 39.95117188 C4.27506022 46.30090583 4.13980195 52.65049035 4 59 C3.34 58.67 2.68 58.34 2 58 C1.97462909 51.11320788 1.95712429 44.22642783 1.94506836 37.33959961 C1.94004199 34.99714711 1.93321992 32.65469775 1.92456055 30.31225586 C1.91242082 26.94383978 1.90675469 23.57546522 1.90234375 20.20703125 C1.89718246 19.16102249 1.89202118 18.11501373 1.88670349 17.03730774 C1.88662796 16.05666855 1.88655243 15.07602936 1.88647461 14.06567383 C1.884254 13.20629715 1.88203339 12.34692047 1.87974548 11.46150208 C2.00542264 8.88900339 2.43351574 6.50932729 3 4 C2.34 4 1.68 4 1 4 C0.67 4.99 0.34 5.98 0 7 C-0.12375 6.360625 -0.2475 5.72125 -0.375 5.0625 C-0.684375 4.0415625 -0.684375 4.0415625 -1 3 C-1.66 2.67 -2.32 2.34 -3 2 C-2.01 1.34 -1.02 0.68 0 0 Z " fill="#2F9453" transform="translate(236,67)"/>
<path d="M0 0 C3.26615387 1.20821139 5.07510336 2.95580867 7.25 5.625 C7.77078125 6.25664063 8.2915625 6.88828125 8.828125 7.5390625 C9.40820312 8.26222656 9.40820312 8.26222656 10 9 C9.01 9.495 9.01 9.495 8 10 C5.375 8.75 5.375 8.75 3 7 C3 6.01 3 5.02 3 4 C-1.79070875 5.50562261 -1.79070875 5.50562261 -5.125 8.875 C-5.558125 9.926875 -5.558125 9.926875 -6 11 C-8.4375 13.75 -8.4375 13.75 -11 16 C-11.99 16 -12.98 16 -14 16 C-14 15.34 -14 14.68 -14 14 C-13.34 14 -12.68 14 -12 14 C-11.7525 13.43667969 -11.505 12.87335937 -11.25 12.29296875 C-9.79087285 9.61638239 -8.03712424 7.57805177 -6 5.3125 C-5.29875 4.52488281 -4.5975 3.73726562 -3.875 2.92578125 C-2 1 -2 1 0 0 Z " fill="#3CA269" transform="translate(249,27)"/>
<path d="M0 0 C4.98204139 4.13403434 9.56659962 8.50475038 14.08203125 13.14453125 C15.87004138 15.06021793 15.87004138 15.06021793 18 16 C17.625 18.4375 17.625 18.4375 17 21 C16.34 21.33 15.68 21.66 15 22 C15.33 20.35 15.66 18.7 16 17 C14.02 17.33 12.04 17.66 10 18 C9.67 17.34 9.34 16.68 9 16 C9.33 15.01 9.66 14.02 10 13 C9.67 12.01 9.34 11.02 9 10 C8.1028125 10.3403125 8.1028125 10.3403125 7.1875 10.6875 C5 11 5 11 3.3125 9.8125 C1.86313173 7.81099143 1.43925822 6.41592021 1 4 C0.67185497 2.6653803 0.33921815 1.33184832 0 0 Z " fill="#2E984C" transform="translate(360,285)"/>
<path d="M0 0 C15.84 0 31.68 0 48 0 C48 0.66 48 1.32 48 2 C33.15 2.33 18.3 2.66 3 3 C3.99 4.98 4.98 6.96 6 9 C5.6875 11.375 5.6875 11.375 5 13 C3.96387729 11.59447701 2.94655075 10.17508306 1.9375 8.75 C1.36902344 7.96109375 0.80054688 7.1721875 0.21484375 6.359375 C-1 4 -1 4 0 0 Z " fill="#3A8B52" transform="translate(192,316)"/>
<path d="M0 0 C1.67542976 0.28604898 3.34385343 0.61781233 5 1 C5.33 1.99 5.66 2.98 6 4 C4.02 3.34 2.04 2.68 0 2 C-0.061875 2.556875 -0.12375 3.11375 -0.1875 3.6875 C-1.3608937 7.027159 -3.34446814 8.71500747 -6 11 C-8.3125 11.8125 -8.3125 11.8125 -10 12 C-8.79618552 14.49361571 -7.54571278 16.68143083 -6 19 C-6.33 19.99 -6.66 20.98 -7 22 C-8.98 20.02 -10.96 18.04 -13 16 C-12.34 14.35 -11.68 12.7 -11 11 C-10.34 11 -9.68 11 -9 11 C-9 10.34 -9 9.68 -9 9 C-8.34 9 -7.68 9 -7 9 C-7 8.34 -7 7.68 -7 7 C-6.34 7 -5.68 7 -5 7 C-5 6.34 -5 5.68 -5 5 C-4.34 5 -3.68 5 -3 5 C-2.690625 4.360625 -2.38125 3.72125 -2.0625 3.0625 C-1 1 -1 1 0 0 Z " fill="#2C9F4E" transform="translate(135,196)"/>
<path d="M0 0 C0 3.36751897 -0.69347588 4.6635394 -2.3125 7.5625 C-2.74175781 8.34753906 -3.17101562 9.13257813 -3.61328125 9.94140625 C-5 12 -5 12 -8 14 C-8.33 14.99 -8.66 15.98 -9 17 C-10.9375 17.5625 -10.9375 17.5625 -13 18 C-13.66 18.66 -14.32 19.32 -15 20 C-15.66 19.34 -16.32 18.68 -17 18 C-16.01 16.515 -16.01 16.515 -15 15 C-14.34 15 -13.68 15 -13 15 C-13 14.34 -13 13.68 -13 13 C-12.34 13 -11.68 13 -11 13 C-11 12.34 -11 11.68 -11 11 C-10.34 11 -9.68 11 -9 11 C-8.74476563 10.41734375 -8.48953125 9.8346875 -8.2265625 9.234375 C-6.88258913 6.78611777 -5.38189704 5.18256752 -3.375 3.25 C-2.74335938 2.63640625 -2.11171875 2.0228125 -1.4609375 1.390625 C-0.73777344 0.70226563 -0.73777344 0.70226563 0 0 Z " fill="#2B9B4C" transform="translate(233,43)"/>
<path d="M0 0 C0.99 0.33 1.98 0.66 3 1 C1.27412682 10.10546885 -8.96092961 16.80673029 -16 22 C-15.6875 20.0625 -15.6875 20.0625 -15 18 C-14.01 17.67 -13.02 17.34 -12 17 C-12 16.34 -12 15.68 -12 15 C-11.34 15 -10.68 15 -10 15 C-10.33 13.68 -10.66 12.36 -11 11 C-7.535 10.505 -7.535 10.505 -4 10 C-4.33 8.68 -4.66 7.36 -5 6 C-3.68 5.67 -2.36 5.34 -1 5 C-0.67 3.35 -0.34 1.7 0 0 Z " fill="#349759" transform="translate(375,208)"/>
<path d="M0 0 C2.91517292 1.07401108 4.77810176 1.77810176 7 4 C7.22705078 6.61376953 7.22705078 6.61376953 7.1953125 9.8828125 C7.18886719 11.04941406 7.18242187 12.21601563 7.17578125 13.41796875 C7.15902344 14.64128906 7.14226562 15.86460937 7.125 17.125 C7.11597656 18.35605469 7.10695312 19.58710938 7.09765625 20.85546875 C7.07402548 23.90383815 7.04108054 26.95182382 7 30 C6.01 29.67 5.02 29.34 4 29 C4.00523682 28.2886792 4.01047363 27.5773584 4.01586914 26.84448242 C4.03664018 23.62549725 4.04966058 20.40652617 4.0625 17.1875 C4.07087891 16.06794922 4.07925781 14.94839844 4.08789062 13.79492188 C4.09111328 12.72177734 4.09433594 11.64863281 4.09765625 10.54296875 C4.10289307 9.55321045 4.10812988 8.56345215 4.11352539 7.54370117 C4.11069959 4.87607266 4.11069959 4.87607266 3 2 C2.01 1.67 1.02 1.34 0 1 C0 0.67 0 0.34 0 0 Z " fill="#349453" transform="translate(234,231)"/>
<path d="M0 0 C0.33 0.99 0.66 1.98 1 3 C-0.36328125 4.9375 -0.36328125 4.9375 -2.3125 7 C-4.45825516 9.29809072 -6.24671907 11.3700786 -8 14 C-8.66 14 -9.32 14 -10 14 C-10.33 14.66 -10.66 15.32 -11 16 C-13.5625 16.625 -13.5625 16.625 -16 17 C-11.01595832 10.96668638 -5.58084697 5.4815829 0 0 Z " fill="#48AD68" transform="translate(320,238)"/>
<path d="M0 0 C3.33435305 1.41856248 5.19565826 3.09931563 7.5 5.875 C9.89758153 8.71084912 12.31779415 11.42508238 15 14 C12.1875 14.3125 12.1875 14.3125 9 14 C7.98133771 12.34467377 6.98189187 10.67739862 6 9 C2.9042893 8.10792821 2.9042893 8.10792821 0 8 C0 5.36 0 2.72 0 0 Z " fill="#279D4C" transform="translate(186,244)"/>
<path d="M0 0 C0.66 0 1.32 0 2 0 C2.99088067 3.08273985 2.92482533 4.91724891 2 8 C2 8.66 2 9.32 2 10 C0.02 10 -1.96 10 -4 10 C-4 10.66 -4 11.32 -4 12 C-5.5 13.625 -5.5 13.625 -7 15 C-7.66 14.67 -8.32 14.34 -9 14 C-7.87540329 12.22891052 -6.75030797 10.45813764 -5.625 8.6875 C-4.99851562 7.70136719 -4.37203125 6.71523438 -3.7265625 5.69921875 C-2.50348387 3.78712071 -1.2590644 1.8885966 0 0 Z " fill="#169841" transform="translate(269,338)"/>
<path d="M0 0 C1.67299959 0.65061095 3.33859237 1.32033324 5 2 C6.0828125 2.433125 6.0828125 2.433125 7.1875 2.875 C9.4992385 4.30987217 10.16624069 5.42292577 11 8 C10.89720578 11.18662081 9.75138885 12.30236491 7.6875 14.8125 C6.800625 15.534375 5.91375 16.25625 5 17 C3.68 16.67 2.36 16.34 1 16 C3.31 13.69 5.62 11.38 8 9 C7.175 8.21625 6.35 7.4325 5.5 6.625 C3 4 3 4 3 2 C2.01 1.67 1.02 1.34 0 1 C0 0.67 0 0.34 0 0 Z " fill="#48AE70" transform="translate(159,248)"/>
<path d="M0 0 C0.33 1.98 0.66 3.96 1 6 C2.98 6 4.96 6 7 6 C7 5.34 7 4.68 7 4 C7.99 4.33 8.98 4.66 10 5 C8.35 6.98 6.7 8.96 5 11 C1.54804233 9.5741914 -0.1014256 7.90253666 -2.25 4.875 C-3.03117188 3.78832031 -3.03117188 3.78832031 -3.828125 2.6796875 C-4.21484375 2.12539063 -4.6015625 1.57109375 -5 1 C-2 0 -2 0 0 0 Z " fill="#39A35F" transform="translate(246,459)"/>
<path d="M0 0 C1.65 0 3.3 0 5 0 C5 1.32 5 2.64 5 4 C5.78375 3.95875 6.5675 3.9175 7.375 3.875 C10 4 10 4 12 6 C12 6.99 12 7.98 12 9 C13.65 9 15.3 9 17 9 C14 11 14 11 11.625 10.9375 C8.1451754 9.6947055 6.37688476 7.78435072 4 5 C4 4.34 4 3.68 4 3 C3.34 3 2.68 3 2 3 C2 2.34 2 1.68 2 1 C1.34 0.67 0.68 0.34 0 0 Z " fill="#31A967" transform="translate(184,272)"/>
<path d="M0 0 C0.33 0.66 0.66 1.32 1 2 C0.67 2.99 0.34 3.98 0 5 C-0.66 5 -1.32 5 -2 5 C-2.144375 5.804375 -2.28875 6.60875 -2.4375 7.4375 C-3 10 -3 10 -4 11 C-5.66617115 11.04063832 -7.33388095 11.042721 -9 11 C-9 11.66 -9 12.32 -9 13 C-10.32 13.33 -11.64 13.66 -13 14 C-12.0919838 12.86800647 -11.17316174 11.74467637 -10.25 10.625 C-9.48429687 9.68527344 -9.48429687 9.68527344 -8.703125 8.7265625 C-6.91800519 6.91687682 -5.32050356 5.99882545 -3 5 C-3 4.34 -3 3.68 -3 3 C-2.34 3 -1.68 3 -1 3 C-0.67 2.01 -0.34 1.02 0 0 Z " fill="#379A56" transform="translate(277,188)"/>
<path d="M0 0 C0.226875 0.556875 0.45375 1.11375 0.6875 1.6875 C2.36167263 4.63723273 4.57832311 6.6373884 7 9 C8.875 11.125 8.875 11.125 10 13 C9.67 13.99 9.34 14.98 9 16 C8.67 15.01 8.34 14.02 8 13 C6.6846659 12.29848848 5.34882408 11.63474075 4 11 C2.25 9.5 2.25 9.5 1 8 C1 7.34 1 6.68 1 6 C0.01 5.67 -0.98 5.34 -2 5 C-1.125 1.125 -1.125 1.125 0 0 Z " fill="#48AA63" transform="translate(124,300)"/>
<path d="M0 0 C0.66 0 1.32 0 2 0 C1.73958333 1.98567708 1.47916667 3.97135417 1.21875 5.95703125 C0.946767 8.15471706 0.946767 8.15471706 1 11 C0.67 11.66 0.34 12.32 0 13 C-1.98 10.69 -3.96 8.38 -6 6 C-4.71034824 4.62437146 -3.37310707 3.29233607 -2 2 C-1.34 2 -0.68 2 0 2 C0 1.34 0 0.68 0 0 Z " fill="#2CA350" transform="translate(173,104)"/>
<path d="M0 0 C1.32 0.33 2.64 0.66 4 1 C4 1.99 4 2.98 4 4 C6.96175123 3.38722388 8.38058783 2.74627478 11 1 C10.34 3.31 9.68 5.62 9 8 C9.66 8 10.32 8 11 8 C11.33 9.32 11.66 10.64 12 12 C12.66 12 13.32 12 14 12 C13.67 12.99 13.34 13.98 13 15 C13 14.34 13 13.68 13 13 C12.34 13 11.68 13 11 13 C9.66796875 11.64453125 9.66796875 11.64453125 8.1875 9.8125 C6.25308199 7.46933519 4.30459251 5.24249586 2.125 3.125 C1.42375 2.42375 0.7225 1.7225 0 1 C0 0.67 0 0.34 0 0 Z " fill="#49A865" transform="translate(268,161)"/>
<path d="M0 0 C1.32 0 2.64 0 4 0 C2.61811547 3.21043882 1.07578097 5.04936365 -1.625 7.25 C-2.25664062 7.77078125 -2.88828125 8.2915625 -3.5390625 8.828125 C-4.02117187 9.21484375 -4.50328125 9.6015625 -5 10 C-6.32 9.34 -7.64 8.68 -9 8 C-9 7.34 -9 6.68 -9 6 C-9.66 6 -10.32 6 -11 6 C-10.67 5.34 -10.34 4.68 -10 4 C-7.69 4.66 -5.38 5.32 -3 6 C-2.01 4.02 -1.02 2.04 0 0 Z " fill="#279B51" transform="translate(322,116)"/>
<path d="M0 0 C4.88049925 3.9419417 9.0580583 8.11950075 13 13 C11.02 13 9.04 13 7 13 C6.7525 12.443125 6.505 11.88625 6.25 11.3125 C5.02195553 8.86276957 5.02195553 8.86276957 2.9375 6.5 C1.07970724 4.10284805 0.58976948 2.86980613 0 0 Z " fill="#3AA65E" transform="translate(288,66)"/>
<path d="M0 0 C0.33 0 0.66 0 1 0 C1 10.89 1 21.78 1 33 C0.67 33 0.34 33 0 33 C-0.1698931 30.18766245 -0.33598232 27.37518151 -0.5 24.5625 C-0.54769531 23.77939453 -0.59539062 22.99628906 -0.64453125 22.18945312 C-0.91733045 17.45443844 -1.0286809 12.76563078 -0.91992188 8.02319336 C-1.00425875 5.89240156 -1.41468015 4.04546333 -2 2 C-1.34 2 -0.68 2 0 2 C0 1.34 0 0.68 0 0 Z " fill="#287D45" transform="translate(260,283)"/>
<path d="M0 0 C0.495 0.309375 0.99 0.61875 1.5 0.9375 C4.97986781 2.41644382 8.24028509 2.62402851 12 3 C12 6 12 9 12 12 C11.01 11.34 10.02 10.68 9 10 C9 9.34 9 8.68 9 8 C8.34 8 7.68 8 7 8 C7 7.34 7 6.68 7 6 C6.401875 5.7525 5.80375 5.505 5.1875 5.25 C2.71352479 3.83629988 1.56629745 2.34944617 0 0 Z " fill="#44AE62" transform="translate(323,278)"/>
<path d="M0 0 C0 3.2002215 -0.63242392 5.61483471 -1.5 8.6875 C-1.7784375 9.68136719 -2.056875 10.67523438 -2.34375 11.69921875 C-2.66859375 12.83810547 -2.66859375 12.83810547 -3 14 C-4.65 12.68 -6.3 11.36 -8 10 C-6.34908222 5.70761377 -3.26245434 3.1206085 0 0 Z " fill="#339758" transform="translate(192,171)"/>
<path d="M0 0 C1 3 1 3 0.375 5.0625 C-1.40260739 7.56731042 -3.19103247 7.87641299 -6 9 C-7.34410262 11.01735205 -7.34410262 11.01735205 -8 13 C-9.32 12.67 -10.64 12.34 -12 12 C-8.04 8.04 -4.08 4.08 0 0 Z " fill="#3FA464" transform="translate(219,144)"/>
<path d="M0 0 C7.57142857 6.28571429 7.57142857 6.28571429 10 10 C7.13822943 11.43088528 5.06624227 10.59991697 2 10 C1.34 6.7 0.68 3.4 0 0 Z " fill="#1B933E" transform="translate(314,92)"/>
<path d="M0 0 C0 0.66 0 1.32 0 2 C0.66 2 1.32 2 2 2 C2.75241109 5.65456815 3.40049704 9.31733897 4 13 C3.34 13 2.68 13 2 13 C1.67 13.99 1.34 14.98 1 16 C0.34 16 -0.32 16 -1 16 C-0.5875 15.154375 -0.175 14.30875 0.25 13.4375 C1.06010036 9.72454004 0.98384995 9.32117895 -0.8125 6.25 C-1.534375 5.1775 -2.25625 4.105 -3 3 C-3.33 2.34 -3.66 1.68 -4 1 C-2 0 -2 0 0 0 Z " fill="#4BAB6A" transform="translate(236,378)"/>
<path d="M0 0 C0 4.0333534 -1.60879918 5.83517538 -4 9 C-4.66 9 -5.32 9 -6 9 C-6.33 10.65 -6.66 12.3 -7 14 C-8.65 13.67 -10.3 13.34 -12 13 C-8.19524578 8.43969176 -4.25030379 4.14910608 0 0 Z " fill="#3DA45D" transform="translate(203,74)"/>
<path d="M0 0 C0.66 0.33 1.32 0.66 2 1 C0.625 3.5 0.625 3.5 -1 6 C-1.66 6 -2.32 6 -3 6 C-3.28875 6.804375 -3.5775 7.60875 -3.875 8.4375 C-5 11 -5 11 -7 12 C-7.36923077 4.49230769 -7.36923077 4.49230769 -5.5 2 C-5.005 1.67 -4.51 1.34 -4 1 C-4 1.66 -4 2.32 -4 3 C-3.34 3 -2.68 3 -2 3 C-2 2.34 -2 1.68 -2 1 C-1.34 0.67 -0.68 0.34 0 0 Z " fill="#2D9C53" transform="translate(289,345)"/>
<path d="M0 0 C3.21524305 1.40844718 5.32183868 3.10344786 7.75 5.625 C8.67039062 6.57246094 8.67039062 6.57246094 9.609375 7.5390625 C10.29773438 8.26222656 10.29773438 8.26222656 11 9 C10.67 9.66 10.34 10.32 10 11 C7 10 7 10 5 7 C2.44816596 5.79549696 2.44816596 5.79549696 0 5 C0 3.35 0 1.7 0 0 Z " fill="#349E53" transform="translate(332,258)"/>
<path d="M0 0 C-0.4844458 0.37616455 -0.9688916 0.7523291 -1.46801758 1.13989258 C-3.57649812 3.69997437 -3.42822323 5.4719952 -3.51171875 8.76171875 C-3.56489258 10.43911133 -3.56489258 10.43911133 -3.61914062 12.15039062 C-3.64169922 13.31763672 -3.66425781 14.48488281 -3.6875 15.6875 C-3.72166016 16.86634766 -3.75582031 18.04519531 -3.79101562 19.25976562 C-3.87357925 22.17308225 -3.94270322 25.08609466 -4 28 C-4.33 28 -4.66 28 -5 28 C-5.33 18.76 -5.66 9.52 -6 0 C-3 -1 -3 -1 0 0 Z " fill="#297744" transform="translate(265,233)"/>
<path d="M0 0 C1.1446875 0.495 1.1446875 0.495 2.3125 1 C4.99069135 2.17436686 4.99069135 2.17436686 8 2 C9.125 3.75 9.125 3.75 10 6 C9.0546875 8.140625 9.0546875 8.140625 8 10 C6.66370254 8.52351062 5.33103329 7.0437367 4 5.5625 C3.2575 4.73878906 2.515 3.91507812 1.75 3.06640625 C0 1 0 1 0 0 Z " fill="#279F55" transform="translate(222,439)"/>
<path d="M0 0 C0.4375 2.625 0.4375 2.625 0 6 C-2.0949488 8.33122122 -4.46073827 10.17328621 -7 12 C-7.1875 9.625 -7.1875 9.625 -7 7 C-6.01 6.34 -5.02 5.68 -4 5 C-4.66 4.67 -5.32 4.34 -6 4 C-1.125 0 -1.125 0 0 0 Z " fill="#169C3E" transform="translate(156,294)"/>
<path d="M0 0 C0.99 0.33 1.98 0.66 3 1 C-0.63 4.63 -4.26 8.26 -8 12 C-8.33 11.01 -8.66 10.02 -9 9 C-8.34 9 -7.68 9 -7 9 C-6.938125 8.236875 -6.87625 7.47375 -6.8125 6.6875 C-6 4 -6 4 -3.5 2.25 C-2.675 1.8375 -1.85 1.425 -1 1 C-0.67 0.67 -0.34 0.34 0 0 Z " fill="#208F46" transform="translate(353,233)"/>
<path d="M0 0 C0.99 0.66 1.98 1.32 3 2 C2.34 2 1.68 2 1 2 C1 2.66 1 3.32 1 4 C0.34 4 -0.32 4 -1 4 C-1.66 5.32 -2.32 6.64 -3 8 C-3.66 8 -4.32 8 -5 8 C-5 8.66 -5 9.32 -5 10 C-5.66 10 -6.32 10 -7 10 C-8 7 -8 7 -7 4 C-5.35 4.33 -3.7 4.66 -2 5 C-2.33 4.01 -2.66 3.02 -3 2 C-2.01 1.34 -1.02 0.68 0 0 Z " fill="#30A657" transform="translate(173,278)"/>
<path d="M0 0 C0.99 0.33 1.98 0.66 3 1 C0.54908957 3.68433048 -1.28241384 4.91789741 -5.04296875 5.09765625 C-5.75066406 5.08605469 -6.45835937 5.07445312 -7.1875 5.0625 C-9.0746875 5.0315625 -9.0746875 5.0315625 -11 5 C-11.33 4.34 -11.66 3.68 -12 3 C-10.82630859 2.80083984 -10.82630859 2.80083984 -9.62890625 2.59765625 C-8.61699219 2.42105469 -7.60507812 2.24445313 -6.5625 2.0625 C-5.55316406 1.88847656 -4.54382813 1.71445312 -3.50390625 1.53515625 C-1.0712562 1.25248903 -1.0712562 1.25248903 0 0 Z " fill="#29A966" transform="translate(308,278)"/>
<path d="M0 0 C2.8125 -0.3125 2.8125 -0.3125 6 0 C7.9375 2.375 7.9375 2.375 9 5 C8.67 5.66 8.34 6.32 8 7 C6.68 5.68 5.36 4.36 4 3 C1.50638429 4.20381448 -0.68143083 5.45428722 -3 7 C-2.67 5.35 -2.34 3.7 -2 2 C-1.34 2 -0.68 2 0 2 C0 1.34 0 0.68 0 0 Z " fill="#4DAE6D" transform="translate(314,271)"/>
<path d="M0 0 C2.96175123 0.61277612 4.38058783 1.25372522 7 3 C7 3.66 7 4.32 7 5 C7.66 5 8.32 5 9 5 C9 5.66 9 6.32 9 7 C10.32 7.66 11.64 8.32 13 9 C12.67 10.32 12.34 11.64 12 13 C10.5 11.625 10.5 11.625 9 10 C9 9.34 9 8.68 9 8 C8.34 8 7.68 8 7 8 C7 7.34 7 6.68 7 6 C6.34 6 5.68 6 5 6 C3.375 4.625 3.375 4.625 2 3 C2 2.34 2 1.68 2 1 C1.34 0.67 0.68 0.34 0 0 Z " fill="#51A96F" transform="translate(221,218)"/>
<path d="M0 0 C-0.9080162 1.13199353 -1.82683826 2.25532363 -2.75 3.375 C-3.26046875 4.00148438 -3.7709375 4.62796875 -4.296875 5.2734375 C-6.08199481 7.08312318 -7.67949644 8.00117455 -10 9 C-9.8125 5.6875 -9.8125 5.6875 -9 2 C-5.70218844 -0.85216135 -4.06014016 -1.2466102 0 0 Z " fill="#2C9652" transform="translate(235,75)"/>
<path d="M0 0 C6.70459519 5.0940919 6.70459519 5.0940919 7.9375 8.875 C7.958125 9.57625 7.97875 10.2775 8 11 C5.525 12.485 5.525 12.485 3 14 C3 13.01 3 12.02 3 11 C3.66 11 4.32 11 5 11 C3.74243333 7.51750769 2.2268108 4.93534151 0 2 C0 1.34 0 0.68 0 0 Z " fill="#3FA05F" transform="translate(324,102)"/>
<path d="M0 0 C2.97 0.495 2.97 0.495 6 1 C6.33 1.99 6.66 2.98 7 4 C7.99 4.33 8.98 4.66 10 5 C9.67 6.32 9.34 7.64 9 9 C8.61328125 8.55527344 8.2265625 8.11054688 7.828125 7.65234375 C7.30734375 7.08644531 6.7865625 6.52054687 6.25 5.9375 C5.73953125 5.36902344 5.2290625 4.80054688 4.703125 4.21484375 C3.04312742 2.73501743 3.04312742 2.73501743 0.796875 3.31640625 C0.20390625 3.54199219 -0.3890625 3.76757812 -1 4 C-0.67 2.68 -0.34 1.36 0 0 Z " fill="#4EB171" transform="translate(248,407)"/>
<path d="M0 0 C0.66 0 1.32 0 2 0 C2 0.99 2 1.98 2 3 C1.01 3 0.02 3 -1 3 C0.20381448 5.49361571 1.45428722 7.68143083 3 10 C2.67 10.99 2.34 11.98 2 13 C0.02 11.02 -1.96 9.04 -4 7 C-3.34 5.35 -2.68 3.7 -2 2 C-1.34 2 -0.68 2 0 2 C0 1.34 0 0.68 0 0 Z " fill="#4FAA6D" transform="translate(126,205)"/>
<path d="M0 0 C1 2 1 2 0.3125 4.4375 C-1.14195524 7.27715071 -2.1879596 8.51127273 -5 10 C-6.32 9.67 -7.64 9.34 -9 9 C-6.03 6.03 -3.06 3.06 0 0 Z " fill="#55B373" transform="translate(357,201)"/>
<path d="M0 0 C1.12894876 0.93274109 2.25300876 1.87140122 3.375 2.8125 C4.00148438 3.33457031 4.62796875 3.85664063 5.2734375 4.39453125 C7 6 7 6 9 9 C8.01 9.33 7.02 9.66 6 10 C5.34 9.67 4.68 9.34 4 9 C4 8.34 4 7.68 4 7 C3.34 7 2.68 7 2 7 C0 4 0 4 0 0 Z " fill="#35A25C" transform="translate(295,159)"/>
<path d="M0 0 C1 2 2 4 3 6 C0 7 0 7 -2 7 C-4.0078864 7.64252365 -6.00882592 8.30741771 -8 9 C-7.04270084 7.87411986 -6.08412105 6.7493285 -5.125 5.625 C-4.59132812 4.99851563 -4.05765625 4.37203125 -3.5078125 3.7265625 C-2.38567993 2.44163349 -1.20628025 1.20628025 0 0 Z " fill="#37A25B" transform="translate(237,126)"/>
<path d="M0 0 C1 3 1 3 -0.125 5.375 C-2.19493022 8.27290231 -4.31895538 10.65408595 -7 13 C-7.99 13 -8.98 13 -10 13 C-10 12.34 -10 11.68 -10 11 C-9.34 11 -8.68 11 -8 11 C-7.73445312 10.41734375 -7.46890625 9.8346875 -7.1953125 9.234375 C-5.96697004 6.93825772 -4.59685061 5.19643982 -2.875 3.25 C-2.33617187 2.63640625 -1.79734375 2.0228125 -1.2421875 1.390625 C-0.62730469 0.70226562 -0.62730469 0.70226562 0 0 Z " fill="#52AC72" transform="translate(245,30)"/>
<path d="M0 0 C3.91939465 3.80411834 7.49102731 7.81576108 11 12 C10.01 12 9.02 12 8 12 C7.67 11.34 7.34 10.68 7 10 C6.34 10 5.68 10 5 10 C4.67 9.01 4.34 8.02 4 7 C3.01 6.67 2.02 6.34 1 6 C0.67 4.02 0.34 2.04 0 0 Z " fill="#47AF66" transform="translate(267,395)"/>
<path d="M0 0 C3.67033927 3.27708863 5.69281189 6.71522208 8 11 C6.68 11 5.36 11 4 11 C3.71125 10.38125 3.4225 9.7625 3.125 9.125 C2.06279958 6.86674235 2.06279958 6.86674235 0 5 C-0.125 2.375 -0.125 2.375 0 0 Z " fill="#43AA63" transform="translate(242,356)"/>
<path d="M0 0 C-1.2739589 2.03833424 -2.61061923 4.03852126 -4 6 C-4.66 6 -5.32 6 -6 6 C-6 6.66 -6 7.32 -6 8 C-6.66 8 -7.32 8 -8 8 C-8 5.69 -8 3.38 -8 1 C-5.07175348 0.02391783 -3.04386724 -0.08226668 0 0 Z " fill="#2D9F59" transform="translate(195,114)"/>
<path d="M0 0 C6.875 0.875 6.875 0.875 8 2 C8.04080783 3.99958364 8.04254356 6.00045254 8 8 C6.85073734 7.04578192 5.70569459 6.08647955 4.5625 5.125 C3.92441406 4.59132812 3.28632813 4.05765625 2.62890625 3.5078125 C1 2 1 2 0 0 Z " fill="#369F58" transform="translate(189,185)"/>
<path d="M0 0 C0.99 0.33 1.98 0.66 3 1 C2.34 1.66 1.68 2.32 1 3 C0.3574765 5.06874034 0.3574765 5.06874034 0 7 C0.639375 7.268125 1.27875 7.53625 1.9375 7.8125 C4 9 4 9 5 12 C4.01 12.33 3.02 12.66 2 13 C1.896875 12.360625 1.79375 11.72125 1.6875 11.0625 C1.460625 10.381875 1.23375 9.70125 1 9 C0.01 8.67 -0.98 8.34 -2 8 C-1.125 1.125 -1.125 1.125 0 0 Z " fill="#40A461" transform="translate(237,418)"/>
<path d="M0 0 C0.66 0 1.32 0 2 0 C2 0.66 2 1.32 2 2 C2.66 2 3.32 2 4 2 C4 2.66 4 3.32 4 4 C4.66 4 5.32 4 6 4 C6 4.66 6 5.32 6 6 C6.9590625 6.433125 6.9590625 6.433125 7.9375 6.875 C10 8 10 8 11 10 C8.03 9.505 8.03 9.505 5 9 C4.731875 8.030625 4.46375 7.06125 4.1875 6.0625 C3.795625 5.051875 3.40375 4.04125 3 3 C2.01 2.67 1.02 2.34 0 2 C0 1.34 0 0.68 0 0 Z " fill="#48AB6C" transform="translate(170,229)"/>
<path d="M0 0 C0 4.07746885 -1.52068051 5.83198065 -4 9 C-6.25 9.875 -6.25 9.875 -8 10 C-8 10.66 -8 11.32 -8 12 C-8.99 11.67 -9.98 11.34 -11 11 C-10.34 11 -9.68 11 -9 11 C-8.61714844 10.12601563 -8.61714844 10.12601563 -8.2265625 9.234375 C-6.88258913 6.78611777 -5.38189704 5.18256752 -3.375 3.25 C-2.74335938 2.63640625 -2.11171875 2.0228125 -1.4609375 1.390625 C-0.73777344 0.70226563 -0.73777344 0.70226563 0 0 Z " fill="#83BF97" transform="translate(233,43)"/>
<path d="M0 0 C0.763125 0.0825 1.52625 0.165 2.3125 0.25 C2.6425 1.57 2.9725 2.89 3.3125 4.25 C-3.4375 5.375 -3.4375 5.375 -5.6875 4.25 C-3.34903846 0.31153846 -3.34903846 0.31153846 0 0 Z " fill="#30A155" transform="translate(235.6875,393.75)"/>
<path d="M0 0 C0.66 0 1.32 0 2 0 C1.7525 0.886875 1.505 1.77375 1.25 2.6875 C0.64710348 6.1170551 0.64710348 6.1170551 2.9375 8.875 C3.618125 9.57625 4.29875 10.2775 5 11 C2.625 10.75 2.625 10.75 0 10 C-1.91226831 7.56620398 -2.04579982 6.39387843 -1.6875 3.3125 C-1 1 -1 1 0 0 Z " fill="#3BA15F" transform="translate(262,384)"/>
<path d="M0 0 C0.99 0.66 1.98 1.32 3 2 C5.11280345 2.63292383 5.11280345 2.63292383 7 3 C6.625 5.4375 6.625 5.4375 6 8 C5.01 8.495 5.01 8.495 4 9 C4.33 7.35 4.66 5.7 5 4 C3.02 4.33 1.04 4.66 -1 5 C-1.33 4.34 -1.66 3.68 -2 3 C-1.34 2.01 -0.68 1.02 0 0 Z " fill="#3AA25C" transform="translate(371,298)"/>
<path d="M0 0 C1.7074998 1.28062485 3.37373596 2.61767557 5 4 C5 4.66 5 5.32 5 6 C6.32 6.66 7.64 7.32 9 8 C7.3125 8.8125 7.3125 8.8125 5 9 C2.25 6.8125 2.25 6.8125 0 4 C0 2.68 0 1.36 0 0 Z " fill="#299B4F" transform="translate(345,270)"/>
<path d="M0 0 C1.04059132 3.12177395 1.32284898 4.07083439 0 7 C-2.375 8.3125 -2.375 8.3125 -5 9 C-5.99 8.67 -6.98 8.34 -8 8 C-5.36 5.36 -2.72 2.72 0 0 Z " fill="#37A05C" transform="translate(206,157)"/>
<path d="M0 0 C0.99 0.33 1.98 0.66 3 1 C-0.515625 5.6875 -0.515625 5.6875 -2 7 C-3.32 7 -4.64 7 -6 7 C-6.33 5.68 -6.66 4.36 -7 3 C-3.535 2.505 -3.535 2.505 0 2 C0 1.34 0 0.68 0 0 Z " fill="#209145" transform="translate(199,107)"/>
<path d="M0 0 C2.96175123 0.61277612 4.38058783 1.25372522 7 3 C4.69 4.98 2.38 6.96 0 9 C-0.33 7.68 -0.66 6.36 -1 5 C-0.01 5.33 0.98 5.66 2 6 C2 4.68 2 3.36 2 2 C1.34 2 0.68 2 0 2 C0 1.34 0 0.68 0 0 Z " fill="#259848" transform="translate(202,98)"/>
<path d="M0 0 C1.8125 0.125 1.8125 0.125 4 1 C7.20021665 5.96585343 7.20021665 5.96585343 6.57421875 9.19921875 C6.38472656 9.79347656 6.19523438 10.38773437 6 11 C4.9944239 9.54550599 3.99569565 8.08627557 3 6.625 C2.443125 5.81289063 1.88625 5.00078125 1.3125 4.1640625 C0 2 0 2 0 0 Z " fill="#2E9C4B" transform="translate(191,318)"/>
<path d="M0 0 C0.33 1.32 0.66 2.64 1 4 C0.34 4 -0.32 4 -1 4 C-1.33 5.32 -1.66 6.64 -2 8 C-3.98 8.33 -5.96 8.66 -8 9 C-6.625 7 -6.625 7 -5 5 C-4.34 5 -3.68 5 -3 5 C-2.690625 4.360625 -2.38125 3.72125 -2.0625 3.0625 C-1 1 -1 1 0 0 Z " fill="#56B175" transform="translate(150,274)"/>
<path d="M0 0 C1.65 0 3.3 0 5 0 C5 0.66 5 1.32 5 2 C5.99 2.33 6.98 2.66 8 3 C8.3721042 4.32303717 8.70630173 5.65737935 9 7 C9.66 7.33 10.32 7.66 11 8 C10.67 8.66 10.34 9.32 10 10 C8.70450101 8.90033225 7.41373929 7.79508199 6.125 6.6875 C5.40570313 6.07261719 4.68640625 5.45773438 3.9453125 4.82421875 C2 3 2 3 0 0 Z " fill="#48AA70" transform="translate(249,143)"/>
<path d="M0 0 C2.97 0.495 2.97 0.495 6 1 C6.33 3.97 6.66 6.94 7 10 C4.3513141 6.80331012 2.06007659 3.60513403 0 0 Z " fill="#34A256" transform="translate(218,358)"/>
<path d="M0 0 C1.32 0.33 2.64 0.66 4 1 C2.61811547 4.21043882 1.07578097 6.04936365 -1.625 8.25 C-2.25664062 8.77078125 -2.88828125 9.2915625 -3.5390625 9.828125 C-4.02117187 10.21484375 -4.50328125 10.6015625 -5 11 C-4.6875 9.0625 -4.6875 9.0625 -4 7 C-3.01 6.67 -2.02 6.34 -1 6 C-1 5.34 -1 4.68 -1 4 C-0.34 4 0.32 4 1 4 C0.67 2.68 0.34 1.36 0 0 Z " fill="#239045" transform="translate(364,219)"/>
<path d="M0 0 C0.66 0.66 1.32 1.32 2 2 C1.625 5.125 1.625 5.125 1 8 C-0.32 7.67 -1.64 7.34 -3 7 C-2.67 5.35 -2.34 3.7 -2 2 C-1.34 2 -0.68 2 0 2 C0 1.34 0 0.68 0 0 Z " fill="#18A347" transform="translate(373,205)"/>
<path d="M0 0 C1.32 0.33 2.64 0.66 4 1 C4 1.66 4 2.32 4 3 C5.32 3.33 6.64 3.66 8 4 C8.33 5.65 8.66 7.3 9 9 C7.68103535 8.07161713 6.37001311 7.13194268 5.0625 6.1875 C4.33160156 5.66542969 3.60070312 5.14335938 2.84765625 4.60546875 C1 3 1 3 0 0 Z " fill="#48A568" transform="translate(262,71)"/>
<path d="M0 0 C1.32 0.33 2.64 0.66 4 1 C1.69 3.64 -0.62 6.28 -3 9 C-3.66 8.34 -4.32 7.68 -5 7 C-4.34 7 -3.68 7 -3 7 C-2.87625 6.21625 -2.7525 5.4325 -2.625 4.625 C-2 2 -2 2 0 0 Z " fill="#309E5E" transform="translate(263,451)"/>
<path d="M0 0 C2.875 0.1875 2.875 0.1875 6 1 C7.375 3.5625 7.375 3.5625 8 6 C7.34 6.66 6.68 7.32 6 8 C4.02 5.36 2.04 2.72 0 0 Z " fill="#2D9B54" transform="translate(231,449)"/>
<path d="M0 0 C0.66 0 1.32 0 2 0 C2.61875 0.94875 3.2375 1.8975 3.875 2.875 C5.87924473 5.82241872 6.74790731 6.83853833 10 8 C9.01 9.485 9.01 9.485 8 11 C6.29115995 9.37660195 4.62553283 7.70680947 3 6 C3 5.34 3 4.68 3 4 C2.34 4 1.68 4 1 4 C1 3.34 1 2.68 1 2 C0.34 1.67 -0.32 1.34 -1 1 C-0.67 0.67 -0.34 0.34 0 0 Z " fill="#319859" transform="translate(150,237)"/>
<path d="M0 0 C0.66 0.33 1.32 0.66 2 1 C1.67 2.32 1.34 3.64 1 5 C-0.32 5.33 -1.64 5.66 -3 6 C-3 6.66 -3 7.32 -3 8 C-4.32 7.67 -5.64 7.34 -7 7 C-6.38125 6.7525 -5.7625 6.505 -5.125 6.25 C-2.62985717 4.78226892 -2.09872287 3.62003145 -1 1 C-0.67 0.67 -0.34 0.34 0 0 Z " fill="#2FA365" transform="translate(258,207)"/>
<path d="M0 0 C0.33 1.32 0.66 2.64 1 4 C0.01 4.495 0.01 4.495 -1 5 C-2.13350534 7.01669827 -2.13350534 7.01669827 -3 9 C-3.99 9 -4.98 9 -6 9 C-5.52797514 4.75177626 -3.03344482 2.80010291 0 0 Z " fill="#26974B" transform="translate(210,67)"/>
<path d="M0 0 C1 2 1 2 0.0625 5.125 C-0.288125 6.07375 -0.63875 7.0225 -1 8 C-2.32 7.67 -3.64 7.34 -5 7 C-5 7.66 -5 8.32 -5 9 C-5.66 8.67 -6.32 8.34 -7 8 C-6.67 7.34 -6.34 6.68 -6 6 C-5.34 6 -4.68 6 -4 6 C-4 5.34 -4 4.68 -4 4 C-3.34 4 -2.68 4 -2 4 C-1.34 2.68 -0.68 1.36 0 0 Z " fill="#52B170" transform="translate(224,404)"/>
<path d="M0 0 C0.66 0.99 1.32 1.98 2 3 C1.67 3.99 1.34 4.98 1 6 C0.34 6 -0.32 6 -1 6 C-1 6.66 -1 7.32 -1 8 C-2.5 9.625 -2.5 9.625 -4 11 C-4.66 10.67 -5.32 10.34 -6 10 C-4.02 6.7 -2.04 3.4 0 0 Z " fill="#39A05C" transform="translate(266,342)"/>
<path d="M0 0 C-0.33 1.32 -0.66 2.64 -1 4 C-1.639375 4.103125 -2.27875 4.20625 -2.9375 4.3125 C-3.618125 4.539375 -4.29875 4.76625 -5 5 C-5.33 5.99 -5.66 6.98 -6 8 C-6.66 8 -7.32 8 -8 8 C-6.48291727 4.46014029 -4.24676932 0 0 0 Z " fill="#2F9B53" transform="translate(218,413)"/>
<path d="M0 0 C0.66 0 1.32 0 2 0 C2.33 3.3 2.66 6.6 3 10 C0.74754119 7.31158141 -0.88213958 5.35358125 -2 2 C-1.34 2 -0.68 2 0 2 C0 1.34 0 0.68 0 0 Z " fill="#42AD63" transform="translate(210,341)"/>
<path d="M0 0 C0.33 0.66 0.66 1.32 1 2 C0.0625 4.125 0.0625 4.125 -1 6 C-1.99 6 -2.98 6 -4 6 C-4.33 6.99 -4.66 7.98 -5 9 C-5.99 8.67 -6.98 8.34 -8 8 C-5.36 5.36 -2.72 2.72 0 0 Z " fill="#58B077" transform="translate(228,135)"/>
<path d="M0 0 C1.5 1.1875 1.5 1.1875 3 3 C3.1875 5.6875 3.1875 5.6875 3 8 C1.02 6.35 -0.96 4.7 -3 3 C-2.01 2.01 -1.02 1.02 0 0 Z " fill="#40AC64" transform="translate(213,424)"/>
<path d="M0 0 C1.33333333 2.66666667 2.66666667 5.33333333 4 8 C3.01 8 2.02 8 1 8 C1 7.34 1 6.68 1 6 C0.01 5.67 -0.98 5.34 -2 5 C-1.125 1.125 -1.125 1.125 0 0 Z " fill="#54B26E" transform="translate(124,300)"/>
<path d="M0 0 C0.33 0.99 0.66 1.98 1 3 C0.195625 3.61875 -0.60875 4.2375 -1.4375 4.875 C-4.03874519 6.74164041 -4.03874519 6.74164041 -5 9 C-6.32 8.67 -7.64 8.34 -9 8 C-7.23205273 6.04595302 -5.66195132 4.79878054 -3.375 3.4375 C-0.88809625 2.22087094 -0.88809625 2.22087094 0 0 Z " fill="#3AA25C" transform="translate(169,256)"/>
<path d="M0 0 C0.99 0 1.98 0 3 0 C3 0.66 3 1.32 3 2 C2.34 2 1.68 2 1 2 C1 2.66 1 3.32 1 4 C-0.96147874 5.38938077 -2.96166576 6.7260411 -5 8 C-5 7.01 -5 6.02 -5 5 C-4.01 4.67 -3.02 4.34 -2 4 C-2 3.34 -2 2.68 -2 2 C-1.34 2 -0.68 2 0 2 C0 1.34 0 0.68 0 0 Z " fill="#359C5B" transform="translate(341,245)"/>
<path d="M0 0 C4.1424367 1.38081223 5.32203099 3.59825558 8 7 C7.01 7.495 7.01 7.495 6 8 C6 7.34 6 6.68 6 6 C4.02 6 2.04 6 0 6 C0 4.02 0 2.04 0 0 Z " fill="#50AE6B" transform="translate(147,206)"/>
<path d="M0 0 C0.66 0.33 1.32 0.66 2 1 C-0.31 3.31 -2.62 5.62 -5 8 C-5.33 6.68 -5.66 5.36 -6 4 C-4.15840327 1.51384442 -2.99529289 0.99843096 0 0 Z " fill="#2B9451" transform="translate(310,184)"/>
<path d="M0 0 C1.32 0 2.64 0 4 0 C2.95125002 2.62187494 2.35068687 3.79371361 -0.125 5.25 C-0.74375 5.4975 -1.3625 5.745 -2 6 C-2.33 5.01 -2.66 4.02 -3 3 C-2.01 3 -1.02 3 0 3 C0 2.01 0 1.02 0 0 Z " fill="#269D54" transform="translate(227,162)"/>
<path d="M0 0 C2.64 0.99 5.28 1.98 8 3 C8 3.66 8 4.32 8 5 C7.01 5.33 6.02 5.66 5 6 C4.01 5.34 3.02 4.68 2 4 C2 3.34 2 2.68 2 2 C1.34 2 0.68 2 0 2 C0 1.34 0 0.68 0 0 Z " fill="#55AC72" transform="translate(311,120)"/>
<path d="M0 0 C0.33 0.66 0.66 1.32 1 2 C0.67 2.99 0.34 3.98 0 5 C-3.0625 6.1875 -3.0625 6.1875 -6 7 C-6 6.01 -6 5.02 -6 4 C-3.5625 2.375 -3.5625 2.375 -1 1 C-0.67 0.67 -0.34 0.34 0 0 Z " fill="#3F9F62" transform="translate(255,432)"/>
<path d="M0 0 C1.485 0.99 1.485 0.99 3 2 C3 2.66 3 3.32 3 4 C4.32 4 5.64 4 7 4 C6.67 4.66 6.34 5.32 6 6 C3.625 6.1875 3.625 6.1875 1 6 C0.34 5.01 -0.32 4.02 -1 3 C-0.67 2.01 -0.34 1.02 0 0 Z " fill="#11923D" transform="translate(200,258)"/>
<path d="M0 0 C3.82946843 1.45255699 5.12050295 3.42895561 7 7 C5.35 7 3.7 7 2 7 C1.34 4.69 0.68 2.38 0 0 Z " fill="#36A25B" transform="translate(186,244)"/>
<path d="M0 0 C0.33 0.99 0.66 1.98 1 3 C-0.65 4.65 -2.3 6.3 -4 8 C-4.66 7.34 -5.32 6.68 -6 6 C-4.02 4.02 -2.04 2.04 0 0 Z " fill="#5CB577" transform="translate(320,238)"/>
<path d="M0 0 C2.31 1.98 4.62 3.96 7 6 C6.67 6.99 6.34 7.98 6 9 C4 8 4 8 3 5 C2.01 4.34 1.02 3.68 0 3 C0 2.01 0 1.02 0 0 Z " fill="#2A9A4E" transform="translate(163,222)"/>
<path d="M0 0 C0.33 0.99 0.66 1.98 1 3 C-0.4375 5.1875 -0.4375 5.1875 -2 7 C-3.32 6.67 -4.64 6.34 -6 6 C-4.02 4.02 -2.04 2.04 0 0 Z " fill="#5CB87E" transform="translate(347,211)"/>
<path d="M0 0 C2.31 1.98 4.62 3.96 7 6 C5.68 6.33 4.36 6.66 3 7 C0 2.25 0 2.25 0 0 Z " fill="#349F5A" transform="translate(280,144)"/>
<path d="M0 0 C0.33 0 0.66 0 1 0 C2 7.625 2 7.625 2 11 C1.34 10.67 0.68 10.34 0 10 C-0.44921875 7.96875 -0.44921875 7.96875 -0.6875 5.5 C-0.77386719 4.6853125 -0.86023438 3.870625 -0.94921875 3.03125 C-0.96597656 2.3609375 -0.98273438 1.690625 -1 1 C-0.67 0.67 -0.34 0.34 0 0 Z " fill="#298F4B" transform="translate(260,116)"/>
<path d="M0 0 C2.31 1.98 4.62 3.96 7 6 C6.34 6.66 5.68 7.32 5 8 C5 7.34 5 6.68 5 6 C2.525 5.01 2.525 5.01 0 4 C0 2.68 0 1.36 0 0 Z " fill="#339F53" transform="translate(301,79)"/>
<path d="M0 0 C2.375 0.3125 2.375 0.3125 5 1 C5.66 1.99 6.32 2.98 7 4 C6.01 4.495 6.01 4.495 5 5 C2.375 3.6875 2.375 3.6875 0 2 C0 1.34 0 0.68 0 0 Z " fill="#33A358" transform="translate(252,32)"/>
<path d="M0 0 C-1.39332574 3.36720387 -2.9789286 4.9859524 -6 7 C-6 5.35 -6 3.7 -6 2 C-2.25 0 -2.25 0 0 0 Z " fill="#2C9652" transform="translate(284,431)"/>
<path d="M0 0 C1 4 1 4 1 6 C0.01 6.33 -0.98 6.66 -2 7 C-2.33 7.66 -2.66 8.32 -3 9 C-3.66 8.67 -4.32 8.34 -5 8 C-3.35 5.36 -1.7 2.72 0 0 Z " fill="#45A567" transform="translate(259,353)"/>
<path d="M0 0 C0.33 1.32 0.66 2.64 1 4 C0.01 4 -0.98 4 -2 4 C-2.66 5.32 -3.32 6.64 -4 8 C-4.66 7.34 -5.32 6.68 -6 6 C-4.02 4.02 -2.04 2.04 0 0 Z " fill="#59B77C" transform="translate(327,231)"/>
<path d="M0 0 C2.97 0.495 2.97 0.495 6 1 C6.33 2.98 6.66 4.96 7 7 C5.83040013 6.02433888 4.66438823 5.044375 3.5 4.0625 C2.8503125 3.51722656 2.200625 2.97195312 1.53125 2.41015625 C1.0259375 1.94480469 0.520625 1.47945312 0 1 C0 0.67 0 0.34 0 0 Z " fill="#3A9E56" transform="translate(142,231)"/>
<path d="M0 0 C0.33 0.66 0.66 1.32 1 2 C1.9590625 2.4640625 1.9590625 2.4640625 2.9375 2.9375 C5 4 5 4 7 7 C6.01 7.495 6.01 7.495 5 8 C4.34 7.34 3.68 6.68 3 6 C2.34 6 1.68 6 1 6 C1 5.34 1 4.68 1 4 C0.34 3.34 -0.32 2.68 -1 2 C-0.67 1.34 -0.34 0.68 0 0 Z " fill="#3BA15B" transform="translate(235,201)"/>
<path d="M0 0 C1.98 0.99 1.98 0.99 4 2 C4 2.66 4 3.32 4 4 C4.99 4.33 5.98 4.66 7 5 C6.01 5.33 5.02 5.66 4 6 C1.8125 4.75 1.8125 4.75 0 3 C0 2.01 0 1.02 0 0 Z " fill="#399B58" transform="translate(213,180)"/>
<path d="M0 0 C0 3 0 3 -2.5 5.6875 C-3.325 6.450625 -4.15 7.21375 -5 8 C-4.75 5.125 -4.75 5.125 -4 2 C-1.9375 0.625 -1.9375 0.625 0 0 Z " fill="#27994B" transform="translate(239,152)"/>
<path d="M0 0 C1.98 1.65 3.96 3.3 6 5 C5.67 5.66 5.34 6.32 5 7 C4.01 7 3.02 7 2 7 C1.34 4.69 0.68 2.38 0 0 Z " fill="#28964B" transform="translate(314,92)"/>
<path d="M0 0 C2.31 1.98 4.62 3.96 7 6 C5.68 6.33 4.36 6.66 3 7 C0 2.25 0 2.25 0 0 Z " fill="#4BAA69" transform="translate(288,66)"/>
<path d="M0 0 C0.33 0.99 0.66 1.98 1 3 C-0.28965176 4.37562854 -1.62689293 5.70766393 -3 7 C-3.66 7 -4.32 7 -5 7 C-4.34 5.35 -3.68 3.7 -3 2 C-2.01 2 -1.02 2 0 2 C0 1.34 0 0.68 0 0 Z " fill="#249B49" transform="translate(256,360)"/>
<path d="M0 0 C4.875 4.625 4.875 4.625 6 8 C5.01 8 4.02 8 3 8 C3 7.01 3 6.02 3 5 C2.01 4.67 1.02 4.34 0 4 C0 2.68 0 1.36 0 0 Z " fill="#5BB576" transform="translate(236,347)"/>
<path d="M0 0 C1 2 1 2 0.375 4.0625 C-1 6 -1 6 -3.625 6.75 C-4.800625 6.87375 -4.800625 6.87375 -6 7 C-4.02 4.69 -2.04 2.38 0 0 Z " fill="#6EBD88" transform="translate(138,286)"/>
<path d="M0 0 C1.32 0.33 2.64 0.66 4 1 C4 1.66 4 2.32 4 3 C4.66 3 5.32 3 6 3 C6 3.66 6 4.32 6 5 C6.99 5.33 7.98 5.66 9 6 C8.34 6.66 7.68 7.32 7 8 C7 7.34 7 6.68 7 6 C6.34 6 5.68 6 5 6 C5 5.34 5 4.68 5 4 C4.360625 3.71125 3.72125 3.4225 3.0625 3.125 C1 2 1 2 0 0 Z " fill="#42A363" transform="translate(129,218)"/>
<path d="M0 0 C0.33 0.99 0.66 1.98 1 3 C-1.40339772 5.76390737 -2.16263678 6.04065919 -6 7 C-4.02 4.69 -2.04 2.38 0 0 Z " fill="#5DB77A" transform="translate(340,218)"/>
<path d="M0 0 C2.6875 0.3125 2.6875 0.3125 5 1 C5.33 1.99 5.66 2.98 6 4 C5.071875 3.835 4.14375 3.67 3.1875 3.5 C0.04378647 2.92251612 0.04378647 2.92251612 -3 3 C-1.8125 1.4375 -1.8125 1.4375 0 0 Z " fill="#4DB37F" transform="translate(135,196)"/>
<path d="M0 0 C-2.97 2.475 -2.97 2.475 -6 5 C-6.33 3.68 -6.66 2.36 -7 1 C-3.375 -1.125 -3.375 -1.125 0 0 Z " fill="#29974F" transform="translate(219,91)"/>
<path d="M0 0 C0.33 1.32 0.66 2.64 1 4 C-0.32 4 -1.64 4 -3 4 C-3.66 3.01 -4.32 2.02 -5 1 C-2 0 -2 0 0 0 Z " fill="#319A51" transform="translate(246,459)"/>
<path d="M0 0 C2.475 0.495 2.475 0.495 5 1 C5.33 1.99 5.66 2.98 6 4 C5.34 4.66 4.68 5.32 4 6 C2.68 4.02 1.36 2.04 0 0 Z " fill="#3EA15F" transform="translate(226,443)"/>
<path d="M0 0 C2.97 0.495 2.97 0.495 6 1 C6 1.99 6 2.98 6 4 C5.21625 3.814375 4.4325 3.62875 3.625 3.4375 C1.02910225 2.74037734 1.02910225 2.74037734 -1 4 C-0.67 2.68 -0.34 1.36 0 0 Z " fill="#35A455" transform="translate(248,407)"/>
<path d="M0 0 C0.66 0 1.32 0 2 0 C2.33 0.99 2.66 1.98 3 3 C1.0625 5.6875 1.0625 5.6875 -1 8 C-1.125 2.25 -1.125 2.25 0 0 Z " fill="#41A762" transform="translate(269,371)"/>
<path d="M0 0 C-2.97 2.475 -2.97 2.475 -6 5 C-6 3.35 -6 1.7 -6 0 C-3 -1 -3 -1 0 0 Z " fill="#47A762" transform="translate(371,312)"/>
<path d="M0 0 C2.475 0.495 2.475 0.495 5 1 C5 1.66 5 2.32 5 3 C4.34 3 3.68 3 3 3 C2.34 4.32 1.68 5.64 1 7 C0.67 4.69 0.34 2.38 0 0 Z " fill="#2D9D52" transform="translate(143,305)"/>
<path d="M0 0 C0 2 0 4 0 6 C-0.99 6.33 -1.98 6.66 -3 7 C-3.66 6.34 -4.32 5.68 -5 5 C-3.35 3.35 -1.7 1.7 0 0 Z " fill="#50B174" transform="translate(130,294)"/>
<path d="M0 0 C-0.680625 0.61875 -0.680625 0.61875 -1.375 1.25 C-3.05950374 3.06408095 -3.99265971 4.75285627 -5 7 C-5.33 4.69 -5.66 2.38 -6 0 C-3 -1 -3 -1 0 0 Z " fill="#46AF67" transform="translate(265,233)"/>
<path d="M0 0 C0.66 0.33 1.32 0.66 2 1 C2 2.32 2 3.64 2 5 C0.35 4.67 -1.3 4.34 -3 4 C-3 3.01 -3 2.02 -3 1 C-2.01 0.67 -1.02 0.34 0 0 Z " fill="#10973F" transform="translate(262,66)"/>
<path d="M0 0 C0.66 0.33 1.32 0.66 2 1 C1.625 3.4375 1.625 3.4375 1 6 C0.01 6.495 0.01 6.495 -1 7 C-1 5.68 -1 4.36 -1 3 C-1.66 2.67 -2.32 2.34 -3 2 C-2.01 1.34 -1.02 0.68 0 0 Z " fill="#229D48" transform="translate(236,67)"/>
<path d="" fill="#FFFFFF" transform="translate(0,0)"/>
<path d="" fill="#FFFFFF" transform="translate(0,0)"/>
<path d="" fill="#FFFFFF" transform="translate(0,0)"/>
<path d="" fill="#FFFFFF" transform="translate(0,0)"/>
<path d="" fill="#FFFFFF" transform="translate(0,0)"/>
<path d="" fill="#FFFFFF" transform="translate(0,0)"/>
<path d="" fill="#FFFFFF" transform="translate(0,0)"/>
<path d="" fill="#FFFFFF" transform="translate(0,0)"/>
<path d="" fill="#FFFFFF" transform="translate(0,0)"/>
<path d="" fill="#FFFFFF" transform="translate(0,0)"/>
<path d="" fill="#FFFFFF" transform="translate(0,0)"/>
<path d="" fill="#FFFFFF" transform="translate(0,0)"/>
<path d="" fill="#FFFFFF" transform="translate(0,0)"/>
<path d="" fill="#FFFFFF" transform="translate(0,0)"/>
<path d="" fill="#FFFFFF" transform="translate(0,0)"/>
<path d="" fill="#FFFFFF" transform="translate(0,0)"/>
<path d="" fill="#FFFFFF" transform="translate(0,0)"/>
<path d="" fill="#FFFFFF" transform="translate(0,0)"/>
<path d="" fill="#FFFFFF" transform="translate(0,0)"/>
<path d="" fill="#FFFFFF" transform="translate(0,0)"/>
<path d="" fill="#FFFFFF" transform="translate(0,0)"/>
<path d="" fill="#FFFFFF" transform="translate(0,0)"/>
<path d="" fill="#FFFFFF" transform="translate(0,0)"/>
<path d="" fill="#FFFFFF" transform="translate(0,0)"/>
<path d="" fill="#FFFFFF" transform="translate(0,0)"/>
<path d="" fill="#FFFFFF" transform="translate(0,0)"/>
<path d="" fill="#FFFFFF" transform="translate(0,0)"/>
<path d="" fill="#FFFFFF" transform="translate(0,0)"/>
<path d="" fill="#FFFFFF" transform="translate(0,0)"/>
<path d="" fill="#FFFFFF" transform="translate(0,0)"/>
<path d="" fill="#FFFFFF" transform="translate(0,0)"/>
<path d="" fill="#FFFFFF" transform="translate(0,0)"/>
<path d="" fill="#FFFFFF" transform="translate(0,0)"/>
<path d="" fill="#FFFFFF" transform="translate(0,0)"/>
<path d="" fill="#FFFFFF" transform="translate(0,0)"/>
<path d="" fill="#FFFFFF" transform="translate(0,0)"/>
<path d="" fill="#FFFFFF" transform="translate(0,0)"/>
<path d="" fill="#FFFFFF" transform="translate(0,0)"/>
<path d="" fill="#FFFFFF" transform="translate(0,0)"/>
<path d="" fill="#FFFFFF" transform="translate(0,0)"/>
<path d="" fill="#FFFFFF" transform="translate(0,0)"/>
<path d="" fill="#FFFFFF" transform="translate(0,0)"/>
<path d="" fill="#FFFFFF" transform="translate(0,0)"/>
<path d="" fill="#FFFFFF" transform="translate(0,0)"/>
<path d="" fill="#FFFFFF" transform="translate(0,0)"/>
<path d="" fill="#FFFFFF" transform="translate(0,0)"/>
<path d="" fill="#FFFFFF" transform="translate(0,0)"/>
<path d="" fill="#FFFFFF" transform="translate(0,0)"/>
<path d="" fill="#FFFFFF" transform="translate(0,0)"/>
<path d="" fill="#FFFFFF" transform="translate(0,0)"/>
<path d="" fill="#FFFFFF" transform="translate(0,0)"/>
<path d="" fill="#FFFFFF" transform="translate(0,0)"/>
<path d="" fill="#FFFFFF" transform="translate(0,0)"/>
<path d="" fill="#FFFFFF" transform="translate(0,0)"/>
<path d="" fill="#FFFFFF" transform="translate(0,0)"/>
<path d="" fill="#FFFFFF" transform="translate(0,0)"/>
<path d="" fill="#FFFFFF" transform="translate(0,0)"/>
<path d="" fill="#FFFFFF" transform="translate(0,0)"/>
<path d="" fill="#FFFFFF" transform="translate(0,0)"/>
<path d="" fill="#FFFFFF" transform="translate(0,0)"/>
<path d="" fill="#FFFFFF" transform="translate(0,0)"/>
<path d="" fill="#FFFFFF" transform="translate(0,0)"/>
<path d="" fill="#FFFFFF" transform="translate(0,0)"/>
<path d="" fill="#FFFFFF" transform="translate(0,0)"/>
<path d="" fill="#FFFFFF" transform="translate(0,0)"/>
<path d="" fill="#FFFFFF" transform="translate(0,0)"/>
</svg>
