<?xml version="1.0" encoding="UTF-8"?>
<svg version="1.1" xmlns="http://www.w3.org/2000/svg" width="500" height="500">
<path d="M0 0 C0.99 0 1.98 0 3 0 C3.99 2.97 3.99 2.97 5 6 C5.66 6 6.32 6 7 6 C7.598125 7.134375 8.19625 8.26875 8.8125 9.4375 C11.53204162 14.33736378 14.52536263 19.04341939 17.5625 23.75 C18.03341064 24.48275146 18.50432129 25.21550293 18.98950195 25.97045898 C21.48966969 29.81933784 24.12326149 33.41964363 27 37 C27.80834876 38.37444789 28.58138201 39.77046041 29.3125 41.1875 C31.1384184 44.57131207 33.13121553 47.69027642 35.375 50.8125 C46 65.6875 46 65.6875 46 70 C46.66 70 47.32 70 48 70 C49.21337891 71.73486328 49.21337891 71.73486328 50.6015625 74.1953125 C54.30313825 80.57261796 58.3255882 86.71441799 62.375 92.875 C63.09171875 93.96941406 63.8084375 95.06382813 64.546875 96.19140625 C65.26101563 97.28066406 65.97515625 98.36992188 66.7109375 99.4921875 C67.4131543 100.56694336 68.11537109 101.64169922 68.83886719 102.74902344 C70.31903122 104.97562355 71.81408726 107.1706473 73.35644531 109.35253906 C74.09733398 110.4144043 74.83822266 111.47626953 75.6015625 112.5703125 C76.27783691 113.51922363 76.95411133 114.46813477 77.65087891 115.44580078 C79 118 79 118 78 122 C56.55 122 35.1 122 13 122 C13.33 137.84 13.66 153.68 14 170 C14.66 170 15.32 170 16 170 C16 170.66 16 171.32 16 172 C17.98 172.99 17.98 172.99 20 174 C20 174.66 20 175.32 20 176 C20.66 176 21.32 176 22 176 C22 176.66 22 177.32 22 178 C22.66 178 23.32 178 24 178 C24 178.66 24 179.32 24 180 C24.66 180 25.32 180 26 180 C27.48046875 181.5390625 27.48046875 181.5390625 29.1875 183.625 C32.1100663 187.08787267 35.15830902 189.97510908 38.71484375 192.7734375 C39.13894531 193.17820313 39.56304687 193.58296875 40 194 C40 194.66 40 195.32 40 196 C40.66 196 41.32 196 42 196 C43.41015625 197.44458008 43.41015625 197.44458008 45.0625 199.45703125 C47.71899962 202.58544535 50.46574139 205.49320736 53.4375 208.32421875 C54.18644531 209.04287109 54.93539062 209.76152344 55.70703125 210.50195312 C57.25793275 211.9801974 58.81813905 213.44873085 60.38671875 214.90820312 C61.12535156 215.62298828 61.86398437 216.33777344 62.625 217.07421875 C63.29789063 217.70932373 63.97078125 218.34442871 64.6640625 218.9987793 C66 221 66 221 66.05664062 223.37744141 C64.60947198 226.96928187 62.21669799 229.26012013 59.46875 231.88671875 C58.9176355 232.42980179 58.366521 232.97288483 57.79870605 233.53242493 C56.04169359 235.2605052 54.27157751 236.97436578 52.5 238.6875 C50.73110878 240.41388596 48.96505435 242.14308303 47.20129395 243.87471008 C46.10418377 244.95011823 45.00361075 246.02200715 43.89929199 247.0900116 C41.09075242 249.76877498 41.09075242 249.76877498 39 253 C38.34 253 37.68 253 37 253 C37 253.66 37 254.32 37 255 C36.34 255 35.68 255 35 255 C35 255.66 35 256.32 35 257 C34.34 257 33.68 257 33 257 C33 257.66 33 258.32 33 259 C32.34 259 31.68 259 31 259 C31 259.66 31 260.32 31 261 C30.34 261 29.68 261 29 261 C28.7074231 261.82624878 28.7074231 261.82624878 28.40893555 262.66918945 C26.77902774 265.36555573 24.71559958 266.85634101 22.26652527 268.78669739 C17.26703023 272.94841117 13.84659616 276.68667189 12.84130859 283.27587891 C12.35252 289.30821688 12.50816568 295.26384406 12.6875 301.3125 C12.790625 308.469375 12.89375 315.62625 13 323 C34.45 323 55.9 323 78 323 C78.33 324.32 78.66 325.64 79 327 C77.25 329.375 77.25 329.375 75 332 C73.95548562 333.97711651 72.94301862 335.97250996 72 338 C71.34 338 70.68 338 70 338 C69.814375 338.78375 69.62875 339.5675 69.4375 340.375 C67.80146227 344.50066037 65.58222712 347.58529406 62.9921875 351.1640625 C60.86777844 354.18822128 58.92552466 357.28323586 57 360.4375 C56.33742188 361.52289063 55.67484375 362.60828125 54.9921875 363.7265625 C54.33476562 364.80679687 53.67734375 365.88703125 53 367 C51.71641498 369.10910636 50.42530809 371.21366246 49.125 373.3125 C48.57070313 374.21613281 48.01640625 375.11976563 47.4453125 376.05078125 C46.96835937 376.69402344 46.49140625 377.33726562 46 378 C45.34 378 44.68 378 44 378 C43.79246094 378.79921875 43.58492188 379.5984375 43.37109375 380.421875 C41.5548912 385.16159448 38.88516069 389.05191603 36.0625 393.25 C31.68300146 399.86513985 27.40617606 406.51661266 23.3125 413.3125 C19.48831561 419.64787097 15.51959341 425.85609164 11.34692383 431.96801758 C8.6853568 435.88360837 6.32368471 439.88051648 4 444 C3.34 444.99 2.68 445.98 2 447 C1.34 447 0.68 447 0 447 C-1.55165724 444.75906075 -2.97457773 442.52144627 -4.375 440.1875 C-5.28060831 438.70794038 -6.18688602 437.22879032 -7.09375 435.75 C-7.56941406 434.97011719 -8.04507813 434.19023437 -8.53515625 433.38671875 C-10.94347257 429.46276869 -13.41023013 425.57614413 -15.875 421.6875 C-16.8882108 420.08605768 -17.90122976 418.48449396 -18.9140625 416.8828125 C-19.42098633 416.08133789 -19.92791016 415.27986328 -20.45019531 414.45410156 C-22.0196408 411.96889898 -23.58461167 409.48092954 -25.1484375 406.9921875 C-26.18215427 405.3488719 -27.2160064 403.70564143 -28.25 402.0625 C-28.7464502 401.27254639 -29.24290039 400.48259277 -29.75439453 399.66870117 C-33.2658586 394.1029311 -36.90165533 388.64478588 -40.671875 383.25 C-42 381 -42 381 -42 378 C-42.66 378 -43.32 378 -44 378 C-45.24453408 376.21860809 -46.39266265 374.36976635 -47.5 372.5 C-48.21669196 371.30423409 -48.93417646 370.10894292 -49.65234375 368.9140625 C-50.03245605 368.27758789 -50.41256836 367.64111328 -50.80419922 366.98535156 C-52.84940652 363.58975626 -54.95683532 360.23332071 -57.0625 356.875 C-57.48764893 356.19614746 -57.91279785 355.51729492 -58.35083008 354.81787109 C-59.18230336 353.49091219 -60.01423848 352.16424254 -60.84667969 350.83789062 C-61.88096742 349.18968613 -62.91326946 347.54023596 -63.9453125 345.890625 C-67.34246829 340.49783061 -70.89096581 335.29271155 -74.71484375 330.19140625 C-76 328 -76 328 -76 324 C-71.94584944 323.23739796 -68.13333036 322.88105183 -64.01049805 322.90234375 C-62.27421394 322.90729858 -62.27421394 322.90729858 -60.50285339 322.91235352 C-59.26827896 322.92065186 -58.03370453 322.9289502 -56.76171875 322.9375 C-54.84695488 322.94317993 -54.84695488 322.94317993 -52.89350891 322.94897461 C-48.82480385 322.96117588 -44.75616994 322.97962729 -40.6875 323 C-35.31641125 323.02676805 -29.94535339 323.0465072 -24.57421875 323.0625 C-23.32952316 323.07079834 -22.08482758 323.07909668 -20.80241394 323.08764648 C-19.66065201 323.09094971 -18.51889008 323.09425293 -17.3425293 323.09765625 C-16.33248337 323.10289307 -15.32243744 323.10812988 -14.28178406 323.11352539 C-12.03383237 323.25753106 -12.03383237 323.25753106 -11 322 C-10.55946993 316.05732405 -10.4286564 310.11420634 -10.3203125 304.15722656 C-10.27383812 302.15301877 -10.20584824 300.14918202 -10.11523438 298.14648438 C-9.1329084 286.04618041 -9.1329084 286.04618041 -13.50195312 275.23339844 C-16.08104588 272.49278814 -19.01623066 270.28649538 -22 268 C-22 267.34 -22 266.68 -22 266 C-22.66 266 -23.32 266 -24 266 C-24 265.34 -24 264.68 -24 264 C-24.99 263.67 -25.98 263.34 -27 263 C-27 262.34 -27 261.68 -27 261 C-27.66 261 -28.32 261 -29 261 C-29 260.34 -29 259.68 -29 259 C-29.66 259 -30.32 259 -31 259 C-32.36176922 257.35648543 -33.68962066 255.68477344 -35 254 C-36.64953789 252.31283007 -38.31584509 250.65219173 -40 249 C-43.10908643 245.94244739 -46.21199128 242.87874896 -49.3125 239.8125 C-50.14845703 238.99330078 -50.98441406 238.17410156 -51.84570312 237.33007812 C-52.63525391 236.54697266 -53.42480469 235.76386719 -54.23828125 234.95703125 C-54.96055908 234.24522705 -55.68283691 233.53342285 -56.42700195 232.80004883 C-58 231 -58 231 -58 229 C-58.66 229 -59.32 229 -60 229 C-62.1875 227.3125 -62.1875 227.3125 -64 225 C-63.75 222.25 -63.75 222.25 -63 220 C-62.34 220 -61.68 220 -61 220 C-60.67 219.01 -60.34 218.02 -60 217 C-59.34 217 -58.68 217 -58 217 C-57.78698242 216.46028564 -57.57396484 215.92057129 -57.35449219 215.36450195 C-55.5054506 212.13667792 -52.96922273 209.74318445 -50.328125 207.16796875 C-49.76808777 206.61313309 -49.20805054 206.05829742 -48.63104248 205.48664856 C-46.84205958 203.71543361 -45.04654861 201.95103799 -43.25 200.1875 C-41.46856491 198.43386961 -39.68867929 196.67873753 -37.9118042 194.92048645 C-36.80823951 193.82897445 -35.70201568 192.74014143 -34.59259033 191.65458679 C-31.26492522 188.36923357 -28.22283881 184.95614495 -25.28973389 181.31221008 C-24.65131561 180.66266609 -24.65131561 180.66266609 -24 180 C-23.34 180 -22.68 180 -22 180 C-22 179.34 -22 178.68 -22 178 C-21.34 178 -20.68 178 -20 178 C-20 177.34 -20 176.68 -20 176 C-19.34 176 -18.68 176 -18 176 C-18 175.34 -18 174.68 -18 174 C-17.34 174 -16.68 174 -16 174 C-16 173.34 -16 172.68 -16 172 C-15.34 172 -14.68 172 -14 172 C-14 171.34 -14 170.68 -14 170 C-13.34 170 -12.68 170 -12 170 C-11.17255033 164.13423582 -10.80213629 158.38834128 -10.68359375 152.46875 C-10.66494263 151.69047852 -10.6462915 150.91220703 -10.6270752 150.11035156 C-10.559468 147.24033499 -10.49888206 144.37015646 -10.4375 141.5 C-10.293125 135.065 -10.14875 128.63 -10 122 C-31.78 122 -53.56 122 -76 122 C-77 119 -77 119 -75.98828125 116.96875 C-75.43527344 116.1540625 -74.88226563 115.339375 -74.3125 114.5 C-73.66539062 113.52417969 -73.01828125 112.54835938 -72.3515625 111.54296875 C-71.98063477 110.98786621 -71.60970703 110.43276367 -71.22753906 109.86083984 C-68.82270138 106.21532019 -66.51400515 102.50827934 -64.1875 98.8125 C-63.42070923 97.60146606 -63.42070923 97.60146606 -62.63842773 96.3659668 C-60.08744322 92.33441088 -57.55838211 88.29186752 -55.07421875 84.21875 C-54.61829346 83.47520264 -54.16236816 82.73165527 -53.69262695 81.96557617 C-52.82962032 80.55537505 -51.97244928 79.14158214 -51.12182617 77.72387695 C-50.13469097 76.11518912 -49.07444329 74.55173583 -48 73 C-47.34 73 -46.68 73 -46 73 C-46 72.01 -46 71.02 -46 70 C-45.34 70 -44.68 70 -44 70 C-43.89429688 69.43667969 -43.78859375 68.87335938 -43.6796875 68.29296875 C-42.87784095 65.58788871 -41.67413221 63.67325889 -40.125 61.3125 C-39.49078125 60.33796875 -38.8565625 59.3634375 -38.203125 58.359375 C-37.85056641 57.82248047 -37.49800781 57.28558594 -37.13476562 56.73242188 C-35.93082216 54.8943877 -34.73776005 53.04964505 -33.546875 51.203125 C-30.70508506 46.79742536 -27.85315173 42.3983478 -25 38 C-24.44908691 37.15034668 -23.89817383 36.30069336 -23.33056641 35.42529297 C-21.61697165 32.78303412 -19.90240553 30.14140827 -18.1875 27.5 C-17.66075684 26.68797119 -17.13401367 25.87594238 -16.59130859 25.03930664 C-13.51087615 20.29819957 -10.38709517 15.59297256 -7.19262695 10.92773438 C-5.84218232 8.91021204 -5.84218232 8.91021204 -5 6 C-4.34 6 -3.68 6 -3 6 C-2.5359375 4.7934375 -2.5359375 4.7934375 -2.0625 3.5625 C-1 1 -1 1 0 0 Z M0 45 C-1.42843869 46.97246109 -2.7254257 48.93064482 -4 51 C-4.36254883 51.57862793 -4.72509766 52.15725586 -5.09863281 52.75341797 C-6.28017388 54.64439516 -7.45290908 56.54065256 -8.625 58.4375 C-12.55077486 64.77508706 -16.61564648 71.00000695 -20.86376953 77.12670898 C-22.83241675 80.01413817 -24.50522258 82.49315653 -25 86 C-25.66 86 -26.32 86 -27 86 C-28.56093208 88.18034492 -28.56093208 88.18034492 -30.0625 90.875 C-30.85333984 92.23238281 -30.85333984 92.23238281 -31.66015625 93.6171875 C-32.47185168 95.06072748 -33.25937093 96.51874185 -34 98 C-26.30803126 99.04808061 -18.75206569 99.12927676 -10.99609375 99.09765625 C-9.67706558 99.0962413 -8.35803741 99.09482635 -6.9990387 99.09336853 C-3.52210534 99.08958243 -0.04521493 99.07978636 3.43170166 99.06866455 C6.99157124 99.0583656 10.55144788 99.05385288 14.11132812 99.04882812 C21.07423619 99.03815988 28.03711603 99.02113145 35 99 C34.28749875 94.98637253 33.23054293 92.40779819 30.96484375 88.99609375 C30.33304199 88.03429199 29.70124023 87.07249023 29.05029297 86.08154297 C28.37369629 85.06463379 27.69709961 84.04772461 27 83 C25.6251327 80.88747935 24.25146098 78.77418017 22.87890625 76.66015625 C21.44080628 74.46047831 20.00199714 72.26126386 18.5625 70.0625 C17.85029297 68.97259766 17.13808594 67.88269531 16.40429688 66.75976562 C14.9835945 64.58806527 13.55998067 62.41826645 12.13330078 60.25048828 C10.66288099 58.01002489 9.20312088 55.7649346 7.75341797 53.51123047 C7.03943848 52.41311035 6.32545898 51.31499023 5.58984375 50.18359375 C4.94781006 49.1877124 4.30577637 48.19183105 3.64428711 47.16577148 C3.10167236 46.45106689 2.55905762 45.7363623 2 45 C1.34 45 0.68 45 0 45 Z M-1.5078125 190.2421875 C-2.04148437 190.78101563 -2.57515625 191.31984375 -3.125 191.875 C-3.66382813 192.40867188 -4.20265625 192.94234375 -4.7578125 193.4921875 C-6.21194914 194.93167265 -6.21194914 194.93167265 -6 197 C-6.556875 197.226875 -7.11375 197.45375 -7.6875 197.6875 C-11.54169266 199.87501475 -14.24244622 203.02251125 -16.9375 206.5 C-18.88637092 208.86226778 -20.95508943 210.62832584 -23.33984375 212.53125 C-26.55288823 215.37384936 -29.2480284 218.71880309 -32 222 C-30.58261511 225.25207092 -28.87473588 227.31361067 -26.3125 229.75 C-23.7235768 232.26982383 -21.26228487 234.79805374 -18.9375 237.5625 C-15.20585454 241.86690964 -11.28047067 245.97694578 -7.3125 250.0625 C-6.65822021 250.75480713 -6.00394043 251.44711426 -5.32983398 252.16040039 C-4.70149658 252.79969482 -4.07315918 253.43898926 -3.42578125 254.09765625 C-2.58140503 254.97176147 -2.58140503 254.97176147 -1.7199707 255.86352539 C-0.02903311 257.2544647 -0.02903311 257.2544647 2.21411133 256.68139648 C2.80345459 256.45653564 3.39279785 256.2316748 4 256 C4 255.34 4 254.68 4 254 C4.66 254 5.32 254 6 254 C7.33000656 252.68416327 7.33000656 252.68416327 8.75 250.875 C12.29379281 246.6909421 16.10154007 242.84822997 20 239 C24.88094297 234.17178922 29.62302871 229.29843893 34 224 C32.58195104 219.48802605 30.36590069 217.25794173 27 214 C26.05375937 213.04843216 25.11022525 212.09416655 24.16918945 211.13745117 C21.46794632 208.40088687 18.76084284 205.6702083 16.05151367 202.94165039 C14.88503189 201.76501532 13.72033729 200.586606 12.55737305 199.40649414 C10.87231942 197.69731087 9.18100093 195.99455571 7.48828125 194.29296875 C6.96744461 193.76180954 6.44660797 193.23065033 5.9099884 192.68339539 C4.64405856 191.41707062 3.32626653 190.20298539 2 189 C-0.06832735 188.78805086 -0.06832735 188.78805086 -1.5078125 190.2421875 Z M-34 346 C-32.52735984 349.68160041 -31.24977175 352.40824934 -29.1640625 355.66796875 C-28.60017822 356.55250732 -28.03629395 357.4370459 -27.45532227 358.34838867 C-26.85131592 359.28529541 -26.24730957 360.22220215 -25.625 361.1875 C-25.00230225 362.15985596 -24.37960449 363.13221191 -23.73803711 364.1340332 C-19.25813363 371.10688259 -14.69460731 378.02122584 -10.07568359 384.90258789 C-6.28962326 390.54421822 -2.60347682 396.23951241 1 402 C4.60324832 397.73544964 7.50091176 393.16764659 10.4375 388.4375 C14.85774404 381.37752208 19.3310307 374.35603942 23.875 367.375 C24.39763428 366.57118896 24.92026855 365.76737793 25.45874023 364.93920898 C25.96477783 364.16262939 26.47081543 363.3860498 26.9921875 362.5859375 C27.48299805 361.83151367 27.97380859 361.07708984 28.47949219 360.29980469 C29.54058626 358.69487434 30.62099234 357.10261835 31.71582031 355.52050781 C32.26592773 354.72225586 32.81603516 353.92400391 33.3828125 353.1015625 C33.88441895 352.38564941 34.38602539 351.66973633 34.90283203 350.93212891 C36.24689709 348.93552951 36.24689709 348.93552951 36 346 C12.9 346 -10.2 346 -34 346 Z " fill="#159B3C" transform="translate(249,27)"/>
<path d="M0 0 C4.81385859 0.43918925 6.79592072 2.36416361 10.0625 5.8125 C10.89910156 6.68519531 11.73570312 7.55789062 12.59765625 8.45703125 C13.39042969 9.29621094 14.18320313 10.13539063 15 11 C16.32882887 12.33782263 17.66049393 13.67286812 19 15 C16.5357143 19.50222439 13.42690828 23.16432868 10.0625 27 C9.01095263 28.20766668 7.96015675 29.41598816 6.91015625 30.625 C6.4114502 31.19605469 5.91274414 31.76710937 5.39892578 32.35546875 C4.13331435 33.84328003 2.93514459 35.38781849 1.74609375 36.9375 C1.16988281 37.618125 0.59367187 38.29875 0 39 C-0.66 39 -1.32 39 -2 39 C-2.25910156 39.5775 -2.51820313 40.155 -2.78515625 40.75 C-4.09337457 43.17293811 -5.58865731 44.96428504 -7.4375 47 C-9.27897059 49.03635624 -11.00695871 51.00980004 -12.59765625 53.25 C-13.06042969 53.8275 -13.52320313 54.405 -14 55 C-14.66 55 -15.32 55 -16 55 C-16.26554687 55.58523437 -16.53109375 56.17046875 -16.8046875 56.7734375 C-18.03477693 59.06478055 -19.37306055 60.71008944 -21.125 62.625 C-23.95500535 65.79389254 -26.69725144 69.01347525 -29.375 72.3125 C-30.04273438 73.13363281 -30.71046875 73.95476562 -31.3984375 74.80078125 C-33.16687636 76.99588315 -33.16687636 76.99588315 -34 80 C-33.484375 80.495 -32.96875 80.99 -32.4375 81.5 C-29.78907016 84.2163383 -27.29844377 87.03433064 -24.81640625 89.90234375 C-23.62536842 91.27780034 -22.425109 92.64533716 -21.21484375 94.00390625 C-20.66957031 94.62136719 -20.12429687 95.23882812 -19.5625 95.875 C-19.06878906 96.42929687 -18.57507813 96.98359375 -18.06640625 97.5546875 C-17 99 -17 99 -17 101 C-16.34 101 -15.68 101 -15 101 C-13.34375 102.609375 -13.34375 102.609375 -11.5 104.75 C-10.58734375 105.79414063 -10.58734375 105.79414063 -9.65625 106.859375 C-8.12023037 108.84460792 -7.0276034 110.71872045 -6 113 C-5.34 113 -4.68 113 -4 113 C-2.73828125 114.46875 -2.73828125 114.46875 -1.3125 116.5 C1.45944086 120.34649571 4.47071381 123.84913059 7.6796875 127.3359375 C9 129 9 129 9 131 C9.99 131.33 10.98 131.66 12 132 C13.82421875 134.06640625 13.82421875 134.06640625 15.6875 136.5625 C16.31011719 137.38878906 16.93273437 138.21507812 17.57421875 139.06640625 C18.04472656 139.70449219 18.51523438 140.34257812 19 141 C17.58911589 144.30653354 15.94468631 146.1547817 13.1875 148.4375 C10.72196811 150.50622839 8.41799373 152.56013615 6.25 154.9375 C4 157 4 157 0 157 C-1.703125 155.5390625 -1.703125 155.5390625 -3.25 153.625 C-3.77078125 152.99851562 -4.2915625 152.37203125 -4.828125 151.7265625 C-6 150 -6 150 -6 148 C-6.66 148 -7.32 148 -8 148 C-9.56432787 146.30725716 -11.05328572 144.54430148 -12.5 142.75 C-13.2940625 141.77546875 -14.088125 140.8009375 -14.90625 139.796875 C-16.58748034 137.55105238 -17.88135899 135.5534197 -19 133 C-19.66 133 -20.32 133 -21 133 C-25 128.52941176 -25 128.52941176 -25 126 C-25.66 126 -26.32 126 -27 126 C-28.56432787 124.30725716 -30.05328572 122.54430148 -31.5 120.75 C-32.2940625 119.77546875 -33.088125 118.8009375 -33.90625 117.796875 C-35.58748034 115.55105238 -36.88135899 113.5534197 -38 111 C-38.66 111 -39.32 111 -40 111 C-41.56432787 109.30725716 -43.05328572 107.54430148 -44.5 105.75 C-45.69109375 104.28820312 -45.69109375 104.28820312 -46.90625 102.796875 C-48.58748034 100.55105238 -49.88135899 98.5534197 -51 96 C-51.66 96 -52.32 96 -53 96 C-54.7265625 94.1015625 -54.7265625 94.1015625 -56.625 91.625 C-57.25664063 90.81289063 -57.88828125 90.00078125 -58.5390625 89.1640625 C-60 87 -60 87 -60 85 C-60.66 85 -61.32 85 -62 85 C-62 84.34 -62 83.68 -62 83 C-62.66 83 -63.32 83 -64 83 C-66 80 -66 80 -66 77 C-65.34 77 -64.68 77 -64 77 C-63.6596875 76.2265625 -63.6596875 76.2265625 -63.3125 75.4375 C-61.51782382 72.10452995 -59.50034985 68.85296329 -57 66 C-56.34 66 -55.68 66 -55 66 C-55 65.34 -55 64.68 -55 64 C-54.34 64 -53.68 64 -53 64 C-52.78085938 63.47148437 -52.56171875 62.94296875 -52.3359375 62.3984375 C-50.5092863 59.11901107 -48.08907479 56.43217381 -45.625 53.625 C-44.53374492 52.36728228 -43.44260218 51.10946708 -42.3515625 49.8515625 C-41.7937207 49.2112207 -41.23587891 48.57087891 -40.66113281 47.91113281 C-38.09129792 44.95453852 -35.54637076 41.97679662 -33 39 C-32.00268391 37.83717118 -31.00528777 36.67441102 -30.0078125 35.51171875 C-27.97723735 33.14315535 -25.95178502 30.77033535 -23.9296875 28.39453125 C-19.22123524 22.87021722 -14.48356957 17.39912656 -9.5625 12.0625 C-6.0285124 8.21551832 -2.89634774 4.34452161 0 0 Z " fill="#179C3E" transform="translate(157,171)"/>
<path d="M0 0 C3.13281068 0.31274186 4.63355293 0.63127686 6.88671875 2.8984375 C7.48097656 3.71570313 8.07523437 4.53296875 8.6875 5.375 C11.65826734 9.29865498 14.73156607 13.00045791 18.0625 16.625 C18.89652344 17.53378906 19.73054688 18.44257813 20.58984375 19.37890625 C21.38519531 20.24386719 22.18054688 21.10882813 23 22 C24.3817254 23.5147257 25.75757535 25.03485186 27.125 26.5625 C27.68445313 27.18253906 28.24390625 27.80257812 28.8203125 28.44140625 C30 30 30 30 30 32 C30.66 32 31.32 32 32 32 C33.41015625 33.6171875 33.41015625 33.6171875 35.0625 35.875 C37.69403668 39.36192231 40.42583824 42.65209818 43.375 45.875 C46.58729596 49.38776582 49.64150392 52.97842579 52.625 56.6875 C55.74367892 60.55313523 58.99708495 64.06631684 62.5703125 67.5078125 C64.44386851 69.4632726 65.68964846 71.64136722 67 74 C67.5775 74.495 68.155 74.99 68.75 75.5 C69.1625 75.995 69.575 76.49 70 77 C69.6875 79.6875 69.6875 79.6875 69 82 C67.515 82.495 67.515 82.495 66 83 C65.28556638 84.30836036 64.62635588 85.64726184 64 87 C59.51306651 93.20748693 54.36518525 98.84890353 49.15649414 104.44921875 C43.91239054 110.1159542 38.81709174 115.99106176 34.375 122.3125 C33.92125 122.869375 33.4675 123.42625 33 124 C32.34 124 31.68 124 31 124 C31 124.66 31 125.32 31 126 C30.34 126 29.68 126 29 126 C28.7215625 126.99 28.7215625 126.99 28.4375 128 C26.39191226 132.26905268 23.42815357 135.74163706 20 139 C19.34 139 18.68 139 18 139 C17.73268066 139.58426758 17.46536133 140.16853516 17.18994141 140.77050781 C15.97943137 143.03853769 14.65542089 144.74481546 12.9609375 146.671875 C12.38085938 147.33574219 11.80078125 147.99960937 11.203125 148.68359375 C10.59984375 149.36550781 9.9965625 150.04742187 9.375 150.75 C8.45847656 151.79607422 8.45847656 151.79607422 7.5234375 152.86328125 C6.01936197 154.5788674 4.51147502 156.29093409 3 158 C-0.8210935 156.23116268 -3.19285078 153.97905777 -6.125 150.9375 C-9.24105765 147.53546517 -9.24105765 147.53546517 -13 145 C-13 144.34 -13 143.68 -13 143 C-13.66 143 -14.32 143 -15 143 C-14.34 141.35 -13.68 139.7 -13 138 C-12.34 138 -11.68 138 -11 138 C-10.71125 137.401875 -10.4225 136.80375 -10.125 136.1875 C-9 134 -9 134 -7 131 C-6.34 131 -5.68 131 -5 131 C-4.6596875 130.195625 -4.6596875 130.195625 -4.3125 129.375 C-2.54429911 126.17539839 -0.46329797 123.70962777 2 121 C2.66 121 3.32 121 4 121 C4.27199219 120.42121094 4.54398437 119.84242188 4.82421875 119.24609375 C7.88858388 113.39224009 12.29592454 108.580284 17 104 C17.721875 103.071875 18.44375 102.14375 19.1875 101.1875 C19.785625 100.465625 20.38375 99.74375 21 99 C21.66 99 22.32 99 23 99 C23.2371875 98.45859375 23.474375 97.9171875 23.71875 97.359375 C25.34347757 94.36749863 27.3501877 91.88840601 29.5 89.25 C30.2940625 88.26515625 31.088125 87.2803125 31.90625 86.265625 C32.5971875 85.51796875 33.288125 84.7703125 34 84 C34.66 84 35.32 84 36 84 C37.36804918 81.29028539 37.36804918 81.29028539 38 78 C36.59673844 75.21952547 36.59673844 75.21952547 34.1875 72.75 C33.34832031 71.79996094 32.50914062 70.84992188 31.64453125 69.87109375 C30.77183594 68.92363281 29.89914062 67.97617188 29 67 C28.22011719 66.12472656 27.44023437 65.24945313 26.63671875 64.34765625 C25.14341725 62.67381744 23.64223653 61.00697082 22.1328125 59.34765625 C19.03835504 55.94148605 16.01012176 52.4806867 13 49 C12.49082031 48.41992188 11.98164063 47.83984375 11.45703125 47.2421875 C8 43.23319328 8 43.23319328 8 41 C7.34 41 6.68 41 6 41 C4.62787699 39.46804728 3.3284554 37.87078919 2.0625 36.25 C-1.90261489 31.27265253 -6.0636031 26.57664713 -10.45678711 21.97363281 C-12.65224482 19.63782079 -13.97129396 18.08611812 -15 15 C-12.88094537 12.82722286 -10.75527122 10.66173092 -8.625 8.5 C-8.02171875 7.87996094 -7.4184375 7.25992188 -6.796875 6.62109375 C-6.21679688 6.03457031 -5.63671875 5.44804687 -5.0390625 4.84375 C-4.50490723 4.29912109 -3.97075195 3.75449219 -3.42041016 3.19335938 C-2 2 -2 2 0 2 C0 1.34 0 0.68 0 0 Z " fill="#159C3C" transform="translate(339,171)"/>
<path d="M0 0 C8.57087293 0.1074206 17.14165492 0.2200374 25.71236992 0.33933926 C29.6918445 0.39456799 33.67132644 0.4479879 37.65087891 0.49731445 C41.48939641 0.54495877 45.32782341 0.59730158 49.16623306 0.65294075 C50.63266886 0.67336401 52.09912947 0.69207715 53.56560898 0.70907402 C55.61528265 0.73311876 57.66478482 0.763173 59.71435547 0.79467773 C60.88239716 0.81022202 62.05043884 0.8257663 63.25387573 0.84178162 C66 1 66 1 68 2 C68.19246601 7.90786976 68.37115707 13.81593528 68.53710938 19.72460938 C68.59549838 21.73448854 68.65764645 23.74426217 68.72363281 25.75390625 C68.81784349 28.6430337 68.89851688 31.53227127 68.9765625 34.421875 C69.00875885 35.31992859 69.0409552 36.21798218 69.0741272 37.14324951 C69.09429901 37.98381897 69.11447083 38.82438843 69.13525391 39.69042969 C69.16856308 40.79629425 69.16856308 40.79629425 69.20254517 41.92449951 C68.96823158 44.32553416 68.19126544 45.92075766 67 48 C65.74028562 43.2283546 65.96542482 38.64662396 66.12109375 33.76171875 C66.14175903 32.98042603 66.16242432 32.1991333 66.18371582 31.39416504 C66.2621361 28.49176996 66.35039552 25.58964744 66.4375 22.6875 C66.7159375 12.9421875 66.7159375 12.9421875 67 3 C45.22 3 23.44 3 1 3 C0.67 2.01 0.34 1.02 0 0 Z " fill="#76B688" transform="translate(172,146)"/>
<path d="M0 0 C3.68428193 3.28953744 5.8406504 6.60132489 8 11 C7.67 11.99 7.34 12.98 7 14 C-14.45 14 -35.9 14 -58 14 C-58 13.34 -58 12.68 -58 12 C-37.21 12 -16.42 12 5 12 C4.505 10.02 4.505 10.02 4 8 C3.34 8 2.68 8 2 8 C1.34 5.36 0.68 2.72 0 0 Z " fill="#74B785" transform="translate(320,135)"/>
<path d="M0 0 C0.99 0.33 1.98 0.66 3 1 C2.67 1.33 2.34 1.66 2 2 C5.5701456 2.81788147 8.8460371 3.117938 12.50537109 3.09765625 C13.58354095 3.09435303 14.66171082 3.0910498 15.77255249 3.08764648 C17.50549057 3.07519897 17.50549057 3.07519897 19.2734375 3.0625 C20.47054352 3.05871338 21.66764954 3.05492676 22.90103149 3.05102539 C28.01674584 3.03469443 33.13237999 3.00657968 38.24804688 2.97949219 C41.98567331 2.96138538 45.72328669 2.94930387 49.4609375 2.9375 C50.61218109 2.92920166 51.76342468 2.92090332 52.94955444 2.91235352 C58.41339134 2.8957111 63.62017386 3.01745401 69 4 C69 4.66 69 5.32 69 6 C46.23 6 23.46 6 0 6 C-1 3 -1 3 0 0 Z " fill="#269645" transform="translate(214,122)"/>
<path d="M0 0 C23.43 0.33 46.86 0.66 71 1 C72 5 72 5 71 8 C70.34 8 69.68 8 69 8 C69 8.99 69 9.98 69 11 C68.34 11.33 67.68 11.66 67 12 C66.67 12.825 66.34 13.65 66 14.5 C65 17 65 17 63 18 C62.34786708 20.02463255 62.34786708 20.02463255 62 22 C61.01 22 60.02 22 59 22 C60.40708476 18.12348149 62.23937918 14.88111519 64.5 11.4375 C66.54300616 8.31672153 68.32655668 5.34688665 70 2 C46.9 2 23.8 2 0 2 C0.99 3.98 1.98 5.96 3 8 C2.34 8 1.68 8 1 8 C1 7.34 1 6.68 1 6 C-0.32 5.34 -1.64 4.68 -3 4 C-2.34 3.67 -1.68 3.34 -1 3 C-0.67 2.01 -0.34 1.02 0 0 Z " fill="#32834D" transform="translate(215,371)"/>
<path d="M0 0 C4.10505054 3.40631853 8.10490293 6.91732309 12 10.5625 C12.78375 11.28566406 13.5675 12.00882813 14.375 12.75390625 C16 15 16 15 16.00390625 17.5078125 C14.79263865 20.51477254 13.29703602 22.10277579 10.9375 24.3125 C10.20402344 25.00988281 9.47054688 25.70726562 8.71484375 26.42578125 C7.86599609 27.20501953 7.86599609 27.20501953 7 28 C6.67 26.68 6.34 25.36 6 24 C7.32 23.67 8.64 23.34 10 23 C9.835 22.0925 9.67 21.185 9.5 20.25 C9 17 9 17 9 13 C7.15672861 10.16926179 5.97219753 8.35107133 2.75 7.1875 C2.1725 7.125625 1.595 7.06375 1 7 C0.67 4.69 0.34 2.38 0 0 Z " fill="#42A45E" transform="translate(299,233)"/>
<path d="M0 0 C2.9375 0.75 2.9375 0.75 6 2 C6.75 4 6.75 4 7 6 C9.5654594 8.5654594 11.47686668 8.54046087 15 9 C14.34 10.98 13.68 12.96 13 15 C13.33 14.67 13.66 14.34 14 14 C14.66 14 15.32 14 16 14 C16 14.99 16 15.98 16 17 C15.34 17 14.68 17 14 17 C14.33 19.31 14.66 21.62 15 24 C11.51570519 19.85783134 8.65799739 15.46289447 5.8125 10.875 C5.13670898 9.80185547 5.13670898 9.80185547 4.44726562 8.70703125 C4.01736328 8.01738281 3.58746094 7.32773437 3.14453125 6.6171875 C2.75628174 5.99440918 2.36803223 5.37163086 1.96801758 4.72998047 C1 3 1 3 0 0 Z M12 7 C14 8 14 8 14 8 Z " fill="#189C3E" transform="translate(224,433)"/>
<path d="M0 0 C2.375 0.25 2.375 0.25 5 1 C6.3125 3.0625 6.3125 3.0625 7 5 C5.9275 5.0825 4.855 5.165 3.75 5.25 C-0.39126781 6.07825356 -1.26347253 6.98038348 -4 10 C-6.25 10.75 -6.25 10.75 -8 11 C-8 11.66 -8 12.32 -8 13 C-8.99 13.495 -8.99 13.495 -10 14 C-10.65772428 17.02934491 -10.65772428 17.02934491 -11 20 C-12.32 18.68 -13.64 17.36 -15 16 C-6.42585551 5.75285171 -6.42585551 5.75285171 -2 2 C-1.34 2 -0.68 2 0 2 C0 1.34 0 0.68 0 0 Z " fill="#40A75E" transform="translate(339,171)"/>
<path d="M0 0 C1.27351308 2.54702616 0.80191925 3.4282945 0.0625 6.125 C-0.13214844 6.84945312 -0.32679688 7.57390625 -0.52734375 8.3203125 C-0.68332031 8.87460938 -0.83929688 9.42890625 -1 10 C-0.34 10 0.32 10 1 10 C1 10.66 1 11.32 1 12 C0.34 12 -0.32 12 -1 12 C-1.33 12.66 -1.66 13.32 -2 14 C-2.66 14 -3.32 14 -4 14 C-6.21157498 15.7508302 -6.9719499 16.9158497 -7.875 19.625 C-8.24625 20.40875 -8.6175 21.1925 -9 22 C-11.625 22.8125 -11.625 22.8125 -14 23 C-13.67 21.68 -13.34 20.36 -13 19 C-12.34 19 -11.68 19 -11 19 C-11 18.01 -11 17.02 -11 16 C-10.34 16 -9.68 16 -9 16 C-8.9071875 15.45730469 -8.814375 14.91460937 -8.71875 14.35546875 C-7.78676547 11.30119336 -6.24112693 8.98484441 -4.5 6.3125 C-3.8709375 5.33925781 -3.241875 4.36601563 -2.59375 3.36328125 C-1 1 -1 1 0 0 Z " fill="#19993E" transform="translate(214,81)"/>
<path d="M0 0 C1.42944945 2.35438733 2.08661261 3.48032433 1.625 6.25 C1.41875 6.8275 1.2125 7.405 1 8 C-0.32 8 -1.64 8 -3 8 C-3.31130859 8.83144531 -3.31130859 8.83144531 -3.62890625 9.6796875 C-6.11532086 15.52640303 -6.11532086 15.52640303 -8.82421875 16.9765625 C-10.75 17.5 -10.75 17.5 -14 18 C-14 19.65 -14 21.3 -14 23 C-15.65 23 -17.3 23 -19 23 C-14.84154221 17.10039932 -10.18268557 11.79858664 -5.26953125 6.515625 C-3.37212256 4.4124732 -1.64909116 2.29905868 0 0 Z " fill="#37A359" transform="translate(148,182)"/>
<path d="M0 0 C2.912575 0.08566397 4.56798024 0.57910955 6.66796875 2.625 C8.16091772 4.38391375 9.60436262 6.16313019 11 8 C10.01 8.33 9.02 8.66 8 9 C8 8.34 8 7.68 8 7 C7.34 7 6.68 7 6 7 C5.67 6.34 5.34 5.68 5 5 C1.17053157 6.45255699 -0.12050295 8.42895561 -2 12 C-4.97 11.505 -4.97 11.505 -8 11 C-7.59007812 10.45730469 -7.18015625 9.91460937 -6.7578125 9.35546875 C-6.21898437 8.64003906 -5.68015625 7.92460937 -5.125 7.1875 C-4.59132812 6.47980469 -4.05765625 5.77210938 -3.5078125 5.04296875 C-2.29185219 3.39543703 -1.13583859 1.70375789 0 0 Z " fill="#37A558" transform="translate(157,171)"/>
<path d="M0 0 C1.5 1.375 1.5 1.375 3 3 C3 3.66 3 4.32 3 5 C2.360625 5.12375 1.72125 5.2475 1.0625 5.375 C0.381875 5.58125 -0.29875 5.7875 -1 6 C-1.33 6.66 -1.66 7.32 -2 8 C-4.31768315 12.51338297 -6.98406259 15.00940831 -11 18 C-11.66 18 -12.32 18 -13 18 C-13.66 19.32 -14.32 20.64 -15 22 C-15.99 21.67 -16.98 21.34 -18 21 C-17.01 19.515 -17.01 19.515 -16 18 C-15.34 18 -14.68 18 -14 18 C-13.6596875 17.195625 -13.6596875 17.195625 -13.3125 16.375 C-11.54429911 13.17539839 -9.46329797 10.70962777 -7 8 C-6.34 8 -5.68 8 -5 8 C-4.731875 7.4225 -4.46375 6.845 -4.1875 6.25 C-2.98280141 3.9674132 -1.59201885 2.0262058 0 0 Z " fill="#229C49" transform="translate(348,284)"/>
<path d="M0 0 C0.99 0.33 1.98 0.66 3 1 C-4.26923077 10.42307692 -4.26923077 10.42307692 -9 12 C-10.20882096 14.00016466 -10.20882096 14.00016466 -11 16 C-12.0625 14.1875 -12.0625 14.1875 -13 12 C-12.67 11.01 -12.34 10.02 -12 9 C-11.34 8.67 -10.68 8.34 -10 8 C-9.5359375 7.01 -9.5359375 7.01 -9.0625 6 C-8 4 -8 4 -5 3 C-2.8125 3.4375 -2.8125 3.4375 -1 4 C-0.67 2.68 -0.34 1.36 0 0 Z " fill="#3BA75A" transform="translate(237,225)"/>
<path d="M0 0 C-0.66 3.63 -1.32 7.26 -2 11 C-2.66 11 -3.32 11 -4 11 C-5.2890625 9.609375 -5.2890625 9.609375 -6.625 7.75 C-7.07101563 7.14671875 -7.51703125 6.5434375 -7.9765625 5.921875 C-9 4 -9 4 -9 0 C-5.93109813 -1.53445094 -3.29905734 -0.54984289 0 0 Z " fill="#2D9E4C" transform="translate(182,351)"/>
<path d="M0 0 C0.99 0.33 1.98 0.66 3 1 C0.36 3.97 -2.28 6.94 -5 10 C-8.61322401 8.193388 -9.83748791 7.33581029 -12.25 4.375 C-12.77078125 3.74335938 -13.2915625 3.11171875 -13.828125 2.4609375 C-14.21484375 1.97882813 -14.6015625 1.49671875 -15 1 C-13.68 1.33 -12.36 1.66 -11 2 C-11 2.66 -11 3.32 -11 4 C-8.52733235 3.65555119 -8.52733235 3.65555119 -6 3 C-5.67 2.34 -5.34 1.68 -5 1 C-4.01 1.66 -3.02 2.32 -2 3 C-1.34 2.01 -0.68 1.02 0 0 Z " fill="#34A356" transform="translate(347,319)"/>
<path d="M0 0 C1.13615308 3.77650882 0.62179534 5.39601036 -1 9 C-1.35858516 10.32676508 -1.7018576 11.65835921 -2 13 C-2.66 13 -3.32 13 -4 13 C-4.33 13.99 -4.66 14.98 -5 16 C-6.65 16.33 -8.3 16.66 -10 17 C-8.51364884 12.78345644 -6.38750841 9.37521395 -3.875 5.6875 C-3.15054688 4.61886719 -2.42609375 3.55023438 -1.6796875 2.44921875 C-0.84824219 1.23685547 -0.84824219 1.23685547 0 0 Z " fill="#50AF6E" transform="translate(232,53)"/>
<path d="M0 0 C2.875 0.625 2.875 0.625 6 2 C7.25 4.75 7.25 4.75 8 8 C9.01194852 12.42121426 9.01194852 12.42121426 12.125 15.375 C12.74375 15.58125 13.3625 15.7875 14 16 C13.34 16.33 12.68 16.66 12 17 C11.67 17.66 11.34 18.32 11 19 C8.00087602 14.54769224 5.02001867 10.08337443 2.125 5.5625 C1.71507812 4.92441406 1.30515625 4.28632813 0.8828125 3.62890625 C0 2 0 2 0 0 Z " fill="#48A964" transform="translate(190,379)"/>
<path d="M0 0 C0.33 0.66 0.66 1.32 1 2 C1.66 2 2.32 2 3 2 C3 17.51 3 33.02 3 49 C2.01 49 1.02 49 0 49 C0.495 48.505 0.495 48.505 1 48 C1.12197808 46.61949142 1.17768899 45.23302353 1.20532227 43.84741211 C1.22526749 42.96657455 1.24521271 42.085737 1.26576233 41.1782074 C1.28247482 40.22092239 1.29918732 39.26363739 1.31640625 38.27734375 C1.33718735 37.30213272 1.35796844 36.32692169 1.37937927 35.32215881 C1.44498412 32.1940137 1.50381028 29.06578178 1.5625 25.9375 C1.60567483 23.8222565 1.64928877 21.70702191 1.69335938 19.59179688 C1.80067655 14.39462413 1.9024222 9.19736423 2 4 C0.68 3.34 -0.64 2.68 -2 2 C-1.34 1.34 -0.68 0.68 0 0 Z " fill="#239B46" transform="translate(238,302)"/>
<path d="M0 0 C0.33 0 0.66 0 1 0 C1.33 15.84 1.66 31.68 2 48 C2.66 48 3.32 48 4 48 C4 48.66 4 49.32 4 50 C2.35 49.67 0.7 49.34 -1 49 C-0.67 48.34 -0.34 47.68 0 47 C0.08977728 45.48835608 0.11757433 43.97279821 0.11352539 42.45849609 C0.11344986 41.51767181 0.11337433 40.57684753 0.11329651 39.60751343 C0.10813522 38.58976837 0.10297394 37.57202332 0.09765625 36.5234375 C0.0962413 35.48305328 0.09482635 34.44266907 0.09336853 33.37075806 C0.08775866 30.03880979 0.07520447 26.70692805 0.0625 23.375 C0.05748627 21.11979264 0.05292314 18.86458422 0.04882812 16.609375 C0.03778603 11.07289386 0.02103827 5.53645168 0 0 Z " fill="#5DA46B" transform="translate(261,149)"/>
<path d="M0 0 C0.99 0 1.98 0 3 0 C3.66 1.98 4.32 3.96 5 6 C5.66 6 6.32 6 7 6 C7.33 7.32 7.66 8.64 8 10 C6.02 9.34 4.04 8.68 2 8 C2 7.01 2 6.02 2 5 C1.01 4.67 0.02 4.34 -1 4 C-1.33 5.32 -1.66 6.64 -2 8 C-2.66 8 -3.32 8 -4 8 C-4.33 9.32 -4.66 10.64 -5 12 C-5.66 12 -6.32 12 -7 12 C-6.34 10.02 -5.68 8.04 -5 6 C-4.34 6 -3.68 6 -3 6 C-2.690625 5.195625 -2.38125 4.39125 -2.0625 3.5625 C-1 1 -1 1 0 0 Z " fill="#4BA768" transform="translate(249,27)"/>
<path d="M0 0 C1.61363928 3.22727857 0.08456242 5.68923051 -1 9 C-1.875 11.375 -1.875 11.375 -3 13 C-3.66 13.12375 -4.32 13.2475 -5 13.375 C-5.66 13.58125 -6.32 13.7875 -7 14 C-8.3045656 16.99615946 -8.3045656 16.99615946 -9 20 C-9.99 19.34 -10.98 18.68 -12 18 C-11.30132812 16.95199219 -10.60265625 15.90398437 -9.8828125 14.82421875 C-9.44066406 14.16099609 -8.99851563 13.49777344 -8.54296875 12.81445312 C-7.15625 10.734375 -5.76953125 8.65429688 -4.3828125 6.57421875 C-3.97434082 5.96151123 -3.56586914 5.34880371 -3.14501953 4.7175293 C-2.09667969 3.14501953 -1.04833984 1.57250977 0 0 Z " fill="#45A561" transform="translate(199,104)"/>
<path d="M0 0 C-1.0984742 1.46262592 -2.2040036 2.91995503 -3.3125 4.375 C-3.92738281 5.18710937 -4.54226562 5.99921875 -5.17578125 6.8359375 C-7 9 -7 9 -10 11 C-9.125 3.375 -9.125 3.375 -8 0 C-4.99093136 -1.24513185 -3.0590674 -0.84653438 0 0 Z " fill="#17A536" transform="translate(190,351)"/>
<path d="M0 0 C0.66 0.33 1.32 0.66 2 1 C-0.66666667 3.66666667 -3.33333333 6.33333333 -6 9 C-10.20626034 7.49776416 -11.73900021 4.71449966 -14 1 C-6.25 1.875 -6.25 1.875 -4 3 C-2.68 2.01 -1.36 1.02 0 0 Z " fill="#32A155" transform="translate(166,320)"/>
<path d="M0 0 C3.37462715 0.54723683 5.08235 1.0549 8 3 C7.67 3.66 7.34 4.32 7 5 C8.32 5.66 9.64 6.32 11 7 C11 7.99 11 8.98 11 10 C12.32 10.33 13.64 10.66 15 11 C15 11.99 15 12.98 15 14 C15.66 14.33 16.32 14.66 17 15 C14 15 14 15 12.17578125 13.5390625 C11.56089844 12.90742188 10.94601563 12.27578125 10.3125 11.625 C9.68988281 10.99851562 9.06726563 10.37203125 8.42578125 9.7265625 C7 8 7 8 7 6 C6.34 6 5.68 6 5 6 C5 5.34 5 4.68 5 4 C4.01 3.67 3.02 3.34 2 3 C2 2.34 2 1.68 2 1 C1.34 0.67 0.68 0.34 0 0 Z " fill="#3FA459" transform="translate(220,287)"/>
<path d="M0 0 C0.33 0 0.66 0 1 0 C1 1.65 1 3.3 1 5 C0.34 5 -0.32 5 -1 5 C-1.84098656 9.01804691 -2.05404945 12.01803543 -1 16 C-1.66 16 -2.32 16 -3 16 C-3 15.34 -3 14.68 -3 14 C-3.66 14 -4.32 14 -5 14 C-7 11 -7 11 -7 8 C-6.34 8 -5.68 8 -5 8 C-4.731875 7.4225 -4.46375 6.845 -4.1875 6.25 C-2.97790559 3.95813691 -1.64363461 2.00094648 0 0 Z " fill="#3BA65C" transform="translate(98,240)"/>
<path d="M0 0 C1 2 1 2 0.4375 4.875 C-1.34833153 8.75724247 -3.43155223 9.76972014 -7 12 C-7.68177416 13.32567199 -8.35191436 14.65753688 -9 16 C-11.125 16.75 -11.125 16.75 -13 17 C-11.2703384 12.79046213 -8.31793255 9.64856424 -5.375 6.25 C-4.859375 5.64800781 -4.34375 5.04601562 -3.8125 4.42578125 C-2.54530865 2.94739134 -1.27314225 1.47326829 0 0 Z " fill="#45AC67" transform="translate(117,218)"/>
<path d="M0 0 C1.32 0 2.64 0 4 0 C4.19246601 5.90786976 4.37115707 11.81593528 4.53710938 17.72460938 C4.59549838 19.73448854 4.65764645 21.74426217 4.72363281 23.75390625 C4.81784349 26.6430337 4.89851688 29.53227127 4.9765625 32.421875 C5.00875885 33.31992859 5.0409552 34.21798218 5.0741272 35.14324951 C5.09429901 35.98381897 5.11447083 36.82438843 5.13525391 37.69042969 C5.16856308 38.79629425 5.16856308 38.79629425 5.20254517 39.92449951 C4.96823158 42.32553416 4.19126544 43.92075766 3 46 C1.74029044 41.22837287 1.96557532 36.64639936 2.12109375 31.76171875 C2.14470474 30.88095169 2.16831573 30.00018463 2.19264221 29.09272766 C2.26896706 26.29080831 2.35312486 23.48918734 2.4375 20.6875 C2.49075193 18.78321753 2.5434921 16.87892067 2.59570312 14.97460938 C2.72453983 10.31621875 2.86040005 5.65808 3 1 C2.01 0.67 1.02 0.34 0 0 Z " fill="#3C9056" transform="translate(236,148)"/>
<path d="M0 0 C14.78132118 -0.18451025 14.78132118 -0.18451025 21 1 C21 1.66 21 2.32 21 3 C13.74 3 6.48 3 -1 3 C-0.67 2.01 -0.34 1.02 0 0 Z " fill="#4BA865" transform="translate(262,125)"/>
<path d="M0 0 C3.27750059 3.0703448 5.79466564 6.3478888 8.3125 10.0625 C9.03050781 11.10535156 9.74851562 12.14820312 10.48828125 13.22265625 C10.98714844 14.13917969 11.48601562 15.05570313 12 16 C11.67 16.99 11.34 17.98 11 19 C10.34 18.34 9.68 17.68 9 17 C9 16.01 9 15.02 9 14 C8.01 13.67 7.02 13.34 6 13 C6 12.01 6 11.02 6 10 C3.69 9.67 1.38 9.34 -1 9 C-1 8.34 -1 7.68 -1 7 C-0.34 7 0.32 7 1 7 C0.67 4.69 0.34 2.38 0 0 Z " fill="#32A652" transform="translate(307,115)"/>
<path d="M0 0 C0.99 0.33 1.98 0.66 3 1 C2.57847656 1.48210937 2.15695313 1.96421875 1.72265625 2.4609375 C1.17480469 3.09257812 0.62695312 3.72421875 0.0625 4.375 C-0.48277344 5.00148437 -1.02804688 5.62796875 -1.58984375 6.2734375 C-3.06958624 7.95632334 -3.06958624 7.95632334 -4 10 C-4.66 10 -5.32 10 -6 10 C-6.2475 10.5775 -6.495 11.155 -6.75 11.75 C-8.16683317 14.3002997 -9.87627537 16.01785701 -12 18 C-12.125 15.625 -12.125 15.625 -12 13 C-11.34 12.34 -10.68 11.68 -10 11 C-9.01 11 -8.02 11 -7 11 C-7 10.34 -7 9.68 -7 9 C-6.34 9 -5.68 9 -5 9 C-5 7.68 -5 6.36 -5 5 C-3.625 3.25 -3.625 3.25 -2 2 C-1.34 2 -0.68 2 0 2 C0 1.34 0 0.68 0 0 Z " fill="#44A768" transform="translate(161,200)"/>
<path d="M0 0 C1.32 0.33 2.64 0.66 4 1 C2.3383196 5.12417063 -0.62338018 8.06554039 -3.625 11.25 C-4.140625 11.80429687 -4.65625 12.35859375 -5.1875 12.9296875 C-6.45425035 14.2902712 -7.72657815 15.64565837 -9 17 C-9.33 16.01 -9.66 15.02 -10 14 C-9.34 14 -8.68 14 -8 14 C-6.58622659 11.36095629 -5.62759865 8.92879371 -5 6 C-4.34 6 -3.68 6 -3 6 C-3 5.34 -3 4.68 -3 4 C-2.01 3.67 -1.02 3.34 0 3 C0 2.01 0 1.02 0 0 Z " fill="#44A461" transform="translate(394,262)"/>
<path d="M0 0 C0.33 0.66 0.66 1.32 1 2 C3.02463255 2.65213292 3.02463255 2.65213292 5 3 C4.21625 3.2475 3.4325 3.495 2.625 3.75 C-0.32317108 5.15389099 -0.9024777 6.00675737 -2 9 C-3.65 9 -5.3 9 -7 9 C-7.33 10.32 -7.66 11.64 -8 13 C-8.99 12.67 -9.98 12.34 -11 12 C-7.49102731 7.81576108 -3.91939465 3.80411834 0 0 Z " fill="#43AC62" transform="translate(207,226)"/>
<path d="M0 0 C2.41396234 2.89675481 4.38617243 5.59787701 6 9 C6.42152344 8.3503125 6.84304687 7.700625 7.27734375 7.03125 C8.09912109 5.77828125 8.09912109 5.77828125 8.9375 4.5 C9.48277344 3.6646875 10.02804688 2.829375 10.58984375 1.96875 C11.05519531 1.3190625 11.52054688 0.669375 12 0 C12.33 0 12.66 0 13 0 C13.36303085 4.23535988 12.74469461 6.70636647 10 10 C6.8125 10.8125 6.8125 10.8125 4 11 C3.67 9.68 3.34 8.36 3 7 C2.34 7 1.68 7 1 7 C0.67 4.69 0.34 2.38 0 0 Z " fill="#50AE6E" transform="translate(244,419)"/>
<path d="M0 0 C4.04893378 3.18130511 7.3761398 6.43702217 10.60546875 10.44921875 C12.11259341 12.2540202 12.11259341 12.2540202 15 14 C15 14.66 15 15.32 15 16 C13.3125 15.875 13.3125 15.875 11 15 C9.33333333 13 7.66666667 11 6 9 C3.83468832 8.05563651 3.83468832 8.05563651 2 8 C2 7.01 2 6.02 2 5 C0.68 5.33 -0.64 5.66 -2 6 C-1.34 4.02 -0.68 2.04 0 0 Z " fill="#40A75F" transform="translate(274,207)"/>
<path d="M0 0 C0.66 0.99 1.32 1.98 2 3 C1.67 3.99 1.34 4.98 1 6 C0.34 6 -0.32 6 -1 6 C-1 6.99 -1 7.98 -1 9 C-1.99 9.495 -1.99 9.495 -3 10 C-3.495 11.2375 -3.495 11.2375 -4 12.5 C-5 15 -5 15 -7 16 C-7.65213292 18.02463255 -7.65213292 18.02463255 -8 20 C-8.99 20 -9.98 20 -11 20 C-9.59291524 16.12348149 -7.76062082 12.88111519 -5.5 9.4375 C-3.48075836 6.35302284 -1.5708059 3.33796253 0 0 Z " fill="#4AAA69" transform="translate(285,373)"/>
<path d="M0 0 C1.39353609 4.18060826 -0.24771707 6.07488623 -2 10 C-2 10.99 -2 11.98 -2 13 C-3.32 12.67 -4.64 12.34 -6 12 C-6 11.34 -6 10.68 -6 10 C-6.99 10.33 -7.98 10.66 -9 11 C-9 10.34 -9 9.68 -9 9 C-8.34 9 -7.68 9 -7 9 C-7 8.34 -7 7.68 -7 7 C-6.34 7 -5.68 7 -5 7 C-5 6.34 -5 5.68 -5 5 C-4.34 5 -3.68 5 -3 5 C-3 4.34 -3 3.68 -3 3 C-2.34 3 -1.68 3 -1 3 C-0.67 2.01 -0.34 1.02 0 0 Z " fill="#4BAE6A" transform="translate(238,194)"/>
<path d="M0 0 C5.40431223 4.58547704 8.97262981 10.63500118 12 17 C11.67 17.66 11.34 18.32 11 19 C9.5 17.6875 9.5 17.6875 8 16 C8 15.01 8 14.02 8 13 C7.01 12.67 6.02 12.34 5 12 C4.67 10.35 4.34 8.7 4 7 C3.01 6.67 2.02 6.34 1 6 C0.67 4.02 0.34 2.04 0 0 Z " fill="#319F5D" transform="translate(283,78)"/>
<path d="M0 0 C0.66 0.33 1.32 0.66 2 1 C0.19334057 4.00355466 -1.62127745 7.00222002 -3.4375 10 C-3.95376953 10.85851562 -4.47003906 11.71703125 -5.00195312 12.6015625 C-5.49501953 13.41367187 -5.98808594 14.22578125 -6.49609375 15.0625 C-6.95169678 15.81660156 -7.4072998 16.57070313 -7.87670898 17.34765625 C-8.24739502 17.89292969 -8.61808105 18.43820312 -9 19 C-9.33 19 -9.66 19 -10 19 C-10 17.35 -10 15.7 -10 14 C-9.34 13.67 -8.68 13.34 -8 13 C-7.34227572 9.97065509 -7.34227572 9.97065509 -7 7 C-6.01 7 -5.02 7 -4 7 C-4 6.34 -4 5.68 -4 5 C-3.34 5 -2.68 5 -2 5 C-2 3.68 -2 2.36 -2 1 C-1.34 0.67 -0.68 0.34 0 0 Z " fill="#52B072" transform="translate(278,427)"/>
<path d="M0 0 C0 3 0 3 -2.1875 5.48046875 C-3.115625 6.37378906 -4.04375 7.26710938 -5 8.1875 C-5.928125 9.08855469 -6.85625 9.98960937 -7.8125 10.91796875 C-8.534375 11.60503906 -9.25625 12.29210937 -10 13 C-10.33 11.68 -10.66 10.36 -11 9 C-10.01 8.67 -9.02 8.34 -8 8 C-8 7.34 -8 6.68 -8 6 C-7.01 6 -6.02 6 -5 6 C-5.33 4.68 -5.66 3.36 -6 2 C-4.02 1.34 -2.04 0.68 0 0 Z " fill="#40A561" transform="translate(277,288)"/>
<path d="M0 0 C1.65 0 3.3 0 5 0 C5.0825 0.78375 5.165 1.5675 5.25 2.375 C5.73393325 5.09175267 5.73393325 5.09175267 7.8125 6.3125 C10.25383047 7.1998844 10.25383047 7.1998844 14 7 C13.67 8.98 13.34 10.96 13 13 C8.11950075 9.0580583 3.9419417 4.88049925 0 0 Z " fill="#3FA75B" transform="translate(193,259)"/>
<path d="M0 0 C2.4375 0.375 2.4375 0.375 5 1 C5.33 1.66 5.66 2.32 6 3 C6.9590625 3.1546875 6.9590625 3.1546875 7.9375 3.3125 C10 4 10 4 11.3125 6.375 C12 9 12 9 11 12 C9.16364422 10.19047409 7.33083792 8.37759362 5.5 6.5625 C4.97535156 6.04623047 4.45070312 5.52996094 3.91015625 4.99804688 C2.58775448 3.68423213 1.29164432 2.34406495 0 1 C0 0.67 0 0.34 0 0 Z " fill="#56B272" transform="translate(251,216)"/>
<path d="M0 0 C1.20282196 3.60846587 0.70463905 4.64357866 -0.625 8.125 C-0.94726562 9.01445313 -1.26953125 9.90390625 -1.6015625 10.8203125 C-3 13 -3 13 -5.6484375 13.8046875 C-6.42445313 13.86914062 -7.20046875 13.93359375 -8 14 C-6.6744419 10.37723685 -5.05653045 7.36494652 -2.875 4.1875 C-2.33617187 3.39730469 -1.79734375 2.60710938 -1.2421875 1.79296875 C-0.83226562 1.20128906 -0.42234375 0.60960937 0 0 Z " fill="#4EAE6E" transform="translate(241,39)"/>
<path d="M0 0 C7.59 0 15.18 0 23 0 C23.33 1.32 23.66 2.64 24 4 C23.01 4.495 23.01 4.495 22 5 C21.34 4.34 20.68 3.68 20 3 C17.35244131 2.74397235 14.77809717 2.5798277 12.125 2.5 C7.50345808 2.35945221 4.25585948 2.12792974 0 0 Z " fill="#32B74E" transform="translate(304,350)"/>
<path d="M0 0 C3.39914975 1.13304992 4.05254451 2.12518475 6 5 C3.625 6.0625 3.625 6.0625 1 7 C0.34 6.67 -0.32 6.34 -1 6 C-1.433125 7.2065625 -1.433125 7.2065625 -1.875 8.4375 C-3 11 -3 11 -5 12 C-5 11.34 -5 10.68 -5 10 C-5.66 9.67 -6.32 9.34 -7 9 C-5.68 9 -4.36 9 -3 9 C-3 7.35 -3 5.7 -3 4 C-1.68 4 -0.36 4 1 4 C1 3.34 1 2.68 1 2 C0.34 1.67 -0.32 1.34 -1 1 C-0.67 0.67 -0.34 0.34 0 0 Z " fill="#1DA340" transform="translate(250,66)"/>
<path d="M0 0 C1.60031344 3.20062687 0.03173691 5.72271806 -1 9 C-1.8971875 9.1546875 -1.8971875 9.1546875 -2.8125 9.3125 C-5.28243264 10.08876455 -6.32251235 11.07088921 -8 13 C-8.66 12.67 -9.32 12.34 -10 12 C-6.7 8.04 -3.4 4.08 0 0 Z " fill="#55B272" transform="translate(128,205)"/>
<path d="M0 0 C2.9375 0.75 2.9375 0.75 6 2 C6.75 3.875 6.75 3.875 7 6 C7.556875 6.99 7.556875 6.99 8.125 8 C9.2047188 10.46792868 8.74483403 11.48225115 8 14 C6.85018626 12.23174858 5.70528078 10.46030479 4.5625 8.6875 C3.92441406 7.70136719 3.28632813 6.71523438 2.62890625 5.69921875 C1 3 1 3 0 0 Z " fill="#60B57B" transform="translate(224,433)"/>
<path d="M0 0 C1.1055189 0.93590504 2.20935453 1.87379858 3.3125 2.8125 C3.92738281 3.33457031 4.54226562 3.85664063 5.17578125 4.39453125 C8.51952278 7.3373102 8.51952278 7.3373102 10 9 C10 9.66 10 10.32 10 11 C10.99 11.33 11.98 11.66 13 12 C12.01 12.33 11.02 12.66 10 13 C9.67 12.01 9.34 11.02 9 10 C8.175 9.67 7.35 9.34 6.5 9 C5.2625 8.505 5.2625 8.505 4 8 C3.67 7.01 3.34 6.02 3 5 C2.34 5 1.68 5 1 5 C0.67 3.35 0.34 1.7 0 0 Z " fill="#58B570" transform="translate(218,252)"/>
<path d="M0 0 C4.13621084 3.3810038 7.81316569 6.66590534 11 11 C7.66666667 9.66666667 4.33333333 8.33333333 1 7 C0.67 4.69 0.34 2.38 0 0 Z " fill="#48AB62" transform="translate(299,233)"/>
<path d="M0 0 C2.475 0.495 2.475 0.495 5 1 C5 2.32 5 3.64 5 5 C6.65 5.33 8.3 5.66 10 6 C10.66 8.64 11.32 11.28 12 14 C11.34 13.67 10.68 13.34 10 13 C10 12.34 10 11.68 10 11 C9.34 11 8.68 11 8 11 C4 6.52941176 4 6.52941176 4 4 C3.34 4 2.68 4 2 4 C1.34 2.68 0.68 1.36 0 0 Z " fill="#4FAD6F" transform="translate(128,293)"/>
<path d="M0 0 C0.45890625 0.433125 0.9178125 0.86625 1.390625 1.3125 C2.00421875 1.869375 2.6178125 2.42625 3.25 3 C3.85328125 3.556875 4.4565625 4.11375 5.078125 4.6875 C7.162653 6.37597443 7.162653 6.37597443 11 6 C11 5.34 11 4.68 11 4 C11.66 4 12.32 4 13 4 C12.6875 5.9375 12.6875 5.9375 12 8 C9 9 9 9 5.4375 7.9375 C2 6 2 6 0.5625 2.8125 C0.376875 1.884375 0.19125 0.95625 0 0 Z " fill="#359E55" transform="translate(242,277)"/>
<path d="M0 0 C2.7268427 3.27221124 5.26039743 6.67086581 7.75 10.125 C8.36359375 10.97320312 8.9771875 11.82140625 9.609375 12.6953125 C11 15 11 15 11 18 C9.0625 17.375 9.0625 17.375 7 16 C6.25 12.875 6.25 12.875 6 10 C5.01 9.67 4.02 9.34 3 9 C2.67 7.35 2.34 5.7 2 4 C1.34 4 0.68 4 0 4 C0 2.68 0 1.36 0 0 Z " fill="#4FAD6E" transform="translate(264,48)"/>
<path d="M0 0 C3.67758005 3.28355362 5.81389118 6.62778237 8 11 C7.67 11.66 7.34 12.32 7 13 C5.68 12.67 4.36 12.34 3 12 C3.66 12 4.32 12 5 12 C4.67 10.68 4.34 9.36 4 8 C3.34 8 2.68 8 2 8 C1.34 5.36 0.68 2.72 0 0 Z " fill="#4DAB70" transform="translate(320,135)"/>
<path d="M0 0 C0.66 0.33 1.32 0.66 2 1 C0.70306052 4.89081843 -0.70699112 7.48181674 -4 10 C-6.1328125 9.6015625 -6.1328125 9.6015625 -8 9 C-7.04882866 7.8274869 -6.08882991 6.66212985 -5.125 5.5 C-4.32449219 4.52546875 -4.32449219 4.52546875 -3.5078125 3.53125 C-2.76144531 2.77328125 -2.76144531 2.77328125 -2 2 C-1.34 2 -0.68 2 0 2 C0 1.34 0 0.68 0 0 Z " fill="#4DAC6A" transform="translate(227,205)"/>
<path d="M0 0 C1.9375 0.3125 1.9375 0.3125 4 1 C4.33 1.99 4.66 2.98 5 4 C3.35 5.65 1.7 7.3 0 9 C-0.99 8.34 -1.98 7.68 -3 7 C-2.505 6.401875 -2.01 5.80375 -1.5 5.1875 C0.28276418 3.02970006 0.28276418 3.02970006 0 0 Z " fill="#44AB61" transform="translate(282,248)"/>
<path d="M0 0 C1 3 1 3 0.3125 5.125 C-1 7 -1 7 -3.125 7.75 C-4.053125 7.87375 -4.053125 7.87375 -5 8 C-5 9.65 -5 11.3 -5 13 C-6.65 13 -8.3 13 -10 13 C-6.73279209 8.61105071 -3.45101522 4.24740335 0 0 Z " fill="#59B275" transform="translate(139,192)"/>
<path d="M0 0 C-1.37140166 3.67694648 -3.03695801 6.95318589 -5.0625 10.3125 C-5.58972656 11.19550781 -6.11695313 12.07851562 -6.66015625 12.98828125 C-7.10230469 13.65214844 -7.54445312 14.31601563 -8 15 C-8.33 15 -8.66 15 -9 15 C-9 13.35 -9 11.7 -9 10 C-8.34 10 -7.68 10 -7 10 C-6.9175 9.0925 -6.835 8.185 -6.75 7.25 C-5.88469713 3.50035425 -4.29387362 0 0 0 Z " fill="#51AD6E" transform="translate(232,98)"/>
<path d="M0 0 C0.33 0.66 0.66 1.32 1 2 C0.67 2.66 0.34 3.32 0 4 C-0.66 4 -1.32 4 -2 4 C-1.80528889 5.94999129 -1.80528889 5.94999129 -1 8 C0.9837767 9.28436734 0.9837767 9.28436734 3 10 C2.67 11.32 2.34 12.64 2 14 C0.2925002 12.71937515 -1.37373596 11.38232443 -3 10 C-3 9.34 -3 8.68 -3 8 C-3.66 8 -4.32 8 -5 8 C-4.34 6.35 -3.68 4.7 -3 3 C-2.34 3 -1.68 3 -1 3 C-0.67 2.01 -0.34 1.02 0 0 Z " fill="#58B374" transform="translate(329,306)"/>
<path d="M0 0 C2.475 0.99 2.475 0.99 5 2 C4.01 3.1446875 4.01 3.1446875 3 4.3125 C0.70149462 6.84277939 0.70149462 6.84277939 1 10 C0.01 10 -0.98 10 -2 10 C-2.33 8.02 -2.66 6.04 -3 4 C-2.01 4 -1.02 4 0 4 C0 2.68 0 1.36 0 0 Z " fill="#3AA65C" transform="translate(217,242)"/>
<path d="M0 0 C0 3.59857954 -0.95830515 5.09451118 -3 8 C-3.66 8 -4.32 8 -5 8 C-5.33 8.99 -5.66 9.98 -6 11 C-7.32 10.67 -8.64 10.34 -10 10 C-6.7 6.7 -3.4 3.4 0 0 Z " fill="#4BAA67" transform="translate(218,215)"/>
<path d="M0 0 C1.57432497 3.14864995 0.71895552 5.64487425 0 9 C-3 11 -3 11 -6 11 C-5.67 9.68 -5.34 8.36 -5 7 C-4.34 7 -3.68 7 -3 7 C-3 6.01 -3 5.02 -3 4 C-2.34 4 -1.68 4 -1 4 C-0.67 2.68 -0.34 1.36 0 0 Z " fill="#4EAD6C" transform="translate(206,93)"/>
<path d="M0 0 C2.875 0.25 2.875 0.25 6 1 C7.375 3.0625 7.375 3.0625 8 5 C7.01 6.485 7.01 6.485 6 8 C6.66 8.33 7.32 8.66 8 9 C7.01 9 6.02 9 5 9 C3.35 6.03 1.7 3.06 0 0 Z " fill="#48AD6A" transform="translate(256,80)"/>
<path d="M0 0 C1.32 0 2.64 0 4 0 C4 0.99 4 1.98 4 3 C3.34 3 2.68 3 2 3 C1.34 4.98 0.68 6.96 0 9 C-0.99 9 -1.98 9 -3 9 C-2.01 6.03 -1.02 3.06 0 0 Z " fill="#41A35F" transform="translate(317,362)"/>
<path d="M0 0 C0.66 0 1.32 0 2 0 C2.33 1.65 2.66 3.3 3 5 C3.66 4.67 4.32 4.34 5 4 C5.66 5.98 6.32 7.96 7 10 C6.01 10.495 6.01 10.495 5 11 C5 10.34 5 9.68 5 9 C4.34 9 3.68 9 3 9 C0.8125 7.3125 0.8125 7.3125 -1 5 C-0.75 2.25 -0.75 2.25 0 0 Z " fill="#3BA462" transform="translate(186,247)"/>
<path d="M0 0 C1.5 1.375 1.5 1.375 3 3 C3 3.66 3 4.32 3 5 C2.360625 5.12375 1.72125 5.2475 1.0625 5.375 C0.0415625 5.684375 0.0415625 5.684375 -1 6 C-1.33 6.66 -1.66 7.32 -2 8 C-2.66 7.67 -3.32 7.34 -4 7 C-4 7.66 -4 8.32 -4 9 C-4.99 9.33 -5.98 9.66 -7 10 C-7 9.34 -7 8.68 -7 8 C-6.34 8 -5.68 8 -5 8 C-4.731875 7.4225 -4.46375 6.845 -4.1875 6.25 C-2.98280141 3.9674132 -1.59201885 2.0262058 0 0 Z " fill="#4CB16D" transform="translate(348,284)"/>
<path d="M0 0 C0.66 0 1.32 0 2 0 C0.82744291 3.33727786 -0.18868404 5.77437487 -3 8 C-3.66 8 -4.32 8 -5 8 C-5.33 9.32 -5.66 10.64 -6 12 C-6.99 12 -7.98 12 -9 12 C-9 10 -9 10 -6.75 7.6875 C-5.38875 6.3571875 -5.38875 6.3571875 -4 5 C-3.278125 4.071875 -2.55625 3.14375 -1.8125 2.1875 C-1.214375 1.465625 -0.61625 0.74375 0 0 Z " fill="#5BB274" transform="translate(360,270)"/>
<path d="M0 0 C0.66 0.66 1.32 1.32 2 2 C1.625 4.625 1.625 4.625 1 7 C0.01 7.33 -0.98 7.66 -2 8 C-3.09166275 9.93330603 -3.09166275 9.93330603 -4 12 C-4.66 12.66 -5.32 13.32 -6 14 C-6 12.68 -6 11.36 -6 10 C-5.34 10 -4.68 10 -4 10 C-4 8.68 -4 7.36 -4 6 C-2.68 6 -1.36 6 0 6 C0 4.02 0 2.04 0 0 Z " fill="#58AF72" transform="translate(407,246)"/>
<path d="M0 0 C1.32 0 2.64 0 4 0 C2.54955729 4.10958767 0.48889248 7.43258745 -2 11 C-2.33 9.68 -2.66 8.36 -3 7 C-2.34 7 -1.68 7 -1 7 C-0.67 4.69 -0.34 2.38 0 0 Z " fill="#40A664" transform="translate(256,458)"/>
<path d="M0 0 C2.475 0.99 2.475 0.99 5 2 C5 1.34 5 0.68 5 0 C5.66 0 6.32 0 7 0 C7 0.99 7 1.98 7 3 C6.34 3 5.68 3 5 3 C5.33 5.31 5.66 7.62 6 10 C3.25722422 6.80009492 1.3697164 3.99500618 0 0 Z " fill="#4BAF6C" transform="translate(233,447)"/>
<path d="M0 0 C2.0625 0.4375 2.0625 0.4375 4 1 C4 2.32 4 3.64 4 5 C1.69 5.33 -0.62 5.66 -3 6 C-1.125 1.125 -1.125 1.125 0 0 Z " fill="#2EA353" transform="translate(273,393)"/>
<path d="M0 0 C1.32 0.33 2.64 0.66 4 1 C4 1.66 4 2.32 4 3 C5.65 2.67 7.3 2.34 9 2 C8.67 3.65 8.34 5.3 8 7 C8.99 7.33 9.98 7.66 11 8 C7 8 7 8 5.078125 6.50390625 C4.47484375 5.86324219 3.8715625 5.22257812 3.25 4.5625 C2.63640625 3.92441406 2.0228125 3.28632813 1.390625 2.62890625 C0 1 0 1 0 0 Z " fill="#4AA867" transform="translate(332,320)"/>
<path d="M0 0 C0.33 0.66 0.66 1.32 1 2 C1.66 2.33 2.32 2.66 3 3 C2.67 3.66 2.34 4.32 2 5 C1.34 5 0.68 5 0 5 C-0.268125 5.61875 -0.53625 6.2375 -0.8125 6.875 C-2 9 -2 9 -5 11 C-5 10.01 -5 9.02 -5 8 C-4.34 8 -3.68 8 -3 8 C-3 6.35 -3 4.7 -3 3 C-2.01 3 -1.02 3 0 3 C0 2.01 0 1.02 0 0 Z " fill="#46AE65" transform="translate(357,305)"/>
<path d="M0 0 C1.32 0.33 2.64 0.66 4 1 C2.625 3 2.625 3 1 5 C0.34 5 -0.32 5 -1 5 C-1 5.66 -1 6.32 -1 7 C-1.66 7 -2.32 7 -3 7 C-3 7.66 -3 8.32 -3 9 C-3.66 9 -4.32 9 -5 9 C-5.33 9.66 -5.66 10.32 -6 11 C-6 9.35 -6 7.7 -6 6 C-4.68 6 -3.36 6 -2 6 C-1.34 4.02 -0.68 2.04 0 0 Z " fill="#4FAC6C" transform="translate(287,275)"/>
<path d="M0 0 C0.33 0.66 0.66 1.32 1 2 C1.99 2 2.98 2 4 2 C4.0825 2.61875 4.165 3.2375 4.25 3.875 C4.81258459 6.18437567 4.81258459 6.18437567 7.0625 7.25 C7.701875 7.4975 8.34125 7.745 9 8 C9 9.65 9 11.3 9 13 C5.0747975 9.29909479 2.05419844 5.45040344 -1 1 C-0.67 0.67 -0.34 0.34 0 0 Z " fill="#54B176" transform="translate(369,236)"/>
<path d="M0 0 C0.66 0 1.32 0 2 0 C2.33 1.65 2.66 3.3 3 5 C3.66 5 4.32 5 5 5 C5.33 6.98 5.66 8.96 6 11 C0.125 6.375 0.125 6.375 -1 3 C-0.67 2.01 -0.34 1.02 0 0 Z " fill="#44AC63" transform="translate(276,237)"/>
<path d="M0 0 C2.04119788 1.61594832 4.04072937 3.2856382 6 5 C6 5.66 6 6.32 6 7 C6.66 7 7.32 7 8 7 C8.33 7.99 8.66 8.98 9 10 C8.01 10 7.02 10 6 10 C6 9.34 6 8.68 6 8 C5.01 8 4.02 8 3 8 C0 2.25 0 2.25 0 0 Z " fill="#4EAC6C" transform="translate(363,196)"/>
<path d="M0 0 C0.33 1.32 0.66 2.64 1 4 C0.01 4.495 0.01 4.495 -1 5 C-1.65772428 8.02934491 -1.65772428 8.02934491 -2 11 C-3.32 9.68 -4.64 8.36 -6 7 C-4.02 4.69 -2.04 2.38 0 0 Z " fill="#60B57E" transform="translate(330,180)"/>
<path d="M0 0 C0.99 0.33 1.98 0.66 3 1 C2.67 1.33 2.34 1.66 2 2 C4.76264289 2.59732819 7.16032769 3 10 3 C10 3.66 10 4.32 10 5 C6.7 5.33 3.4 5.66 0 6 C-1 3 -1 3 0 0 Z " fill="#52AC6D" transform="translate(214,122)"/>
<path d="M0 0 C0.66 0 1.32 0 2 0 C2 0.66 2 1.32 2 2 C2.804375 2.268125 3.60875 2.53625 4.4375 2.8125 C5.7059375 3.4003125 5.7059375 3.4003125 7 4 C7.33 4.99 7.66 5.98 8 7 C7.01 7.99 6.02 8.98 5 10 C3.33333333 6.66666667 1.66666667 3.33333333 0 0 Z " fill="#4BAC6A" transform="translate(280,117)"/>
<path d="M0 0 C2.38672669 2.96283313 4.7353371 5.94270509 7 9 C6.67 9.66 6.34 10.32 6 11 C3.69 9.35 1.38 7.7 -1 6 C-0.67 4.02 -0.34 2.04 0 0 Z " fill="#48AE67" transform="translate(257,37)"/>
<path d="M0 0 C2.94721162 2.74395564 5.19168608 5.38337216 7 9 C6.67 9.66 6.34 10.32 6 11 C5.34 11 4.68 11 4 11 C3.9175 10.21625 3.835 9.4325 3.75 8.625 C3.27193661 5.85250896 3.27193661 5.85250896 0.9375 4.6875 C0.298125 4.460625 -0.34125 4.23375 -1 4 C-0.67 2.68 -0.34 1.36 0 0 Z " fill="#4DAB6C" transform="translate(231,400)"/>
<path d="M0 0 C2.62187494 1.04874998 3.79371361 1.64931313 5.25 4.125 C5.4975 4.74375 5.745 5.3625 6 6 C4.35 7.65 2.7 9.3 1 11 C1.33 8.69 1.66 6.38 2 4 C1.34 4 0.68 4 0 4 C0 2.68 0 1.36 0 0 Z " fill="#55AC70" transform="translate(170,181)"/>
<path d="M0 0 C1 2 1 2 0.4375 5.5 C-1 9 -1 9 -4.125 10.4375 C-5.548125 10.7159375 -5.548125 10.7159375 -7 11 C-6.02262231 9.35310365 -5.0430468 7.70751146 -4.0625 6.0625 C-3.51722656 5.14597656 -2.97195312 4.22945313 -2.41015625 3.28515625 C-1 1 -1 1 0 0 Z " fill="#57B775" transform="translate(214,81)"/>
<path d="M0 0 C0.66 1.32 1.32 2.64 2 4 C1.67 4.99 1.34 5.98 1 7 C-0.32 7 -1.64 7 -3 7 C-3.33 7.99 -3.66 8.98 -4 10 C-4.66 9.67 -5.32 9.34 -6 9 C-4.02 6.03 -2.04 3.06 0 0 Z " fill="#4DB16C" transform="translate(269,399)"/>
<path d="M0 0 C-0.66 0 -1.32 0 -2 0 C-2.2475 0.763125 -2.495 1.52625 -2.75 2.3125 C-4.10995558 5.2364045 -5.31585826 6.30004356 -8 8 C-8 6.68 -8 5.36 -8 4 C-7.34 4 -6.68 4 -6 4 C-6.33 2.68 -6.66 1.36 -7 0 C-3.98968256 -0.93423645 -3.13349732 -1.04449911 0 0 Z " fill="#4FAC6A" transform="translate(370,297)"/>
<path d="M0 0 C0.99 0.33 1.98 0.66 3 1 C0.36 4.3 -2.28 7.6 -5 11 C-5.66 9.68 -6.32 8.36 -7 7 C-2.25 3 -2.25 3 0 3 C0 2.01 0 1.02 0 0 Z " fill="#5EB078" transform="translate(377,284)"/>
<path d="M0 0 C1.28485596 5.13942384 0.22194431 6.37835584 -2 11 C-3.32 10.67 -4.64 10.34 -6 10 C-4.02 6.7 -2.04 3.4 0 0 Z " fill="#3FA862" transform="translate(186,124)"/>
<path d="M0 0 C0.66 0.33 1.32 0.66 2 1 C1.19185349 2.33597652 0.37836819 3.668725 -0.4375 5 C-0.88996094 5.7425 -1.34242188 6.485 -1.80859375 7.25 C-2.20175781 7.8275 -2.59492188 8.405 -3 9 C-3.33 9 -3.66 9 -4 9 C-4 6.69 -4 4.38 -4 2 C-2.125 0.9375 -2.125 0.9375 0 0 Z " fill="#3BA762" transform="translate(264,449)"/>
<path d="M0 0 C4.875 4.625 4.875 4.625 6 8 C6.66 8.33 7.32 8.66 8 9 C6.68 9.33 5.36 9.66 4 10 C4 9.34 4 8.68 4 8 C3.01 7.67 2.02 7.34 1 7 C1.33 6.01 1.66 5.02 2 4 C1.34 4 0.68 4 0 4 C0 2.68 0 1.36 0 0 Z " fill="#40AC60" transform="translate(160,294)"/>
<path d="M0 0 C2.04119788 1.61594832 4.04072937 3.2856382 6 5 C6 5.66 6 6.32 6 7 C6.66 7 7.32 7 8 7 C8 7.66 8 8.32 8 9 C4.70195229 8.43137108 3.19980011 7.49977286 1 5 C0.34 4.34 -0.32 3.68 -1 3 C-0.67 2.01 -0.34 1.02 0 0 Z " fill="#68B681" transform="translate(145,277)"/>
<path d="M0 0 C0.99 0.33 1.98 0.66 3 1 C0.69 3.31 -1.62 5.62 -4 8 C-4.66 6.68 -5.32 5.36 -6 4 C-3.1875 1.9375 -3.1875 1.9375 0 0 Z " fill="#45A561" transform="translate(299,264)"/>
<path d="M0 0 C0.66 0 1.32 0 2 0 C3.47265625 2.1171875 3.47265625 2.1171875 5.0625 4.875 C5.58972656 5.77992187 6.11695313 6.68484375 6.66015625 7.6171875 C7.47185168 9.06072748 8.25937093 10.51874185 9 12 C8.01 12 7.02 12 6 12 C6 11.34 6 10.68 6 10 C5.34 10 4.68 10 4 10 C3.67 8.02 3.34 6.04 3 4 C2.01 3.67 1.02 3.34 0 3 C0 2.01 0 1.02 0 0 Z " fill="#4EAB68" transform="translate(295,97)"/>
<path d="M0 0 C2.40072955 2.88087546 4.47291037 5.56404834 6 9 C3.0625 8.1875 3.0625 8.1875 0 7 C-1.04449911 3.86650268 -0.93423645 3.01031744 0 0 Z " fill="#58AC72" transform="translate(218,379)"/>
<path d="M0 0 C2.31 1.98 4.62 3.96 7 6 C5.68 6.33 4.36 6.66 3 7 C0.75 5.0625 0.75 5.0625 -1 3 C-0.67 2.01 -0.34 1.02 0 0 Z " fill="#33A153" transform="translate(291,225)"/>
<path d="M0 0 C2.31 0.33 4.62 0.66 7 1 C7 3.31 7 5.62 7 8 C5 6.625 5 6.625 3 5 C3 4.34 3 3.68 3 3 C2.34 3 1.68 3 1 3 C0.67 2.01 0.34 1.02 0 0 Z " fill="#49AD67" transform="translate(344,209)"/>
<path d="M0 0 C0.99 0.33 1.98 0.66 3 1 C2.04578192 2.14926266 1.08647955 3.29430541 0.125 4.4375 C-0.40867188 5.07558594 -0.94234375 5.71367187 -1.4921875 6.37109375 C-3 8 -3 8 -5 9 C-5 5 -5 5 -3.625 3.25 C-2 2 -2 2 0 2 C0 1.34 0 0.68 0 0 Z " fill="#3EA15D" transform="translate(161,200)"/>
<path d="M0 0 C1.98 0.99 1.98 0.99 4 2 C4 2.66 4 3.32 4 4 C4.66 4 5.32 4 6 4 C6 4.66 6 5.32 6 6 C6.66 6 7.32 6 8 6 C7.67 6.66 7.34 7.32 7 8 C6.34 8 5.68 8 5 8 C5 7.34 5 6.68 5 6 C4.01 6 3.02 6 2 6 C0 3 0 3 0 0 Z " fill="#6BBC80" transform="translate(265,199)"/>
<path d="M0 0 C3.25519625 3.02268223 5.78310719 6.14096436 8 10 C7.67 10.99 7.34 11.98 7 13 C6.34 12.34 5.68 11.68 5 11 C5 10.01 5 9.02 5 8 C4.01 7.67 3.02 7.34 2 7 C0.8125 3.4375 0.8125 3.4375 0 0 Z " fill="#50AF71" transform="translate(311,121)"/>
<path d="M0 0 C0.66 0.33 1.32 0.66 2 1 C0.6302836 4.99500618 -1.25722422 7.80009492 -4 11 C-3.66666667 9.33333333 -3.33333333 7.66666667 -3 6 C-2.855625 5.0925 -2.71125 4.185 -2.5625 3.25 C-2.376875 2.5075 -2.19125 1.765 -2 1 C-1.34 0.67 -0.68 0.34 0 0 Z " fill="#4BAF6C" transform="translate(237,86)"/>
<path d="M0 0 C2.9375 0.75 2.9375 0.75 6 2 C6.875 4.125 6.875 4.125 7 6 C6.01 6.495 6.01 6.495 5 7 C5 6.34 5 5.68 5 5 C3.68 4.67 2.36 4.34 1 4 C0.67 2.68 0.34 1.36 0 0 Z " fill="#33A154" transform="translate(190,379)"/>
<path d="M0 0 C0.33 0.66 0.66 1.32 1 2 C-3.62 2 -8.24 2 -13 2 C-13 1.67 -13 1.34 -13 1 C-11.58622218 0.63447197 -10.16879424 0.28304505 -8.75 -0.0625 C-7.96109375 -0.25972656 -7.1721875 -0.45695312 -6.359375 -0.66015625 C-3.86185292 -1.01989867 -2.34449197 -0.9077126 0 0 Z " fill="#1BAA38" transform="translate(302,351)"/>
<path d="M0 0 C0.33 0.66 0.66 1.32 1 2 C0.54625 2.4125 0.0925 2.825 -0.375 3.25 C-2.10274711 4.91951012 -2.10274711 4.91951012 -2.9375 7.125 C-4 9 -4 9 -6.125 9.75 C-7.053125 9.87375 -7.053125 9.87375 -8 10 C-6.34908222 5.70761377 -3.26245434 3.1206085 0 0 Z " fill="#5EB577" transform="translate(263,271)"/>
<path d="M0 0 C1.32 0 2.64 0 4 0 C4.12375 0.804375 4.2475 1.60875 4.375 2.4375 C4.684375 3.7059375 4.684375 3.7059375 5 5 C5.66 5.33 6.32 5.66 7 6 C6.67 6.66 6.34 7.32 6 8 C4.125 7.375 4.125 7.375 2 6 C0.75 2.875 0.75 2.875 0 0 Z " fill="#119937" transform="translate(129,263)"/>
<path d="M0 0 C0.33 0 0.66 0 1 0 C1 1.98 1 3.96 1 6 C1.66 6 2.32 6 3 6 C2.67 6.66 2.34 7.32 2 8 C-1.0625 8.625 -1.0625 8.625 -4 9 C-3.71125 8.443125 -3.4225 7.88625 -3.125 7.3125 C-1.9586747 4.91505355 -0.9660119 2.48403061 0 0 Z " fill="#36A157" transform="translate(379,246)"/>
<path d="M0 0 C2.02045442 0.60183749 4.02111039 1.27306096 6 2 C7.33332095 4.6666419 6.67102033 6.16680303 6 9 C3.59927045 6.11912454 1.52708963 3.43595166 0 0 Z " fill="#49AF6A" transform="translate(271,103)"/>
<path d="M0 0 C2.86477034 1.05041579 3.83913226 1.70124563 5.3125 4.4375 C6 7 6 7 5 10 C4.16121545 8.71186658 3.32913217 7.41936744 2.5 6.125 C2.0359375 5.40570313 1.571875 4.68640625 1.09375 3.9453125 C0 2 0 2 0 0 Z " fill="#60B87D" transform="translate(209,409)"/>
<path d="M0 0 C2.31 0.66 4.62 1.32 7 2 C6.67 3.65 6.34 5.3 6 7 C1.125 2.25 1.125 2.25 0 0 Z " fill="#55B574" transform="translate(335,199)"/>
<path d="M0 0 C2.64752004 2.57784846 4.94432065 4.91648098 7 8 C4.03 7.505 4.03 7.505 1 7 C0.67 4.69 0.34 2.38 0 0 Z " fill="#38A156" transform="translate(346,176)"/>
<path d="M0 0 C1.24546405 2.49092811 0.7767578 3.41080733 0 6 C-0.66 6 -1.32 6 -2 6 C-2 6.99 -2 7.98 -2 9 C-3.98 9.99 -3.98 9.99 -6 11 C-4.54955729 6.89041233 -2.48889248 3.56741255 0 0 Z " fill="#63B881" transform="translate(221,70)"/>
<path d="M0 0 C0.33 0.66 0.66 1.32 1 2 C1.66 2 2.32 2 3 2 C3 6.29 3 10.58 3 15 C2.67 15 2.34 15 2 15 C2 11.37 2 7.74 2 4 C0.68 3.34 -0.64 2.68 -2 2 C-1.34 1.34 -0.68 0.68 0 0 Z " fill="#2B9E4D" transform="translate(238,302)"/>
<path d="M0 0 C1.32 0.33 2.64 0.66 4 1 C2.60667426 4.36720387 1.0210714 5.9859524 -2 8 C-2.33 6.68 -2.66 5.36 -3 4 C-2.01 3.67 -1.02 3.34 0 3 C0 2.01 0 1.02 0 0 Z " fill="#4FB378" transform="translate(394,262)"/>
<path d="M0 0 C0.66 0.33 1.32 0.66 2 1 C1.6875 2.9375 1.6875 2.9375 1 5 C0.01 5.33 -0.98 5.66 -2 6 C-2.99 7.485 -2.99 7.485 -4 9 C-4.66 9 -5.32 9 -6 9 C-4.47291037 5.56404834 -2.40072955 2.88087546 0 0 Z " fill="#56B071" transform="translate(373,255)"/>
<path d="M0 0 C0.99 0.33 1.98 0.66 3 1 C1.71937515 2.7074998 0.38232443 4.37373596 -1 6 C-1.66 6 -2.32 6 -3 6 C-3.66 7.32 -4.32 8.64 -5 10 C-5.33 9.01 -5.66 8.02 -6 7 C-5.67 6.34 -5.34 5.68 -5 5 C-4.01 5 -3.02 5 -2 5 C-1.34 3.35 -0.68 1.7 0 0 Z " fill="#3C9D5C" transform="translate(144,220)"/>
<path d="M0 0 C2.6486859 3.19668988 4.93992341 6.39486597 7 10 C5.68 10 4.36 10 3 10 C1.5783681 6.6828589 0.60990891 3.55780196 0 0 Z " fill="#50AD78" transform="translate(224,389)"/>
<path d="M0 0 C0 3.99904969 -1.72586967 5.80200422 -4 9 C-4.99 8.67 -5.98 8.34 -7 8 C-6.34 7.01 -5.68 6.02 -5 5 C-4.34 5 -3.68 5 -3 5 C-2.690625 4.360625 -2.38125 3.72125 -2.0625 3.0625 C-1 1 -1 1 0 0 Z " fill="#69B47C" transform="translate(337,297)"/>
<path d="M0 0 C3.37462715 0.54723683 5.08235 1.0549 8 3 C7.67 3.99 7.34 4.98 7 6 C6.34 6 5.68 6 5 6 C5 5.34 5 4.68 5 4 C4.01 3.67 3.02 3.34 2 3 C2 2.34 2 1.68 2 1 C1.34 0.67 0.68 0.34 0 0 Z " fill="#63B67A" transform="translate(220,287)"/>
<path d="M0 0 C1.65 0 3.3 0 5 0 C5.12375 0.804375 5.2475 1.60875 5.375 2.4375 C5.684375 3.7059375 5.684375 3.7059375 6 5 C6.66 5.33 7.32 5.66 8 6 C5 6 5 6 3.61328125 4.6875 C2.40885417 3.125 1.20442708 1.5625 0 0 Z " fill="#65BD80" transform="translate(193,259)"/>
<path d="M0 0 C2.475 0.495 2.475 0.495 5 1 C3.68 3.31 2.36 5.62 1 8 C0.17361624 5.10765685 0 3.11257569 0 0 Z " fill="#45AD63" transform="translate(122,242)"/>
<path d="M0 0 C0.33 1.32 0.66 2.64 1 4 C0.01 4 -0.98 4 -2 4 C-2.33 5.32 -2.66 6.64 -3 8 C-3.99 7.67 -4.98 7.34 -6 7 C-4.02 4.69 -2.04 2.38 0 0 Z " fill="#69BD82" transform="translate(202,231)"/>
<path d="M0 0 C0.99 0.33 1.98 0.66 3 1 C3 1.66 3 2.32 3 3 C4.32 3 5.64 3 7 3 C7.33 4.32 7.66 5.64 8 7 C7.01 7 6.02 7 5 7 C0 1.53488372 0 1.53488372 0 0 Z " fill="#43A964" transform="translate(357,224)"/>
<path d="M0 0 C0.66 0.33 1.32 0.66 2 1 C0.35 3.64 -1.3 6.28 -3 9 C-3.66 7.68 -4.32 6.36 -5 5 C-3.35 3.35 -1.7 1.7 0 0 Z " fill="#5AB074" transform="translate(289,410)"/>
<path d="M0 0 C1.98 0.495 1.98 0.495 4 1 C2.68 3.31 1.36 5.62 0 8 C-0.33 8 -0.66 8 -1 8 C-1.125 2.25 -1.125 2.25 0 0 Z " fill="#3BA55B" transform="translate(302,386)"/>
<path d="M0 0 C0.99 0 1.98 0 3 0 C1.60667426 3.36720387 0.0210714 4.9859524 -3 7 C-2.67 5.35 -2.34 3.7 -2 2 C-1.34 2 -0.68 2 0 2 C0 1.34 0 0.68 0 0 Z " fill="#379F5B" transform="translate(269,294)"/>
<path d="M0 0 C1.15224028 0.92961422 2.29659176 1.8690125 3.4375 2.8125 C4.07558594 3.33457031 4.71367187 3.85664063 5.37109375 4.39453125 C7 6 7 6 8 9 C7.01 9 6.02 9 5 9 C4.67 8.01 4.34 7.02 4 6 C3.319375 5.319375 2.63875 4.63875 1.9375 3.9375 C1.298125 3.298125 0.65875 2.65875 0 2 C0 1.34 0 0.68 0 0 Z " fill="#40A45F" transform="translate(374,209)"/>
<path d="M0 0 C0.33 0.99 0.66 1.98 1 3 C1.66 3 2.32 3 3 3 C3 3.66 3 4.32 3 5 C1.35 5.33 -0.3 5.66 -2 6 C-2 6.66 -2 7.32 -2 8 C-2.66 8 -3.32 8 -4 8 C-2.66666667 5.33333333 -1.33333333 2.66666667 0 0 Z " fill="#47AF70" transform="translate(178,136)"/>
<path d="M0 0 C1.9375 0.625 1.9375 0.625 4 2 C4.75 5.125 4.75 5.125 5 8 C2.20127563 5.47211993 0.54226981 3.79588866 0 0 Z " fill="#50B16C" transform="translate(185,371)"/>
<path d="M0 0 C0.66 0 1.32 0 2 0 C2 0.66 2 1.32 2 2 C3.98 1.67 5.96 1.34 8 1 C7.01 2.32 6.02 3.64 5 5 C3.0625 4.1875 3.0625 4.1875 1 3 C0.67 2.01 0.34 1.02 0 0 Z " fill="#55AE72" transform="translate(155,324)"/>
<path d="M0 0 C3.65316671 1.24976756 4.78065836 1.67098753 7 5 C6.67 5.99 6.34 6.98 6 8 C4.02 5.36 2.04 2.72 0 0 Z " fill="#4AAC68" transform="translate(328,191)"/>
<path d="M0 0 C1.19156292 4.76625167 0.3415946 5.87879351 -2 10 C-2.99 9.34 -3.98 8.68 -5 8 C-3.35 5.36 -1.7 2.72 0 0 Z " fill="#5DB277" transform="translate(192,114)"/>
<path d="M0 0 C1.98 0.66 3.96 1.32 6 2 C6 3.32 6 4.64 6 6 C5.01 6 4.02 6 3 6 C0 2.66666667 0 2.66666667 0 0 Z " fill="#4FAD6D" transform="translate(224,433)"/>
<path d="M0 0 C1.32 0.33 2.64 0.66 4 1 C1.525 4.465 1.525 4.465 -1 8 C-2.2077558 4.37673261 -1.54311128 3.35853631 0 0 Z " fill="#52AA6B" transform="translate(297,395)"/>
<path d="M0 0 C4.75 0.75 4.75 0.75 7 3 C6.01 3.99 5.02 4.98 4 6 C2.68 4.02 1.36 2.04 0 0 Z " fill="#4DAB6B" transform="translate(145,313)"/>
<path d="M0 0 C1 2 1 2 0.375 4.0625 C-1 6 -1 6 -3.625 6.75 C-4.800625 6.87375 -4.800625 6.87375 -6 7 C-4.02 4.69 -2.04 2.38 0 0 Z " fill="#43A761" transform="translate(270,264)"/>
<path d="M0 0 C1.98 0.66 3.96 1.32 6 2 C4.68 3.32 3.36 4.64 2 6 C1.34 5.34 0.68 4.68 0 4 C0 2.68 0 1.36 0 0 Z " fill="#2C9D52" transform="translate(395,258)"/>
<path d="M0 0 C1.65 1.32 3.3 2.64 5 4 C4.67 4.99 4.34 5.98 4 7 C3.01 6.67 2.02 6.34 1 6 C0.67 4.02 0.34 2.04 0 0 Z " fill="#43A360" transform="translate(382,218)"/>
<path d="M0 0 C2.5 2.3125 2.5 2.3125 5 5 C5 5.99 5 6.98 5 8 C3.0625 7.375 3.0625 7.375 1 6 C0.25 2.875 0.25 2.875 0 0 Z " fill="#61B179" transform="translate(283,78)"/>
<path d="M0 0 C0.99 0.33 1.98 0.66 3 1 C0.25 6.875 0.25 6.875 -2 8 C-2 7.34 -2 6.68 -2 6 C-2.66 5.67 -3.32 5.34 -4 5 C-2.68 5 -1.36 5 0 5 C0 3.35 0 1.7 0 0 Z " fill="#53B06E" transform="translate(247,70)"/>
<path d="M0 0 C1.33332095 2.6666419 0.67102033 4.16680303 0 7 C-1.32 6.67 -2.64 6.34 -4 6 C-2.68 4.02 -1.36 2.04 0 0 Z " fill="#62B97A" transform="translate(262,410)"/>
<path d="M0 0 C1.65 1.65 3.3 3.3 5 5 C3.02 5 1.04 5 -1 5 C-0.67 3.35 -0.34 1.7 0 0 Z " fill="#42A961" transform="translate(128,258)"/>
<path d="M0 0 C1.485 0.99 1.485 0.99 3 2 C2.67 3.98 2.34 5.96 2 8 C1.34 7.67 0.68 7.34 0 7 C0 4.69 0 2.38 0 0 Z " fill="#17A54D" transform="translate(188,245)"/>
<path d="M0 0 C0.33 0.99 0.66 1.98 1 3 C-2 5 -2 5 -5 5 C-4 2 -4 2 -1.9375 0.8125 C-1.298125 0.544375 -0.65875 0.27625 0 0 Z " fill="#38A25A" transform="translate(227,65)"/>
<path d="M0 0 C1.98 0.495 1.98 0.495 4 1 C4.33 2.32 4.66 3.64 5 5 C3.02 4.34 1.04 3.68 -1 3 C-0.67 2.01 -0.34 1.02 0 0 Z " fill="#3FA960" transform="translate(252,32)"/>
<path d="" fill="#FFFFFF" transform="translate(0,0)"/>
<path d="" fill="#FFFFFF" transform="translate(0,0)"/>
<path d="" fill="#FFFFFF" transform="translate(0,0)"/>
<path d="" fill="#FFFFFF" transform="translate(0,0)"/>
<path d="" fill="#FFFFFF" transform="translate(0,0)"/>
<path d="" fill="#FFFFFF" transform="translate(0,0)"/>
<path d="" fill="#FFFFFF" transform="translate(0,0)"/>
<path d="" fill="#FFFFFF" transform="translate(0,0)"/>
<path d="" fill="#FFFFFF" transform="translate(0,0)"/>
<path d="" fill="#FFFFFF" transform="translate(0,0)"/>
<path d="" fill="#FFFFFF" transform="translate(0,0)"/>
<path d="" fill="#FFFFFF" transform="translate(0,0)"/>
<path d="" fill="#FFFFFF" transform="translate(0,0)"/>
<path d="" fill="#FFFFFF" transform="translate(0,0)"/>
<path d="" fill="#FFFFFF" transform="translate(0,0)"/>
<path d="" fill="#FFFFFF" transform="translate(0,0)"/>
<path d="" fill="#FFFFFF" transform="translate(0,0)"/>
<path d="" fill="#FFFFFF" transform="translate(0,0)"/>
<path d="" fill="#FFFFFF" transform="translate(0,0)"/>
<path d="" fill="#FFFFFF" transform="translate(0,0)"/>
<path d="" fill="#FFFFFF" transform="translate(0,0)"/>
<path d="" fill="#FFFFFF" transform="translate(0,0)"/>
<path d="" fill="#FFFFFF" transform="translate(0,0)"/>
<path d="" fill="#FFFFFF" transform="translate(0,0)"/>
<path d="" fill="#FFFFFF" transform="translate(0,0)"/>
<path d="" fill="#FFFFFF" transform="translate(0,0)"/>
<path d="" fill="#FFFFFF" transform="translate(0,0)"/>
<path d="" fill="#FFFFFF" transform="translate(0,0)"/>
<path d="" fill="#FFFFFF" transform="translate(0,0)"/>
<path d="" fill="#FFFFFF" transform="translate(0,0)"/>
<path d="" fill="#FFFFFF" transform="translate(0,0)"/>
<path d="" fill="#FFFFFF" transform="translate(0,0)"/>
<path d="" fill="#FFFFFF" transform="translate(0,0)"/>
<path d="" fill="#FFFFFF" transform="translate(0,0)"/>
<path d="" fill="#FFFFFF" transform="translate(0,0)"/>
<path d="" fill="#FFFFFF" transform="translate(0,0)"/>
<path d="" fill="#FFFFFF" transform="translate(0,0)"/>
<path d="" fill="#FFFFFF" transform="translate(0,0)"/>
<path d="" fill="#FFFFFF" transform="translate(0,0)"/>
<path d="" fill="#FFFFFF" transform="translate(0,0)"/>
<path d="" fill="#FFFFFF" transform="translate(0,0)"/>
<path d="" fill="#FFFFFF" transform="translate(0,0)"/>
<path d="" fill="#FFFFFF" transform="translate(0,0)"/>
<path d="" fill="#FFFFFF" transform="translate(0,0)"/>
<path d="" fill="#FFFFFF" transform="translate(0,0)"/>
<path d="" fill="#FFFFFF" transform="translate(0,0)"/>
<path d="" fill="#FFFFFF" transform="translate(0,0)"/>
<path d="" fill="#FFFFFF" transform="translate(0,0)"/>
<path d="" fill="#FFFFFF" transform="translate(0,0)"/>
<path d="" fill="#FFFFFF" transform="translate(0,0)"/>
<path d="" fill="#FFFFFF" transform="translate(0,0)"/>
<path d="" fill="#FFFFFF" transform="translate(0,0)"/>
<path d="" fill="#FFFFFF" transform="translate(0,0)"/>
<path d="" fill="#FFFFFF" transform="translate(0,0)"/>
<path d="" fill="#FFFFFF" transform="translate(0,0)"/>
<path d="" fill="#FFFFFF" transform="translate(0,0)"/>
<path d="" fill="#FFFFFF" transform="translate(0,0)"/>
<path d="" fill="#FFFFFF" transform="translate(0,0)"/>
<path d="" fill="#FFFFFF" transform="translate(0,0)"/>
<path d="" fill="#FFFFFF" transform="translate(0,0)"/>
<path d="" fill="#FFFFFF" transform="translate(0,0)"/>
<path d="" fill="#FFFFFF" transform="translate(0,0)"/>
<path d="" fill="#FFFFFF" transform="translate(0,0)"/>
<path d="" fill="#FFFFFF" transform="translate(0,0)"/>
</svg>
