<?xml version="1.0" encoding="UTF-8"?>
<svg version="1.1" xmlns="http://www.w3.org/2000/svg" width="500" height="500">
<path d="M0 0 C34.32 0 68.64 0 104 0 C103.1060992 3.57560319 102.72733837 4.68118316 100.56640625 7.34765625 C99.8403418 8.25547852 99.8403418 8.25547852 99.09960938 9.18164062 C98.59236328 9.80232422 98.08511719 10.42300781 97.5625 11.0625 C96.56293024 12.30268323 95.56420099 13.54354447 94.56640625 14.78515625 C94.12240479 15.33051025 93.67840332 15.87586426 93.22094727 16.43774414 C92.07463488 17.90450138 91.03260818 19.45108773 90 21 C89.34 21 88.68 21 88 21 C87.72994141 21.58015869 87.45988281 22.16031738 87.18164062 22.75805664 C85.99270332 25.01384409 84.67016717 26.87008497 83.09375 28.87109375 C82.51898926 29.60312012 81.94422852 30.33514648 81.35205078 31.08935547 C80.43528564 32.25168701 80.43528564 32.25168701 79.5 33.4375 C78.56583252 34.65010498 78.56583252 34.65010498 77.61279297 35.88720703 C74.81125401 39.51158567 72.01848226 43.05799273 68.8515625 46.37109375 C62.79209478 52.91296977 61.22583428 58.04247819 61.375 66.8125 C61.50293787 69.89124528 61.72445748 72.92923164 62 76 C62.66 76 63.32 76 64 76 C67 79.46153846 67 79.46153846 67 82 C67.66 82 68.32 82 69 82 C69 82.66 69 83.32 69 84 C69.57621094 84.22816406 70.15242187 84.45632812 70.74609375 84.69140625 C73.6051395 86.35133749 75.05086818 88.31673854 77.0625 90.9375 C80.39964523 95.13921916 83.85326502 98.99948766 87.6875 102.75 C91.69457865 106.68391569 95.52495 110.5857473 99 115 C99 115.66 99 116.32 99 117 C99.59683594 117.26039063 100.19367188 117.52078125 100.80859375 117.7890625 C103.16106783 119.08900361 104.36050785 120.3117154 106.0625 122.375 C108.28581268 125.01579061 110.54103887 127.60391438 112.8984375 130.125 C113.39980225 130.66205566 113.90116699 131.19911133 114.41772461 131.75244141 C115.42293671 132.82563653 116.43151896 133.89568589 117.44360352 134.96240234 C121 138.77935664 121 138.77935664 121 141 C121.66 141 122.32 141 123 141 C124.375 142.36328125 124.375 142.36328125 126 144.3125 C129.8819307 148.90023628 133.95638472 153.29014043 138.05859375 157.6796875 C140 160 140 160 140 162 C140.66 162 141.32 162 142 162 C142 162.66 142 163.32 142 164 C142.66 164 143.32 164 144 164 C145.33984375 165.328125 145.33984375 165.328125 146.9375 167.25 C149.20679462 169.93276779 151.50670994 172.56655115 153.90625 175.1328125 C154.40648682 175.66874023 154.90672363 176.20466797 155.42211914 176.75683594 C156.4256602 177.82844383 157.4326231 178.8968583 158.44311523 179.96191406 C162 183.77930131 162 183.77930131 162 186 C162.66 186 163.32 186 164 186 C165.66666667 187.66666667 167.33333333 189.33333333 169 191 C169.99 191.33 170.98 191.66 172 192 C172 192.66 172 193.32 172 194 C172.763125 193.690625 173.52625 193.38125 174.3125 193.0625 C177.65348017 192.0998447 179.73039869 191.99508741 183.125 192 C190.93367854 191.45595272 195.54670782 186.08609342 201 181 C205.69243697 177 205.69243697 177 208 177 C208 176.34 208 175.68 208 175 C209.67881163 173.62367695 211.42191742 172.32558818 213.1875 171.0625 C219.01779549 166.81940886 224.5218333 162.27209799 229.9921875 157.578125 C230.98476563 156.72734375 231.97734375 155.8765625 233 155 C233.51981445 154.52498047 234.03962891 154.04996094 234.57519531 153.56054688 C237.7343582 150.74403927 238.5930884 150 243 150 C243 184.32 243 218.64 243 254 C237.80833395 252.96166679 236.78391677 252.34392645 233 249 C231.60530337 247.76954371 230.20939677 246.54045799 228.8125 245.3125 C227.80123047 244.40951172 227.80123047 244.40951172 226.76953125 243.48828125 C225.05946845 241.93245978 225.05946845 241.93245978 223 241 C223 240.34 223 239.68 223 239 C222.21109375 238.66162109 222.21109375 238.66162109 221.40625 238.31640625 C218.15804336 236.53938411 215.37379681 234.25129713 212.5 231.9375 C208.84343549 229.01815388 205.18737347 226.11154154 201.4140625 223.34375 C200.85912109 222.93648682 200.30417969 222.52922363 199.73242188 222.10961914 C198.20265858 220.99412801 196.66786384 219.88554661 195.1328125 218.77734375 C194.42898438 218.19082031 193.72515625 217.60429687 193 217 C193 216.34 193 215.68 193 215 C192.0409375 214.5359375 192.0409375 214.5359375 191.0625 214.0625 C189 213 189 213 188 212 C185.05560128 211.70762741 182.13922453 211.48397896 179.1875 211.3125 C177.95676758 211.22258789 177.95676758 211.22258789 176.70117188 211.13085938 C175.90646484 211.08380859 175.11175781 211.03675781 174.29296875 210.98828125 C173.5661792 210.94227783 172.83938965 210.89627441 172.09057617 210.84887695 C169.65365489 211.02503651 168.10015533 211.78811 166 213 C166 213.66 166 214.32 166 215 C165.34 215 164.68 215 164 215 C163.7525 215.556875 163.505 216.11375 163.25 216.6875 C161.77075182 219.42410913 160.06532561 221.67650869 158 224 C157.34 224 156.68 224 156 224 C155.79375 224.52464844 155.5875 225.04929687 155.375 225.58984375 C153.40448678 229.04383993 150.7343654 231.69593062 148 234.5625 C146.91478852 235.70785882 145.83138535 236.85493432 144.75 238.00390625 C144.27046875 238.50736572 143.7909375 239.0108252 143.296875 239.52954102 C141.78377818 241.17879325 141.78377818 241.17879325 140 244 C139.34 244 138.68 244 138 244 C137.731875 244.5775 137.46375 245.155 137.1875 245.75 C135.97070811 248.05550043 134.69666121 250.02056192 133 252 C132.34 252 131.68 252 131 252 C131 252.66 131 253.32 131 254 C130.34 254 129.68 254 129 254 C128.74992187 254.56976563 128.49984375 255.13953125 128.2421875 255.7265625 C126.81892784 258.33139623 125.14901359 260.20270702 123.125 262.375 C119.28964279 266.55677657 115.55725729 270.80787077 111.875 275.125 C111.36356445 275.72248047 110.85212891 276.31996094 110.32519531 276.93554688 C108.12452901 279.50701622 105.93014654 282.08295099 103.75 284.671875 C103.13125 285.39890625 102.5125 286.1259375 101.875 286.875 C101.35679687 287.49117188 100.83859375 288.10734375 100.3046875 288.7421875 C99 290 99 290 97 290 C96.67 290.99 96.34 291.98 96 293 C95.34 293 94.68 293 94 293 C93.75121094 293.5671875 93.50242187 294.134375 93.24609375 294.71875 C91.80453698 297.35783826 90.1009717 299.28827664 88.0625 301.5 C87.26972656 302.36625 86.47695313 303.2325 85.66015625 304.125 C84.78230469 305.07375 83.90445313 306.0225 83 307 C81.49416748 308.62846379 79.98909093 310.2575995 78.48608398 311.88867188 C77.50763417 312.94958346 76.52673512 314.00824223 75.54321289 315.06445312 C72.97374171 317.81718308 72.97374171 317.81718308 71 321 C70.34 321 69.68 321 69 321 C69 321.66 69 322.32 69 323 C68.34 323 67.68 323 67 323 C66.5978125 323.86625 66.5978125 323.86625 66.1875 324.75 C65 327 65 327 63.4765625 328.578125 C59.90354691 334.43862676 60.630288 343.47154321 62 350 C64.22658974 354.84248732 68.26829423 358.30018915 72 362 C73.49810316 363.97038652 74.95914002 365.96971021 76.375 368 C78.70488532 371.33124028 81.11171817 374.14672765 84 377 C84.88447482 378.16510139 85.74173716 379.35167165 86.5625 380.5625 C88.19829688 382.97060755 89.91433377 384.97040007 92 387 C95 390.66666667 95 390.66666667 95 393 C95.9590625 393.37125 95.9590625 393.37125 96.9375 393.75 C99.544301 395.32987939 99.29195078 396.16780311 100 399 C101.9837767 400.28436734 101.9837767 400.28436734 104 401 C104 402.32 104 403.64 104 405 C53.015 405.495 53.015 405.495 1 406 C0.67 404.35 0.34 402.7 0 401 C2.109375 398.57421875 2.109375 398.57421875 5 396 C6.81127468 393.98842742 8.52665966 391.8995993 10.25 389.8125 C10.69601563 389.27947266 11.14203125 388.74644531 11.6015625 388.19726562 C14.04808101 385.26588274 14.04808101 385.26588274 16 382 C16.66 382 17.32 382 18 382 C18.66 380.35 19.32 378.7 20 377 C20.66 377 21.32 377 22 377 C22 376.34 22 375.68 22 375 C22.66 375 23.32 375 24 375 C24.24621094 374.28199219 24.49242187 373.56398438 24.74609375 372.82421875 C26.14116316 369.68205308 27.86471807 367.44904058 30.0625 364.8125 C32.80920164 361.58717013 32.80920164 361.58717013 35 358 C35.66 358 36.32 358 37 358 C37.4021875 357.13375 37.4021875 357.13375 37.8125 356.25 C39 354 39 354 40.54296875 352.48046875 C42.8626731 348.53137421 42.51290869 344.55795088 42.5 340.0625 C42.52835938 339.16853516 42.55671875 338.27457031 42.5859375 337.35351562 C42.5998697 332.66184881 42.58643975 330.69594471 39.46875 326.99609375 C38.6540625 326.33738281 37.839375 325.67867188 37 325 C37 324.34 37 323.68 37 323 C36.34 323 35.68 323 35 323 C33.58984375 321.6015625 33.58984375 321.6015625 31.9375 319.625 C29.17182591 316.37058933 26.36691808 313.16586167 23.5 310 C22.74847656 309.1646875 21.99695313 308.329375 21.22265625 307.46875 C19.7755913 305.8614652 18.32523307 304.25713732 16.87109375 302.65625 C15.91396484 301.58890625 15.91396484 301.58890625 14.9375 300.5 C14.36902344 299.8709375 13.80054688 299.241875 13.21484375 298.59375 C12 297 12 297 12 295 C11.01 294.67 10.02 294.34 9 294 C7.52734375 292.5390625 7.52734375 292.5390625 5.9375 290.625 C2.07957633 286.055099 -1.97630229 281.68854688 -6.05859375 277.3203125 C-8 275 -8 275 -8 273 C-8.66 273 -9.32 273 -10 273 C-11.515625 271.49609375 -11.515625 271.49609375 -13.25 269.4375 C-13.86488281 268.71175781 -14.47976562 267.98601562 -15.11328125 267.23828125 C-15.73589844 266.49964844 -16.35851562 265.76101563 -17 265 C-17.59167969 264.33355469 -18.18335938 263.66710937 -18.79296875 262.98046875 C-19.33566406 262.36816406 -19.87835938 261.75585938 -20.4375 261.125 C-20.93121094 260.57070313 -21.42492187 260.01640625 -21.93359375 259.4453125 C-23 258 -23 258 -23 256 C-23.66 256 -24.32 256 -25 256 C-25 255.34 -25 254.68 -25 254 C-25.66 254 -26.32 254 -27 254 C-28.41170765 252.40324822 -29.75399468 250.74486398 -31.0625 249.0625 C-34.74998469 244.44574549 -38.62621541 240.26561815 -42.84765625 236.140625 C-46.06900311 232.93681724 -49.28036801 229.64658052 -52 226 C-52 225.34 -52 224.68 -52 224 C-52.66 224 -53.32 224 -54 224 C-55.5078125 222.5390625 -55.5078125 222.5390625 -57.125 220.625 C-57.66382813 219.99851562 -58.20265625 219.37203125 -58.7578125 218.7265625 C-60 217 -60 217 -60 215 C-60.66 215 -61.32 215 -62 215 C-62 214.34 -62 213.68 -62 213 C-66.01826844 211.66057719 -69.72951687 211.77661175 -73.9375 211.75 C-74.74896484 211.729375 -75.56042969 211.70875 -76.39648438 211.6875 C-80.93500777 211.65771478 -83.56510155 211.72866814 -87 215 C-87.66 215 -88.32 215 -89 215 C-89 215.66 -89 216.32 -89 217 C-90.86287993 218.55798959 -92.73178058 220.00400723 -94.6875 221.4375 C-100.18509318 225.55592201 -105.47596226 229.85414654 -110.68432617 234.33178711 C-118.45219628 241 -118.45219628 241 -121 241 C-121 241.66 -121 242.32 -121 243 C-123.25546714 244.93451946 -125.51737177 246.76082911 -127.875 248.5625 C-128.52597656 249.06974609 -129.17695313 249.57699219 -129.84765625 250.09960938 C-134.67657425 253.83828712 -134.67657425 253.83828712 -137 255 C-137.66 254.67 -138.32 254.34 -139 254 C-139 219.68 -139 185.36 -139 150 C-137.02 150.33 -135.04 150.66 -133 151 C-132.67 151.99 -132.34 152.98 -132 154 C-130.20067421 155.06716704 -130.20067421 155.06716704 -128 156 C-124.40527758 157.97709733 -121.88312036 160.11161848 -119 163 C-117.43407739 164.33322432 -115.8488859 165.64399137 -114.25 166.9375 C-113.28964844 167.71609375 -112.32929687 168.4946875 -111.33984375 169.296875 C-110.81116699 169.72419922 -110.28249023 170.15152344 -109.73779297 170.59179688 C-107.82197852 172.14425792 -105.91264157 173.70446943 -104.00390625 175.265625 C-102.60682429 176.40631547 -101.20968912 177.54694078 -99.8125 178.6875 C-99.15991211 179.22173584 -98.50732422 179.75597168 -97.83496094 180.30639648 C-96.54337933 181.35828473 -95.24434617 182.40109027 -93.93798828 183.43457031 C-92.63874495 184.48404729 -91.37076027 185.57335493 -90.13623047 186.69824219 C-84.54197018 191.51707464 -79.72968024 191.89397554 -72.5 191.875 C-71.48679687 191.895625 -70.47359375 191.91625 -69.4296875 191.9375 C-66.95229287 191.98424329 -64.47774176 192.00447477 -62 192 C-62 191.34 -62 190.68 -62 190 C-61.34 190 -60.68 190 -60 190 C-59.59587891 189.11828125 -59.59587891 189.11828125 -59.18359375 188.21875 C-57.99702607 185.99442511 -56.74203141 184.37253379 -55.0625 182.5 C-54.45277344 181.81679687 -53.84304687 181.13359375 -53.21484375 180.4296875 C-51.52477052 178.57567418 -49.82950578 176.72713254 -48.12890625 174.8828125 C-47.63318115 174.34462891 -47.13745605 173.80644531 -46.62670898 173.25195312 C-45.6353508 172.1779146 -44.64141902 171.10624514 -43.64477539 170.03710938 C-41.01867361 167.23828069 -41.01867361 167.23828069 -39 164 C-38.34 164 -37.68 164 -37 164 C-37 163.34 -37 162.68 -37 162 C-35.35570171 160.31126121 -33.68615782 158.64694485 -32 157 C-31.443125 156.236875 -30.88625 155.47375 -30.3125 154.6875 C-29.879375 154.130625 -29.44625 153.57375 -29 153 C-28.34 153 -27.68 153 -27 153 C-26.73445313 152.40445313 -26.46890625 151.80890625 -26.1953125 151.1953125 C-24.96553752 148.93670616 -23.75225947 147.61255644 -21.875 145.875 C-18.05944522 142.20342842 -14.89539098 138.1548278 -11.69921875 133.94140625 C-11.13847656 133.30074219 -10.57773438 132.66007813 -10 132 C-9.34 132 -8.68 132 -8 132 C-7.7525 131.443125 -7.505 130.88625 -7.25 130.3125 C-5.77075182 127.57589087 -4.06532561 125.32349131 -2 123 C-1.34 123 -0.68 123 0 123 C0.37125 122.15695313 0.37125 122.15695313 0.75 121.296875 C2.21274867 118.60907431 3.96804873 116.53594518 6 114.25 C6.70125 113.45078125 7.4025 112.6515625 8.125 111.828125 C10 110 10 110 12 110 C12.40883423 109.10788818 12.40883423 109.10788818 12.82592773 108.19775391 C13.96800049 106.05990011 15.12292732 104.58388243 16.78515625 102.8359375 C17.31560547 102.27132812 17.84605469 101.70671875 18.39257812 101.125 C18.94365234 100.5475 19.49472656 99.97 20.0625 99.375 C23.96570729 95.50673691 23.96570729 95.50673691 27 91 C27.66 91 28.32 91 29 91 C29.2475 90.443125 29.495 89.88625 29.75 89.3125 C31.22924818 86.57589087 32.93467439 84.32349131 35 82 C35.66 82 36.32 82 37 82 C37 81.34 37 80.68 37 80 C37.66 80 38.32 80 39 80 C39.309375 79.360625 39.61875 78.72125 39.9375 78.0625 C41 76 41 76 42 75 C42.33481341 71.78112932 42.32507102 68.54653652 42.375 65.3125 C42.41238281 64.41337891 42.44976562 63.51425781 42.48828125 62.58789062 C42.54829015 58.04388331 42.52139376 55.01629785 39.4765625 51.48046875 C38.65929687 50.66191406 37.84203125 49.84335938 37 49 C37 48.34 37 47.68 37 47 C36.34 47 35.68 47 35 47 C33.68725586 45.57885742 33.68725586 45.57885742 32.21484375 43.60546875 C31.41916992 42.54295898 31.41916992 42.54295898 30.60742188 41.45898438 C30.05634766 40.70939453 29.50527344 39.95980469 28.9375 39.1875 C28.38255859 38.44951172 27.82761719 37.71152344 27.25585938 36.95117188 C23.13489507 31.4046852 23.13489507 31.4046852 22 28 C21.34 28 20.68 28 20 28 C16 23.52941176 16 23.52941176 16 21 C15.34 21 14.68 21 14 21 C12.7109375 19.5390625 12.7109375 19.5390625 11.375 17.625 C10.92898437 16.99851562 10.48296875 16.37203125 10.0234375 15.7265625 C9 14 9 14 9 12 C8.34 12 7.68 12 7 12 C5.64721885 10.01310269 4.31431695 8.01254782 3 6 C2.01 5.505 2.01 5.505 1 5 C0.67 3.35 0.34 1.7 0 0 Z M37 17 C38.24136433 21.96545733 40.37886506 25.37886506 44 29 C46 31 46 31 48.125 34.25 C48.74375 35.1575 49.3625 36.065 50 37 C50.66 37 51.32 37 52 37 C52.33 37.66 52.66 38.32 53 39 C54.94560579 36.46444795 56.87995695 33.92051806 58.8125 31.375 C59.35970703 30.66214844 59.90691406 29.94929688 60.47070312 29.21484375 C61.00244141 28.51230469 61.53417969 27.80976562 62.08203125 27.0859375 C62.56905518 26.4470459 63.0560791 25.8081543 63.55786133 25.14990234 C65.28141608 22.58047233 66.61633735 19.76732529 68 17 C57.77 17 47.54 17 37 17 Z M52 93 C50.99403703 93.9520721 49.99538437 94.91187346 49 95.875 C48.443125 96.40867187 47.88625 96.94234375 47.3125 97.4921875 C45.78114478 98.91824988 45.78114478 98.91824988 46 101 C44.68 101.66 43.36 102.32 42 103 C42 103.66 42 104.32 42 105 C41.34 105 40.68 105 40 105 C38.22328303 106.67959838 38.22328303 106.67959838 36.4375 108.8125 C35.81746094 109.52019531 35.19742188 110.22789062 34.55859375 110.95703125 C32.81575246 113.01273468 32.81575246 113.01273468 32 116 C31.34 116 30.68 116 30 116 C30 116.66 30 117.32 30 118 C29.34 118 28.68 118 28 118 C28 118.66 28 119.32 28 120 C27.34 120 26.68 120 26 120 C24.18932626 121.71331989 24.18932626 121.71331989 22.375 123.875 C21.42753906 124.95394531 21.42753906 124.95394531 20.4609375 126.0546875 C18.79982877 127.86106933 18.79982877 127.86106933 19 130 C17.515 130.495 17.515 130.495 16 131 C13.59004634 133.63541018 13.59004634 133.63541018 13 137 C12.401875 137.268125 11.80375 137.53625 11.1875 137.8125 C9.00152146 138.99917406 7.58667406 140.09599113 6 142 C6 142.66 6 143.32 6 144 C5.34 144 4.68 144 4 144 C2.49726114 145.44683052 2.49726114 145.44683052 0.9375 147.375 C0.30714844 148.11492187 -0.32320312 148.85484375 -0.97265625 149.6171875 C-1.64167969 150.40351563 -2.31070313 151.18984375 -3 152 C-9.02520261 158.84073508 -15.24370767 165.49373767 -21.5078125 172.11523438 C-25.19741816 176.02762343 -28.77536463 180.01426513 -32.29931641 184.07617188 C-33.91909283 185.9084771 -35.57917955 187.68583876 -37.2734375 189.44921875 C-37.78777344 189.98740234 -38.30210937 190.52558594 -38.83203125 191.08007812 C-39.87778873 192.16951915 -40.93010991 193.2526906 -41.98828125 194.33007812 C-44.15179821 196.61195543 -45.8593552 198.6786657 -47.125 201.5703125 C-46.93705481 205.22349713 -45.14499524 206.62485869 -42.625 209.1875 C-38.0384 213.9232 -38.0384 213.9232 -37 216 C-36.34 216 -35.68 216 -35 216 C-34.72744385 216.59474121 -34.4548877 217.18948242 -34.17407227 217.80224609 C-33.03199951 219.94009989 -31.87707268 221.41611757 -30.21484375 223.1640625 C-29.41916992 224.01097656 -29.41916992 224.01097656 -28.60742188 224.875 C-28.05634766 225.4525 -27.50527344 226.03 -26.9375 226.625 C-21.11993243 232.76013514 -21.11993243 232.76013514 -20 235 C-19.34 235 -18.68 235 -18 235 C-17.78472656 235.53367187 -17.56945312 236.06734375 -17.34765625 236.6171875 C-15.50423156 239.87657608 -12.99986627 242.4281177 -10.4375 245.125 C-5.11993243 250.76013514 -5.11993243 250.76013514 -4 253 C-3.34 253 -2.68 253 -2 253 C-2 253.66 -2 254.32 -2 255 C-1.34 255 -0.68 255 0 255 C0.2371875 255.55171875 0.474375 256.1034375 0.71875 256.671875 C2.31245143 259.56774711 4.28917273 261.79512037 6.5 264.25 C7.2940625 265.14203125 8.088125 266.0340625 8.90625 266.953125 C10.75034671 269.233019 10.75034671 269.233019 13 269 C13.66 270.65 14.32 272.3 15 274 C15.66 274 16.32 274 17 274 C17 274.66 17 275.32 17 276 C17.66 276 18.32 276 19 276 C19.27005859 276.59296875 19.54011719 277.1859375 19.81835938 277.796875 C20.9920496 279.98517677 22.18924371 281.47036077 23.90625 283.25 C24.48084961 283.85320068 25.05544922 284.45640137 25.64746094 285.07788086 C26.25879883 285.71218018 26.87013672 286.34647949 27.5 287 C32.98985585 292.76548233 38.15299413 298.67404395 43.109375 304.90234375 C43.73328125 305.59457031 44.3571875 306.28679687 45 307 C45.66 307 46.32 307 47 307 C47.2475 307.61875 47.495 308.2375 47.75 308.875 C49.20628639 311.35068687 50.37812506 311.95125002 53 313 C54.15039081 311.84960919 55.30044707 310.69888266 56.44921875 309.546875 C57.50916662 308.48959702 58.57454233 307.43774005 59.64453125 306.390625 C66.15090432 299.98994604 66.15090432 299.98994604 72 293 C72 292.34 72 291.68 72 291 C72.66 291 73.32 291 74 291 C74 290.34 74 289.68 74 289 C74.66 289 75.32 289 76 289 C77.81067374 287.28668011 77.81067374 287.28668011 79.625 285.125 C80.57246094 284.04605469 80.57246094 284.04605469 81.5390625 282.9453125 C83.20017123 281.13893067 83.20017123 281.13893067 83 279 C83.66 279 84.32 279 85 279 C86.58191818 277.51573767 86.58191818 277.51573767 88.125 275.625 C88.66382813 274.99851562 89.20265625 274.37203125 89.7578125 273.7265625 C91.19467147 272.08391572 91.19467147 272.08391572 91 270 C91.66 270 92.32 270 93 270 C94.50273886 268.55316948 94.50273886 268.55316948 96.0625 266.625 C98.82817409 263.37058933 101.63308192 260.16586167 104.5 257 C107.77649549 253.36868943 111.02132012 249.71383644 114.2265625 246.01953125 C115.5395571 244.52433695 116.87052487 243.04488349 118.2109375 241.57421875 C118.94570313 240.76597656 119.68046875 239.95773437 120.4375 239.125 C121.11683594 238.38507813 121.79617188 237.64515625 122.49609375 236.8828125 C124.20803393 235.14117116 124.20803393 235.14117116 124 233 C124.66 233 125.32 233 126 233 C127.46870728 231.58680081 127.46870728 231.58680081 129 229.6875 C131.93749422 226.22982451 134.93724616 222.84755259 138 219.5 C141.59286239 215.56209138 145.13799315 211.59044542 148.625 207.55859375 C149.7065416 206.33264177 150.843996 205.156004 152 204 C151.64700993 200.55834679 150.95418308 198.93127462 149 196 C148.34 196 147.68 196 147 196 C147 195.34 147 194.68 147 194 C146.34 194 145.68 194 145 194 C145 193.34 145 192.68 145 192 C144.34 192 143.68 192 143 192 C142.62875 191.1646875 142.62875 191.1646875 142.25 190.3125 C140.77075182 187.57589087 139.06532561 185.32349131 137 183 C136.34 183 135.68 183 135 183 C134.5978125 182.0409375 134.5978125 182.0409375 134.1875 181.0625 C133.11332248 178.66868314 133.11332248 178.66868314 130 178 C129.29171661 176.68830001 128.62919851 175.35141831 128 174 C126.60597483 172.26159015 126.60597483 172.26159015 124.98828125 170.609375 C124.39877686 169.98627441 123.80927246 169.36317383 123.2019043 168.72119141 C122.57840088 168.07069824 121.95489746 167.42020508 121.3125 166.75 C120.03289239 165.39934803 118.75423481 164.04779534 117.4765625 162.6953125 C116.86844727 162.05239258 116.26033203 161.40947266 115.63378906 160.74707031 C113.76582765 158.74959095 111.9637485 156.70430512 110.1875 154.625 C107.04813907 150.97163791 103.63978214 147.62614372 100.21484375 144.2421875 C96.12393235 140.10077102 92.23167392 135.84751087 89 131 C88.34 131 87.68 131 87 131 C87 130.34 87 129.68 87 129 C86.34 129 85.68 129 85 129 C85 128.34 85 127.68 85 127 C84.34 127 83.68 127 83 127 C82.61521484 126.12214844 82.61521484 126.12214844 82.22265625 125.2265625 C80.89437838 122.80765392 79.43475199 121.26801128 77.4375 119.375 C74.09722222 116.19444444 74.09722222 116.19444444 73 114 C72.34 114 71.68 114 71 114 C70.5978125 113.12601563 70.5978125 113.12601563 70.1875 112.234375 C68.98519009 109.97213399 67.66174087 108.19423682 66 106.25 C65.484375 105.63640625 64.96875 105.0228125 64.4375 104.390625 C63.09376748 102.76823624 63.09376748 102.76823624 61 103 C60.61714844 102.11054688 60.61714844 102.11054688 60.2265625 101.203125 C58.88183502 98.78775462 57.50785633 97.48788294 55.375 95.75 C54.74335938 95.22921875 54.11171875 94.7084375 53.4609375 94.171875 C52.97882813 93.78515625 52.49671875 93.3984375 52 93 Z M-121 187 C-121.0246985 190.95099928 -121.04285923 194.90196874 -121.05493164 198.85302734 C-121.06244036 200.85906551 -121.0751447 202.86508202 -121.08789062 204.87109375 C-121.09111328 206.12792969 -121.09433594 207.38476562 -121.09765625 208.6796875 C-121.10551147 210.42354736 -121.10551147 210.42354736 -121.11352539 212.20263672 C-121.19356283 214.95502192 -121.19356283 214.95502192 -120 217 C-115.9630184 215.19451577 -112.47008512 212.6675035 -108.875 210.125 C-108.24207031 209.69058594 -107.60914063 209.25617188 -106.95703125 208.80859375 C-102.53319884 205.70362946 -102.53319884 205.70362946 -100 201 C-102.84179188 198.67489755 -105.72826599 196.42299401 -108.6875 194.25 C-109.26886719 193.82203125 -109.85023437 193.3940625 -110.44921875 192.953125 C-111.98060657 191.82546053 -111.98060657 191.82546053 -114 192 C-114 191.34 -114 190.68 -114 190 C-116.5614657 187.70351351 -117.47967572 187 -121 187 Z M216.6875 191.25 C212.90528037 194.43529106 209.19638541 197.3914361 205 200 C205.5590888 203.24271506 206.4132178 204.93057424 209 207 C209.66 207 210.32 207 211 207 C211 207.66 211 208.32 211 209 C213.10827786 210.75200564 213.10827786 210.75200564 215.75 212.5 C216.63171875 213.1084375 217.5134375 213.716875 218.421875 214.34375 C221.17030302 216.17446588 221.17030302 216.17446588 225 218 C225 207.77 225 197.54 225 187 C220.91562451 187 219.75635408 188.6183409 216.6875 191.25 Z M51 366 C49.68269433 367.61399614 48.44595733 369.29413839 47.25 371 C44.26386099 375.22309806 41.21641169 379.36677122 38.03125 383.44140625 C36.81606574 384.9665125 36.81606574 384.9665125 37 387 C40.79074537 387.88563089 44.28695898 388.11681301 48.17578125 388.09765625 C49.33271484 388.09443359 50.48964844 388.09121094 51.68164062 388.08789062 C52.87982422 388.07951172 54.07800781 388.07113281 55.3125 388.0625 C56.53001953 388.05798828 57.74753906 388.05347656 59.00195312 388.04882812 C62.00135226 388.03706578 65.00065089 388.02062826 68 388 C65.14607132 382.58009172 62.23283024 377.72027294 58.25 373.0625 C54.07243461 368.14486922 54.07243461 368.14486922 53 366 C52.34 366 51.68 366 51 366 Z " fill="#10A350" transform="translate(198,41)"/>
<path d="M0 0 C3.35044034 1.11681345 4.14916343 2.0436896 6.375 4.6875 C6.98859375 5.409375 7.6021875 6.13125 8.234375 6.875 C9.70259852 8.64206548 11.16515906 10.41351608 12.625 12.1875 C14.90833246 14.97136171 14.90833246 14.97136171 17.25 17.25 C19.84088649 19.84088649 22.33663028 22.48690346 24.8125 25.1875 C25.60269531 26.04730469 26.39289063 26.90710938 27.20703125 27.79296875 C29 30 29 30 29 32 C29.66 32 30.32 32 31 32 C32.375 33.36328125 32.375 33.36328125 34 35.3125 C37.8819307 39.90023628 41.95638472 44.29014043 46.05859375 48.6796875 C48 51 48 51 48 53 C48.66 53 49.32 53 50 53 C50 53.66 50 54.32 50 55 C50.598125 55.2475 51.19625 55.495 51.8125 55.75 C54.28647521 57.16370012 55.43370255 58.65055383 57 61 C55.32598022 64.95677402 52.86850715 67.84464213 50 71 C49.34 71 48.68 71 48 71 C47.78601563 71.53367187 47.57203125 72.06734375 47.3515625 72.6171875 C45.4950211 75.89028072 42.96055174 78.42611664 40.375 81.125 C35.79548088 85.972565 31.54154494 90.93748573 27.5234375 96.26953125 C27.02070313 96.84058594 26.51796875 97.41164063 26 98 C25.34 98 24.68 98 24 98 C23.77441406 98.54398437 23.54882812 99.08796875 23.31640625 99.6484375 C21.58776213 102.73640119 19.35449856 105.04454974 16.9375 107.625 C13.58466353 111.04209753 13.58466353 111.04209753 11 115 C10.34 115 9.68 115 9 115 C9 115.66 9 116.32 9 117 C8.34 117 7.68 117 7 117 C6.731875 117.598125 6.46375 118.19625 6.1875 118.8125 C5.01506533 120.97224808 3.80630718 122.35790256 2 124 C-0.86697492 122.71480435 -2.97607712 121.42870746 -5 119 C-5 118.34 -5 117.68 -5 117 C-5.66 117 -6.32 117 -7 117 C-7 116.34 -7 115.68 -7 115 C-7.66 115 -8.32 115 -9 115 C-9 114.34 -9 113.68 -9 113 C-9.66 113 -10.32 113 -11 113 C-12.32981093 111.50890766 -13.5869873 109.95293286 -14.8125 108.375 C-18.57317819 103.666558 -22.50112963 99.20536996 -26.625 94.8125 C-27.181875 94.21775879 -27.73875 93.62301758 -28.3125 93.01025391 C-29.38736261 91.8623083 -30.46238825 90.71451532 -31.53759766 89.56689453 C-33.48472052 87.48064502 -35.40965206 85.3767124 -37.3125 83.25 C-37.84488281 82.65703125 -38.37726563 82.0640625 -38.92578125 81.453125 C-40 80 -40 80 -40 78 C-40.66 78 -41.32 78 -42 78 C-42 77.34 -42 76.68 -42 76 C-42.66 76 -43.32 76 -44 76 C-44.66 74.35 -45.32 72.7 -46 71 C-46.66 71 -47.32 71 -48 71 C-49.7265625 69.25 -49.7265625 69.25 -51.625 67 C-52.25664062 66.2575 -52.88828125 65.515 -53.5390625 64.75 C-54.02117187 64.1725 -54.50328125 63.595 -55 63 C-52.94196512 59.39843896 -50.75464117 56.11007874 -48 53 C-47.34 53 -46.68 53 -46 53 C-46 52.34 -46 51.68 -46 51 C-45.34 51 -44.68 51 -44 51 C-43.77441406 50.45601562 -43.54882812 49.91203125 -43.31640625 49.3515625 C-41.58776213 46.26359881 -39.35449856 43.95545026 -36.9375 41.375 C-33.58466353 37.95790247 -33.58466353 37.95790247 -31 34 C-30.34 34 -29.68 34 -29 34 C-28.78472656 33.46632812 -28.56945312 32.93265625 -28.34765625 32.3828125 C-26.50271856 29.12074875 -24.00239653 26.57340625 -21.4375 23.875 C-20.3536982 22.71788653 -19.27036971 21.56032955 -18.1875 20.40234375 C-17.64996094 19.82983887 -17.11242187 19.25733398 -16.55859375 18.66748047 C-14.32675855 16.27972445 -12.12849393 13.86272848 -9.9375 11.4375 C-9.24527344 10.67308594 -8.55304688 9.90867188 -7.83984375 9.12109375 C-5.96610697 7.02930258 -5.96610697 7.02930258 -4.37890625 4.72265625 C-3.92386719 4.15417969 -3.46882813 3.58570313 -3 3 C-2.34 3 -1.68 3 -1 3 C-0.67 2.01 -0.34 1.02 0 0 Z M0 27 C-1.37562854 28.28965176 -2.70766393 29.62689293 -4 31 C-4 31.66 -4 32.32 -4 33 C-4.66 33 -5.32 33 -6 33 C-6 33.66 -6 34.32 -6 35 C-6.66 35 -7.32 35 -8 35 C-9.56432787 36.69274284 -11.05328572 38.45569852 -12.5 40.25 C-13.2940625 41.22453125 -14.088125 42.1990625 -14.90625 43.203125 C-16.58748034 45.44894762 -17.88135899 47.4465803 -19 50 C-19.66 50 -20.32 50 -21 50 C-21 50.66 -21 51.32 -21 52 C-21.66 52 -22.32 52 -23 52 C-23 52.66 -23 53.32 -23 54 C-23.66 54 -24.32 54 -25 54 C-28.67513594 57.42769855 -28.67513594 57.42769855 -30.0625 62 C-27.35197741 67.10216016 -24.11720732 70.98082142 -20 75 C-18.42083936 76.86379947 -16.86742331 78.74453421 -15.33203125 80.64453125 C-14.89246094 81.09183594 -14.45289063 81.53914063 -14 82 C-13.34 82 -12.68 82 -12 82 C-11.66355469 82.81210937 -11.66355469 82.81210937 -11.3203125 83.640625 C-9.58851134 86.73532294 -7.28380732 89.17925605 -4.875 91.75 C-4.40707031 92.25660156 -3.93914062 92.76320313 -3.45703125 93.28515625 C-2.30873459 94.52719141 -1.15491328 95.76411494 0 97 C4.22669369 94.74981775 7.05532263 92.04964153 10.25 88.5 C10.72453613 87.97462646 11.19907227 87.44925293 11.68798828 86.90795898 C15.58829468 82.55320365 19.29623398 78.05246553 22.9296875 73.47265625 C25 71 25 71 27.7578125 68.30859375 C30.2322381 66.29725557 30.2322381 66.29725557 30 64 C30.66 64 31.32 64 32 64 C31.38271885 60.61638481 30.13020282 58.47997439 28.0625 55.75 C27.53785156 55.04359375 27.01320313 54.3371875 26.47265625 53.609375 C25.74369141 52.81273437 25.74369141 52.81273437 25 52 C24.34 52 23.68 52 23 52 C23 51.34 23 50.68 23 50 C22.34 50 21.68 50 21 50 C20.77441406 49.45601562 20.54882812 48.91203125 20.31640625 48.3515625 C18.58776213 45.26359881 16.35449856 42.95545026 13.9375 40.375 C9.09722222 35.19444444 9.09722222 35.19444444 8 33 C7.34 33 6.68 33 6 33 C5.7525 32.38125 5.505 31.7625 5.25 31.125 C3.79371361 28.64931313 2.62187494 28.04874998 0 27 Z " fill="#0FA34F" transform="translate(249,180)"/>
<path d="M0 0 C3.65020279 3.61030987 7.20232132 7.29281694 10.6875 11.0625 C11.41549805 11.8369043 11.41549805 11.8369043 12.15820312 12.62695312 C14.58903481 15.25895709 16.63310326 17.6666904 18 21 C16.35 21.66 14.7 22.32 13 23 C13 22.01 13 21.02 13 20 C11.35 19.67 9.7 19.34 8 19 C7.67 19.99 7.34 20.98 7 22 C4.9375 23.1875 4.9375 23.1875 3 24 C3.33 25.98 3.66 27.96 4 30 C4.66 30 5.32 30 6 30 C6.33 29.34 6.66 28.68 7 28 C12 33.625 12 33.625 12 37 C12.3062434 38.33981486 12.63451555 39.67511887 13 41 C12.34 41 11.68 41 11 41 C9.67018907 39.50890766 8.4130127 37.95293286 7.1875 36.375 C3.42682181 31.666558 -0.50112963 27.20536996 -4.625 22.8125 C-5.181875 22.21775879 -5.73875 21.62301758 -6.3125 21.01025391 C-7.38736261 19.8623083 -8.46238825 18.71451532 -9.53759766 17.56689453 C-11.48472052 15.48064502 -13.40965206 13.3767124 -15.3125 11.25 C-15.84488281 10.65703125 -16.37726563 10.0640625 -16.92578125 9.453125 C-18 8 -18 8 -18 6 C-18.66 5.67 -19.32 5.34 -20 5 C-17.6875 4.75 -17.6875 4.75 -15 5 C-13.1875 7 -13.1875 7 -12 9 C-8.53089834 6.29838692 -8.53089834 6.29838692 -5.375 3.25 C-4 2 -4 2 -1 2 C-0.67 1.34 -0.34 0.68 0 0 Z " fill="#15A553" transform="translate(227,252)"/>
<path d="M0 0 C34.32 0 68.64 0 104 0 C102.99126158 4.03495367 101.9884338 5.59611821 99.4375 8.75 C98.79683594 9.54921875 98.15617187 10.3484375 97.49609375 11.171875 C97.00238281 11.77515625 96.50867188 12.3784375 96 13 C95.505 12.01 95.505 12.01 95 11 C95.33 10.01 95.66 9.02 96 8 C96.66 8 97.32 8 98 8 C98 6.68 98 5.36 98 4 C86.81736159 3.19484104 75.67820692 2.80669166 64.46875 2.68359375 C62.85493532 2.66294819 61.24112512 2.64195022 59.62731934 2.62062073 C55.43869723 2.56618279 51.25003295 2.51643825 47.06134033 2.46777344 C42.76351294 2.41697581 38.46574461 2.36159815 34.16796875 2.30664062 C25.77869619 2.20002099 17.38937328 2.09837454 9 2 C8.34 4.31 7.68 6.62 7 9 C7.598125 8.835 8.19625 8.67 8.8125 8.5 C11 8 11 8 14 8 C14.33 9.32 14.66 10.64 15 12 C14.34 12 13.68 12 13 12 C13 13.32 13 14.64 13 16 C13.99 16.33 14.98 16.66 16 17 C17.1875 20.5625 17.1875 20.5625 18 24 C17.34 23.67 16.68 23.34 16 23 C16 22.34 16 21.68 16 21 C15.34 21 14.68 21 14 21 C12.7109375 19.5390625 12.7109375 19.5390625 11.375 17.625 C10.92898437 16.99851562 10.48296875 16.37203125 10.0234375 15.7265625 C9 14 9 14 9 12 C8.34 12 7.68 12 7 12 C5.64721885 10.01310269 4.31431695 8.01254782 3 6 C2.34 5.67 1.68 5.34 1 5 C0.67 3.35 0.34 1.7 0 0 Z " fill="#66BB8B" transform="translate(198,41)"/>
<path d="M0 0 C1.48643845 0.56454632 2.96406016 1.15234889 4.4375 1.75 C5.67306641 2.23726562 5.67306641 2.23726562 6.93359375 2.734375 C9 4 9 4 9.78515625 6.140625 C9.85605469 6.75421875 9.92695313 7.3678125 10 8 C10.66 8 11.32 8 12 8 C12 8.66 12 9.32 12 10 C12.66 10 13.32 10 14 10 C14.28875 10.804375 14.5775 11.60875 14.875 12.4375 C15.73262568 15.1326468 15.73262568 15.1326468 18 16 C17.67 16.66 17.34 17.32 17 18 C16.34 18 15.68 18 15 18 C15.20625 18.61875 15.4125 19.2375 15.625 19.875 C15.74875 20.57625 15.8725 21.2775 16 22 C14 24 14 24 11 25 C11 24.34 11 23.68 11 23 C9.02 23.33 7.04 23.66 5 24 C5 23.34 5 22.68 5 22 C3.56927157 20.43301172 2.061738 19.05185992 0.4375 17.6875 C-1.74656091 15.12360241 -2.39155427 13.34645154 -3 10 C-2.2799861 6.55936216 -1.21177314 3.29654414 0 0 Z " fill="#0AA24B" transform="translate(257,195)"/>
<path d="M0 0 C1.32 0.66 2.64 1.32 4 2 C3.34 2 2.68 2 2 2 C1.76152344 2.7115625 1.52304688 3.423125 1.27734375 4.15625 C-0.20394143 7.45403474 -2.09016995 9.75566668 -4.4375 12.5 C-7.38560765 15.95807684 -9.63506926 19.05844877 -12 23 C-2.1 23 7.8 23 18 23 C17.34 21.68 16.68 20.36 16 19 C18.375 19.25 18.375 19.25 21 20 C22.3125 22.0625 22.3125 22.0625 23 24 C19.49015568 27.50984432 14.78307685 26.8929525 10 27 C2.66011284 26.83632494 -4.67143345 26.42766943 -12 26 C-13.59546037 22.80907926 -13.65376899 19.45360573 -13 16 C-10.625 14.1875 -10.625 14.1875 -8 13 C-5.89767656 10.1315587 -5.89767656 10.1315587 -5 7 C-4.01 6.67 -3.02 6.34 -2 6 C-2 5.34 -2 4.68 -2 4 C-1.34 4 -0.68 4 0 4 C0 2.68 0 1.36 0 0 Z " fill="#1B9F59" transform="translate(247,405)"/>
<path d="M0 0 C0.33 1.32 0.66 2.64 1 4 C34 4 67 4 101 4 C101.33 2.68 101.66 1.36 102 0 C102.495 2.475 102.495 2.475 103 5 C52.015 5.495 52.015 5.495 0 6 C-0.33 4.35 -0.66 2.7 -1 1 C-0.67 0.67 -0.34 0.34 0 0 Z " fill="#9FE5C0" transform="translate(199,441)"/>
<path d="M0 0 C2.4375 0.375 2.4375 0.375 5 1 C5.33 1.66 5.66 2.32 6 3 C6.99 3 7.98 3 9 3 C7.76075855 7.95696581 6.21422242 10.11658466 2 13 C1.01 12.01 0.02 11.02 -1 10 C-1.99 10.33 -2.98 10.66 -4 11 C-4.66 9.02 -5.32 7.04 -6 5 C-4.625 3.5 -4.625 3.5 -3 2 C-2.34 2 -1.68 2 -1 2 C-0.67 1.34 -0.34 0.68 0 0 Z " fill="#0AA34C" transform="translate(235,271)"/>
<path d="M0 0 C10.56 0 21.12 0 32 0 C32 5.52837581 30.03952713 9.4407093 27 14 C25.2734375 15.38671875 25.2734375 15.38671875 23.375 16.6875 C22.74335938 17.12449219 22.11171875 17.56148437 21.4609375 18.01171875 C20.73777344 18.50091797 20.73777344 18.50091797 20 19 C21.53108747 15.69162003 23.44443753 12.83763435 25.5625 9.875 C27.96731666 6.54908252 27.96731666 6.54908252 30 3 C15.15 2.505 15.15 2.505 0 2 C0 1.34 0 0.68 0 0 Z " fill="#249E5E" transform="translate(235,56)"/>
<path d="M0 0 C0.99 0 1.98 0 3 0 C2.67 32.34 2.34 64.68 2 98 C1.67 98 1.34 98 1 98 C0.67 65.66 0.34 33.32 0 0 Z " fill="#198A49" transform="translate(438,191)"/>
<path d="M0 0 C0.99 0.33 1.98 0.66 3 1 C3 1.66 3 2.32 3 3 C1.02 3.66 -0.96 4.32 -3 5 C-3 5.66 -3 6.32 -3 7 C-2.34 7.33 -1.68 7.66 -1 8 C-1.804375 8.268125 -2.60875 8.53625 -3.4375 8.8125 C-4.283125 9.204375 -5.12875 9.59625 -6 10 C-6.33 10.99 -6.66 11.98 -7 13 C-7.66 13 -8.32 13 -9 13 C-9 14.32 -9 15.64 -9 17 C-9.66 17 -10.32 17 -11 17 C-11 17.66 -11 18.32 -11 19 C-11.928125 19.37125 -12.85625 19.7425 -13.8125 20.125 C-17.5260303 22.30942959 -18.42687504 24.06718759 -20 28 C-20.99 27.67 -21.98 27.34 -23 27 C-21.60286388 23.80554305 -19.97467102 21.81065188 -17.4375 19.4375 C-13.19953889 15.33874199 -9.59489367 10.87342956 -5.98046875 6.22265625 C-4 4 -4 4 -1 3 C-0.67 2.01 -0.34 1.02 0 0 Z " fill="#41AF72" transform="translate(249,180)"/>
<path d="M0 0 C2.97 0.33 5.94 0.66 9 1 C9 2.98 9 4.96 9 7 C9.639375 7.2475 10.27875 7.495 10.9375 7.75 C13.544301 9.32987939 13.29195078 10.16780311 14 13 C14.99 13.433125 14.99 13.433125 16 13.875 C16.66 14.24625 17.32 14.6175 18 15 C18.75 18.125 18.75 18.125 19 21 C17.86800647 20.0919838 16.74467637 19.17316174 15.625 18.25 C14.99851562 17.73953125 14.37203125 17.2290625 13.7265625 16.703125 C11.91687682 14.91800519 10.99882545 13.32050356 10 11 C9.34 11 8.68 11 8 11 C6.30859375 9.35546875 6.30859375 9.35546875 4.4375 7.1875 C3.81746094 6.47980469 3.19742187 5.77210938 2.55859375 5.04296875 C1 3 1 3 0 0 Z " fill="#30AA66" transform="translate(261,144)"/>
<path d="M0 0 C0.99 0 1.98 0 3 0 C2.34 2.31 1.68 4.62 1 7 C1.598125 6.835 2.19625 6.67 2.8125 6.5 C5 6 5 6 8 6 C8.33 7.32 8.66 8.64 9 10 C8.34 10 7.68 10 7 10 C7 11.32 7 12.64 7 14 C7.99 14.33 8.98 14.66 10 15 C11.1875 18.5625 11.1875 18.5625 12 22 C11.34 21.67 10.68 21.34 10 21 C10 20.34 10 19.68 10 19 C9.34 19 8.68 19 8 19 C6.7109375 17.5390625 6.7109375 17.5390625 5.375 15.625 C4.92898437 14.99851562 4.48296875 14.37203125 4.0234375 13.7265625 C3 12 3 12 3 10 C2.34 10 1.68 10 1 10 C-0.98 6.535 -0.98 6.535 -3 3 C-2.34 3 -1.68 3 -1 3 C-0.67 2.01 -0.34 1.02 0 0 Z " fill="#3BB06E" transform="translate(204,43)"/>
<path d="M0 0 C1.98 0 3.96 0 6 0 C6 0.66 6 1.32 6 2 C5.34 2 4.68 2 4 2 C3.5978125 2.86625 3.5978125 2.86625 3.1875 3.75 C2 6 2 6 0.4440918 7.84277344 C-1.26843536 10.4009966 -1.35154399 11.71971271 -1.29296875 14.765625 C-1.28330078 15.65507812 -1.27363281 16.54453125 -1.26367188 17.4609375 C-1.2259668 18.84152344 -1.2259668 18.84152344 -1.1875 20.25 C-1.17396484 21.18585938 -1.16042969 22.12171875 -1.14648438 23.0859375 C-1.11119954 25.39121327 -1.06190281 27.6953106 -1 30 C-1.66 30 -2.32 30 -3 30 C-3.92092281 25.34462644 -4.12205997 20.85314567 -4.0625 16.125 C-4.05798828 15.43664062 -4.05347656 14.74828125 -4.04882812 14.0390625 C-4.03716336 12.35933665 -4.01923271 10.67965625 -4 9 C-3.34 9 -2.68 9 -2 9 C-2.20625 8.38125 -2.4125 7.7625 -2.625 7.125 C-2.74875 6.42375 -2.8725 5.7225 -3 5 C-2.34 4.34 -1.68 3.68 -1 3 C-0.34 3.33 0.32 3.66 1 4 C0.67 2.68 0.34 1.36 0 0 Z " fill="#38A86B" transform="translate(261,362)"/>
<path d="M0 0 C0.66 0 1.32 0 2 0 C2 9.57 2 19.14 2 29 C3.32 28.34 4.64 27.68 6 27 C5.67 27.99 5.34 28.98 5 30 C3.67696283 30.3721042 2.34262065 30.70630173 1 31 C0.67 31.66 0.34 32.32 0 33 C-1.27290749 30.45418502 -1.12943325 28.64827922 -1.1328125 25.80078125 C-1.13410156 24.75599609 -1.13539062 23.71121094 -1.13671875 22.63476562 C-1.13285156 21.53841797 -1.12898438 20.44207031 -1.125 19.3125 C-1.12886719 18.23548828 -1.13273437 17.15847656 -1.13671875 16.04882812 C-1.13002851 10.59293747 -0.96850097 5.37287443 0 0 Z " fill="#39A168" transform="translate(76,229)"/>
<path d="M0 0 C0.66 0 1.32 0 2 0 C1.6875 1.9375 1.6875 1.9375 1 4 C-1.82411765 4.94137255 -3.52918032 5.11725382 -6.44921875 5.09765625 C-7.29677734 5.09443359 -8.14433594 5.09121094 -9.01757812 5.08789062 C-9.89865234 5.07951172 -10.77972656 5.07113281 -11.6875 5.0625 C-12.58017578 5.05798828 -13.47285156 5.05347656 -14.39257812 5.04882812 C-16.59511987 5.03704983 -18.79752599 5.02060164 -21 5 C-21.33 4.01 -21.66 3.02 -22 2 C-14.74 2 -7.48 2 0 2 C0 1.34 0 0.68 0 0 Z " fill="#82D69A" transform="translate(136,231)"/>
<path d="M0 0 C1.32 0.66 2.64 1.32 4 2 C3.34 2 2.68 2 2 2 C1.76152344 2.7115625 1.52304688 3.423125 1.27734375 4.15625 C-0.20394143 7.45403474 -2.09016995 9.75566668 -4.4375 12.5 C-7.3112165 15.87081738 -9.82364491 19.13714466 -12 23 C-10.35 23 -8.7 23 -7 23 C-7 23.33 -7 23.66 -7 24 C-8.98 24 -10.96 24 -13 24 C-13.43782144 18.6585784 -13.43782144 18.6585784 -13 16 C-10.625 14.1875 -10.625 14.1875 -8 13 C-5.89767656 10.1315587 -5.89767656 10.1315587 -5 7 C-4.01 6.67 -3.02 6.34 -2 6 C-2 5.34 -2 4.68 -2 4 C-1.34 4 -0.68 4 0 4 C0 2.68 0 1.36 0 0 Z " fill="#42AE71" transform="translate(247,405)"/>
<path d="M0 0 C0.99 0.33 1.98 0.66 3 1 C4.98 1 6.96 1 9 1 C9 10.9 9 20.8 9 31 C8.67 31 8.34 31 8 31 C8 21.43 8 11.86 8 2 C4.25222812 4.24866313 0.61992499 6.55865524 -3 9 C-3.26218749 5.85375007 -3.24754367 4.38162983 -1.5 1.6875 C-1.005 1.130625 -0.51 0.57375 0 0 Z " fill="#55AD7F" transform="translate(415,226)"/>
<path d="M0 0 C2.04119788 1.61594832 4.04072937 3.2856382 6 5 C6 5.66 6 6.32 6 7 C6.66 7 7.32 7 8 7 C9.62109375 8.609375 9.62109375 8.609375 11.4375 10.75 C12.03433594 11.44609375 12.63117188 12.1421875 13.24609375 12.859375 C14.89081098 14.86673589 16.46126108 16.91070312 18 19 C17.01 19 16.02 19 15 19 C14.67 18.01 14.34 17.02 14 16 C13.01 16 12.02 16 11 16 C10.34 15.01 9.68 14.02 9 13 C8.34 12.67 7.68 12.34 7 12 C7 10.68 7 9.36 7 8 C4.69 8 2.38 8 0 8 C-0.79953138 4.71303767 -1.09658936 3.28976808 0 0 Z " fill="#34A966" transform="translate(313,175)"/>
<path d="M0 0 C0.93423645 3.01031744 1.04449911 3.86650268 0 7 C-0.99 7.33 -1.98 7.66 -3 8 C-5.73814047 10.53778873 -7.92595707 12.8889356 -10 16 C-11.6396721 17.36639342 -13.30327614 18.70513179 -15 20 C-15.66 19.67 -16.32 19.34 -17 19 C-16.36191406 18.30132812 -15.72382813 17.60265625 -15.06640625 16.8828125 C-14.24011719 15.97273437 -13.41382813 15.06265625 -12.5625 14.125 C-11.32693359 12.76761719 -11.32693359 12.76761719 -10.06640625 11.3828125 C-7.99092058 9.18862073 -7.99092058 9.18862073 -7 7 C-6.34 7 -5.68 7 -5 7 C-5 6.34 -5 5.68 -5 5 C-3.37446717 3.29319053 -1.70884005 1.62339805 0 0 Z " fill="#46B075" transform="translate(166,198)"/>
<path d="M0 0 C0.66 0.99 1.32 1.98 2 3 C2.99 3.33 3.98 3.66 5 4 C5 3.34 5 2.68 5 2 C5.66 2 6.32 2 7 2 C6.67 3.32 6.34 4.64 6 6 C6.66 6 7.32 6 8 6 C8.33 7.65 8.66 9.3 9 11 C10.32 11 11.64 11 13 11 C13.33 13.31 13.66 15.62 14 18 C8.03739811 13.17917294 3.03320206 7.77505724 -2 2 C-1.34 1.34 -0.68 0.68 0 0 Z " fill="#51B87C" transform="translate(289,172)"/>
<path d="M0 0 C2.64 0.66 5.28 1.32 8 2 C7.67 3.32 7.34 4.64 7 6 C7.66 6 8.32 6 9 6 C10 7 11 8 12 9 C12.99 9.33 13.98 9.66 15 10 C14.67 11.32 14.34 12.64 14 14 C14.99 14.33 15.98 14.66 17 15 C17 15.99 17 16.98 17 18 C16.34 18 15.68 18 15 18 C15 17.34 15 16.68 15 16 C14.34 16 13.68 16 13 16 C11.48015117 14.32464541 10.03293547 12.58294378 8.625 10.8125 C7.85414063 9.84957031 7.08328125 8.88664062 6.2890625 7.89453125 C5.53367188 6.93933594 4.77828125 5.98414063 4 5 C2.66722146 3.33288965 1.33407609 1.66607219 0 0 Z " fill="#47B178" transform="translate(158,279)"/>
<path d="M0 0 C3 3.75 3 3.75 3 6 C3.66 6 4.32 6 5 6 C5.33 5.34 5.66 4.68 6 4 C11 9.625 11 9.625 11 13 C11.3062434 14.33981486 11.63451555 15.67511887 12 17 C11.34 17 10.68 17 10 17 C8.43802886 15.28358022 6.94860958 13.50061361 5.5 11.6875 C4.7059375 10.70136719 3.911875 9.71523438 3.09375 8.69921875 C1 6 1 6 -1 3 C-0.67 2.01 -0.34 1.02 0 0 Z " fill="#36AD67" transform="translate(228,276)"/>
<path d="M0 0 C0.66 0.33 1.32 0.66 2 1 C2 2.32 2 3.64 2 5 C1.01 5.495 1.01 5.495 0 6 C-0.33 6.66 -0.66 7.32 -1 8 C-1 7.34 -1 6.68 -1 6 C-1.66 6 -2.32 6 -3 6 C-2.773125 6.5775 -2.54625 7.155 -2.3125 7.75 C-2 10 -2 10 -3.0625 12.25 C-5 14 -5 14 -8.1875 14.25 C-9.115625 14.1675 -10.04375 14.085 -11 14 C-11 13.34 -11 12.68 -11 12 C-10.34 12 -9.68 12 -9 12 C-9 11.34 -9 10.68 -9 10 C-8.34 10 -7.68 10 -7 10 C-6.773125 9.46375 -6.54625 8.9275 -6.3125 8.375 C-4.56617944 5.21499137 -2.3597151 2.7323017 0 0 Z " fill="#28AA64" transform="translate(281,320)"/>
<path d="M0 0 C0.99 0.33 1.98 0.66 3 1 C2.54109375 1.51949219 2.0821875 2.03898438 1.609375 2.57421875 C-1.11180201 5.66698506 -3.79645548 8.73594225 -6.3125 12 C-6.869375 12.66 -7.42625 13.32 -8 14 C-8.66 14 -9.32 14 -10 14 C-10.28875 14.639375 -10.5775 15.27875 -10.875 15.9375 C-12 18 -12 18 -14 19 C-14.33 17.35 -14.66 15.7 -15 14 C-12.35261084 12.5393715 -11.10551666 12 -8 12 C-8 11.01 -8 10.02 -8 9 C-7.34 8.67 -6.68 8.34 -6 8 C-4.9935725 6.33720673 -3.99414593 4.67016516 -3 3 C-1.3125 1.1875 -1.3125 1.1875 0 0 Z " fill="#3FAF78" transform="translate(178,208)"/>
<path d="M0 0 C0.66 0.33 1.32 0.66 2 1 C-1.11832947 8.87006961 -1.11832947 8.87006961 -4 11 C-4.66 11 -5.32 11 -6 11 C-6.226875 11.639375 -6.45375 12.27875 -6.6875 12.9375 C-8 15 -8 15 -10.625 15.75 C-11.40875 15.8325 -12.1925 15.915 -13 16 C-8.93866463 10.40636594 -4.6208599 5.14036486 0 0 Z " fill="#38AB6E" transform="translate(225,132)"/>
<path d="M0 0 C1.1667157 3.50014709 0.60449812 4.98977597 -0.91015625 8.27734375 C-2.72647897 11.14830547 -5.01354896 12.50677448 -8 14 C-8.99 13.67 -9.98 13.34 -11 13 C-9.71580959 11.32756598 -8.42242815 9.66218553 -7.125 8 C-6.04605469 6.6078125 -6.04605469 6.6078125 -4.9453125 5.1875 C-4.30335938 4.465625 -3.66140625 3.74375 -3 3 C-2.34 3 -1.68 3 -1 3 C-0.67 2.01 -0.34 1.02 0 0 Z " fill="#33AA67" transform="translate(191,170)"/>
<path d="M0 0 C2.66666667 1.33333333 5.33333333 2.66666667 8 4 C8 4.99 8 5.98 8 7 C8.99 7.33 9.98 7.66 11 8 C11 15.92 11 23.84 11 32 C10.34 31.67 9.68 31.34 9 31 C9.02618408 30.42032471 9.05236816 29.84064941 9.0793457 29.2434082 C9.18370612 26.60005125 9.24844327 23.95712801 9.3125 21.3125 C9.35439453 20.40048828 9.39628906 19.48847656 9.43945312 18.54882812 C9.57870486 12.77087985 9.57870486 12.77087985 6.48046875 7.98046875 C5.66191406 7.32691406 4.84335938 6.67335938 4 6 C4 5.34 4 4.68 4 4 C3.34 4 2.68 4 2 4 C1.34 2.68 0.68 1.36 0 0 Z " fill="#68BE8F" transform="translate(231,360)"/>
<path d="M0 0 C0.66 0.99 1.32 1.98 2 3 C0.625 5 0.625 5 -1 7 C-1.66 7 -2.32 7 -3 7 C-3 7.99 -3 8.98 -3 10 C-7.455 11.485 -7.455 11.485 -12 13 C-12.66 12.34 -13.32 11.68 -14 11 C-13.67 10.01 -13.34 9.02 -13 8 C-11.515 8.99 -11.515 8.99 -10 10 C-6.00073014 7.02911382 -3.07881696 3.87051275 0 0 Z " fill="#3BA769" transform="translate(260,266)"/>
<path d="M0 0 C0.99 0 1.98 0 3 0 C3.12375 1.051875 3.12375 1.051875 3.25 2.125 C4.1684939 5.64589327 5.94831446 8.0217468 8 11 C8 11.66 8 12.32 8 13 C8.99 13.33 9.98 13.66 11 14 C10.34 14.66 9.68 15.32 9 16 C7.62437146 14.71034824 6.29233607 13.37310707 5 12 C5 11.34 5 10.68 5 10 C4.34 10 3.68 10 3 10 C1.61767557 8.37373596 0.28062485 6.7074998 -1 5 C-2.32 5.33 -3.64 5.66 -5 6 C-5 5.01 -5 4.02 -5 3 C-3.35 3 -1.7 3 0 3 C0 2.01 0 1.02 0 0 Z " fill="#4BB47C" transform="translate(252,203)"/>
<path d="M0 0 C1.1875 1.6875 1.1875 1.6875 2 4 C0.64509428 7.34741414 -0.3099813 8.68784868 -3.625 10.1875 C-4.40875 10.455625 -5.1925 10.72375 -6 11 C-6.33 11.66 -6.66 12.32 -7 13 C-8.32 12.67 -9.64 12.34 -11 12 C-9.71937515 10.2925002 -8.38232443 8.62626404 -7 7 C-6.34 7 -5.68 7 -5 7 C-4.731875 6.401875 -4.46375 5.80375 -4.1875 5.1875 C-3.01506533 3.02775192 -1.80630718 1.64209744 0 0 Z " fill="#2FAC68" transform="translate(203,157)"/>
<path d="M0 0 C1.98 0.99 1.98 0.99 4 2 C4 2.66 4 3.32 4 4 C4.99 4.33 5.98 4.66 7 5 C8.4045181 7.80903621 8.13209254 10.18114508 8.125 13.3125 C8.12757813 14.44300781 8.13015625 15.57351562 8.1328125 16.73828125 C8.01541051 19.62153596 7.66212988 22.1990855 7 25 C6.67 25 6.34 25 6 25 C5.98582031 23.84242187 5.97164062 22.68484375 5.95703125 21.4921875 C5.91010743 19.95308628 5.86186018 18.41402501 5.8125 16.875 C5.80669922 16.11445312 5.80089844 15.35390625 5.79492188 14.5703125 C5.56615775 8.67328163 4.04696086 6.24704984 0 2 C0 1.34 0 0.68 0 0 Z " fill="#54B37E" transform="translate(235,88)"/>
<path d="M0 0 C0.99 0.495 0.99 0.495 2 1 C2 1.66 2 2.32 2 3 C2.59296875 3.24492187 3.1859375 3.48984375 3.796875 3.7421875 C6.36698726 5.20952109 7.54529966 6.72292225 9.25 9.125 C9.77078125 9.84945312 10.2915625 10.57390625 10.828125 11.3203125 C11.40820312 12.15175781 11.40820312 12.15175781 12 13 C9.03 12.67 6.06 12.34 3 12 C3 11.01 3 10.02 3 9 C3.66 8.67 4.32 8.34 5 8 C4.360625 7.79375 3.72125 7.5875 3.0625 7.375 C1 6 1 6 0.25 2.875 C0.1675 1.92625 0.085 0.9775 0 0 Z " fill="#29AE61" transform="translate(295,155)"/>
<path d="M0 0 C1.65 0 3.3 0 5 0 C5 0.66 5 1.32 5 2 C5.99 2.33 6.98 2.66 8 3 C8 3.99 8 4.98 8 6 C10.31 6.66 12.62 7.32 15 8 C15.33 9.65 15.66 11.3 16 13 C12.535 11.02 12.535 11.02 9 9 C9 8.34 9 7.68 9 7 C8.443125 6.773125 7.88625 6.54625 7.3125 6.3125 C4.36753316 4.64103234 2.31843456 2.44723648 0 0 Z " fill="#4CB17A" transform="translate(412,273)"/>
<path d="M0 0 C4.34363934 0.93077986 8.32124881 2.30077216 11 6 C11.6875 9.6875 11.6875 9.6875 12 13 C10.8274869 12.04882866 9.66212985 11.08882991 8.5 10.125 C7.8503125 9.59132813 7.200625 9.05765625 6.53125 8.5078125 C6.0259375 8.01023437 5.520625 7.51265625 5 7 C5 6.34 5 5.68 5 5 C4.34 5 3.68 5 3 5 C1.375 2.5 1.375 2.5 0 0 Z " fill="#34AA69" transform="translate(141,260)"/>
<path d="M0 0 C1.32 0.33 2.64 0.66 4 1 C4 1.66 4 2.32 4 3 C5.1446875 2.505 5.1446875 2.505 6.3125 2 C11.25174651 0.66054332 15.91463109 0.83712342 21 1 C21 1.66 21 2.32 21 3 C17.23699626 4.25433458 13.72789091 4.10695422 9.8125 4.0625 C9.06291016 4.05798828 8.31332031 4.05347656 7.54101562 4.04882812 C5.69397617 4.03706354 3.84697787 4.01912865 2 4 C1.34 2.68 0.68 1.36 0 0 Z " fill="#93D6B0" transform="translate(366,232)"/>
<path d="M0 0 C3.86592434 1.28864145 5.02327154 3.15415158 7.5625 6.3125 C8.34753906 7.27800781 9.13257813 8.24351562 9.94140625 9.23828125 C11.604437 11.4693301 12.88710963 13.46742245 14 16 C14.66 16 15.32 16 16 16 C16 16.66 16 17.32 16 18 C15.01 17.67 14.02 17.34 13 17 C13 16.34 13 15.68 13 15 C12.38125 14.938125 11.7625 14.87625 11.125 14.8125 C9 14 9 14 7.75 11.4375 C7.5025 10.633125 7.255 9.82875 7 9 C6.34 9 5.68 9 5 9 C5 8.34 5 7.68 5 7 C4.34 7 3.68 7 3 7 C0 2.61538462 0 2.61538462 0 0 Z " fill="#4EB179" transform="translate(264,196)"/>
<path d="M0 0 C2 2 2 2 2.125 5.125 C2.08375 6.07375 2.0425 7.0225 2 8 C0.88625 7.95875 -0.2275 7.9175 -1.375 7.875 C-5.04366025 7.58878141 -5.04366025 7.58878141 -7 10 C-7.99 9.67 -8.98 9.34 -10 9 C-9.0925 8.2575 -8.185 7.515 -7.25 6.75 C-4.6930577 4.62325416 -2.30889807 2.39770184 0 0 Z " fill="#30AB6A" transform="translate(437,191)"/>
<path d="M0 0 C3.3 0.99 6.6 1.98 10 3 C10.33 2.34 10.66 1.68 11 1 C11.66 3.64 12.32 6.28 13 9 C7.31103473 8.34983254 3.74968887 5.14439296 0 1 C0 0.67 0 0.34 0 0 Z " fill="#26A15F" transform="translate(428,286)"/>
<path d="M0 0 C0.33 0.66 0.66 1.32 1 2 C0.0625 4.125 0.0625 4.125 -1 6 C-1.66 6 -2.32 6 -3 6 C-3 7.65 -3 9.3 -3 11 C-5.97 12.32 -8.94 13.64 -12 15 C-10 11 -10 11 -8 8 C-7.34 8 -6.68 8 -6 8 C-5.7525 7.4225 -5.505 6.845 -5.25 6.25 C-3.83316683 3.6997003 -2.12372463 1.98214299 0 0 Z " fill="#4EB77D" transform="translate(330,266)"/>
<path d="M0 0 C2.04119788 1.61594832 4.04072937 3.2856382 6 5 C6 5.66 6 6.32 6 7 C6.66 7 7.32 7 8 7 C8 7.66 8 8.32 8 9 C8.598125 9.2475 9.19625 9.495 9.8125 9.75 C12.34094503 11.19482573 13.55070617 12.48280545 15 15 C14.67 15.99 14.34 16.98 14 18 C13.34 17.01 12.68 16.02 12 15 C11.01 14.67 10.02 14.34 9 14 C8.67 13.01 8.34 12.02 8 11 C7.319375 10.319375 6.63875 9.63875 5.9375 8.9375 C5.298125 8.298125 4.65875 7.65875 4 7 C4 6.34 4 5.68 4 5 C2.68 4.67 1.36 4.34 0 4 C0 2.68 0 1.36 0 0 Z " fill="#37AA6D" transform="translate(291,226)"/>
<path d="M0 0 C1 3 1 3 0.0625 5.1875 C-0.288125 5.785625 -0.63875 6.38375 -1 7 C-1.66 7 -2.32 7 -3 7 C-3 7.66 -3 8.32 -3 9 C-3.66 9 -4.32 9 -5 9 C-5.33 9.66 -5.66 10.32 -6 11 C-6.99 11 -7.98 11 -9 11 C-9.33 9.02 -9.66 7.04 -10 5 C-9.443125 5.268125 -8.88625 5.53625 -8.3125 5.8125 C-7.1678125 5.9053125 -7.1678125 5.9053125 -6 6 C-3.27073609 3.68743506 -3.27073609 3.68743506 -1 1 C-0.67 0.67 -0.34 0.34 0 0 Z " fill="#3FB16F" transform="translate(257,347)"/>
<path d="M0 0 C1.32 0.66 2.64 1.32 4 2 C2.625 4 2.625 4 1 6 C0.34 6 -0.32 6 -1 6 C-1.25523437 6.57234375 -1.51046875 7.1446875 -1.7734375 7.734375 C-3.13087159 10.24173733 -4.71974104 12.1330456 -6.625 14.25 C-7.25664062 14.95640625 -7.88828125 15.6628125 -8.5390625 16.390625 C-9.02117187 16.92171875 -9.50328125 17.4528125 -10 18 C-10.33 17.01 -10.66 16.02 -11 15 C-10.01 14.67 -9.02 14.34 -8 14 C-7.26676204 11.98491642 -7.26676204 11.98491642 -7 10 C-6.34 10 -5.68 10 -5 10 C-5 9.01 -5 8.02 -5 7 C-3.35 6.34 -1.7 5.68 0 5 C0 3.35 0 1.7 0 0 Z " fill="#50B27E" transform="translate(298,245)"/>
<path d="M0 0 C0.66 1.32 1.32 2.64 2 4 C1.071875 4.3403125 1.071875 4.3403125 0.125 4.6875 C-2.22088583 5.84019791 -2.22088583 5.84019791 -2.9375 8.4375 C-4.29998979 11.72350479 -5.80537511 12.5624188 -9 14 C-9.66 13.67 -10.32 13.34 -11 13 C-10.06027344 11.96939453 -10.06027344 11.96939453 -9.1015625 10.91796875 C-8.28429687 10.01691406 -7.46703125 9.11585938 -6.625 8.1875 C-5.81289063 7.29417969 -5.00078125 6.40085937 -4.1640625 5.48046875 C-1.90927093 3.00367326 -1.90927093 3.00367326 0 0 Z " fill="#46B176" transform="translate(342,252)"/>
<path d="M0 0 C6.6 0 13.2 0 20 0 C18.86382265 5.68088674 17.71674706 6.90204811 14 11 C13.67 10.34 13.34 9.68 13 9 C13.33 8.01 13.66 7.02 14 6 C14.66 6 15.32 6 16 6 C16 4.68 16 3.36 16 2 C10.72 1.67 5.44 1.34 0 1 C0 0.67 0 0.34 0 0 Z " fill="#16A556" transform="translate(280,43)"/>
<path d="M0 0 C2.31 0 4.62 0 7 0 C4.31158141 2.25245881 2.35358125 3.88213958 -1 5 C-1 5.66 -1 6.32 -1 7 C-3 8.625 -3 8.625 -5 10 C-5.66 9.67 -6.32 9.34 -7 9 C-7 8.34 -7 7.68 -7 7 C-6.01 6.34 -5.02 5.68 -4 5 C-3.67 4.01 -3.34 3.02 -3 2 C-2.01 2.33 -1.02 2.66 0 3 C0 2.01 0 1.02 0 0 Z " fill="#3CAA6C" transform="translate(110,251)"/>
<path d="M0 0 C4.92908146 3.87792288 8.5423711 7.76116833 12 13 C11.01 13.33 10.02 13.66 9 14 C7 12.25 7 12.25 5 10 C5 8.68 5 7.36 5 6 C3.68 5.67 2.36 5.34 1 5 C0.67 3.35 0.34 1.7 0 0 Z " fill="#2FAC65" transform="translate(343,208)"/>
<path d="M0 0 C0.66 0.33 1.32 0.66 2 1 C1.37755401 2.27208622 0.75193233 3.54261882 0.125 4.8125 C-0.22304688 5.52019531 -0.57109375 6.22789063 -0.9296875 6.95703125 C-2.73165152 10.39654652 -4.45887939 12.51812106 -7.625 14.6875 C-8.57246094 15.34298828 -8.57246094 15.34298828 -9.5390625 16.01171875 C-10.26222656 16.50091797 -10.26222656 16.50091797 -11 17 C-9.4785708 13.72132006 -7.5944185 10.87944802 -5.5 7.9375 C-3.63418777 5.30876031 -1.78832004 2.68248007 0 0 Z " fill="#56B485" transform="translate(266,58)"/>
<path d="M0 0 C0.66 0 1.32 0 2 0 C2 1.65 2 3.3 2 5 C1.34 5 0.68 5 0 5 C0 5.66 0 6.32 0 7 C0.66 7.33 1.32 7.66 2 8 C-1.33333333 9.33333333 -4.66666667 10.66666667 -8 12 C-7.05128129 10.57692193 -6.10183223 9.1543246 -5.1484375 7.734375 C-4.0317213 6.04790563 -2.95271069 4.33665816 -1.875 2.625 C-1.25625 1.75875 -0.6375 0.8925 0 0 Z " fill="#3DB576" transform="translate(233,399)"/>
<path d="M0 0 C0.99 0.33 1.98 0.66 3 1 C3 1.66 3 2.32 3 3 C1.02 3.66 -0.96 4.32 -3 5 C-3 5.66 -3 6.32 -3 7 C-2.34 7.33 -1.68 7.66 -1 8 C-1.804375 8.268125 -2.60875 8.53625 -3.4375 8.8125 C-4.283125 9.204375 -5.12875 9.59625 -6 10 C-6.33 10.99 -6.66 11.98 -7 13 C-8.65 13.33 -10.3 13.66 -12 14 C-11.60167969 13.54109375 -11.20335937 13.0821875 -10.79296875 12.609375 C-7.39984291 8.68325173 -7.39984291 8.68325173 -4.25 4.5625 C-3.8375 4.046875 -3.425 3.53125 -3 3 C-2.34 3 -1.68 3 -1 3 C-0.67 2.01 -0.34 1.02 0 0 Z " fill="#4EB581" transform="translate(249,180)"/>
<path d="M0 0 C2.10409639 -0.02701408 4.20829178 -0.04640223 6.3125 -0.0625 C7.48425781 -0.07410156 8.65601563 -0.08570313 9.86328125 -0.09765625 C13.23765793 0.00739906 15.1937138 0.1819432 17.60546875 2.62890625 C18.12753906 3.26699219 18.64960938 3.90507812 19.1875 4.5625 C19.71730469 5.20316406 20.24710937 5.84382813 20.79296875 6.50390625 C21.19128906 6.99761719 21.58960938 7.49132812 22 8 C21.67 8.66 21.34 9.32 21 10 C19 8.625 19 8.625 17 7 C17 6.34 17 5.68 17 5 C16.360625 4.690625 15.72125 4.38125 15.0625 4.0625 C13 3 13 3 12 2 C9.98405418 1.76572222 7.961526 1.58663876 5.9375 1.4375 C4.83277344 1.35371094 3.72804688 1.26992187 2.58984375 1.18359375 C1.73519531 1.12300781 0.88054687 1.06242188 0 1 C0 0.67 0 0.34 0 0 Z " fill="#50AC7A" transform="translate(374,251)"/>
<path d="M0 0 C0.66 0.33 1.32 0.66 2 1 C1.34 2.32 0.68 3.64 0 5 C-0.99 5 -1.98 5 -3 5 C-3.185625 5.61875 -3.37125 6.2375 -3.5625 6.875 C-5.71437233 10.05602866 -8.37533763 10.19451947 -12 11 C-8.19588166 7.08060535 -4.18423892 3.50897269 0 0 Z " fill="#49B078" transform="translate(399,222)"/>
<path d="M0 0 C3.46624531 0.28531266 4.76274344 0.75777471 7.23828125 3.28515625 C8.26501953 4.65994141 8.26501953 4.65994141 9.3125 6.0625 C10.00988281 6.98160156 10.70726562 7.90070313 11.42578125 8.84765625 C11.94527344 9.55792969 12.46476562 10.26820313 13 11 C12.01 11.33 11.02 11.66 10 12 C10 11.34 10 10.68 10 10 C9.01 9.67 8.02 9.34 7 9 C6.690625 8.34 6.38125 7.68 6.0625 7 C5.17972859 4.79394438 5.17972859 4.79394438 2.875 4.25 C2.25625 4.1675 1.6375 4.085 1 4 C0.67 2.68 0.34 1.36 0 0 Z " fill="#36AB6C" transform="translate(251,184)"/>
<path d="M0 0 C0.33 0.66 0.66 1.32 1 2 C0.01 2.495 0.01 2.495 -1 3 C-1.6496875 4.175625 -1.6496875 4.175625 -2.3125 5.375 C-4.23370664 8.36354367 -5.77865998 9.55039699 -9 11 C-9.99 10.67 -10.98 10.34 -12 10 C-10.625 8.5 -10.625 8.5 -9 7 C-8.34 7 -7.68 7 -7 7 C-7 6.34 -7 5.68 -7 5 C-5.46875 3.7109375 -5.46875 3.7109375 -3.5 2.375 C-2.8503125 1.92898437 -2.200625 1.48296875 -1.53125 1.0234375 C-0.77328125 0.51683594 -0.77328125 0.51683594 0 0 Z " fill="#53BA80" transform="translate(413,211)"/>
<path d="M0 0 C2.375 0.25 2.375 0.25 5 1 C6.3125 3.0625 6.3125 3.0625 7 5 C6.34 5.66 5.68 6.32 5 7 C2.40730017 6.98252112 -0.0525154 6.86231408 -2.625 6.625 C-3.33140625 6.56828125 -4.0378125 6.5115625 -4.765625 6.453125 C-6.51121361 6.31159079 -8.25573673 6.15702613 -10 6 C-10 5.67 -10 5.34 -10 5 C-4.06 4.505 -4.06 4.505 2 4 C1.34 2.68 0.68 1.36 0 0 Z " fill="#36A469" transform="translate(263,424)"/>
<path d="M0 0 C0.99 0.33 1.98 0.66 3 1 C2.34 1 1.68 1 1 1 C1 1.99 1 2.98 1 4 C2.32 4 3.64 4 5 4 C5 5.32 5 6.64 5 8 C5.99 8.33 6.98 8.66 8 9 C7.01 10.485 7.01 10.485 6 12 C3.03 8.7 0.06 5.4 -3 2 C-2.01 1.34 -1.02 0.68 0 0 Z " fill="#3FAE6E" transform="translate(178,297)"/>
<path d="M0 0 C0.99 0.495 0.99 0.495 2 1 C2 1.66 2 2.32 2 3 C2.66 3 3.32 3 4 3 C5.65625 4.609375 5.65625 4.609375 7.5 6.75 C8.1084375 7.44609375 8.716875 8.1421875 9.34375 8.859375 C10.87976963 10.84460792 11.9723966 12.71872045 13 15 C11.125 14.75 11.125 14.75 9 14 C8.31513275 12.67592331 7.65129797 11.34090759 7 10 C6.175 9.38125 5.35 8.7625 4.5 8.125 C1.54965983 5.61721085 0.92526214 3.70104856 0 0 Z " fill="#4AAF76" transform="translate(159,254)"/>
<path d="M0 0 C1.65 0 3.3 0 5 0 C4.01 0.495 4.01 0.495 3 1 C3 1.66 3 2.32 3 3 C2.34 3 1.68 3 1 3 C0.773125 3.556875 0.54625 4.11375 0.3125 4.6875 C-1.35896766 7.63246684 -3.55276352 9.68156544 -6 12 C-6.25 9.1875 -6.25 9.1875 -6 6 C-4.125 4.125 -4.125 4.125 -2 3 C-1.34 3 -0.68 3 0 3 C0 2.01 0 1.02 0 0 Z " fill="#3EA971" transform="translate(361,253)"/>
<path d="M0 0 C0.66 0.33 1.32 0.66 2 1 C1.67 1.66 1.34 2.32 1 3 C1.99 3.33 2.98 3.66 4 4 C2.68 5.65 1.36 7.3 0 9 C-2.475 8.01 -2.475 8.01 -5 7 C-3.625 4.5 -3.625 4.5 -2 2 C-1.34 2 -0.68 2 0 2 C0 1.34 0 0.68 0 0 Z " fill="#34B26E" transform="translate(203,231)"/>
<path d="M0 0 C1 2 1 2 0.36328125 4.09375 C0.01652344 4.8878125 -0.33023438 5.681875 -0.6875 6.5 C-1.02136719 7.2940625 -1.35523438 8.088125 -1.69921875 8.90625 C-3.77055759 12.2402969 -6.3827965 12.7942655 -10 14 C-10 13.34 -10 12.68 -10 12 C-9.34 12 -8.68 12 -8 12 C-7.34 10.35 -6.68 8.7 -6 7 C-5.34 7 -4.68 7 -4 7 C-4 6.34 -4 5.68 -4 5 C-3.34 5 -2.68 5 -2 5 C-1.34 3.35 -0.68 1.7 0 0 Z " fill="#4EB57D" transform="translate(224,411)"/>
<path d="M0 0 C0.99 0.33 1.98 0.66 3 1 C3 1.66 3 2.32 3 3 C5.97 3.495 5.97 3.495 9 4 C9.33 4.99 9.66 5.98 10 7 C10.99 7.66 11.98 8.32 13 9 C11.02 9.99 11.02 9.99 9 11 C7.29115995 9.37660195 5.62553283 7.70680947 4 6 C4 5.34 4 4.68 4 4 C3.34 4 2.68 4 2 4 C2 3.34 2 2.68 2 2 C1.34 2 0.68 2 0 2 C0 1.34 0 0.68 0 0 Z " fill="#4EB27A" transform="translate(240,293)"/>
<path d="M0 0 C0.33 0.99 0.66 1.98 1 3 C0.01 3.33 -0.98 3.66 -2 4 C-2.3721042 5.32303717 -2.70630173 6.65737935 -3 8 C-3.99 8.495 -3.99 8.495 -5 9 C-5.33 9.99 -5.66 10.98 -6 12 C-7.65 12.33 -9.3 12.66 -11 13 C-7.61227103 8.30840284 -4.21814817 3.9700218 0 0 Z " fill="#48B078" transform="translate(269,334)"/>
<path d="M0 0 C0.33 1.98 0.66 3.96 1 6 C1.66 5.34 2.32 4.68 3 4 C5.1519437 7.22791555 5.20086443 8.28400809 5 12 C4.34 11.67 3.68 11.34 3 11 C3 10.34 3 9.68 3 9 C2.4225 8.79375 1.845 8.5875 1.25 8.375 C-1.81410544 6.50249112 -3.15539968 4.03041481 -5 1 C-1.125 0 -1.125 0 0 0 Z " fill="#49B679" transform="translate(308,189)"/>
<path d="M0 0 C-0.33 0.99 -0.66 1.98 -1 3 C-1.66 3 -2.32 3 -3 3 C-3.226875 3.556875 -3.45375 4.11375 -3.6875 4.6875 C-5.35896766 7.63246684 -7.55276352 9.68156544 -10 12 C-10 10.68 -10 9.36 -10 8 C-9.34 7.67 -8.68 7.34 -8 7 C-7.71125 6.195625 -7.4225 5.39125 -7.125 4.5625 C-6 2 -6 2 -4 0.6875 C-2 0 -2 0 0 0 Z " fill="#51B27D" transform="translate(289,59)"/>
<path d="M0 0 C0 3.12900213 -0.42451317 4.37418862 -2 7 C-2.99 7.495 -2.99 7.495 -4 8 C-4.33 8.99 -4.66 9.98 -5 11 C-5.66 11 -6.32 11 -7 11 C-7.33 11.99 -7.66 12.98 -8 14 C-8.99 13.67 -9.98 13.34 -11 13 C-10.54109375 12.48050781 -10.0821875 11.96101563 -9.609375 11.42578125 C-6.31617392 7.68287834 -3.07047811 3.93021199 0 0 Z " fill="#5EBA89" transform="translate(309,289)"/>
<path d="M0 0 C0.66 0.33 1.32 0.66 2 1 C2 1.66 2 2.32 2 3 C3.32 3.33 4.64 3.66 6 4 C6 4.66 6 5.32 6 6 C6.61875 6.28875 7.2375 6.5775 7.875 6.875 C10 8 10 8 12 10 C10 10 8 10 6 10 C5.67 8.35 5.34 6.7 5 5 C3.7934375 4.814375 3.7934375 4.814375 2.5625 4.625 C1.716875 4.41875 0.87125 4.2125 0 4 C-0.33 3.34 -0.66 2.68 -1 2 C-0.67 1.34 -0.34 0.68 0 0 Z " fill="#3DAC74" transform="translate(403,244)"/>
<path d="M0 0 C1.65 0.33 3.3 0.66 5 1 C5.33 2.65 5.66 4.3 6 6 C4.68 5.34 3.36 4.68 2 4 C1.54625 4.495 1.0925 4.99 0.625 5.5 C-1 7 -1 7 -3 7 C-3 5.35 -3 3.7 -3 2 C-2.01 2 -1.02 2 0 2 C0 1.34 0 0.68 0 0 Z " fill="#52B87D" transform="translate(248,131)"/>
<path d="M0 0 C0.99 0 1.98 0 3 0 C2.34 2.31 1.68 4.62 1 7 C1.99 7.33 2.98 7.66 4 8 C4.33 9.65 4.66 11.3 5 13 C4.34 12.67 3.68 12.34 3 12 C3 11.34 3 10.68 3 10 C2.34 10 1.68 10 1 10 C-0.98 6.535 -0.98 6.535 -3 3 C-2.34 3 -1.68 3 -1 3 C-0.67 2.01 -0.34 1.02 0 0 Z " fill="#49B778" transform="translate(204,43)"/>
<path d="M0 0 C0.66 0.99 1.32 1.98 2 3 C1.34 3 0.68 3 0 3 C-0.33 5.31 -0.66 7.62 -1 10 C-3.31 10.33 -5.62 10.66 -8 11 C-6.625 8.5 -6.625 8.5 -5 6 C-4.34 6 -3.68 6 -3 6 C-2.690625 5.38125 -2.38125 4.7625 -2.0625 4.125 C-1.375 2.75 -0.6875 1.375 0 0 Z " fill="#44B272" transform="translate(279,244)"/>
<path d="M0 0 C2.96404505 2.80804268 5.44499019 5.18315774 7 9 C7.66 9 8.32 9 9 9 C9 9.66 9 10.32 9 11 C9.66 11 10.32 11 11 11 C11.33 11.99 11.66 12.98 12 14 C10.1875 13.8125 10.1875 13.8125 8 13 C6.96986723 11.35178756 5.96885372 9.68496298 5 8 C4.01 7.67 3.02 7.34 2 7 C0 4 0 4 0 0 Z " fill="#47AD72" transform="translate(331,194)"/>
<path d="M0 0 C2.475 0.495 2.475 0.495 5 1 C5.28875 2.134375 5.5775 3.26875 5.875 4.4375 C6.24625 5.613125 6.6175 6.78875 7 8 C7.66 8.33 8.32 8.66 9 9 C9 9.66 9 10.32 9 11 C8.34 11 7.68 11 7 11 C5.2734375 9.1015625 5.2734375 9.1015625 3.375 6.625 C2.42753906 5.40683594 2.42753906 5.40683594 1.4609375 4.1640625 C0 2 0 2 0 0 Z " fill="#58BA84" transform="translate(226,77)"/>
<path d="M0 0 C1 2 1 2 0.3125 4.375 C-1.13371674 7.26743348 -2.42915785 9.03406189 -5 11 C-6.32 10.67 -7.64 10.34 -9 10 C-6.03 6.7 -3.06 3.4 0 0 Z " fill="#41B073" transform="translate(270,255)"/>
<path d="M0 0 C1 2 1 2 0.3125 4.5625 C-1 7 -1 7 -2.875 7.9375 C-5 8 -5 8 -9 6 C-6.03 4.02 -3.06 2.04 0 0 Z " fill="#3BB06C" transform="translate(91,249)"/>
<path d="M0 0 C2.04119788 1.61594832 4.04072937 3.2856382 6 5 C6 5.66 6 6.32 6 7 C6.66 7.33 7.32 7.66 8 8 C5.36 8 2.72 8 0 8 C-0.79953138 4.71303767 -1.09658936 3.28976808 0 0 Z " fill="#42B072" transform="translate(313,175)"/>
<path d="M0 0 C3.07373463 0.62871845 5.33257408 1.12425629 7.2890625 3.69140625 C8.26200476 5.42380343 9.13804683 7.20978957 10 9 C7 9 7 9 5.17578125 7.28515625 C4.56089844 6.55167969 3.94601563 5.81820313 3.3125 5.0625 C2.68988281 4.33160156 2.06726563 3.60070312 1.42578125 2.84765625 C0 1 0 1 0 0 Z " fill="#4AB078" transform="translate(215,265)"/>
<path d="M0 0 C1.65 0 3.3 0 5 0 C4.06862408 1.29608947 3.1296434 2.58671632 2.1875 3.875 C1.66542969 4.59429687 1.14335937 5.31359375 0.60546875 6.0546875 C-1 8 -1 8 -4 10 C-3.67 8.35 -3.34 6.7 -3 5 C-2.01 4.67 -1.02 4.34 0 4 C0 2.68 0 1.36 0 0 Z " fill="#56B685" transform="translate(192,191)"/>
<path d="M0 0 C0.99 0.66 1.98 1.32 3 2 C0.69 4.64 -1.62 7.28 -4 10 C-4.99 9.34 -5.98 8.68 -7 8 C-6.01 8 -5.02 8 -4 8 C-4 6.68 -4 5.36 -4 4 C-3.01 4 -2.02 4 -1 4 C-1.33 3.01 -1.66 2.02 -2 1 C-1.34 0.67 -0.68 0.34 0 0 Z " fill="#3FB379" transform="translate(276,348)"/>
<path d="M0 0 C1.65 0.33 3.3 0.66 5 1 C3.50902342 4.7952131 1.24299151 6.61042731 -2 9 C-2.33 7.35 -2.66 5.7 -3 4 C-2.01 3.67 -1.02 3.34 0 3 C0 2.01 0 1.02 0 0 Z " fill="#41B074" transform="translate(277,267)"/>
<path d="M0 0 C2.4375 0.8125 2.4375 0.8125 5 2 C5.33 2.99 5.66 3.98 6 5 C6.99 5.33 7.98 5.66 9 6 C8.67 7.32 8.34 8.64 8 10 C6.84806377 8.90220176 5.70365063 7.79650554 4.5625 6.6875 C3.92441406 6.07261719 3.28632813 5.45773438 2.62890625 4.82421875 C1 3 1 3 0 0 Z " fill="#54B482" transform="translate(319,207)"/>
<path d="M0 0 C0.33 0.66 0.66 1.32 1 2 C0.67 2.99 0.34 3.98 0 5 C-0.66 5 -1.32 5 -2 5 C-2 5.66 -2 6.32 -2 7 C-3.62626404 8.38232443 -5.2925002 9.71937515 -7 11 C-7.66 10.67 -8.32 10.34 -9 10 C-8.67 9.34 -8.34 8.68 -8 8 C-7.34 8 -6.68 8 -6 8 C-5.7525 7.4225 -5.505 6.845 -5.25 6.25 C-3.83316683 3.6997003 -2.12372463 1.98214299 0 0 Z " fill="#4BB180" transform="translate(297,303)"/>
<path d="M0 0 C4.09392724 1.86087602 6.93781305 3.71908541 10 7 C10.66 7.33 11.32 7.66 12 8 C11.67 8.66 11.34 9.32 11 10 C8.13275314 9.42655063 7.1385485 9.1385485 5 7 C4.34 6.67 3.68 6.34 3 6 C3 5.01 3 4.02 3 3 C2.01 2.67 1.02 2.34 0 2 C0 1.34 0 0.68 0 0 Z " fill="#59B47F" transform="translate(69,197)"/>
<path d="M0 0 C1.65 0 3.3 0 5 0 C3.7954483 2.97122753 2.75946836 4.65527677 -0.203125 6 C-2.45586752 6.73674598 -4.70515269 7.40824692 -7 8 C-6.67 7.01 -6.34 6.02 -6 5 C-4.02 4.67 -2.04 4.34 0 4 C0 2.68 0 1.36 0 0 Z " fill="#26A764" transform="translate(288,54)"/>
<path d="M0 0 C3.26008643 3.16952847 6.22237877 6.39937989 9 10 C8.67 10.66 8.34 11.32 8 12 C4.1735215 10.72450717 3.80418485 9.52992688 2 6 C1.28856912 4.01548229 0.61008664 2.01797888 0 0 Z " fill="#39A96A" transform="translate(268,402)"/>
<path d="M0 0 C3.28788824 3.11016455 5.83735988 6.01618925 8 10 C7.01 10.33 6.02 10.66 5 11 C4.731875 10.030625 4.46375 9.06125 4.1875 8.0625 C3.795625 7.051875 3.40375 6.04125 3 5 C2.01 4.67 1.02 4.34 0 4 C0 2.68 0 1.36 0 0 Z " fill="#3AB378" transform="translate(260,392)"/>
<path d="M0 0 C0.99 0.33 1.98 0.66 3 1 C2.34 1 1.68 1 1 1 C1.66 2.65 2.32 4.3 3 6 C2.01 6 1.02 6 0 6 C-0.33 5.34 -0.66 4.68 -1 4 C-2.32 4.33 -3.64 4.66 -5 5 C-5 3.68 -5 2.36 -5 1 C-3 0 -3 0 0 0 Z " fill="#05A24B" transform="translate(275,265)"/>
<path d="M0 0 C0.99 0 1.98 0 3 0 C2.34 2.97 1.68 5.94 1 9 C0.01 9 -0.98 9 -2 9 C-2.33 9.99 -2.66 10.98 -3 12 C-3.99 11.67 -4.98 11.34 -6 11 C-5.34 11 -4.68 11 -4 11 C-3.71125 10.38125 -3.4225 9.7625 -3.125 9.125 C-2 7 -2 7 0 5 C0.16687448 2.41645782 0.16687448 2.41645782 0 0 Z " fill="#45B885" transform="translate(349,240)"/>
<path d="M0 0 C0 0.66 0 1.32 0 2 C0.99 2 1.98 2 3 2 C3.66 3.65 4.32 5.3 5 7 C4.01 7 3.02 7 2 7 C2 6.34 2 5.68 2 5 C0.7934375 4.566875 0.7934375 4.566875 -0.4375 4.125 C-3 3 -3 3 -4 1 C-2 0 -2 0 0 0 Z " fill="#36A86B" transform="translate(93,234)"/>
<path d="M0 0 C1.2065625 0.0309375 1.2065625 0.0309375 2.4375 0.0625 C0.625 3.0625 0.625 3.0625 -1.5625 6.0625 C-2.5525 6.0625 -3.5425 6.0625 -4.5625 6.0625 C-3.48963568 0.08511307 -3.48963568 0.08511307 0 0 Z " fill="#2AA96A" transform="translate(160.5625,227.9375)"/>
<path d="M0 0 C0.66 0 1.32 0 2 0 C6 5.41176471 6 5.41176471 6 8 C6.99 8.33 7.98 8.66 9 9 C9 9.33 9 9.66 9 10 C7.35 10 5.7 10 4 10 C2.27735506 6.70450534 0.70554068 3.66881155 0 0 Z " fill="#44AF73" transform="translate(287,426)"/>
<path d="M0 0 C1.32 0.33 2.64 0.66 4 1 C2.38405168 3.04119788 0.7143618 5.04072937 -1 7 C-1.66 7 -2.32 7 -3 7 C-3.33 7.66 -3.66 8.32 -4 9 C-4.33 7.35 -4.66 5.7 -5 4 C-3.68 4 -2.36 4 -1 4 C-0.67 2.68 -0.34 1.36 0 0 Z " fill="#57B682" transform="translate(261,288)"/>
<path d="M0 0 C2.475 0.495 2.475 0.495 5 1 C4.67 2.32 4.34 3.64 4 5 C4.99 5.33 5.98 5.66 7 6 C7 6.99 7 7.98 7 9 C6.34 9 5.68 9 5 9 C5 8.34 5 7.68 5 7 C4.34 7 3.68 7 3 7 C0.70351351 4.4385343 0 3.52032428 0 0 Z " fill="#39AB6F" transform="translate(168,288)"/>
<path d="M0 0 C2.97 0.495 2.97 0.495 6 1 C6.33 1.99 6.66 2.98 7 4 C4.525 5.485 4.525 5.485 2 7 C2 6.34 2 5.68 2 5 C1.34 4.67 0.68 4.34 0 4 C0 2.68 0 1.36 0 0 Z " fill="#099E47" transform="translate(321,288)"/>
<path d="M0 0 C1.32 0 2.64 0 4 0 C2.49776416 4.20626034 -0.28550034 5.73900021 -4 8 C-3.49396008 5.83125748 -3.00016187 4.00032373 -2 2 C-1.34 2 -0.68 2 0 2 C0 1.34 0 0.68 0 0 Z " fill="#4EAE79" transform="translate(82,274)"/>
<path d="M0 0 C1.65 0 3.3 0 5 0 C4.67 0.99 4.34 1.98 4 3 C5.32 3 6.64 3 8 3 C7.67 4.65 7.34 6.3 7 8 C6.34 8 5.68 8 5 8 C3.7109375 6.25 3.7109375 6.25 2.375 4 C1.92898438 3.2575 1.48296875 2.515 1.0234375 1.75 C0.68570312 1.1725 0.34796875 0.595 0 0 Z " fill="#3BB070" transform="translate(276,235)"/>
<path d="M0 0 C0.99 0.99 1.98 1.98 3 3 C1.75453595 6.73639216 0.36595047 7.18756513 -3 9 C-3.26218749 5.85375007 -3.24754367 4.38162983 -1.5 1.6875 C-1.005 1.130625 -0.51 0.57375 0 0 Z " fill="#37AE6D" transform="translate(415,226)"/>
<path d="M0 0 C0.6875 1.75 0.6875 1.75 1 4 C-0.125 6.1875 -0.125 6.1875 -2 8 C-4.6875 8.75 -4.6875 8.75 -7 9 C-6.02180976 7.68677212 -5.0424189 6.37443848 -4.0625 5.0625 C-3.51722656 4.33160156 -2.97195312 3.60070312 -2.41015625 2.84765625 C-1 1 -1 1 0 0 Z " fill="#57BA80" transform="translate(219,139)"/>
<path d="M0 0 C0.66 0 1.32 0 2 0 C3.71808693 2.50554345 4.96723441 4.91519495 6.0625 7.75 C6.77997664 10.16232993 6.77997664 10.16232993 9 11 C8.01 11.33 7.02 11.66 6 12 C0.44419134 4.88610478 0.44419134 4.88610478 0 0 Z " fill="#4EB180" transform="translate(233,58)"/>
<path d="M0 0 C0.66 0 1.32 0 2 0 C2.33 1.32 2.66 2.64 3 4 C2.34 4 1.68 4 1 4 C0.67 5.32 0.34 6.64 0 8 C0 7.34 0 6.68 0 6 C-0.99 5.67 -1.98 5.34 -3 5 C-3.33 4.01 -3.66 3.02 -4 2 C-2.68 2 -1.36 2 0 2 C0 1.34 0 0.68 0 0 Z " fill="#30AC6A" transform="translate(210,330)"/>
<path d="M0 0 C0 0.99 0 1.98 0 3 C-0.66 3 -1.32 3 -2 3 C-2.28875 3.639375 -2.5775 4.27875 -2.875 4.9375 C-4 7 -4 7 -6 8 C-6.36458333 3.50347222 -6.36458333 3.50347222 -4.6875 1.1875 C-3 0 -3 0 0 0 Z " fill="#34A86D" transform="translate(329,292)"/>
<path d="M0 0 C0.33 0 0.66 0 1 0 C1 3.3 1 6.6 1 10 C2.98 9.67 4.96 9.34 7 9 C5.35 10.65 3.7 12.3 2 14 C1.34 13.67 0.68 13.34 0 13 C0 8.71 0 4.42 0 0 Z " fill="#3F9D67" transform="translate(60,282)"/>
<path d="M0 0 C0.66 0.33 1.32 0.66 2 1 C1.45773019 4.79588866 -0.20127563 6.47211993 -3 9 C-3.66 8.67 -4.32 8.34 -5 8 C-3.62845496 5.04590299 -2.01136276 2.55991624 0 0 Z " fill="#31A364" transform="translate(98,242)"/>
<path d="M0 0 C-1.12073862 0.83905565 -2.24674547 1.67107831 -3.375 2.5 C-4.00148438 2.9640625 -4.62796875 3.428125 -5.2734375 3.90625 C-7 5 -7 5 -9 5 C-9.33 5.99 -9.66 6.98 -10 8 C-10.33 6.68 -10.66 5.36 -11 4 C-4.45384615 -1.48461538 -4.45384615 -1.48461538 0 0 Z " fill="#43AB73" transform="translate(412,236)"/>
<path d="M0 0 C5.75 0.75 5.75 0.75 8 3 C8.39764263 4.98821313 8.73775349 6.98944339 9 9 C7.87105124 8.06725891 6.74699124 7.12859878 5.625 6.1875 C4.99851562 5.66542969 4.37203125 5.14335937 3.7265625 4.60546875 C2 3 2 3 0 0 Z " fill="#5DB984" transform="translate(271,156)"/>
<path d="M0 0 C1 3 1 3 -0.25 5.6875 C-0.8275 6.450625 -1.405 7.21375 -2 8 C-2.99 8 -3.98 8 -5 8 C-5 8.66 -5 9.32 -5 10 C-5.66 10 -6.32 10 -7 10 C-5.33248852 6.05860922 -2.77289351 3.2107188 0 0 Z " fill="#4FB37B" transform="translate(213,425)"/>
<path d="M0 0 C2.3125 -0.3125 2.3125 -0.3125 5 0 C6.875 2.3125 6.875 2.3125 8 5 C7.67 5.99 7.34 6.98 7 8 C5.29115995 6.37660195 3.62553283 4.70680947 2 3 C2 2.34 2 1.68 2 1 C1.34 0.67 0.68 0.34 0 0 Z " fill="#51B37B" transform="translate(207,257)"/>
<path d="M0 0 C1.38157895 4.14473684 1.38157895 4.14473684 0 7 C-3.0625 8.25 -3.0625 8.25 -6 9 C-4.47291037 5.56404834 -2.40072955 2.88087546 0 0 Z " fill="#45AA75" transform="translate(211,222)"/>
<path d="M0 0 C1.7074998 1.28062485 3.37373596 2.61767557 5 4 C5 4.66 5 5.32 5 6 C5.66 6 6.32 6 7 6 C7.33 6.99 7.66 7.98 8 9 C4.86493389 8.66410006 3.974751 7.97334828 1.75 5.625 C0 3 0 3 0 0 Z " fill="#4FB881" transform="translate(355,221)"/>
<path d="M0 0 C2.31 1.98 4.62 3.96 7 6 C6.01 6.66 5.02 7.32 4 8 C3.67 7.34 3.34 6.68 3 6 C2.01 6 1.02 6 0 6 C-1.125 2.25 -1.125 2.25 0 0 Z " fill="#46B87B" transform="translate(284,218)"/>
<path d="M0 0 C0.99 0.33 1.98 0.66 3 1 C2.04882866 2.1725131 1.08882991 3.33787015 0.125 4.5 C-0.40867188 5.1496875 -0.94234375 5.799375 -1.4921875 6.46875 C-1.98976562 6.9740625 -2.48734375 7.479375 -3 8 C-3.66 8 -4.32 8 -5 8 C-4.45773019 4.20411134 -2.79872437 2.52788007 0 0 Z " fill="#3DA569" transform="translate(178,208)"/>
<path d="M0 0 C1.65 0.33 3.3 0.66 5 1 C5 1.66 5 2.32 5 3 C3.1875 4.6875 3.1875 4.6875 1 6 C0.01 5.67 -0.98 5.34 -2 5 C-1.34 3.35 -0.68 1.7 0 0 Z M-4 6 C-2 7 -2 7 -2 7 Z " fill="#0BA04D" transform="translate(226,207)"/>
<path d="M0 0 C0.99 0 1.98 0 3 0 C2.67 6.93 2.34 13.86 2 21 C1.67 21 1.34 21 1 21 C0.67 14.07 0.34 7.14 0 0 Z " fill="#248E4F" transform="translate(438,191)"/>
<path d="M0 0 C0.66 0.33 1.32 0.66 2 1 C1.236875 1.7425 0.47375 2.485 -0.3125 3.25 C-2.4393702 5.4263323 -4.2559956 7.52167796 -6 10 C-6.66 9.67 -7.32 9.34 -8 9 C-7.34 7.68 -6.68 6.36 -6 5 C-5.34 5 -4.68 5 -4 5 C-4 4.01 -4 3.02 -4 2 C-2.68 2 -1.36 2 0 2 C0 1.34 0 0.68 0 0 Z " fill="#48AB76" transform="translate(210,175)"/>
<path d="M0 0 C0.99 0.495 0.99 0.495 2 1 C2 1.66 2 2.32 2 3 C2.928125 3.37125 2.928125 3.37125 3.875 3.75 C6.35068687 5.20628639 6.95125002 6.37812506 8 9 C2.37865749 7.53356282 2.37865749 7.53356282 0.625 5.0625 C0 3 0 3 0 0 Z " fill="#41A974" transform="translate(295,155)"/>
<path d="M0 0 C0.66 1.32 1.32 2.64 2 4 C-2.75 5 -2.75 5 -5 5 C-5 5.66 -5 6.32 -5 7 C-5.66 7 -6.32 7 -7 7 C-6.67 6.01 -6.34 5.02 -6 4 C-5.34 4 -4.68 4 -4 4 C-3.67 3.01 -3.34 2.02 -3 1 C-2.01 0.67 -1.02 0.34 0 0 Z " fill="#2AAD6F" transform="translate(214,147)"/>
<path d="M0 0 C0.99 0.495 0.99 0.495 2 1 C2 1.66 2 2.32 2 3 C2.66 3 3.32 3 4 3 C7 6.46153846 7 6.46153846 7 9 C7.66 9.33 8.32 9.66 9 10 C7.35 10 5.7 10 4 10 C3.4465236 7.92446352 3 6.15634036 3 4 C2.34 4 1.68 4 1 4 C0.67 2.68 0.34 1.36 0 0 Z " fill="#55B37F" transform="translate(258,114)"/>
<path d="M0 0 C3.81684226 1.55500981 6.19195732 4.03595495 9 7 C8.67 7.66 8.34 8.32 8 9 C6.0625 8.25 6.0625 8.25 4 7 C3.63837971 5.67405895 3.30271961 4.34061543 3 3 C2.01 2.67 1.02 2.34 0 2 C0 1.34 0 0.68 0 0 Z " fill="#5BB989" transform="translate(228,332)"/>
<path d="M0 0 C3 3.75 3 3.75 3 6 C3.99 6 4.98 6 6 6 C6 7.65 6 9.3 6 11 C3.35247996 8.42215154 1.05567935 6.08351902 -1 3 C-0.67 2.01 -0.34 1.02 0 0 Z " fill="#50B57C" transform="translate(228,276)"/>
<path d="M0 0 C0.66 0.99 1.32 1.98 2 3 C2.99 3.33 3.98 3.66 5 4 C5 3.34 5 2.68 5 2 C5.66 2 6.32 2 7 2 C6.67 3.65 6.34 5.3 6 7 C2.74456771 6.65120368 1.98126893 5.97866739 -0.25 3.4375 C-1.11625 2.2309375 -1.11625 2.2309375 -2 1 C-1.34 0.67 -0.68 0.34 0 0 Z " fill="#38AD6A" transform="translate(289,172)"/>
<path d="M0 0 C3.47153381 0.76403415 5.99770818 2.08186911 9 4 C8.01 4.495 8.01 4.495 7 5 C7 5.66 7 6.32 7 7 C6.34 7 5.68 7 5 7 C3.7109375 5.46875 3.7109375 5.46875 2.375 3.5 C1.70597656 2.52546875 1.70597656 2.52546875 1.0234375 1.53125 C0.68570313 1.0259375 0.34796875 0.520625 0 0 Z " fill="#37AD6D" transform="translate(254,137)"/>
<path d="M0 0 C0.66 0.33 1.32 0.66 2 1 C2 2.32 2 3.64 2 5 C1.01 5.495 1.01 5.495 0 6 C-0.33 6.66 -0.66 7.32 -1 8 C-1 7.34 -1 6.68 -1 6 C-2.65 6.66 -4.3 7.32 -6 8 C-4.02 5.36 -2.04 2.72 0 0 Z " fill="#48B579" transform="translate(281,320)"/>
<path d="M0 0 C3.26008643 3.16952847 6.22237877 6.39937989 9 10 C8.01 10.495 8.01 10.495 7 11 C6.67 10.34 6.34 9.68 6 9 C5.01 8.67 4.02 8.34 3 8 C0 2.77777778 0 2.77777778 0 0 Z " fill="#47B175" transform="translate(184,282)"/>
<path d="M0 0 C0.66 0 1.32 0 2 0 C0.33248852 3.94139078 -2.22710649 6.7892812 -5 10 C-5.33 8.68 -5.66 7.36 -6 6 C-5.34 6 -4.68 6 -4 6 C-3.34 4.68 -2.68 3.36 -2 2 C-1.34 2 -0.68 2 0 2 C0 1.34 0 0.68 0 0 Z " fill="#69BF90" transform="translate(271,278)"/>
<path d="M0 0 C0.33 0 0.66 0 1 0 C1.33 2.64 1.66 5.28 2 8 C3.32 7.34 4.64 6.68 6 6 C5.67 6.99 5.34 7.98 5 9 C3.67696283 9.3721042 2.34262065 9.70630173 1 10 C0.67 10.66 0.34 11.32 0 12 C0 8.04 0 4.08 0 0 Z " fill="#4DB486" transform="translate(76,250)"/>
<path d="M0 0 C0.33 0.99 0.66 1.98 1 3 C-0.9375 6.1875 -0.9375 6.1875 -3 9 C-4.32 8.67 -5.64 8.34 -7 8 C-5.71937515 6.2925002 -4.38232443 4.62626404 -3 3 C-2.34 3 -1.68 3 -1 3 C-0.67 2.01 -0.34 1.02 0 0 Z " fill="#54B481" transform="translate(199,161)"/>
<path d="M0 0 C0.99 0.33 1.98 0.66 3 1 C1.71937515 2.7074998 0.38232443 4.37373596 -1 6 C-1.66 6 -2.32 6 -3 6 C-3.33 6.66 -3.66 7.32 -4 8 C-4 7.01 -4 6.02 -4 5 C-4.66 4.67 -5.32 4.34 -6 4 C-3 2 -3 2 0 2 C0 1.34 0 0.68 0 0 Z " fill="#47AE78" transform="translate(231,151)"/>
<path d="M0 0 C0.66 0.33 1.32 0.66 2 1 C1.67 1.66 1.34 2.32 1 3 C0.77141886 5.0374763 0.58975722 7.08040303 0.4375 9.125 C0.35371094 10.22070312 0.26992188 11.31640625 0.18359375 12.4453125 C0.12300781 13.28835937 0.06242187 14.13140625 0 15 C-0.33 15 -0.66 15 -1 15 C-1.33 10.38 -1.66 5.76 -2 1 C-1.34 0.67 -0.68 0.34 0 0 Z " fill="#4DB27B" transform="translate(259,94)"/>
<path d="M0 0 C4.875 4.625 4.875 4.625 6 8 C5.01 8 4.02 8 3 8 C2.566875 7.0409375 2.566875 7.0409375 2.125 6.0625 C1.17176549 3.84793921 1.17176549 3.84793921 -1 3 C-0.67 2.01 -0.34 1.02 0 0 Z " fill="#36B46E" transform="translate(281,418)"/>
<path d="M0 0 C3 1.8125 3 1.8125 6 4 C6 4.99 6 5.98 6 7 C3.525 6.01 3.525 6.01 1 5 C1 4.34 1 3.68 1 3 C0.01 2.67 -0.98 2.34 -2 2 C-1.34 2 -0.68 2 0 2 C0 1.34 0 0.68 0 0 Z " fill="#38B171" transform="translate(84,209)"/>
<path d="M0 0 C1 2 1 2 0.4375 3.9375 C-1.5350252 6.76764485 -3.88495996 7.64563476 -7 9 C-7 8.34 -7 7.68 -7 7 C-6.34 7 -5.68 7 -5 7 C-4.731875 6.401875 -4.46375 5.80375 -4.1875 5.1875 C-3.01506533 3.02775192 -1.80630718 1.64209744 0 0 Z " fill="#50B47B" transform="translate(225,207)"/>
<path d="M0 0 C0.66 0.99 1.32 1.98 2 3 C1.67 3.66 1.34 4.32 1 5 C0.01 5.33 -0.98 5.66 -2 6 C-2.33 6.66 -2.66 7.32 -3 8 C-3.99 7.67 -4.98 7.34 -6 7 C-5.67 6.34 -5.34 5.68 -5 5 C-4.34 5 -3.68 5 -3 5 C-3 4.34 -3 3.68 -3 3 C-2.34 3 -1.68 3 -1 3 C-0.67 2.01 -0.34 1.02 0 0 Z " fill="#51B682" transform="translate(238,118)"/>
<path d="M0 0 C1.0625 1.8125 1.0625 1.8125 2 4 C1.67 4.99 1.34 5.98 1 7 C-0.65 7 -2.3 7 -4 7 C-2.68 4.69 -1.36 2.38 0 0 Z " fill="#32B26B" transform="translate(296,436)"/>
<path d="M0 0 C0.99 0 1.98 0 3 0 C2.125 4.75 2.125 4.75 1 7 C2.65 7 4.3 7 6 7 C6 7.33 6 7.66 6 8 C4.02 8 2.04 8 0 8 C0 5.36 0 2.72 0 0 Z " fill="#36B284" transform="translate(234,421)"/>
<path d="M0 0 C2.475 0.495 2.475 0.495 5 1 C5 2.65 5 4.3 5 6 C3.68 6 2.36 6 1 6 C0.67 4.02 0.34 2.04 0 0 Z " fill="#2BAB64" transform="translate(247,352)"/>
<path d="M0 0 C1.65 0 3.3 0 5 0 C5 0.66 5 1.32 5 2 C5.99 2.33 6.98 2.66 8 3 C8 3.66 8 4.32 8 5 C4.20411134 4.45773019 2.52788007 2.79872437 0 0 Z " fill="#3EAB6E" transform="translate(412,273)"/>
<path d="M0 0 C1.32 0 2.64 0 4 0 C4.28875 0.78375 4.5775 1.5675 4.875 2.375 C5.84912254 5.09671632 5.84912254 5.09671632 8 7 C7.01 7 6.02 7 5 7 C0 1.53488372 0 1.53488372 0 0 Z " fill="#4FB47C" transform="translate(262,219)"/>
<path d="M0 0 C0.91058531 3.07322544 1.08886184 5.80097361 1 9 C-1.04119788 7.38405168 -3.04072937 5.7143618 -5 4 C-5 3.34 -5 2.68 -5 2 C-3.68 2 -2.36 2 -1 2 C-0.67 1.34 -0.34 0.68 0 0 Z " fill="#3FAE6F" transform="translate(333,215)"/>
<path d="M0 0 C1.17539996 0.92652701 2.34010577 1.86663387 3.5 2.8125 C4.1496875 3.33457031 4.799375 3.85664063 5.46875 4.39453125 C7 6 7 6 7 9 C6.34 8.67 5.68 8.34 5 8 C5 7.34 5 6.68 5 6 C3.68 5.67 2.36 5.34 1 5 C0.67 3.35 0.34 1.7 0 0 Z " fill="#40B685" transform="translate(343,208)"/>
<path d="M0 0 C2.62187494 1.04874998 3.79371361 1.64931313 5.25 4.125 C5.4975 4.74375 5.745 5.3625 6 6 C6.66 6 7.32 6 8 6 C8 6.66 8 7.32 8 8 C7.01 7.67 6.02 7.34 5 7 C5 6.34 5 5.68 5 5 C3.68 4.67 2.36 4.34 1 4 C0.67 2.68 0.34 1.36 0 0 Z " fill="#3CA769" transform="translate(272,206)"/>
<path d="M0 0 C0.99 0 1.98 0 3 0 C2.67 1.65 2.34 3.3 2 5 C0.824375 4.9690625 0.824375 4.9690625 -0.375 4.9375 C-2.98114961 4.81315937 -2.98114961 4.81315937 -5 6 C-5 5.01 -5 4.02 -5 3 C-3.35 3 -1.7 3 0 3 C0 2.01 0 1.02 0 0 Z " fill="#3DB36B" transform="translate(252,203)"/>
<path d="M0 0 C0.99 0.33 1.98 0.66 3 1 C2.67 2.32 2.34 3.64 2 5 C0.35 4.67 -1.3 4.34 -3 4 C-2.67 3.01 -2.34 2.02 -2 1 C-1.34 0.67 -0.68 0.34 0 0 Z " fill="#239F5B" transform="translate(211,170)"/>
<path d="M0 0 C1.16959987 0.97566112 2.33561177 1.955625 3.5 2.9375 C4.1496875 3.48277344 4.799375 4.02804688 5.46875 4.58984375 C5.9740625 5.05519531 6.479375 5.52054688 7 6 C7 6.33 7 6.66 7 7 C5.35 7 3.7 7 2 7 C1.34 4.69 0.68 2.38 0 0 Z " fill="#4FB67E" transform="translate(281,140)"/>
<path d="M0 0 C3 2 3 2 3.6875 4.625 C3.790625 5.40875 3.89375 6.1925 4 7 C1 7 1 7 -1 6 C-1.042721 4.33388095 -1.04063832 2.66617115 -1 1 C-0.67 0.67 -0.34 0.34 0 0 Z " fill="#1EA85B" transform="translate(278,137)"/>
<path d="M0 0 C0.33 0 0.66 0 1 0 C1.08131463 1.43655854 1.13933559 2.8744483 1.1875 4.3125 C1.22230469 5.11300781 1.25710937 5.91351563 1.29296875 6.73828125 C0.93801608 9.47851584 0.10633718 10.29171079 -2 12 C-3.15957207 8.52128379 -2.77456651 7.65780355 -1.5625 4.3125 C-1.13130859 3.10013672 -1.13130859 3.10013672 -0.69140625 1.86328125 C-0.46324219 1.24839844 -0.23507813 0.63351563 0 0 Z " fill="#269959" transform="translate(242,108)"/>
<path d="M0 0 C0.33 0.66 0.66 1.32 1 2 C0.0625 4.625 0.0625 4.625 -1 7 C-2.32 6.67 -3.64 6.34 -5 6 C-3.86695008 2.60085025 -2.87481525 1.94745549 0 0 Z " fill="#52C186" transform="translate(254,75)"/>
<path d="M0 0 C2.97 0.495 2.97 0.495 6 1 C6.33 3.31 6.66 5.62 7 8 C4.35247996 5.42215154 2.05567935 3.08351902 0 0 Z " fill="#58B987" transform="translate(211,338)"/>
<path d="M0 0 C0 3.28176588 -0.47835901 5.10888212 -2 8 C-4.078125 8.6484375 -4.078125 8.6484375 -6 9 C-5.18914873 7.68648079 -4.37626942 6.37421332 -3.5625 5.0625 C-3.11003906 4.33160156 -2.65757812 3.60070312 -2.19140625 2.84765625 C-1 1 -1 1 0 0 Z " fill="#30A663" transform="translate(314,284)"/>
<path d="M0 0 C2.97 0.495 2.97 0.495 6 1 C6 2.32 6 3.64 6 5 C6.66 5.33 7.32 5.66 8 6 C7.01 6 6.02 6 5 6 C4.67 5.01 4.34 4.02 4 3 C3.34 3 2.68 3 2 3 C2 2.34 2 1.68 2 1 C1.34 0.67 0.68 0.34 0 0 Z " fill="#4DB278" transform="translate(134,253)"/>
<path d="M0 0 C0.66 0 1.32 0 2 0 C2.99 2.64 3.98 5.28 5 8 C4.34 8 3.68 8 3 8 C2.67 7.34 2.34 6.68 2 6 C-0.01669827 4.86649466 -0.01669827 4.86649466 -2 4 C-1.34 2.68 -0.68 1.36 0 0 Z " fill="#3FA46F" transform="translate(149,241)"/>
<path d="M0 0 C2.5 2.25 2.5 2.25 5 5 C5 6.32 5 7.64 5 9 C4.34 8.01 3.68 7.02 3 6 C2.01 5.67 1.02 5.34 0 5 C0 3.35 0 1.7 0 0 Z " fill="#50AF81" transform="translate(300,235)"/>
<path d="M0 0 C0.66 0.99 1.32 1.98 2 3 C0 6 0 6 -2.625 6.6875 C-3.800625 6.8421875 -3.800625 6.8421875 -5 7 C-4.34 5.68 -3.68 4.36 -3 3 C-2.34 3 -1.68 3 -1 3 C-0.67 2.01 -0.34 1.02 0 0 Z " fill="#50B77F" transform="translate(172,191)"/>
<path d="M0 0 C4.875 3.625 4.875 3.625 6 7 C5.01 7.495 5.01 7.495 4 8 C3.67 6.68 3.34 5.36 3 4 C2.34 4 1.68 4 1 4 C0.67 4.66 0.34 5.32 0 6 C-1.24546405 3.50907189 -0.7767578 2.58919267 0 0 Z " fill="#48B176" transform="translate(307,168)"/>
<path d="M0 0 C2.0625 0.4375 2.0625 0.4375 4 1 C3.34 2.65 2.68 4.3 2 6 C1.34 6 0.68 6 0 6 C-0.38218767 4.34385343 -0.71395102 2.67542976 -1 1 C-0.67 0.67 -0.34 0.34 0 0 Z " fill="#2BA665" transform="translate(267,356)"/>
<path d="M0 0 C1.32 0 2.64 0 4 0 C4 0.99 4 1.98 4 3 C4.66 3.33 5.32 3.66 6 4 C5.67 4.99 5.34 5.98 5 7 C0 1.125 0 1.125 0 0 Z " fill="#63BD91" transform="translate(224,352)"/>
<path d="M0 0 C0.66 0.99 1.32 1.98 2 3 C1.01 4.485 1.01 4.485 0 6 C-1.32 6 -2.64 6 -4 6 C-2.84826645 3.53199953 -1.95216435 1.95216435 0 0 Z " fill="#4BB477" transform="translate(260,266)"/>
<path d="M0 0 C1.98 0.66 3.96 1.32 6 2 C6.33 3.65 6.66 5.3 7 7 C5.83040013 6.02433888 4.66438823 5.044375 3.5 4.0625 C2.8503125 3.51722656 2.200625 2.97195313 1.53125 2.41015625 C1.0259375 1.94480469 0.520625 1.47945313 0 1 C0 0.67 0 0.34 0 0 Z " fill="#56B57F" transform="translate(146,266)"/>
<path d="M0 0 C-3.26545761 1.88391785 -6.28111761 2.49287967 -10 3 C-10 2.01 -10 1.02 -10 0 C-6.30581799 -1.231394 -3.7943739 -0.64432764 0 0 Z " fill="#20B16B" transform="translate(376,250)"/>
<path d="M0 0 C0.61875 0.639375 1.2375 1.27875 1.875 1.9375 C3.82597612 4.03883584 3.82597612 4.03883584 6 5 C5.67 6.32 5.34 7.64 5 9 C3.02 6.69 1.04 4.38 -1 2 C-0.67 1.34 -0.34 0.68 0 0 Z " fill="#64B88B" transform="translate(195,240)"/>
<path d="M0 0 C4 4.625 4 4.625 4 8 C3.01 7.67 2.02 7.34 1 7 C-0.1875 3.9375 -0.1875 3.9375 -1 1 C-0.67 0.67 -0.34 0.34 0 0 Z " fill="#44B97F" transform="translate(218,241)"/>
<path d="M0 0 C0.66 0 1.32 0 2 0 C2 0.66 2 1.32 2 2 C2.99 2.33 3.98 2.66 5 3 C3.35 4.32 1.7 5.64 0 7 C-1.125 2.25 -1.125 2.25 0 0 Z " fill="#34A968" transform="translate(218,161)"/>
<path d="M0 0 C2.64752004 2.57784846 4.94432065 4.91648098 7 8 C5.35 7.67 3.7 7.34 2 7 C1.34 4.69 0.68 2.38 0 0 Z " fill="#61C28A" transform="translate(288,147)"/>
<path d="M0 0 C2.64752004 2.57784846 4.94432065 4.91648098 7 8 C6.01 8 5.02 8 4 8 C4 7.34 4 6.68 4 6 C3.34 6 2.68 6 2 6 C0 3 0 3 0 0 Z " fill="#66BD8A" transform="translate(268,125)"/>
<path d="M0 0 C0.99 0.33 1.98 0.66 3 1 C1.55746343 4.36591866 -0.33264727 6.51047079 -3 9 C-2.67 7.35 -2.34 5.7 -2 4 C-1.34 4 -0.68 4 0 4 C0 2.68 0 1.36 0 0 Z " fill="#4CAF7C" transform="translate(296,45)"/>
<path d="M0 0 C1.2077558 3.62326739 0.54311128 4.64146369 -1 8 C-1.66 8 -2.32 8 -3 8 C-3.33 7.01 -3.66 6.02 -4 5 C-2.0625 2.3125 -2.0625 2.3125 0 0 Z " fill="#41B073" transform="translate(205,435)"/>
<path d="M0 0 C0.66 0 1.32 0 2 0 C2 1.65 2 3.3 2 5 C0.02 5.66 -1.96 6.32 -4 7 C-2.68 4.69 -1.36 2.38 0 0 Z " fill="#5DB887" transform="translate(233,399)"/>
<path d="M0 0 C1.32 0.33 2.64 0.66 4 1 C3.01 1.33 2.02 1.66 1 2 C0.30062468 3.31647119 -0.36729133 4.65022151 -1 6 C-1.99 6.495 -1.99 6.495 -3 7 C-3 5.68 -3 4.36 -3 3 C-2.01 3 -1.02 3 0 3 C0 2.01 0 1.02 0 0 Z " fill="#40A676" transform="translate(291,332)"/>
<path d="M0 0 C2.97 0.495 2.97 0.495 6 1 C6 2.65 6 4.3 6 6 C3.97945196 4.35830472 1.97956942 2.69088222 0 1 C0 0.67 0 0.34 0 0 Z " fill="#41B074" transform="translate(200,326)"/>
<path d="M0 0 C2.04119788 1.61594832 4.04072937 3.2856382 6 5 C6 5.66 6 6.32 6 7 C3 7 3 7 1.3125 5.75 C0 4 0 4 0 0 Z " fill="#36B986" transform="translate(218,320)"/>
<path d="M0 0 C2.875 0.6875 2.875 0.6875 6 2 C7.375 4.625 7.375 4.625 8 7 C1.125 3.375 1.125 3.375 0 0 Z " fill="#66B58B" transform="translate(428,286)"/>
<path d="M0 0 C0 0.66 0 1.32 0 2 C-2.5 3.625 -2.5 3.625 -5 5 C-5.99 4.34 -6.98 3.68 -8 3 C-4.93882432 0.37613513 -4.26826873 0 0 0 Z " fill="#2BA66F" transform="translate(77,282)"/>
<path d="M0 0 C1.98 1.65 3.96 3.3 6 5 C3 6 3 6 0 5 C0 3.35 0 1.7 0 0 Z " fill="#45B46F" transform="translate(238,265)"/>
<path d="M0 0 C1.65 1.65 3.3 3.3 5 5 C4.01 5.33 3.02 5.66 2 6 C1.67 6.66 1.34 7.32 1 8 C0.40267181 5.23735711 0 2.83967231 0 0 Z " fill="#25A15D" transform="translate(363,230)"/>
<path d="M0 0 C1.65 0 3.3 0 5 0 C5.33 1.98 5.66 3.96 6 6 C3.97945196 4.35830472 1.97956942 2.69088222 0 1 C0 0.67 0 0.34 0 0 Z " fill="#47B075" transform="translate(313,201)"/>
<path d="M0 0 C0.99 0.33 1.98 0.66 3 1 C3 1.66 3 2.32 3 3 C3.99 3.33 4.98 3.66 6 4 C4.02 4.99 4.02 4.99 2 6 C0 3 0 3 0 0 Z " fill="#34A96C" transform="translate(63,192)"/>
<path d="M0 0 C1.32 0.33 2.64 0.66 4 1 C2.63016497 4.16115776 2.0109362 4.9927092 -1 7 C-1.33 6.01 -1.66 5.02 -2 4 C-1.01 4 -0.02 4 1 4 C0.67 2.68 0.34 1.36 0 0 Z " fill="#45B276" transform="translate(198,184)"/>
<path d="M0 0 C0.66 0 1.32 0 2 0 C2 0.66 2 1.32 2 2 C2.99 1.67 3.98 1.34 5 1 C5.66 2.98 6.32 4.96 7 7 C6.34 7 5.68 7 5 7 C5 6.34 5 5.68 5 5 C4.34 5 3.68 5 3 5 C3 4.34 3 3.68 3 3 C2.34 3 1.68 3 1 3 C0.67 2.01 0.34 1.02 0 0 Z " fill="#5AB580" transform="translate(280,165)"/>
<path d="M0 0 C2.04119788 1.61594832 4.04072937 3.2856382 6 5 C6 5.66 6 6.32 6 7 C4.68 7 3.36 7 2 7 C2 6.01 2 5.02 2 4 C1.34 4 0.68 4 0 4 C0 2.68 0 1.36 0 0 Z " fill="#3EA66D" transform="translate(239,343)"/>
<path d="M0 0 C0.99 0.495 0.99 0.495 2 1 C2 1.66 2 2.32 2 3 C2.66 3 3.32 3 4 3 C4 3.66 4 4.32 4 5 C4.66 5.33 5.32 5.66 6 6 C5.01 6.33 4.02 6.66 3 7 C3 6.34 3 5.68 3 5 C2.01 5 1.02 5 0 5 C0 3.35 0 1.7 0 0 Z " fill="#52B582" transform="translate(211,312)"/>
<path d="M0 0 C2.475 0.99 2.475 0.99 5 2 C3.35 3.65 1.7 5.3 0 7 C0 4.66666667 0 2.33333333 0 0 Z " fill="#33A96A" transform="translate(347,266)"/>
<path d="M0 0 C1.16945792 0.80847729 2.33550461 1.62189112 3.5 2.4375 C4.47453125 3.11619141 4.47453125 3.11619141 5.46875 3.80859375 C5.9740625 4.20175781 6.479375 4.59492188 7 5 C7 5.33 7 5.66 7 6 C4.625 6.125 4.625 6.125 2 6 C1.34 5.34 0.68 4.68 0 4 C0 2.68 0 1.36 0 0 Z " fill="#58B77D" transform="translate(92,215)"/>
<path d="M0 0 C1.32 0 2.64 0 4 0 C4 0.66 4 1.32 4 2 C3.34 2 2.68 2 2 2 C2 2.66 2 3.32 2 4 C1.34 4 0.68 4 0 4 C-0.33 4.66 -0.66 5.32 -1 6 C-1.042721 4.33388095 -1.04063832 2.66617115 -1 1 C-0.67 0.67 -0.34 0.34 0 0 Z " fill="#4BB37C" transform="translate(241,211)"/>
<path d="M0 0 C1.32 0 2.64 0 4 0 C4.33 2.31 4.66 4.62 5 7 C1.18461538 4.53846154 1.18461538 4.53846154 0.25 1.8125 C0.1675 1.214375 0.085 0.61625 0 0 Z " fill="#3AAA6E" transform="translate(298,183)"/>
<path d="" fill="#FFFFFF" transform="translate(0,0)"/>
<path d="" fill="#FFFFFF" transform="translate(0,0)"/>
<path d="" fill="#FFFFFF" transform="translate(0,0)"/>
<path d="" fill="#FFFFFF" transform="translate(0,0)"/>
<path d="" fill="#FFFFFF" transform="translate(0,0)"/>
<path d="" fill="#FFFFFF" transform="translate(0,0)"/>
<path d="" fill="#FFFFFF" transform="translate(0,0)"/>
<path d="" fill="#FFFFFF" transform="translate(0,0)"/>
<path d="" fill="#FFFFFF" transform="translate(0,0)"/>
<path d="" fill="#FFFFFF" transform="translate(0,0)"/>
<path d="" fill="#FFFFFF" transform="translate(0,0)"/>
<path d="" fill="#FFFFFF" transform="translate(0,0)"/>
<path d="" fill="#FFFFFF" transform="translate(0,0)"/>
<path d="" fill="#FFFFFF" transform="translate(0,0)"/>
<path d="" fill="#FFFFFF" transform="translate(0,0)"/>
<path d="" fill="#FFFFFF" transform="translate(0,0)"/>
<path d="" fill="#FFFFFF" transform="translate(0,0)"/>
<path d="" fill="#FFFFFF" transform="translate(0,0)"/>
<path d="" fill="#FFFFFF" transform="translate(0,0)"/>
<path d="" fill="#FFFFFF" transform="translate(0,0)"/>
<path d="" fill="#FFFFFF" transform="translate(0,0)"/>
<path d="" fill="#FFFFFF" transform="translate(0,0)"/>
<path d="" fill="#FFFFFF" transform="translate(0,0)"/>
<path d="" fill="#FFFFFF" transform="translate(0,0)"/>
<path d="" fill="#FFFFFF" transform="translate(0,0)"/>
<path d="" fill="#FFFFFF" transform="translate(0,0)"/>
<path d="" fill="#FFFFFF" transform="translate(0,0)"/>
<path d="" fill="#FFFFFF" transform="translate(0,0)"/>
<path d="" fill="#FFFFFF" transform="translate(0,0)"/>
<path d="" fill="#FFFFFF" transform="translate(0,0)"/>
<path d="" fill="#FFFFFF" transform="translate(0,0)"/>
<path d="" fill="#FFFFFF" transform="translate(0,0)"/>
<path d="" fill="#FFFFFF" transform="translate(0,0)"/>
<path d="" fill="#FFFFFF" transform="translate(0,0)"/>
<path d="" fill="#FFFFFF" transform="translate(0,0)"/>
<path d="" fill="#FFFFFF" transform="translate(0,0)"/>
<path d="" fill="#FFFFFF" transform="translate(0,0)"/>
<path d="" fill="#FFFFFF" transform="translate(0,0)"/>
<path d="" fill="#FFFFFF" transform="translate(0,0)"/>
<path d="" fill="#FFFFFF" transform="translate(0,0)"/>
<path d="" fill="#FFFFFF" transform="translate(0,0)"/>
<path d="" fill="#FFFFFF" transform="translate(0,0)"/>
<path d="" fill="#FFFFFF" transform="translate(0,0)"/>
<path d="" fill="#FFFFFF" transform="translate(0,0)"/>
<path d="" fill="#FFFFFF" transform="translate(0,0)"/>
<path d="" fill="#FFFFFF" transform="translate(0,0)"/>
<path d="" fill="#FFFFFF" transform="translate(0,0)"/>
<path d="" fill="#FFFFFF" transform="translate(0,0)"/>
<path d="" fill="#FFFFFF" transform="translate(0,0)"/>
<path d="" fill="#FFFFFF" transform="translate(0,0)"/>
<path d="" fill="#FFFFFF" transform="translate(0,0)"/>
<path d="" fill="#FFFFFF" transform="translate(0,0)"/>
<path d="" fill="#FFFFFF" transform="translate(0,0)"/>
<path d="" fill="#FFFFFF" transform="translate(0,0)"/>
<path d="" fill="#FFFFFF" transform="translate(0,0)"/>
<path d="" fill="#FFFFFF" transform="translate(0,0)"/>
<path d="" fill="#FFFFFF" transform="translate(0,0)"/>
<path d="" fill="#FFFFFF" transform="translate(0,0)"/>
<path d="" fill="#FFFFFF" transform="translate(0,0)"/>
<path d="" fill="#FFFFFF" transform="translate(0,0)"/>
<path d="" fill="#FFFFFF" transform="translate(0,0)"/>
<path d="" fill="#FFFFFF" transform="translate(0,0)"/>
<path d="" fill="#FFFFFF" transform="translate(0,0)"/>
<path d="" fill="#FFFFFF" transform="translate(0,0)"/>
<path d="" fill="#FFFFFF" transform="translate(0,0)"/>
<path d="" fill="#FFFFFF" transform="translate(0,0)"/>
<path d="" fill="#FFFFFF" transform="translate(0,0)"/>
<path d="" fill="#FFFFFF" transform="translate(0,0)"/>
<path d="" fill="#FFFFFF" transform="translate(0,0)"/>
<path d="" fill="#FFFFFF" transform="translate(0,0)"/>
<path d="" fill="#FFFFFF" transform="translate(0,0)"/>
<path d="" fill="#FFFFFF" transform="translate(0,0)"/>
<path d="" fill="#FFFFFF" transform="translate(0,0)"/>
<path d="" fill="#FFFFFF" transform="translate(0,0)"/>
<path d="" fill="#FFFFFF" transform="translate(0,0)"/>
<path d="" fill="#FFFFFF" transform="translate(0,0)"/>
<path d="" fill="#FFFFFF" transform="translate(0,0)"/>
<path d="" fill="#FFFFFF" transform="translate(0,0)"/>
<path d="" fill="#FFFFFF" transform="translate(0,0)"/>
<path d="" fill="#FFFFFF" transform="translate(0,0)"/>
<path d="" fill="#FFFFFF" transform="translate(0,0)"/>
<path d="" fill="#FFFFFF" transform="translate(0,0)"/>
</svg>
