<?xml version="1.0" encoding="UTF-8"?>
<svg version="1.1" xmlns="http://www.w3.org/2000/svg" width="500" height="500">
<path d="M0 0 C0.66 0 1.32 0 2 0 C5 4.38461538 5 4.38461538 5 7 C5.66 7 6.32 7 7 7 C8.26953125 8.921875 8.26953125 8.921875 9.8125 11.75 C13.02018774 17.40478973 16.44155107 22.87199365 20 28.3125 C20.54688477 29.14894043 21.09376953 29.98538086 21.65722656 30.84716797 C22.81869255 32.62113354 23.98099071 34.39455449 25.14404297 36.16748047 C27.11281481 39.17217541 29.07477115 42.18123329 31.03515625 45.19140625 C34.90890555 51.13948692 34.90890555 51.13948692 38.78515625 57.0859375 C39.62071045 58.37129395 39.62071045 58.37129395 40.47314453 59.68261719 C41.76206572 61.63887557 43.08911122 63.5585677 44.43359375 65.4765625 C46 68 46 68 46 71 C46.66 71 47.32 71 48 71 C49.06225586 72.38256836 49.06225586 72.38256836 50.21484375 74.33984375 C50.64764648 75.06389404 51.08044922 75.78794434 51.52636719 76.53393555 C51.99204102 77.32711182 52.45771484 78.12028809 52.9375 78.9375 C53.93959626 80.61046051 54.943546 82.282312 55.94921875 83.953125 C56.4601709 84.80326172 56.97112305 85.65339844 57.49755859 86.52929688 C59.68386843 90.12459351 61.95424681 93.66137396 64.25 97.1875 C64.69126221 97.86586914 65.13252441 98.54423828 65.5871582 99.24316406 C67.05597204 101.49684222 68.52790992 103.74846062 70 106 C71.88630893 108.89036159 73.77200827 111.7811204 75.65771484 114.671875 C76.96765788 116.67986909 78.27787859 118.68768207 79.58837891 120.6953125 C83.65092654 126.92143915 87.68594145 133.16388328 91.69921875 139.421875 C94.59806035 143.93610161 97.51677955 148.43740828 100.4375 152.9375 C100.98768799 153.78650879 101.53787598 154.63551758 102.10473633 155.51025391 C104.7191937 159.53445634 107.35336725 163.54129464 110.0546875 167.5078125 C110.52205322 168.19625244 110.98941895 168.88469238 111.47094727 169.59399414 C112.3428944 170.87343177 113.22068459 172.14891363 114.10522461 173.41967773 C117 177.66927356 117 177.66927356 117 181 C117.66 181 118.32 181 119 181 C120.5859375 183.16015625 120.5859375 183.16015625 122.375 186.0625 C122.96023438 187.00222656 123.54546875 187.94195312 124.1484375 188.91015625 C125.38164014 190.96809568 126.57868805 193.0481406 127.73828125 195.1484375 C129.56983198 198.38071634 131.61562686 201.43397151 133.70703125 204.50390625 C134.37541016 205.49197266 135.04378906 206.48003906 135.73242188 207.49804688 C137.12713827 209.55279808 138.53356386 211.59964665 139.95117188 213.63867188 C140.61310547 214.62544922 141.27503906 215.61222656 141.95703125 216.62890625 C142.56522705 217.51650635 143.17342285 218.40410645 143.80004883 219.31860352 C145.32323485 222.72229672 145.01045081 224.45004067 144 228 C143.00708008 230.09204102 143.00708008 230.09204102 141.76953125 232.00390625 C141.30264893 232.73480469 140.8357666 233.46570313 140.35473633 234.21875 C139.84579834 234.9921875 139.33686035 235.765625 138.8125 236.5625 C138.28873779 237.37589844 137.76497559 238.18929687 137.2253418 239.02734375 C132.39724473 246.4903016 127.44899535 253.87764419 122.45825195 261.23266602 C121.89066162 262.07369873 121.32307129 262.91473145 120.73828125 263.78125 C120.23337158 264.52439453 119.72846191 265.26753906 119.20825195 266.03320312 C117.84577882 268.08410434 117.84577882 268.08410434 117 271 C116.34 271 115.68 271 115 271 C114.731875 271.70125 114.46375 272.4025 114.1875 273.125 C112.9318551 276.1649824 111.49764877 279.0727774 110 282 C109.34 282 108.68 282 108 282 C107.76152344 282.84949219 107.52304687 283.69898438 107.27734375 284.57421875 C105.85393033 288.39175259 103.87274134 291.49656655 101.5625 294.8125 C100.652524 296.14767361 99.74371171 297.48364093 98.8359375 298.8203125 C98.36639648 299.50899414 97.89685547 300.19767578 97.41308594 300.90722656 C95.12109024 304.30166111 92.90400004 307.74347459 90.6875 311.1875 C87.67826727 315.85662594 84.66312347 320.52147465 81.625 325.171875 C81.05305908 326.0481958 80.48111816 326.9245166 79.8918457 327.82739258 C78.79284398 329.51045052 77.69251961 331.1926459 76.59057617 332.8737793 C73.47010812 337.65711863 70.48507159 342.5012367 67.56469727 347.40893555 C64.17082029 353.02903484 60.58230633 358.52866943 57.03515625 364.05273438 C53.88977094 368.96954039 50.83660581 373.89834328 48 379 C47.34 379 46.68 379 46 379 C45.72671875 379.72703125 45.4534375 380.4540625 45.171875 381.203125 C42.25399099 388.16714151 37.75711069 394.44419807 33.546875 400.68359375 C31.93263313 403.10088019 30.36800399 405.54452585 28.8125 408 C25.71239593 412.89127531 22.58190877 417.76214142 19.4375 422.625 C18.96304443 423.35928223 18.48858887 424.09356445 17.99975586 424.85009766 C15.06391337 429.38447392 12.08920231 433.88792035 9.0234375 438.3359375 C7.82685744 440.14004541 7.82685744 440.14004541 7 443 C6.34 443 5.68 443 5 443 C4.690625 443.78375 4.38125 444.5675 4.0625 445.375 C3 448 3 448 2 450 C1.34 450 0.68 450 0 450 C-1.7265625 447.91796875 -1.7265625 447.91796875 -3.625 445.1875 C-4.25664062 444.29417969 -4.88828125 443.40085937 -5.5390625 442.48046875 C-7 440 -7 440 -7 437 C-7.66 437 -8.32 437 -9 437 C-10.2890625 435.35546875 -10.2890625 435.35546875 -11.625 433.1875 C-12.07101563 432.47980469 -12.51703125 431.77210938 -12.9765625 431.04296875 C-14 429 -14 429 -14 426 C-14.66 426 -15.32 426 -16 426 C-17.0859375 424.48046875 -17.0859375 424.48046875 -18.375 422.1875 C-21.39283808 416.99093004 -24.54116987 411.89238732 -27.75 406.8125 C-28.52077881 405.58889771 -28.52077881 405.58889771 -29.30712891 404.34057617 C-31.81932059 400.37121943 -34.3632846 396.43090327 -37 392.54296875 C-37.46438477 391.85807373 -37.92876953 391.17317871 -38.40722656 390.4675293 C-39.28282328 389.1845413 -40.16470932 387.90581629 -41.05371094 386.63208008 C-44 382.32535605 -44 382.32535605 -44 379 C-44.66 379 -45.32 379 -46 379 C-46 378.01 -46 377.02 -46 376 C-46.66 376 -47.32 376 -48 376 C-49.30511936 374.11282741 -50.51781844 372.16148126 -51.6875 370.1875 C-52.40810754 368.98522926 -53.12947416 367.7834132 -53.8515625 366.58203125 C-54.21282227 365.97697754 -54.57408203 365.37192383 -54.94628906 364.74853516 C-56.44358371 362.26391415 -57.99941624 359.81864452 -59.5625 357.375 C-60.13613281 356.4778125 -60.70976562 355.580625 -61.30078125 354.65625 C-61.86152344 353.7796875 -62.42226562 352.903125 -63 352 C-64.0834709 350.29175391 -65.16680094 348.58341847 -66.25 346.875 C-69.16263047 342.29616408 -72.10938076 337.74024754 -75.0625 333.1875 C-83.03516633 320.88741268 -90.95376725 308.54812416 -98.67382812 296.08764648 C-104.93656558 285.98052281 -111.47641471 276.05548243 -117.99609375 266.11328125 C-121.74687179 260.39253844 -125.46828177 254.65451388 -129.15234375 248.890625 C-130.38714505 246.95880055 -131.6293869 245.03171247 -132.87890625 243.109375 C-134.04876222 241.30026728 -135.20232974 239.48047657 -136.3359375 237.6484375 C-137.49409901 235.80516637 -138.71314292 233.99934492 -139.9765625 232.2265625 C-141.79049526 229.47092848 -143.12714601 227.18334986 -144 224 C-142.96421553 220.0283933 -140.46660488 217.22141293 -138 214 C-136.94160466 212.31261543 -135.88477044 210.62407378 -134.8527832 208.92041016 C-128.28796413 198.10145628 -121.22602519 187.58560237 -114.28404236 177.00698853 C-108.16745941 167.68563717 -102.07923403 158.34574297 -96 149 C-95.50935059 148.24605957 -95.01870117 147.49211914 -94.51318359 146.71533203 C-93.23534724 144.74939507 -91.96062002 142.78149344 -90.6875 140.8125 C-90.01074219 139.76707031 -89.33398438 138.72164062 -88.63671875 137.64453125 C-87.28884471 135.46670135 -86.08852357 133.31518464 -85 131 C-84.34 131 -83.68 131 -83 131 C-82.9175 130.484375 -82.835 129.96875 -82.75 129.4375 C-81.67859775 125.95544268 -79.86476395 123.12799115 -78 120 C-77.34 120 -76.68 120 -76 120 C-75.89131592 119.42709229 -75.78263184 118.85418457 -75.6706543 118.26391602 C-74.90885195 115.69231312 -73.80229393 113.97406357 -72.26953125 111.77734375 C-70.25565613 108.84006827 -68.27555744 105.89829073 -66.38671875 102.87890625 C-65.95230469 102.18474609 -65.51789063 101.49058594 -65.0703125 100.77539062 C-64.61398438 100.04513672 -64.15765625 99.31488281 -63.6875 98.5625 C-58.71724965 90.64715272 -53.62891145 82.81325865 -48.5 75 C-42.07131294 65.20323917 -35.75287385 55.34587279 -29.52294922 45.421875 C-21.18671996 32.16515902 -12.75465803 18.98443663 -4 6 C-3.64067383 5.42765625 -3.28134766 4.8553125 -2.91113281 4.265625 C-1.98962741 2.81159989 -1.00016837 1.40107974 0 0 Z M0 46 C-1.38804526 47.69221996 -1.38804526 47.69221996 -2.7578125 49.91796875 C-3.29768799 50.75473145 -3.83756348 51.59149414 -4.39379883 52.45361328 C-4.96509521 53.3557959 -5.5363916 54.25797852 -6.125 55.1875 C-6.70596436 56.09483887 -7.28692871 57.00217773 -7.88549805 57.93701172 C-9.59861964 60.61951523 -11.30074215 63.30869874 -13 66 C-13.68908447 67.08450439 -13.68908447 67.08450439 -14.39208984 68.19091797 C-18.89362625 74.22877542 -18.89362625 74.22877542 -21 81 C-21.66 81 -22.32 81 -23 81 C-23.83848804 82.45537568 -24.67063934 83.91440373 -25.5 85.375 C-25.9640625 86.18710938 -26.428125 86.99921875 -26.90625 87.8359375 C-28.15035859 89.89336874 -28.15035859 89.89336874 -28 92 C-28.66 92 -29.32 92 -30 92 C-30.66 93.11375 -31.32 94.2275 -32 95.375 C-32.37125 96.00148437 -32.7425 96.62796875 -33.125 97.2734375 C-34.15068348 98.97472667 -34.15068348 98.97472667 -34 101 C-34.66 101 -35.32 101 -36 101 C-37.4606285 103.64738916 -38 104.89448334 -38 108 C-12.26 108 13.48 108 40 108 C39.0816323 104.32652921 38.1301794 102.06745834 36 99 C35.34 99 34.68 99 34 99 C33.87488037 98.40936768 33.74976074 97.81873535 33.62084961 97.21020508 C32.62706335 93.67235726 30.52707859 90.75644057 28.5625 87.6875 C27.89359741 86.63006592 27.89359741 86.63006592 27.21118164 85.55126953 C23.78387692 80.15974682 20.26010585 74.83486286 16.69946289 69.53076172 C13.75921742 65.15033669 10.86031807 60.74555565 8 56.3125 C7.43913696 55.44794189 7.43913696 55.44794189 6.86694336 54.56591797 C5.07509769 51.77878687 3.40319921 49.00372331 2 46 C1.34 46 0.68 46 0 46 Z M-58.59835815 135.33737183 C-60.08948918 138.16999808 -61.1399922 140.91830538 -62 144 C-62.66 144 -63.32 144 -64 144 C-65.06531241 145.62569593 -66.05368827 147.30227449 -67 149 C-67.52980469 149.85980469 -68.05960938 150.71960938 -68.60546875 151.60546875 C-69.12753906 152.45753906 -69.64960938 153.30960938 -70.1875 154.1875 C-70.71730469 155.04730469 -71.24710938 155.90710938 -71.79296875 156.79296875 C-73.15994367 158.87319797 -73.15994367 158.87319797 -73 161 C-73.66 161 -74.32 161 -75 161 C-76.5513716 163.30338834 -76.5513716 163.30338834 -78.125 166.25 C-81.32137478 171.91599487 -84.79347911 177.24787681 -88.49609375 182.6015625 C-90.17707956 184.81058362 -90.17707956 184.81058362 -90 187 C-90.66 187 -91.32 187 -92 187 C-92.29390625 187.58523437 -92.5878125 188.17046875 -92.890625 188.7734375 C-97.11011677 196.84867175 -102.09767867 204.32227607 -107.1953125 211.86328125 C-107.67129883 212.57436035 -108.14728516 213.28543945 -108.63769531 214.01806641 C-109.8452496 215.77486313 -111.13233365 217.47640288 -112.4296875 219.16796875 C-114.24558919 221.89815141 -114.24558919 221.89815141 -113.984375 225.00390625 C-112.85225093 228.44969659 -111.32741845 230.96585444 -109.25 233.9375 C-108.528125 234.98292969 -107.80625 236.02835937 -107.0625 237.10546875 C-105.4748301 239.33361912 -103.87111557 241.54629602 -102.25 243.75 C-99.73544286 247.38213809 -97.8890478 251.01201021 -96 255 C-95.34 255 -94.68 255 -94 255 C-93.814375 255.78375 -93.62875 256.5675 -93.4375 257.375 C-91.84108315 261.40074683 -89.72517002 264.33640262 -87.1953125 267.82421875 C-84.44183187 271.80745674 -81.94116328 275.91920596 -79.4375 280.0625 C-76.23442919 285.35345463 -73.01584599 290.60426712 -69.53515625 295.71875 C-67.41634228 298.86731834 -65.36467761 302.05772372 -63.3125 305.25 C-62.9314209 305.84135742 -62.5503418 306.43271484 -62.15771484 307.04199219 C-59.03436896 311.90542888 -59.03436896 311.90542888 -58.03448486 314.65675354 C-55.60243136 317.45790526 -54.97308623 317.40000401 -51.39642334 317.66856384 C-49.39718571 317.71368795 -47.39720295 317.73069704 -45.39746094 317.72631836 C-44.30611343 317.74311142 -43.21476593 317.75990448 -42.09034729 317.77720642 C-38.47140275 317.82481973 -34.85361353 317.834475 -31.234375 317.83984375 C-28.72193927 317.85590486 -26.20950829 317.87272508 -23.69708252 317.89027405 C-18.42444348 317.92024811 -13.1520983 317.92968595 -7.87939453 317.92651367 C-1.79429653 317.92351337 4.28857979 317.97618863 10.37311578 318.05523199 C16.23426699 318.12864707 22.09454349 318.14644982 27.95610809 318.14346504 C30.44564628 318.1493641 32.935201 318.17147491 35.42444611 318.21012688 C38.91145692 318.2591921 42.39277824 318.24473431 45.87988281 318.21459961 C47.42001289 318.25674591 47.42001289 318.25674591 48.99125671 318.29974365 C53.38619758 318.20333748 55.95733616 318.04769192 59.14017487 314.84950447 C60.94492663 312.30148989 62.4938757 309.73308589 64 307 C64.95299714 305.50578364 65.91368418 304.01640228 66.88671875 302.53515625 C67.82278972 301.04582494 68.75631946 299.55489385 69.6875 298.0625 C70.73173733 296.39971854 71.77600916 294.73695875 72.8203125 293.07421875 C73.34657227 292.2342334 73.87283203 291.39424805 74.41503906 290.52880859 C82.05764072 278.33502117 89.77807737 266.19502055 97.61914062 254.12792969 C99.0565576 251.9128437 100.48977132 249.69508699 101.921875 247.4765625 C102.40293701 246.73196777 102.88399902 245.98737305 103.37963867 245.22021484 C104.32157869 243.76068127 105.26189483 242.30009818 106.20043945 240.83837891 C109.05356353 236.40760821 112.00294105 232.07301245 115.171875 227.859375 C116.412606 225.07358275 116.0251359 223.88827972 115 221 C113.31486774 218.18301809 111.42263054 215.53375104 109.5 212.875 C108.48639921 211.45800142 107.47584731 210.03881563 106.46875 208.6171875 C106.01951172 207.99440918 105.57027344 207.37163086 105.10742188 206.72998047 C104 205 104 205 103 202 C102.34 202 101.68 202 101 202 C100.5978125 200.948125 100.5978125 200.948125 100.1875 199.875 C98.9318551 196.8350176 97.49764877 193.9272226 96 191 C95.34 191 94.68 191 94 191 C93.84180786 190.15381104 93.84180786 190.15381104 93.68041992 189.29052734 C92.87943306 186.59413025 91.67174883 184.69361318 90.11328125 182.3515625 C89.5112085 181.43906738 88.90913574 180.52657227 88.28881836 179.58642578 C87.31054077 178.12052002 87.31054077 178.12052002 86.3125 176.625 C84.94419062 174.5528237 83.57703221 172.479887 82.2109375 170.40625 C81.51194336 169.34664062 80.81294922 168.28703125 80.09277344 167.1953125 C76.24531337 161.3208891 72.49707719 155.38359522 68.74536133 149.44775391 C68.20935303 148.60132324 67.67334473 147.75489258 67.12109375 146.8828125 C66.6614624 146.15465332 66.20183105 145.42649414 65.72827148 144.67626953 C65.15794189 143.79310059 64.5876123 142.90993164 64 142 C63.63975329 141.27683971 63.27950659 140.55367943 62.90834332 139.80860519 C60.25433951 134.92767726 60.25433951 134.92767726 55.643466 132.16600609 C52.70193076 131.85491957 49.87486803 131.82912452 46.91748047 131.89892578 C45.81112244 131.88958008 44.7047644 131.88023437 43.56488037 131.87060547 C39.91419931 131.85141083 36.2675516 131.89703154 32.6171875 131.9453125 C30.07944041 131.94940821 27.54168614 131.9502477 25.00393677 131.94796753 C19.68902866 131.95274731 14.37552047 131.98692591 9.06103516 132.04638672 C2.92015509 132.11479719 -3.21932538 132.13405191 -9.36054909 132.1256181 C-15.27565636 132.11808903 -21.19035356 132.13949486 -27.10537338 132.17516708 C-29.61960171 132.18857569 -32.13387213 132.1956281 -34.64813614 132.19626236 C-38.15826773 132.20238577 -41.66649865 132.24121972 -45.17626953 132.28955078 C-46.21844635 132.28571381 -47.26062317 132.28187683 -48.3343811 132.27792358 C-54.00566476 132.30352077 -54.00566476 132.30352077 -58.59835815 135.33737183 Z M-37 343 C-37 346.58252304 -36.16084169 347.62411766 -34.19140625 350.5625 C-33.60939453 351.44164062 -33.02738281 352.32078125 -32.42773438 353.2265625 C-31.81220703 354.14179688 -31.19667969 355.05703125 -30.5625 356 C-29.35250829 357.810525 -28.1453452 359.62294449 -26.94140625 361.4375 C-26.13231812 362.64212891 -26.13231812 362.64212891 -25.30688477 363.87109375 C-24 366 -24 366 -23 369 C-22.34 369 -21.68 369 -21 369 C-20.76410156 369.67160156 -20.52820313 370.34320313 -20.28515625 371.03515625 C-18.67488837 374.75002956 -16.61131293 378.0299905 -14.4375 381.4375 C-13.77911133 382.47680664 -13.77911133 382.47680664 -13.10742188 383.53710938 C-12.19556518 384.97488629 -11.28197353 386.41156426 -10.36669922 387.84716797 C-9.03552028 389.94404826 -7.72096739 392.05049892 -6.41015625 394.16015625 C-5.60712256 395.44032487 -4.8037524 396.7202825 -4 398 C-3.62673584 398.60513428 -3.25347168 399.21026855 -2.86889648 399.83374023 C-1.96604183 401.25781766 -0.98972255 402.63486545 0 404 C0.66 404 1.32 404 2 404 C2.55429688 403.01 3.10859375 402.02 3.6796875 401 C6.02079426 396.90563243 8.5503024 392.95040962 11.125 389 C11.60074463 388.26668457 12.07648926 387.53336914 12.56665039 386.77783203 C16.20830592 381.17834251 19.90163193 375.61400225 23.65087891 370.0859375 C25.60656309 367.18251771 27.45324543 364.25953368 29.17578125 361.2109375 C31 358 31 358 32.75 355.75 C34.2906191 353.95156348 34.2906191 353.95156348 34 351 C34.66 351 35.32 351 36 351 C38.96235695 347.36676311 38.96235695 347.36676311 40 343 C14.59 343 -10.82 343 -37 343 Z " fill="#209F3F" transform="translate(249,24)"/>
<path d="M0 0 C0.66 0 1.32 0 2 0 C2 0.66 2 1.32 2 2 C27.74 2 53.48 2 80 2 C80.33 1.34 80.66 0.68 81 0 C81.5625 1.9375 81.5625 1.9375 82 4 C78.78737381 7.21262619 69.98989535 6.07310525 65.82128906 6.08520508 C62.96924766 6.07476493 60.11752472 6.04925265 57.265625 6.01953125 C56.14224857 6.0090957 56.14224857 6.0090957 54.99617767 5.99844933 C51.04277014 5.96125453 47.08950333 5.91733949 43.13623047 5.86791992 C39.05865805 5.81831169 34.98128323 5.79230014 30.90347672 5.77148914 C27.75829909 5.75113535 24.61350635 5.71327245 21.46855927 5.6706295 C19.96474053 5.65330521 18.46083023 5.64259808 16.95691681 5.63868141 C14.85761714 5.6316036 12.76007038 5.59970992 10.66113281 5.56176758 C9.46836731 5.54986893 8.27560181 5.53797028 7.04669189 5.52571106 C3.43352886 4.90225459 2.22722513 3.85124216 0 1 C0 0.67 0 0.34 0 0 Z " fill="#5CB573" transform="translate(209,130)"/>
<path d="M0 0 C0.76455505 0.16298584 1.52911011 0.32597168 2.3168335 0.49389648 C7.20682003 1.16582901 12.00085844 1.12256309 16.93066406 1.09765625 C18.02072754 1.09619598 19.11079102 1.09473572 20.23388672 1.0932312 C22.59432683 1.08943308 24.95476411 1.08332483 27.31519318 1.07516479 C31.04637726 1.06239475 34.77752579 1.05588435 38.50872803 1.05102539 C46.42250052 1.03960448 54.33624682 1.02039196 62.25 1 C71.43315993 0.97636707 80.61630724 0.95604416 89.79949188 0.94406128 C93.48339551 0.93755691 97.1672485 0.92505146 100.85113525 0.91235352 C103.0963944 0.90872298 105.34165402 0.905371 107.58691406 0.90234375 C108.61757996 0.89717743 109.64824585 0.89201111 110.71014404 0.88668823 C111.64660767 0.88661774 112.58307129 0.88654724 113.5479126 0.88647461 C114.77234762 0.88314369 114.77234762 0.88314369 116.02151871 0.87974548 C118 1 118 1 120 2 C120 2.66 120 3.32 120 4 C120.99 4.495 120.99 4.495 122 5 C121.01 5 120.02 5 119 5 C119 4.34 119 3.68 119 3 C104.23974312 2.89692587 89.48023113 2.85107514 74.71961021 2.87302971 C67.86558466 2.88189534 61.01253521 2.87215659 54.15869141 2.81835938 C47.54475942 2.76649783 40.93215786 2.76682667 34.31801224 2.79904556 C31.79421147 2.80279806 29.27032216 2.78903186 26.74671555 2.75750351 C23.2113111 2.71632136 19.68134488 2.73732249 16.14599609 2.77294922 C15.10158356 2.7463472 14.05717102 2.71974518 12.98110962 2.69233704 C9.99472606 2.76074352 7.78176467 2.900758 5 4 C2.32466054 7.05709125 0.59720909 10.27980343 -1 14 C-2.0625 12.125 -2.0625 12.125 -3 10 C-2 8 -2 8 -1 7 C-0.63239269 4.67182036 -0.29758419 2.3381615 0 0 Z " fill="#519C64" transform="translate(188,154)"/>
<path d="M0 0 C0.66 0 1.32 0 2 0 C2 0.66 2 1.32 2 2 C3.98 2 5.96 2 8 2 C8 3.32 8 4.64 8 6 C8.33 6.99 8.66 7.98 9 9 C9.763125 8.484375 10.52625 7.96875 11.3125 7.4375 C12.199375 6.963125 13.08625 6.48875 14 6 C14.99 6.33 15.98 6.66 17 7 C17 7.66 17 8.32 17 9 C16.34 9 15.68 9 15 9 C14.690625 9.78375 14.38125 10.5675 14.0625 11.375 C13 14 13 14 12 16 C11.34 16 10.68 16 10 16 C8.2734375 13.91796875 8.2734375 13.91796875 6.375 11.1875 C5.42753906 9.84751953 5.42753906 9.84751953 4.4609375 8.48046875 C3 6 3 6 3 3 C2.34 3 1.68 3 1 3 C0.67 2.01 0.34 1.02 0 0 Z " fill="#44A85C" transform="translate(239,458)"/>
<path d="M0 0 C1.65 0.33 3.3 0.66 5 1 C2.36 5.62 -0.28 10.24 -3 15 C-3.66 15 -4.32 15 -5 15 C-5.28875 15.969375 -5.5775 16.93875 -5.875 17.9375 C-7 21 -7 21 -9 22 C-8.67 20.02 -8.34 18.04 -8 16 C-7.34 16 -6.68 16 -6 16 C-6.33 14.02 -6.66 12.04 -7 10 C-6.34 10 -5.68 10 -5 10 C-4.34 8.68 -3.68 7.36 -3 6 C-2.01 6 -1.02 6 0 6 C-0.185625 5.38125 -0.37125 4.7625 -0.5625 4.125 C-1 2 -1 2 0 0 Z " fill="#41A85E" transform="translate(179,170)"/>
<path d="M0 0 C1.98 0.66 3.96 1.32 6 2 C5.01 3.485 5.01 3.485 4 5 C4 6.32 4 7.64 4 9 C4.66 9.33 5.32 9.66 6 10 C6 11.65 6 13.3 6 15 C1.57142857 9.85714286 1.57142857 9.85714286 1 6 C0.34 6 -0.32 6 -1 6 C-1.26683594 6.72574219 -1.53367188 7.45148438 -1.80859375 8.19921875 C-2.99364672 10.98506458 -4.37139441 13.30700449 -6.0625 15.8125 C-6.58972656 16.60269531 -7.11695313 17.39289063 -7.66015625 18.20703125 C-8.10230469 18.79871094 -8.54445312 19.39039062 -9 20 C-9.33 20 -9.66 20 -10 20 C-10 18.35 -10 16.7 -10 15 C-9.34 15 -8.68 15 -8 15 C-7.690625 14.21625 -7.38125 13.4325 -7.0625 12.625 C-6 10 -6 10 -5 8 C-4.34 8 -3.68 8 -3 8 C-2.87625 7.4225 -2.7525 6.845 -2.625 6.25 C-1.99351176 3.97664233 -1.11141809 2.0746471 0 0 Z " fill="#59B274" transform="translate(250,64)"/>
<path d="M0 0 C1 3 1 3 -0.375 5.8125 C-0.91125 6.864375 -1.4475 7.91625 -2 9 C-3.11948107 13.30569641 -3.10183938 15.16723407 -1 19 C-0.875 21.75 -0.875 21.75 -1 24 C-4.35022479 20.80605392 -7.20614335 17.68454023 -8 13 C-6.56103516 9.24424622 -4.40152087 6.20392476 -2 3 C-1.34 2.01 -0.68 1.02 0 0 Z " fill="#49AB64" transform="translate(113,235)"/>
<path d="M0 0 C2.1519437 3.22791555 2.20086443 4.28400809 2 8 C1.01 7.67 0.02 7.34 -1 7 C-1.99 8.98 -2.98 10.96 -4 13 C-4.66 13 -5.32 13 -6 13 C-6 13.99 -6 14.98 -6 16 C-6.66 16 -7.32 16 -8 16 C-8.2475 16.969375 -8.495 17.93875 -8.75 18.9375 C-9.1625 19.948125 -9.575 20.95875 -10 22 C-12.078125 22.69140625 -12.078125 22.69140625 -14 23 C-9.80418207 15.03005438 -4.91905781 7.53398179 0 0 Z " fill="#4CAD67" transform="translate(350,271)"/>
<path d="M0 0 C3.82350061 3.39866721 6.71296575 7.43530459 9 12 C9 12.99 9 13.98 9 15 C9.66 15 10.32 15 11 15 C12.6875 17.375 12.6875 17.375 14 20 C13.67 20.66 13.34 21.32 13 22 C10.5 19.6875 10.5 19.6875 8 17 C8 16.01 8 15.02 8 14 C7.34 14 6.68 14 6 14 C5.67 13.34 5.34 12.68 5 12 C4.01 11.34 3.02 10.68 2 10 C2 9.01 2 8.02 2 7 C1.34 7 0.68 7 0 7 C0 4.69 0 2.38 0 0 Z " fill="#5CB371" transform="translate(217,378)"/>
<path d="M0 0 C0.99 1.32 1.98 2.64 3 4 C2.525625 4.391875 2.05125 4.78375 1.5625 5.1875 C-0.35179633 7.40808374 -0.61266988 9.13375709 -1 12 C-5.7289347 12.99440216 -10.09270118 12.96565891 -14.875 12.5625 C-15.56335938 12.51029297 -16.25171875 12.45808594 -16.9609375 12.40429688 C-18.64112758 12.27594902 -20.32064749 12.13887775 -22 12 C-22 11.67 -22 11.34 -22 11 C-13.585 10.505 -13.585 10.505 -5 10 C-4.01 7.69 -3.02 5.38 -2 3 C-1.34 2.01 -0.68 1.02 0 0 Z " fill="#28903F" transform="translate(312,331)"/>
<path d="M0 0 C0.33 0.66 0.66 1.32 1 2 C0.07421875 3.9453125 0.07421875 3.9453125 -1.3125 6.125 C-1.76238281 6.84945312 -2.21226562 7.57390625 -2.67578125 8.3203125 C-3.11277344 8.87460938 -3.54976562 9.42890625 -4 10 C-4.66 10 -5.32 10 -6 10 C-6.10183594 10.55171875 -6.20367187 11.1034375 -6.30859375 11.671875 C-7.15504596 14.52207567 -8.50020034 16.72372821 -10.0625 19.25 C-10.61035156 20.14203125 -11.15820312 21.0340625 -11.72265625 21.953125 C-12.14417969 22.62859375 -12.56570312 23.3040625 -13 24 C-13.66 22.68 -14.32 21.36 -15 20 C-14.01 18.515 -14.01 18.515 -13 17 C-12.34 17 -11.68 17 -11 17 C-10.8453125 16.0409375 -10.8453125 16.0409375 -10.6875 15.0625 C-10.460625 14.381875 -10.23375 13.70125 -10 13 C-9.01 12.67 -8.02 12.34 -7 12 C-7 10.35 -7 8.7 -7 7 C-6.01 7 -5.02 7 -4 7 C-3.896875 6.21625 -3.79375 5.4325 -3.6875 4.625 C-3 2 -3 2 0 0 Z " fill="#50AB69" transform="translate(163,201)"/>
<path d="M0 0 C0.66 0.33 1.32 0.66 2 1 C1.65978064 7.29921303 -1.59584909 11.68553037 -4.9375 16.8125 C-5.76411133 18.11864258 -5.76411133 18.11864258 -6.60742188 19.45117188 C-10.71773702 25.85886851 -10.71773702 25.85886851 -13 27 C-12.47731534 24.23723823 -11.89130413 21.6739124 -11 19 C-10.01 19 -9.02 19 -8 19 C-8.061875 17.8553125 -8.061875 17.8553125 -8.125 16.6875 C-8 14 -8 14 -6 11 C-5.01 11 -4.02 11 -3 11 C-3 10.01 -3 9.02 -3 8 C-2.34 8 -1.68 8 -1 8 C-1.33 7.01 -1.66 6.02 -2 5 C-1.34 5 -0.68 5 0 5 C0 3.35 0 1.7 0 0 Z " fill="#5BB475" transform="translate(392,245)"/>
<path d="M0 0 C1 2 1 2 0.25 4.9375 C-1 8 -1 8 -2.6875 9.5 C-3.120625 9.995 -3.55375 10.49 -4 11 C-3.76716851 14.14921909 -3.76716851 14.14921909 -3 17 C-3.99 17.66 -4.98 18.32 -6 19 C-6 18.34 -6 17.68 -6 17 C-7.98 17.99 -9.96 18.98 -12 20 C-10.68665334 16.05996002 -8.74592429 13.13725288 -6.3046875 9.84375 C-4.30665413 7.02018188 -2.68920766 4.01644225 -1 1 C-0.67 0.67 -0.34 0.34 0 0 Z " fill="#3FA65C" transform="translate(280,381)"/>
<path d="M0 0 C-1.19899698 3.0831351 -2.47700477 6.06279492 -4 9 C-4.66 9 -5.32 9 -6 9 C-6.2475 9.9075 -6.495 10.815 -6.75 11.75 C-8.03981342 15.10351489 -9.31971042 16.67708236 -12 19 C-12 17.68 -12 16.36 -12 15 C-11.34 14.67 -10.68 14.34 -10 14 C-9.34786708 11.97536745 -9.34786708 11.97536745 -9 10 C-8.34 10 -7.68 10 -7 10 C-7.556875 8.8553125 -7.556875 8.8553125 -8.125 7.6875 C-8.41375 6.800625 -8.7025 5.91375 -9 5 C-6.6475912 1.47138681 -4.32053307 0 0 0 Z " fill="#53AD6B" transform="translate(363,297)"/>
<path d="M0 0 C2 1.8125 2 1.8125 4 4 C4 4.99 4 5.98 4 7 C4.66 7 5.32 7 6 7 C7.76171875 9.3359375 7.76171875 9.3359375 9.6875 12.375 C10.65236328 13.87160156 10.65236328 13.87160156 11.63671875 15.3984375 C12.08660156 16.25695312 12.53648437 17.11546875 13 18 C12.67 18.66 12.34 19.32 12 20 C8.41474283 17.37081141 5.94349654 15.50398572 4.3125 11.3125 C3.27274645 7.77073487 3.27274645 7.77073487 0 6 C-0.1875 2.875 -0.1875 2.875 0 0 Z " fill="#5CB473" transform="translate(362,198)"/>
<path d="M0 0 C1.80307617 0.00483398 1.80307617 0.00483398 3.64257812 0.00976562 C4.88845703 0.01814453 6.13433594 0.02652344 7.41796875 0.03515625 C8.68318359 0.03966797 9.94839844 0.04417969 11.25195312 0.04882812 C14.36983985 0.06059374 17.48763008 0.07703353 20.60546875 0.09765625 C20.60546875 0.42765625 20.60546875 0.75765625 20.60546875 1.09765625 C19.43975342 1.12738525 19.43975342 1.12738525 18.25048828 1.15771484 C14.74346184 1.25272634 11.23705081 1.36250184 7.73046875 1.47265625 C5.89548828 1.5190625 5.89548828 1.5190625 4.0234375 1.56640625 C2.85683594 1.60507812 1.69023437 1.64375 0.48828125 1.68359375 C-0.59050293 1.71501465 -1.66928711 1.74643555 -2.78076172 1.77880859 C-5.55214779 1.84441947 -5.55214779 1.84441947 -7.39453125 4.09765625 C-6.40453125 5.74765625 -5.41453125 7.39765625 -4.39453125 9.09765625 C-5.71453125 9.09765625 -7.03453125 9.09765625 -8.39453125 9.09765625 C-8.72453125 7.11765625 -9.05453125 5.13765625 -9.39453125 3.09765625 C-10.05453125 3.09765625 -10.71453125 3.09765625 -11.39453125 3.09765625 C-11.39453125 2.43765625 -11.39453125 1.77765625 -11.39453125 1.09765625 C-7.53246051 0.18948827 -3.96304469 -0.0187822 0 0 Z " fill="#2A9548" transform="translate(219.39453125,364.90234375)"/>
<path d="M0 0 C0.625 1.8125 0.625 1.8125 1 4 C0.01 5.485 0.01 5.485 -1 7 C-1.66 7 -2.32 7 -3 7 C-2.34 8.65 -1.68 10.3 -1 12 C-1.66 12 -2.32 12 -3 12 C-3.33 12.66 -3.66 13.32 -4 14 C-4.99 14 -5.98 14 -7 14 C-7 14.66 -7 15.32 -7 16 C-7.99 16.33 -8.98 16.66 -10 17 C-8.51364884 12.78345644 -6.38750841 9.37521395 -3.875 5.6875 C-3.15054688 4.61886719 -2.42609375 3.55023438 -1.6796875 2.44921875 C-0.84824219 1.23685547 -0.84824219 1.23685547 0 0 Z " fill="#55B36D" transform="translate(238,41)"/>
<path d="M0 0 C0.99 0 1.98 0 3 0 C1.37885498 4.79821659 -1.29276759 8.6672859 -4.125 12.8125 C-4.59292969 13.50537109 -5.06085938 14.19824219 -5.54296875 14.91210938 C-6.69112437 16.61091105 -7.84499367 18.30584864 -9 20 C-10 17 -10 17 -9.22265625 15.17578125 C-8.1484375 13.45052083 -7.07421875 11.72526042 -6 10 C-5.34 10 -4.68 10 -4 10 C-4 8.68 -4 7.36 -4 6 C-3.34 5.67 -2.68 5.34 -2 5 C-1.27840576 3.35636866 -0.60648579 1.68949614 0 0 Z " fill="#53AD6F" transform="translate(344,322)"/>
<path d="M0 0 C0.66 1.32 1.32 2.64 2 4 C1.505 4.556875 1.01 5.11375 0.5 5.6875 C-1.24754367 8.38162983 -1.26218749 9.85375007 -1 13 C-1.99 13 -2.98 13 -4 13 C-5.33981486 13.3062434 -6.67511887 13.63451555 -8 14 C-6.6744419 10.37723685 -5.05653045 7.36494652 -2.875 4.1875 C-2.33617187 3.39730469 -1.79734375 2.60710937 -1.2421875 1.79296875 C-0.83226562 1.20128906 -0.42234375 0.60960938 0 0 Z " fill="#37A053" transform="translate(207,89)"/>
<path d="M0 0 C1.0625 1.875 1.0625 1.875 2 4 C1.67 4.66 1.34 5.32 1 6 C0.01 6 -0.98 6 -2 6 C-1.67 6.99 -1.34 7.98 -1 9 C-2.28965176 10.37562854 -3.62689293 11.70766393 -5 13 C-5.66 13 -6.32 13 -7 13 C-7 13.99 -7 14.98 -7 16 C-7.99 16.33 -8.98 16.66 -10 17 C-8.51364884 12.78345644 -6.38750841 9.37521395 -3.875 5.6875 C-3.15054688 4.61886719 -2.42609375 3.55023438 -1.6796875 2.44921875 C-0.84824219 1.23685547 -0.84824219 1.23685547 0 0 Z " fill="#5EB87A" transform="translate(124,218)"/>
<path d="M0 0 C2.64 0.33 5.28 0.66 8 1 C8 4 8 4 6 7 C6.66 7.66 7.32 8.32 8 9 C7.625 11.125 7.625 11.125 7 13 C5.82786955 11.21190303 4.66244474 9.41940875 3.5 7.625 C2.8503125 6.62726563 2.200625 5.62953125 1.53125 4.6015625 C0 2 0 2 0 0 Z " fill="#31A34D" transform="translate(151,319)"/>
<path d="M0 0 C0.66 0 1.32 0 2 0 C5 4.38461538 5 4.38461538 5 7 C5.66 7 6.32 7 7 7 C7.66 8.98 8.32 10.96 9 13 C7.68 12.67 6.36 12.34 5 12 C4.87625 11.360625 4.7525 10.72125 4.625 10.0625 C4.41875 9.381875 4.2125 8.70125 4 8 C3.34 7.67 2.68 7.34 2 7 C2 6.34 2 5.68 2 5 C0.68 5 -0.64 5 -2 5 C-1.34 3.35 -0.68 1.7 0 0 Z " fill="#5EB273" transform="translate(249,24)"/>
<path d="M0 0 C0.66 0.99 1.32 1.98 2 3 C1.67 3.99 1.34 4.98 1 6 C1.96078383 9.03016439 2.73814546 10.73814546 5 13 C4.34 13.66 3.68 14.32 3 15 C1.82479354 13.40207898 0.66008753 11.79643092 -0.5 10.1875 C-1.1496875 9.29417969 -1.799375 8.40085938 -2.46875 7.48046875 C-4 5 -4 5 -4 2 C-2.68 1.34 -1.36 0.68 0 0 Z " fill="#51B16E" transform="translate(356,224)"/>
<path d="M0 0 C3.14822808 2.93927489 5.45457845 5.9856778 7.75 9.625 C8.36359375 10.58664063 8.9771875 11.54828125 9.609375 12.5390625 C11 15 11 15 11 17 C10.01 17 9.02 17 8 17 C6 14 6 14 6 10 C5.01 9.67 4.02 9.34 3 9 C3 7.68 3 6.36 3 5 C2.01 4.67 1.02 4.34 0 4 C0 2.68 0 1.36 0 0 Z " fill="#71BD8A" transform="translate(351,181)"/>
<path d="M0 0 C0.99 0.33 1.98 0.66 3 1 C3.5497272 6.63470383 1.95047835 9.38987758 -1 14 C-2.0625 12.125 -2.0625 12.125 -3 10 C-2 8 -2 8 -1 7 C-0.63239269 4.67182036 -0.29758419 2.3381615 0 0 Z " fill="#44A65B" transform="translate(188,154)"/>
<path d="M0 0 C0.33 0.66 0.66 1.32 1 2 C0.33333333 4 -0.33333333 6 -1 8 C-0.67 8.66 -0.34 9.32 0 10 C-2.64 10.99 -5.28 11.98 -8 13 C-7.690625 12.401875 -7.38125 11.80375 -7.0625 11.1875 C-5.89790296 8.91043228 -5.89790296 8.91043228 -5 6 C-4.34 6 -3.68 6 -3 6 C-2.814375 5.071875 -2.814375 5.071875 -2.625 4.125 C-2 2 -2 2 0 0 Z " fill="#56B271" transform="translate(176,138)"/>
<path d="M0 0 C0.66 0 1.32 0 2 0 C2 0.66 2 1.32 2 2 C3.98 2 5.96 2 8 2 C8 3.32 8 4.64 8 6 C8.2981424 7.34164079 8.62243192 8.67851173 9 10 C8.01 10 7.02 10 6 10 C3.64276511 7.46815512 3 6.52809907 3 3 C2.34 3 1.68 3 1 3 C0.67 2.01 0.34 1.02 0 0 Z " fill="#50B36B" transform="translate(239,458)"/>
<path d="M0 0 C0.12375 0.598125 0.2475 1.19625 0.375 1.8125 C0.95475985 4.26231348 0.95475985 4.26231348 3 7 C1.875 8.5 1.875 8.5 0 10 C-3.1875 10.1875 -3.1875 10.1875 -6 10 C-5.18957164 8.51969728 -4.37659652 7.04078858 -3.5625 5.5625 C-2.88380859 4.32693359 -2.88380859 4.32693359 -2.19140625 3.06640625 C-1 1 -1 1 0 0 Z " fill="#42A85D" transform="translate(148,181)"/>
<path d="M0 0 C0.99 0 1.98 0 3 0 C1.62992438 3.65573061 -0.01017865 6.95467647 -2 10.3125 C-2.515625 11.19550781 -3.03125 12.07851562 -3.5625 12.98828125 C-4.036875 13.65214844 -4.51125 14.31601563 -5 15 C-5.66 15 -6.32 15 -7 15 C-7.33 13.68 -7.66 12.36 -8 11 C-7.01 11 -6.02 11 -5 11 C-4.34 9.35 -3.68 7.7 -3 6 C-2.34 6 -1.68 6 -1 6 C-1.020625 5.195625 -1.04125 4.39125 -1.0625 3.5625 C-1 1 -1 1 0 0 Z " fill="#60B377" transform="translate(233,90)"/>
<path d="M0 0 C3.34292611 3.1019945 5.76244801 6.43575362 8.25 10.25 C8.95640625 11.32765625 9.6628125 12.4053125 10.390625 13.515625 C10.92171875 14.33546875 11.4528125 15.1553125 12 16 C11.67 16.66 11.34 17.32 11 18 C9.0625 17.3125 9.0625 17.3125 7 16 C6.25 13.375 6.25 13.375 6 11 C5.01 10.67 4.02 10.34 3 10 C1.69519135 6.73797837 0.78933188 3.42043815 0 0 Z " fill="#5FB479" transform="translate(278,68)"/>
<path d="M0 0 C-1.44992269 4.10811428 -3.45407573 7.46855666 -6 11 C-6.33 11 -6.66 11 -7 11 C-6.93993922 9.54052295 -6.8511311 8.08220728 -6.75 6.625 C-6.70359375 5.81289063 -6.6571875 5.00078125 -6.609375 4.1640625 C-6 2 -6 2 -4.078125 0.7109375 C-2 0 -2 0 0 0 Z " fill="#4CAB65" transform="translate(272,439)"/>
<path d="M0 0 C2.38672669 2.96283313 4.7353371 5.94270509 7 9 C6.67 9.66 6.34 10.32 6 11 C5.01 10.67 4.02 10.34 3 10 C3 9.01 3 8.02 3 7 C1.35 7.33 -0.3 7.66 -2 8 C-1.34 5.36 -0.68 2.72 0 0 Z " fill="#4FAF6B" transform="translate(326,142)"/>
<path d="M0 0 C1.32 0.66 2.64 1.32 4 2 C1.33333333 6 -1.33333333 10 -4 14 C-4.1875 10.625 -4.1875 10.625 -4 7 C-3.01 6.34 -2.02 5.68 -1 5 C-0.27034634 2.43717258 -0.27034634 2.43717258 0 0 Z " fill="#56AC6D" transform="translate(300,389)"/>
<path d="M0 0 C1 2 1 2 0.3125 5.4375 C-1.01895016 9.05143615 -1.66981109 10.23083714 -5 12 C-5.66 12 -6.32 12 -7 12 C-5.44298069 7.32894208 -2.91552627 3.91294315 0 0 Z " fill="#53AF6C" transform="translate(246,29)"/>
<path d="M0 0 C1.65 0.33 3.3 0.66 5 1 C2.69 4.96 0.38 8.92 -2 13 C-2.33 11.68 -2.66 10.36 -3 9 C-2.34 9 -1.68 9 -1 9 C-1.020625 7.88625 -1.04125 6.7725 -1.0625 5.625 C-1 2 -1 2 0 0 Z " fill="#4EAA65" transform="translate(179,170)"/>
<path d="M0 0 C3.25519625 3.02268223 5.78310719 6.14096436 8 10 C7.67 10.99 7.34 11.98 7 13 C6.38125 12.525625 5.7625 12.05125 5.125 11.5625 C3.09294454 9.97582559 3.09294454 9.97582559 1 9 C1.33 8.01 1.66 7.02 2 6 C1.34 5.34 0.68 4.68 0 4 C0 2.68 0 1.36 0 0 Z " fill="#56B471" transform="translate(265,48)"/>
<path d="M0 0 C0.33 0 0.66 0 1 0 C1.33 1.98 1.66 3.96 2 6 C1.34 6 0.68 6 0 6 C0 6.66 0 7.32 0 8 C-1.65 8.66 -3.3 9.32 -5 10 C-5 10.66 -5 11.32 -5 12 C-5.66 11.67 -6.32 11.34 -7 11 C-5.85845641 9.16399255 -4.71165684 7.33125195 -3.5625 5.5 C-2.92441406 4.4790625 -2.28632813 3.458125 -1.62890625 2.40625 C-0.82259766 1.21515625 -0.82259766 1.21515625 0 0 Z " fill="#4BAC67" transform="translate(220,69)"/>
<path d="M0 0 C2.9156164 3.54039134 5.50127818 7.1626772 8 11 C7.67 11.66 7.34 12.32 7 13 C6.01 13 5.02 13 4 13 C4 11.02 4 9.04 4 7 C3.360625 6.731875 2.72125 6.46375 2.0625 6.1875 C0 5 0 5 -1 2 C-0.67 1.34 -0.34 0.68 0 0 Z " fill="#58B16E" transform="translate(333,153)"/>
<path d="M0 0 C1.98 0.66 3.96 1.32 6 2 C5.01 3.485 5.01 3.485 4 5 C4 6.32 4 7.64 4 9 C4.66 9.33 5.32 9.66 6 10 C6 11.65 6 13.3 6 15 C3.29727467 12.12835434 2.05208163 10.69008159 1.75 6.6875 C1.8325 5.800625 1.915 4.91375 2 4 C1.01 3.67 0.02 3.34 -1 3 C-0.67 2.01 -0.34 1.02 0 0 Z " fill="#46AF61" transform="translate(250,64)"/>
<path d="M0 0 C0.99 0.33 1.98 0.66 3 1 C3 1.99 3 2.98 3 4 C3.99 4 4.98 4 6 4 C6.12375 4.639375 6.2475 5.27875 6.375 5.9375 C6.684375 6.9584375 6.684375 6.9584375 7 8 C7.66 8.33 8.32 8.66 9 9 C9.625 11.0625 9.625 11.0625 10 13 C9.01 13.495 9.01 13.495 8 14 C6.66101601 12.04532248 5.32870953 10.0866421 4 8.125 C3.2575 7.03445313 2.515 5.94390625 1.75 4.8203125 C0 2 0 2 0 0 Z " fill="#64B87A" transform="translate(212,415)"/>
<path d="M0 0 C0.66 1.32 1.32 2.64 2 4 C-1.75 7 -1.75 7 -4 7 C-4 8.65 -4 10.3 -4 12 C-4.99 12 -5.98 12 -7 12 C-6.34 10.02 -5.68 8.04 -5 6 C-4.34 6 -3.68 6 -3 6 C-2.690625 5.195625 -2.38125 4.39125 -2.0625 3.5625 C-1 1 -1 1 0 0 Z " fill="#55AF6F" transform="translate(288,369)"/>
<path d="M0 0 C-1.62378512 4.72373854 -4.10993018 8.94181834 -7 13 C-7.33 13 -7.66 13 -8 13 C-8.1875 10.6875 -8.1875 10.6875 -8 8 C-6.5625 6.4375 -6.5625 6.4375 -5 5 C-4.64830932 3.67139075 -4.31229724 2.33841672 -4 1 C-2 0 -2 0 0 0 Z " fill="#4EA765" transform="translate(325,356)"/>
<path d="M0 0 C2.38672669 2.96283313 4.7353371 5.94270509 7 9 C6.67 9.66 6.34 10.32 6 11 C4.125 10.875 4.125 10.875 2 10 C0.40155515 6.40349908 0 3.96602757 0 0 Z " fill="#5AB571" transform="translate(167,300)"/>
<path d="M0 0 C1.32 0.33 2.64 0.66 4 1 C4 1.99 4 2.98 4 4 C4.66 4 5.32 4 6 4 C6 6.97 6 9.94 6 13 C4.02 13.99 4.02 13.99 2 15 C2.350625 14.278125 2.70125 13.55625 3.0625 12.8125 C4.14154113 9.57537662 4.04461756 8.21420786 3 5 C1.52012037 2.25427272 1.52012037 2.25427272 0 0 Z " fill="#63B67A" transform="translate(360,240)"/>
<path d="M0 0 C2.3125 0.0625 2.3125 0.0625 5 1 C6.6875 4.375 6.6875 4.375 8 8 C8.99 9.485 8.99 9.485 10 11 C9.34 11.66 8.68 12.32 8 13 C6.66388095 11.0226631 5.33100742 9.04327287 4 7.0625 C3.6184375 6.49853516 3.236875 5.93457031 2.84375 5.35351562 C0 1.11328125 0 1.11328125 0 0 Z " fill="#59AF6E" transform="translate(268,98)"/>
<path d="M0 0 C0.625 1.8125 0.625 1.8125 1 4 C0.01 5.485 0.01 5.485 -1 7 C-1.66 7 -2.32 7 -3 7 C-3 8.65 -3 10.3 -3 12 C-3.99 12 -4.98 12 -6 12 C-6 8.36804504 -5.04546845 7.25286089 -3 4.3125 C-2.443125 3.50425781 -1.88625 2.69601562 -1.3125 1.86328125 C-0.879375 1.24839844 -0.44625 0.63351562 0 0 Z " fill="#63B77B" transform="translate(264,406)"/>
<path d="M0 0 C3.84762566 3.4201117 6.60634022 7.46774256 9 12 C9 12.66 9 13.32 9 14 C8.01 13.67 7.02 13.34 6 13 C6.33 12.34 6.66 11.68 7 11 C6.01 10.67 5.02 10.34 4 10 C3.67 8.35 3.34 6.7 3 5 C2.01 4.67 1.02 4.34 0 4 C0 2.68 0 1.36 0 0 Z " fill="#70BC84" transform="translate(231,400)"/>
<path d="M0 0 C1.32 0 2.64 0 4 0 C4 1.32 4 2.64 4 4 C4.66 4 5.32 4 6 4 C6.33 6.31 6.66 8.62 7 11 C5.66104368 9.33784732 4.32869858 7.67036393 3 6 C2.4225 5.278125 1.845 4.55625 1.25 3.8125 C0 2 0 2 0 0 Z " fill="#54AE69" transform="translate(141,304)"/>
<path d="M0 0 C2.9156164 3.54039134 5.50127818 7.1626772 8 11 C7.67 11.66 7.34 12.32 7 13 C5 11.625 5 11.625 3 10 C3 9.34 3 8.68 3 8 C2.34 7.67 1.68 7.34 1 7 C0.59270772 4.67843403 0.25561323 2.3431213 0 0 Z " fill="#4FAA67" transform="translate(313,122)"/>
<path d="M0 0 C3.33557632 2.9905167 5.15083921 5.93184627 7 10 C5.35 9.67 3.7 9.34 2 9 C0 2.25 0 2.25 0 0 Z " fill="#54B26E" transform="translate(258,37)"/>
<path d="M0 0 C2 3 2 3 2 5 C1.34 5 0.68 5 0 5 C0.33 6.32 0.66 7.64 1 9 C0.01 9 -0.98 9 -2 9 C-2.66 7.02 -3.32 5.04 -4 3 C-3.01 3 -2.02 3 -1 3 C-0.67 2.01 -0.34 1.02 0 0 Z " fill="#40A85B" transform="translate(235,441)"/>
<path d="M0 0 C-1.33250791 3.5875213 -2.830717 6.8364623 -5 10 C-5.66 10 -6.32 10 -7 10 C-7.33 9.01 -7.66 8.02 -8 7 C-7.34 6.67 -6.68 6.34 -6 6 C-6 5.01 -6 4.02 -6 3 C-3.9398797 0.3512739 -3.48011144 0 0 0 Z " fill="#5CB773" transform="translate(226,106)"/>
<path d="M0 0 C2.9156164 3.54039134 5.50127818 7.1626772 8 11 C7.67 11.66 7.34 12.32 7 13 C1.26598465 7.56777494 1.26598465 7.56777494 0 4 C0 2.68 0 1.36 0 0 Z " fill="#5EB37E" transform="translate(299,100)"/>
<path d="M0 0 C0.33 0 0.66 0 1 0 C1 1.65 1 3.3 1 5 C0.34 5 -0.32 5 -1 5 C-1.2475 5.969375 -1.495 6.93875 -1.75 7.9375 C-2.1625 8.948125 -2.575 9.95875 -3 11 C-5.078125 11.69140625 -5.078125 11.69140625 -7 12 C-6.20994338 10.56161448 -5.41788955 9.12432585 -4.625 7.6875 C-4.18414062 6.88699219 -3.74328125 6.08648437 -3.2890625 5.26171875 C-2.26486665 3.46472057 -1.14732862 1.72099292 0 0 Z " fill="#6ABC7F" transform="translate(343,282)"/>
<path d="M0 0 C0.6875 1.75 0.6875 1.75 1 4 C-0.375 6 -0.375 6 -2 8 C-2.70514846 10.14733927 -2.70514846 10.14733927 -3 12 C-4.32 12.33 -5.64 12.66 -7 13 C-5.80100302 9.9168649 -4.52299523 6.93720508 -3 4 C-2.34 4 -1.68 4 -1 4 C-0.67 2.68 -0.34 1.36 0 0 Z " fill="#5FB073" transform="translate(167,151)"/>
<path d="M0 0 C2.9375 1.125 2.9375 1.125 6 3 C6.875 6.1875 6.875 6.1875 7 9 C6.01 9.495 6.01 9.495 5 10 C4.16121545 8.71186658 3.32913217 7.41936744 2.5 6.125 C2.0359375 5.40570313 1.571875 4.68640625 1.09375 3.9453125 C0 2 0 2 0 0 Z " fill="#64B676" transform="translate(168,346)"/>
<path d="M0 0 C1.32 0.33 2.64 0.66 4 1 C5.125 2.9375 5.125 2.9375 6 5 C6.66 5.66 7.32 6.32 8 7 C7.34 8.32 6.68 9.64 6 11 C4.02 7.37 2.04 3.74 0 0 Z " fill="#5BAF71" transform="translate(316,171)"/>
<path d="M0 0 C0.99 1.32 1.98 2.64 3 4 C0.82575883 6.50037734 -0.73045798 7.43628586 -4 8 C-2.87548273 5.0280615 -1.77706209 2.66559313 0 0 Z " fill="#5AB46E" transform="translate(312,331)"/>
<path d="M0 0 C1.32 0.33 2.64 0.66 4 1 C2.35 3.64 0.7 6.28 -1 9 C-2.07349791 4.70600835 -1.79682816 3.80504787 0 0 Z " fill="#5DB372" transform="translate(274,430)"/>
<path d="M0 0 C2.0625 0.4375 2.0625 0.4375 4 1 C3.34 2.98 2.68 4.96 2 7 C1.34 7 0.68 7 0 7 C-0.33 7.66 -0.66 8.32 -1 9 C-1.09765625 2.84765625 -1.09765625 2.84765625 -1 1 C-0.67 0.67 -0.34 0.34 0 0 Z " fill="#4CAC65" transform="translate(364,288)"/>
<path d="M0 0 C2.49361571 1.20381448 4.68143083 2.45428722 7 4 C6.67 5.65 6.34 7.3 6 9 C2.91910327 6.22719294 1.31224548 3.93673644 0 0 Z " fill="#55B576" transform="translate(119,270)"/>
<path d="M0 0 C0.33 0.66 0.66 1.32 1 2 C0.39351421 3.68949614 -0.27840576 5.35636866 -1 7 C-1.33 7.99 -1.66 8.98 -2 10 C-4.0625 10.6875 -4.0625 10.6875 -6 11 C-4.54955729 6.89041233 -2.48889248 3.56741255 0 0 Z " fill="#5AB173" transform="translate(131,207)"/>
<path d="M0 0 C2.97 0.495 2.97 0.495 6 1 C6 3.97 6 6.94 6 10 C3.47650757 6.87567603 1.72743854 3.61939504 0 0 Z " fill="#5CB472" transform="translate(278,113)"/>
<path d="M0 0 C-1.31224548 3.93673644 -2.91910327 6.22719294 -6 9 C-5.6875 5.625 -5.6875 5.625 -5 2 C-2 0 -2 0 0 0 Z " fill="#5AAE6F" transform="translate(262,455)"/>
<path d="M0 0 C0.99 0.495 0.99 0.495 2 1 C2 1.99 2 2.98 2 4 C2.66 4 3.32 4 4 4 C5.6875 6.375 5.6875 6.375 7 9 C6.67 9.66 6.34 10.32 6 11 C1.9957657 7.50912907 0.37328935 5.35048061 0 0 Z " fill="#60B476" transform="translate(224,389)"/>
<path d="M0 0 C1 2 1 2 0.25 4.9375 C-0.89861935 7.75161742 -1.60483069 9.20362301 -4 11 C-4.66 11 -5.32 11 -6 11 C-4.74194623 6.49197399 -3.09592835 3.5087188 0 0 Z " fill="#67B67D" transform="translate(280,381)"/>
<path d="M0 0 C2.97 0.495 2.97 0.495 6 1 C5.67 2.32 5.34 3.64 5 5 C3.35 4.67 1.7 4.34 0 4 C0 2.68 0 1.36 0 0 Z " fill="#36A554" transform="translate(300,385)"/>
<path d="M0 0 C0.66 0 1.32 0 2 0 C0.8141763 3.37503669 -0.27573689 5.64722731 -3 8 C-3.66 6.68 -4.32 5.36 -5 4 C-4.0409375 3.8453125 -4.0409375 3.8453125 -3.0625 3.6875 C-2.381875 3.460625 -1.70125 3.23375 -1 3 C-0.67 2.01 -0.34 1.02 0 0 Z " fill="#55B372" transform="translate(311,375)"/>
<path d="M0 0 C3.33557632 2.9905167 5.15083921 5.93184627 7 10 C6.01 10 5.02 10 4 10 C1.40311527 7.40311527 0.07941399 5.89340735 -0.25 2.1875 C-0.1675 1.465625 -0.085 0.74375 0 0 Z " fill="#5DB273" transform="translate(138,255)"/>
<path d="M0 0 C2 1.8125 2 1.8125 4 4 C4 4.99 4 5.98 4 7 C4.66 7 5.32 7 6 7 C5.67 7.66 5.34 8.32 5 9 C2.5 7.875 2.5 7.875 0 6 C-0.3125 2.8125 -0.3125 2.8125 0 0 Z " fill="#63B77D" transform="translate(362,198)"/>
<path d="M0 0 C1.875 0.25 1.875 0.25 4 1 C5.3125 2.8125 5.3125 2.8125 6 5 C5.54296875 7.13671875 5.54296875 7.13671875 5 9 C4.16396622 7.68921847 3.3312426 6.37632511 2.5 5.0625 C2.0359375 4.33160156 1.571875 3.60070312 1.09375 2.84765625 C0 1 0 1 0 0 Z " fill="#69B57B" transform="translate(188,378)"/>
<path d="M0 0 C0.66 0 1.32 0 2 0 C2 0.66 2 1.32 2 2 C2.99 2 3.98 2 5 2 C5 3.32 5 4.64 5 6 C5.66 6 6.32 6 7 6 C6.67 7.32 6.34 8.64 6 10 C4.99723227 8.52270825 3.99785546 7.04311423 3 5.5625 C2.443125 4.73878906 1.88625 3.91507812 1.3125 3.06640625 C0 1 0 1 0 0 Z " fill="#75C38B" transform="translate(159,333)"/>
<path d="M0 0 C3 1 3 1 4.1875 3.0625 C4.455625 3.701875 4.72375 4.34125 5 5 C4.01 5 3.02 5 2 5 C2 5.99 2 6.98 2 8 C1.34 8 0.68 8 0 8 C0 5.36 0 2.72 0 0 Z " fill="#38A452" transform="translate(172,310)"/>
<path d="M0 0 C0.66 0 1.32 0 2 0 C2 0.99 2 1.98 2 3 C2.99 3.33 3.98 3.66 5 4 C6.6875 7.0625 6.6875 7.0625 8 10 C7.01 10 6.02 10 5 10 C3 7 3 7 3 4 C2.34 4 1.68 4 1 4 C0.67 2.68 0.34 1.36 0 0 Z " fill="#6FBC88" transform="translate(342,211)"/>
<path d="M0 0 C0.66 0 1.32 0 2 0 C2.66 1.98 3.32 3.96 4 6 C4.66 6 5.32 6 6 6 C5.34 7.32 4.68 8.64 4 10 C2.35 7.03 0.7 4.06 -1 1 C-0.67 0.67 -0.34 0.34 0 0 Z " fill="#58AF72" transform="translate(329,189)"/>
<path d="M0 0 C1.65 0 3.3 0 5 0 C5.66 2.31 6.32 4.62 7 7 C6.01 7 5.02 7 4 7 C2.02 3.535 2.02 3.535 0 0 Z " fill="#57B672" transform="translate(257,81)"/>
<path d="M0 0 C0.66 0 1.32 0 2 0 C2.66 2.31 3.32 4.62 4 7 C3.34 7 2.68 7 2 7 C2 6.34 2 5.68 2 5 C0.68 5 -0.64 5 -2 5 C-1.34 3.35 -0.68 1.7 0 0 Z " fill="#45A162" transform="translate(249,24)"/>
<path d="M0 0 C0.99 0 1.98 0 3 0 C3 0.99 3 1.98 3 3 C3.66 3 4.32 3 5 3 C5 4.32 5 5.64 5 7 C5.66 7.33 6.32 7.66 7 8 C6.01 8 5.02 8 4 8 C2.68 5.36 1.36 2.72 0 0 Z " fill="#6DBA80" transform="translate(224,434)"/>
<path d="M0 0 C1.875 0.125 1.875 0.125 4 1 C5.25 4.0625 5.25 4.0625 6 7 C3.00675737 5.9024777 2.15389099 5.32317108 0.75 2.375 C0.5025 1.59125 0.255 0.8075 0 0 Z " fill="#44A560" transform="translate(184,371)"/>
<path d="M0 0 C0.66 0 1.32 0 2 0 C0.8141763 3.37503669 -0.27573689 5.64722731 -3 8 C-3.33 6.02 -3.66 4.04 -4 2 C-2.68 2 -1.36 2 0 2 C0 1.34 0 0.68 0 0 Z " fill="#54AF6C" transform="translate(372,280)"/>
<path d="M0 0 C1 3 1 3 -0.3125 5.6875 C-0.869375 6.450625 -1.42625 7.21375 -2 8 C-2.66 8 -3.32 8 -4 8 C-4 8.66 -4 9.32 -4 10 C-4.66 9.67 -5.32 9.34 -6 9 C-4.02 6.03 -2.04 3.06 0 0 Z " fill="#56AE6E" transform="translate(357,261)"/>
<path d="M0 0 C2.83328987 2.83328987 3.7191375 4.35446828 5 8 C3.68 8.33 2.36 8.66 1 9 C0.67 6.03 0.34 3.06 0 0 Z " fill="#54B36F" transform="translate(273,60)"/>
<path d="M0 0 C1.5 1.375 1.5 1.375 3 3 C3 3.66 3 4.32 3 5 C3.66 5 4.32 5 5 5 C5.33 4.01 5.66 3.02 6 2 C6 3.32 6 4.64 6 6 C4.35 6.33 2.7 6.66 1 7 C0.67 4.69 0.34 2.38 0 0 Z " fill="#5DB173" transform="translate(246,423)"/>
<path d="M0 0 C3.29148243 1.13499394 3.9959869 1.99283376 5.75 5.125 C6.1625 6.07375 6.575 7.0225 7 8 C5.68 8 4.36 8 3 8 C2.67 6.02 2.34 4.04 2 2 C1.34 2 0.68 2 0 2 C0 1.34 0 0.68 0 0 Z " fill="#44AB6A" transform="translate(208,366)"/>
<path d="M0 0 C2.01136276 2.55991624 3.62845496 5.04590299 5 8 C3.68 8.33 2.36 8.66 1 9 C0.67 6.03 0.34 3.06 0 0 Z " fill="#5AAF71" transform="translate(154,279)"/>
<path d="M0 0 C0.33 0.66 0.66 1.32 1 2 C-0.30406884 4.01920337 -1.63823419 6.01924973 -3 8 C-3.33 8 -3.66 8 -4 8 C-4.25 5.6875 -4.25 5.6875 -4 3 C-2 1.1875 -2 1.1875 0 0 Z " fill="#64B57D" transform="translate(163,201)"/>
<path d="M0 0 C3.67230705 3.07999946 4.56802365 5.2482602 5 10 C4.34 9.67 3.68 9.34 3 9 C3 7.68 3 6.36 3 5 C2.01 4.67 1.02 4.34 0 4 C0 2.68 0 1.36 0 0 Z " fill="#66B67C" transform="translate(351,181)"/>
<path d="M0 0 C1.65 1.65 3.3 3.3 5 5 C3.02 5.99 3.02 5.99 1 7 C0 6 0 6 -0.0625 2.9375 C-0.041875 1.968125 -0.02125 0.99875 0 0 Z " fill="#59B671" transform="translate(341,166)"/>
<path d="M0 0 C0.33 0.99 0.66 1.98 1 3 C0.01 4.485 0.01 4.485 -1 6 C-1.66 6 -2.32 6 -3 6 C-3 6.99 -3 7.98 -3 9 C-3.66 9 -4.32 9 -5 9 C-3.7508258 5.54074837 -2.32472205 2.85306797 0 0 Z " fill="#6DBD81" transform="translate(159,164)"/>
<path d="M0 0 C4.8 2.46153846 4.8 2.46153846 5.8125 5.1875 C5.874375 5.785625 5.93625 6.38375 6 7 C5.01 7 4.02 7 3 7 C0 2.77777778 0 2.77777778 0 0 Z " fill="#6EBD81" transform="translate(263,89)"/>
<path d="M0 0 C0.75 1.6875 0.75 1.6875 1 4 C-0.9375 6.75 -0.9375 6.75 -3 9 C-3 7.02 -3 5.04 -3 3 C-2.01 2.67 -1.02 2.34 0 2 C0 1.34 0 0.68 0 0 Z " fill="#369D53" transform="translate(239,81)"/>
<path d="M0 0 C0.99 0 1.98 0 3 0 C2.39816251 2.02045442 1.72693904 4.02111039 1 6 C0.01 6.495 0.01 6.495 -1 7 C-1.04254356 5.00045254 -1.04080783 2.99958364 -1 1 C-0.67 0.67 -0.34 0.34 0 0 Z " fill="#63B677" transform="translate(287,411)"/>
<path d="M0 0 C0.66 0 1.32 0 2 0 C2 0.66 2 1.32 2 2 C2.66 2.33 3.32 2.66 4 3 C4.66 3.66 5.32 4.32 6 5 C5.625 7.125 5.625 7.125 5 9 C4.16396622 7.68921847 3.3312426 6.37632511 2.5 5.0625 C2.0359375 4.33160156 1.571875 3.60070312 1.09375 2.84765625 C0 1 0 1 0 0 Z " fill="#62B779" transform="translate(153,323)"/>
<path d="M0 0 C1 3 1 3 0.3125 5.0625 C-1.21259665 7.31383315 -2.50584728 8.00233891 -5 9 C-3.7508258 5.54074837 -2.32472205 2.85306797 0 0 Z " fill="#64B97D" transform="translate(113,235)"/>
<path d="M0 0 C1.98 0.495 1.98 0.495 4 1 C2.68 3.31 1.36 5.62 0 8 C-0.33 8 -0.66 8 -1 8 C-0.67 5.36 -0.34 2.72 0 0 Z " fill="#44A25F" transform="translate(139,234)"/>
<path d="M0 0 C0.66 0 1.32 0 2 0 C2 0.66 2 1.32 2 2 C2.99 2.33 3.98 2.66 5 3 C6.1875 5.5625 6.1875 5.5625 7 8 C6.01 8 5.02 8 4 8 C2.68 5.36 1.36 2.72 0 0 Z " fill="#6BBB82" transform="translate(334,199)"/>
<path d="M0 0 C2.25245881 2.68841859 3.88213958 4.64641875 5 8 C4.34 8.66 3.68 9.32 3 10 C3 8.68 3 7.36 3 6 C2.34 6 1.68 6 1 6 C0.67 4.02 0.34 2.04 0 0 Z " fill="#57B478" transform="translate(346,173)"/>
<path d="M0 0 C1.98 0 3.96 0 6 0 C5.67 2.31 5.34 4.62 5 7 C1.125 2.25 1.125 2.25 0 0 Z " fill="#6CBF81" transform="translate(309,161)"/>
<path d="M0 0 C1.231394 2.46278801 1.07159196 4.2795055 1 7 C-0.65 7.33 -2.3 7.66 -4 8 C-2.87548273 5.0280615 -1.77706209 2.66559313 0 0 Z " fill="#6BB97D" transform="translate(187,120)"/>
<path d="M0 0 C0.93423645 3.01031744 1.04449911 3.86650268 0 7 C-2.0625 7.6875 -2.0625 7.6875 -4 8 C-2.87548273 5.0280615 -1.77706209 2.66559313 0 0 Z " fill="#63BA77" transform="translate(203,95)"/>
<path d="M0 0 C3.08089673 2.77280706 4.68775452 5.06326356 6 9 C3.525 8.01 3.525 8.01 1 7 C0.67 4.69 0.34 2.38 0 0 Z " fill="#7DCA92" transform="translate(284,77)"/>
<path d="M0 0 C0.33 1.32 0.66 2.64 1 4 C-0.9375 6.25 -0.9375 6.25 -3 8 C-3.66 7.67 -4.32 7.34 -5 7 C-3.35 4.69 -1.7 2.38 0 0 Z " fill="#6CB780" transform="translate(238,41)"/>
<path d="M0 0 C0.99 0.33 1.98 0.66 3 1 C4.1875 3.5625 4.1875 3.5625 5 6 C4.01 6 3.02 6 2 6 C2 5.01 2 4.02 2 3 C1.34 3 0.68 3 0 3 C0 2.01 0 1.02 0 0 Z " fill="#54B06F" transform="translate(203,400)"/>
<path d="M0 0 C1.98 0.495 1.98 0.495 4 1 C4.33 2.65 4.66 4.3 5 6 C4.34 6 3.68 6 3 6 C2.67 5.34 2.34 4.68 2 4 C1.01 3.34 0.02 2.68 -1 2 C-0.67 1.34 -0.34 0.68 0 0 Z " fill="#46A65D" transform="translate(220,386)"/>
<path d="M0 0 C0.66 0 1.32 0 2 0 C2.33 1.32 2.66 2.64 3 4 C1.02 4.99 1.02 4.99 -1 6 C-1.33 5.01 -1.66 4.02 -2 3 C-1.34 2.01 -0.68 1.02 0 0 Z " fill="#299A46" transform="translate(309,338)"/>
<path d="M0 0 C2.79579355 1.39789678 3.59807058 3.2628997 5 6 C4.67 6.66 4.34 7.32 4 8 C2.68 7.34 1.36 6.68 0 6 C0 4.02 0 2.04 0 0 Z " fill="#72BB82" transform="translate(148,270)"/>
<path d="M0 0 C0.99 0 1.98 0 3 0 C3 1.32 3 2.64 3 4 C2.34 4 1.68 4 1 4 C1.33 4.99 1.66 5.98 2 7 C1.01 7.33 0.02 7.66 -1 8 C-0.67 6.35 -0.34 4.7 0 3 C0.66 3 1.32 3 2 3 C2 2.34 2 1.68 2 1 C1.34 0.67 0.68 0.34 0 0 Z " fill="#18993A" transform="translate(162,194)"/>
<path d="M0 0 C1.09658936 3.28976808 0.79953138 4.71303767 0 8 C-1.32 7.67 -2.64 7.34 -4 7 C-2.68 4.69 -1.36 2.38 0 0 Z " fill="#5EB577" transform="translate(212,81)"/>
<path d="" fill="#FFFFFF" transform="translate(0,0)"/>
<path d="" fill="#FFFFFF" transform="translate(0,0)"/>
<path d="" fill="#FFFFFF" transform="translate(0,0)"/>
<path d="" fill="#FFFFFF" transform="translate(0,0)"/>
<path d="" fill="#FFFFFF" transform="translate(0,0)"/>
<path d="" fill="#FFFFFF" transform="translate(0,0)"/>
<path d="" fill="#FFFFFF" transform="translate(0,0)"/>
<path d="" fill="#FFFFFF" transform="translate(0,0)"/>
<path d="" fill="#FFFFFF" transform="translate(0,0)"/>
<path d="" fill="#FFFFFF" transform="translate(0,0)"/>
<path d="" fill="#FFFFFF" transform="translate(0,0)"/>
<path d="" fill="#FFFFFF" transform="translate(0,0)"/>
<path d="" fill="#FFFFFF" transform="translate(0,0)"/>
<path d="" fill="#FFFFFF" transform="translate(0,0)"/>
<path d="" fill="#FFFFFF" transform="translate(0,0)"/>
<path d="" fill="#FFFFFF" transform="translate(0,0)"/>
<path d="" fill="#FFFFFF" transform="translate(0,0)"/>
<path d="" fill="#FFFFFF" transform="translate(0,0)"/>
<path d="" fill="#FFFFFF" transform="translate(0,0)"/>
<path d="" fill="#FFFFFF" transform="translate(0,0)"/>
<path d="" fill="#FFFFFF" transform="translate(0,0)"/>
<path d="" fill="#FFFFFF" transform="translate(0,0)"/>
<path d="" fill="#FFFFFF" transform="translate(0,0)"/>
<path d="" fill="#FFFFFF" transform="translate(0,0)"/>
<path d="" fill="#FFFFFF" transform="translate(0,0)"/>
<path d="" fill="#FFFFFF" transform="translate(0,0)"/>
<path d="" fill="#FFFFFF" transform="translate(0,0)"/>
<path d="" fill="#FFFFFF" transform="translate(0,0)"/>
<path d="" fill="#FFFFFF" transform="translate(0,0)"/>
<path d="" fill="#FFFFFF" transform="translate(0,0)"/>
<path d="" fill="#FFFFFF" transform="translate(0,0)"/>
<path d="" fill="#FFFFFF" transform="translate(0,0)"/>
<path d="" fill="#FFFFFF" transform="translate(0,0)"/>
<path d="" fill="#FFFFFF" transform="translate(0,0)"/>
<path d="" fill="#FFFFFF" transform="translate(0,0)"/>
<path d="" fill="#FFFFFF" transform="translate(0,0)"/>
<path d="" fill="#FFFFFF" transform="translate(0,0)"/>
<path d="" fill="#FFFFFF" transform="translate(0,0)"/>
<path d="" fill="#FFFFFF" transform="translate(0,0)"/>
<path d="" fill="#FFFFFF" transform="translate(0,0)"/>
<path d="" fill="#FFFFFF" transform="translate(0,0)"/>
<path d="" fill="#FFFFFF" transform="translate(0,0)"/>
<path d="" fill="#FFFFFF" transform="translate(0,0)"/>
<path d="" fill="#FFFFFF" transform="translate(0,0)"/>
<path d="" fill="#FFFFFF" transform="translate(0,0)"/>
<path d="" fill="#FFFFFF" transform="translate(0,0)"/>
<path d="" fill="#FFFFFF" transform="translate(0,0)"/>
<path d="" fill="#FFFFFF" transform="translate(0,0)"/>
<path d="" fill="#FFFFFF" transform="translate(0,0)"/>
<path d="" fill="#FFFFFF" transform="translate(0,0)"/>
<path d="" fill="#FFFFFF" transform="translate(0,0)"/>
<path d="" fill="#FFFFFF" transform="translate(0,0)"/>
<path d="" fill="#FFFFFF" transform="translate(0,0)"/>
<path d="" fill="#FFFFFF" transform="translate(0,0)"/>
<path d="" fill="#FFFFFF" transform="translate(0,0)"/>
<path d="" fill="#FFFFFF" transform="translate(0,0)"/>
<path d="" fill="#FFFFFF" transform="translate(0,0)"/>
<path d="" fill="#FFFFFF" transform="translate(0,0)"/>
<path d="" fill="#FFFFFF" transform="translate(0,0)"/>
<path d="" fill="#FFFFFF" transform="translate(0,0)"/>
<path d="" fill="#FFFFFF" transform="translate(0,0)"/>
<path d="" fill="#FFFFFF" transform="translate(0,0)"/>
<path d="" fill="#FFFFFF" transform="translate(0,0)"/>
<path d="" fill="#FFFFFF" transform="translate(0,0)"/>
<path d="" fill="#FFFFFF" transform="translate(0,0)"/>
<path d="" fill="#FFFFFF" transform="translate(0,0)"/>
<path d="" fill="#FFFFFF" transform="translate(0,0)"/>
<path d="" fill="#FFFFFF" transform="translate(0,0)"/>
<path d="" fill="#FFFFFF" transform="translate(0,0)"/>
<path d="" fill="#FFFFFF" transform="translate(0,0)"/>
<path d="" fill="#FFFFFF" transform="translate(0,0)"/>
<path d="" fill="#FFFFFF" transform="translate(0,0)"/>
<path d="" fill="#FFFFFF" transform="translate(0,0)"/>
<path d="" fill="#FFFFFF" transform="translate(0,0)"/>
<path d="" fill="#FFFFFF" transform="translate(0,0)"/>
<path d="" fill="#FFFFFF" transform="translate(0,0)"/>
<path d="" fill="#FFFFFF" transform="translate(0,0)"/>
<path d="" fill="#FFFFFF" transform="translate(0,0)"/>
</svg>
