<svg width="110" height="52" viewBox="0 0 110 52" fill="none" xmlns="http://www.w3.org/2000/svg">
<path d="M41.5149 2.09508C40.1815 6.09508 34.4482 20.2284 32.4482 24.4951C31.3815 26.7617 29.9149 30.2284 29.1149 32.3617C28.3149 34.4951 27.3815 35.8284 26.9815 35.5617C26.5815 35.1617 24.5815 29.8284 22.5815 23.6951C20.4482 17.5617 18.1815 12.3617 17.5149 12.2284C15.7815 11.5617 13.5149 15.1617 6.04819 31.2951C-0.618473 45.8284 -1.41847 49.6951 1.91486 51.0284C5.11486 52.2284 5.78153 51.4284 10.4482 39.8284C12.8482 33.8284 15.2482 29.4284 15.7815 30.0951C16.4482 30.6284 18.5815 35.2951 20.7149 40.4951C26.4482 53.9618 28.0482 53.2951 35.9149 35.1617C39.5149 27.0284 42.3149 19.5617 42.4482 18.4951C42.4482 15.8284 44.1815 18.2284 47.1149 25.1617C49.6482 30.8951 51.3815 33.1617 53.3815 33.1617C53.9149 33.1617 56.1815 29.1617 58.4482 24.2284C60.7149 19.4284 62.7149 15.6951 62.9815 15.9618C63.2482 16.2284 66.3149 23.9617 69.6482 33.0284C73.1149 42.0951 76.1815 49.9617 76.5815 50.6284C78.0482 53.1617 80.9815 49.8284 85.7815 39.8284C88.7149 33.9618 91.3815 29.1617 91.7815 29.1617C92.3149 29.1617 94.3149 32.7617 96.4482 37.0284C98.4482 41.4284 101.515 46.6284 103.115 48.6284C105.648 51.8284 106.448 52.0951 108.182 50.6284C110.182 49.0284 109.915 47.9618 105.515 39.4284C102.848 34.0951 99.3815 26.2284 97.7815 21.8284C96.0482 17.4284 93.9149 13.6951 92.8482 13.4284C91.7815 13.2951 88.8482 17.5617 85.3815 24.6284C82.1815 30.8951 79.3815 35.9617 79.2482 35.6951C78.7149 35.1617 67.7815 7.29508 66.0482 2.09508C64.5815 -1.90492 62.7149 -0.438251 57.5149 8.76175L52.5815 17.6951L48.7149 8.76175C44.5815 -0.438251 42.9815 -1.90492 41.5149 2.09508Z" fill="black"/>
<path d="M58.4482 37.8285C56.1816 41.1618 53.7816 43.8285 53.2482 43.8285C52.5816 43.8285 50.4482 41.4285 48.4482 38.4951C44.7149 33.1618 42.4482 31.6951 42.4482 34.7618C42.4482 37.1618 52.0482 50.4951 53.7816 50.4951C54.7149 50.4951 57.3816 46.7618 59.9149 42.2285C65.6482 31.5618 65.6482 31.8285 63.9149 31.8285C63.2482 31.8285 60.7149 34.4951 58.4482 37.8285Z" fill="black"/>
</svg>
