<svg width="98" height="75" viewBox="0 0 98 75" fill="none" xmlns="http://www.w3.org/2000/svg">
<path fill-rule="evenodd" clip-rule="evenodd" d="M64.7326 52.8691C73.6659 61.6691 80.5993 69.5355 80.1993 70.2021C78.7326 72.7354 74.8662 71.135 69.3995 65.8018L63.6661 60.2021L56.5997 67.1357C52.7334 71.0021 49.0002 74.0689 48.3331 74.0693C47.5331 74.0693 44.0664 71.0023 40.3331 67.4023C36.7346 63.6705 33.4023 60.7377 33.0001 60.7354C32.6001 60.7354 29.6665 63.136 26.3331 66.0693C20.0667 71.8025 17.0002 72.7355 17.0001 69.1357C17.0001 67.0024 44.3335 37.802 47.0001 37.002C47.803 36.8717 55.8011 43.9377 64.7326 52.8691ZM47.5333 44.0693L37.1329 56.0693L41.9327 61.1357C44.7327 63.8024 47.5331 66.0693 48.3331 66.0693C49.1333 66.069 52.0661 63.8017 54.7325 61.002L59.6661 55.9355L47.5333 44.0693Z" fill="black"/>
<path fill-rule="evenodd" clip-rule="evenodd" d="M78.8283 1.86719C82.2949 4.00052 80.2949 6.80006 60.8283 25.7334L48.8283 37.334L32.5617 21.2002C19.6285 8.26706 16.5619 4.66685 17.7618 3.2002C18.5618 2.13355 19.4956 1.33398 19.8956 1.33398C20.1646 1.33628 23.3631 4.1354 27.0949 7.60059L33.7618 13.8672L40.5617 6.93359C44.2945 3.06748 48.0276 0.000876319 49.0949 0C50.0282 0 53.3617 2.93375 56.5617 6.66699C59.7617 10.267 62.829 13.334 63.629 13.334C64.2966 13.3329 67.6289 10.5328 71.0949 7.2002C74.5612 3.73389 78.0278 1.46779 78.8283 1.86719ZM48.295 6.13379L42.962 12L37.629 17.7334L42.0285 22.667C44.295 25.4669 46.9617 28.0002 47.7618 28.4004C48.5618 28.8004 51.7616 26.5334 54.8283 23.4668L60.295 17.8672L48.295 6.13379Z" fill="black"/>
</svg>
