<svg width="109" height="64" viewBox="0 0 109 64" fill="none" xmlns="http://www.w3.org/2000/svg">
<path fill-rule="evenodd" clip-rule="evenodd" d="M69.8691 15.4833C78.6691 6.54994 86.5355 -0.383527 87.2021 0.0164732C89.7354 1.48317 88.135 5.34966 82.8018 10.8163L77.2021 16.5497L84.1357 23.6161C88.0021 27.4824 91.0689 31.2156 91.0693 31.8827C91.0693 32.6827 88.0023 36.1494 84.4023 39.8827C80.6705 43.4812 77.7377 46.8135 77.7354 47.2157C77.7354 47.6157 80.136 50.5494 83.0693 53.8827C88.8025 60.1491 89.7355 63.2156 86.1357 63.2157C84.0024 63.2157 54.802 35.8824 54.002 33.2157C53.8717 32.4128 60.9377 24.4147 69.8691 15.4833ZM61.0693 32.6825L73.0693 43.0829L78.1357 38.2831C80.8024 35.4831 83.0693 32.6827 83.0693 31.8827C83.069 31.0825 80.8017 28.1497 78.002 25.4833L72.9355 20.5497L61.0693 32.6825Z" fill="black"/>
<path fill-rule="evenodd" clip-rule="evenodd" d="M18.8672 1.38757C21.0005 -2.0791 23.8001 -0.0790997 42.7334 19.3876L54.334 31.3876L38.2002 47.6542C25.2671 60.5873 21.6669 63.654 20.2002 62.454C19.1336 61.654 18.334 60.7202 18.334 60.3202C18.3363 60.0512 21.1354 56.8527 24.6006 53.121L30.8672 46.454L23.9336 39.6542C20.0675 35.9214 17.0009 32.1882 17 31.121C17 30.1876 19.9337 26.8541 23.667 23.6542C27.267 20.4542 30.334 17.3868 30.334 16.5868C30.3329 15.9192 27.5328 12.5869 24.2002 9.12097C20.7339 5.65466 18.4678 2.18804 18.8672 1.38757ZM23.1338 31.9208L29 37.2538L34.7334 42.5868L39.667 38.1874C42.4669 35.9208 45.0002 33.2541 45.4004 32.454C45.8004 31.654 43.5334 28.4542 40.4668 25.3876L34.8672 19.9208L23.1338 31.9208Z" fill="black"/>
</svg>
