<svg width="87" height="106" viewBox="0 0 87 106" fill="none" xmlns="http://www.w3.org/2000/svg">
<path d="M27.6714 14C21.4047 21.6 12.3381 33.3333 7.53805 40C-0.0619502 50.8 -0.86195 52.5333 0.604716 55.0667C2.07138 58 29.6714 90.5333 38.8714 100.267C41.4047 103.067 44.4714 105.333 45.6714 105.333C46.7381 105.2 51.0047 100.4 55.0047 94.5333C59.0047 88.5333 66.7381 78 72.2047 70.9333C82.2047 57.8667 87.0047 50.6667 87.0047 49.0667C87.0047 46.5333 43.2714 0 40.8714 0C40.0714 0 34.0714 6.26666 27.6714 14ZM58.3381 29.8667C65.938 38.5333 75.0047 50.9333 75.0047 52.6667C75.0047 53.3333 50.6047 86.1333 44.7381 93.2C43.9381 94.2667 38.3381 88.4 24.7381 72C17.2714 62.9333 11.0047 54.5333 11.0047 53.3333C11.0047 52.2667 12.6047 49.4667 14.7381 47.3333C16.7381 45.0667 19.2714 42 20.3381 40.4C30.0714 26.2667 34.6047 20.2667 38.0714 16.4L42.3381 11.7333L46.3381 16.2667C48.4714 18.6667 53.9381 24.8 58.3381 29.8667Z" fill="black"/>
<path d="M32.4715 40C27.2715 46.5333 23.0049 52.6667 23.0049 53.7333C23.0049 54.6667 25.4049 58.8 28.2049 62.8C31.1382 66.8 35.4049 72.5333 37.6715 75.6C39.9382 78.8 42.6049 81.3333 43.5382 81.3333C47.0049 81.3333 63.0049 57.6 63.0049 52.4C63.0049 50.9333 60.8716 47.0667 58.2049 43.6C55.4049 40 53.8049 36.8 54.4716 35.8667C55.0049 34.9333 54.8716 34.6667 54.0716 35.0667C53.4049 35.6 51.0049 34.1333 49.0049 32C46.8716 29.7333 44.4715 28 43.5382 28C42.6049 28 37.6715 33.3333 32.4715 40ZM51.8049 44.8C57.4049 52.5333 57.8049 53.8667 56.3382 56.5333C53.4049 62.1333 44.8716 72.6667 43.4049 72.6667C41.6716 72.6667 29.6715 55.6 29.6715 53.2C29.6715 52.4 32.0716 49.0667 35.0049 45.7333C37.9382 42.4 40.3382 38.8 40.3382 37.8667C40.3382 36.8 41.5382 36 42.8715 36C44.6049 36 47.8049 39.0667 51.8049 44.8Z" fill="black"/>
<path d="M36.338 50C34.2046 52.5333 35.8046 56.9333 39.6713 59.4667C42.2046 61.2 43.2713 61.2 45.538 59.7333C49.4046 57.3333 49.938 55.0667 47.538 51.2C45.0046 47.6 39.0046 46.8 36.338 50Z" fill="black"/>
</svg>
