<svg width="110" height="64" viewBox="0 0 110 64" fill="none" xmlns="http://www.w3.org/2000/svg">
<path d="M93.465 15.4832C102.398 24.4165 109.465 32.4165 109.332 33.2165C108.532 35.8832 79.3316 63.2165 77.1983 63.2165C73.5983 63.2165 74.5316 60.1499 80.265 53.8832C83.1983 50.5499 85.5983 47.6165 85.5983 47.2165C85.5983 46.8165 82.665 43.4832 78.9316 39.8832C75.3316 36.1499 72.265 32.6832 72.265 31.8832C72.265 31.2165 75.3316 27.4832 79.1983 23.6165L86.1316 16.5499L80.5316 10.8165C75.1983 5.34987 73.5983 1.4832 76.1316 0.0165329C76.7983 -0.383465 84.665 6.54987 93.465 15.4832ZM80.265 31.8832C80.265 32.6832 82.5316 35.4832 85.1983 38.2832L90.265 43.0832L96.265 37.8832L102.265 32.6832L96.265 26.5499L90.3983 20.5499L85.3316 25.4832C82.5316 28.1499 80.265 31.0832 80.265 31.8832Z" fill="black"/>
<path d="M35.4668 2.01645C35.8668 2.81644 33.6002 6.28311 30.1335 9.74978C26.8002 13.2164 24.0002 16.5498 24.0002 17.2164C24.0002 18.0164 27.0668 21.0831 30.6668 24.2831C34.4002 27.4831 37.3335 30.8164 37.3335 31.7498C37.3335 32.8164 34.2668 36.5498 30.4002 40.2831L23.4668 47.0831L29.7335 53.7498C33.2002 57.4831 36.0002 60.6831 36.0002 60.9498C36.0002 61.3498 35.2002 62.2831 34.1335 63.0831C32.6668 64.2831 29.0668 61.2164 16.1335 48.2831L0.000160217 32.0164L11.6002 20.0164C30.5335 0.549778 33.3335 -1.45022 35.4668 2.01645ZM8.93349 33.0831C9.33349 33.8831 11.8668 36.5498 14.6668 38.8164L19.6002 43.2164L25.3335 37.8831L31.2002 32.5498L25.3335 26.5498L19.4668 20.5498L13.8668 26.0164C10.8002 29.0831 8.53349 32.2831 8.93349 33.0831Z" fill="black"/>
<path d="M36.1334 3.08327C34.5334 4.14993 35.7334 6.0166 41.8667 12.6833L49.4667 20.9499L43.8667 26.6833L38.1334 32.5499L44.0001 38.5499L49.8667 44.5499L42.9334 51.6166C39.0667 55.4833 36.0001 59.3499 36.0001 60.1499C36.0001 64.2833 39.6001 62.8166 46.5334 56.0166L54.0001 48.5499L61.8667 55.8833C66.2667 60.0166 70.4001 63.0833 71.0667 62.8166C74.4001 61.7499 73.0667 58.8166 66.1334 51.4833L58.8001 43.7499L64.0001 38.6833C66.9334 35.8833 69.3334 32.9499 69.3334 32.1499C69.3334 31.4833 66.9334 28.6833 63.8667 26.1499L58.4001 21.4833L66.1334 13.7499C71.2001 8.68326 73.4667 5.34993 72.9334 4.0166C71.6001 0.683266 70.5334 1.34993 62.2667 9.48326L54.5334 16.9499L46.9334 9.48326C38.5334 1.2166 38.8001 1.34993 36.1334 3.08327ZM57.8667 36.5499L53.8667 40.5499L50.0001 36.5499L46.1334 32.5499L50.0001 28.5499L53.8667 24.5499L57.8667 28.5499L62.0001 32.5499L57.8667 36.5499Z" fill="black"/>
</svg>
