<svg width="110" height="64" viewBox="0 0 110 64" fill="none" xmlns="http://www.w3.org/2000/svg">
<path d="M88.1332 15.4832C79.1998 24.4165 72.1332 32.4166 72.2665 33.2166C73.0665 35.8832 102.267 63.2166 104.4 63.2166C108 63.2166 107.067 60.1499 101.333 53.8832C98.3998 50.5499 95.9998 47.6166 95.9998 47.2166C95.9998 46.8166 98.9332 43.4832 102.667 39.8832C106.267 36.1499 109.333 32.6832 109.333 31.8832C109.333 31.2166 106.267 27.4832 102.4 23.6166L95.4665 16.5499L101.067 10.8166C106.4 5.34988 108 1.48322 105.467 0.0165482C104.8 -0.38345 96.9332 6.54988 88.1332 15.4832ZM101.333 31.8832C101.333 32.6832 99.0665 35.4832 96.3998 38.2832L91.3332 43.0832L85.3332 37.8832L79.3332 32.6832L85.3332 26.5499L91.1998 20.5499L96.2665 25.4832C99.0665 28.1499 101.333 31.0832 101.333 31.8832Z" fill="black"/>
<path d="M1.86667 2.01646C1.46667 2.81646 3.73333 6.28313 7.2 9.74979C10.5333 13.2165 13.3333 16.5498 13.3333 17.2165C13.3333 18.0165 10.2667 21.0831 6.66667 24.2831C2.93333 27.4831 0 30.8165 0 31.7498C0 32.8165 3.06667 36.5498 6.93333 40.2831L13.8667 47.0831L7.6 53.7498C4.13333 57.4831 1.33333 60.6831 1.33333 60.9498C1.33333 61.3498 2.13333 62.2831 3.2 63.0831C4.66667 64.2831 8.26667 61.2165 21.2 48.2831L37.3333 32.0165L25.7333 20.0165C6.8 0.549793 4 -1.4502 1.86667 2.01646ZM28.4 33.0831C28 33.8831 25.4667 36.5498 22.6667 38.8165L17.7333 43.2165L12 37.8831L6.13333 32.5498L12 26.5498L17.8667 20.5498L23.4667 26.0165C26.5333 29.0831 28.8 32.2831 28.4 33.0831Z" fill="black"/>
<path d="M36.1334 3.08328C34.5334 4.14994 35.7334 6.01661 41.8667 12.6833L49.4667 20.9499L43.8667 26.6833L38.1334 32.5499L44.0001 38.5499L49.8667 44.5499L42.9334 51.6166C39.0667 55.4833 36.0001 59.3499 36.0001 60.1499C36.0001 64.2833 39.6001 62.8166 46.5334 56.0166L54.0001 48.5499L61.8667 55.8833C66.2667 60.0166 70.4001 63.0833 71.0667 62.8166C74.4001 61.7499 73.0667 58.8166 66.1334 51.4833L58.8001 43.7499L64.0001 38.6833C66.9334 35.8833 69.3334 32.9499 69.3334 32.1499C69.3334 31.4833 66.9334 28.6833 63.8667 26.1499L58.4001 21.4833L66.1334 13.7499C71.2001 8.68328 73.4667 5.34995 72.9334 4.01661C71.6001 0.683277 70.5334 1.34995 62.2667 9.48328L54.5334 16.9499L46.9334 9.48328C38.5334 1.21661 38.8001 1.34995 36.1334 3.08328ZM57.8667 36.5499L53.8667 40.5499L50.0001 36.5499L46.1334 32.5499L50.0001 28.5499L53.8667 24.5499L57.8667 28.5499L62.0001 32.5499L57.8667 36.5499Z" fill="black"/>
</svg>
