<svg width="60" height="60" viewBox="0 0 60 60" fill="none" xmlns="http://www.w3.org/2000/svg">
<path d="M20.4476 60V51.2611H11.9837V43.0358H0V16.9643H11.9837V8.73891H20.4476V0H39.5524V8.73891H48.0163V16.9643H60V43.0358H48.0163V51.2611H39.5524V60H20.4476Z" fill="#005E7C"/>
<path d="M57.7817 21.5024H45.7981V13.2771H37.3342V4.53806H22.6659V13.2771H14.202V21.5024H2.21832V38.8342H14.202V47.0595H22.6659V55.7985H37.3342V47.0595H45.7981V38.8342H57.7817V21.5024Z" fill="#FEC97F"/>
<path d="M25.2341 49.133V40.3939H16.7703V32.1687H4.78662V27.8314H16.7703V19.6062H25.2341V10.8672H34.7659V19.6062H43.2298V27.8314H55.2135V32.1687H43.2298V40.3939H34.7659V49.133H25.2341Z" fill="#FFFDE9"/>
<path d="M33.4796 21.7226H27.8485V35.9684H33.4796V21.7226Z" fill="#F04E57"/>
</svg>
