<svg width="60" height="60" viewBox="0 0 60 60" fill="none" xmlns="http://www.w3.org/2000/svg">
<path d="M55.9108 34.2685L60 31.3195L55.4094 31.3193V28.6807L60 28.6805L55.9108 25.7314L52.4697 28.3509H40.0076L45.5873 23.3787H51.6751L57.7631 17.9536H45.5873L51.6751 12.5284H39.6025L45.5873 7.19509H34.399L38.1713 2.28247H58.9486V0H35.6386L30.1134 7.19509H29.9148L24.3897 0H1.07966V2.28247H21.857L25.6292 7.19509H14.4409L20.4257 12.5284H8.35297L14.4409 17.9536H2.26514L8.35297 23.3787H14.4409L20.0205 28.3509H7.50642L3.87446 25.7314L0 28.6808L4.59058 28.6807V31.3193L0 31.3191L3.87446 34.2685L7.50642 31.649H20.0205L14.4409 36.6212H8.35297L2.26514 42.0464H14.4409L8.35297 47.4716H20.4257L14.4409 52.8049H25.6292L21.857 57.7175H1.07966V60H24.3897L29.9148 52.8049H30.1134L35.6386 60H58.9486V57.7175H38.1713L34.399 52.8049H45.5873L39.6025 47.4716H51.6751L45.5873 42.0464H57.7631L51.6751 36.6212H45.5873L40.0076 31.649H52.4697L55.9108 34.2685Z" fill="#F37655"/>
<path d="M29.9998 13.0199L23.9734 18.2743L30.0002 23.529L36.0266 18.2746L29.9998 13.0199Z" fill="#30080A"/>
<path d="M30.0751 36.1759L24.0487 41.4302L30.0755 46.6849L36.1019 41.4306L30.0751 36.1759Z" fill="#30080A"/>
<path d="M30.075 39.1177L27.4234 41.4297L30.0752 43.7417L32.7268 41.4298L30.075 39.1177Z" fill="#FFFDE9"/>
<path d="M29.9996 15.9615L27.348 18.2735L29.9998 20.5855L32.6514 18.2736L29.9996 15.9615Z" fill="#FFFDE9"/>
</svg>
