<svg width="120" height="60" viewBox="0 0 120 60" fill="none" xmlns="http://www.w3.org/2000/svg">
<path d="M53.7484 29.9999L26.8744 0L0 30.0001L26.8741 60L53.7484 29.9999Z" fill="#3F4243"/>
<path d="M46.9721 29.9999L26.8747 7.56499L6.77714 30.0001L26.8745 52.4351L46.9721 29.9999Z" fill="#EE7E4F"/>
<path d="M33.3035 30.0005L26.8739 22.823L20.4443 29.9996L26.8739 37.177L33.3035 30.0005Z" fill="#9770B1"/>
<path d="M120 29.9999L93.1259 0L66.2516 30.0001L93.1256 60L120 29.9999Z" fill="#3F4243"/>
<path d="M113.224 29.9999L93.1263 7.56499L73.0287 30.0001L93.1261 52.4351L113.224 29.9999Z" fill="#EE7E4F"/>
<path d="M99.5551 30.0005L93.1255 22.823L86.6959 29.9996L93.1255 37.177L99.5551 30.0005Z" fill="#9770B1"/>
<path d="M93.1255 0H26.8744L26.8745 5.62569H93.1255V0Z" fill="#3F4243"/>
<path d="M93.1255 54.3743H26.8745V60H93.1256L93.1255 54.3743Z" fill="#3F4243"/>
</svg>
