<svg width="129" height="63" viewBox="0 0 129 63" fill="none" xmlns="http://www.w3.org/2000/svg">
<path d="M127.298 29.1501C125.964 27.6835 119.564 28.0835 118.098 29.5501C117.164 30.4835 109.031 25.9501 92.8976 15.5501C79.831 7.15013 66.0643 0.0500488 64.731 0.0500488C64.731 1.05005 64.231 1.95013 64.231 31.4168V62.6168L67.2976 62.3501C68.8976 62.0835 80.7643 55.2835 93.5643 47.2835C114.764 33.8168 117.164 32.7501 119.164 34.4835C123.564 38.3501 131.431 33.1501 127.298 29.1501ZM91.6976 46.6168C79.6976 54.0835 69.5643 60.2168 69.1643 60.2168C67.5643 60.2168 68.0976 56.4835 69.831 55.4168C70.7643 54.8835 70.8976 55.0168 70.3643 55.9501C69.6976 57.0168 70.0976 57.2835 71.431 56.7501C72.631 56.3501 73.2976 55.4168 72.8976 54.8835C72.4976 54.2168 72.8976 53.2835 73.6976 52.7501C74.7643 52.0835 74.8976 52.3501 74.231 53.5501C73.5643 54.6168 73.831 55.0168 75.031 54.6168C76.0976 54.2168 76.8976 53.2835 76.8976 52.6168C76.8976 51.8168 77.431 50.6168 78.0976 49.9501C78.7643 49.2835 78.8976 49.5501 78.3643 50.6168C77.031 52.8835 79.031 52.6168 82.231 49.9501C84.4976 48.2168 84.4976 47.9501 82.4976 48.7501C81.031 49.1501 80.3643 49.0168 80.8976 48.0835C81.431 47.2835 80.8976 46.8835 79.5643 47.1501C78.231 47.4168 76.8976 46.7501 76.631 45.9501C75.831 43.8168 79.1643 43.6835 81.1643 45.6835C82.231 46.7501 83.6976 46.4835 86.3643 44.6168C88.7643 43.1501 89.6976 42.8835 89.031 44.0835C88.231 45.2835 88.3643 45.6835 89.6976 45.2835C90.7643 44.8835 91.5643 43.9501 91.5643 43.2835C91.5643 42.4835 92.0976 41.2835 92.7643 40.6168C93.431 39.9501 93.5643 40.2168 93.031 41.2835C91.5643 43.8168 93.031 43.2835 102.364 37.4168C110.231 32.3501 110.764 31.8168 108.631 30.0835C105.431 27.6835 103.431 27.6835 105.431 30.0835C106.631 31.5501 106.231 32.4835 103.298 34.4835C97.2976 38.7501 95.6976 39.4168 96.7643 37.8168C97.431 36.7501 97.031 36.4835 95.6976 37.0168C94.4976 37.4168 93.5643 37.2835 93.5643 36.6168C93.5643 34.3501 95.2976 33.5501 97.031 35.0168C97.9643 35.8168 99.5643 35.9501 100.364 35.4168C101.564 34.7501 101.298 34.0835 99.431 33.4168C96.8976 32.4835 96.8976 32.4835 99.431 31.4168C101.164 30.7501 102.231 31.0168 102.631 31.9501C102.898 32.8835 103.698 33.2835 104.364 32.7501C105.031 32.3501 104.231 30.8835 102.631 29.4168C100.364 27.5501 100.231 27.1501 101.964 27.6835C106.231 29.2835 104.231 27.1501 95.831 21.6835C86.8976 15.9501 82.631 14.3501 88.231 19.0168C90.0976 20.4835 90.7643 21.4168 89.831 20.8835C88.8976 20.3501 87.2976 20.7501 86.231 21.5501C85.1643 22.4835 83.1643 22.7501 81.9643 22.3501C80.0976 21.5501 79.9643 21.1501 81.431 20.2168C82.4976 19.6835 84.0976 19.4168 85.1643 19.8168C88.4976 21.1501 86.8976 19.1501 82.4976 16.3501C78.631 13.9501 77.431 13.8168 74.4976 15.2835C70.0976 17.2835 69.9643 18.3501 73.831 19.4168C76.231 19.9501 76.4976 20.4835 75.1643 21.8168C73.9643 23.0168 73.031 22.7501 70.8976 20.4835C68.3643 17.8168 68.3643 17.2835 70.0976 15.5501C71.1643 14.4835 73.1643 13.5501 74.3643 13.5501C76.0976 13.5501 76.3643 13.1501 75.2976 12.0835C74.231 11.0168 73.031 11.0168 71.031 12.0835C68.7643 13.4168 68.231 13.2835 68.231 11.6835C68.231 10.3501 69.031 9.95013 70.631 10.3501C72.631 11.0168 72.631 10.8835 70.8976 9.28346C69.6976 8.35013 68.7643 6.2168 68.631 4.6168C68.4976 2.08346 70.7643 3.28346 85.9643 13.1501C95.6976 19.4168 105.831 26.0835 108.631 27.8168C111.298 29.5501 113.564 31.4168 113.564 31.9501C113.431 32.4835 103.698 39.0168 91.6976 46.6168ZM96.4976 31.5501C94.0976 31.5501 94.4976 28.8835 97.031 28.4835C98.3643 28.0835 99.031 28.6168 98.631 29.8168C98.231 30.7501 97.2976 31.5501 96.4976 31.5501ZM94.3643 39.8168C93.2976 39.4168 90.3643 40.2168 87.6976 41.6835C82.4976 44.4835 79.5643 45.0168 80.8976 42.8835C81.431 42.0835 82.3643 41.8168 83.031 42.2168C83.6976 42.7501 84.231 42.3501 84.231 41.6835C84.231 40.8835 84.8976 40.2168 85.6976 40.2168C86.631 40.2168 87.9643 39.2835 88.8976 38.0835C90.231 36.2168 90.7643 36.0835 93.2976 37.6835C96.631 39.8168 97.1643 40.8835 94.3643 39.8168ZM92.4976 28.8835C90.0976 28.8835 90.4976 26.2168 93.031 25.8168C94.3643 25.4168 95.031 25.9501 94.631 27.1501C94.231 28.0835 93.2976 28.8835 92.4976 28.8835ZM90.7643 34.0835C90.0976 33.6835 89.831 32.7501 90.3643 32.0835C90.7643 31.4168 91.6976 31.1501 92.3643 31.6835C93.031 32.0835 93.2976 33.0168 92.7643 33.6835C92.3643 34.3501 91.431 34.6168 90.7643 34.0835ZM87.431 25.5501C86.3643 25.5501 85.5643 26.2168 85.5643 26.8835C85.5643 27.6835 84.3643 28.2168 82.8976 28.2168C81.431 28.2168 80.231 27.6835 80.231 27.0168C80.231 26.3501 79.031 25.5501 77.5643 25.1501C76.0976 24.7501 75.1643 25.1501 75.2976 26.0835C75.431 26.8835 74.231 27.5501 72.7643 27.4168C70.8976 27.4168 70.0976 27.9501 70.4976 29.1501C71.2976 31.1501 74.8976 31.5501 74.8976 29.5501C74.8976 28.8835 76.0976 28.2168 77.5643 28.2168C79.031 28.2168 80.231 28.8835 80.231 29.5501C80.231 30.3501 79.031 30.8835 77.6976 30.8835C76.231 30.8835 74.8976 31.6835 74.4976 32.6168C74.0976 33.8168 73.2976 33.8168 71.431 32.7501C67.431 30.3501 67.6976 27.2835 72.0976 25.0168C76.631 22.6168 80.231 22.2168 80.231 24.2168C80.231 25.0168 81.431 25.5501 82.8976 25.5501C84.3643 25.5501 85.5643 25.0168 85.5643 24.2168C85.5643 23.5501 86.7643 22.8835 88.3643 22.8835C89.831 22.8835 90.631 23.5501 90.231 24.2168C89.831 25.0168 88.4976 25.5501 87.431 25.5501ZM85.9643 31.2835C84.4976 30.7501 84.0976 30.8835 84.7643 31.9501C85.6976 33.5501 84.0976 34.0835 80.4976 33.6835C79.5643 33.5501 79.031 34.2168 79.1643 35.1501C79.431 36.2168 78.631 36.7501 77.031 36.4835C75.6976 36.2168 75.031 36.6168 75.431 37.2835C75.831 38.0835 75.431 38.8835 74.3643 39.2835C72.4976 40.0835 67.5643 35.1501 68.8976 33.8168C69.2976 33.2835 70.231 33.8168 70.8976 34.8835C71.9643 36.6168 72.631 36.6168 75.031 35.1501C82.8976 30.2168 87.1643 28.2168 88.3643 28.8835C90.3643 30.2168 88.3643 32.2168 85.9643 31.2835ZM85.5643 36.8835C84.4976 36.2168 84.4976 35.4168 85.2976 34.6168C86.0976 33.8168 87.431 33.6835 88.231 34.2168C89.2976 34.8835 89.2976 35.6835 88.4976 36.4835C87.6976 37.2835 86.3643 37.4168 85.5643 36.8835ZM76.3643 41.8168C75.1643 41.4168 74.7643 41.6835 75.431 42.6168C76.4976 44.4835 74.631 45.6835 72.3643 44.3501C71.1643 43.5501 71.6976 42.6168 74.231 41.0168C76.0976 39.8168 78.231 39.1501 78.8976 39.5501C79.6976 39.9501 80.231 39.4168 80.231 38.3501C80.231 36.0835 81.831 35.5501 83.431 37.1501C84.7643 38.6168 78.631 42.7501 76.3643 41.8168ZM77.031 19.8168C75.831 19.2835 74.8976 18.3501 74.8976 17.5501C74.8976 16.0835 79.2976 15.6835 80.631 17.1501C82.0976 18.6168 79.2976 20.6168 77.031 19.8168ZM69.2976 53.5501C68.631 53.5501 68.231 53.0168 68.231 52.2168C68.231 51.5501 69.1643 50.8835 70.3643 50.8835C71.431 50.8835 72.0976 50.3501 71.5643 49.6835C70.631 47.9501 73.1643 46.4835 75.031 47.6835C76.0976 48.2168 75.5643 49.4168 73.431 51.0168C71.6976 52.3501 69.831 53.5501 69.2976 53.5501ZM69.5643 24.2168C68.8976 24.2168 68.231 23.6835 68.231 22.8835C68.231 22.2168 68.8976 21.5501 69.5643 21.5501C70.3643 21.5501 70.8976 22.2168 70.8976 22.8835C70.8976 23.6835 70.3643 24.2168 69.5643 24.2168ZM69.5643 42.2168C68.8976 42.6168 68.231 42.0835 68.231 40.8835C68.231 39.6835 68.8976 39.1501 69.5643 39.5501C70.3643 39.9501 70.8976 40.6168 70.8976 40.8835C70.8976 41.1501 70.3643 41.8168 69.5643 42.2168ZM69.5643 47.5501C68.8976 47.9501 68.231 47.4168 68.231 46.2168C68.231 45.0168 68.8976 44.4835 69.5643 44.8835C70.3643 45.2835 70.8976 45.9501 70.8976 46.2168C70.8976 46.4835 70.3643 47.1501 69.5643 47.5501ZM65.9643 23.2835C65.6976 22.3501 65.6976 20.7501 65.9643 19.9501C66.3643 19.0168 66.631 19.6835 66.631 21.5501C66.631 23.4168 66.3643 24.0835 65.9643 23.2835ZM65.9643 32.6168C65.6976 31.6835 65.6976 30.0835 65.9643 29.2835C66.3643 28.3501 66.631 29.0168 66.631 30.8835C66.631 32.7501 66.3643 33.4168 65.9643 32.6168ZM65.9643 44.6168C65.6976 43.6835 65.6976 41.8168 65.9643 40.6168C66.3643 39.2835 66.631 40.0835 66.631 42.2168C66.631 44.4835 66.3643 45.4168 65.9643 44.6168ZM66.0976 50.4835C65.6976 50.0835 65.5643 48.8835 65.9643 47.9501C66.3643 46.8835 66.7643 47.2835 66.7643 48.7501C66.8976 50.2168 66.4976 51.0168 66.0976 50.4835ZM65.9643 57.9501C65.6976 57.0168 65.6976 55.1501 65.9643 53.9501C66.3643 52.6168 66.631 53.4168 66.631 55.5501C66.631 57.8168 66.3643 58.7501 65.9643 57.9501Z" fill="black"/>
<path d="M1.16397 29.4834C2.4973 28.0168 8.8973 28.4168 10.364 29.8834C11.2973 30.8168 19.4306 26.2834 35.564 15.8834C48.6306 7.48344 64.2307 0.550127 64.7307 0.0501099C65.2306 -0.449907 64.2306 2.28344 64.2306 31.7501V62.625L61.164 62.6835C59.564 62.4168 47.6973 55.6168 34.8973 47.6168C13.6973 34.1501 11.2973 33.0835 9.2973 34.8168C4.8973 38.6835 -2.96937 33.4834 1.16397 29.4834ZM36.764 46.9501C48.764 54.4168 58.8973 60.5501 59.2973 60.5501C60.8973 60.5501 60.364 56.8168 58.6306 55.7501C57.6973 55.2168 57.564 55.3501 58.0973 56.2835C58.764 57.3501 58.364 57.6168 57.0306 57.0835C55.8306 56.6835 55.164 55.7501 55.564 55.2168C55.964 54.5501 55.564 53.6168 54.764 53.0835C53.6973 52.4168 53.564 52.6835 54.2306 53.8835C54.8973 54.9501 54.6306 55.3501 53.4306 54.9501C52.364 54.5501 51.564 53.6168 51.564 52.9501C51.564 52.1501 51.0306 50.9501 50.364 50.2835C49.6973 49.6168 49.564 49.8835 50.0973 50.9501C51.4306 53.2168 49.4306 52.9501 46.2306 50.2835C43.964 48.5501 43.964 48.2835 45.964 49.0835C47.4306 49.4835 48.0973 49.3501 47.564 48.4168C47.0306 47.6168 47.564 47.2168 48.8973 47.4835C50.2306 47.7501 51.564 47.0835 51.8306 46.2835C52.6306 44.1501 49.2973 44.0168 47.2973 46.0168C46.2306 47.0835 44.764 46.8168 42.0973 44.9501C39.6973 43.4835 38.764 43.2168 39.4306 44.4168C40.2306 45.6168 40.0973 46.0168 38.764 45.6168C37.6973 45.2168 36.8973 44.2835 36.8973 43.6168C36.8973 42.8168 36.364 41.6168 35.6973 40.9501C35.0306 40.2835 34.8973 40.5501 35.4306 41.6168C36.8973 44.1501 35.4306 43.6168 26.0973 37.7501C18.2306 32.6835 17.6973 32.1501 19.8306 30.4168C23.0306 28.0168 25.0306 28.0168 23.0306 30.4168C21.8306 31.8834 22.2306 32.8168 25.164 34.8168C31.164 39.0835 32.764 39.7501 31.6973 38.1501C31.0306 37.0835 31.4306 36.8168 32.764 37.3501C33.964 37.7501 34.8973 37.6168 34.8973 36.9501C34.8973 34.6835 33.164 33.8835 31.4306 35.3501C30.4973 36.1501 28.8973 36.2835 28.0973 35.7501C26.8973 35.0835 27.164 34.4168 29.0306 33.7501C31.564 32.8168 31.564 32.8168 29.0306 31.7501C27.2973 31.0834 26.2306 31.3501 25.8306 32.2835C25.564 33.2168 24.764 33.6168 24.0973 33.0835C23.4306 32.6835 24.2306 31.2168 25.8306 29.7501C28.0973 27.8834 28.2306 27.4834 26.4973 28.0168C22.2306 29.6168 24.2306 27.4834 32.6306 22.0168C41.564 16.2834 45.8306 14.6834 40.2306 19.3501C38.364 20.8168 37.6973 21.7501 38.6306 21.2168C39.564 20.6834 41.164 21.0834 42.2306 21.8834C43.2973 22.8168 45.2973 23.0834 46.4973 22.6834C48.364 21.8834 48.4973 21.4834 47.0306 20.5501C45.964 20.0168 44.364 19.7501 43.2973 20.1501C39.964 21.4834 41.564 19.4834 45.964 16.6834C49.8306 14.2834 51.0306 14.1501 53.964 15.6168C58.364 17.6168 58.4973 18.6834 54.6306 19.7501C52.2306 20.2834 51.964 20.8168 53.2973 22.1501C54.4973 23.3501 55.4306 23.0834 57.564 20.8168C60.0973 18.1501 60.0973 17.6168 58.364 15.8834C57.2973 14.8168 55.2973 13.8834 54.0973 13.8834C52.364 13.8834 52.0973 13.4834 53.164 12.4168C54.2306 11.3501 55.4306 11.3501 57.4306 12.4168C59.6973 13.7501 60.2306 13.6168 60.2306 12.0168C60.2306 10.6834 59.4306 10.2834 57.8306 10.6834C55.8306 11.3501 55.8306 11.2168 57.564 9.61678C58.764 8.68344 59.6973 6.55011 59.8306 4.95011C59.964 2.41678 57.6973 3.61678 42.4973 13.4834C32.764 19.7501 22.6306 26.4168 19.8306 28.1501C17.164 29.8834 14.8973 31.7501 14.8973 32.2835C15.0306 32.8168 24.764 39.3501 36.764 46.9501ZM31.964 31.8834C34.364 31.8834 33.964 29.2168 31.4306 28.8168C30.0973 28.4168 29.4306 28.9501 29.8306 30.1501C30.2306 31.0834 31.164 31.8834 31.964 31.8834ZM34.0973 40.1501C35.164 39.7501 38.0973 40.5501 40.764 42.0168C45.964 44.8168 48.8973 45.3501 47.564 43.2168C47.0306 42.4168 46.0973 42.1501 45.4306 42.5501C44.764 43.0835 44.2306 42.6835 44.2306 42.0168C44.2306 41.2168 43.564 40.5501 42.764 40.5501C41.8306 40.5501 40.4973 39.6168 39.564 38.4168C38.2306 36.5501 37.6973 36.4168 35.164 38.0168C31.8306 40.1501 31.2973 41.2168 34.0973 40.1501ZM35.964 29.2168C38.364 29.2168 37.964 26.5501 35.4306 26.1501C34.0973 25.7501 33.4306 26.2834 33.8306 27.4834C34.2306 28.4168 35.164 29.2168 35.964 29.2168ZM37.6973 34.4168C38.364 34.0168 38.6306 33.0835 38.0973 32.4168C37.6973 31.7501 36.764 31.4835 36.0973 32.0168C35.4306 32.4168 35.164 33.3501 35.6973 34.0168C36.0973 34.6835 37.0306 34.9501 37.6973 34.4168ZM41.0306 25.8834C42.0973 25.8834 42.8973 26.5501 42.8973 27.2168C42.8973 28.0168 44.0973 28.5501 45.564 28.5501C47.0306 28.5501 48.2306 28.0168 48.2306 27.3501C48.2306 26.6834 49.4306 25.8834 50.8973 25.4834C52.364 25.0834 53.2973 25.4834 53.164 26.4168C53.0306 27.2168 54.2306 27.8834 55.6973 27.7501C57.564 27.7501 58.364 28.2834 57.964 29.4834C57.164 31.4834 53.564 31.8834 53.564 29.8834C53.564 29.2168 52.364 28.5501 50.8973 28.5501C49.4306 28.5501 48.2306 29.2168 48.2306 29.8834C48.2306 30.6834 49.4306 31.2168 50.764 31.2168C52.2306 31.2168 53.564 32.0168 53.964 32.9501C54.364 34.1501 55.164 34.1501 57.0306 33.0835C61.0306 30.6835 60.764 27.6168 56.364 25.3501C51.8306 22.9501 48.2306 22.5501 48.2306 24.5501C48.2306 25.3501 47.0306 25.8834 45.564 25.8834C44.0973 25.8834 42.8973 25.3501 42.8973 24.5501C42.8973 23.8834 41.6973 23.2168 40.0973 23.2168C38.6306 23.2168 37.8306 23.8834 38.2306 24.5501C38.6306 25.3501 39.964 25.8834 41.0306 25.8834ZM42.4973 31.6168C43.964 31.0834 44.364 31.2168 43.6973 32.2835C42.764 33.8835 44.364 34.4168 47.964 34.0168C48.8973 33.8834 49.4306 34.5501 49.2973 35.4835C49.0306 36.5501 49.8306 37.0835 51.4306 36.8168C52.764 36.5501 53.4306 36.9501 53.0306 37.6168C52.6306 38.4168 53.0306 39.2168 54.0973 39.6168C55.964 40.4168 60.8973 35.4835 59.564 34.1501C59.164 33.6168 58.2306 34.1501 57.564 35.2168C56.4973 36.9501 55.8306 36.9501 53.4306 35.4835C45.564 30.5501 41.2973 28.5501 40.0973 29.2168C38.0973 30.5501 40.0973 32.5501 42.4973 31.6168ZM42.8973 37.2168C43.964 36.5501 43.964 35.7501 43.164 34.9501C42.364 34.1501 41.0306 34.0168 40.2306 34.5501C39.164 35.2168 39.164 36.0168 39.964 36.8168C40.764 37.6168 42.0973 37.7501 42.8973 37.2168ZM52.0973 42.1501C53.2973 41.7501 53.6973 42.0168 53.0306 42.9501C51.964 44.8168 53.8306 46.0168 56.0973 44.6835C57.2973 43.8835 56.764 42.9501 54.2306 41.3501C52.364 40.1501 50.2306 39.4835 49.564 39.8835C48.764 40.2835 48.2306 39.7501 48.2306 38.6835C48.2306 36.4168 46.6306 35.8835 45.0306 37.4835C43.6973 38.9501 49.8306 43.0835 52.0973 42.1501ZM51.4306 20.1501C52.6306 19.6168 53.564 18.6834 53.564 17.8834C53.564 16.4168 49.164 16.0168 47.8306 17.4834C46.364 18.9501 49.164 20.9501 51.4306 20.1501ZM59.164 53.8835C59.8306 53.8835 60.2306 53.3501 60.2306 52.5501C60.2306 51.8835 59.2973 51.2168 58.0973 51.2168C57.0306 51.2168 56.364 50.6835 56.8973 50.0168C57.8306 48.2835 55.2973 46.8168 53.4306 48.0168C52.364 48.5501 52.8973 49.7501 55.0306 51.3501C56.764 52.6835 58.6306 53.8835 59.164 53.8835ZM58.8973 24.5501C59.564 24.5501 60.2306 24.0168 60.2306 23.2168C60.2306 22.5501 59.564 21.8834 58.8973 21.8834C58.0973 21.8834 57.564 22.5501 57.564 23.2168C57.564 24.0168 58.0973 24.5501 58.8973 24.5501ZM58.8973 42.5501C59.564 42.9501 60.2306 42.4168 60.2306 41.2168C60.2306 40.0168 59.564 39.4835 58.8973 39.8835C58.0973 40.2835 57.564 40.9501 57.564 41.2168C57.564 41.4835 58.0973 42.1501 58.8973 42.5501ZM58.8973 47.8835C59.564 48.2835 60.2306 47.7501 60.2306 46.5501C60.2306 45.3501 59.564 44.8168 58.8973 45.2168C58.0973 45.6168 57.564 46.2835 57.564 46.5501C57.564 46.8168 58.0973 47.4835 58.8973 47.8835ZM62.4973 23.6168C62.764 22.6834 62.764 21.0834 62.4973 20.2834C62.0973 19.3501 61.8306 20.0168 61.8306 21.8834C61.8306 23.7501 62.0973 24.4168 62.4973 23.6168ZM62.4973 32.9501C62.764 32.0168 62.764 30.4168 62.4973 29.6168C62.0973 28.6834 61.8306 29.3501 61.8306 31.2168C61.8306 33.0834 62.0973 33.7501 62.4973 32.9501ZM62.4973 44.9501C62.764 44.0168 62.764 42.1501 62.4973 40.9501C62.0973 39.6168 61.8306 40.4168 61.8306 42.5501C61.8306 44.8168 62.0973 45.7501 62.4973 44.9501ZM62.364 50.8168C62.764 50.4168 62.8973 49.2168 62.4973 48.2835C62.0973 47.2168 61.6973 47.6168 61.6973 49.0835C61.564 50.5501 61.964 51.3501 62.364 50.8168ZM62.4973 58.2835C62.764 57.3501 62.764 55.4835 62.4973 54.2835C62.0973 52.9501 61.8306 53.7501 61.8306 55.8835C61.8306 58.1501 62.0973 59.0835 62.4973 58.2835Z" fill="black"/>
</svg>
