<svg width="60" height="60" viewBox="0 0 60 60" fill="none" xmlns="http://www.w3.org/2000/svg">
<path d="M59.9944 23.9185L58.7013 22.6252L52.6203 28.7067L42.6019 18.6874L48.6828 12.6059L47.3897 11.3126L41.3088 17.3941L31.2903 7.37477L37.3712 1.29328L36.0781 0L29.9973 6.08149L23.9163 0.000108103L22.6231 1.29328L28.704 7.37466L18.6856 17.3941L12.6048 11.3127L11.3116 12.606L17.3925 18.6874L7.37398 28.7067L1.29321 22.6253L0 23.9186L6.08084 30L0 36.0814L1.29321 37.3747L7.37405 31.2933L17.3925 41.3126L11.3116 47.394L12.6048 48.6873L18.6856 42.6059L28.704 52.6252L22.6231 58.7066L23.9162 59.9999L29.9971 53.9185L36.0781 60L37.3712 58.7067L31.2903 52.6252L41.3088 42.6058L47.3897 48.6873L48.6828 47.394L42.6019 41.3125L52.6204 31.2932L58.7012 37.3747L59.9943 36.0814L53.9134 29.9999L59.9944 23.9185ZM29.9971 51.3319L8.66712 29.9999L29.9973 8.66783L51.3273 29.9999L29.9971 51.3319Z" fill="#3F4243"/>
<path d="M0 23.9186V36.0814L6.08084 30L0 23.9186Z" fill="#A8C4BC"/>
<path d="M11.3103 12.6185V24.7813L17.3912 18.6999L11.3103 12.6185Z" fill="#A8C4BC"/>
<path d="M22.6218 1.31099V13.4739L28.7027 7.39238L22.6218 1.31099Z" fill="#A8C4BC"/>
<path d="M60 23.9185V36.0813L53.9192 29.9999L60 23.9185Z" fill="#A8C4BC"/>
<path d="M48.6897 12.6185V24.7813L42.6087 18.6999L48.6897 12.6185Z" fill="#A8C4BC"/>
<path d="M37.3782 1.31099V13.4739L31.2973 7.39238L37.3782 1.31099Z" fill="#A8C4BC"/>
<path d="M48.6897 47.4001V35.2373L42.6088 41.3187L48.6897 47.4001Z" fill="#A8C4BC"/>
<path d="M37.3782 58.7076V46.5447L31.2973 52.6262L37.3782 58.7076Z" fill="#A8C4BC"/>
<path d="M11.3103 47.4001V35.2373L17.3912 41.3187L11.3103 47.4001Z" fill="#A8C4BC"/>
<path d="M22.6218 58.7076V46.5447L28.7027 52.6262L22.6218 58.7076Z" fill="#A8C4BC"/>
<path d="M29.9973 8.66783L8.66712 29.9999L29.9971 51.3319L51.3273 29.9999L29.9973 8.66783ZM19.7134 29.9999L29.9972 19.7151L40.281 29.9999L29.9971 40.2847L19.7134 29.9999Z" fill="#EE7E4F"/>
<path d="M29.9972 36.6889L23.3088 29.9999L29.9972 23.3109L36.6855 29.9999L29.9972 36.6889Z" fill="#A8C4BC"/>
</svg>
