<svg width="60" height="60" viewBox="0 0 60 60" fill="none" xmlns="http://www.w3.org/2000/svg">
<path d="M30 0L0 30L30 60L60 30L30 0ZM3.72148 30.0001L30.0001 3.7215L56.2786 30.0001L30 56.2786L3.72148 30.0001Z" fill="#1A1A1A"/>
<path d="M29.9997 51.2247L8.77525 30.0001L29.9998 8.77549L51.2243 30.0002L29.9997 51.2247ZM12.4966 30.0001L29.9996 47.5032L47.5028 30.0001L29.9998 12.4969L12.4966 30.0001Z" fill="#333333"/>
<path d="M42.2687 30.0013L38.5775 27.0648V29.381H36.315V23.6807H30.5459V21.3494H32.8621L29.9248 17.6583L26.9883 21.3494H29.3045V23.6807H23.6759V29.381H21.3269V27.0649L17.6357 30.0021L21.3269 32.9386V30.6225H23.6758V36.3199H29.3045V38.654H26.9883L29.9256 42.3453L32.8621 38.6541H30.5459V36.3199H36.315V30.6226H38.5775V32.9387L42.2687 30.0013ZM33.6835 33.6884L26.3073 33.6883L26.3073 26.3121L33.6836 26.3122L33.6835 33.6884Z" fill="#1A1A1A"/>
</svg>
