<svg width="60" height="60" viewBox="0 0 60 60" fill="none" xmlns="http://www.w3.org/2000/svg">
<path d="M35.6387 0.986984L34.6517 0L30 4.65169L25.3483 0L24.3613 0.986984L29.013 5.63868L23.9097 10.742L19.258 6.09032L18.271 7.0773L22.9227 11.729L17.8193 16.8323L13.1676 12.1806L12.1807 13.1676L16.8324 17.8193L11.729 22.9227L7.07731 18.271L6.09033 19.258L10.742 23.9096L5.63868 29.013L0.986986 24.3613L0 25.3483L4.6517 30L0 34.6517L0.986986 35.6386L5.63868 30.9869L10.742 36.0903L6.09033 40.7421L7.07731 41.729L11.729 37.0773L16.8324 42.1807L12.1807 46.8324L13.1676 47.8194L17.8193 43.1677L22.9227 48.271L18.271 52.9227L19.258 53.9097L23.9097 49.258L29.013 54.3613L24.3613 59.013L25.3483 60L30 55.3483L34.6517 60L35.6387 59.013L30.987 54.3613L36.0903 49.258L40.742 53.9097L41.729 52.9227L37.0773 48.271L42.1807 43.1677L46.8324 47.8194L47.8193 46.8324L43.1676 42.1807L48.271 37.0773L52.9227 41.729L53.9097 40.7421L49.258 36.0904L54.3613 30.987L59.013 35.6387L60 34.6517L55.3483 30L60 25.3483L59.013 24.3614L54.3613 29.0131L49.258 23.9097L53.9097 19.258L52.9227 18.271L48.271 22.9227L43.1676 17.8194L47.8193 13.1677L46.8324 12.1807L42.1807 16.8324L37.0773 11.7291L41.729 7.07738L40.742 6.0904L36.0903 10.7421L30.987 5.63875L35.6387 0.986984ZM53.3744 30L30 53.3743L6.62559 30L30 6.62566L53.3744 30Z" fill="#3F4243"/>
<path d="M16.8855 27.3699H11.6253V32.6301H16.8855V27.3699Z" fill="#A8C4BC"/>
<path d="M22.1456 22.1098H16.8855V27.3699H22.1456V22.1098Z" fill="#A8C4BC"/>
<path d="M27.3342 27.3699H22.074V32.6301H27.3342V27.3699Z" fill="#EE7E4F"/>
<path d="M37.9261 27.3699H32.6659V32.6301H37.9261V27.3699Z" fill="#EE7E4F"/>
<path d="M43.1863 22.1098H37.9261V27.3699H43.1863V22.1098Z" fill="#A8C4BC"/>
<path d="M48.3747 27.3699H43.1145V32.6301H48.3747V27.3699Z" fill="#A8C4BC"/>
<path d="M32.5943 22.1098H27.3342V27.3699H32.5943V22.1098Z" fill="#EE7E4F"/>
<path d="M27.3342 16.8496H22.074V22.1098H27.3342V16.8496Z" fill="#A8C4BC"/>
<path d="M37.9261 16.8496H32.6659V22.1098H37.9261V16.8496Z" fill="#A8C4BC"/>
<path d="M32.5943 11.5895H27.3342V16.8497H32.5943V11.5895Z" fill="#A8C4BC"/>
<path d="M43.1863 32.6301H37.9261V37.8903H43.1863V32.6301Z" fill="#A8C4BC"/>
<path d="M22.1456 32.6301H16.8855V37.8903H22.1456V32.6301Z" fill="#A8C4BC"/>
<path d="M32.7376 32.6301H27.4774V37.8903H32.7376V32.6301Z" fill="#EE7E4F"/>
<path d="M37.9977 37.8902L32.7376 37.8903V43.1504H37.9977V37.8902Z" fill="#A8C4BC"/>
<path d="M27.4058 37.8902L22.1456 37.8903V43.1504H27.4058V37.8902Z" fill="#A8C4BC"/>
<path d="M32.7376 43.1504H27.4774V48.4106H32.7376V43.1504Z" fill="#A8C4BC"/>
</svg>
