<svg width="60" height="60" viewBox="0 0 60 60" fill="none" xmlns="http://www.w3.org/2000/svg">
<path d="M22.0003 30L28.5994 40.3174L28.5996 19.6824L22.0003 30Z" fill="#F04E57"/>
<path d="M18.9032 29.9998L28.5994 14.8406L28.5996 0L9.4109 30L28.599 59.9998L28.5991 45.1591L18.9032 29.9998Z" fill="#00ADA2"/>
<path d="M37.6687 30L31.0696 19.6826L31.0694 40.3174L37.6687 30Z" fill="#F04E57"/>
<path d="M40.7658 30L31.0695 45.1593L31.0694 60L50.2581 29.9998L31.07 0L31.0699 14.8406L40.7658 30Z" fill="#00ADA2"/>
<path d="M40.8119 0H35.6109L54.7989 29.9998L35.6103 59.9998H40.8119V59.999L60 29.9998L40.8119 0Z" fill="#005E7C"/>
<path d="M19.1881 59.9998L24.3891 60L5.20105 30.0002L24.3897 0.000191762H19.188V0.00115057L0 30L19.1881 59.9998Z" fill="#005E7C"/>
</svg>
