<svg width="120" height="60" viewBox="0 0 120 60" fill="none" xmlns="http://www.w3.org/2000/svg">
<path d="M89.1055 20.9174V6.95934H81.0207V13.9384H73.34V0H65.2552V13.9384H54.7449V0H46.6601V13.9384H38.9796V6.95934H30.8946V20.9174H38.9796V39.0629H30.8946V53.021H38.9796V46.042H46.6601V60H54.7449V46.042H65.2552V60H73.34V46.042H81.0207V53.021H89.1055V39.0629H81.0207V20.9174H89.1055Z" fill="#F04E57"/>
<path d="M0 29.99L12.0997 50.8795V9.10082L0 29.99Z" fill="#00A0B9"/>
<path d="M13.4817 29.99L25.5814 50.8795V9.10082L13.4817 29.99Z" fill="#00A0B9"/>
<path d="M120 29.9903L107.9 9.10103L107.901 50.8795L120 29.9903Z" fill="#00A0B9"/>
<path d="M106.519 29.9903L94.419 9.10103V50.8798L106.519 29.9903Z" fill="#00A0B9"/>
</svg>
