<svg width="60" height="60" viewBox="0 0 60 60" fill="none" xmlns="http://www.w3.org/2000/svg">
<path d="M14.7967 28.905H44.761L49.639 19.27H37.4439L42.322 9.635H30.1268L35.0049 0H24.5528L29.4309 9.635H17.2357L22.1137 19.27H9.91865L14.7967 28.905Z" fill="#B03830"/>
<path d="M44.761 31.095H14.7967L9.91865 40.73H22.1137L17.2357 50.365H29.4309L24.5528 60H35.0049L30.1268 50.365H42.322L37.4439 40.73H49.639L44.761 31.095Z" fill="#B03830"/>
<path d="M30.1268 28.905H29.4308L24.5528 19.27H35.0049L30.1268 28.905Z" fill="#FFCF84"/>
<path d="M30.1268 31.095H29.4308L24.5528 40.73H35.0049L30.1268 31.095Z" fill="#FFCF84"/>
<path d="M12.0324 28.905L7.15435 19.27H0L4.878 28.905H12.0324Z" fill="#FFCF84"/>
<path d="M55.1219 28.905L60 19.27H52.8455L47.9675 28.905H55.1219Z" fill="#FFCF84"/>
<path d="M4.878 31.095L0 40.73H7.15435L12.0324 31.095H4.878Z" fill="#FFCF84"/>
<path d="M47.9675 31.095L52.8455 40.73H60L55.1219 31.095H47.9675Z" fill="#FFCF84"/>
</svg>
