<svg width="61" height="61" viewBox="0 0 61 61" fill="none" xmlns="http://www.w3.org/2000/svg">
<path d="M27.9998 3.46666C26.3998 7.73332 26.3998 7.99999 27.9998 7.99999C28.7998 7.99999 29.3331 6.93332 29.4665 5.59999C29.4665 3.86666 29.7331 3.99999 30.6665 6.26666C31.8665 9.19999 34.6665 10.5333 34.6665 8.26666C34.6665 6.26666 31.3331 -1.14441e-05 30.2665 -1.14441e-05C29.7331 -1.14441e-05 28.6665 1.59999 27.9998 3.46666Z" fill="black"/>
<path d="M6.93352 2.93357C5.06685 4.80024 4.80019 17.3336 6.66685 17.3336C7.46685 17.3336 8.00019 15.2002 8.00019 12.6669C8.00019 9.46691 8.66685 8.00024 10.0002 8.00024C12.0002 8.00024 22.6669 20.5336 26.1335 27.0669C28.1335 30.6669 28.0002 31.2002 23.4669 37.7336C20.8002 41.6002 16.5335 47.0669 14.1335 50.0002C9.33352 55.6002 9.33352 55.6002 7.20019 47.3336C6.13352 43.6002 6.00019 43.7336 5.60019 49.7336C5.20019 56.2669 6.80019 60.0002 10.1335 60.0002C11.0669 60.0002 16.1335 54.9336 21.4669 48.6669C26.6669 42.4002 31.4669 37.7336 32.1335 38.1336C32.8002 38.5336 36.1335 43.0669 39.4669 48.1336C48.2669 61.4669 53.2002 63.2002 55.7335 53.6002L57.0669 48.6669L57.2002 53.6002C57.3335 59.4669 59.8669 61.8669 60.1335 56.4002C60.4002 51.3336 59.8669 46.1336 59.0669 45.3336C58.8002 45.0669 58.0002 45.6002 57.3335 46.6669C56.2669 48.4002 56.0002 48.2669 56.0002 46.2669C56.0002 44.9336 55.4669 44.2669 54.6669 44.6669C54.0002 45.0669 53.3335 46.8002 53.3335 48.4002C53.3335 50.0002 52.6669 52.2669 52.0002 53.3336C50.8002 55.0669 50.0002 54.6669 46.9335 51.0669C44.9335 48.8002 41.2002 42.9336 38.6669 38.2669L34.0002 29.6002L41.3335 18.8002C49.2002 7.06691 51.7335 5.86691 53.8669 13.0669C56.2669 21.3336 61.6002 15.8669 60.2669 6.26691C59.8669 4.26691 59.2002 2.66691 58.5335 2.66691C57.8669 2.66691 57.3335 4.26691 57.3335 6.26691V10.0002L54.6669 5.60024C53.2002 3.33358 51.4669 1.33358 50.8002 1.33358C49.0669 1.33358 42.8002 8.80024 37.4669 17.0669C35.0669 20.8002 32.5335 24.0002 32.0002 24.0002C31.3335 24.0002 27.0669 19.4669 22.5335 13.8669C15.3335 5.33358 11.0669 1.33358 9.06685 1.33358C8.80019 1.33358 7.86685 2.00024 6.93352 2.93357Z" fill="black"/>
<path d="M0 9.20015C0 12.9335 0.533333 16.2668 1.33333 16.6668C2.93333 17.6002 4.26667 12.4002 3.46667 8.00015C3.2 6.13349 2.8 4.26682 2.8 3.60015C2.66667 3.06682 2.13333 2.66682 1.33333 2.66682C0.666667 2.66682 0 5.60015 0 9.20015Z" fill="black"/>
<path d="M28.3998 13.4667C26.2664 15.6001 27.7331 18.6667 30.6664 18.6667C33.7331 18.6667 34.9331 16.9334 33.8664 14.1334C32.9331 11.6001 30.5331 11.3334 28.3998 13.4667Z" fill="black"/>
<path d="M18.6667 28.6668C16.6667 31.0668 18.0001 33.3335 21.3334 33.3335C22.6667 33.3335 24.2667 32.6668 24.6667 32.0002C25.6001 30.5335 23.0667 26.6668 21.3334 26.6668C20.8001 26.6668 19.6001 27.6002 18.6667 28.6668Z" fill="black"/>
<path d="M38.1333 28.8002C37.0666 31.6002 38.2666 33.3335 41.3333 33.3335C42.6666 33.3335 44.1333 32.8002 44.5333 32.1335C45.8666 30.0002 43.8666 26.6668 41.3333 26.6668C40 26.6668 38.5333 27.6002 38.1333 28.8002Z" fill="black"/>
<path d="M27.9998 43.3334C26.7998 44.8001 26.6665 45.8668 27.5998 46.8001C29.8665 49.0668 33.9998 47.6001 33.9998 44.6668C33.9998 41.3334 30.2665 40.5334 27.9998 43.3334Z" fill="black"/>
<path d="M0.666873 45.4668C-0.533127 48.6668 0.400207 59.3335 2.00021 59.3335C3.86687 59.3335 4.40021 50.6668 2.80021 46.6668C1.86687 43.8668 1.46687 43.7335 0.666873 45.4668Z" fill="black"/>
<path d="M26.2666 52.8002C25.8666 53.3335 26.3999 55.0668 27.5999 56.9335L29.8666 60.2668L32.2666 57.0668C35.0666 53.3335 35.3332 52.0002 32.7999 52.0002C31.7332 52.0002 30.5332 53.0668 30.2666 54.2668C29.7332 56.5335 29.5999 56.5335 29.4666 54.2668C29.3332 52.0002 27.8666 51.3335 26.2666 52.8002Z" fill="black"/>
</svg>
