<svg width="60" height="60" viewBox="0 0 60 60" fill="none" xmlns="http://www.w3.org/2000/svg">
<path d="M60 25.7143H55.7142V21.4286H51.4286V17.1429H47.1428V12.8572H42.8572V8.57147H38.5714V4.28574H34.2857V7.63307e-05L25.7142 0V4.28574H21.4286V8.57147H17.1429V12.8572H12.8572V17.1429H8.57142V21.4286H4.28574V25.7143H0V34.2857H4.28574V38.5715H8.57142V42.8571H12.8572V47.1429H17.1429V51.4286H21.4286V55.7143H25.7143V60H34.2857V55.7143H38.5715V51.4286H42.8572V47.1429H47.1428V42.8571H51.4286V38.5715H55.7142V34.2857H60V25.7143Z" fill="#005E7C"/>
<path d="M60 25.7143H55.7142V21.4286H51.4286V17.1429H47.1428V12.8572H42.8572V8.57147H38.5714V4.28574H34.2857V7.63307e-05L25.7142 0V4.28574H21.4286V8.57147H17.1429V12.8572H12.8572V17.1429H8.57142V21.4286H4.28574V25.7143H0V34.2857H4.28574V38.5715H8.57142V42.8571H12.8572V47.1429H17.1429V51.4286H21.4286V55.7143H25.7143V60H34.2857V55.7143H38.5715V51.4286H42.8572V47.1429H47.1428V42.8571H51.4286V38.5715H55.7142V34.2857H60V25.7143Z" fill="#005E7C"/>
<path d="M51.5815 26.917H48.4984V23.8339H45.4154V20.7509H42.3323V17.6678H39.2492V14.5847H36.1661V11.5016H33.083V8.41859H26.9169V11.5016H23.8339V14.5847H20.7508V17.6678H17.6678V20.7509H14.5847V23.8339H11.5016V26.917H8.41853V33.0831H11.5016V36.1662H14.5847V39.2492H17.6678V42.3323H20.7508V45.4154H23.8339V48.4984H26.9169V51.5815H33.083V48.4984H36.1661V45.4154H39.2492V42.3323H42.3323V39.2492H45.4154V36.1662H48.4984V33.0831H51.5815V26.917Z" fill="#C2B59B"/>
<path d="M29.9976 18.5466L18.5468 29.9974L29.9979 41.4485L41.4488 29.9977L29.9976 18.5466Z" fill="#FFFBD0"/>
<path d="M30.0001 18.5493L18.5489 30L41.4512 30.0006L30.0001 18.5493Z" fill="#84B89D"/>
</svg>
