<svg width="60" height="60" viewBox="0 0 60 60" fill="none" xmlns="http://www.w3.org/2000/svg">
<path d="M7.32258 27.7057H2.74173V32.2942H7.32258V27.7057Z" fill="#9770B1"/>
<path d="M9.19651 35.0404H0.867646C0.388524 35.0404 0 34.6513 0 34.1714V25.8286C0 25.3486 0.388524 24.9595 0.867646 24.9595H9.19651C9.67564 24.9595 10.0642 25.3486 10.0642 25.8286V34.1713C10.0642 34.6513 9.67564 35.0404 9.19651 35.0404ZM1.73528 33.3022H8.32888V26.6977H1.73528V33.3022Z" fill="#4A4B4C"/>
<path d="M39.4942 29.9999L29.9814 15.7134L20.4686 30L29.9814 44.2866L39.4942 29.9999Z" fill="#EE7E4F"/>
<path d="M30.5759 28.0333L33.1881 24.1104L33.9032 25.1842L31.291 29.1072L30.5759 28.0333Z" fill="#9770B1"/>
<path d="M26.0597 34.8159L28.6717 30.8931L29.3868 31.9669L26.7747 35.8898L26.0597 34.8159Z" fill="#9770B1"/>
<path d="M26.0597 25.1842L26.7747 24.1104L29.3868 28.0333L28.6717 29.1072L26.0597 25.1842Z" fill="#9770B1"/>
<path d="M30.5759 31.9669L31.291 30.8931L33.9031 34.816L33.188 35.8898L30.5759 31.9669Z" fill="#9770B1"/>
<path d="M29.2663 30.0001L29.9814 28.9262L30.6964 30.0001L29.9814 31.074L29.2663 30.0001Z" fill="#9770B1"/>
<path d="M15.6826 19.363H11.1018V23.9515H15.6826V19.363Z" fill="#9770B1"/>
<path d="M17.5566 26.6977H9.22776C8.74856 26.6977 8.36012 26.3086 8.36012 25.8286V17.4859C8.36012 17.0059 8.74856 16.6169 9.22776 16.6169H17.5566C18.0358 16.6169 18.4243 17.006 18.4243 17.4859V25.8286C18.4243 26.3086 18.0358 26.6977 17.5566 26.6977ZM10.0955 24.9595H16.6891V18.355H10.0955V24.9595Z" fill="#4A4B4C"/>
<path d="M24.0115 11.0203H19.4306V15.6088H24.0115V11.0203Z" fill="#9770B1"/>
<path d="M25.8855 18.355H17.5566C17.0774 18.355 16.689 17.9659 16.689 17.4859V9.14319C16.689 8.66318 17.0774 8.27414 17.5566 8.27414H25.8855C26.3647 8.27414 26.7532 8.66325 26.7532 9.14319V17.4859C26.7531 17.9659 26.3647 18.355 25.8855 18.355ZM18.4243 16.6168H25.0179V10.0122H18.4243V16.6168Z" fill="#4A4B4C"/>
<path d="M32.2719 2.74612H27.691V7.33464H32.2719V2.74612Z" fill="#9770B1"/>
<path d="M34.1459 10.0808H25.817C25.3378 10.0808 24.9494 9.69172 24.9494 9.21178V0.869055C24.9494 0.38904 25.3378 0 25.817 0H34.1459C34.625 0 35.0135 0.389115 35.0135 0.869055V9.21178C35.0135 9.69172 34.625 10.0808 34.1459 10.0808ZM26.6846 8.34265H33.2782V1.73811H26.6846V8.34265Z" fill="#4A4B4C"/>
<path d="M24.0115 44.3911H19.4306V48.9797H24.0115V44.3911Z" fill="#9770B1"/>
<path d="M25.8855 51.7259H17.5566C17.0774 51.7259 16.689 51.3367 16.689 50.8568V42.5141C16.689 42.0341 17.0774 41.645 17.5566 41.645H25.8855C26.3647 41.645 26.7532 42.0341 26.7532 42.5141V50.8568C26.7531 51.3367 26.3647 51.7259 25.8855 51.7259ZM18.4243 49.9877H25.0179V43.3831H18.4243V49.9877Z" fill="#4A4B4C"/>
<path d="M32.2719 52.6653H27.691V57.2538H32.2719V52.6653Z" fill="#9770B1"/>
<path d="M34.1459 60H25.817C25.3378 60 24.9494 59.6109 24.9494 59.1309V50.7881C24.9494 50.3081 25.3378 49.9191 25.817 49.9191H34.1459C34.625 49.9191 35.0135 50.3082 35.0135 50.7881V59.1309C35.0135 59.6109 34.625 60 34.1459 60ZM26.6846 58.2618H33.2782V51.6572H26.6846V58.2618Z" fill="#4A4B4C"/>
<path d="M15.6826 36.0484H11.1018V40.6369H15.6826V36.0484Z" fill="#9770B1"/>
<path d="M17.5566 43.3831H9.22776C8.74856 43.3831 8.36012 42.994 8.36012 42.5141V34.1713C8.36012 33.6913 8.74856 33.3022 9.22776 33.3022H17.5566C18.0358 33.3022 18.4243 33.6913 18.4243 34.1713V42.514C18.4243 42.994 18.0358 43.3831 17.5566 43.3831ZM10.0955 41.645H16.6891V35.0404H10.0955V41.645Z" fill="#4A4B4C"/>
<path d="M57.2584 27.7057H52.6776V32.2942H57.2584V27.7057Z" fill="#9770B1"/>
<path d="M59.1324 35.0404H50.8035C50.3244 35.0404 49.9358 34.6513 49.9358 34.1714V25.8286C49.9358 25.3486 50.3243 24.9596 50.8035 24.9596H59.1324C59.6115 24.9596 60 25.3487 60 25.8286V34.1714C60 34.6513 59.6116 35.0404 59.1324 35.0404ZM51.6712 33.3022H58.2648V26.6977H51.6712V33.3022Z" fill="#4A4B4C"/>
<path d="M48.9295 36.0484H44.3487V40.6369H48.9295V36.0484Z" fill="#9770B1"/>
<path d="M50.8036 43.3831H42.4747C41.9956 43.3831 41.607 42.994 41.607 42.5141V34.1713C41.607 33.6913 41.9955 33.3022 42.4747 33.3022H50.8036C51.2827 33.3022 51.6712 33.6913 51.6712 34.1713V42.514C51.6712 42.994 51.2827 43.3831 50.8036 43.3831ZM43.3423 41.645H49.9359V35.0404H43.3423V41.645Z" fill="#4A4B4C"/>
<path d="M40.6007 44.3911H36.0199V48.9797H40.6007V44.3911Z" fill="#9770B1"/>
<path d="M42.4747 51.7259L34.1458 51.7258C33.6666 51.7258 33.2782 51.3367 33.2782 50.8567V42.514C33.2782 42.034 33.6666 41.645 34.1458 41.645H42.4747C42.9538 41.645 43.3423 42.0341 43.3423 42.514V50.8567C43.3423 51.0873 43.2509 51.3083 43.0882 51.4713C42.9255 51.6343 42.7048 51.7259 42.4747 51.7259ZM35.0135 49.9877H41.6071V43.3831H35.0135V49.9877Z" fill="#4A4B4C"/>
<path d="M40.6007 11.0203H36.0199V15.6088H40.6007V11.0203Z" fill="#9770B1"/>
<path d="M42.4747 18.355H34.1459C33.6667 18.355 33.2782 17.9659 33.2782 17.4859V9.14319C33.2782 8.66318 33.6667 8.27414 34.1459 8.27414H42.4747C42.9538 8.27414 43.3423 8.66325 43.3423 9.14319V17.4859C43.3423 17.9659 42.9539 18.355 42.4747 18.355ZM35.0135 16.6168H41.6071V10.0122H35.0135V16.6168Z" fill="#4A4B4C"/>
<path d="M48.9295 19.363H44.3487V23.9515H48.9295V19.363Z" fill="#9770B1"/>
<path d="M50.8036 26.6977H42.4747C41.9956 26.6977 41.607 26.3086 41.607 25.8286V17.4859C41.607 17.0059 41.9955 16.6169 42.4747 16.6169H50.8036C51.2827 16.6169 51.6712 17.006 51.6712 17.4859V25.8286C51.6712 26.3086 51.2827 26.6977 50.8036 26.6977ZM43.3423 24.9595H49.9359V18.355H43.3423V24.9595Z" fill="#4A4B4C"/>
</svg>
