<svg width="188" height="95" viewBox="0 0 188 95" fill="none" xmlns="http://www.w3.org/2000/svg">
<path d="M81.5206 6.93021C77.4808 10.7953 74.0874 14.6603 74.0874 15.5932C74.0874 17.5924 85.3988 18.9252 95.9022 18.2588C100.427 17.859 105.598 17.5924 107.698 17.4591C109.637 17.3258 111.253 16.5262 111.253 15.5932C111.253 13.1942 94.6095 -0.000207901 91.5392 -0.000207901C90.0849 -0.000207901 85.5604 3.19845 81.5206 6.93021Z" fill="black"/>
<path d="M127.251 26.2555C125.635 29.7207 126.766 68.5044 128.544 70.9034C130.321 73.5689 136.461 71.1699 148.581 62.9067C167.487 50.2454 171.204 47.18 170.072 44.781C169.426 43.315 145.834 30.3871 130.967 23.4566C129.675 22.7902 128.382 23.8565 127.251 26.2555ZM150.843 40.916L161.023 47.18L151.166 53.7106C134.522 64.6393 135.492 65.0392 135.492 47.8464C135.492 30.7869 134.684 31.0534 150.843 40.916Z" fill="black"/>
<path d="M43.3848 27.5886C29.488 35.5853 17.5303 44.6481 17.5303 47.447C17.5303 51.0454 43.708 70.6372 48.3941 70.6372C51.1412 70.6372 51.4644 69.3044 51.626 55.5769C51.626 47.447 51.9492 37.3179 51.9492 33.3196C52.2723 25.0564 50.1716 23.7236 43.3848 27.5886ZM43.2232 48.6465C43.0616 54.1108 42.5769 58.6422 41.9305 58.6422C41.4457 58.509 37.7291 56.11 33.6894 53.1779L26.4178 47.9801L32.8814 43.3154C42.5769 36.5182 43.5464 37.0513 43.2232 48.6465Z" fill="black"/>
<path d="M74.4106 48.9129C74.8953 66.239 75.0569 67.3052 78.1271 67.3052C81.1974 67.3052 81.359 66.3722 81.359 49.3127C81.359 31.5869 81.359 31.3203 77.6424 30.9205L73.9258 30.5206L74.4106 48.9129Z" fill="black"/>
<path d="M101.073 31.5866C100.427 31.9864 99.9419 39.983 99.9419 49.3125C99.9419 66.1054 101.073 69.8372 105.759 68.3711C107.537 67.838 108.021 63.7064 108.021 49.1792C108.021 32.1197 107.86 30.6536 105.113 30.6536C103.497 30.6536 101.558 31.0535 101.073 31.5866Z" fill="black"/>
<path d="M0.401825 45.9808C-0.890903 48.6463 1.04819 50.6455 4.60319 50.6455C8.64297 50.6455 10.2589 48.3798 7.83501 45.9808C5.24955 43.4485 1.53296 43.4485 0.401825 45.9808Z" fill="black"/>
<path d="M179.606 46.1137C179.121 47.1799 179.444 48.7793 180.414 49.5789C182.999 51.7114 187.201 49.8455 187.201 46.6468C187.201 43.4482 181.06 42.9151 179.606 46.1137Z" fill="black"/>
<path d="M75.2185 79.5666C74.5722 79.9665 74.0874 80.8994 74.0874 81.4325C74.0874 83.0318 92.9935 94.627 95.4174 94.627C96.5485 94.627 101.073 91.8281 105.274 88.4962C116.747 79.8332 115.293 78.6337 93.8015 78.6337C84.106 78.6337 75.7033 79.0335 75.2185 79.5666Z" fill="black"/>
</svg>
