<svg width="139" height="58" viewBox="0 0 139 58" fill="none" xmlns="http://www.w3.org/2000/svg">
<path d="M19.4948 9.89687C2.72788 23.3014 0.332615 25.8069 0.0508191 30.1915C-0.090079 32.3212 0.0508191 33.6993 0.614411 33.3234C1.88249 32.196 5.12315 35.2026 4.13686 36.7059C3.71417 37.3323 3.85507 37.7081 4.55956 37.207C5.26405 36.8312 11.4636 41.2158 18.3676 47.1038C25.2716 52.8665 31.8938 57.627 33.1619 57.627C34.4299 57.627 38.6569 54.8709 42.4611 51.3632C46.4063 47.9807 50.3514 45.2246 51.1968 45.0994C52.1831 45.0994 55.9873 47.8554 59.6507 51.3632C63.314 54.7456 67.541 57.627 68.95 57.627C70.3589 57.627 75.1495 54.4951 79.6582 50.7368L87.6894 43.9719L95.2979 50.7368C99.5248 54.4951 104.034 57.627 105.161 57.627C107.979 57.627 138.976 31.319 138.976 29.0641C138.976 26.0574 131.509 18.5409 119.251 9.14521C112.628 4.13418 106.852 7.62939e-05 106.288 7.62939e-05C105.865 7.62939e-05 101.216 3.13197 96.1433 7.01552L86.844 14.1562L78.531 7.01552C73.8814 3.13197 69.5136 7.62939e-05 68.8091 7.62939e-05C68.1046 7.62939e-05 63.8776 3.13197 59.3689 6.89025C55.0011 10.6485 50.915 13.7804 50.3514 13.7804C49.7878 13.7804 45.9836 10.6485 41.7566 6.89025C37.5297 3.13197 33.5846 7.62939e-05 33.021 7.62939e-05C32.3165 7.62939e-05 26.2579 4.38473 19.4948 9.89687ZM124.605 24.5541L129.254 28.4377L117.137 38.2092C105.161 47.9807 105.161 47.9807 102.061 45.6005C93.6071 38.9609 93.748 39.462 98.9612 34.952C101.638 32.6971 103.752 30.1915 103.752 29.3146C103.752 28.4377 101.357 26.0574 98.5386 23.9278L93.3253 20.0442L99.5248 14.4068L105.724 8.89466L112.769 14.6573C116.714 17.9145 122.069 22.2992 124.605 24.5541ZM39.2205 14.6573L44.5746 19.2926L38.7978 24.5541L32.8801 29.8157L36.4025 32.8223C38.2342 34.5762 40.9113 36.5806 42.4611 37.3323C45.1382 38.585 44.8564 38.9609 39.6432 43.5961L33.8664 48.4818L22.0309 38.7103L10.0546 28.8135L21.3264 19.4178C27.5259 14.2815 32.8801 10.0221 33.3028 10.0221C33.5846 10.0221 36.2616 12.1518 39.2205 14.6573ZM81.6308 20.0442C86.844 24.4289 91.071 28.6882 91.071 29.1893C91.071 30.3168 71.9088 46.728 69.6545 47.4796C68.95 47.6049 67.541 47.1038 66.6956 46.1016C65.7093 45.0994 60.7779 40.7147 55.5647 36.5806L46.1245 28.9388L57.5372 19.5431C64.0185 14.1562 69.5136 10.398 70.4998 10.8991C71.3452 11.4002 76.2767 15.5343 81.6308 20.0442Z" fill="black"/>
</svg>
