<svg width="155" height="71" viewBox="0 0 155 71" fill="none" xmlns="http://www.w3.org/2000/svg">
<path d="M68.8334 1.49999C68.3001 2.29999 68.9668 3.76665 70.3001 4.83332C72.7001 6.56665 72.7001 6.56665 70.1668 8.56665C68.8334 9.63332 65.2334 11.7667 62.1668 13.3667L56.7001 16.3L48.7001 11.5C44.3001 8.69999 39.7668 6.56665 38.5668 6.56665C35.5001 6.56665 20.1668 17.3667 20.7001 19.1C21.2334 20.8333 138.833 21.9 140.567 20.1667C142.833 17.9 140.167 15.1 131.5 10.0333L122.833 5.09999L112.833 10.5667L102.833 16.0333L93.6334 11.1C85.1001 6.43332 84.5668 5.89999 86.4334 3.76665C89.3668 0.566654 86.7001 -0.633347 80.9668 1.36665C77.3668 2.69999 75.9001 2.69999 74.7001 1.49999C72.7001 -0.500013 70.0334 -0.500013 68.8334 1.49999ZM85.9001 13.2333C89.5001 15.3667 89.7668 15.9 87.6334 16.0333C86.1668 16.0333 81.2334 16.3 76.7001 16.5667C72.0334 16.7 68.3001 16.8333 68.3001 16.5667C68.3001 15.5 77.2334 10.5667 79.2334 10.5667C80.5668 10.5667 83.5001 11.7667 85.9001 13.2333ZM127.367 13.6333L131.1 16.5667L122.7 16.3C118.033 16.1667 114.033 16.0333 113.633 15.9C112.967 15.7667 121.9 10.7 122.967 10.5667C123.367 10.5667 125.367 11.9 127.367 13.6333ZM42.4334 13.7667C44.7001 15.6333 44.4334 15.7667 38.5668 15.6333C32.9668 15.6333 32.5668 15.3667 34.5668 13.7667C37.6334 11.5 39.2334 11.5 42.4334 13.7667Z" fill="black"/>
<path d="M93.6333 5.23348C93.6333 6.96681 94.5666 7.90015 96.3 7.90015C98.0333 7.90015 98.9666 6.96681 98.9666 5.23348C98.9666 3.50015 98.0333 2.56681 96.3 2.56681C94.5666 2.56681 93.6333 3.50015 93.6333 5.23348Z" fill="black"/>
<path d="M60.2998 6.56673C60.2998 8.30007 61.2331 9.2334 62.9665 9.2334C64.6998 9.2334 65.6331 8.30007 65.6331 6.56673C65.6331 4.8334 64.6998 3.90006 62.9665 3.90006C61.2331 3.90006 60.2998 4.8334 60.2998 6.56673Z" fill="black"/>
<path d="M20.4332 30.5668C19.4999 31.1001 18.9665 32.7001 19.2332 34.0334C19.6332 36.4334 21.8999 36.5668 58.9665 37.3668C125.767 38.8334 137.367 38.9668 138.833 38.0334C141.5 36.3001 140.433 32.0334 137.367 31.3668C131.9 30.1668 22.0332 29.5001 20.4332 30.5668Z" fill="black"/>
<path d="M1.5 32.1666C-0.5 33.5 -0.5 33.9 1.5 36.1666C4.16667 39.3666 6.56667 39.2333 8.3 35.9C10.8333 31.1 6.43333 28.8333 1.5 32.1666Z" fill="black"/>
<path d="M147.5 33.9001C146.433 36.7001 147.767 39.9001 150.033 39.9001C151.1 39.9001 152.7 38.9668 153.633 37.9001C154.967 36.3001 154.967 35.5001 153.633 33.9001C152.7 32.8335 151.1 31.9001 150.033 31.9001C149.1 31.9001 147.9 32.8335 147.5 33.9001Z" fill="black"/>
<path d="M19.6329 48.0333C19.0996 48.7 19.3663 50.1666 20.1663 51.1C20.9663 52.0333 21.0996 53.3666 20.5663 53.9C20.0329 54.5667 20.4329 54.5667 21.3663 54.0333C22.1663 53.5 24.5663 54.1666 26.6996 55.6333C28.6996 56.9667 32.4329 59.3666 35.0996 60.9667L39.8996 63.9L48.8329 58.4333C58.8329 52.4333 56.6996 52.3 70.8329 59.7667C76.4329 62.7 76.5663 62.8333 73.7663 64.7C70.8329 66.8333 69.8996 70.5667 72.2996 70.5667C73.0996 70.5667 75.6329 69.6333 77.8996 68.4333C81.2329 66.7 82.6996 66.5667 84.5663 67.7667C89.6329 70.8333 93.3663 68.1667 89.3663 64.1666C87.4996 62.3 87.0996 62.7 96.2996 57.5L103.766 53.3666L112.566 58.7L121.5 64.1666L130.833 58.7C140.7 52.9667 142.7 50.9667 140.833 49.2333C138.966 47.6333 20.5663 46.3 19.6329 48.0333ZM40.9663 53.2333C41.6329 54.3 42.4329 54.1666 43.7663 53.1C44.8329 52.3 46.0329 51.7666 46.4329 52.1666C46.6996 52.5667 45.4996 53.9 43.6329 55.1C40.2996 57.2333 39.8996 57.2333 35.8996 54.7L31.6329 51.9H35.8996C38.1663 51.9 40.5663 52.5667 40.9663 53.2333ZM87.6329 55.5C85.4996 56.7 83.2329 58.1666 82.8329 58.9667C82.2996 59.6333 79.4996 58.8333 76.1663 56.7L70.2996 53.2333H80.9663C91.4996 53.3666 91.6329 53.3666 87.6329 55.5ZM126.166 55.2333C124.833 56.3 122.7 57.1 121.633 57.1C120.566 57.1 118.433 56.3 117.1 55.2333C114.7 53.3666 115.1 53.2333 121.633 53.2333C128.166 53.2333 128.566 53.3666 126.166 55.2333Z" fill="black"/>
<path d="M60.8329 64.5668C60.2995 65.9002 60.6995 67.3668 61.7662 68.0335C64.4329 69.6335 66.2995 68.7002 66.2995 65.7668C66.2995 62.5668 61.8995 61.6335 60.8329 64.5668Z" fill="black"/>
<path d="M93.4999 64.7C92.2999 66.1667 92.2999 67.1 93.3666 68.1667C95.2333 70.0333 98.9666 68.5667 98.9666 66.0333C98.9666 63.3667 95.3666 62.4333 93.4999 64.7Z" fill="black"/>
</svg>
