<svg width="33" height="37" viewBox="0 0 33 37" fill="none" xmlns="http://www.w3.org/2000/svg">
<path d="M16.45 36.75C13.0167 36.75 10.0767 35.9833 7.63 34.45C5.17667 32.9167 3.29333 30.7733 1.98 28.02C0.66 25.2733 0 22.0667 0 18.4C0 14.7333 0.666667 11.5167 2 8.75C3.33333 5.98333 5.22667 3.83333 7.68 2.3C10.1267 0.766666 13.05 0 16.45 0C19.85 0 22.7833 0.766666 25.25 2.3C27.7167 3.83333 29.6167 5.98333 30.95 8.75C32.2833 11.5167 32.95 14.7333 32.95 18.4C32.95 22.0667 32.2933 25.2733 30.98 28.02C29.66 30.7733 27.7667 32.9167 25.3 34.45C22.8333 35.9833 19.8833 36.75 16.45 36.75ZM16.45 32.65C20.2833 32.65 23.2 31.4 25.2 28.9C27.2 26.4 28.2 22.9 28.2 18.4C28.2 13.9 27.21 10.39 25.23 7.87C23.2433 5.35667 20.3167 4.1 16.45 4.1C12.6167 4.1 9.71 5.35667 7.73 7.87C5.74333 10.39 4.75 13.9 4.75 18.4C4.75 22.9 5.74333 26.4 7.73 28.9C9.71 31.4 12.6167 32.65 16.45 32.65ZM16.45 22.4C15.35 22.4 14.41 22 13.63 21.2C12.8433 20.4 12.45 19.4667 12.45 18.4C12.45 17.3 12.8433 16.35 13.63 15.55C14.41 14.75 15.35 14.35 16.45 14.35C17.5833 14.35 18.5433 14.75 19.33 15.55C20.11 16.35 20.5 17.3 20.5 18.4C20.5 19.4667 20.11 20.4 19.33 21.2C18.5433 22 17.5833 22.4 16.45 22.4Z" fill="black"/>
</svg>
