<svg width="21" height="37" viewBox="0 0 21 37" fill="none" xmlns="http://www.w3.org/2000/svg">
<path d="M3.2 36.75L0 34L10.35 23.65C10.9833 23.0167 11.56 22.45 12.08 21.95C12.5933 21.45 13.2167 20.95 13.95 20.45V20.15C13.15 19.65 12.4433 19.15 11.83 18.65C11.21 18.15 10.6167 17.6667 10.05 17.2L0.2 8.75V5.65L19.55 0L20.55 3.8L11.75 6.25C10.5833 6.58333 9.54333 6.86667 8.63 7.1C7.71 7.33333 6.66667 7.53333 5.5 7.7V8.05C6.53333 8.61667 7.45 9.23333 8.25 9.9C9.05 10.5667 9.81667 11.2333 10.55 11.9L18.5 18.7V21.35L3.2 36.75Z" fill="black"/>
</svg>
