<svg width="68" height="68" viewBox="0 0 68 68" fill="none" xmlns="http://www.w3.org/2000/svg">
<path d="M19.5346 2.79931C12.0679 6.39931 4.86792 13.7326 1.93458 20.9326C-0.732084 27.1993 -0.598751 40.3993 2.06792 46.666C11.4012 68.3993 39.0013 74.5326 56.4679 58.666C64.6012 51.3326 67.4013 44.7993 67.4013 33.7326C67.4013 23.066 64.7346 16.5326 57.2679 9.19931C50.7346 2.66598 45.9346 0.665977 35.5346 0.132645C27.8013 -0.267357 25.1346 0.132645 19.5346 2.79931ZM49.8013 9.86597C58.2013 15.5993 63.2679 26.1326 62.3346 35.466C61.0013 50.3993 50.7346 60.666 36.3346 61.9993C9.26792 64.5326 -5.66542 32.266 13.5346 13.066C19.8013 6.79931 24.8679 5.06598 35.8013 5.46598C42.4679 5.73264 45.2679 6.66598 49.8013 9.86597Z" fill="black"/>
</svg>
