<svg width="44" height="58" viewBox="0 0 44 58" fill="none" xmlns="http://www.w3.org/2000/svg">
<path d="M0.318974 1.73345C0.0523073 2.66678 -0.081026 15.3334 0.0523073 30.0001L0.452307 56.6668L20.319 57.0668C39.3856 57.3334 44.9856 56.4001 42.9856 53.2001C42.5856 52.5334 33.919 52.0001 23.6523 52.0001H5.11897V41.3334V30.6668H10.9856C16.8523 30.6668 16.9856 30.6668 17.3856 35.6001C17.6523 39.0668 18.4523 40.6668 19.7856 40.6668C21.119 40.6668 21.919 39.0668 22.1856 35.6001C22.5856 30.9334 22.8523 30.6668 27.2523 30.6668C30.8523 30.6668 31.7856 30.1334 31.7856 28.0001C31.7856 25.8668 30.8523 25.3334 27.2523 25.3334C22.9856 25.3334 22.5856 24.9334 22.1856 20.9334C21.919 18.2668 21.119 16.6668 19.7856 16.6668C18.4523 16.6668 17.6523 18.2668 17.3856 20.9334C16.9856 25.2001 16.719 25.3334 10.9856 25.3334H5.11897V15.3335V5.33345H23.6523C38.319 5.33345 42.319 4.93345 42.8523 3.46678C43.2523 2.40012 43.2523 1.20012 42.8523 0.800114C42.319 0.400116 32.8523 0.000114441 21.519 0.000114441C6.18564 0.000114441 0.852307 0.400116 0.318974 1.73345Z" fill="black"/>
</svg>
