<svg width="29" height="71" viewBox="0 0 29 71" fill="none" xmlns="http://www.w3.org/2000/svg">
<path d="M6.40925 2.13333C-5.05742 10.2667 0.809247 28 14.8092 28C20.9426 28 21.8759 27.4667 26.0092 22.1333C30.5426 16.2667 29.8759 10 24.4092 4.53333C20.8092 0.933332 18.8092 -1.90735e-06 14.6759 -1.90735e-06C11.8759 -1.90735e-06 8.14258 0.933332 6.40925 2.13333ZM21.4759 8.26667C24.2759 12.1333 24.1426 16.4 21.3426 19.7333C17.0759 24.6667 9.07591 23.7333 6.54258 17.8667C4.40925 13.4667 4.54258 12.9333 7.74258 8.8C11.3426 4.26666 18.5426 4 21.4759 8.26667Z" fill="black"/>
<path d="M10.276 43.1998C4.14266 45.1998 -0.924011 52.5332 0.142655 57.8665C1.87599 66.3998 7.20932 70.6665 15.876 70.6665C21.6093 70.6665 28.9427 63.1998 28.9427 57.0665C28.9427 53.5998 24.8093 43.9998 23.3427 43.9998C23.076 43.9998 21.076 43.4665 18.9427 42.7998C16.276 42.1332 13.2093 42.2665 10.276 43.1998ZM21.3427 50.3998C24.4093 53.1998 24.276 59.3332 20.8093 62.7998C17.076 66.5332 10.676 65.7332 7.34266 61.1998C0.675989 52.2665 12.676 42.7998 21.3427 50.3998Z" fill="black"/>
</svg>
