<svg width="54" height="60" viewBox="0 0 54 60" fill="none" xmlns="http://www.w3.org/2000/svg">
<path d="M0 2.53331C0 5.59997 5.06667 13.0666 9.46667 16.2666C11.3333 17.7333 15.2 19.6 18.1333 20.6666C21.6 21.8666 23.4667 23.3333 23.7333 25.2C24.1333 27.7333 23.6 28 16.1333 28C11.6 28 8 28.5333 8 29.3333C8 30.1333 11.6 30.6666 16.1333 30.6666C23.6 30.6666 24.1333 30.9333 23.7333 33.4666C23.4667 35.3333 21.6 36.8 18.1333 38C15.2 39.0666 11.3333 40.9333 9.46667 42.4C5.06667 45.6 0 53.0666 0 56.1333C0 59.8666 3.73333 59.2 5.86667 54.9333C8.4 50 13.0667 45.8666 18.9333 43.4666L23.8667 41.3333L24.2667 50.2666C24.5333 57.6 25.0667 59.3333 27.0667 59.7333C29.0667 60.1333 29.3333 59.0666 29.3333 51.4666C29.3333 43.2 29.4667 42.6666 32.4 42.6666C36.9333 42.6666 43.6 47.3333 47.3333 53.3333C49.2 56.2666 51.2 58.6666 52 58.6666C56.9333 58.6666 51.8667 47.8666 44.1333 42.4C41.4667 40.5333 37.2 38.4 34.6667 37.7333C31.3333 36.8 29.8667 35.6 29.6 33.6C29.2 30.8 29.6 30.6666 37.8667 30.6666C42.8 30.6666 46.6667 30.1333 46.6667 29.3333C46.6667 28.5333 42.8 28 37.8667 28C29.6 28 29.2 27.8666 29.6 25.0666C29.8667 23.0666 31.3333 21.8666 34.6667 20.9333C37.2 20.2666 41.4667 18.1333 44.1333 16.2666C51.8667 10.8 56.9333 -2.67029e-05 52 -2.67029e-05C51.2 -2.67029e-05 49.2 2.39997 47.3333 5.33331C43.6 11.3333 36.9333 16 32.4 16C29.6 16 29.3333 15.4666 29.3333 7.86664C29.3333 0.933308 29.0667 -0.133362 27.0667 0.26664C25.2 0.533306 24.5333 2.39997 24 8.93331L23.3333 17.2L18 14.8C12.8 12.5333 4 3.99997 4 1.33331C4 0.533306 3.06667 -2.67029e-05 2 -2.67029e-05C0.933333 -2.67029e-05 0 1.06664 0 2.53331Z" fill="black"/>
</svg>
