<svg width="236" height="96" viewBox="0 0 236 96" fill="none" xmlns="http://www.w3.org/2000/svg">
<path d="M49.7826 53.5081C50.124 53.675 53.8445 56.9547 58.0771 60.836L65.7313 67.9387L60.6429 73.824C55.7253 79.4416 53.9866 80.8265 53.5795 79.4062C53.4903 79.1152 55.6057 76.4537 58.2954 73.4665L63.1509 68.0739L60.0473 65.2794L56.9436 62.4849L55.4066 64.1919C53.8697 65.8989 53.8347 65.9377 55.1654 67.3465C56.1042 68.3323 56.3601 68.9843 56.0108 69.3722C55.6615 69.7602 54.9864 69.5738 53.9078 68.7432C52.4452 67.6369 52.2977 67.6447 51.145 68.9249C50.2018 69.9724 49.8021 70.1042 49.1814 69.5453C48.5607 68.9864 48.65 68.5751 49.5932 67.5276C50.711 66.2862 50.6994 66.065 49.6403 64.9007C48.9343 64.1245 48.6783 63.4725 49.0276 63.0846C49.377 62.6966 50.0521 62.883 50.8979 63.504C52.2441 64.5055 52.3528 64.4628 53.8548 62.7946L55.3918 61.0876L52.4822 58.4677L49.5725 55.8479L44.717 61.2404C40.8746 65.5079 39.7102 66.567 39.1437 66.3379C38.7286 66.1749 38.3794 65.8605 38.3678 65.6393C38.3912 65.3793 40.7549 62.5201 43.7241 59.2225C47.7412 54.761 49.2549 53.314 49.7826 53.5081Z" fill="#3F6212"/>
<path d="M17.1962 53.5081C16.8548 53.675 13.1343 56.9547 8.90171 60.836L1.24742 67.9387L6.33583 73.824C11.2535 79.4416 12.9921 80.8265 13.3993 79.4062C13.4884 79.1152 11.3731 76.4537 8.68335 73.4665L3.82786 68.0739L6.9315 65.2794L10.0351 62.4849L11.5721 64.1919C13.1091 65.8989 13.144 65.9377 11.8134 67.3465C10.8746 68.3323 10.6186 68.9843 10.9679 69.3722C11.3173 69.7602 11.9924 69.5738 13.0709 68.7432C14.5336 67.6369 14.681 67.6447 15.8338 68.9249C16.7769 69.9724 17.1766 70.1042 17.7973 69.5453C18.4181 68.9864 18.3287 68.5751 17.3856 67.5276C16.2678 66.2862 16.2794 66.065 17.3384 64.9007C18.0445 64.1245 18.3004 63.4725 17.9511 63.0846C17.6018 62.6966 16.9267 62.883 16.0809 63.504C14.7346 64.5055 14.626 64.4628 13.1239 62.7946L11.5869 61.0876L14.4966 58.4677L17.4063 55.8479L22.2617 61.2404C26.1042 65.5079 27.2685 66.567 27.835 66.3379C28.2502 66.1749 28.5993 65.8605 28.6109 65.6393C28.5876 65.3793 26.2238 62.5201 23.2547 59.2225C19.2375 54.761 17.7239 53.314 17.1962 53.5081Z" fill="#3F6212"/>
<path d="M25.5804 36.4766C22.6318 39.3797 22 40.8313 22 44.3564C22 47.8816 22.6318 49.3332 25.5804 52.2362C30.4245 57.0056 36.5322 57.213 40.9551 52.7547C46.7469 47.1558 46.2204 39.4834 40.0073 35.3361C34.742 31.8109 29.898 32.2257 25.5804 36.4766ZM39.6914 38.7576C45.9045 45.6006 38.6384 55.7614 30.0033 52.2362C22.8424 49.3332 22.6318 40.1055 29.6873 36.684C33.689 34.8177 36.4269 35.3361 39.6914 38.7576Z" fill="#3F6212"/>
<path d="M17 55.5285C17 57.4257 20.0989 62.0452 22.7901 64.0249C23.9319 64.9323 26.2968 66.0872 28.091 66.7471C30.2113 67.4895 31.353 68.3969 31.5161 69.5517C31.7608 71.119 31.4346 71.284 26.8677 71.284C24.095 71.284 21.8931 71.614 21.8931 72.1089C21.8931 72.6038 24.095 72.9338 26.8677 72.9338C31.4346 72.9338 31.7608 73.0988 31.5161 74.6661C31.353 75.8209 30.2113 76.7283 28.091 77.4707C26.2968 78.1307 23.9319 79.2855 22.7901 80.1929C20.0989 82.1727 17 86.7921 17 88.6893C17 90.9991 19.2834 90.5866 20.5883 87.9469C22.1377 84.8948 24.992 82.3376 28.5803 80.8528L31.5977 79.533L31.8423 85.0598C32.0054 89.5967 32.3316 90.6691 33.5549 90.9166C34.7782 91.164 34.9413 90.5041 34.9413 85.8022C34.9413 80.6878 35.0228 80.3579 36.817 80.3579C39.5897 80.3579 43.6673 83.245 45.9507 86.9571C47.0924 88.7718 48.3157 90.2566 48.805 90.2566C51.8224 90.2566 48.7235 83.575 43.9935 80.1929C42.3625 79.038 39.7528 77.7182 38.2033 77.3058C36.1646 76.7283 35.2675 75.9859 35.1044 74.7486C34.8597 73.0163 35.1044 72.9338 40.1606 72.9338C43.178 72.9338 45.543 72.6038 45.543 72.1089C45.543 71.614 43.178 71.284 40.1606 71.284C35.1044 71.284 34.8597 71.2015 35.1044 69.4692C35.2675 68.2319 36.1646 67.4895 38.2033 66.9121C39.7528 66.4996 42.3625 65.1798 43.9935 64.0249C48.7235 60.6428 51.8224 53.9612 48.805 53.9612C48.3157 53.9612 47.0924 55.446 45.9507 57.2608C43.6673 60.9728 39.5897 63.8599 36.817 63.8599C35.1044 63.8599 34.9413 63.53 34.9413 58.8281C34.9413 54.5386 34.7782 53.8787 33.5549 54.1262C32.4132 54.2911 32.0054 55.446 31.6792 59.488L31.2715 64.6023L28.0094 63.1175C24.8289 61.7152 19.4465 56.4359 19.4465 54.7861C19.4465 54.2911 18.8757 53.9612 18.2233 53.9612C17.5709 53.9612 17 54.6211 17 55.5285Z" fill="#3F6212"/>
<path d="M54.7979 46.4465C54.3029 44.9631 52.4879 43.7377 51.1679 43.9957C49.056 44.4149 48 45.7048 48 47.8009C48 49.1876 49.848 50.9612 51.3659 50.9612C52.2239 50.9612 54.5999 49.9615 54.5999 49.6068C54.5999 49.5423 54.7319 49.0586 54.8969 48.5426C55.0619 47.8976 55.0289 47.1559 54.7979 46.4465ZM53.0159 49.1231C52.3229 49.8648 50.8049 49.8325 49.947 48.9941C49.023 48.0911 49.221 46.5432 50.343 45.7371C52.5539 44.1247 54.8969 47.027 53.0159 49.1231Z" fill="#3F6212"/>
<path d="M18.7979 46.4465C18.3029 44.9631 16.4879 43.7377 15.1679 43.9957C13.056 44.4149 12 45.7048 12 47.8009C12 49.1876 13.848 50.9612 15.3659 50.9612C16.2239 50.9612 18.5999 49.9615 18.5999 49.6068C18.5999 49.5423 18.7319 49.0586 18.8969 48.5426C19.0619 47.8976 19.0289 47.1559 18.7979 46.4465ZM17.0159 49.1231C16.3229 49.8648 14.8049 49.8325 13.947 48.9941C13.023 48.0911 13.221 46.5432 14.343 45.7371C16.5539 44.1247 18.8969 47.027 17.0159 49.1231Z" fill="#3F6212"/>
<path d="M61.8375 29.496C61.8027 26.9785 72.6128 20.7184 62.6722 0.247956C59.7082 -1.69765 45.3532 7.89979 56.914 25.7575C59.4134 32.1183 55.3579 35.031 53.4983 37.0189L56.3971 39.7305C56.3971 39.7305 61.1098 32.315 68.5681 34.9586C73.6423 36.758 84.0667 45.5641 99.9577 33.8699C97.5162 26.3863 74.5757 15.0637 61.8375 29.496ZM60.4169 23.6866C59.9203 23.6019 59.567 23.1343 59.6281 22.6428C60.0565 19.2275 60.3693 10.7151 60.1684 7.31432C60.1385 6.81595 60.5205 6.40754 61.0198 6.4041C61.5189 6.39846 61.9477 6.79956 61.9755 7.29802C62.1812 10.9185 61.8718 19.3328 61.427 22.9501C61.3659 23.4415 60.9135 23.7714 60.4169 23.6866ZM89.1017 30.9234C81.3917 29.2783 72.739 30.4474 68.4111 31.4302C67.9302 31.5394 67.4309 31.2327 67.2979 30.7475C67.1659 30.2611 67.4487 29.7789 67.9318 29.6697C72.4435 28.6562 81.2405 27.4345 89.3954 29.1581C89.8897 29.2619 90.2225 29.7419 90.1423 30.2302C90.0609 30.7173 89.596 31.0272 89.1017 30.9234Z" fill="#E7E5E4"/>
<path d="M19.5346 30.7604C12.0679 34.3604 4.86792 41.6937 1.93458 48.8937C-0.732084 55.1604 -0.598751 68.3604 2.06792 74.6271C11.4012 96.3604 39.0013 102.494 56.4679 86.6271C64.6012 79.2937 67.4013 72.7604 67.4013 61.6937C67.4013 51.0271 64.7346 44.4937 57.2679 37.1604C50.7346 30.6271 45.9346 28.6271 35.5346 28.0938C27.8013 27.6937 25.1346 28.0938 19.5346 30.7604ZM49.8013 37.8271C58.2013 43.5604 63.2679 54.0938 62.3346 63.4271C61.0013 78.3604 50.7346 88.6271 36.3346 89.9604C9.26792 92.4937 -5.66542 60.2271 13.5346 41.0271C19.8013 34.7604 24.8679 33.0271 35.8013 33.4271C42.4679 33.6937 45.2679 34.6271 49.8013 37.8271Z" fill="#3F6212"/>
<path d="M198.5 70.568C196.334 70.568 194.545 70.1549 193.131 69.3288C191.71 68.5068 191 67.324 191 65.7802C191 64.2156 191.71 63.0202 193.131 62.1941C194.545 61.3721 196.334 60.9612 198.5 60.9612C200.666 60.9612 202.459 61.3721 203.879 62.1941C205.293 63.0202 206 64.2156 206 65.7802C206 67.324 205.293 68.5068 203.879 69.3288C202.459 70.1549 200.666 70.568 198.5 70.568ZM198.5 68.3149C200.793 68.3149 201.939 67.47 201.939 65.7802C201.939 64.9875 201.646 64.3658 201.061 63.9152C200.468 63.4687 199.615 63.2455 198.5 63.2455C197.354 63.2455 196.494 63.4687 195.92 63.9152C195.347 64.3658 195.061 64.9875 195.061 65.7802C195.061 66.5938 195.363 67.2197 195.968 67.6578C196.573 68.0959 197.417 68.3149 198.5 68.3149ZM198.5 83.9612C196.334 83.9612 194.545 83.5481 193.131 82.722C191.71 81.9 191 80.7172 191 79.1734C191 77.6088 191.71 76.4134 193.131 75.5873C194.545 74.7653 196.334 74.3544 198.5 74.3544C200.666 74.3544 202.459 74.7653 203.879 75.5873C205.293 76.4134 206 77.6088 206 79.1734C206 80.7172 205.293 81.9 203.879 82.722C202.459 83.5481 200.666 83.9612 198.5 83.9612ZM198.5 81.7081C200.793 81.7081 201.939 80.8632 201.939 79.1734C201.939 78.3807 201.646 77.759 201.061 77.3084C200.468 76.8619 199.615 76.6387 198.5 76.6387C197.354 76.6387 196.494 76.8619 195.92 77.3084C195.347 77.759 195.061 78.3807 195.061 79.1734C195.061 79.987 195.363 80.6129 195.968 81.051C196.573 81.4891 197.417 81.7081 198.5 81.7081Z" fill="#E7E5E4"/>
<path d="M179.489 83.9612C177.926 83.9612 176.587 83.4814 175.473 82.5217C174.357 81.5621 173.499 80.2207 172.901 78.4975C172.3 76.7785 172 74.7716 172 72.4768C172 70.182 172.303 68.1689 172.91 66.4374C173.517 64.7058 174.379 63.3603 175.496 62.4006C176.61 61.441 177.941 60.9612 179.489 60.9612C181.036 60.9612 182.372 61.441 183.495 62.4006C184.618 63.3603 185.483 64.7058 186.09 66.4374C186.697 68.1689 187 70.182 187 72.4768C187 74.7716 186.701 76.7785 186.103 78.4975C185.502 80.2207 184.64 81.5621 183.517 82.5217C182.395 83.4814 181.052 83.9612 179.489 83.9612ZM179.489 81.3952C181.234 81.3952 182.561 80.6129 183.472 79.0482C184.382 77.4836 184.838 75.2931 184.838 72.4768C184.838 69.6605 184.387 67.4638 183.486 65.8866C182.581 64.3136 181.249 63.5272 179.489 63.5272C177.744 63.5272 176.42 64.3136 175.519 65.8866C174.615 67.4638 174.162 69.6605 174.162 72.4768C174.162 75.2931 174.615 77.4836 175.519 79.0482C176.42 80.6129 177.744 81.3952 179.489 81.3952Z" fill="#E7E5E4"/>
<path d="M144 83.9612H129C129 83.9612 129 83.0802 129 81.7707C129 80.4612 140.394 63.5382 140.394 63.5382H129.364V60.9612H143.697V63.1517L132.303 81.3841H144V83.9612Z" fill="#E7E5E4"/>
<path d="M152 83.9612V60.9612H165.875L166.357 62.3785L160.411 72.3001L167 83.7035V83.9612H164.188L158.911 74.8127L153.473 83.9612H152ZM154.196 78.8715C154.643 77.8407 155.089 76.9001 155.536 76.0497C155.982 75.2036 156.491 74.2973 157.062 73.3309L160.411 67.7581C160.893 66.942 161.361 66.1904 161.814 65.5032C162.271 64.816 162.75 64.1717 163.25 63.5704L163.196 63.3771C162.696 63.4201 162.241 63.4523 161.83 63.4738C161.42 63.4953 160.875 63.506 160.196 63.506H154.384V72.6545C154.384 73.6853 154.362 74.7268 154.32 75.7791C154.273 76.8314 154.179 77.8407 154.036 78.8071L154.196 78.8715Z" fill="#E7E5E4"/>
<path d="M118.792 76.8719L118.157 74.3057L116.276 67.3768C116.229 67.2057 116.15 66.8956 116.041 66.4465C115.931 65.9974 115.821 65.5376 115.712 65.0672C115.618 64.5753 115.539 64.2011 115.476 63.9444C115.367 64.6074 115.241 65.2596 115.1 65.9012C114.959 66.5214 114.842 67.0132 114.748 67.3768L112.843 74.3057L112.138 76.8719L110.139 83.9612H108L114.56 60.9612H116.464L123 83.9612H120.813L118.792 76.8719Z" fill="#E7E5E4"/>
<path d="M85.5 67.9612H82V71.0592L85.5 71.0592V71.0592V67.9612Z" fill="#E7E5E4"/>
<path d="M91 70.7063L92.5 67.6082H93.7164V60.9612H97.2836V67.6082H105.5V70.7063H97.2836L94.5 83.9612H91L93.8492 70.7063H91Z" fill="#E7E5E4"/>
<path d="M97.2834 59.9612H93.7163V54.9612H97.2834V59.9612Z" fill="#E7E5E4"/>
<path d="M101.5 66.9612H97.9025V64.1951H101.5V66.9612Z" fill="#E7E5E4"/>
<path d="M98.2457 63.7273V60.9612H99.5V63.7273H98.2457Z" fill="#E7E5E4"/>
<path d="M79 63.7273H86.9196V85.9612H90.1159V70.7306V63.7273H93.1482V60.9612H79V63.7273Z" fill="#E7E5E4"/>
<path d="M215.5 67.9612H212V71.0592L215.5 71.0592V71.0592V67.9612Z" fill="#E7E5E4"/>
<path d="M221 70.7063L222.5 67.6082H223.716V60.9612H227.284V67.6082H235.5V70.7063H227.284L224.5 83.9612H221L223.849 70.7063H221Z" fill="#E7E5E4"/>
<path d="M227.283 59.9612H223.716V54.9612H227.283V59.9612Z" fill="#E7E5E4"/>
<path d="M231.5 66.9612H227.903V64.1951H231.5V66.9612Z" fill="#E7E5E4"/>
<path d="M228.246 63.7273V60.9612H229.5V63.7273H228.246Z" fill="#E7E5E4"/>
<path d="M209 63.7273H216.92V85.9612H220.116V70.7306V63.7273H223.148V60.9612H209V63.7273Z" fill="#E7E5E4"/>
<path d="M140.693 74.246C140.51 74.7899 139.724 76.7115 139.45 77.2916C139.304 77.5998 139.103 78.0712 138.993 78.3612C138.883 78.6513 138.755 78.8326 138.7 78.7963C138.645 78.7419 138.371 78.0168 138.097 77.1829C137.804 76.349 137.493 75.6419 137.402 75.6238C137.164 75.5332 136.853 76.0226 135.829 78.2162C134.915 80.1922 134.805 80.718 135.263 80.8992C135.701 81.0624 135.793 80.9536 136.433 79.3764C136.762 78.5607 137.091 77.9624 137.164 78.0531C137.256 78.1256 137.548 78.7601 137.841 79.4671C138.627 81.2981 138.847 81.2074 139.925 78.7419C140.419 77.6361 140.803 76.6209 140.821 76.4759C140.821 76.1133 141.059 76.4396 141.461 77.3823C141.809 78.1618 142.046 78.47 142.321 78.47C142.394 78.47 142.705 77.9261 143.016 77.2554C143.326 76.6028 143.601 76.0952 143.637 76.1314C143.674 76.1677 144.094 77.2191 144.552 78.4519C145.027 79.6846 145.448 80.7542 145.502 80.8449C145.704 81.1893 146.106 80.7361 146.764 79.3764C147.166 78.5788 147.532 77.9261 147.587 77.9261C147.66 77.9261 147.934 78.4156 148.227 78.9957C148.501 79.594 148.922 80.301 149.141 80.5729C149.489 81.008 149.598 81.0443 149.836 80.8449C150.11 80.6273 150.074 80.4823 149.47 79.3221C149.105 78.5969 148.629 77.5273 148.41 76.9291C148.172 76.3308 147.879 75.8232 147.733 75.787C147.587 75.7688 147.185 76.349 146.709 77.3098C146.27 78.1618 145.886 78.8507 145.868 78.8145C145.795 78.7419 144.296 74.9531 144.058 74.246C143.857 73.7022 143.601 73.9016 142.888 75.1525L142.211 76.3671L141.681 75.1525C141.114 73.9016 140.894 73.7022 140.693 74.246Z" fill="#3F6212"/>
<path d="M143.016 79.1045C142.705 79.5577 142.376 79.9203 142.302 79.9203C142.211 79.9203 141.918 79.594 141.644 79.1952C141.132 78.47 140.821 78.2706 140.821 78.6876C140.821 79.0139 142.138 80.8267 142.376 80.8267C142.504 80.8267 142.869 80.3191 143.217 79.7028C144.003 78.2525 144.003 78.2887 143.765 78.2887C143.674 78.2887 143.326 78.6513 143.016 79.1045Z" fill="#3F6212"/>
<path d="M180.035 62.9612L178.839 62.988C178.92 63.4985 178.812 63.5523 177.289 63.5523C176.365 63.5523 175.631 63.6597 175.631 63.8209C175.631 63.9821 176.365 64.0896 177.289 64.0896C178.812 64.0896 178.92 64.1433 178.839 64.6538C178.784 65.0299 178.404 65.3255 177.697 65.5673C177.099 65.7822 176.311 66.1584 175.93 66.4539C175.033 67.0987 174 68.6033 174 69.2212C174 69.9735 174.761 69.8392 175.196 68.9794C175.713 67.9853 176.664 67.1525 177.86 66.6688L178.866 66.239L178.947 68.0391C179.002 69.5168 179.111 69.866 179.518 69.9466C179.926 70.0272 179.98 69.8123 179.98 68.2809C179.98 66.6151 180.008 66.5076 180.606 66.5076C181.53 66.5076 182.889 67.448 183.65 68.657C184.031 69.2481 184.439 69.7317 184.602 69.7317C185.607 69.7317 184.574 67.5555 182.998 66.4539C182.454 66.0778 181.584 65.6479 181.068 65.5136C180.388 65.3255 180.089 65.0837 180.035 64.6807C179.953 64.1165 180.035 64.0896 181.72 64.0896C182.726 64.0896 183.514 63.9821 183.514 63.8209C183.514 63.6597 182.726 63.5523 181.72 63.5523C180.035 63.5523 179.953 63.5254 180.035 62.9612Z" fill="#E7E5E4"/>
</svg>
