<svg width="100" height="96" viewBox="0 0 100 96" fill="none" xmlns="http://www.w3.org/2000/svg">
<path d="M49.7826 53.5081C50.124 53.675 53.8445 56.9547 58.0771 60.836L65.7313 67.9387L60.6429 73.824C55.7253 79.4416 53.9866 80.8265 53.5795 79.4062C53.4903 79.1152 55.6057 76.4537 58.2954 73.4665L63.1509 68.0739L60.0473 65.2794L56.9436 62.4849L55.4066 64.1919C53.8697 65.8989 53.8347 65.9377 55.1654 67.3465C56.1042 68.3323 56.3601 68.9843 56.0108 69.3722C55.6615 69.7602 54.9864 69.5738 53.9078 68.7432C52.4452 67.6369 52.2977 67.6447 51.145 68.9249C50.2018 69.9724 49.8021 70.1042 49.1814 69.5453C48.5607 68.9864 48.65 68.5751 49.5932 67.5276C50.711 66.2862 50.6994 66.065 49.6403 64.9007C48.9343 64.1245 48.6783 63.4725 49.0276 63.0846C49.377 62.6966 50.0521 62.883 50.8979 63.504C52.2441 64.5055 52.3528 64.4628 53.8548 62.7946L55.3918 61.0876L52.4822 58.4677L49.5725 55.8479L44.717 61.2404C40.8746 65.5079 39.7102 66.567 39.1437 66.3379C38.7286 66.1749 38.3794 65.8605 38.3678 65.6393C38.3912 65.3793 40.7549 62.5201 43.7241 59.2225C47.7412 54.761 49.2549 53.314 49.7826 53.5081Z" fill="#1C1917"/>
<path d="M17.1962 53.5081C16.8548 53.675 13.1343 56.9547 8.90171 60.836L1.24742 67.9387L6.33583 73.824C11.2535 79.4416 12.9921 80.8265 13.3993 79.4062C13.4884 79.1152 11.3731 76.4537 8.68335 73.4665L3.82786 68.0739L6.9315 65.2794L10.0351 62.4849L11.5721 64.1919C13.1091 65.8989 13.144 65.9377 11.8134 67.3465C10.8746 68.3323 10.6186 68.9843 10.9679 69.3722C11.3173 69.7602 11.9924 69.5738 13.0709 68.7432C14.5336 67.6369 14.681 67.6447 15.8338 68.9249C16.7769 69.9724 17.1766 70.1042 17.7973 69.5453C18.4181 68.9864 18.3287 68.5751 17.3856 67.5276C16.2678 66.2862 16.2794 66.065 17.3384 64.9007C18.0445 64.1245 18.3004 63.4725 17.9511 63.0846C17.6018 62.6966 16.9267 62.883 16.0809 63.504C14.7346 64.5055 14.626 64.4628 13.1239 62.7946L11.5869 61.0876L14.4966 58.4677L17.4063 55.8479L22.2617 61.2404C26.1042 65.5079 27.2685 66.567 27.835 66.3379C28.2502 66.1749 28.5993 65.8605 28.6109 65.6393C28.5876 65.3793 26.2238 62.5201 23.2547 59.2225C19.2375 54.761 17.7239 53.314 17.1962 53.5081Z" fill="#1C1917"/>
<path d="M25.5804 36.4766C22.6318 39.3797 22 40.8313 22 44.3564C22 47.8816 22.6318 49.3332 25.5804 52.2362C30.4245 57.0056 36.5322 57.213 40.9551 52.7547C46.7469 47.1558 46.2204 39.4834 40.0073 35.3361C34.742 31.8109 29.898 32.2257 25.5804 36.4766ZM39.6914 38.7576C45.9045 45.6006 38.6384 55.7614 30.0033 52.2362C22.8424 49.3332 22.6318 40.1055 29.6873 36.684C33.689 34.8177 36.4269 35.3361 39.6914 38.7576Z" fill="#1C1917"/>
<path d="M17 55.5285C17 57.4257 20.0989 62.0452 22.7901 64.0249C23.9319 64.9323 26.2968 66.0872 28.091 66.7471C30.2113 67.4895 31.353 68.3969 31.5161 69.5517C31.7608 71.119 31.4346 71.284 26.8677 71.284C24.095 71.284 21.8931 71.614 21.8931 72.1089C21.8931 72.6038 24.095 72.9338 26.8677 72.9338C31.4346 72.9338 31.7608 73.0988 31.5161 74.6661C31.353 75.8209 30.2113 76.7283 28.091 77.4707C26.2968 78.1307 23.9319 79.2855 22.7901 80.1929C20.0989 82.1727 17 86.7921 17 88.6893C17 90.9991 19.2834 90.5866 20.5883 87.9469C22.1377 84.8948 24.992 82.3376 28.5803 80.8528L31.5977 79.533L31.8423 85.0598C32.0054 89.5967 32.3316 90.6691 33.5549 90.9166C34.7782 91.164 34.9413 90.5041 34.9413 85.8022C34.9413 80.6878 35.0228 80.3579 36.817 80.3579C39.5897 80.3579 43.6673 83.245 45.9507 86.9571C47.0924 88.7718 48.3157 90.2566 48.805 90.2566C51.8224 90.2566 48.7235 83.575 43.9935 80.1929C42.3625 79.038 39.7528 77.7182 38.2033 77.3058C36.1646 76.7283 35.2675 75.9859 35.1044 74.7486C34.8597 73.0163 35.1044 72.9338 40.1606 72.9338C43.178 72.9338 45.543 72.6038 45.543 72.1089C45.543 71.614 43.178 71.284 40.1606 71.284C35.1044 71.284 34.8597 71.2015 35.1044 69.4692C35.2675 68.2319 36.1646 67.4895 38.2033 66.9121C39.7528 66.4996 42.3625 65.1798 43.9935 64.0249C48.7235 60.6428 51.8224 53.9612 48.805 53.9612C48.3157 53.9612 47.0924 55.446 45.9507 57.2608C43.6673 60.9728 39.5897 63.8599 36.817 63.8599C35.1044 63.8599 34.9413 63.53 34.9413 58.8281C34.9413 54.5386 34.7782 53.8787 33.5549 54.1262C32.4132 54.2911 32.0054 55.446 31.6792 59.488L31.2715 64.6023L28.0094 63.1175C24.8289 61.7152 19.4465 56.4359 19.4465 54.7861C19.4465 54.2911 18.8757 53.9612 18.2233 53.9612C17.5709 53.9612 17 54.6211 17 55.5285Z" fill="#1C1917"/>
<path d="M54.7979 46.4465C54.3029 44.9631 52.4879 43.7377 51.1679 43.9957C49.056 44.4149 48 45.7048 48 47.8009C48 49.1876 49.848 50.9612 51.3659 50.9612C52.2239 50.9612 54.5999 49.9615 54.5999 49.6068C54.5999 49.5423 54.7319 49.0586 54.8969 48.5426C55.0619 47.8976 55.0289 47.1559 54.7979 46.4465ZM53.0159 49.1231C52.3229 49.8648 50.8049 49.8325 49.947 48.9941C49.023 48.0911 49.221 46.5432 50.343 45.7371C52.5539 44.1247 54.8969 47.027 53.0159 49.1231Z" fill="#1C1917"/>
<path d="M18.7979 46.4465C18.3029 44.9631 16.4879 43.7377 15.1679 43.9957C13.056 44.4149 12 45.7048 12 47.8009C12 49.1876 13.848 50.9612 15.3659 50.9612C16.2239 50.9612 18.5999 49.9615 18.5999 49.6068C18.5999 49.5423 18.7319 49.0586 18.8969 48.5426C19.0619 47.8976 19.0289 47.1559 18.7979 46.4465ZM17.0159 49.1231C16.3229 49.8648 14.8049 49.8325 13.947 48.9941C13.023 48.0911 13.221 46.5432 14.343 45.7371C16.5539 44.1247 18.8969 47.027 17.0159 49.1231Z" fill="#1C1917"/>
<path d="M61.8375 29.496C61.8027 26.9785 72.6128 20.7184 62.6722 0.247956C59.7082 -1.69765 45.3532 7.89979 56.914 25.7575C59.4134 32.1183 55.3579 35.031 53.4983 37.0189L56.3971 39.7305C56.3971 39.7305 61.1098 32.315 68.5681 34.9586C73.6423 36.758 84.0667 45.5641 99.9577 33.8699C97.5162 26.3863 74.5757 15.0637 61.8375 29.496ZM60.4169 23.6866C59.9203 23.6019 59.567 23.1343 59.6281 22.6428C60.0565 19.2275 60.3693 10.7151 60.1684 7.31432C60.1385 6.81595 60.5205 6.40754 61.0198 6.4041C61.5189 6.39846 61.9477 6.79956 61.9755 7.29802C62.1812 10.9185 61.8718 19.3328 61.427 22.9501C61.3659 23.4415 60.9135 23.7714 60.4169 23.6866ZM89.1017 30.9234C81.3917 29.2783 72.739 30.4474 68.4111 31.4302C67.9302 31.5394 67.4309 31.2327 67.2979 30.7475C67.1659 30.2611 67.4487 29.7789 67.9318 29.6697C72.4435 28.6562 81.2405 27.4345 89.3954 29.1581C89.8897 29.2619 90.2225 29.7419 90.1423 30.2302C90.0609 30.7173 89.596 31.0272 89.1017 30.9234Z" fill="#1A2E1A"/>
<path d="M19.5346 30.7604C12.0679 34.3604 4.86792 41.6937 1.93458 48.8937C-0.732084 55.1604 -0.598751 68.3604 2.06792 74.6271C11.4012 96.3604 39.0013 102.494 56.4679 86.6271C64.6012 79.2937 67.4013 72.7604 67.4013 61.6937C67.4013 51.0271 64.7346 44.4937 57.2679 37.1604C50.7346 30.6271 45.9346 28.6271 35.5346 28.0938C27.8013 27.6937 25.1346 28.0938 19.5346 30.7604ZM49.8013 37.8271C58.2013 43.5604 63.2679 54.0938 62.3346 63.4271C61.0013 78.3604 50.7346 88.6271 36.3346 89.9604C9.26792 92.4937 -5.66542 60.2271 13.5346 41.0271C19.8013 34.7604 24.8679 33.0271 35.8013 33.4271C42.4679 33.6937 45.2679 34.6271 49.8013 37.8271Z" fill="#1C1917"/>
</svg>
